<svg xmlns="http://www.w3.org/2000/svg" xmlns:xlink="http://www.w3.org/1999/xlink" width="2448" height="523" viewBox="0 0 2448 523">
    <defs>
        <path id="prefix__a" d="M0 0.251L281.408 0.251 281.408 142.07 0 142.07z"/>
        <path id="prefix__c" d="M0.734 0.181L282.142 0.181 282.142 142 0.734 142z"/>
    </defs>
    <g fill="none" fill-rule="evenodd">
        <path fill="#E5204E" d="M202.999 114.796c.155 0 .305.02.46.02-.121-1.368-.21-2.75-.21-4.155 0-25.604 20.756-46.36 46.36-46.36s46.36 20.756 46.36 46.36c0 1.448-.086 2.872-.216 4.286 1.006-.062 2.008-.151 3.028-.151 25.604 0 46.36 20.756 46.36 46.359 0 25.604-20.756 46.36-46.36 46.36-2.251 0-4.448-.216-6.614-.527-6.322 18.08-23.486 31.07-43.725 31.07-20.077 0-37.12-12.783-43.566-30.638-.628.025-1.243.095-1.877.095-25.604 0-46.36-20.756-46.36-46.36 0-25.603 20.756-46.36 46.36-46.36"/>
        <path fill="#597EB1" d="M252.008 218.642l6.98 108.89c.11 1.497-.749 2.708-1.916 2.708h-18.159c-1.17 0-2.029-1.211-1.918-2.708l6.976-108.89c.177-1.497 4.471-57.486 4.471-57.486 1.794 0 3.392 55.989 3.566 57.486"/>
        <path fill="#597EB1" d="M247.13 258.745l-20.39-47.063c-.126-.299-.468-.435-.766-.305-.277.12-.413.431-.324.71l15.391 48.93c.54 1.71 2.365 2.662 4.077 2.123 1.716-.54 2.667-2.366 2.128-4.078-.035-.108-.076-.215-.117-.317M251.273 218.686l18.416-30.547c.117-.193.054-.444-.14-.561-.171-.105-.392-.064-.519.086L245.998 214.9c-1.162 1.373-.991 3.43.382 4.592 1.373 1.16 3.428.989 4.592-.384.108-.13.216-.282.301-.422M250.408 204.138s-.114-.672-.317-1.852c-.013-.503-.47-1.563-.828-2.53-.358-1.103-1.014-1.851-1.626-2.885-1.354-1.864-3.167-3.74-5.245-5.393-2.051-1.722-4.338-3.282-6.588-4.858-2.255-1.553-4.487-3.088-6.472-4.624-.996-.763-1.905-1.546-2.77-2.295-.772-.808-1.644-1.49-2.212-2.273-.615-.752-1.226-1.421-1.582-2.115-.386-.672-.821-1.231-.961-1.77l-.628-1.635-.063-.163c-.158-.411-.621-.621-1.036-.462-.397.152-.603.584-.485.98 0 0 .209.7.57 1.925.134.643.552 1.29.938 2.086.359.827.958 1.6 1.579 2.486.587.922 1.43 1.693 2.217 2.638.85.855 1.756 1.762 2.73 2.632 1.947 1.75 4.106 3.478 6.23 5.193 2.11 1.719 4.228 3.412 5.98 5.127 1.818 1.68 3.213 3.406 4.158 4.925.36.767.906 1.518.974 2.048.135.618.43.859.43 1.576.11 1.192.175 1.874.175 1.874.127 1.338 1.312 2.324 2.653 2.2 1.338-.124 2.325-1.31 2.2-2.65-.005-.058-.015-.127-.021-.185"/>
        <path fill="#FA7880" d="M452.973 84.064c-.197 0-.386.028-.58.028.15-1.731.263-3.478.263-5.254 0-32.363-26.235-58.598-58.598-58.598S335.46 46.474 335.46 78.838c0 1.83.11 3.63.273 5.418-1.27-.08-2.537-.192-3.827-.192-32.364 0-58.598 26.236-58.598 58.599 0 32.362 26.234 58.597 58.598 58.597 2.845 0 5.623-.272 8.36-.665 7.992 22.852 29.686 39.273 55.268 39.273 25.377 0 46.92-16.16 55.067-38.728.793.032 1.571.12 2.373.12 32.362 0 58.598-26.234 58.598-58.597 0-32.364-26.236-58.599-58.598-58.599"/>
        <path fill="#597EB1" d="M391.024 215.324l-8.821 137.636c-.14 1.891.946 3.423 2.42 3.423h22.954c1.478 0 2.564-1.532 2.425-3.423l-8.818-137.636c-.224-1.893-5.651-72.662-5.651-72.662-2.27 0-4.288 70.77-4.51 72.662"/>
        <path fill="#597EB1" d="M397.192 266.015l25.77-59.488c.16-.377.593-.55.97-.385.349.152.522.545.409.897l-19.454 61.845c-.681 2.164-2.99 3.367-5.154 2.686-2.168-.682-3.371-2.991-2.688-5.155.043-.135.095-.272.147-.4M391.954 215.38l-23.277-38.611c-.15-.244-.07-.562.176-.71.216-.132.497-.08.658.109l29.112 34.427c1.467 1.735 1.25 4.336-.484 5.803-1.736 1.466-4.333 1.25-5.804-.485-.136-.164-.273-.357-.381-.533M393.048 196.992s.144-.85.4-2.34c.017-.638.593-1.976 1.046-3.199.453-1.395 1.283-2.34 2.056-3.647 1.712-2.357 4.004-4.725 6.63-6.817 2.593-2.177 5.482-4.148 8.328-6.14 2.85-1.963 5.671-3.904 8.18-5.844 1.258-.965 2.408-1.955 3.5-2.902.976-1.02 2.08-1.883 2.796-2.873.778-.95 1.55-1.796 2-2.674.49-.849 1.038-1.554 1.214-2.236l.793-2.067.08-.205c.201-.52.787-.785 1.311-.585.501.192.762.737.613 1.238 0 0-.264.886-.72 2.434-.169.813-.698 1.63-1.187 2.636-.453 1.046-1.21 2.024-1.996 3.143-.74 1.166-1.808 2.14-2.802 3.334-1.074 1.082-2.22 2.228-3.45 3.326-2.46 2.213-5.19 4.397-7.876 6.565-2.665 2.172-5.342 4.313-7.559 6.481-2.295 2.124-4.059 4.305-5.253 6.224-.458.97-1.147 1.92-1.23 2.59-.174.781-.546 1.085-.546 1.991l-.22 2.37c-.16 1.69-1.66 2.936-3.355 2.78-1.69-.156-2.938-1.655-2.78-3.35.006-.073.02-.16.027-.233"/>
        <path fill="#FA7880" d="M782.555 128.857c.196 0 .385.028.581.028-.152-1.731-.265-3.478-.265-5.255 0-32.362 26.236-58.597 58.6-58.597 32.361 0 58.597 26.234 58.597 58.596 0 1.832-.109 3.632-.273 5.42 1.271-.08 2.537-.192 3.827-.192 32.364 0 58.6 26.234 58.6 58.599 0 32.362-26.236 58.597-58.6 58.597-2.844 0-5.622-.273-8.359-.666-7.992 22.853-29.687 39.274-55.268 39.274-25.377 0-46.919-16.16-55.067-38.728-.794.031-1.57.12-2.373.12-32.363 0-58.598-26.236-58.598-58.597 0-32.364 26.235-58.6 58.598-58.6"/>
        <path fill="#597EB1" d="M844.503 260.116l8.822 137.636c.14 1.891-.946 3.423-2.42 3.423H827.95c-1.478 0-2.565-1.532-2.425-3.423l8.818-137.636c.224-1.892 5.651-72.66 5.651-72.66 2.268 0 4.288 70.768 4.508 72.66"/>
        <path fill="#597EB1" d="M838.335 310.807l-25.77-59.487c-.16-.377-.592-.55-.969-.385-.349.152-.522.545-.409.897l19.454 61.845c.68 2.164 2.99 3.366 5.154 2.686 2.168-.682 3.37-2.991 2.688-5.155-.044-.136-.095-.272-.148-.401M843.575 260.172l23.277-38.611c.148-.244.068-.561-.176-.71-.217-.131-.497-.08-.658.109l-29.113 34.427c-1.466 1.735-1.25 4.337.485 5.804 1.736 1.466 4.332 1.25 5.804-.486.136-.164.273-.356.38-.533M842.48 241.785l-.4-2.34c-.017-.639-.594-1.977-1.047-3.199-.452-1.396-1.282-2.34-2.056-3.648-1.711-2.356-4.004-4.725-6.629-6.817-2.593-2.176-5.482-4.148-8.328-6.14-2.85-1.963-5.671-3.903-8.18-5.843-1.258-.966-2.409-1.955-3.499-2.902-.978-1.022-2.08-1.883-2.798-2.874-.777-.949-1.55-1.795-1.999-2.673-.489-.849-1.038-1.555-1.214-2.236l-.794-2.068-.08-.204c-.201-.52-.786-.785-1.31-.585-.502.192-.762.737-.614 1.238 0 0 .264.886.721 2.433.168.813.698 1.63 1.187 2.636.453 1.047 1.21 2.025 1.996 3.143.741 1.166 1.807 2.141 2.801 3.335 1.074 1.081 2.221 2.227 3.451 3.326 2.461 2.212 5.19 4.397 7.875 6.564 2.665 2.172 5.343 4.313 7.559 6.481 2.296 2.124 4.06 4.305 5.254 6.225.458.97 1.147 1.92 1.231 2.588.172.782.545 1.086.545 1.993l.221 2.368c.16 1.691 1.659 2.937 3.354 2.781 1.691-.156 2.938-1.655 2.781-3.35-.007-.073-.02-.16-.028-.232"/>
        <path fill="#E5204E" d="M2210.461 94.556c-.156 0-.305.022-.46.022.12-1.37.21-2.751.21-4.157 0-25.603-20.757-46.36-46.36-46.36-25.604 0-46.36 20.757-46.36 46.36 0 1.449.085 2.873.215 4.287-1.005-.063-2.007-.152-3.027-.152-25.605 0-46.36 20.756-46.36 46.36s20.755 46.36 46.36 46.36c2.251 0 4.448-.216 6.614-.527 6.322 18.08 23.485 31.07 43.725 31.07 20.077 0 37.12-12.784 43.566-30.64.627.026 1.242.097 1.877.097 25.604 0 46.36-20.756 46.36-46.36s-20.756-46.36-46.36-46.36"/>
        <path fill="#597EB1" d="M2161.45 198.401l-6.978 108.891c-.111 1.496.749 2.708 1.916 2.708h18.159c1.17 0 2.029-1.212 1.918-2.708l-6.976-108.89c-.178-1.497-4.471-57.486-4.471-57.486-1.795 0-3.392 55.99-3.567 57.485"/>
        <path fill="#597EB1" d="M2166.33 238.505l20.389-47.063c.127-.298.469-.435.767-.304.276.12.412.43.324.71l-15.391 48.928c-.54 1.712-2.365 2.664-4.078 2.125-1.715-.54-2.666-2.367-2.127-4.08.034-.106.076-.214.117-.316M2162.186 198.445l-18.416-30.547c-.117-.193-.054-.443.14-.56.171-.105.393-.064.52.086l23.032 27.236c1.161 1.373.99 3.431-.383 4.591-1.373 1.161-3.428.99-4.591-.384-.109-.13-.216-.282-.302-.422M2163.052 183.899l.316-1.852c.013-.504.47-1.564.83-2.53.357-1.103 1.013-1.851 1.625-2.886 1.354-1.864 3.167-3.738 5.245-5.393 2.05-1.722 4.337-3.281 6.588-4.858 2.254-1.553 4.487-3.088 6.471-4.624.996-.762 1.906-1.546 2.77-2.294.772-.808 1.644-1.492 2.212-2.274.615-.751 1.227-1.42 1.582-2.114.387-.674.821-1.232.961-1.77l.628-1.636.063-.162c.158-.412.621-.621 1.037-.463.397.153.603.583.485.98 0 0-.209.7-.57 1.924-.134.643-.553 1.291-.939 2.088-.359.827-.957 1.6-1.579 2.484-.587.923-1.43 1.694-2.216 2.64-.85.855-1.757 1.762-2.73 2.63-1.948 1.752-4.107 3.479-6.23 5.195-2.11 1.718-4.228 3.41-5.982 5.126-1.816 1.681-3.212 3.405-4.156 4.924-.36.768-.907 1.52-.974 2.05-.136.618-.43.858-.43 1.575-.11 1.192-.175 1.874-.175 1.874-.127 1.339-1.312 2.324-2.654 2.2-1.338-.124-2.324-1.31-2.2-2.65.005-.058.015-.126.022-.184"/>
        <path fill="#FA7880" d="M1960.487 63.824c.196 0 .385.028.58.028-.151-1.73-.264-3.478-.264-5.254 0-32.363 26.236-58.598 58.599-58.598C2051.764 0 2078 26.235 2078 58.598c0 1.831-.11 3.631-.273 5.418 1.27-.08 2.537-.192 3.827-.192 32.364 0 58.599 26.235 58.599 58.6 0 32.361-26.235 58.596-58.6 58.596-2.843 0-5.622-.272-8.36-.665-7.99 22.853-29.685 39.273-55.267 39.273-25.376 0-46.918-16.159-55.067-38.728-.793.032-1.57.12-2.372.12-32.363 0-58.6-26.235-58.6-58.597 0-32.364 26.237-58.599 58.6-58.599"/>
        <path fill="#597EB1" d="M2022.435 195.084l8.821 137.637c.141 1.891-.945 3.422-2.42 3.422h-22.953c-1.478 0-2.565-1.531-2.425-3.422l8.818-137.637c.223-1.892 5.65-72.661 5.65-72.661 2.27 0 4.29 70.769 4.51 72.661"/>
        <path fill="#597EB1" d="M2016.267 245.774l-25.77-59.487c-.16-.376-.593-.549-.969-.385-.35.153-.522.546-.409.898l19.454 61.844c.68 2.165 2.99 3.367 5.154 2.686 2.168-.681 3.37-2.99 2.688-5.155-.044-.136-.095-.272-.148-.4M2021.505 195.14l23.277-38.61c.15-.244.07-.562-.175-.71-.217-.132-.498-.08-.659.108l-29.112 34.427c-1.467 1.736-1.25 4.337.485 5.804 1.736 1.466 4.332 1.25 5.803-.486.137-.164.273-.356.381-.533M2020.412 176.753l-.401-2.341c-.016-.638-.593-1.976-1.046-3.198-.452-1.396-1.282-2.341-2.056-3.648-1.711-2.356-4.004-4.725-6.63-6.817-2.592-2.176-5.481-4.147-8.327-6.14-2.85-1.963-5.671-3.903-8.18-5.843-1.258-.966-2.41-1.955-3.5-2.902-.977-1.021-2.08-1.883-2.797-2.874-.777-.949-1.55-1.795-2-2.673-.49-.849-1.037-1.554-1.213-2.236l-.794-2.068-.08-.204c-.201-.521-.786-.785-1.311-.585-.501.192-.762.737-.613 1.238 0 0 .264.886.72 2.433.169.813.699 1.63 1.188 2.636.452 1.047 1.21 2.025 1.995 3.143.742 1.166 1.808 2.141 2.802 3.335 1.074 1.082 2.22 2.227 3.45 3.326 2.462 2.212 5.19 4.397 7.876 6.564 2.665 2.173 5.343 4.313 7.559 6.481 2.296 2.125 4.06 4.305 5.254 6.225.457.969 1.146 1.919 1.23 2.588.173.782.546 1.086.546 1.993l.22 2.368c.16 1.691 1.659 2.937 3.354 2.781 1.692-.156 2.939-1.654 2.782-3.351-.007-.071-.02-.159-.028-.231"/>
        <path fill="#F28555" d="M583.657 283.87s8.983-54.262 74.337-52.58c53.96 1.39 61.645 25.384 61.645 25.384s21.675-14.529 50.767-6.346c29.01 8.158 32.636 37.168 32.636 37.168s24.476-29.916 57.112 1.813c0 0 17.28-20.06 47.14-1.813 16.318 9.972 9.727 33.551 9.727 33.551s17.095-9.037 30.05 3.236c8.784 8.321 6.473 24.04-.462 30.05 14.793.925 39.758 52.24-12.482 52.24 0 0-371.87.848-444.751 0-39.758-.462-59.832-59.245 5.439-68.31 0 0-5.44-83.403 88.842-54.393"/>
        <path fill="#F28555" d="M223.783 296.765s9.292-56.126 76.89-54.386c55.816 1.436 63.763 26.255 63.763 26.255s22.42-15.027 52.51-6.563c30.008 8.438 33.759 38.445 33.759 38.445s25.317-30.944 59.074 1.875c0 0 17.875-20.75 48.76-1.875 16.879 10.314 10.06 34.703 10.06 34.703s17.683-9.348 31.083 3.348c9.085 8.607 6.695 24.865-.478 31.082 15.302.956 41.124 54.035-12.911 54.035 0 0-384.647.877-460.031 0-41.124-.48-61.887-61.28 5.626-70.657 0 0-5.626-86.268 91.895-56.262M2065.181 283.87s8.983-54.262 74.337-52.58c53.961 1.39 61.645 25.384 61.645 25.384s21.675-14.529 50.767-6.346c29.01 8.158 32.636 37.168 32.636 37.168s24.476-29.916 57.112 1.813c0 0 17.281-20.06 47.141-1.813 16.317 9.972 9.726 33.551 9.726 33.551s17.095-9.037 30.05 3.236c8.784 8.321 6.473 24.04-.463 30.05 14.794.925 39.76 52.24-12.48 52.24 0 0-371.87.848-444.752 0-39.758-.462-59.832-59.245 5.44-68.31 0 0-5.44-83.403 88.841-54.393"/>
        <path fill="#F28555" d="M1693.578 267.654s10.492-63.372 86.819-61.408c63.022 1.622 71.996 29.645 71.996 29.645s25.315-16.966 59.29-7.41c33.88 9.527 38.117 43.408 38.117 43.408s28.587-34.939 66.702 2.118c0 0 20.183-23.429 55.055-2.118 19.058 11.647 11.36 39.184 11.36 39.184s19.966-10.554 35.096 3.78c10.258 9.72 7.559 28.076-.54 35.096 17.278 1.08 46.434 61.012-14.58 61.012 0 0-434.31.99-519.426 0-46.435-.539-69.88-69.193 6.352-79.78 0 0-6.352-97.407 103.759-63.527"/>
        <path fill="#F3AB55" d="M495.772 376.422s-16.68-33.731-44.891-46.661c-22.311-10.227-71.492-3.58-76.401 15.28 0 0-28.21-28.21-76.402-16.456-42.667 10.406-50.448 47.837-50.448 47.837s-8.79-9.277-25.879-5.371c0 0-26.858-11.72-44.924 4.394-18.068 16.115-18.068 29.298-18.068 29.298s-18.056-9.545-31.739 3.419c-9.278 8.789-6.837 25.392.488 31.739-15.626.977-41.994 55.178 13.184 55.178 0 0 287.868.896 364.847 0 41.993-.488 52.736-50.783 28.321-68.362 0 0 11.23-44.436-38.088-50.295M2219.433 376.422s-16.68-33.731-44.89-46.661c-22.312-10.227-71.493-3.58-76.403 15.28 0 0-28.21-28.21-76.402-16.456-42.666 10.406-50.448 47.837-50.448 47.837s-8.789-9.277-25.879-5.371c0 0-26.857-11.72-44.924 4.394-18.068 16.115-18.068 29.298-18.068 29.298s-18.055-9.545-31.739 3.419c-9.277 8.789-6.836 25.392.488 31.739-15.626.977-41.994 55.178 13.185 55.178 0 0 287.867.896 364.846 0 41.994-.488 52.736-50.783 28.321-68.362 0 0 11.231-44.436-38.087-50.295"/>
        <path fill="#F3AB55" d="M837.274 355.048s-14.085-60.863-73.006-59.347c-48.65 1.252-71.697 27.253-71.697 27.253s-19.59-14.172-43.347-.834c-23.758 13.338-23.758 32.928-23.758 32.928s-7.503-7.92-22.09-4.585c0 0-22.924-10.003-38.346 3.75-15.422 13.756-15.422 25.009-15.422 25.009s-15.412-8.147-27.092 2.918c-7.92 7.503-5.835 21.674.417 27.092-13.338.834-35.846 47.098 11.253 47.098 0 0 245.718.765 311.424 0 35.845-.416 45.015-43.346 24.175-58.351 0 0 9.586-37.93-32.511-42.931"/>
        <path fill="#FFD974" d="M298.515 421.179s-11.564-40.112 27.103-51.314c40.527-11.743 54.567 23.489 54.567 23.489s16.985-12.287 37.583-.723c20.6 11.564 20.6 28.548 20.6 28.548s6.503-6.866 19.151-3.975c0 0 19.876-8.672 33.247 3.252 13.371 11.926 13.371 21.683 13.371 21.683s13.362-7.064 23.49 2.529c6.866 6.505 5.058 18.792-.362 23.49 11.563.723 31.078 40.835-9.758 40.835 0 0-169.25.663-226.22 0-31.078-.361-39.028-37.583-20.959-50.592 0 0-8.312-32.885 28.187-37.222"/>
        <g transform="translate(0 367.217)">
            <mask id="prefix__b" fill="#fff">
                <use xlink:href="#prefix__a"/>
            </mask>
            <path fill="#FFD974" d="M37.722 53.962S26.16 13.85 64.826 2.648c40.527-11.743 54.567 23.489 54.567 23.489s16.984-12.287 37.583-.723c20.6 11.564 20.6 28.548 20.6 28.548s6.503-6.866 19.151-3.975c0 0 19.876-8.672 33.247 3.252 13.37 11.926 13.37 21.683 13.37 21.683s13.363-7.064 23.49 2.529c6.866 6.505 5.06 18.792-.362 23.49 11.564.723 31.08 40.835-9.757 40.835 0 0-169.25.663-226.22 0-31.079-.361-39.029-37.583-20.96-50.592 0 0-8.31-32.885 28.187-37.222" mask="url(#prefix__b)"/>
        </g>
        <g transform="translate(1932 380.217)">
            <mask id="prefix__d" fill="#fff">
                <use xlink:href="#prefix__c"/>
            </mask>
            <path fill="#FFD974" d="M38.456 53.891S26.893 13.78 65.561 2.577c40.526-11.743 54.566 23.49 54.566 23.49s16.985-12.288 37.584-.725c20.599 11.565 20.599 28.55 20.599 28.55s6.502-6.867 19.151-3.976c0 0 19.876-8.672 33.247 3.252 13.37 11.926 13.37 21.683 13.37 21.683s13.364-7.064 23.49 2.53c6.867 6.504 5.06 18.791-.361 23.49 11.564.721 31.077 40.834-9.757 40.834 0 0-169.252.663-226.221 0-31.078-.36-39.029-37.583-20.96-50.592 0 0-8.31-32.885 28.188-37.222" mask="url(#prefix__d)"/>
        </g>
        <path fill="#FFD974" d="M848.173 404.987s-11.564-40.112 27.103-51.315c40.528-11.742 54.568 23.49 54.568 23.49s16.984-12.287 37.582-.724c20.6 11.565 20.6 28.55 20.6 28.55s6.503-6.867 19.152-3.977c0 0 19.875-8.672 33.246 3.253 13.371 11.925 13.371 21.683 13.371 21.683s13.362-7.064 23.49 2.53c6.866 6.504 5.06 18.79-.362 23.49 11.563.721 31.078 40.833-9.757 40.833 0 0-169.252.664-226.22 0-31.079-.36-39.029-37.583-20.96-50.59 0 0-8.312-32.887 28.187-37.223"/>
        <path fill="#FFD974" d="M785.7 401.197s-12.211-52.77-63.296-51.455c-42.181 1.086-62.163 23.63-62.163 23.63s-16.984-12.288-37.582-.724c-20.6 11.564-20.6 28.55-20.6 28.55s-6.504-6.867-19.152-3.977c0 0-19.875-8.672-33.246 3.253-13.371 11.925-13.371 21.682-13.371 21.682s-13.362-7.063-23.49 2.53c-6.866 6.505-5.06 18.791.362 23.49-11.564.722-31.078 40.834 9.757 40.834 0 0 213.04.663 270.01 0 31.078-.36 39.028-37.583 20.959-50.59 0 0 8.312-32.887-28.187-37.223"/>
    </g>
</svg>
