<svg xmlns="http://www.w3.org/2000/svg" xmlns:xlink="http://www.w3.org/1999/xlink" width="566" height="282" viewBox="0 0 566 282">
    <defs>
        <path id="prefix__a" d="M0.571 0.592L30 0.592 30 20 0.571 20z"/>
        <path id="prefix__c" d="M0.374 0.256L23.234 0.256 23.234 18.458 0.374 18.458z"/>
    </defs>
    <g fill="none" fill-rule="evenodd">
        <path fill="#18336D" d="M387.65 48.87c-14.25 3.58-36.29 17.84-42.27 23.462-13.055 12.268-1.988 18.713 8.55 18.378 14.6-.465 22.033-4.647 45.745-26.51 12.85-11.849 4.828-19.565-12.026-15.33"/>
        <path fill="#F36B53" d="M381.099 6.537c3.334-1.658.567-7.457-2.015-6.412-2.584 1.044-3.221.277-5.296.225-2.075-.052-2.478 3.195-2.478 3.195-.851-1.834-5.541-1.332-3.817.075 1.724 1.408 1.43 2.563 2.738 5.947 1.113 2.878 4.522 4.926 4.757 8.616 0 0 6.873-.822 8.199-3.664 1.327-2.84-5.423-6.325-2.089-7.982"/>
        <path fill="#18336D" d="M373.827 18.357s9.716 20.645 12.563 36.394c.865 4.785 14.528 15.647 19.421 1.068 2.068-6.158-8.331-24.06-20.619-43.535l-11.365 6.073z"/>
        <g transform="translate(336 260.788)">
            <mask id="prefix__b" fill="#fff">
                <use xlink:href="#prefix__a"/>
            </mask>
            <path fill="#732622" d="M18.099 11.903h-7.515L13.81 3.42.57.592l1.188 16.33c.288 1.543 2.173 3.079 3.777 3.079h23.421c.98 0 1.418-1.227.659-1.845-2.938-2.39-8.202-6.253-11.516-6.253" mask="url(#prefix__b)"/>
        </g>
        <path fill="#A78034" d="M331.839 212.04c5.074 24.333 19.259 18.107 23.608 5.764 4.349-12.344 6.765-65.786 6.765-65.786h-35.585s-.08 34.646 5.212 60.022"/>
        <path fill="#7F5E25" d="M328.73 191.359c4.992-9.177 15.501-15.175 26.09-15.175 2.047 0 4.014.245 5.895.697.982-13.474 1.496-24.863 1.496-24.863h-35.585s-.042 19.112 2.103 39.34"/>
        <path fill="#A78034" d="M330.674 205.81c.583 17.373 4.297 64.584 4.297 64.584 8.038 2.36 15.618-.787 15.618-.787.906-8.58 6.245-45.521 7.08-61.993.908-17.892-27.575-19.06-26.995-1.803"/>
        <path fill="#732622" d="M286.062 268.252l-6.689-3.424 6.736-6.08-10.497-8.549-6.383 15.077c-.445 1.506.532 3.73 1.96 4.46l20.851 10.671c.871.447 1.82-.444 1.424-1.342-1.526-3.464-4.452-9.303-7.402-10.813"/>
        <path fill="#A78034" d="M294.884 202.827c2.727 24.706 18.828 19.934 24.337 8.063 5.508-11.872 13.017-64.838 13.017-64.838l-35.423-3.4s-4.774 34.41-1.931 60.175"/>
        <path fill="#A78034" d="M295.68 198.045c-7.396 15.73-25.6 59.45-25.6 59.45 6.082 5.764 14.263 6.415 14.263 6.415 4.715-7.224 26.299-37.678 34.547-51.96 8.96-15.514-15.864-29.529-23.21-13.905"/>
        <path fill="#18336D" d="M372.465 108.07c0-13.784-9.022-30.183-14.69-34.161-16.37-11.492-35.702-2.541-35.702-2.541l13.278 11.499 11.777 91.416c16.72 3.15 27.099-2.595 27.099-2.595-2.6-10.18-1.762-32.313-1.762-63.617"/>
        <path fill="#FFF" d="M337.422 68.457c-1.715-.185-4.005 7.361-6.198 9.491-11.025 10.686-19.124 83.776-19.124 83.776 9.04 3.762 25.679 5.818 34.057 5.605 5.082-23.749 4.137-83.473 1.902-98.059l-10.637-.813z"/>
        <path fill="#18336D" d="M312.767 74.796c-27.344 16.348-24.567 93.5-24.567 93.5 14.024 11.955 40.346 4.566 40.346 4.566.591-23.447 5.293-99.76 5.293-99.76s-3.878-8.586-21.072 1.694"/>
        <path fill="#0A1933" d="M290.186 118.775c1.272.98 13.711 20.153 33.325 27.67-3.28-6.62-1.372-54.332.554-57.142-15.007 8.75-25.624 11.687-33.879 29.472"/>
        <path fill="#18336D" d="M322.073 71.368c-13.372 3.172-24.573 11.928-39.946 40.282-15.373 28.355 31.201 8.011 39.59-7.818 8.387-15.828 10.2-34.8.356-32.464"/>
        <path fill="#F36B53" d="M327.455 150.868c-2.088-.774-2.182-1.963-4.514-4.743-1.984-2.365-5.871-3.2-7.286-6.617 0 0-7.184 4.2-7.52 7.316-.337 3.118 8.121 3.032 5.502 5.68-2.619 2.647 1.871 7.242 3.978 5.418 2.107-1.823 2.959-1.304 4.939-1.925 1.98-.622 1.313-3.825 1.313-3.825 1.398 1.462 5.675-.53 3.588-1.304"/>
        <path fill="#18336D" d="M278.84 120.323s-1.17 11.94 25.613 36.141l16.133-19.36-17.913-22.617s-15.993-7.392-23.832 5.837"/>
        <path fill="#F36B53" d="M347.432 60.694l-8.517-2.158s1.167 9.68-1.494 9.922c0 0 2.043 5.126 4.27 8.578 2.228 3.453 6.368-7.765 6.368-7.765-2.728-.412-.627-8.577-.627-8.577"/>
        <path fill="#F36B53" d="M326.39 50.187s-3.97-.117-1.926 3.386c2.041 3.503 5.545 2.684 5.545 2.684 1.517 3.854 3.805 6.209 5.913 7.198 3.627 1.703 13.815 3.19 15.915-1.827 2.103-5.02-2.565-22.88-2.565-22.88-15.683-4.825-22.882 11.439-22.882 11.439"/>
        <path fill="#FFD974" d="M348.74 23.446c-3.577 1.339-4.266 7.52-8.312 7.52-3.297 0-11.783-2.773-12.86 5.384 0 0-9.563 0-5.275 10.159 4.286 10.154 7.553 8.717 8.706 5.208.691-2.11.131-4.418.131-4.418s3.232 1.65 2.111-4.882c0 0 17.74 4.023 21.708-6.441 3.788-9.985-2.634-13.87-6.21-12.53"/>
        <path fill="#732622" d="M239.08 95.506c-10.192-2.489-50.917-5.023-50.83 9.096.047 7.443 10.03 11.25 37.06 8.961 33.639-2.846 24.352-15.474 13.77-18.057"/>
        <path fill="#FFF" d="M226.216 60.737s-6.393.375-5.065 4.237c2.337 6.802 9.166 35.63 10.964 38.273 6.052 8.883 16.65 6.406 16.753.612.142-7.955-1.536-13.155-14.878-29.961 0 0-7.272-11.008-7.774-13.161"/>
        <path fill="#732622" d="M219.26 67.894c3.13 9.605 11.453 33.294 12.856 35.353 6.05 8.882 15.82 6.695 16.828.99 2.337-13.234-17.922-37.96-20.215-41.825-2.551 1.775-6.566 4.378-9.47 5.482"/>
        <path fill="#FFF" d="M219.817 45.564c-6.23-6.62.226 4.69.226 4.69s-2.489-1.36-4.085.184-.515 2.902-.249 4.227c.265 1.324-1.887 2.212.312 4.15 1.844 1.623 3.034.922 3.034.922s-1.057 2.224 1.16 4.155c2.218 1.929 7.783.272 5.571-3.941-1.886-3.591.262-7.768-5.969-14.387"/>
        <path fill="#732622" d="M197.822 96.102c-22.41-11.748 3.91 91.129 3.91 91.129 14.603-.577 37.74-9.608 37.74-9.608s-15.705-36.708-22.568-55.807c-6.862-19.102-11.99-21.997-19.082-25.714"/>
        <path fill="#00404E" d="M275.81 249.677l-5.547 3.628-1.848-7.73-8.454 2.551 4.465 14.286c.422 1.351 2.02 1.924 3.202 1.15l19.368-12.67c-2.962-3.023-7.647-3.53-11.187-1.215M172.16 273.118h-7.278l10.28-7.425-11.39-2.55-9.75 14.174c-.857 1.245.034 2.94 1.547 2.94h23.73c0-3.944-3.197-7.14-7.14-7.14"/>
        <path fill="#7BAC77" d="M212.926 153.136l-25.754 32.283s30.38 21.345 50.627 30.004c20.245 8.659 25.6-5.441 19.923-15.648-5.675-10.209-44.796-46.639-44.796-46.639"/>
        <path fill="#7BAC77" d="M238.366 216.725c4.284 11.922 21.036 37.323 21.036 37.323 7.766-.993 11.611-6.068 11.611-6.068-2.034-6.533-8.455-33.361-11.937-44.667-3.78-12.28-24.993 1.49-20.71 13.412"/>
        <path fill="#9DCD9A" d="M185.68 227.442c8.82 20.176 21.243 13.528 24.101 2.202 2.858-11.325 4.928-61.33 4.928-61.33l-38.984 8.317s1.137 30.633 9.956 50.81"/>
        <path fill="#9DCD9A" d="M184.248 228.802c-8.271 9.597-24.513 36.487-24.513 36.487 4.687 6.273 11.183 6.411 11.183 6.411 4.686-4.986 26.197-25.025 34.326-33.62 8.83-9.336-12.725-18.875-20.996-9.278"/>
        <path fill="#FFF" d="M194.494 80.702c.989-9.499-7.103-1.994-7.103-1.994s3.939 7.862-5.145 12.968c0 0 14.825 3.991 19.659 8.483 0 0-8.558-8.449-7.411-19.457"/>
        <path fill="#FFF" d="M202.642 70.78c-.131-.5-3.305-1.682-3.547-2.69l-2.498-5.186s-4.9.255-8.185 6.873c-3.282 6.616-2.069 8.243 1.774 10.059 3.845 1.816 14.388.837 12.903-2.762-1.483-3.6-.21-5.39-.447-6.294"/>
        <path fill="#732622" d="M201.396 59.074c-1.199-.91-2.908-.674-3.816.523-.91 1.2-.675 2.908.523 3.819 1.2.909 2.908.675 3.817-.526.911-1.199.675-2.907-.524-3.816M175.227 63.346c-1.198-.909-2.907-.674-3.816.525-.91 1.199-.675 2.908.524 3.818 1.198.908 2.908.673 3.817-.526.91-1.198.674-2.908-.525-3.817M194.964 63.812c-1.681-1.274-4.076-.945-5.351.734-1.275 1.682-.945 4.078.735 5.352 1.68 1.275 4.077.946 5.35-.735 1.276-1.68.947-4.077-.734-5.351M186.038 51.67c-1.885-1.43-4.57-1.06-5.999.823-1.429 1.884-1.06 4.57.824 5.998 1.884 1.43 4.571 1.06 5.999-.823 1.429-1.885 1.06-4.57-.824-5.999"/>
        <path fill="#732622" d="M195.45 63.173c-.643.846-.477 2.05.37 2.691.845.642 2.05.476 2.692-.37.64-.845.475-2.05-.37-2.69-.846-.643-2.052-.477-2.693.37M191.073 69.807c-1.075-.816-2.609-.604-3.425.47-.815 1.077-.605 2.609.471 3.426 1.075.816 2.61.605 3.425-.471.816-1.076.605-2.61-.47-3.425M190.972 51.686c-1.243-.942-3.013-.698-3.954.544-.942 1.242-.7 3.012.544 3.952 1.24.942 3.01.7 3.953-.542.94-1.242.698-3.013-.543-3.954"/>
        <path fill="#732622" d="M197.546 54.933c-2.301-1.745-5.582-1.295-7.328 1.006-1.745 2.302-1.294 5.582 1.008 7.328 2.3 1.745 5.582 1.294 7.327-1.007 1.745-2.302 1.295-5.582-1.007-7.327M177.477 68.471c-2.302-1.745-5.582-1.294-7.327 1.008-1.746 2.301-1.295 5.581 1.007 7.328 2.3 1.745 5.582 1.293 7.327-1.008s1.295-5.582-1.007-7.328"/>
        <path fill="#732622" d="M191.053 56.572c-3.565-2.703-9.781-.51-13.886 4.903-4.103 5.41-4.541 11.989-.976 14.692 3.565 2.704 9.78.508 13.885-4.904 4.104-5.41 4.54-11.988.977-14.691"/>
        <path fill="#732622" d="M182.887 75.993c-1.842-1.395-4.466-1.034-5.862.806-1.397 1.84-1.035 4.465.805 5.861 1.84 1.398 4.466 1.035 5.863-.804 1.395-1.841 1.035-4.466-.806-5.862M179.825 55.353c-2.302-1.746-5.582-1.294-7.328 1.007-1.745 2.303-1.295 5.583 1.007 7.328 2.301 1.745 5.583 1.295 7.328-1.008 1.745-2.301 1.294-5.581-1.007-7.327"/>
        <path fill="#732622" d="M190.552 74.541c-2.301-1.745-5.582-1.295-7.327 1.006-1.746 2.302-1.294 5.583 1.007 7.328 2.3 1.745 5.582 1.295 7.327-1.008 1.745-2.3 1.295-5.58-1.007-7.326"/>
        <path fill="#FFF" d="M182.647 91.477c-3.796-1.784-10.779 4.175-17.368 25.846-8.319 27.364 8.268 85.623 19.964 73.129 12.2-13.032 39.394-26.347 39.394-26.347 4.69-14.87-13.913-40.04-17.202-52.958-4.173-16.39-13.325-14.284-24.788-19.67"/>
        <path fill="#D7504A" d="M182.647 91.477c-3.796-1.784-12.686 3.676-19.4 25.709-8.095 26.56 9.156 84.337 9.156 84.337s33.207-8.686 43.564-15.55c-2.44-7.048-19.35-70.88-20.343-89.962-4.112-1.687-8.668-2.51-12.977-4.534"/>
        <path fill="#732622" d="M165.384 127.75c-5.144 34.407 25.419 56.28 33.735 58.666 4.743 1.36 12.669-1.774 12.71-1.756.15-6.947-30.012-27.754-31.062-66.837-.194-7.224-12.568-8.91-15.383 9.926"/>
        <path fill="#FFF" d="M209.062 168.392c-3.143-2.326-8.264 3.348-4.89 6.098 3.096 2.522 4.44 8.085 5.69 9.463 1.252 1.376 2.053-.34 3.06.774 1.005 1.112 1.615.692 2.99.072 1.376-.618 2.484-2.81 1.525-6.296-.959-3.482-6.229-8.521-8.375-10.111"/>
        <path fill="#D7504A" d="M175.547 105.004c-7.93 11.842-8.908 59.503 15.987 53.023 7.682-1.999 3.108-24.838 2.48-41.915-.627-17.076-7.697-27.189-18.467-11.108"/>
        <path fill="#D7504A" d="M191.004 140.937c-6.232-5.154-19.42-.134-17.315 6.545 3.286 10.436 20.403 27.548 30.44 29.94 0 0 5.697-2.208 7.786-9.211.392-1.314-14.678-22.12-20.911-27.274"/>
        <path fill="#732622" d="M493.633 90.077l-6.018-.827s.23 6.93-1.682 12.321l8.5.324s-1.724-4.964-.8-11.818"/>
        <path fill="#21417E" d="M484.507 60.234c-.382-.028-.61-.032-.61-.032.216.004.4.027.61.032"/>
        <path fill="#21417E" d="M484.507 60.234c2.487.187 12.02 1.49 15.085 10.596 0 0-6.592-11.921-23.825-4.508-1.954.839-3.1 5.1-2.497 9.222.365 2.503-5.401 7.875-1.036 14.557 4.365 6.683 16.785 3.147 19.03-7.104 0 0 8.76-2.574 9.763-7.574.99-4.936-.414-14.68-16.52-15.19"/>
        <path fill="#732622" d="M511.315 269.59c-7.958-12.188 4.717-43.856 4.87-59.8.038-3.907 2.216-11.957 2.216-11.957l-30.61 2.552 4.687 7.928c0 22.97 8.014 54.377 8.372 60.638.207 3.602 2.038 11.685 2.038 11.685h3.648l.566-3.544 5.814 3.544 16.03-.054c-7.05-7.517-14.763-6.6-17.63-10.992"/>
        <path fill="#FFF" d="M501.086 271.143c.549 3.953 1.803 9.493 1.803 9.493h3.647l.567-3.544 5.813 3.544 16.03-.054c-1.787-1.907-3.618-3.267-5.401-4.312-16.174 0-19.816-7.697-22.46-5.127"/>
        <path fill="#4C1413" d="M492.478 208.313c0 3.725.22 7.675.575 11.698 4.41-3.336 9.807-5.37 15.852-5.37 2.297 0 4.59.277 6.826.797.265-2.031.437-3.938.454-5.648.038-3.907 2.216-11.956 2.216-11.956l-30.61 2.55 4.687 7.929z"/>
        <path fill="#732622" d="M448.617 195.867c-10.308 20.526-17.24 52.19-19.729 57.947-1.433 3.31-3.424 11.357-3.424 11.357l3.26 1.636 2.097-2.913 3.605 5.777 14.35 7.144c-2.927-9.882-10.23-12.522-10.823-17.733-1.644-14.464 23.894-37.077 31.186-51.256 1.79-3.475 7.346-9.691 7.346-9.691l-28.499-11.456.631 9.188z"/>
        <path fill="#FFF" d="M428.113 255.878c-1.283 3.777-2.649 9.292-2.649 9.292l3.26 1.637 2.097-2.913 3.604 5.777 14.35 7.144c-.742-2.506-1.766-4.543-2.89-6.278-14.455-7.259-14.256-15.77-17.772-14.659"/>
        <path fill="#4C1413" d="M448.617 195.867c-1.67 3.327-3.248 6.957-4.736 10.712 5.437-1.004 11.173-.399 16.576 2.314 2.052 1.03 3.976 2.308 5.743 3.774 1.148-1.695 2.158-3.322 2.94-4.841 1.788-3.475 7.345-9.691 7.345-9.691l-28.499-11.456.631 9.188z"/>
        <path fill="#21417E" d="M472.767 64.774c-9.488-2.788-11.774 18.13-4.527 14.417 4.35-2.23 5.584-.331 5.584-.331l3.267-9.035s.178-3.73-4.324-5.051"/>
        <path fill="#732622" d="M436.854 66.708c-1.153-.729-2.507-3.352-4.169-4.72-2.73-2.248.718 5.92.718 5.92-3.104-1.328-.864-2.962-2.579-4.774-1.832-1.937-4.119 1.751-5.929.875-1.81-.875-4.036 3.064.23 7.788 4.264 4.723 7.686 3.132 10.5 5.722l7.377-2.794c-1.037-5.288-1.394-5.007-6.148-8.017"/>
        <g transform="translate(542 71.788)">
            <mask id="prefix__d" fill="#fff">
                <use xlink:href="#prefix__c"/>
            </mask>
            <path fill="#732622" d="M18.95 1.484c2.662-.962-4.657-2.67-10.984 1.125S3.95 9.975.374 12.596l4.743 5.862s13.257-5.14 14.727-7.925c1.152-2.182-5.642.155-5.642.155.593-1.535 6.452-3.723 8.67-5.875 2.217-2.151-6.584-2.37-3.922-3.33" mask="url(#prefix__d)"/>
        </g>
        <path fill="#BADC7A" d="M544.08 82.43c-20.013 22.372-46.102 19.421-47.792 19.338.009.013.015.026.024.038-.155-.037-.15-.044-.024-.038-1.601-2.12-1.208-4.667-1.355-5.519-6.891 2.533-9.958.524-9.958.524 1.418 5.142-11.194 5.635-18.47 1.251-7.277-4.384-21.625-24.416-21.625-24.416-8.98.428-13.161 5.484-13.161 5.484 8.58 26.403 35.265 42.156 35.265 42.156l-38.95 74.199c25.885-7.799 40.665 33.141 108.168 10.566l-32.445-82.289c40.869-7.968 50.34-32.754 50.34-32.754-1.713-9.403-10.016-8.54-10.016-8.54"/>
        <path fill="#D7504A" d="M496.312 101.806c-.01-.012-.016-.025-.024-.038-.126-.006-.13.001.024.038"/>
        <path fill="#95BE52" d="M433.679 77.364c-1.296.957-1.96 1.729-1.96 1.729 8.58 26.403 35.266 42.156 35.266 42.156l-38.951 74.198c2.227-.67 4.372-.974 6.474-.994 2.32-3.578 37.05-62.86 53.218-73.36-9.01-1.151-17.826-4.702-26.106-10.236-12.5-8.356-23.087-19.628-27.941-33.493"/>
        <path fill="#D7504A" d="M544.08 82.43c-.528.591-1.065 1.152-1.603 1.708 1.67-.547 3.379-.973 5.11-1.276-1.925-.596-3.506-.432-3.506-.432"/>
        <path fill="#95BE52" d="M460.562 203.736c4.904 2.294 10.32 4.558 16.555 6.237l-3.374-21.294-13.18 15.057z"/>
        <path fill="#732622" d="M498.281 75.823c-4.368-4.241-10.528 7.327-10.528 7.327-3.335-3.463-2.922 5.436-.557 6.465 15.307 6.657 15.06-2.043 14.387-5.593-.67-3.549-3.302-8.199-3.302-8.199"/>
        <path fill="#A74D3B" d="M136.96 89.859c-11.186 1.156-53.21 13.255-48.041 27.477 2.726 7.498 14.546 9.18 41.01-2.857 32.935-14.98 18.642-25.82 7.03-24.62"/>
        <path fill="#F36B53" d="M136.573 50.334c.524 2.311-1.332 16.33-1.332 16.33-4.993 22.446-4.175 28.246-.314 35.85 2.812 5.536 14.19 2.962 15.864-8.436.498-3.39-6.98-42.146-6.98-42.146-4.033-1.702-7.238-1.598-7.238-1.598"/>
        <path fill="#A74D3B" d="M135.271 55.19c-.402 4.802-8.689 36.06-.24 47.723 3.643 5.027 15.783 3.262 15.76-8.834-.005-2.67-2.346-27.312-3.827-38.036-3.314.295-8.404-.336-11.693-.852"/>
        <path fill="#F36B53" d="M143.622 32.155c-2.836-.93-5.952 2.434-5.952 2.434s1.066-15.311-2.58-3.655c-3.644 11.658 1.5 13.296 1.33 18.742-.2 6.387 7.498 5.125 9.045 1.493 1.547-3.634-1.037-5.702-1.037-5.702s.76.254 3.125-2.895c2.362-3.15-1.634-4.554-2.09-6.31-.456-1.755.994-3.178-1.841-4.107"/>
        <path fill="#A74D3B" d="M63.567 149.062c-9.422 8.114-8.586 41.707-3.717 66.625 4.968 25.425 23.05 17.999 27.331 4.94 4.281-13.055 9.49-46.072 9.923-58.931.59-17.461-23.365-21.393-33.537-12.634"/>
        <path fill="#83382C" d="M63.567 149.062c-6.194 5.335-7.954 21.683-7.05 39.337 1.307-.21 2.701-.285 4.205-.176 12.024.879 22.96 8.663 29.831 19.124 3.26-15.361 6.228-36.082 6.551-45.651.59-17.461-23.365-21.393-33.537-12.634"/>
        <path fill="#732622" d="M18.5 225.893l-17.07 6.084c-1.295.46-1.83 2.002-1.101 3.167l11.776 18.81c3.482-2.14 4.72-6.605 2.836-10.233l-2.383-4.591 9.584-3.182-3.642-10.055z"/>
        <path fill="#A74D3B" d="M66.186 207.968c-14.615 2.918-53.02 16.573-53.02 16.573-.19 9.21 4.964 16.757 4.964 16.757 7.957-1.236 42.952-6.708 56.711-8.8 14.946-2.27 5.96-27.449-8.655-24.53M115.514 120.048c-3.148-7.477-13.31-16.725-15.724-15.96-17.409 5.506 2.213 65.678 2.213 65.678 19.834-2.915 35.533-11.085 35.533-11.085-8.508-7.198-18.873-31.156-22.022-38.633"/>
        <path fill="#FFF" d="M93.177 155.234C80.33 143.392 60.9 158.754 60.9 172.177c0 12.435 26 33.723 48.058 46.292 22.507 12.827 28.68-5.72 21.58-17.484-7.101-11.765-27.901-37.032-37.361-45.751"/>
        <path fill="#732622" d="M112.22 272.748l-5.156-.433 2.42-9.803-10.446-2.285-3.961 17.684c-.3 1.341.717 2.617 2.092 2.621l22.193.075c.046-4.087-3.07-7.516-7.142-7.859"/>
        <path fill="#FFF" d="M106.72 211.542c-5.328 13.918-14.267 53.686-14.267 53.686 7.688 5.074 16.823 4.74 16.823 4.74 3.199-7.388 17.239-39.906 22.81-52.66 6.053-13.853-20.036-19.685-25.365-5.766"/>
        <path fill="#732622" d="M114.437 81.383c-.043 1.091-.23 2.108-.527 2.866-.267.677-.604 1.08-.907 1.08h-.013c-.307-.013-.616-.442-.83-1.15-.236-.779-.34-1.809-.296-2.9.044-1.089.231-2.109.528-2.866.266-.677.604-1.079.905-1.079h.015c.306.014.615.443.83 1.151.234.78.34 1.808.295 2.898m-1.113-4.346c-.009-.002-.018-.002-.027-.002-.442 0-.862.45-1.183 1.27-.309.787-.504 1.84-.549 2.963-.045 1.123.064 2.187.31 2.998.258.858.651 1.343 1.103 1.36.01.002.018.002.026.002.443 0 .862-.449 1.183-1.27.31-.787.504-1.838.55-2.963.045-1.122-.065-2.187-.31-2.997-.26-.86-.65-1.343-1.103-1.36"/>
        <path fill="#FFF" d="M106.392 123.52c-1.823-4.812-5.606-15.083-5.606-15.083l-10.965-9.73C78.27 115.983 60.9 164.45 60.9 164.45c21.824 6.468 43.61 2.809 43.61 2.809-1.046-6.128-2.54-17.383-1.345-26.172.611-4.484 6.428-9.122 3.227-17.568"/>
        <path fill="#F36B53" d="M107.74 73.193c-4.072-4.304-13.723-.29-14.09 6.217-.367 6.506 3.245 5.1 1.998 9.47C94.402 93.248 90 99.46 90 99.46c4.728 6.984 10.786 8.977 10.786 8.977s-3.292-7.132-1.984-10.617c2.407-6.417 6.814-5.685 10.1-5.822 3.284-.138 2.011-7.932 2.011-7.932l1.504-.577c-2.154-2.252-1.698-7.151-4.676-10.296"/>
        <path fill="#732622" d="M96.585 81.172L106.642 81.423 106.648 81.125 96.592 80.874z"/>
        <path fill="#732622" d="M109.367 81.383c-.043 1.091-.23 2.108-.527 2.866-.267.677-.604 1.08-.907 1.08h-.013c-.307-.013-.616-.442-.83-1.15-.236-.779-.34-1.809-.296-2.9.044-1.089.231-2.109.528-2.866.266-.677.604-1.079.906-1.079h.014c.306.014.616.443.83 1.151.234.78.34 1.808.295 2.898m-1.113-4.346c-.009-.002-.018-.002-.027-.002-.442 0-.86.45-1.183 1.27-.308.787-.504 1.84-.549 2.963-.045 1.123.064 2.187.31 2.998.258.858.651 1.343 1.103 1.36.01.002.018.002.026.002.443 0 .862-.449 1.183-1.27.31-.787.504-1.838.55-2.963.045-1.122-.065-2.187-.31-2.997-.26-.86-.65-1.343-1.103-1.36"/>
        <path fill="#732622" d="M109.425 81.27l.185.237c.007-.008.94-.714 2.123-.046l.147-.26c-1.354-.766-2.41.037-2.455.07"/>
        <path fill="#D7504A" d="M107.427 68.94c-.782-3.457-3.788-5.686-7.25-6.157-18.312-2.493-14.277 14.846-37.372 28.3s-48.282 5.082-48.282 5.082-1.944 6.204 2.168 13.754c4.11 7.547 10.407 7.229 12.706 11.155 2.298 3.923 2.24 9.808 11.547 11.827 9.305 2.018 10.203 7.138 10.203 7.138s30.382-37.185 38.675-39.874c8.292-2.692 8.635-4.935 7.122-13.678-1.514-8.745 7.266-8.526 13.622-10.82 6.263-2.258-.225-8.215-3.14-6.726"/>
        <path fill="#E99A92" d="M63.702 121.353c-5.381 11.21-17.041 45.443-17.041 45.443 18.237 11.062 44.285 13.303 44.285 13.303-1.907-10.427 2.466-42.601 2.803-58.521.336-15.92-3.304-21.621-3.304-21.621-14.858 0-21.361 10.184-26.743 21.396"/>
        <path fill="#BE7975" d="M63.702 121.353c-2.912 6.068-9.476 23.982-13.223 34.46 2.715.787 31.027 6.643 40.423 5.482.434-6.893 1.117-14.565 1.709-21.757-8.308-6.181-25.938-24.372-28.909-18.185"/>
        <path fill="#E99A92" d="M53.021 123.768c-23.588 27.423-4.424 27.75 5.49 21.709 9.548-5.817 38.294-30.077 30.004-41.547-4.513-6.246-16.539-2.198-35.494 19.838"/>
        <path fill="#F36B53" d="M56.526 134.414c-11.87-1.8-17.907 11.811-11.979 13.661 9.011 2.814 17.374 3.656 37.541 3.174 4.207-.1 14.014-.016 16.223.84 0 0 1.098-3.783.003-8.02 0 0-38.399-9.142-41.788-9.655"/>
        <path fill="#E99A92" d="M43.373 147.886c13.035 7.772 40.516 5.002 45.272 4.93.509-3.042 1.447-8.286 2.61-11.131-9.941-2.901-31.893-8.904-34.628-8.904-11.52-.006-18.588 11.925-13.254 15.105"/>
        <path fill="#F36B53" d="M113.556 146.242c-1.14.107-5.212 1.228-8.148-.76-2.424-1.637-4.011-.97-8.874-1.839l-2.328 7.837c2.597.61 3.398 1.056 5.813 6.334 1.138 2.49 6.808 5.107 11.823 1.621 5.016-3.483-2.558-9.012-2.558-9.012 3.21-.72 5.475-4.293 4.272-4.181"/>
        <path fill="#D7504A" d="M75.088 79.566c-4.237 3.573-8.9 6.657-13.866 9.147-2.452 1.332-5.077 2.258-7.666 3.299l-4.01 1.188c-.673.18-1.332.425-2.02.554l-2.056.387c-5.472 1.254-11.124 1.244-16.736 1.027 5.586.464 11.28.73 16.866-.29l2.102-.302c.7-.101 1.378-.32 2.07-.471l4.128-1.026c2.673-.938 5.4-1.771 7.96-3.017 5.19-2.32 10.113-5.27 14.633-8.753 4.517-3.52 8.664-7.391 12.336-11.981l-2.431-1.733c-3.168 4.34-7.107 8.403-11.31 11.97"/>
    </g>
</svg>
