<?xml version="1.0" encoding="UTF-8"?>
<svg width="768px" height="442px" viewBox="0 0 768 442" version="1.1" xmlns="http://www.w3.org/2000/svg" xmlns:xlink="http://www.w3.org/1999/xlink">
    <title>bg_grove_m</title>
    <defs>
        <rect id="path-1" x="0" y="0" width="768" height="442"></rect>
        <rect id="path-3" x="0" y="0" width="874" height="200"></rect>
        <polygon id="path-5" points="0.0892218215 0.0847026022 203.510107 0.0847026022 203.510107 138.840079 0.0892218215 138.840079"></polygon>
        <polygon id="path-7" points="2.37009874e-05 0.148012846 251.814966 0.148012846 251.814966 134.431227 2.37009874e-05 134.431227"></polygon>
        <polygon id="path-9" points="0.0892218215 0.0847026022 203.510107 0.0847026022 203.510107 138.840079 0.0892218215 138.840079"></polygon>
        <polygon id="path-11" points="2.37009874e-05 0.148012846 251.814966 0.148012846 251.814966 134.431227 2.37009874e-05 134.431227"></polygon>
        <polygon id="path-13" points="0.0892218215 0.0847026022 203.510107 0.0847026022 203.510107 138.840079 0.0892218215 138.840079"></polygon>
        <polygon id="path-15" points="2.37009874e-05 0.148012846 251.814966 0.148012846 251.814966 134.431227 2.37009874e-05 134.431227"></polygon>
        <rect id="path-17" x="0" y="0" width="874" height="200"></rect>
        <polygon id="path-19" points="0 0.0903462423 101.389548 0.0903462423 101.389548 51.0692714 0 51.0692714"></polygon>
        <polygon id="path-21" points="0.264369397 0.065075879 101.653967 0.065075879 101.653967 51.0439771 0.264369397 51.0439771"></polygon>
    </defs>
    <g id="Page-1" stroke="none" stroke-width="1" fill="none" fill-rule="evenodd">
        <g id="bg" transform="translate(-123.000000, -1169.000000)">
            <g id="bg_grove_m" transform="translate(123.000000, 1169.000000)">
                <g id="bg_m">
                    <mask id="mask-2" fill="white">
                        <use xlink:href="#path-1"></use>
                    </mask>
                    <g id="Mask"></g>
                    <g mask="url(#mask-2)">
                        <g transform="translate(-53.000000, 0.000000)">
                            <g id="-img/sec_1/cloud_big/web-+--img/sec_1/cloud_big/web-+--img/sec_1/cloud_big/web-Mask" stroke-width="1" fill="none">
                                <mask id="mask-4" fill="white">
                                    <use xlink:href="#path-3"></use>
                                </mask>
                                <g id="Mask"></g>
                                <g id="-img/natural/cloud_big/web" mask="url(#mask-4)">
                                    <g transform="translate(253.000000, 16.000000)" id="-cloud_big">
                                        <g>
                                            <g id="Group-3" transform="translate(171.334632, 0.097454)">
                                                <mask id="mask-6" fill="white">
                                                    <use xlink:href="#path-5"></use>
                                                </mask>
                                                <g id="Clip-2"></g>
                                                <path d="M203.510125,3.66164796 C203.510125,3.66164796 162.460503,-12.1999617 142.664412,22.8793022 C142.664412,22.8793022 118.638474,17.0850978 110.024982,32.421187 C110.024982,32.421187 82.6717182,30.1445996 83.3886568,55.3444435 C83.3886568,55.3444435 59.1250792,55.5510086 61.6087007,82.5751461 C61.6087007,82.5751461 22.5122565,75.0502762 18.8813505,107.338908 C18.8813505,107.338908 -3.02098758,107.605585 0.46525207,124.722614 L5.31888091,138.576135 L203.510125,138.840079 L203.510125,3.66164796 Z" id="Fill-1" fill="#FFFFFF" mask="url(#mask-6)"></path>
                                            </g>
                                            <g id="Group-6" transform="translate(0.000000, 12.484071)">
                                                <mask id="mask-8" fill="white">
                                                    <use xlink:href="#path-7"></use>
                                                </mask>
                                                <g id="Clip-5"></g>
                                                <path d="M226.966695,86.6654439 C214.60302,80.138061 201.875852,79.7753881 196.06454,82.2803993 C191.082684,75.2535442 184.238797,74.2496818 184.238797,74.2496818 C184.238797,74.2496818 187.109474,64.4229048 175.647772,58.1882468 C164.575134,52.1652543 155.518875,59.5267301 155.518875,59.5267301 C155.518875,59.5267301 156.186678,49.1536669 148.133768,44.1345368 C139.688322,38.8705888 128.488371,44.8037784 128.488371,44.8037784 C128.488371,44.8037784 134.603446,23.5672877 116.785375,8.69933978 C101.333658,-4.19385353 77.7550536,-0.849831227 70.0950438,7.82608327 C59.7254627,-0.57969368 37.4481247,0.130533086 26.8462007,17.2818082 C26.8462007,17.2818082 5.51302971,14.1388862 5.27064053,34.2044773 C5.27064053,34.2044773 0.664515343,32.9958714 0.17973697,35.1715442 C-0.305041403,37.3473993 0.34449586,134.431336 0.34449586,134.431336 L57.5563809,134.431336 L251.330188,134.170306 L251.814966,111.726485 C251.814966,111.726485 242.426084,94.8273138 226.966695,86.6654439" id="Fill-4" fill="#FFFFFF" mask="url(#mask-8)"></path>
                                            </g>
                                        </g>
                                    </g>
                                </g>
                                <g id="-img/natural/cloud_big/web" mask="url(#mask-4)">
                                    <g transform="translate(815.500000, 89.500000) scale(-1, 1) translate(-815.500000, -89.500000) translate(628.000000, 16.000000)" id="-cloud_big">
                                        <g>
                                            <g id="Group-3" transform="translate(171.334632, 0.097454)">
                                                <mask id="mask-10" fill="white">
                                                    <use xlink:href="#path-9"></use>
                                                </mask>
                                                <g id="Clip-2"></g>
                                                <path d="M203.510125,3.66164796 C203.510125,3.66164796 162.460503,-12.1999617 142.664412,22.8793022 C142.664412,22.8793022 118.638474,17.0850978 110.024982,32.421187 C110.024982,32.421187 82.6717182,30.1445996 83.3886568,55.3444435 C83.3886568,55.3444435 59.1250792,55.5510086 61.6087007,82.5751461 C61.6087007,82.5751461 22.5122565,75.0502762 18.8813505,107.338908 C18.8813505,107.338908 -3.02098758,107.605585 0.46525207,124.722614 L5.31888091,138.576135 L203.510125,138.840079 L203.510125,3.66164796 Z" id="Fill-1" fill="#FFFFFF" mask="url(#mask-10)"></path>
                                            </g>
                                            <g id="Group-6" transform="translate(0.000000, 12.484071)">
                                                <mask id="mask-12" fill="white">
                                                    <use xlink:href="#path-11"></use>
                                                </mask>
                                                <g id="Clip-5"></g>
                                                <path d="M226.966695,86.6654439 C214.60302,80.138061 201.875852,79.7753881 196.06454,82.2803993 C191.082684,75.2535442 184.238797,74.2496818 184.238797,74.2496818 C184.238797,74.2496818 187.109474,64.4229048 175.647772,58.1882468 C164.575134,52.1652543 155.518875,59.5267301 155.518875,59.5267301 C155.518875,59.5267301 156.186678,49.1536669 148.133768,44.1345368 C139.688322,38.8705888 128.488371,44.8037784 128.488371,44.8037784 C128.488371,44.8037784 134.603446,23.5672877 116.785375,8.69933978 C101.333658,-4.19385353 77.7550536,-0.849831227 70.0950438,7.82608327 C59.7254627,-0.57969368 37.4481247,0.130533086 26.8462007,17.2818082 C26.8462007,17.2818082 5.51302971,14.1388862 5.27064053,34.2044773 C5.27064053,34.2044773 0.664515343,32.9958714 0.17973697,35.1715442 C-0.305041403,37.3473993 0.34449586,134.431336 0.34449586,134.431336 L57.5563809,134.431336 L251.330188,134.170306 L251.814966,111.726485 C251.814966,111.726485 242.426084,94.8273138 226.966695,86.6654439" id="Fill-4" fill="#FFFFFF" mask="url(#mask-12)"></path>
                                            </g>
                                        </g>
                                    </g>
                                </g>
                                <g id="-img/natural/cloud_big/web" mask="url(#mask-4)">
                                    <g transform="translate(65.500000, 89.500000) scale(-1, 1) translate(-65.500000, -89.500000) translate(-122.000000, 16.000000)" id="-cloud_big">
                                        <g>
                                            <g id="Group-3" transform="translate(171.334632, 0.097454)">
                                                <mask id="mask-14" fill="white">
                                                    <use xlink:href="#path-13"></use>
                                                </mask>
                                                <g id="Clip-2"></g>
                                                <path d="M203.510125,3.66164796 C203.510125,3.66164796 162.460503,-12.1999617 142.664412,22.8793022 C142.664412,22.8793022 118.638474,17.0850978 110.024982,32.421187 C110.024982,32.421187 82.6717182,30.1445996 83.3886568,55.3444435 C83.3886568,55.3444435 59.1250792,55.5510086 61.6087007,82.5751461 C61.6087007,82.5751461 22.5122565,75.0502762 18.8813505,107.338908 C18.8813505,107.338908 -3.02098758,107.605585 0.46525207,124.722614 L5.31888091,138.576135 L203.510125,138.840079 L203.510125,3.66164796 Z" id="Fill-1" fill="#FFFFFF" mask="url(#mask-14)"></path>
                                            </g>
                                            <g id="Group-6" transform="translate(0.000000, 12.484071)">
                                                <mask id="mask-16" fill="white">
                                                    <use xlink:href="#path-15"></use>
                                                </mask>
                                                <g id="Clip-5"></g>
                                                <path d="M226.966695,86.6654439 C214.60302,80.138061 201.875852,79.7753881 196.06454,82.2803993 C191.082684,75.2535442 184.238797,74.2496818 184.238797,74.2496818 C184.238797,74.2496818 187.109474,64.4229048 175.647772,58.1882468 C164.575134,52.1652543 155.518875,59.5267301 155.518875,59.5267301 C155.518875,59.5267301 156.186678,49.1536669 148.133768,44.1345368 C139.688322,38.8705888 128.488371,44.8037784 128.488371,44.8037784 C128.488371,44.8037784 134.603446,23.5672877 116.785375,8.69933978 C101.333658,-4.19385353 77.7550536,-0.849831227 70.0950438,7.82608327 C59.7254627,-0.57969368 37.4481247,0.130533086 26.8462007,17.2818082 C26.8462007,17.2818082 5.51302971,14.1388862 5.27064053,34.2044773 C5.27064053,34.2044773 0.664515343,32.9958714 0.17973697,35.1715442 C-0.305041403,37.3473993 0.34449586,134.431336 0.34449586,134.431336 L57.5563809,134.431336 L251.330188,134.170306 L251.814966,111.726485 C251.814966,111.726485 242.426084,94.8273138 226.966695,86.6654439" id="Fill-4" fill="#FFFFFF" mask="url(#mask-16)"></path>
                                            </g>
                                        </g>
                                    </g>
                                </g>
                            </g>
                            <rect id="Rectangle" fill="#6D94C2" x="0" y="149" width="874" height="293"></rect>
                            <g id="Group" stroke-width="1" fill="none">
                                <mask id="mask-18" fill="white">
                                    <use xlink:href="#path-17"></use>
                                </mask>
                                <g id="Mask"></g>
                                <g id="img/natural/grove/web" mask="url(#mask-18)">
                                    <g transform="translate(0.000000, 8.000000)" id="grove">
                                        <g>
                                            <path d="M73.1392015,41.2650654 C73.1950471,41.2650654 73.2490912,41.2726141 73.3049368,41.2726141 C73.2613412,40.7805071 73.229275,40.283727 73.229275,39.7786792 C73.229275,30.5749468 80.7075397,23.113899 89.9325103,23.113899 C99.1574809,23.113899 106.635746,30.5749468 106.635746,39.7786792 C106.635746,40.2991839 106.60476,40.8110616 106.557922,41.3193446 C106.920378,41.2970577 107.281393,41.2650654 107.648893,41.2650654 C116.873863,41.2650654 124.352128,48.7261132 124.352128,57.929486 C124.352128,67.1332184 116.873863,74.5942662 107.648893,74.5942662 C106.837871,74.5942662 106.046304,74.5166218 105.265907,74.4048283 C102.988128,80.9039488 96.8040397,85.5737537 89.5120471,85.5737537 C82.2784221,85.5737537 76.1379294,80.9783579 73.8154735,74.560117 C73.5892088,74.5691036 73.3676279,74.5942662 73.1392015,74.5942662 C63.9142309,74.5942662 56.4363265,67.1332184 56.4363265,57.929486 C56.4363265,48.7261132 63.9142309,41.2650654 73.1392015,41.2650654" id="Fill-1" fill="#E5204E"></path>
                                            <path d="M90.7971081,78.5939572 L93.3116007,117.73606 C93.3515934,118.274179 93.0421007,118.709491 92.6216375,118.709491 L86.0790566,118.709491 C85.6575125,118.709491 85.3480199,118.274179 85.3880125,117.73606 L87.9014243,78.5939572 C87.9651963,78.0558386 89.5122993,57.9297736 89.5122993,57.9297736 C90.1586669,57.9297736 90.7344169,78.0558386 90.7971081,78.5939572" id="Fill-3" fill="#597EB1"></path>
                                            <path d="M89.0392691,93.0097468 L81.6932324,76.0922631 C81.6478353,75.9847832 81.5246147,75.935896 81.4172471,75.9826264 C81.3174456,76.0257621 81.2684456,76.1375556 81.3005118,76.2378463 L86.8457985,93.826091 C87.0399971,94.441135 87.6978941,94.7833453 88.3147176,94.5895939 C88.9329824,94.395483 89.2756221,93.7391006 89.0814235,93.1236971 C89.0688132,93.084875 89.0540412,93.0464122 89.0392691,93.0097468" id="Fill-5" fill="#597EB1"></path>
                                            <path d="M90.5321838,78.6097377 L97.1673603,67.6291717 C97.2095147,67.559795 97.1868162,67.4695694 97.1169191,67.427512 C97.0553088,67.3897683 96.9756838,67.4045063 96.9299265,67.458426 L88.6316324,77.2488046 C88.2129706,77.7423495 88.2745809,78.4821277 88.7692647,78.8994662 C89.2639485,79.3164451 90.0043529,79.2549767 90.4237353,78.7614317 C90.4626471,78.7147013 90.5015588,78.6600627 90.5321838,78.6097377" id="Fill-7" fill="#597EB1"></path>
                                            <path d="M90.2204213,73.3802822 C90.2204213,73.3802822 90.1793478,73.138722 90.1062081,72.7145537 C90.1015243,72.533743 89.9372301,72.1527105 89.8078846,71.8051082 C89.6788993,71.4086187 89.4425463,71.1397392 89.2220463,70.7680528 C88.7342081,70.0980107 88.0809949,69.4240145 87.3323037,68.82946 C86.5933404,68.210462 85.7693478,67.6496971 84.958686,67.0831809 C84.1462228,66.5249323 83.3420463,65.9731541 82.6268625,65.4210164 C82.2680096,65.1467449 81.9405022,64.8652841 81.6292081,64.5960451 C81.3507007,64.3055977 81.0365243,64.0604428 80.8318772,63.778982 C80.6102963,63.5086646 80.3901566,63.2681828 80.2618919,63.0187143 C80.1228184,62.7771541 79.9660904,62.5762134 79.9156493,62.382462 C79.7718919,62.0075403 79.6893846,61.7947373 79.6893846,61.7947373 L79.666686,61.7361446 C79.6097596,61.5884046 79.4429434,61.512917 79.2934213,61.5700719 C79.1503846,61.6247105 79.076164,61.7799992 79.1186787,61.9223472 C79.1186787,61.9223472 79.1939801,62.1739725 79.3240463,62.6143166 C79.3723257,62.8454524 79.5229287,63.078026 79.6620022,63.3641598 C79.7913478,63.6614371 80.007164,63.9396627 80.2309066,64.2577889 C80.4423993,64.5892153 80.7464875,64.8663625 81.0296787,65.2060566 C81.3359287,65.5133989 81.6623551,65.8394333 82.0136419,66.1521675 C82.7147743,66.7812306 83.4926493,67.4023855 84.2582743,68.0188673 C85.0181346,68.636787 85.7812375,69.2453606 86.4128331,69.8618424 C87.0674875,70.4661025 87.5700978,71.086179 87.9105757,71.6322057 C88.0406419,71.9079151 88.2370022,72.177873 88.2615022,72.3683893 C88.3101419,72.5905384 88.4164287,72.6771694 88.4164287,72.9349055 C88.4564213,73.3633874 88.4794801,73.6085423 88.4794801,73.6085423 C88.5252375,74.0895059 88.952186,74.443938 89.4353404,74.3993644 C89.917414,74.3547908 90.2730243,73.9284658 90.2283478,73.4467832 C90.226186,73.4259342 90.2225831,73.4011312 90.2204213,73.3802822" id="Fill-9" fill="#597EB1"></path>
                                            <path d="M163.203543,30.2182141 C163.132565,30.2182141 163.06447,30.2279197 162.994213,30.2279197 C163.048617,29.6056864 163.08933,28.9777017 163.08933,28.3392925 C163.08933,16.7059388 153.637014,7.27538432 141.976815,7.27538432 C130.316617,7.27538432 120.86394,16.7059388 120.86394,28.3392925 C120.86394,28.9974723 120.903212,29.6445086 120.962301,30.2868719 C120.504367,30.2581147 120.048235,30.2182141 119.583455,30.2182141 C107.922896,30.2182141 98.4709404,39.6487686 98.4709404,51.2821224 C98.4709404,62.9154761 107.922896,72.3460306 119.583455,72.3460306 C120.608492,72.3460306 121.609389,72.2478967 122.595514,72.1066272 C125.474985,80.3214723 133.291205,86.2238815 142.508249,86.2238815 C151.651433,86.2238815 159.412889,80.4152925 162.348565,72.3025354 C162.634279,72.3140382 162.914587,72.3460306 163.203543,72.3460306 C174.863382,72.3460306 184.316058,62.9154761 184.316058,51.2821224 C184.316058,39.6487686 174.863382,30.2182141 163.203543,30.2182141" id="Fill-11" fill="#FA7880"></path>
                                            <path d="M140.883611,77.4014692 L137.705457,126.876743 C137.655015,127.55649 138.046295,128.10719 138.577729,128.10719 L146.84756,128.10719 C147.380074,128.10719 147.771354,127.55649 147.721273,126.876743 L144.544199,77.4014692 C144.463493,76.7210027 142.508177,51.2820505 142.508177,51.2820505 C141.69067,51.2820505 140.963236,76.7210027 140.883611,77.4014692" id="Fill-13" fill="#597EB1"></path>
                                            <path d="M143.105905,95.622875 L152.391045,74.2390432 C152.448692,74.103525 152.604339,74.0416971 152.74017,74.1006493 C152.865913,74.155288 152.928243,74.2965576 152.88753,74.4230891 L145.878368,96.654179 C145.633008,97.4320604 144.801089,97.8644964 144.021412,97.619701 C143.240295,97.3745461 142.806861,96.5445423 143.052942,95.7666608 C143.068435,95.7181331 143.08717,95.6688864 143.105905,95.622875" id="Fill-15" fill="#597EB1"></path>
                                            <path d="M141.218576,77.4214554 L132.83201,63.5421667 C132.778326,63.4544574 132.80715,63.3401476 132.895422,63.2873063 C132.973246,63.2394975 133.074488,63.2585491 133.132496,63.3261285 L143.621378,75.7014172 C144.149929,76.3250883 144.072106,77.2600558 143.446996,77.7873904 C142.821525,78.3143656 141.885841,78.2370807 141.355849,77.6130501 C141.306849,77.5540979 141.257488,77.4847212 141.218576,77.4214554" id="Fill-17" fill="#597EB1"></path>
                                            <path d="M141.61299,70.8117277 C141.61299,70.8117277 141.664873,70.5061828 141.757108,69.970221 C141.763233,69.7412421 141.970763,69.2602784 142.133976,68.8206532 C142.297189,68.3192 142.596233,67.9795059 142.87474,67.5096857 C143.491564,66.6624275 144.317358,65.8112153 145.26349,65.0592153 C146.197733,64.2766608 147.238623,63.568156 148.26402,62.851743 C149.290858,62.1464734 150.307248,61.4487526 151.211226,60.7513912 C151.664476,60.4045078 152.078814,60.0486379 152.471895,59.7082249 C152.823902,59.3412115 153.221307,59.031353 153.479638,58.675483 C153.759946,58.3339916 154.038093,58.0298845 154.200226,57.7142746 C154.37641,57.4090891 154.574211,57.1556665 154.637623,56.9105117 C154.819571,56.4367373 154.923336,56.1674983 154.923336,56.1674983 L154.95216,56.093808 C155.024579,55.906527 155.235711,55.8116283 155.424505,55.8835212 C155.605013,55.9525384 155.699049,56.1484467 155.645365,56.3285384 C155.645365,56.3285384 155.550248,56.6470241 155.385954,57.2034753 C155.325064,57.4957201 155.134468,57.7894027 154.958285,58.1510241 C154.795071,58.5270241 154.521968,58.8785805 154.239138,59.2808214 C153.97216,59.6999572 153.587726,60.0500757 153.229593,60.4792765 C152.842638,60.8682172 152.42974,61.2801637 151.986579,61.6748558 C151.099895,62.4703511 150.116652,63.2554218 149.148902,64.0347411 C148.188718,64.8154983 147.224211,65.585112 146.425439,66.3644314 C145.598564,67.1279342 144.963005,67.9119266 144.532814,68.6017392 C144.367799,68.9504199 144.119557,69.2915518 144.089292,69.5323931 C144.026961,69.8134945 143.892932,69.9227717 143.892932,70.2484467 C143.84213,70.7898004 143.813307,71.1000184 143.813307,71.1000184 C143.75566,71.707873 143.215579,72.155766 142.60488,72.0996895 C141.995623,72.043613 141.546336,71.5047755 141.602902,70.8951235 C141.605424,70.8692421 141.610108,70.8376092 141.61299,70.8117277" id="Fill-19" fill="#597EB1"></path>
                                            <path d="M281.950035,46.3193537 C282.020653,46.3193537 282.088749,46.3294187 282.159366,46.3294187 C282.104601,45.7071855 282.063888,45.0792008 282.063888,44.4404321 C282.063888,32.8074379 291.516565,23.3768834 303.176763,23.3768834 C314.836601,23.3768834 324.289278,32.8074379 324.289278,44.4404321 C324.289278,45.0989713 324.250006,45.7460076 324.190918,46.3883709 C324.648851,46.3596138 325.104984,46.3193537 325.569763,46.3193537 C337.230322,46.3193537 346.682638,55.7499082 346.682638,67.3836214 C346.682638,79.0166157 337.230322,88.4471702 325.569763,88.4471702 C324.545087,88.4471702 323.54419,88.3493958 322.558065,88.2081262 C319.678594,96.4229713 311.862013,102.32538 302.645329,102.32538 C293.502146,102.32538 285.74069,96.5164321 282.805013,88.4040344 C282.51894,88.4155373 282.238991,88.4471702 281.950035,88.4471702 C270.289837,88.4471702 260.837521,79.0166157 260.837521,67.3836214 C260.837521,55.7499082 270.289837,46.3193537 281.950035,46.3193537" id="Fill-21" fill="#FA7880"></path>
                                            <path d="M304.269607,93.5026088 L307.448122,142.977882 C307.498563,143.65763 307.107284,144.20833 306.57585,144.20833 L298.306019,144.20833 C297.773504,144.20833 297.381865,143.65763 297.432306,142.977882 L300.609379,93.5026088 C300.690085,92.8225017 302.645401,67.3835495 302.645401,67.3835495 C303.462549,67.3835495 304.190343,92.8225017 304.269607,93.5026088" id="Fill-23" fill="#597EB1"></path>
                                            <path d="M302.047313,111.724015 L292.762534,90.3405423 C292.704887,90.2050241 292.54924,90.1428367 292.413409,90.2021484 C292.287666,90.256787 292.225335,90.3980566 292.266049,90.5245881 L299.27521,112.755678 C299.52021,113.533559 300.352129,113.965636 301.132166,113.7212 C301.913284,113.476045 302.346357,112.646041 302.100637,111.86816 C302.084784,111.819273 302.066409,111.770385 302.047313,111.724015" id="Fill-25" fill="#597EB1"></path>
                                            <path d="M303.935002,93.522595 L312.321568,79.6433063 C312.374892,79.5555969 312.346068,79.4416467 312.258157,79.3884459 C312.179973,79.3409966 312.07909,79.3596887 312.021083,79.4272681 L301.53184,91.8025568 C301.003649,92.4262279 301.081473,93.3615549 301.706583,93.8888895 C302.332054,94.4158646 303.267377,94.3382203 303.79773,93.7141897 C303.84673,93.6552375 303.89609,93.5862203 303.935002,93.522595" id="Fill-27" fill="#597EB1"></path>
                                            <path d="M303.540588,86.9132268 C303.540588,86.9132268 303.488346,86.6073224 303.396471,86.0717201 C303.390346,85.8423816 303.182456,85.361418 303.019243,84.9221522 C302.85639,84.4203396 302.557346,84.0806455 302.278478,83.6108252 C301.662015,82.7639266 300.83586,81.9123549 299.890088,81.1603549 C298.955846,80.3781598 297.914956,79.6692956 296.889559,78.9532421 C295.862721,78.247613 294.846331,77.5502516 293.942353,76.8528902 C293.489103,76.5056474 293.074404,76.1501369 292.681684,75.8097239 C292.329316,75.4423511 291.932272,75.132852 291.673581,74.7766226 C291.393632,74.4354906 291.115125,74.1313836 290.953353,73.8157736 C290.777169,73.5105881 290.579368,73.2568061 290.515956,73.0120107 C290.334007,72.5382363 290.229882,72.2686379 290.229882,72.2686379 L290.201059,72.1953071 C290.12864,72.008026 289.917868,71.9131273 289.729074,71.9850203 C289.548206,72.0540375 289.454529,72.2499457 289.507853,72.4300375 C289.507853,72.4300375 289.602971,72.7485231 289.767625,73.3046149 C289.828154,73.5968597 290.01911,73.8905423 290.195294,74.2521637 C290.358507,74.6285231 290.63125,74.9800795 290.914441,75.381961 C291.181419,75.8010967 291.565493,76.1515748 291.923625,76.5807755 C292.310581,76.9693568 292.723838,77.3813033 293.167,77.7763549 C294.053684,78.5714906 295.036926,79.3569208 296.004316,80.1358807 C296.9645,80.9166379 297.929368,81.6862516 298.727779,82.4655709 C299.555015,83.2290738 300.190574,84.0130662 300.620765,84.7032382 C300.785779,85.0515595 301.034022,85.3930509 301.064287,85.6335327 C301.126257,85.914634 301.260647,86.0239113 301.260647,86.3499457 C301.311449,86.8912994 301.340272,87.2011579 301.340272,87.2011579 C301.397919,87.8090126 301.938,88.2569055 302.548699,88.2008291 C303.157956,88.1447526 303.607243,87.6059151 303.550676,86.9962631 C303.548154,86.9703816 303.543471,86.9387488 303.540588,86.9132268" id="Fill-29" fill="#597EB1"></path>
                                            <path d="M796.41624,33.9894294 C796.360034,33.9894294 796.30635,33.9973377 796.250504,33.9973377 C796.29374,33.5048711 796.325806,33.0084505 796.325806,32.5030432 C796.325806,23.2996704 788.847541,15.8386226 779.622931,15.8386226 C770.39796,15.8386226 762.919696,23.2996704 762.919696,32.5030432 C762.919696,33.0239075 762.950321,33.5357851 762.997159,34.0440681 C762.635063,34.0214218 762.274049,33.9894294 761.906549,33.9894294 C752.681218,33.9894294 745.202953,41.4504772 745.202953,50.6542096 C745.202953,59.8579419 752.681218,67.3189897 761.906549,67.3189897 C762.717571,67.3189897 763.509137,67.2413453 764.289534,67.1295518 C766.567313,73.6286723 772.751041,78.2984772 780.043394,78.2984772 C787.277019,78.2984772 793.417512,73.702722 795.739968,67.2844811 C795.965872,67.2934677 796.187453,67.3189897 796.41624,67.3189897 C805.64121,67.3189897 813.119115,59.8579419 813.119115,50.6542096 C813.119115,41.4504772 805.64121,33.9894294 796.41624,33.9894294" id="Fill-31" fill="#E5204E"></path>
                                            <path d="M778.757973,71.3182853 L776.24348,110.460748 C776.203488,110.998507 776.51334,111.434178 776.933804,111.434178 L783.476385,111.434178 C783.897929,111.434178 784.207421,110.998507 784.167429,110.460748 L781.654017,71.3182853 C781.589885,70.7805262 780.043142,50.6544612 780.043142,50.6544612 C779.396414,50.6544612 778.821024,70.7805262 778.757973,71.3182853" id="Fill-33" fill="#597EB1"></path>
                                            <path d="M780.516172,85.734075 L787.861849,68.8165912 C787.907606,68.7094707 788.030826,68.6602241 788.138194,68.707314 C788.237635,68.7504497 788.286635,68.8618837 788.254929,68.9625338 L782.709643,86.5504191 C782.515444,87.1658226 781.857547,87.5080329 781.240363,87.3142815 C780.622459,87.1201706 780.279819,86.4634287 780.474018,85.8480252 C780.486268,85.8095625 780.5014,85.7707403 780.516172,85.734075" id="Fill-35" fill="#597EB1"></path>
                                            <path d="M779.022897,71.3341017 L772.387721,60.3535358 C772.345566,60.2841591 772.368265,60.1942929 772.438162,60.1522356 C772.499772,60.1144918 772.579757,60.1292298 772.625515,60.1831495 L780.923809,69.9735281 C781.34211,70.467073 781.2805,71.2068512 780.785816,71.6238302 C780.291132,72.0411686 779.550728,71.9793407 779.131706,71.4857958 C779.092434,71.4390654 779.053882,71.3844268 779.022897,71.3341017" id="Fill-37" fill="#597EB1"></path>
                                            <path d="M779.334984,66.1050057 C779.334984,66.1050057 779.376057,65.8634455 779.448837,65.4392772 C779.453521,65.2584665 779.618175,64.877434 779.747521,64.5298317 C779.876506,64.1333423 780.112859,63.8644627 780.333359,63.4924168 C780.821197,62.8223748 781.47441,62.148738 782.223101,61.5538241 C782.961704,60.934826 783.785697,60.3744207 784.596719,59.8075449 C785.408822,59.2492964 786.213359,58.6978776 786.928182,58.14574 C787.287035,57.8714685 787.614903,57.5900076 787.925837,57.3207686 C788.204344,57.0303212 788.518521,56.7848069 788.723168,56.5033461 C788.944749,56.2333881 789.165249,55.9929063 789.293153,55.7434379 C789.432587,55.5015182 789.588954,55.3009369 789.639396,55.1071855 C789.783513,54.7322639 789.86566,54.5194608 789.86566,54.5194608 L789.888359,54.4608681 C789.945285,54.3127686 790.112101,54.2376405 790.261984,54.2947954 C790.405021,54.349434 790.479241,54.5043633 790.436726,54.6467113 C790.436726,54.6467113 790.361425,54.898696 790.230999,55.3386807 C790.183079,55.5698164 790.032116,55.8027495 789.893043,56.0888834 C789.763697,56.3861606 789.548241,56.6640268 789.324138,56.982153 C789.112646,57.3139388 788.808918,57.5907266 788.525726,57.9307801 C788.219116,58.2381224 787.89269,58.5641568 787.541763,58.8765315 C786.840271,59.5059541 786.062396,60.1267495 785.297131,60.7435908 C784.537271,61.3615105 783.774168,61.9697247 783.142212,62.586566 C782.487918,63.190826 781.984947,63.810543 781.644829,64.3565698 C781.514763,64.6322792 781.318043,64.9025966 781.293903,65.0931128 C781.244903,65.315262 781.138616,65.4018929 781.138616,65.6592696 C781.098984,66.0877514 781.075925,66.3329063 781.075925,66.3329063 C781.030168,66.8142294 780.603219,67.1683021 780.119704,67.124088 C779.637631,67.0795143 779.282381,66.6531893 779.327057,66.1711472 C779.328859,66.1506577 779.332462,66.1258547 779.334984,66.1050057" id="Fill-39" fill="#597EB1"></path>
                                            <path d="M706.351862,22.9425782 C706.422479,22.9425782 706.490575,22.9526432 706.561193,22.9526432 C706.506428,22.3304099 706.465715,21.7024252 706.465715,21.0640161 C706.465715,9.43066233 715.918391,0.000107839388 727.57859,0.000107839388 C739.238428,0.000107839388 748.691104,9.43066233 748.691104,21.0640161 C748.691104,21.7221958 748.651832,22.3692321 748.592744,23.0115954 C749.050678,22.9828382 749.50681,22.9425782 749.97159,22.9425782 C761.632149,22.9425782 771.084465,32.3731327 771.084465,44.0068459 C771.084465,55.6398402 761.632149,65.0703946 749.97159,65.0703946 C748.946913,65.0703946 747.945656,64.9726203 746.959531,64.8313507 C744.080421,73.0461958 736.26384,78.948605 727.046796,78.948605 C717.903972,78.948605 710.142516,73.1400161 707.206479,65.0272589 C706.920766,65.0387618 706.640818,65.0703946 706.351862,65.0703946 C694.691663,65.0703946 685.238987,55.6398402 685.238987,44.0068459 C685.238987,32.3731327 694.691663,22.9425782 706.351862,22.9425782" id="Fill-41" fill="#FA7880"></path>
                                            <path d="M728.67147,70.1257973 L731.849624,119.60143 C731.900426,120.281178 731.509146,120.831518 730.977352,120.831518 L722.707882,120.831518 C722.175367,120.831518 721.783727,120.281178 721.834168,119.60143 L725.011242,70.1257973 C725.091588,69.4456902 727.046904,44.006738 727.046904,44.006738 C727.864411,44.006738 728.592205,69.4456902 728.67147,70.1257973" id="Fill-43" fill="#597EB1"></path>
                                            <path d="M726.449176,88.347239 L717.164396,66.9637667 C717.106749,66.8282486 716.950742,66.7664207 716.815271,66.8253728 C716.689168,66.8800115 716.627198,67.0212811 716.667911,67.1478126 L723.677073,89.3789025 C723.922073,90.1567839 724.753992,90.5888604 725.534029,90.3444245 C726.315146,90.0992696 726.74822,89.2692658 726.502499,88.4913843 C726.486646,88.4424971 726.468271,88.3936099 726.449176,88.347239" id="Fill-45" fill="#597EB1"></path>
                                            <path d="M728.336504,70.1458195 L736.723071,56.2668902 C736.776754,56.1791809 736.747931,56.0648711 736.660019,56.0116704 C736.581835,55.964221 736.480593,55.9829132 736.422585,56.0504925 L725.933703,68.4257813 C725.405151,69.0498119 725.483335,69.9847793 726.108446,70.512114 C726.733916,71.0390891 727.66924,70.9618042 728.199232,70.3374141 C728.248593,70.278462 728.297593,70.2094447 728.336504,70.1458195" id="Fill-47" fill="#597EB1"></path>
                                            <path d="M727.942415,63.5364512 C727.942415,63.5364512 727.890172,63.2305468 727.797937,62.6949446 C727.792172,62.4656061 727.584282,61.9846424 727.421069,61.5453767 C727.258216,61.0435641 726.959172,60.70387 726.680304,60.2340497 C726.063841,59.3871511 725.237687,58.5355793 724.291915,57.7835793 C723.357672,57.0013843 722.316782,56.2928795 721.291385,55.5764665 C720.264547,54.8708375 719.248157,54.1734761 718.344179,53.4761147 C717.890929,53.1288719 717.476231,52.7733614 717.08351,52.4329484 C716.731143,52.065935 716.334099,51.7560765 716.075407,51.399847 C715.795459,51.0587151 715.516951,50.754608 715.354819,50.4389981 C715.178635,50.1338126 714.981194,49.8803901 714.917782,49.6352352 C714.735834,49.1614608 714.631709,48.8918623 714.631709,48.8918623 L714.602885,48.8185315 C714.530466,48.6312505 714.319694,48.5363518 714.13054,48.6082447 C713.950032,48.677262 713.855996,48.8731702 713.909679,49.053262 C713.909679,49.053262 714.004797,49.3717476 714.169451,49.9278394 C714.229981,50.2200841 714.420937,50.5137667 714.597121,50.8753881 C714.759974,51.2517476 715.033076,51.603304 715.315907,52.0051855 C715.583246,52.4243212 715.967319,52.7747992 716.325451,53.204 C716.712407,53.5929407 717.125665,54.0045277 717.568826,54.3995793 C718.45551,55.1947151 719.438393,55.9801453 720.406143,56.7591052 C721.366326,57.5402218 722.331194,58.3094761 723.129606,59.0887954 C723.956841,59.8526577 724.5924,60.6362906 725.022591,61.3264627 C725.187246,61.6747839 725.435488,62.0162753 725.466113,62.2567572 C725.528084,62.5378585 725.662474,62.6471358 725.662474,62.9731702 C725.712915,63.5145239 725.741738,63.8243824 725.741738,63.8243824 C725.799746,64.4322371 726.339466,64.88013 726.950165,64.8240535 C727.559782,64.7679771 728.009069,64.229499 727.952503,63.6194876 C727.949981,63.5939656 727.945297,63.5623327 727.942415,63.5364512" id="Fill-49" fill="#597EB1"></path>
                                            <path d="M210.288076,102.041296 C210.288076,102.041296 213.524598,82.536026 237.07126,83.1406455 C256.51309,83.6399419 259.28159,92.2652956 259.28159,92.2652956 C259.28159,92.2652956 267.090965,87.042634 277.572642,89.9841331 C288.024774,92.9166455 289.331201,103.344714 289.331201,103.344714 C289.331201,103.344714 298.14976,92.5909706 309.908318,103.996424 C309.908318,103.996424 316.134561,96.7855633 326.892943,103.344714 C332.771862,106.929296 330.397164,115.405112 330.397164,115.405112 C330.397164,115.405112 336.556392,112.15663 341.224002,116.56834 C344.388826,119.559445 343.556186,125.209869 341.057546,127.370252 C346.387377,127.702756 355.38212,146.148684 336.560355,146.148684 C336.560355,146.148684 202.577782,146.45351 176.319186,146.148684 C161.994612,145.982611 154.762068,124.852202 178.278826,121.593655 C178.278826,121.593655 176.319186,91.6132268 210.288076,102.041296" id="Fill-51" fill="#F28555"></path>
                                            <path d="M80.6275904,106.676412 C80.6275904,106.676412 83.9754434,86.5011006 108.330965,87.126569 C128.440782,87.6427602 131.304039,96.5643128 131.304039,96.5643128 C131.304039,96.5643128 139.381833,91.1626379 150.223443,94.2051465 C161.034789,97.238309 162.386252,108.024764 162.386252,108.024764 C162.386252,108.024764 171.507818,96.9014906 183.670267,108.69876 C183.670267,108.69876 190.110524,101.240229 201.238208,108.024764 C207.319612,111.732282 204.862767,120.499265 204.862767,120.499265 C204.862767,120.499265 211.233848,117.13899 216.061789,121.702753 C219.335061,124.796665 218.473958,130.640841 215.889568,132.875632 C221.402789,133.21928 230.706304,152.299303 211.237811,152.299303 C211.237811,152.299303 72.6517596,152.614554 45.4913478,152.299303 C30.6746125,152.12712 23.1938257,130.271311 47.5183625,126.900611 C47.5183625,126.900611 45.4913478,95.8903166 80.6275904,106.676412" id="Fill-53" fill="#F28555"></path>
                                            <path d="M744.072638,102.041296 C744.072638,102.041296 747.30916,82.536026 770.855822,83.1406455 C790.297653,83.6399419 793.066153,92.2652956 793.066153,92.2652956 C793.066153,92.2652956 800.875528,87.042634 811.357204,89.9841331 C821.809337,92.9166455 823.115763,103.344714 823.115763,103.344714 C823.115763,103.344714 831.934322,92.5909706 843.692881,103.996424 C843.692881,103.996424 849.919124,96.7855633 860.677506,103.344714 C866.556425,106.929296 864.181726,115.405112 864.181726,115.405112 C864.181726,115.405112 870.340954,112.15663 875.008565,116.56834 C878.173388,119.559445 877.340749,125.209869 874.841749,127.370252 C880.17194,127.702756 889.166682,146.148684 870.344918,146.148684 C870.344918,146.148684 736.362344,146.45351 710.103749,146.148684 C695.779175,145.982611 688.546631,124.852202 712.063388,121.593655 C712.063388,121.593655 710.103749,91.6132268 744.072638,102.041296" id="Fill-55" fill="#F28555"></path>
                                            <path d="M610.186047,96.2122532 C610.186047,96.2122532 613.966253,73.4322608 641.466422,74.1382493 C664.172878,74.721301 667.406157,84.7945782 667.406157,84.7945782 C667.406157,84.7945782 676.527003,78.6959013 688.767996,82.1305859 C700.975121,85.5555648 702.501326,97.7345859 702.501326,97.7345859 C702.501326,97.7345859 712.801054,85.1752512 726.533665,98.4959319 C726.533665,98.4959319 733.805481,90.0740352 746.369657,97.7345859 C753.236143,101.92127 750.462599,111.819848 750.462599,111.819848 C750.462599,111.819848 757.656231,108.026058 763.107481,113.178624 C766.803378,116.672261 765.830944,123.270953 762.912922,125.794395 C769.138084,126.182257 779.642819,147.72605 757.660194,147.72605 C757.660194,147.72605 601.180856,148.08192 570.513701,147.72605 C553.783444,147.532299 545.336709,122.853615 572.80229,119.047603 C572.80229,119.047603 570.513701,84.0335916 610.186047,96.2122532" id="Fill-57" fill="#F28555"></path>
                                            <path d="M178.623735,135.310358 C178.623735,135.310358 172.614029,123.185257 162.449772,118.537379 C154.41125,114.861134 136.691625,117.250496 134.922941,124.029998 C134.922941,124.029998 124.759044,113.889501 107.39575,118.114649 C92.0230809,121.855237 89.2196324,135.310358 89.2196324,135.310358 C89.2196324,135.310358 86.0526471,131.975605 79.8955809,133.379673 C79.8955809,133.379673 70.2188015,129.167107 63.7097279,134.959161 C57.1999338,140.751933 57.1999338,145.490756 57.1999338,145.490756 C57.1999338,145.490756 50.6944632,142.059666 45.7645588,146.719765 C42.42175,149.8791 43.3012279,155.847291 45.9403824,158.128813 C40.3104265,158.48001 30.8101912,177.963352 50.6905,177.963352 C50.6905,177.963352 154.407647,178.285433 182.142728,177.963352 C197.272559,177.787933 201.143199,159.70866 192.346618,153.389631 C192.346618,153.389631 196.392721,137.416461 178.623735,135.310358" id="Fill-59" fill="#F3AB55"></path>
                                            <path d="M799.64869,135.310358 C799.64869,135.310358 793.638624,123.185257 783.474727,118.537379 C775.436205,114.861134 757.71658,117.250496 755.947536,124.029998 C755.947536,124.029998 745.783639,113.889501 728.420345,118.114649 C713.048036,121.855237 710.244227,135.310358 710.244227,135.310358 C710.244227,135.310358 707.077602,131.975605 700.920176,133.379673 C700.920176,133.379673 691.243757,129.167107 684.734323,134.959161 C678.224529,140.751933 678.224529,145.490756 678.224529,145.490756 C678.224529,145.490756 671.719418,142.059666 666.789154,146.719765 C663.446705,149.8791 664.326183,155.847291 666.964977,158.128813 C661.335021,158.48001 651.834786,177.963352 671.715455,177.963352 C671.715455,177.963352 775.432242,178.285433 803.167323,177.963352 C818.297514,177.787933 822.167793,159.70866 813.371213,153.389631 C813.371213,153.389631 817.417676,137.416461 799.64869,135.310358" id="Fill-61" fill="#F3AB55"></path>
                                            <path d="M301.664861,127.627161 C301.664861,127.627161 296.590118,105.749065 275.361229,106.294014 C257.83292,106.744063 249.529221,116.090503 249.529221,116.090503 C249.529221,116.090503 242.47106,110.996171 233.911552,115.79071 C225.351685,120.585249 225.351685,127.627161 225.351685,127.627161 C225.351685,127.627161 222.648398,124.780201 217.392787,125.979016 C217.392787,125.979016 209.133405,122.383291 203.576949,127.327367 C198.020493,132.271803 198.020493,136.316859 198.020493,136.316859 C198.020493,136.316859 192.46764,133.388301 188.259405,137.365777 C185.406236,140.06284 186.157089,145.156813 188.409648,147.104392 C183.604045,147.404186 175.494545,164.034457 192.464037,164.034457 C192.464037,164.034457 280.994788,164.309448 304.668273,164.034457 C317.583015,163.88492 320.886912,148.453104 313.378383,143.059337 C313.378383,143.059337 316.832162,129.424844 301.664861,127.627161" id="Fill-63" fill="#F3AB55"></path>
                                            <path d="M107.553235,151.398844 C107.553235,151.398844 103.386793,136.979999 117.318286,132.953276 C131.919926,128.732083 136.978455,141.396741 136.978455,141.396741 C136.978455,141.396741 143.098051,136.979999 150.519389,141.136848 C157.941088,145.293697 157.941088,151.398844 157.941088,151.398844 C157.941088,151.398844 160.28444,148.93076 164.84144,149.969972 C164.84144,149.969972 172.002646,146.852695 176.820139,151.138951 C181.637632,155.425927 181.637632,158.933223 181.637632,158.933223 C181.637632,158.933223 186.451882,156.393965 190.10058,159.842309 C192.57472,162.180626 191.923308,166.597368 189.970514,168.286133 C194.136595,168.546026 201.167735,182.964871 186.454764,182.964871 C186.454764,182.964871 125.474624,183.203196 104.949029,182.964871 C93.7518081,182.835104 90.8874699,169.455112 97.3976243,164.778837 C97.3976243,164.778837 94.4028596,152.957842 107.553235,151.398844" id="Fill-65" fill="#FFD974"></path>
                                            <g id="Group-69" transform="translate(0.000000, 132.001522)">
                                                <mask id="mask-20" fill="white">
                                                    <use xlink:href="#path-19"></use>
                                                </mask>
                                                <g id="Clip-68"></g>
                                                <path d="M13.5910868,19.3973224 C13.5910868,19.3973224 9.42500588,4.97847725 23.3564985,0.951754493 C37.9581382,-3.26943862 43.0166676,9.39521912 43.0166676,9.39521912 C43.0166676,9.39521912 49.1359029,4.97847725 56.5576015,9.1353262 C63.9793,13.2921751 63.9793,19.3973224 63.9793,19.3973224 C63.9793,19.3973224 66.3226529,16.9292382 70.8796529,17.9684505 C70.8796529,17.9684505 78.0408588,14.8511732 82.8583515,19.1374294 C87.6754838,23.4244046 87.6754838,26.931701 87.6754838,26.931701 C87.6754838,26.931701 92.4900941,24.3924428 96.1387926,27.840787 C98.6125721,30.1791044 97.9615206,34.5958463 96.0083662,36.2846111 C100.174807,36.544504 107.205947,50.9633491 92.4929765,50.9633491 C92.4929765,50.9633491 31.5128368,51.2016742 10.9872412,50.9633491 C-0.210339706,50.8335824 -3.07467794,37.4535901 3.43547647,32.7773147 C3.43547647,32.7773147 0.441072059,20.9563205 13.5910868,19.3973224" id="Fill-67" fill="#FFD974" mask="url(#mask-20)"></path>
                                            </g>
                                            <g id="Group-72" transform="translate(696.088235, 136.674562)">
                                                <mask id="mask-22" fill="white">
                                                    <use xlink:href="#path-21"></use>
                                                </mask>
                                                <g id="Clip-71"></g>
                                                <path d="M13.8556507,19.372052 C13.8556507,19.372052 9.68956985,4.95320688 23.6210625,0.92648413 C38.2227022,-3.29470899 43.2812316,9.36994876 43.2812316,9.36994876 C43.2812316,9.36994876 49.4004669,4.95320688 56.8221654,9.10969637 C64.243864,13.2669048 64.243864,19.372052 64.243864,19.372052 C64.243864,19.372052 66.5868566,16.9039679 71.1442169,17.9431801 C71.1442169,17.9431801 78.3054228,14.8259029 83.1229154,19.1121591 C87.9400478,23.3991342 87.9400478,26.9064306 87.9400478,26.9064306 C87.9400478,26.9064306 92.7546581,24.3671725 96.4029963,27.8155166 C98.877136,30.153834 98.2260846,34.5705759 96.2729301,36.2593407 C100.439371,36.5188742 107.470151,50.9380788 92.7575404,50.9380788 C92.7575404,50.9380788 31.7770404,51.1764038 11.2514449,50.9380788 C0.0542242647,50.808312 -2.81011397,37.4283197 3.70004044,32.7520444 C3.70004044,32.7520444 0.705636029,20.9310501 13.8556507,19.372052" id="Fill-70" fill="#FFD974" mask="url(#mask-22)"></path>
                                            </g>
                                            <path d="M305.591851,145.578609 C305.591851,145.578609 301.42541,131.159764 315.356902,127.132681 C329.958902,122.911848 335.017432,135.576146 335.017432,135.576146 C335.017432,135.576146 341.136667,131.159764 348.558005,135.316253 C355.979704,139.473462 355.979704,145.578609 355.979704,145.578609 C355.979704,145.578609 358.323057,143.110525 362.880417,144.149377 C362.880417,144.149377 370.041263,141.0321 374.858755,145.318716 C379.676248,149.605332 379.676248,153.112987 379.676248,153.112987 C379.676248,153.112987 384.490498,150.573729 388.139196,154.022073 C390.613336,156.360391 389.962285,160.776773 388.00913,162.465898 C392.175211,162.725431 399.206351,177.144276 384.49374,177.144276 C384.49374,177.144276 323.51324,177.382961 302.987645,177.144276 C291.790424,177.014509 288.926086,163.634517 295.43624,158.958601 C295.43624,158.958601 292.441476,147.137247 305.591851,145.578609" id="Fill-73" fill="#FFD974"></path>
                                            <path d="M283.08334,144.216238 C283.08334,144.216238 278.683429,125.247289 260.277804,125.719985 C245.080238,126.110364 237.88084,134.213775 237.88084,134.213775 C237.88084,134.213775 231.761605,129.797033 224.340267,133.953882 C216.918568,138.110731 216.918568,144.216238 216.918568,144.216238 C216.918568,144.216238 214.574855,141.748154 210.017855,142.787007 C210.017855,142.787007 202.85701,139.669729 198.039517,143.956345 C193.222024,148.242961 193.222024,151.750257 193.222024,151.750257 C193.222024,151.750257 188.407774,149.211358 184.759076,152.659702 C182.284936,154.99802 182.935987,159.414402 184.889142,161.103527 C180.722701,161.36306 173.691921,175.781905 188.404532,175.781905 C188.404532,175.781905 265.161951,176.02023 285.687546,175.781905 C296.884767,175.652138 299.749105,162.272146 293.238951,157.59623 C293.238951,157.59623 296.233715,145.774876 283.08334,144.216238" id="Fill-75" fill="#FFD974"></path>
                                        </g>
                                    </g>
                                </g>
                            </g>
                            <path d="M0,198.176718 C0,198.176718 379.241581,87.4630151 874,198.275893 L874,442 L0.746854064,442 L0,198.176718 Z" id="gress" fill="#6D94C2"></path>
                        </g>
                    </g>
                </g>
            </g>
        </g>
    </g>
</svg>