<?xml version="1.0" encoding="UTF-8"?>
<svg width="1024px" height="455px" viewBox="0 0 1024 455" version="1.1" xmlns="http://www.w3.org/2000/svg" xmlns:xlink="http://www.w3.org/1999/xlink">
    <title>bg_grove_pad</title>
    <defs>
        <rect id="path-1" x="0" y="0" width="1024" height="455"></rect>
        <polygon id="path-3" points="0.18272629 0.17401487 416.788699 0.17401487 416.788699 285.236081 0.18272629 285.236081"></polygon>
        <polygon id="path-5" points="4.85396221e-05 0.304080813 515.71705 0.304080813 515.71705 276.178439 4.85396221e-05 276.178439"></polygon>
        <polygon id="path-7" points="0.18272629 0.17401487 416.788699 0.17401487 416.788699 285.236081 0.18272629 285.236081"></polygon>
        <polygon id="path-9" points="4.85396221e-05 0.304080813 515.71705 0.304080813 515.71705 276.178439 4.85396221e-05 276.178439"></polygon>
        <polygon id="path-11" points="0.18272629 0.17401487 416.788699 0.17401487 416.788699 285.236081 0.18272629 285.236081"></polygon>
        <polygon id="path-13" points="4.85396221e-05 0.304080813 515.71705 0.304080813 515.71705 276.178439 4.85396221e-05 276.178439"></polygon>
        <polygon id="path-15" points="0 0.150897447 168.867627 0.150897447 168.867627 85.296549 0 85.296549"></polygon>
        <polygon id="path-17" points="0.440315924 0.108690564 169.308024 0.108690564 169.308024 85.2543021 0.440315924 85.2543021"></polygon>
    </defs>
    <g id="Page-1" stroke="none" stroke-width="1" fill="none" fill-rule="evenodd">
        <g id="bg" transform="translate(-1010.000000, -1159.000000)">
            <g id="bg_grove_pad" transform="translate(1010.000000, 1159.000000)">
                <g id="bg_pad">
                    <mask id="mask-2" fill="white">
                        <use xlink:href="#path-1"></use>
                    </mask>
                    <g id="Mask"></g>
                    <g mask="url(#mask-2)">
                        <g transform="translate(-640.000000, 18.000000)">
                            <rect id="Rectangle" stroke="#979797" stroke-width="1" fill="#6D94C2" x="321.5" y="302.5" width="1468" height="134"></rect>
                            <g id="-img/natural/cloud_big/web" stroke="none" fill="none" transform="translate(768.000000, 0.000000)" stroke-width="1">
                                <g id="-cloud_big">
                                    <g id="Group-3" transform="translate(350.893327, 0.200211)">
                                        <mask id="mask-4" fill="white">
                                            <use xlink:href="#path-3"></use>
                                        </mask>
                                        <g id="Clip-2"></g>
                                        <path d="M416.788737,7.52256927 C416.788737,7.52256927 332.71911,-25.0638669 292.176715,47.0037366 C292.176715,47.0037366 242.971595,35.0999968 225.331163,66.6067923 C225.331163,66.6067923 169.311679,61.9297217 170.779969,113.700829 C170.779969,113.700829 121.088162,114.125201 126.174619,169.644178 C126.174619,169.644178 46.1051012,154.184921 38.6690057,220.51939 C38.6690057,220.51939 -6.18698256,221.067256 0.95283624,256.232854 L10.8930681,284.693828 L416.788737,285.236081 L416.788737,7.52256927 Z" id="Fill-1" fill="#FFFFFF" mask="url(#mask-4)"></path>
                                    </g>
                                    <g id="Group-6" transform="translate(0.000000, 25.647546)">
                                        <mask id="mask-6" fill="white">
                                            <use xlink:href="#path-5"></use>
                                        </mask>
                                        <g id="Clip-5"></g>
                                        <path d="M464.827792,178.047374 C439.506985,164.637377 413.441746,163.892294 401.540177,169.038643 C391.337337,154.602519 377.321056,152.540163 377.321056,152.540163 C377.321056,152.540163 383.200203,132.351818 359.726636,119.543201 C337.049874,107.169434 318.502656,122.29301 318.502656,122.29301 C318.502656,122.29301 319.870317,100.982363 303.377956,90.6709532 C286.081683,79.8565839 263.144183,92.0458577 263.144183,92.0458577 C263.144183,92.0458577 275.667858,48.4171489 239.176448,17.872113 C207.531332,-8.61594399 159.24235,-1.74591177 143.55465,16.0780758 C122.317748,-1.19093532 76.6937594,0.268170012 54.981019,35.5041229 C54.981019,35.5041229 11.2906849,29.0472357 10.7942718,70.2704228 C10.7942718,70.2704228 1.36092742,67.7874364 0.368101315,72.2571861 C-0.624724793,76.72731 0.705527521,276.178663 0.705527521,276.178663 L117.875468,276.178663 L514.724224,275.642398 L515.71705,229.533322 C515.71705,229.533322 496.48862,194.815298 464.827792,178.047374" id="Fill-4" fill="#FFFFFF" mask="url(#mask-6)"></path>
                                    </g>
                                </g>
                            </g>
                            <g id="-img/natural/cloud_big/web" stroke="none" fill="none" transform="translate(384.000000, 151.000000) scale(-1, 1) translate(-384.000000, -151.000000) " stroke-width="1">
                                <g id="-cloud_big">
                                    <g id="Group-3" transform="translate(350.893327, 0.200211)">
                                        <mask id="mask-8" fill="white">
                                            <use xlink:href="#path-7"></use>
                                        </mask>
                                        <g id="Clip-2"></g>
                                        <path d="M416.788737,7.52256927 C416.788737,7.52256927 332.71911,-25.0638669 292.176715,47.0037366 C292.176715,47.0037366 242.971595,35.0999968 225.331163,66.6067923 C225.331163,66.6067923 169.311679,61.9297217 170.779969,113.700829 C170.779969,113.700829 121.088162,114.125201 126.174619,169.644178 C126.174619,169.644178 46.1051012,154.184921 38.6690057,220.51939 C38.6690057,220.51939 -6.18698256,221.067256 0.95283624,256.232854 L10.8930681,284.693828 L416.788737,285.236081 L416.788737,7.52256927 Z" id="Fill-1" fill="#FFFFFF" mask="url(#mask-8)"></path>
                                    </g>
                                    <g id="Group-6" transform="translate(0.000000, 25.647546)">
                                        <mask id="mask-10" fill="white">
                                            <use xlink:href="#path-9"></use>
                                        </mask>
                                        <g id="Clip-5"></g>
                                        <path d="M464.827792,178.047374 C439.506985,164.637377 413.441746,163.892294 401.540177,169.038643 C391.337337,154.602519 377.321056,152.540163 377.321056,152.540163 C377.321056,152.540163 383.200203,132.351818 359.726636,119.543201 C337.049874,107.169434 318.502656,122.29301 318.502656,122.29301 C318.502656,122.29301 319.870317,100.982363 303.377956,90.6709532 C286.081683,79.8565839 263.144183,92.0458577 263.144183,92.0458577 C263.144183,92.0458577 275.667858,48.4171489 239.176448,17.872113 C207.531332,-8.61594399 159.24235,-1.74591177 143.55465,16.0780758 C122.317748,-1.19093532 76.6937594,0.268170012 54.981019,35.5041229 C54.981019,35.5041229 11.2906849,29.0472357 10.7942718,70.2704228 C10.7942718,70.2704228 1.36092742,67.7874364 0.368101315,72.2571861 C-0.624724793,76.72731 0.705527521,276.178663 0.705527521,276.178663 L117.875468,276.178663 L514.724224,275.642398 L515.71705,229.533322 C515.71705,229.533322 496.48862,194.815298 464.827792,178.047374" id="Fill-4" fill="#FFFFFF" mask="url(#mask-10)"></path>
                                    </g>
                                </g>
                            </g>
                            <g id="-img/natural/cloud_big/web" stroke="none" fill="none" transform="translate(1919.000000, 151.000000) scale(-1, 1) translate(-1919.000000, -151.000000) translate(1535.000000, 0.000000)" stroke-width="1">
                                <g id="-cloud_big">
                                    <g id="Group-3" transform="translate(350.893327, 0.200211)">
                                        <mask id="mask-12" fill="white">
                                            <use xlink:href="#path-11"></use>
                                        </mask>
                                        <g id="Clip-2"></g>
                                        <path d="M416.788737,7.52256927 C416.788737,7.52256927 332.71911,-25.0638669 292.176715,47.0037366 C292.176715,47.0037366 242.971595,35.0999968 225.331163,66.6067923 C225.331163,66.6067923 169.311679,61.9297217 170.779969,113.700829 C170.779969,113.700829 121.088162,114.125201 126.174619,169.644178 C126.174619,169.644178 46.1051012,154.184921 38.6690057,220.51939 C38.6690057,220.51939 -6.18698256,221.067256 0.95283624,256.232854 L10.8930681,284.693828 L416.788737,285.236081 L416.788737,7.52256927 Z" id="Fill-1" fill="#FFFFFF" mask="url(#mask-12)"></path>
                                    </g>
                                    <g id="Group-6" transform="translate(0.000000, 25.647546)">
                                        <mask id="mask-14" fill="white">
                                            <use xlink:href="#path-13"></use>
                                        </mask>
                                        <g id="Clip-5"></g>
                                        <path d="M464.827792,178.047374 C439.506985,164.637377 413.441746,163.892294 401.540177,169.038643 C391.337337,154.602519 377.321056,152.540163 377.321056,152.540163 C377.321056,152.540163 383.200203,132.351818 359.726636,119.543201 C337.049874,107.169434 318.502656,122.29301 318.502656,122.29301 C318.502656,122.29301 319.870317,100.982363 303.377956,90.6709532 C286.081683,79.8565839 263.144183,92.0458577 263.144183,92.0458577 C263.144183,92.0458577 275.667858,48.4171489 239.176448,17.872113 C207.531332,-8.61594399 159.24235,-1.74591177 143.55465,16.0780758 C122.317748,-1.19093532 76.6937594,0.268170012 54.981019,35.5041229 C54.981019,35.5041229 11.2906849,29.0472357 10.7942718,70.2704228 C10.7942718,70.2704228 1.36092742,67.7874364 0.368101315,72.2571861 C-0.624724793,76.72731 0.705527521,276.178663 0.705527521,276.178663 L117.875468,276.178663 L514.724224,275.642398 L515.71705,229.533322 C515.71705,229.533322 496.48862,194.815298 464.827792,178.047374" id="Fill-4" fill="#FFFFFF" mask="url(#mask-14)"></path>
                                    </g>
                                </g>
                            </g>
                            <path d="M768,351.176718 C768,351.176718 1101.24661,240.463015 1536,351.275893 L1536,437 L768.656275,437 L768,351.176718 Z" id="gress" stroke="none" fill="#6D94C2"></path>
                            <g id="img/natural/grove/web" stroke="none" fill="none" transform="translate(321.000000, 61.000000)" stroke-width="1">
                                <g id="grove">
                                    <path d="M121.815745,68.921439 C121.908758,68.921439 121.99877,68.934047 122.091782,68.934047 C122.019173,68.1121235 121.965765,67.282395 121.965765,66.4388577 C121.965765,51.0666665 134.421061,38.6051293 149.785553,38.6051293 C165.150045,38.6051293 177.60534,51.0666665 177.60534,66.4388577 C177.60534,67.3082115 177.553733,68.163156 177.475723,69.0120967 C178.079405,68.974873 178.680687,68.921439 179.29277,68.921439 C194.657262,68.921439 207.112558,81.3829763 207.112558,96.7545671 C207.112558,112.126758 194.657262,124.588296 179.29277,124.588296 C177.941986,124.588296 176.623607,124.458613 175.32383,124.271894 C171.530113,135.126808 161.230311,142.926376 149.085258,142.926376 C137.037417,142.926376 126.810225,135.251087 122.942098,124.531259 C122.565247,124.546269 122.196197,124.588296 121.815745,124.588296 C106.451253,124.588296 93.9965574,112.126758 93.9965574,96.7545671 C93.9965574,81.3829763 106.451253,68.921439 121.815745,68.921439" id="Fill-1" fill="#E5204E"></path>
                                    <path d="M151.225569,131.268631 L155.413539,196.644271 C155.480148,197.543044 154.964678,198.270107 154.264383,198.270107 L143.367499,198.270107 C142.665403,198.270107 142.149933,197.543044 142.216542,196.644271 L146.402712,131.268631 C146.508927,130.369858 149.085678,96.7550474 149.085678,96.7550474 C150.162224,96.7550474 151.121155,130.369858 151.225569,131.268631" id="Fill-3" fill="#597EB1"></path>
                                    <path d="M148.29783,155.346067 L136.062765,127.090269 C135.987154,126.910755 135.781926,126.829103 135.603102,126.907153 C135.436879,126.979198 135.355268,127.165917 135.408675,127.333424 L144.644533,156.709535 C144.967977,157.736789 146.063726,158.308353 147.091066,157.984747 C148.120806,157.660541 148.691484,156.564242 148.36804,155.536388 C148.347037,155.471546 148.322434,155.407306 148.29783,155.346067" id="Fill-5" fill="#597EB1"></path>
                                    <path d="M150.784329,131.294987 L161.835433,112.955106 C161.905643,112.839232 161.867838,112.688536 161.751422,112.618291 C161.648808,112.555251 161.51619,112.579867 161.43998,112.669924 L147.618898,129.02194 C146.921603,129.846265 147.024217,131.081852 147.848129,131.778896 C148.672041,132.475339 149.905209,132.372674 150.603704,131.548349 C150.668513,131.470299 150.733322,131.379041 150.784329,131.294987" id="Fill-7" fill="#597EB1"></path>
                                    <path d="M150.265078,122.560684 C150.265078,122.560684 150.196669,122.157227 150.074852,121.448776 C150.067051,121.146784 149.793414,120.510378 149.577985,119.929808 C149.363155,119.267587 148.969502,118.818501 148.602252,118.197705 C147.789741,117.078592 146.701793,115.952875 145.454823,114.959843 C144.224056,113.925984 142.851669,112.989388 141.501485,112.043185 C140.148301,111.110791 138.808918,110.189204 137.617756,109.267017 C137.020075,108.808925 136.474601,108.338826 135.95613,107.889139 C135.492267,107.40403 134.968996,106.994569 134.628149,106.52447 C134.259099,106.072982 133.892449,105.671327 133.67882,105.254661 C133.447188,104.851204 133.186153,104.51559 133.102141,104.191984 C132.862709,103.565785 132.72529,103.210359 132.72529,103.210359 L132.687485,103.112497 C132.592672,102.86574 132.314834,102.739659 132.0658,102.83512 C131.827568,102.926378 131.703951,103.185743 131.774761,103.423495 C131.774761,103.423495 131.900178,103.843763 132.116807,104.579231 C132.197218,104.965277 132.448052,105.353724 132.679684,105.831629 C132.895113,106.328145 133.254562,106.792841 133.627213,107.324179 C133.979461,107.877732 134.48593,108.340627 134.957594,108.907988 C135.467664,109.421315 136.011338,109.965862 136.596417,110.488195 C137.764176,111.538864 139.059753,112.576325 140.334926,113.60598 C141.600498,114.638038 142.871472,115.654485 143.923415,116.684141 C145.013763,117.693384 145.850877,118.729044 146.417954,119.641024 C146.634584,120.101518 146.961628,120.552405 147.002434,120.870608 C147.083445,121.241644 147.260469,121.386336 147.260469,121.81681 C147.327078,122.532466 147.365483,122.941927 147.365483,122.941927 C147.441694,123.745239 148.152791,124.337216 148.9575,124.262768 C149.760409,124.188321 150.35269,123.476267 150.27828,122.671755 C150.274679,122.636933 150.268679,122.595506 150.265078,122.560684" id="Fill-9" fill="#597EB1"></path>
                                    <path d="M271.820868,50.470847 C271.702652,50.470847 271.589236,50.4870574 271.47222,50.4870574 C271.562832,49.4477954 271.630642,48.3989273 271.630642,47.3326482 C271.630642,27.9024723 255.887498,12.1514398 236.467054,12.1514398 C217.04661,12.1514398 201.302867,27.9024723 201.302867,47.3326482 C201.302867,48.4319484 201.368276,49.5126367 201.466689,50.5855201 C200.703985,50.5374895 199.944282,50.470847 199.170176,50.470847 C179.749132,50.470847 164.006589,66.2218795 164.006589,85.6520554 C164.006589,105.082231 179.749132,120.833264 199.170176,120.833264 C200.877409,120.833264 202.544436,120.669359 204.186859,120.433409 C208.982712,134.153948 222.000885,144.012228 237.352175,144.012228 C252.580448,144.012228 265.507408,134.310648 270.396874,120.760618 C270.872739,120.77983 271.339602,120.833264 271.820868,120.833264 C291.240712,120.833264 306.984455,105.082231 306.984455,85.6520554 C306.984455,66.2218795 291.240712,50.470847 271.820868,50.470847" id="Fill-11" fill="#FA7880"></path>
                                    <path d="M234.646286,129.276922 L229.352966,211.911155 C229.268954,213.046478 229.920643,213.966264 230.805764,213.966264 L244.579439,213.966264 C245.46636,213.966264 246.118048,213.046478 246.034637,211.911155 L240.743116,129.276922 C240.608698,128.140398 237.352055,85.6519354 237.352055,85.6519354 C235.990469,85.6519354 234.778904,128.140398 234.646286,129.276922" id="Fill-13" fill="#597EB1"></path>
                                    <path d="M238.34759,159.710546 L253.812296,123.994998 C253.908309,123.768654 254.167544,123.665388 254.393775,123.76385 C254.603203,123.855109 254.707018,124.091059 254.639208,124.302393 L242.965219,161.433044 C242.556563,162.732271 241.170975,163.454531 239.872398,163.045671 C238.571421,162.63621 237.849523,161.249927 238.259378,159.950699 C238.285182,159.869648 238.316386,159.787395 238.34759,159.710546" id="Fill-15" fill="#597EB1"></path>
                                    <path d="M235.204182,129.310303 L221.236081,106.128938 C221.146668,105.982445 221.194675,105.791523 221.341695,105.703267 C221.471313,105.623416 221.639936,105.655236 221.736549,105.768108 L239.206127,126.437473 C240.086447,127.479137 239.956829,129.040732 238.915688,129.921493 C237.873946,130.801653 236.315534,130.672571 235.432813,129.630307 C235.351202,129.531844 235.268991,129.415971 235.204182,129.310303" id="Fill-17" fill="#597EB1"></path>
                                    <path d="M235.861092,118.270652 C235.861092,118.270652 235.947504,117.760327 236.101124,116.865156 C236.111326,116.482713 236.456973,115.679401 236.72881,114.945133 C237.000647,114.1076 237.498715,113.540239 237.962578,112.755539 C238.989918,111.340437 240.365305,109.918732 241.94112,108.662732 C243.497131,107.355699 245.230767,106.172346 246.9386,104.975784 C248.648833,103.797833 250.341663,102.632491 251.847268,101.467749 C252.602171,100.88838 253.292265,100.294002 253.946954,99.7254394 C254.533234,99.1124489 255.195124,98.5949193 255.625383,98.0005407 C256.092246,97.4301774 256.555509,96.9222539 256.825546,96.3951182 C257.118986,95.8853935 257.448431,95.4621239 257.554045,95.0526631 C257.857086,94.2613591 258.02991,93.8116727 258.02991,93.8116727 L258.077917,93.6885943 C258.198533,93.375795 258.550181,93.2172941 258.864624,93.3373706 C259.165265,93.452644 259.321886,93.7798524 259.232474,94.080644 C259.232474,94.080644 259.074052,94.6125828 258.800415,95.5419748 C258.699001,96.0300857 258.381558,96.5205981 258.088118,97.1245828 C257.816281,97.7525828 257.361419,98.3397568 256.890355,99.0115847 C256.445694,99.7116306 255.805407,100.296403 255.208926,101.01326 C254.564438,101.662873 253.876745,102.350912 253.138644,103.010132 C251.661843,104.338778 250.02422,105.650013 248.412401,106.951642 C246.813183,108.255673 245.206764,109.541091 243.876383,110.84272 C242.499196,112.117933 241.440651,113.427367 240.724154,114.579501 C240.449316,115.161872 240.03586,115.731634 239.985453,116.133891 C239.881639,116.60339 239.658409,116.785906 239.658409,117.329852 C239.573797,118.234028 239.525791,118.752158 239.525791,118.752158 C239.429778,119.767405 238.530255,120.515481 237.513117,120.421822 C236.498379,120.328162 235.750077,119.428189 235.84429,118.40994 C235.84849,118.366713 235.856291,118.313879 235.861092,118.270652" id="Fill-19" fill="#597EB1"></path>
                                    <path d="M469.597054,77.3631759 C469.71467,77.3631759 469.828086,77.3799866 469.945702,77.3799866 C469.854489,76.3407247 469.78668,75.2918566 469.78668,74.2249771 C469.78668,54.7954015 485.530424,39.044369 504.950868,39.044369 C524.370712,39.044369 540.114455,54.7954015 540.114455,74.2249771 C540.114455,75.3248776 540.049046,76.405566 539.950633,77.4784493 C540.713337,77.4304187 541.47304,77.3631759 542.247145,77.3631759 C561.668189,77.3631759 577.411333,93.1142084 577.411333,112.544985 C577.411333,131.97456 561.668189,147.725593 542.247145,147.725593 C540.540513,147.725593 538.873486,147.562289 537.231062,147.326338 C532.435209,161.046878 519.416437,170.905157 504.065747,170.905157 C488.837474,170.905157 475.910514,161.202977 471.021048,147.653547 C470.544583,147.672759 470.07832,147.725593 469.597054,147.725593 C450.17661,147.725593 434.433467,131.97456 434.433467,112.544985 C434.433467,93.1142084 450.17661,77.3631759 469.597054,77.3631759" id="Fill-21" fill="#FA7880"></path>
                                    <path d="M506.771035,156.169251 L512.064956,238.803484 C512.148968,239.938807 511.497279,240.858593 510.612158,240.858593 L496.838483,240.858593 C495.951562,240.858593 495.299274,239.938807 495.383285,238.803484 L500.674805,156.169251 C500.809224,155.033327 504.065867,112.544865 504.065867,112.544865 C505.426852,112.544865 506.639017,155.033327 506.771035,156.169251" id="Fill-23" fill="#597EB1"></path>
                                    <path d="M503.069731,186.602875 L487.605626,150.887927 C487.509613,150.661583 487.250378,150.557717 487.024147,150.65678 C486.814718,150.748038 486.710904,150.983988 486.778713,151.195323 L498.452703,188.325973 C498.860758,189.6252 500.246347,190.34686 501.545524,189.9386 C502.846501,189.529139 503.567799,188.142856 503.158544,186.843629 C503.13214,186.761977 503.101536,186.680325 503.069731,186.602875" id="Fill-25" fill="#597EB1"></path>
                                    <path d="M506.21374,156.202632 L520.181841,133.021267 C520.270653,132.874774 520.222647,132.684452 520.076227,132.595596 C519.946009,132.516345 519.777986,132.547565 519.681373,132.660437 L502.211195,153.329802 C501.331475,154.371466 501.461092,155.933661 502.502234,156.814422 C503.543976,157.694582 505.101788,157.5649 505.985108,156.522636 C506.066719,156.424173 506.148931,156.3089 506.21374,156.202632" id="Fill-27" fill="#597EB1"></path>
                                    <path d="M505.55683,145.163581 C505.55683,145.163581 505.469818,144.652655 505.316797,143.758086 C505.306596,143.375042 504.960349,142.57173 504.688512,141.838063 C504.417275,140.999929 503.919207,140.432567 503.454744,139.647868 C502.428004,138.233367 501.052017,136.811061 499.476802,135.555061 C497.92079,134.248629 496.187154,133.064675 494.479322,131.868713 C492.769089,130.690162 491.076259,129.52542 489.570654,128.360678 C488.815751,127.780709 488.125057,127.186931 487.470968,126.618369 C486.884088,126.004778 486.222798,125.487849 485.791939,124.89287 C485.325676,124.323107 484.861812,123.815183 484.592376,123.288047 C484.298936,122.778323 483.969491,122.354453 483.863877,121.945592 C483.560835,121.154288 483.387412,120.704002 483.387412,120.704002 L483.339405,120.581524 C483.218789,120.268724 482.867741,120.110223 482.553298,120.2303 C482.252057,120.345573 482.096036,120.672782 482.184848,120.973573 C482.184848,120.973573 482.34327,121.505512 482.617507,122.434304 C482.718321,122.922415 483.036364,123.412927 483.329804,124.016912 C483.601641,124.645512 484.055903,125.232686 484.527567,125.903914 C484.972228,126.603959 485.611915,127.189332 486.208396,127.906189 C486.852884,128.555202 487.541177,129.243241 488.279278,129.903061 C489.756079,131.231107 491.393702,132.542942 493.004921,133.843971 C494.604139,135.148002 496.211158,136.43342 497.540939,137.735049 C498.918726,139.010262 499.97727,140.319696 500.693768,141.47243 C500.968605,142.0542 501.382062,142.624564 501.432469,143.02622 C501.535683,143.495719 501.759513,143.678235 501.759513,144.222782 C501.844125,145.126958 501.892131,145.644487 501.892131,145.644487 C501.988144,146.659734 502.887667,147.40781 503.904805,147.314151 C504.919543,147.220491 505.667845,146.320518 505.573632,145.302269 C505.569432,145.259042 505.561631,145.206208 505.55683,145.163581" id="Fill-29" fill="#597EB1"></path>
                                    <path d="M1326.45743,56.769579 C1326.36382,56.769579 1326.27441,56.7827874 1326.1814,56.7827874 C1326.25341,55.9602635 1326.30681,55.1311354 1326.30681,54.2869977 C1326.30681,38.9154069 1313.85152,26.4538696 1298.48763,26.4538696 C1283.12313,26.4538696 1270.66784,38.9154069 1270.66784,54.2869977 C1270.66784,55.1569518 1270.71884,56.0118964 1270.79686,56.8608371 C1270.19377,56.823013 1269.59249,56.769579 1268.98041,56.769579 C1253.61532,56.769579 1241.16002,69.2311163 1241.16002,84.6033075 C1241.16002,99.9754987 1253.61532,112.437036 1268.98041,112.437036 C1270.33119,112.437036 1271.64957,112.307353 1272.94935,112.120634 C1276.74306,122.975548 1287.04227,130.775116 1299.18792,130.775116 C1311.23576,130.775116 1321.46295,123.099227 1325.33108,112.379399 C1325.70733,112.394409 1326.07638,112.437036 1326.45743,112.437036 C1341.82193,112.437036 1354.27662,99.9754987 1354.27662,84.6033075 C1354.27662,69.2311163 1341.82193,56.769579 1326.45743,56.769579" id="Fill-31" fill="#E5204E"></path>
                                    <path d="M1297.04701,119.116711 L1292.85904,184.492951 C1292.79243,185.391124 1293.3085,186.118787 1294.0088,186.118787 L1304.90568,186.118787 C1305.60777,186.118787 1306.12324,185.391124 1306.05664,184.492951 L1301.87047,119.116711 C1301.76365,118.218538 1299.1875,84.6037277 1299.1875,84.6037277 C1298.11035,84.6037277 1297.15202,118.218538 1297.04701,119.116711" id="Fill-33" fill="#597EB1"></path>
                                    <path d="M1299.97535,143.194146 L1312.20981,114.938349 C1312.28602,114.759435 1312.49125,114.677183 1312.67008,114.755833 C1312.8357,114.827879 1312.91731,115.013997 1312.8645,115.182104 L1303.62865,144.557615 C1303.3052,145.58547 1302.20945,146.157034 1301.18151,145.833428 C1300.15237,145.509221 1299.58169,144.412322 1299.90514,143.384468 C1299.92554,143.320227 1299.95074,143.255385 1299.97535,143.194146" id="Fill-35" fill="#597EB1"></path>
                                    <path d="M1297.48825,119.143127 L1286.43714,100.803246 C1286.36694,100.687372 1286.40474,100.537276 1286.52116,100.467032 C1286.62377,100.403992 1286.75699,100.428607 1286.8332,100.518665 L1300.65428,116.87068 C1301.35098,117.695005 1301.24836,118.930592 1300.42445,119.627036 C1299.60054,120.32408 1298.36737,120.220814 1297.66947,119.396489 C1297.60406,119.318439 1297.53986,119.227181 1297.48825,119.143127" id="Fill-37" fill="#597EB1"></path>
                                    <path d="M1298.00804,110.409424 C1298.00804,110.409424 1298.07645,110.005967 1298.19767,109.297516 C1298.20547,108.995524 1298.4797,108.359119 1298.69513,107.778549 C1298.90996,107.116327 1299.30362,106.667241 1299.67087,106.045845 C1300.48338,104.926732 1301.57133,103.801616 1302.81829,102.807983 C1304.04846,101.774124 1305.42085,100.838128 1306.77163,99.891325 C1308.12422,98.9589312 1309.4642,98.0379446 1310.65476,97.1157572 C1311.25244,96.6576654 1311.79852,96.187566 1312.31639,95.7378795 C1312.78025,95.2527706 1313.30352,94.8427094 1313.64437,94.3726099 C1314.01342,93.9217228 1314.38067,93.5200669 1314.5937,93.1034015 C1314.82593,92.6993442 1315.08637,92.3643308 1315.17038,92.0407247 C1315.41041,91.4145258 1315.54723,91.0590994 1315.54723,91.0590994 L1315.58503,90.9612371 C1315.67985,90.7138795 1315.95768,90.5883996 1316.20732,90.6838604 C1316.44555,90.7751185 1316.56917,91.0338834 1316.49836,91.2716348 C1316.49836,91.2716348 1316.37294,91.6925029 1316.15571,92.4273709 C1316.0759,92.8134168 1315.82447,93.2024646 1315.59283,93.680369 C1315.3774,94.1768853 1315.01856,94.6409809 1314.64531,95.1723193 C1314.29306,95.7264723 1313.78719,96.1887667 1313.31552,96.7567285 C1312.80485,97.2700554 1312.26118,97.8146023 1311.6767,98.3363346 C1310.50834,99.3876042 1309.21277,100.424465 1307.93819,101.454721 C1306.67262,102.486778 1305.40165,103.502625 1304.3491,104.532881 C1303.25935,105.542124 1302.42164,106.577184 1301.85516,107.489164 C1301.63853,107.949658 1301.31089,108.401145 1301.27068,108.719348 C1301.18907,109.090384 1301.01205,109.235076 1301.01205,109.66495 C1300.94604,110.380606 1300.90763,110.790067 1300.90763,110.790067 C1300.83142,111.593979 1300.12033,112.185356 1299.31502,112.111509 C1298.51211,112.037061 1297.92043,111.325008 1297.99484,110.519895 C1297.99784,110.485673 1298.00384,110.444247 1298.00804,110.409424" id="Fill-39" fill="#597EB1"></path>
                                    <path d="M1176.45225,38.318987 C1176.56987,38.318987 1176.68328,38.3357977 1176.8009,38.3357977 C1176.70969,37.2965358 1176.64188,36.2476677 1176.64188,35.1813885 C1176.64188,15.7512126 1192.38562,0.000180114723 1211.80606,0.000180114723 C1231.22591,0.000180114723 1246.96965,15.7512126 1246.96965,35.1813885 C1246.96965,36.2806887 1246.90424,37.3613771 1246.80583,38.4342604 C1247.56853,38.3862298 1248.32824,38.318987 1249.10234,38.318987 C1268.52339,38.318987 1284.26653,54.0700195 1284.26653,73.5007958 C1284.26653,92.9303713 1268.52339,108.681404 1249.10234,108.681404 C1247.39571,108.681404 1245.72808,108.5181 1244.08566,108.28215 C1239.29041,122.002689 1226.27163,131.860968 1210.92034,131.860968 C1195.69267,131.860968 1182.76571,122.159389 1177.87564,108.609358 C1177.39978,108.62857 1176.93352,108.681404 1176.45225,108.681404 C1157.03181,108.681404 1141.28806,92.9303713 1141.28806,73.5007958 C1141.28806,54.0700195 1157.03181,38.318987 1176.45225,38.318987" id="Fill-41" fill="#FA7880"></path>
                                    <path d="M1213.62629,117.125002 L1218.91961,199.759836 C1219.00422,200.895159 1218.35254,201.814344 1217.46681,201.814344 L1203.69374,201.814344 C1202.80682,201.814344 1202.15453,200.895159 1202.23854,199.759836 L1207.53006,117.125002 C1207.66388,115.989078 1210.92052,73.5006157 1210.92052,73.5006157 C1212.28211,73.5006157 1213.49427,115.989078 1213.62629,117.125002" id="Fill-43" fill="#597EB1"></path>
                                    <path d="M1209.92499,147.558686 L1194.46088,111.843738 C1194.36487,111.617394 1194.10503,111.514128 1193.8794,111.612591 C1193.66937,111.703849 1193.56616,111.939799 1193.63397,112.151134 L1205.30796,149.281784 C1205.71601,150.581011 1207.1016,151.302671 1208.40078,150.894411 C1209.70176,150.48495 1210.42306,149.098667 1210.0138,147.79944 C1209.9874,147.717788 1209.95679,147.636136 1209.92499,147.558686" id="Fill-45" fill="#597EB1"></path>
                                    <path d="M1213.0684,117.158443 L1227.0365,93.9776784 C1227.12591,93.8311851 1227.0779,93.6402635 1226.93148,93.5514069 C1226.80127,93.4721564 1226.63264,93.5033763 1226.53603,93.6162482 L1209.06645,114.285613 C1208.18613,115.327877 1208.31635,116.889472 1209.35749,117.770233 C1210.39923,118.650393 1211.95704,118.521311 1212.83976,117.478447 C1212.92198,117.379984 1213.00359,117.264711 1213.0684,117.158443" id="Fill-47" fill="#597EB1"></path>
                                    <path d="M1212.41203,106.119392 C1212.41203,106.119392 1212.32501,105.608467 1212.17139,104.713897 C1212.16179,104.330853 1211.81555,103.527541 1211.54371,102.793874 C1211.27247,101.95574 1210.7744,101.388379 1210.30994,100.603679 C1209.2832,99.1891778 1207.90721,97.7668719 1206.332,96.5108719 C1204.77599,95.2044398 1203.04235,94.021086 1201.33452,92.8245239 C1199.62429,91.6459732 1197.93145,90.4812314 1196.42585,89.3164895 C1195.67095,88.7365201 1194.98025,88.1427419 1194.32616,87.5741797 C1193.73928,86.9611893 1193.07799,86.4436597 1192.64714,85.8486807 C1192.18087,85.2789178 1191.71701,84.7709943 1191.44697,84.2438585 C1191.15353,83.7341338 1190.82469,83.3108642 1190.71907,82.9014034 C1190.41603,82.1100994 1190.24261,81.6598126 1190.24261,81.6598126 L1190.1946,81.5373346 C1190.07399,81.2245354 1189.72294,81.0660344 1189.40789,81.1861109 C1189.10725,81.3013843 1188.95063,81.6285927 1189.04004,81.9293843 C1189.04004,81.9293843 1189.19847,82.4613231 1189.4727,83.3901147 C1189.57352,83.8782256 1189.89156,84.368738 1190.185,84.9727228 C1190.45624,85.6013231 1190.9111,86.1884971 1191.38216,86.8597247 C1191.82742,87.5597706 1192.46711,88.1451434 1193.06359,88.862 C1193.70808,89.5116138 1194.39637,90.1990516 1195.13447,90.8588719 C1196.61128,92.1869178 1198.2483,93.4987533 1199.86012,94.799782 C1201.45934,96.104413 1203.06635,97.3892314 1204.39613,98.6908604 C1205.77392,99.966673 1206.83247,101.275507 1207.54896,102.428241 C1207.8232,103.010011 1208.23666,103.580375 1208.28766,103.982031 C1208.39088,104.45153 1208.61471,104.634046 1208.61471,105.178593 C1208.69872,106.082769 1208.74673,106.600298 1208.74673,106.600298 C1208.84334,107.615545 1209.74226,108.363621 1210.7594,108.269962 C1211.77474,108.176302 1212.52304,107.276929 1212.42883,106.25808 C1212.42463,106.215453 1212.41683,106.16262 1212.41203,106.119392" id="Fill-49" fill="#597EB1"></path>
                                    <path d="M350.241704,170.430675 C350.241704,170.430675 355.632238,137.852724 394.849978,138.862567 C427.230986,139.696499 431.842014,154.102675 431.842014,154.102675 C431.842014,154.102675 444.848785,145.379719 462.306362,150.292648 C479.714732,155.190567 481.890628,172.607661 481.890628,172.607661 C481.890628,172.607661 496.578228,154.646621 516.162494,173.696154 C516.162494,173.696154 526.532506,161.652483 544.450945,172.607661 C554.242478,178.594675 550.28734,192.751091 550.28734,192.751091 C550.28734,192.751091 560.545737,187.325436 568.319795,194.693929 C573.590913,199.689711 572.204124,209.127122 568.042557,212.73542 C576.919566,213.290774 591.900606,244.099397 560.552338,244.099397 C560.552338,244.099397 337.399956,244.608522 293.665402,244.099397 C269.807353,243.822021 257.761313,208.529741 296.929246,203.087275 C296.929246,203.087275 293.665402,153.013581 350.241704,170.430675" id="Fill-51" fill="#F28555"></path>
                                    <path d="M134.287903,178.172306 C134.287903,178.172306 139.863862,144.475242 180.428785,145.519908 C213.922345,146.382057 218.691194,161.282948 218.691194,161.282948 C218.691194,161.282948 232.145026,152.261002 250.202084,157.342638 C268.208736,162.408665 270.459642,180.42434 270.459642,180.42434 C270.459642,180.42434 285.651911,161.846107 305.908869,181.550057 C305.908869,181.550057 316.635329,169.092722 335.168852,180.42434 C345.297631,186.616684 341.205674,201.259411 341.205674,201.259411 C341.205674,201.259411 351.816919,195.647036 359.858014,203.269491 C365.309756,208.436982 363.875561,218.198 359.571175,221.930577 C368.753625,222.504543 384.248934,254.372241 351.82352,254.372241 C351.82352,254.372241 121.003894,254.898776 75.7673355,254.372241 C51.0895757,254.084657 38.6300794,217.580807 79.1433951,211.951021 C79.1433951,211.951021 75.7673355,160.157231 134.287903,178.172306" id="Fill-53" fill="#F28555"></path>
                                    <path d="M1239.27744,170.430675 C1239.27744,170.430675 1244.66798,137.852724 1283.88572,138.862567 C1316.26673,139.696499 1320.87775,154.102675 1320.87775,154.102675 C1320.87775,154.102675 1333.88452,145.379719 1351.3421,150.292648 C1368.75047,155.190567 1370.92637,172.607661 1370.92637,172.607661 C1370.92637,172.607661 1385.61397,154.646621 1405.19823,173.696154 C1405.19823,173.696154 1415.56825,161.652483 1433.48668,172.607661 C1443.27822,178.594675 1439.32308,192.751091 1439.32308,192.751091 C1439.32308,192.751091 1449.58148,187.325436 1457.35553,194.693929 C1462.62665,199.689711 1461.23986,209.127122 1457.0777,212.73542 C1465.95531,213.290774 1480.93635,244.099397 1449.58808,244.099397 C1449.58808,244.099397 1226.4357,244.608522 1182.70114,244.099397 C1158.84309,243.822021 1146.79705,208.529741 1185.96499,203.087275 C1185.96499,203.087275 1182.70114,153.013581 1239.27744,170.430675" id="Fill-55" fill="#F28555"></path>
                                    <path d="M1016.28492,160.694933 C1016.28492,160.694933 1022.58098,122.647499 1068.38342,123.82665 C1106.20177,124.800471 1111.5869,141.624987 1111.5869,141.624987 C1111.5869,141.624987 1126.77797,131.438899 1147.16574,137.175553 C1167.49711,142.895997 1170.03906,163.237553 1170.03906,163.237553 C1170.03906,163.237553 1187.19359,142.260792 1210.06571,164.509163 C1210.06571,164.509163 1222.17716,150.442803 1243.1032,163.237553 C1254.53956,170.230207 1249.92013,186.762937 1249.92013,186.762937 C1249.92013,186.762937 1261.90136,180.426501 1270.9806,189.032383 C1277.13624,194.867499 1275.51662,205.888719 1270.65656,210.103404 C1281.02477,210.751216 1298.52075,246.733935 1261.90797,246.733935 C1261.90797,246.733935 1001.28648,247.328314 950.209328,246.733935 C922.344534,246.410329 908.276219,205.191675 954.021047,198.834826 C954.021047,198.834826 950.209328,140.353977 1016.28492,160.694933" id="Fill-57" fill="#F28555"></path>
                                    <path d="M297.503704,225.997087 C297.503704,225.997087 287.494342,205.745588 270.565437,197.982644 C257.177014,191.842533 227.664396,195.833275 224.718595,207.156487 C224.718595,207.156487 207.79029,190.219699 178.871153,197.276594 C153.267467,203.524173 148.598231,225.997087 148.598231,225.997087 C148.598231,225.997087 143.323513,220.42734 133.068717,222.772433 C133.068717,222.772433 116.951723,215.736552 106.110647,225.410514 C95.2683705,235.085676 95.2683705,243.000517 95.2683705,243.000517 C95.2683705,243.000517 84.4332953,237.269867 76.2223775,245.053225 C70.6548194,250.329986 72.1196189,260.298135 76.5152173,264.108762 C67.1383407,264.695336 51.3153864,297.236663 84.4266944,297.236663 C84.4266944,297.236663 257.171013,297.774605 303.364702,297.236663 C328.563933,296.943676 335.010611,266.747443 320.359616,256.19332 C320.359616,256.19332 327.098533,229.514728 297.503704,225.997087" id="Fill-59" fill="#F3AB55"></path>
                                    <path d="M1331.84119,225.997087 C1331.84119,225.997087 1321.83122,205.745588 1304.90292,197.982644 C1291.5145,191.842533 1262.00188,195.833275 1259.05548,207.156487 C1259.05548,207.156487 1242.12717,190.219699 1213.20803,197.276594 C1187.60495,203.524173 1182.93511,225.997087 1182.93511,225.997087 C1182.93511,225.997087 1177.661,220.42734 1167.4056,222.772433 C1167.4056,222.772433 1151.2892,215.736552 1140.44753,225.410514 C1129.60525,235.085676 1129.60525,243.000517 1129.60525,243.000517 C1129.60525,243.000517 1118.77078,237.269867 1110.55926,245.053225 C1104.9923,250.329986 1106.4571,260.298135 1110.8521,264.108762 C1101.47522,264.695336 1085.65227,297.236663 1118.76418,297.236663 C1118.76418,297.236663 1291.50789,297.774605 1337.70158,297.236663 C1362.90141,296.943676 1369.34749,266.747443 1354.6965,256.19332 C1354.6965,256.19332 1361.43602,229.514728 1331.84119,225.997087" id="Fill-61" fill="#F3AB55"></path>
                                    <path d="M502.432745,213.164514 C502.432745,213.164514 493.980594,176.623439 458.62318,177.533619 C429.429206,178.285298 415.599123,193.895841 415.599123,193.895841 C415.599123,193.895841 403.843522,185.387221 389.587381,193.395122 C375.33064,201.403022 375.33064,213.164514 375.33064,213.164514 C375.33064,213.164514 370.828227,208.409485 362.074835,210.41176 C362.074835,210.41176 348.318563,204.406135 339.064103,212.663795 C329.809643,220.922055 329.809643,227.678158 329.809643,227.678158 C329.809643,227.678158 320.561183,222.786842 313.552229,229.430074 C308.800182,233.934743 310.050752,242.442762 313.802463,245.695634 C305.798574,246.196353 292.291935,273.972445 320.555183,273.972445 C320.555183,273.972445 468.006058,274.431737 507.435026,273.972445 C528.944954,273.722686 534.447703,247.948269 521.942001,238.939531 C521.942001,238.939531 527.694384,216.167026 502.432745,213.164514" id="Fill-63" fill="#F3AB55"></path>
                                    <path d="M179.133448,252.868283 C179.133448,252.868283 172.194104,228.785743 195.397463,222.06026 C219.716974,215.009969 228.142121,236.162642 228.142121,236.162642 C228.142121,236.162642 238.334509,228.785743 250.694991,235.728566 C263.056074,242.671388 263.056074,252.868283 263.056074,252.868283 C263.056074,252.868283 266.959006,248.746057 274.548839,250.481763 C274.548839,250.481763 286.476063,245.275246 294.499755,252.434206 C302.523448,259.594367 302.523448,265.452298 302.523448,265.452298 C302.523448,265.452298 310.541739,261.211197 316.618767,266.970665 C320.739528,270.876153 319.65458,278.253051 316.402137,281.073648 C323.340882,281.507724 335.051476,305.590263 310.54654,305.590263 C310.54654,305.590263 208.982112,305.988317 174.796058,305.590263 C156.146719,305.373525 151.376069,283.026091 162.218946,275.215717 C162.218946,275.215717 157.231067,255.472141 179.133448,252.868283" id="Fill-65" fill="#FFD974"></path>
                                    <g id="Group-69" transform="translate(0.000000, 220.470627)">
                                        <mask id="mask-16" fill="white">
                                            <use xlink:href="#path-15"></use>
                                        </mask>
                                        <g id="Clip-68"></g>
                                        <path d="M22.6364019,32.3976554 C22.6364019,32.3976554 15.6976572,8.31511625 38.9010163,1.5896325 C63.2205273,-5.46065813 71.6456743,15.6920149 71.6456743,15.6920149 C71.6456743,15.6920149 81.8374619,8.31511625 94.1985449,15.2579384 C106.559628,22.2007606 106.559628,32.3976554 106.559628,32.3976554 C106.559628,32.3976554 110.462559,28.2754298 118.052392,30.0111354 C118.052392,30.0111354 129.979616,24.8046191 138.003309,31.963579 C146.026401,39.1237396 146.026401,44.9816707 146.026401,44.9816707 C146.026401,44.9816707 154.045293,40.7405694 160.12232,46.5000379 C164.242481,50.4055254 163.158133,57.7824241 159.905091,60.6030207 C166.844435,61.0370971 178.55503,85.1196363 154.050093,85.1196363 C154.050093,85.1196363 52.4856658,85.5176899 18.2996114,85.1196363 C-0.350327696,84.9028983 -5.12097721,62.5554642 5.72189902,54.7450895 C5.72189902,54.7450895 0.734620016,35.001514 22.6364019,32.3976554" id="Fill-67" fill="#FFD974" mask="url(#mask-16)"></path>
                                    </g>
                                    <g id="Group-72" transform="translate(1159.357843, 228.275598)">
                                        <mask id="mask-18" fill="white">
                                            <use xlink:href="#path-17"></use>
                                        </mask>
                                        <g id="Clip-71"></g>
                                        <path d="M23.0770419,32.3554486 C23.0770419,32.3554486 16.1382972,8.27290937 39.3416563,1.54742562 C63.6611673,-5.50286501 72.0863143,15.649808 72.0863143,15.649808 C72.0863143,15.649808 82.2781019,8.27290937 94.6391848,15.2151312 C107.000268,22.1585537 107.000268,32.3554486 107.000268,32.3554486 C107.000268,32.3554486 110.902599,28.2332229 118.493032,29.9689285 C118.493032,29.9689285 130.420256,24.7624122 138.443949,31.9213721 C146.467041,39.0815327 146.467041,44.9394639 146.467041,44.9394639 C146.467041,44.9394639 154.485933,40.6983625 160.56236,46.457831 C164.683121,50.3633185 163.598773,57.7402172 160.345731,60.5608138 C167.285075,60.9942899 178.99507,85.0774294 154.490733,85.0774294 C154.490733,85.0774294 52.9257057,85.475483 18.7396513,85.0774294 C0.0903122958,84.8606914 -4.68033721,62.5132574 6.16253901,54.7028826 C6.16253901,54.7028826 1.17526001,34.9593071 23.0770419,32.3554486" id="Fill-70" fill="#FFD974" mask="url(#mask-18)"></path>
                                    </g>
                                    <path d="M508.973275,243.147251 C508.973275,243.147251 502.03393,219.064712 525.23729,212.338628 C549.557401,205.288937 557.982548,226.44101 557.982548,226.44101 C557.982548,226.44101 568.174335,219.064712 580.534818,226.006933 C592.895901,232.950356 592.895901,243.147251 592.895901,243.147251 C592.895901,243.147251 596.798832,239.025025 604.389266,240.76013 C604.389266,240.76013 616.31589,235.553614 624.339582,242.713174 C632.363274,249.872735 632.363274,255.731266 632.363274,255.731266 C632.363274,255.731266 640.381566,251.490165 646.458593,257.249633 C650.579354,261.155121 649.495007,268.531419 646.241964,271.352616 C653.180709,271.786092 664.891303,295.868631 640.386967,295.868631 C640.386967,295.868631 538.821939,296.267285 504.635885,295.868631 C485.986546,295.651893 481.215896,273.304459 492.058772,265.494685 C492.058772,265.494685 487.070893,245.750509 508.973275,243.147251" id="Fill-73" fill="#FFD974"></path>
                                    <path d="M471.484611,240.871802 C471.484611,240.871802 464.156414,209.189622 433.50124,209.979125 C408.189194,210.63114 396.198361,224.165561 396.198361,224.165561 C396.198361,224.165561 386.006574,216.788662 373.646091,223.731484 C361.285008,230.674306 361.285008,240.871802 361.285008,240.871802 C361.285008,240.871802 357.381476,236.749576 349.791643,238.484681 C349.791643,238.484681 337.865019,233.278165 329.841327,240.437725 C321.817635,247.597285 321.817635,253.455216 321.817635,253.455216 C321.817635,253.455216 313.799343,249.214715 307.722315,254.974184 C303.601554,258.879672 304.685902,266.25597 307.938945,269.077167 C300.9996,269.510643 289.289606,293.593182 313.793942,293.593182 C313.793942,293.593182 441.635947,293.991236 475.822002,293.593182 C494.471341,293.376444 499.24199,271.02901 488.399114,263.219236 C488.399114,263.219236 493.386993,243.47506 471.484611,240.871802" id="Fill-75" fill="#FFD974"></path>
                                </g>
                            </g>
                        </g>
                    </g>
                </g>
            </g>
        </g>
    </g>
</svg>