<svg xmlns="http://www.w3.org/2000/svg" xmlns:xlink="http://www.w3.org/1999/xlink" width="883" height="434" viewBox="0 0 883 434">
    <defs>
        <path id="prefix__a" d="M0.089 0.085L203.51 0.085 203.51 138.84 0.089 138.84z"/>
        <path id="prefix__c" d="M0 0.148L251.815 0.148 251.815 134.431 0 134.431z"/>
        <path id="prefix__e" d="M0 0.09L101.39 0.09 101.39 51.069 0 51.069z"/>
        <path id="prefix__g" d="M0.264 0.065L101.654 0.065 101.654 51.044 0.264 51.044z"/>
    </defs>
    <g fill="none" fill-rule="evenodd">
        <g>
            <g transform="translate(253 8) translate(171.335 .097)">
                <mask id="prefix__b" fill="#fff">
                    <use xlink:href="#prefix__a"/>
                </mask>
                <path fill="#FFF" d="M203.51 3.662S162.46-12.2 142.664 22.879c0 0-24.026-5.794-32.639 9.542 0 0-27.353-2.276-26.636 22.923 0 0-24.264.207-21.78 27.231 0 0-39.097-7.525-42.728 24.764 0 0-21.902.267-18.416 17.384l4.854 13.853 198.191.264V3.662z" mask="url(#prefix__b)"/>
            </g>
            <g transform="translate(253 8) translate(0 12.484)">
                <mask id="prefix__d" fill="#fff">
                    <use xlink:href="#prefix__c"/>
                </mask>
                <path fill="#FFF" d="M226.967 86.665c-12.364-6.527-25.091-6.89-30.902-4.385-4.982-7.026-11.826-8.03-11.826-8.03s2.87-9.827-8.591-16.062c-11.073-6.023-20.13 1.339-20.13 1.339s.669-10.373-7.384-15.392c-8.446-5.264-19.646.669-19.646.669s6.115-21.237-11.703-36.105c-15.451-12.893-39.03-9.549-46.69-.873C59.725-.58 37.448.131 26.846 17.282c0 0-21.333-3.143-21.575 16.922 0 0-4.606-1.208-5.091.968-.485 2.175.164 99.26.164 99.26h57.212l193.774-.262.485-22.444s-9.389-16.899-24.848-25.06" mask="url(#prefix__d)"/>
            </g>
        </g>
        <path fill="#E5204E" d="M73.14 41.265c.055 0 .11.008.165.008-.044-.492-.076-.99-.076-1.494 0-9.204 7.479-16.665 16.704-16.665 9.224 0 16.703 7.46 16.703 16.665 0 .52-.031 1.032-.078 1.54.362-.022.723-.054 1.09-.054 9.226 0 16.704 7.461 16.704 16.664 0 9.204-7.478 16.665-16.703 16.665-.811 0-1.603-.077-2.383-.19-2.278 6.5-8.462 11.17-15.754 11.17-7.234 0-13.374-4.596-15.697-11.014-.226.01-.447.034-.676.034-9.225 0-16.703-7.46-16.703-16.665 0-9.203 7.478-16.664 16.703-16.664"/>
        <path fill="#597EB1" d="M90.797 78.594l2.515 39.142c.04.538-.27.973-.69.973h-6.543c-.421 0-.731-.435-.691-.973l2.513-39.142c.064-.538 1.611-20.664 1.611-20.664.647 0 1.222 20.126 1.285 20.664"/>
        <path fill="#597EB1" d="M89.04 93.01l-7.347-16.918c-.045-.107-.168-.156-.276-.11-.1.044-.149.156-.116.256l5.545 17.588c.194.615.852.957 1.469.764.618-.195.96-.85.766-1.466-.012-.04-.027-.078-.042-.114M90.532 78.61l6.635-10.98c.043-.07.02-.16-.05-.202-.062-.038-.141-.023-.187.03l-8.298 9.79c-.419.494-.357 1.234.137 1.651.495.417 1.235.356 1.655-.138.039-.046.078-.1.108-.151M90.22 73.38s-.04-.241-.114-.665c-.004-.181-.169-.562-.298-.91-.13-.396-.365-.665-.586-1.037-.488-.67-1.141-1.344-1.89-1.939-.739-.619-1.563-1.18-2.373-1.746-.813-.558-1.617-1.11-2.332-1.662-.359-.274-.686-.556-.998-.825-.278-.29-.592-.536-.797-.817-.222-.27-.442-.51-.57-.76-.14-.242-.296-.443-.346-.637l-.227-.587-.022-.059c-.057-.148-.224-.223-.374-.166-.143.055-.217.21-.174.352l.205.692c.048.231.199.464.338.75.13.297.345.576.569.894.211.331.515.608.799.948.306.307.632.633.984.946.7.63 1.479 1.25 2.244 1.867.76.618 1.523 1.226 2.155 1.843.654.604 1.157 1.224 1.498 1.77.13.276.326.546.35.736.05.223.155.31.155.567l.063.674c.046.48.473.835.956.79.482-.044.838-.47.793-.952l-.008-.067"/>
        <path fill="#FA7880" d="M163.204 30.218c-.071 0-.14.01-.21.01.055-.622.095-1.25.095-1.889 0-11.633-9.452-21.064-21.112-21.064-11.66 0-21.113 9.43-21.113 21.064 0 .658.04 1.306.098 1.948-.458-.029-.914-.069-1.379-.069-11.66 0-21.112 9.43-21.112 21.064 0 11.633 9.452 21.064 21.112 21.064 1.025 0 2.026-.098 3.013-.24 2.879 8.215 10.695 14.118 19.912 14.118 9.143 0 16.905-5.809 19.84-13.921.286.011.567.043.856.043 11.66 0 21.112-9.43 21.112-21.064 0-11.633-9.453-21.064-21.112-21.064"/>
        <path fill="#597EB1" d="M140.884 77.401l-3.179 49.476c-.05.68.341 1.23.873 1.23h8.27c.532 0 .923-.55.873-1.23L144.544 77.4c-.08-.68-2.036-26.119-2.036-26.119-.817 0-1.545 25.439-1.624 26.12"/>
        <path fill="#597EB1" d="M143.106 95.623l9.285-21.384c.058-.135.213-.197.35-.138.125.054.187.196.147.322l-7.01 22.231c-.245.778-1.077 1.21-1.857.966-.78-.245-1.214-1.075-.968-1.853.015-.049.034-.098.053-.144M141.219 77.421l-8.387-13.879c-.054-.088-.025-.202.063-.255.078-.048.18-.028.237.04l10.49 12.374c.528.624.45 1.56-.175 2.086-.625.527-1.561.45-2.091-.174-.05-.059-.099-.128-.137-.192M141.613 70.812l.144-.842c.006-.229.214-.71.377-1.15.163-.5.462-.84.74-1.31.618-.848 1.443-1.699 2.39-2.45.934-.783 1.975-1.492 3-2.208 1.027-.706 2.043-1.403 2.947-2.1.453-.347.868-.703 1.26-1.044.353-.367.75-.677 1.009-1.033.28-.341.558-.645.72-.96.176-.306.374-.56.438-.804l.285-.744.03-.073c.072-.187.283-.282.472-.21.18.069.274.264.22.445l-.259.874c-.06.293-.252.586-.428.948-.163.376-.436.728-.719 1.13-.267.419-.651.77-1.01 1.198-.386.39-.8.801-1.242 1.196-.887.795-1.87 1.58-2.838 2.36-.96.78-1.925 1.55-2.724 2.33-.826.763-1.462 1.547-1.892 2.237-.165.348-.413.69-.444.93-.062.281-.196.39-.196.716l-.08.852c-.057.608-.597 1.056-1.208 1-.61-.056-1.059-.595-1.002-1.205.002-.026.007-.057.01-.083"/>
        <path fill="#FA7880" d="M281.95 46.32c.07 0 .139.01.21.01-.055-.623-.096-1.25-.096-1.89 0-11.633 9.453-21.063 21.113-21.063s21.112 9.43 21.112 21.063c0 .659-.039 1.306-.098 1.948.458-.028.914-.069 1.379-.069 11.66 0 21.113 9.43 21.113 21.065 0 11.633-9.453 21.063-21.113 21.063-1.025 0-2.026-.098-3.012-.239-2.88 8.215-10.696 14.117-19.913 14.117-9.143 0-16.904-5.809-19.84-13.921-.286.012-.566.043-.855.043-11.66 0-21.112-9.43-21.112-21.063 0-11.634 9.452-21.065 21.112-21.065"/>
        <path fill="#597EB1" d="M304.27 93.503l3.178 49.475c.05.68-.34 1.23-.872 1.23h-8.27c-.532 0-.924-.55-.874-1.23l3.177-49.475c.081-.68 2.036-26.12 2.036-26.12.818 0 1.545 25.44 1.625 26.12"/>
        <path fill="#597EB1" d="M302.047 111.724l-9.284-21.383c-.058-.136-.214-.198-.35-.139-.125.055-.188.196-.147.323l7.01 22.23c.244.779 1.076 1.21 1.856.966.781-.245 1.214-1.075.969-1.853-.016-.049-.035-.098-.054-.144M303.935 93.523l8.387-13.88c.053-.087.024-.201-.064-.255-.078-.047-.179-.028-.237.04l-10.49 12.375c-.527.623-.45 1.559.176 2.086.625.527 1.56.45 2.09-.175.05-.059.1-.128.138-.191M303.54 86.913l-.144-.841c-.006-.23-.214-.71-.377-1.15-.163-.502-.462-.841-.74-1.311-.617-.847-1.443-1.699-2.389-2.45-.934-.783-1.975-1.492-3-2.208-1.027-.705-2.044-1.403-2.948-2.1-.453-.347-.868-.703-1.26-1.043-.353-.368-.75-.677-1.008-1.033-.28-.342-.559-.646-.72-.961-.177-.305-.375-.56-.438-.804l-.286-.743-.029-.074c-.072-.187-.283-.282-.472-.21-.18.069-.274.265-.221.445l.26.875c.06.292.251.586.427.947.164.377.436.728.72 1.13.266.42.65.77 1.009 1.199.387.388.8.8 1.243 1.195.887.795 1.87 1.58 2.837 2.36.96.78 1.925 1.55 2.724 2.33.827.763 1.463 1.547 1.893 2.237.165.349.413.69.443.93.062.282.197.39.197.717l.08.851c.057.608.597 1.056 1.208 1 .609-.056 1.058-.595 1.002-1.205-.003-.026-.008-.057-.01-.083"/>
        <path fill="#E5204E" d="M796.416 33.99c-.056 0-.11.007-.165.007.043-.492.075-.989.075-1.494 0-9.203-7.478-16.664-16.703-16.664s-16.703 7.46-16.703 16.664c0 .52.03 1.033.077 1.541-.362-.023-.723-.055-1.09-.055-9.226 0-16.704 7.461-16.704 16.665 0 9.204 7.478 16.665 16.704 16.665.81 0 1.602-.078 2.383-.19 2.277 6.5 8.461 11.17 15.753 11.17 7.234 0 13.375-4.596 15.697-11.015.226.01.447.035.676.035 9.225 0 16.703-7.461 16.703-16.665 0-9.204-7.478-16.665-16.703-16.665"/>
        <path fill="#597EB1" d="M778.758 71.318l-2.515 39.143c-.04.538.27.973.69.973h6.543c.422 0 .731-.435.691-.973l-2.513-39.143c-.064-.537-1.61-20.664-1.61-20.664-.648 0-1.223 20.127-1.286 20.664"/>
        <path fill="#597EB1" d="M780.516 85.734l7.346-16.917c.046-.108.169-.157.276-.11.1.043.149.155.117.256L782.71 86.55c-.195.616-.852.958-1.47.764-.618-.194-.96-.85-.766-1.466.012-.038.027-.077.042-.114M779.023 71.334l-6.635-10.98c-.042-.07-.02-.16.05-.202.062-.038.142-.023.188.031l8.298 9.79c.418.494.356 1.234-.138 1.65-.495.418-1.235.356-1.654-.137-.04-.047-.078-.102-.11-.152M779.335 66.105l.114-.666c.005-.18.17-.562.299-.91.129-.396.365-.665.585-1.037.488-.67 1.141-1.343 1.89-1.938.739-.62 1.563-1.18 2.374-1.746.812-.559 1.616-1.11 2.331-1.662.359-.275.687-.556.998-.825.278-.29.593-.536.797-.818.222-.27.442-.51.57-.76.14-.241.296-.442.346-.636l.227-.588.022-.058c.057-.148.224-.223.374-.166.143.054.217.21.175.352l-.206.692c-.048.23-.199.464-.338.75-.13.297-.345.575-.569.893-.211.332-.515.609-.798.949-.307.307-.633.633-.984.946-.702.629-1.48 1.25-2.245 1.867-.76.618-1.523 1.226-2.155 1.843-.654.604-1.157 1.224-1.497 1.77-.13.275-.327.546-.351.736-.05.222-.155.309-.155.566l-.063.674c-.046.481-.473.835-.956.791-.482-.044-.838-.47-.793-.953l.008-.066"/>
        <path fill="#FA7880" d="M706.352 22.943c.07 0 .139.01.21.01-.056-.623-.096-1.25-.096-1.889C706.466 9.431 715.918 0 727.579 0c11.66 0 21.112 9.43 21.112 21.064 0 .658-.04 1.305-.098 1.948.458-.03.914-.07 1.379-.07 11.66 0 21.112 9.431 21.112 21.065 0 11.633-9.452 21.063-21.112 21.063-1.025 0-2.026-.097-3.012-.239-2.88 8.215-10.696 14.118-19.913 14.118-9.143 0-16.904-5.809-19.84-13.922-.286.012-.566.043-.855.043-11.66 0-21.113-9.43-21.113-21.063 0-11.634 9.453-21.064 21.113-21.064"/>
        <path fill="#597EB1" d="M728.671 70.126l3.179 49.475c.05.68-.34 1.23-.873 1.23h-8.27c-.532 0-.923-.55-.873-1.23l3.177-49.475c.08-.68 2.036-26.12 2.036-26.12.817 0 1.545 25.44 1.624 26.12"/>
        <path fill="#597EB1" d="M726.45 88.347l-9.286-21.383c-.057-.136-.213-.198-.349-.139-.126.055-.188.196-.147.323l7.01 22.23c.244.779 1.076 1.21 1.856.966.781-.245 1.214-1.075.968-1.853-.015-.049-.034-.097-.053-.144M728.337 70.146l8.386-13.88c.054-.087.025-.201-.063-.254-.078-.048-.18-.03-.237.038l-10.49 12.376c-.528.624-.45 1.559.175 2.086.626.527 1.561.45 2.091-.175.05-.059.099-.128.138-.191M727.942 63.536l-.144-.841c-.006-.23-.214-.71-.377-1.15-.163-.501-.462-.841-.74-1.311-.617-.847-1.443-1.698-2.39-2.45-.933-.783-1.974-1.491-3-2.208-1.026-.705-2.043-1.403-2.947-2.1-.453-.347-.868-.703-1.26-1.043-.353-.367-.75-.677-1.009-1.033-.28-.341-.558-.645-.72-.961-.176-.305-.374-.559-.437-.804l-.286-.743-.03-.073c-.072-.188-.282-.283-.471-.21-.181.068-.275.264-.221.444l.26.875c.06.292.25.586.427.947.163.377.436.728.719 1.13.267.42.651.77 1.01 1.199.386.389.8.8 1.243 1.196.887.795 1.87 1.58 2.837 2.36.96.78 1.925 1.55 2.724 2.329.827.764 1.462 1.547 1.893 2.237.164.349.412.69.443.93.062.282.196.391.196.717l.08.851c.058.608.597 1.056 1.208 1 .61-.056 1.06-.595 1.003-1.205-.003-.025-.008-.057-.01-.083"/>
        <path fill="#F28555" d="M210.288 102.041s3.237-19.505 26.783-18.9c19.442.499 22.21 9.124 22.21 9.124s7.81-5.222 18.292-2.28c10.452 2.932 11.758 13.36 11.758 13.36s8.819-10.754 20.577.651c0 0 6.227-7.21 16.985-.651 5.879 3.584 3.504 12.06 3.504 12.06s6.16-3.248 10.827 1.163c3.165 2.991 2.332 8.642-.166 10.802 5.33.333 14.324 18.779-4.498 18.779 0 0-133.982.305-160.24 0-14.325-.166-21.558-21.297 1.959-24.555 0 0-1.96-29.98 32.01-19.553"/>
        <path fill="#F28555" d="M80.628 106.676s3.347-20.175 27.703-19.55c20.11.517 22.973 9.438 22.973 9.438s8.078-5.401 18.92-2.359c10.81 3.033 12.162 13.82 12.162 13.82s9.122-11.124 21.284.674c0 0 6.44-7.459 17.568-.674 6.082 3.707 3.625 12.474 3.625 12.474s6.37-3.36 11.199 1.204c3.273 3.094 2.412 8.938-.172 11.173 5.513.343 14.816 19.423-4.652 19.423 0 0-138.586.316-165.747 0-14.816-.172-22.297-22.028 2.027-25.398 0 0-2.027-31.01 33.11-20.225M744.073 102.041s3.236-19.505 26.783-18.9c19.442.499 22.21 9.124 22.21 9.124s7.81-5.222 18.291-2.28c10.452 2.932 11.759 13.36 11.759 13.36s8.818-10.754 20.577.651c0 0 6.226-7.21 16.985-.651 5.878 3.584 3.504 12.06 3.504 12.06s6.159-3.248 10.827 1.163c3.164 2.991 2.332 8.642-.167 10.802 5.33.333 14.325 18.779-4.497 18.779 0 0-133.983.305-160.241 0-14.325-.166-21.557-21.297 1.96-24.555 0 0-1.96-29.98 32.009-19.553"/>
        <path fill="#F28555" d="M610.186 96.212s3.78-22.78 31.28-22.074c22.707.583 25.94 10.657 25.94 10.657s9.121-6.1 21.362-2.664c12.207 3.425 13.733 15.604 13.733 15.604s10.3-12.56 24.033.76c0 0 7.271-8.421 19.836-.76 6.866 4.186 4.093 14.085 4.093 14.085s7.193-3.794 12.644 1.359c3.696 3.493 2.724 10.092-.194 12.615 6.225.388 16.73 21.932-5.253 21.932 0 0-156.48.356-187.146 0-16.73-.194-25.177-24.872 2.288-28.678 0 0-2.288-35.014 37.384-22.836"/>
        <path fill="#F3AB55" d="M178.624 135.31s-6.01-12.125-16.174-16.773c-8.039-3.676-25.758-1.287-27.527 5.493 0 0-10.164-10.14-27.527-5.915-15.373 3.74-18.176 17.195-18.176 17.195s-3.167-3.334-9.324-1.93c0 0-9.677-4.213-16.186 1.58-6.51 5.792-6.51 10.53-6.51 10.53s-6.506-3.43-11.435 1.23c-3.343 3.16-2.464 9.127.175 11.409-5.63.351-15.13 19.834 4.75 19.834 0 0 103.718.322 131.453 0 15.13-.175 19-18.254 10.204-24.573 0 0 4.046-15.974-13.723-18.08M799.649 135.31s-6.01-12.125-16.174-16.773c-8.039-3.676-25.758-1.287-27.527 5.493 0 0-10.164-10.14-27.528-5.915-15.372 3.74-18.176 17.195-18.176 17.195s-3.166-3.334-9.324-1.93c0 0-9.676-4.213-16.186 1.58-6.51 5.792-6.51 10.53-6.51 10.53s-6.505-3.43-11.435 1.23c-3.342 3.16-2.463 9.127.176 11.409-5.63.351-15.13 19.834 4.75 19.834 0 0 103.717.322 131.452 0 15.13-.175 19-18.254 10.204-24.573 0 0 4.047-15.974-13.722-18.08"/>
        <path fill="#F3AB55" d="M301.665 127.627s-5.075-21.878-26.304-21.333c-17.528.45-25.832 9.797-25.832 9.797s-7.058-5.095-15.617-.3c-8.56 4.794-8.56 11.836-8.56 11.836s-2.704-2.847-7.96-1.648c0 0-8.259-3.596-13.815 1.348-5.557 4.945-5.557 8.99-5.557 8.99s-5.552-2.929-9.76 1.049c-2.854 2.697-2.103 7.79.15 9.738-4.806.3-12.915 16.93 4.054 16.93 0 0 88.53.275 112.204 0 12.915-.15 16.219-15.58 8.71-20.975 0 0 3.454-13.634-11.713-15.432"/>
        <path fill="#FFD974" d="M107.553 151.399s-4.166-14.419 9.765-18.446c14.602-4.22 19.66 8.444 19.66 8.444s6.12-4.417 13.541-.26c7.422 4.157 7.422 10.262 7.422 10.262s2.343-2.468 6.9-1.429c0 0 7.162-3.117 11.98 1.169 4.817 4.287 4.817 7.794 4.817 7.794s4.814-2.539 8.463.91c2.474 2.338 1.822 6.754-.13 8.443 4.166.26 11.197 14.679-3.516 14.679 0 0-60.98.238-81.506 0-11.197-.13-14.062-13.51-7.551-18.186 0 0-2.995-11.821 10.155-13.38"/>
        <g transform="translate(0 132.002)">
            <mask id="prefix__f" fill="#fff">
                <use xlink:href="#prefix__e"/>
            </mask>
            <path fill="#FFD974" d="M13.591 19.397S9.425 4.978 23.356.952c14.602-4.221 19.66 8.443 19.66 8.443s6.12-4.417 13.542-.26c7.421 4.157 7.421 10.262 7.421 10.262s2.344-2.468 6.9-1.429c0 0 7.162-3.117 11.98 1.17 4.816 4.286 4.816 7.794 4.816 7.794s4.815-2.54 8.464.909c2.474 2.338 1.823 6.755-.13 8.444 4.166.26 11.197 14.678-3.516 14.678 0 0-60.98.239-81.506 0-11.197-.13-14.062-13.51-7.552-18.186 0 0-2.994-11.82 10.156-13.38" mask="url(#prefix__f)"/>
        </g>
        <g transform="translate(696.088 136.675)">
            <mask id="prefix__h" fill="#fff">
                <use xlink:href="#prefix__g"/>
            </mask>
            <path fill="#FFD974" d="M13.856 19.372S9.69 4.953 23.62.926c14.602-4.22 19.66 8.444 19.66 8.444s6.12-4.417 13.541-.26c7.422 4.157 7.422 10.262 7.422 10.262s2.343-2.468 6.9-1.429c0 0 7.161-3.117 11.979 1.17 4.817 4.286 4.817 7.793 4.817 7.793s4.815-2.539 8.463.91c2.474 2.338 1.823 6.755-.13 8.443 4.166.26 11.197 14.68-3.515 14.68 0 0-60.981.237-81.507 0C.054 50.808-2.81 37.428 3.7 32.751c0 0-2.994-11.82 10.156-13.38" mask="url(#prefix__h)"/>
        </g>
        <path fill="#FFD974" d="M305.592 145.579s-4.167-14.42 9.765-18.446c14.602-4.221 19.66 8.443 19.66 8.443s6.12-4.416 13.541-.26c7.422 4.157 7.422 10.263 7.422 10.263s2.343-2.468 6.9-1.43c0 0 7.161-3.117 11.979 1.17 4.817 4.286 4.817 7.794 4.817 7.794s4.814-2.54 8.463.91c2.474 2.337 1.823 6.754-.13 8.443 4.166.26 11.197 14.678-3.515 14.678 0 0-60.98.239-81.506 0-11.198-.13-14.062-13.51-7.552-18.185 0 0-2.995-11.822 10.156-13.38"/>
        <path fill="#FFD974" d="M283.083 144.216s-4.4-18.969-22.805-18.496c-15.198.39-22.397 8.494-22.397 8.494s-6.12-4.417-13.54-.26c-7.422 4.157-7.422 10.262-7.422 10.262s-2.344-2.468-6.901-1.429c0 0-7.161-3.117-11.978 1.17-4.818 4.286-4.818 7.793-4.818 7.793s-4.814-2.539-8.463.91c-2.474 2.338-1.823 6.754.13 8.444-4.166.26-11.197 14.678 3.516 14.678 0 0 76.757.238 97.283 0 11.197-.13 14.061-13.51 7.551-18.186 0 0 2.995-11.821-10.156-13.38"/>
        <path fill="#6D94C2" d="M106 190.177s333.247-110.714 768 .099V434H106.656L106 190.177z"/>
    </g>
</svg>
