<?xml version="1.0" encoding="UTF-8"?>
<svg width="2048px" height="793px" viewBox="0 0 2048 793" version="1.1" xmlns="http://www.w3.org/2000/svg" xmlns:xlink="http://www.w3.org/1999/xlink">
    <title>bg_grove_web</title>
    <defs>
        <rect id="path-1" x="0" y="0" width="2048" height="793"></rect>
        <polygon id="path-3" points="0.488459732 0.465 1114.15 0.465 1114.15 762.2037 0.488459732 762.2037"></polygon>
        <polygon id="path-5" points="0.000129755006 0.812560318 1378.603 0.812560318 1378.603 738 0.000129755006 738"></polygon>
        <polygon id="path-7" points="0 0.251335557 281.407726 0.251335557 281.407726 142.070367 0 142.070367"></polygon>
        <polygon id="path-9" points="0.73375996 0.181035557 282.141621 0.181035557 282.141621 142 0.73375996 142"></polygon>
    </defs>
    <g id="Page-1" stroke="none" stroke-width="1" fill="none" fill-rule="evenodd">
        <g id="bg" transform="translate(-2080.000000, -1024.000000)">
            <g id="bg_grove_web" transform="translate(2080.000000, 1024.000000)">
                <g id="bg">
                    <mask id="mask-2" fill="white">
                        <use xlink:href="#path-1"></use>
                    </mask>
                    <g id="Mask"></g>
                    <g mask="url(#mask-2)">
                        <g transform="translate(-109.000000, 0.000000)">
                            <g id="-img/natural/cloud_big/web" fill="none" transform="translate(110.000000, 0.000000)" stroke-width="1">
                                <g id="-cloud_big">
                                    <g id="Group-3" transform="translate(938.000000, 0.535000)">
                                        <mask id="mask-4" fill="white">
                                            <use xlink:href="#path-3"></use>
                                        </mask>
                                        <g id="Clip-2"></g>
                                        <path d="M1114.1501,20.1017 C1114.1501,20.1017 889.4171,-66.9753 781.0401,125.6027 C781.0401,125.6027 649.5061,93.7937 602.3501,177.9857 C602.3501,177.9857 452.6001,165.4877 456.5251,303.8297 C456.5251,303.8297 323.6901,304.9637 337.2871,453.3207 C337.2871,453.3207 123.2471,412.0107 103.3691,589.2687 C103.3691,589.2687 -16.5389,590.7327 2.5471,684.7017 L29.1191,760.7547 L1114.1501,762.2037 L1114.1501,20.1017 Z" id="Fill-1" fill="#FFFFFF" mask="url(#mask-4)"></path>
                                    </g>
                                    <g id="Group-6" transform="translate(0.000000, 68.535000)">
                                        <mask id="mask-6" fill="white">
                                            <use xlink:href="#path-5"></use>
                                        </mask>
                                        <g id="Clip-5"></g>
                                        <path d="M1242.567,475.7756 C1174.88,439.9416 1105.203,437.9506 1073.388,451.7026 C1046.114,413.1266 1008.646,407.6156 1008.646,407.6156 C1008.646,407.6156 1024.362,353.6686 961.613,319.4416 C900.994,286.3766 851.414,326.7896 851.414,326.7896 C851.414,326.7896 855.07,269.8436 810.983,242.2896 C764.747,213.3916 703.431,245.9636 703.431,245.9636 C703.431,245.9636 736.909,129.3796 639.361,47.7576 C554.768,-23.0234 425.683,-4.6654 383.747,42.9636 C326.977,-3.1824 205.016,0.7166 146.974,94.8736 C146.974,94.8736 30.182,77.6196 28.855,187.7756 C28.855,187.7756 3.638,181.1406 0.984,193.0846 C-1.67,205.0296 1.886,738.0006 1.886,738.0006 L315.102,738.0006 L1375.949,736.5676 L1378.603,613.3556 C1378.603,613.3556 1327.202,520.5826 1242.567,475.7756" id="Fill-4" fill="#FFFFFF" mask="url(#mask-6)"></path>
                                    </g>
                                </g>
                            </g>
                            <g id="img/natural/grove/web" fill="none" transform="translate(0.000000, 229.000000)" stroke-width="1">
                                <g id="grove">
                                    <path d="M202.9986,114.7959 C203.1536,114.7959 203.3036,114.8169 203.4586,114.8169 C203.3376,113.4479 203.2486,112.0659 203.2486,110.6609 C203.2486,85.0569 224.0046,64.3009 249.6086,64.3009 C275.2126,64.3009 295.9686,85.0569 295.9686,110.6609 C295.9686,112.1089 295.8826,113.5329 295.7526,114.9469 C296.7586,114.8849 297.7606,114.7959 298.7806,114.7959 C324.3846,114.7959 345.1406,135.5519 345.1406,161.1549 C345.1406,186.7589 324.3846,207.5149 298.7806,207.5149 C296.5296,207.5149 294.3326,207.2989 292.1666,206.9879 C285.8446,225.0679 268.6806,238.0589 248.4416,238.0589 C228.3646,238.0589 211.3216,225.2749 204.8756,207.4199 C204.2476,207.4449 203.6326,207.5149 202.9986,207.5149 C177.3946,207.5149 156.6396,186.7589 156.6396,161.1549 C156.6396,135.5519 177.3946,114.7959 202.9986,114.7959" id="Fill-1" fill="#E5204E"></path>
                                    <path d="M252.0083,218.6417 L258.9873,327.5317 C259.0983,329.0287 258.2393,330.2397 257.0723,330.2397 L238.9133,330.2397 C237.7433,330.2397 236.8843,329.0287 236.9953,327.5317 L243.9713,218.6417 C244.1483,217.1447 248.4423,161.1557 248.4423,161.1557 C250.2363,161.1557 251.8343,217.1447 252.0083,218.6417" id="Fill-3" fill="#597EB1"></path>
                                    <path d="M247.1294,258.7452 L226.7404,211.6822 C226.6144,211.3832 226.2724,211.2472 225.9744,211.3772 C225.6974,211.4972 225.5614,211.8082 225.6504,212.0872 L241.0414,261.0162 C241.5804,262.7272 243.4064,263.6792 245.1184,263.1402 C246.8344,262.6002 247.7854,260.7742 247.2464,259.0622 C247.2114,258.9542 247.1704,258.8472 247.1294,258.7452" id="Fill-5" fill="#597EB1"></path>
                                    <path d="M251.273,218.6856 L269.689,188.1386 C269.806,187.9456 269.743,187.6946 269.549,187.5776 C269.378,187.4726 269.157,187.5136 269.03,187.6636 L245.998,214.8996 C244.836,216.2726 245.007,218.3306 246.38,219.4916 C247.753,220.6516 249.808,220.4806 250.972,219.1076 C251.08,218.9776 251.188,218.8256 251.273,218.6856" id="Fill-7" fill="#597EB1"></path>
                                    <path d="M250.4077,204.1377 C250.4077,204.1377 250.2937,203.4657 250.0907,202.2857 C250.0777,201.7827 249.6217,200.7227 249.2627,199.7557 C248.9047,198.6527 248.2487,197.9047 247.6367,196.8707 C246.2827,195.0067 244.4697,193.1317 242.3917,191.4777 C240.3407,189.7557 238.0537,188.1957 235.8037,186.6197 C233.5487,185.0667 231.3167,183.5317 229.3317,181.9957 C228.3357,181.2327 227.4267,180.4497 226.5627,179.7007 C225.7897,178.8927 224.9177,178.2107 224.3497,177.4277 C223.7347,176.6757 223.1237,176.0067 222.7677,175.3127 C222.3817,174.6407 221.9467,174.0817 221.8067,173.5427 C221.4077,172.4997 221.1787,171.9077 221.1787,171.9077 L221.1157,171.7447 C220.9577,171.3337 220.4947,171.1237 220.0797,171.2827 C219.6827,171.4347 219.4767,171.8667 219.5947,172.2627 C219.5947,172.2627 219.8037,172.9627 220.1647,174.1877 C220.2987,174.8307 220.7167,175.4777 221.1027,176.2737 C221.4617,177.1007 222.0607,177.8747 222.6817,178.7597 C223.2687,179.6817 224.1127,180.4527 224.8987,181.3977 C225.7487,182.2527 226.6547,183.1597 227.6297,184.0297 C229.5757,185.7797 231.7347,187.5077 233.8597,189.2227 C235.9687,190.9417 238.0867,192.6347 239.8397,194.3497 C241.6567,196.0307 243.0517,197.7557 243.9967,199.2747 C244.3577,200.0417 244.9027,200.7927 244.9707,201.3227 C245.1057,201.9407 245.4007,202.1817 245.4007,202.8987 C245.5117,204.0907 245.5757,204.7727 245.5757,204.7727 C245.7027,206.1107 246.8877,207.0967 248.2287,206.9727 C249.5667,206.8487 250.5537,205.6627 250.4297,204.3227 C250.4237,204.2647 250.4137,204.1957 250.4077,204.1377" id="Fill-9" fill="#597EB1"></path>
                                    <path d="M452.9731,84.0645 C452.7761,84.0645 452.5871,84.0915 452.3921,84.0915 C452.5431,82.3605 452.6561,80.6135 452.6561,78.8375 C452.6561,46.4745 426.4211,20.2395 394.0581,20.2395 C361.6951,20.2395 335.4591,46.4745 335.4591,78.8375 C335.4591,80.6685 335.5681,82.4685 335.7321,84.2555 C334.4611,84.1755 333.1951,84.0645 331.9051,84.0645 C299.5411,84.0645 273.3071,110.2995 273.3071,142.6625 C273.3071,175.0255 299.5411,201.2605 331.9051,201.2605 C334.7501,201.2605 337.5281,200.9875 340.2651,200.5945 C348.2571,223.4475 369.9511,239.8675 395.5331,239.8675 C420.9101,239.8675 442.4521,223.7085 450.6001,201.1395 C451.3931,201.1715 452.1711,201.2605 452.9731,201.2605 C485.3351,201.2605 511.5711,175.0255 511.5711,142.6625 C511.5711,110.2995 485.3351,84.0645 452.9731,84.0645" id="Fill-11" fill="#FA7880"></path>
                                    <path d="M391.0239,215.3243 L382.2029,352.9603 C382.0629,354.8513 383.1489,356.3833 384.6239,356.3833 L407.5769,356.3833 C409.0549,356.3833 410.1409,354.8513 410.0019,352.9603 L401.1839,215.3243 C400.9599,213.4313 395.5329,142.6623 395.5329,142.6623 C393.2639,142.6623 391.2449,213.4313 391.0239,215.3243" id="Fill-13" fill="#597EB1"></path>
                                    <path d="M397.1919,266.0147 L422.9629,206.5267 C423.1229,206.1497 423.5549,205.9777 423.9319,206.1417 C424.2809,206.2937 424.4539,206.6867 424.3409,207.0387 L404.8869,268.8837 C404.2059,271.0477 401.8969,272.2507 399.7329,271.5697 C397.5649,270.8877 396.3619,268.5787 397.0449,266.4147 C397.0879,266.2797 397.1399,266.1427 397.1919,266.0147" id="Fill-15" fill="#597EB1"></path>
                                    <path d="M391.9536,215.3799 L368.6766,176.7689 C368.5276,176.5249 368.6076,176.2069 368.8526,176.0599 C369.0686,175.9269 369.3496,175.9799 369.5106,176.1679 L398.6226,210.5949 C400.0896,212.3299 399.8736,214.9309 398.1386,216.3979 C396.4026,217.8639 393.8056,217.6489 392.3346,215.9129 C392.1986,215.7489 392.0616,215.5559 391.9536,215.3799" id="Fill-17" fill="#597EB1"></path>
                                    <path d="M393.0483,196.9922 C393.0483,196.9922 393.1923,196.1422 393.4483,194.6512 C393.4653,194.0142 394.0413,192.6762 394.4943,191.4532 C394.9473,190.0582 395.7773,189.1132 396.5503,187.8062 C398.2623,185.4492 400.5543,183.0812 403.1803,180.9892 C405.7733,178.8122 408.6623,176.8412 411.5083,174.8482 C414.3583,172.8862 417.1793,170.9452 419.6883,169.0052 C420.9463,168.0402 422.0963,167.0502 423.1873,166.1032 C424.1643,165.0822 425.2673,164.2202 425.9843,163.2302 C426.7623,162.2802 427.5343,161.4342 427.9843,160.5562 C428.4733,159.7072 429.0223,159.0022 429.1983,158.3202 C429.7033,157.0022 429.9913,156.2532 429.9913,156.2532 L430.0713,156.0482 C430.2723,155.5272 430.8583,155.2632 431.3823,155.4632 C431.8833,155.6552 432.1443,156.2002 431.9953,156.7012 C431.9953,156.7012 431.7313,157.5872 431.2753,159.1352 C431.1063,159.9482 430.5773,160.7652 430.0883,161.7712 C429.6353,162.8172 428.8773,163.7952 428.0923,164.9142 C427.3513,166.0802 426.2843,167.0542 425.2903,168.2482 C424.2163,169.3302 423.0703,170.4762 421.8403,171.5742 C419.3793,173.7872 416.6503,175.9712 413.9643,178.1392 C411.2993,180.3112 408.6223,182.4522 406.4053,184.6202 C404.1103,186.7442 402.3463,188.9252 401.1523,190.8442 C400.6943,191.8142 400.0053,192.7632 399.9213,193.4332 C399.7483,194.2152 399.3763,194.5192 399.3763,195.4252 C399.2353,196.9312 399.1553,197.7942 399.1553,197.7942 C398.9953,199.4852 397.4963,200.7312 395.8013,200.5752 C394.1103,200.4192 392.8633,198.9202 393.0203,197.2242 C393.0273,197.1522 393.0403,197.0642 393.0483,196.9922" id="Fill-19" fill="#597EB1"></path>
                                    <path d="M782.5552,128.8565 C782.7512,128.8565 782.9402,128.8845 783.1362,128.8845 C782.9842,127.1535 782.8712,125.4065 782.8712,123.6295 C782.8712,91.2675 809.1072,65.0325 841.4702,65.0325 C873.8322,65.0325 900.0682,91.2675 900.0682,123.6295 C900.0682,125.4615 899.9592,127.2615 899.7952,129.0485 C901.0662,128.9685 902.3322,128.8565 903.6222,128.8565 C935.9862,128.8565 962.2212,155.0915 962.2212,187.4555 C962.2212,219.8175 935.9862,246.0525 903.6222,246.0525 C900.7782,246.0525 898.0002,245.7805 895.2632,245.3875 C887.2712,268.2405 865.5762,284.6605 839.9952,284.6605 C814.6182,284.6605 793.0762,268.5005 784.9282,245.9325 C784.1342,245.9645 783.3572,246.0525 782.5552,246.0525 C750.1922,246.0525 723.9572,219.8175 723.9572,187.4555 C723.9572,155.0915 750.1922,128.8565 782.5552,128.8565" id="Fill-21" fill="#FA7880"></path>
                                    <path d="M844.5034,260.1163 L853.3254,397.7523 C853.4654,399.6433 852.3794,401.1753 850.9044,401.1753 L827.9514,401.1753 C826.4734,401.1753 825.3864,399.6433 825.5264,397.7523 L834.3444,260.1163 C834.5684,258.2243 839.9954,187.4553 839.9954,187.4553 C842.2634,187.4553 844.2834,258.2243 844.5034,260.1163" id="Fill-23" fill="#597EB1"></path>
                                    <path d="M838.3354,310.8067 L812.5654,251.3197 C812.4054,250.9427 811.9734,250.7697 811.5964,250.9347 C811.2474,251.0867 811.0744,251.4797 811.1874,251.8317 L830.6414,313.6767 C831.3214,315.8407 833.6304,317.0427 835.7954,316.3627 C837.9634,315.6807 839.1654,313.3717 838.4834,311.2077 C838.4394,311.0717 838.3884,310.9357 838.3354,310.8067" id="Fill-25" fill="#597EB1"></path>
                                    <path d="M843.5747,260.1719 L866.8517,221.5609 C866.9997,221.3169 866.9197,220.9999 866.6757,220.8519 C866.4587,220.7199 866.1787,220.7719 866.0177,220.9599 L836.9047,255.3869 C835.4387,257.1219 835.6547,259.7239 837.3897,261.1909 C839.1257,262.6569 841.7217,262.4409 843.1937,260.7049 C843.3297,260.5409 843.4667,260.3489 843.5747,260.1719" id="Fill-27" fill="#597EB1"></path>
                                    <path d="M842.48,241.7852 C842.48,241.7852 842.335,240.9342 842.08,239.4442 C842.063,238.8062 841.486,237.4682 841.033,236.2462 C840.581,234.8502 839.751,233.9052 838.977,232.5982 C837.266,230.2422 834.973,227.8732 832.348,225.7812 C829.755,223.6052 826.866,221.6332 824.02,219.6412 C821.17,217.6782 818.349,215.7382 815.84,213.7982 C814.582,212.8322 813.431,211.8432 812.341,210.8962 C811.363,209.8742 810.261,209.0132 809.543,208.0222 C808.766,207.0732 807.993,206.2272 807.544,205.3492 C807.055,204.5002 806.506,203.7942 806.33,203.1132 C805.825,201.7952 805.536,201.0452 805.536,201.0452 L805.456,200.8412 C805.255,200.3202 804.67,200.0562 804.146,200.2562 C803.644,200.4482 803.384,200.9932 803.532,201.4942 C803.532,201.4942 803.796,202.3802 804.253,203.9272 C804.421,204.7402 804.951,205.5572 805.44,206.5632 C805.893,207.6102 806.65,208.5882 807.436,209.7062 C808.177,210.8722 809.243,211.8472 810.237,213.0412 C811.311,214.1222 812.458,215.2682 813.688,216.3672 C816.149,218.5792 818.878,220.7642 821.563,222.9312 C824.228,225.1032 826.906,227.2442 829.122,229.4122 C831.418,231.5362 833.182,233.7172 834.376,235.6372 C834.834,236.6062 835.523,237.5562 835.607,238.2252 C835.779,239.0072 836.152,239.3112 836.152,240.2182 C836.293,241.7242 836.373,242.5862 836.373,242.5862 C836.533,244.2772 838.032,245.5232 839.727,245.3672 C841.418,245.2112 842.665,243.7122 842.508,242.0162 C842.501,241.9442 842.488,241.8562 842.48,241.7852" id="Fill-29" fill="#597EB1"></path>
                                    <path d="M2210.4614,94.5557 C2210.3054,94.5557 2210.1564,94.5777 2210.0014,94.5777 C2210.1214,93.2077 2210.2104,91.8267 2210.2104,90.4207 C2210.2104,64.8177 2189.4544,44.0617 2163.8514,44.0617 C2138.2474,44.0617 2117.4914,64.8177 2117.4914,90.4207 C2117.4914,91.8697 2117.5764,93.2937 2117.7064,94.7077 C2116.7014,94.6447 2115.6994,94.5557 2114.6794,94.5557 C2089.0744,94.5557 2068.3184,115.3117 2068.3184,140.9157 C2068.3184,166.5197 2089.0744,187.2757 2114.6794,187.2757 C2116.9304,187.2757 2119.1274,187.0597 2121.2934,186.7487 C2127.6154,204.8287 2144.7784,217.8197 2165.0184,217.8197 C2185.0954,217.8197 2202.1384,205.0347 2208.5844,187.1797 C2209.2114,187.2047 2209.8264,187.2757 2210.4614,187.2757 C2236.0654,187.2757 2256.8204,166.5197 2256.8204,140.9157 C2256.8204,115.3117 2236.0654,94.5557 2210.4614,94.5557" id="Fill-31" fill="#E5204E"></path>
                                    <path d="M2161.4507,198.4014 L2154.4717,307.2924 C2154.3607,308.7884 2155.2207,310.0004 2156.3877,310.0004 L2174.5467,310.0004 C2175.7167,310.0004 2176.5757,308.7884 2176.4647,307.2924 L2169.4887,198.4014 C2169.3107,196.9054 2165.0177,140.9164 2165.0177,140.9164 C2163.2227,140.9164 2161.6257,196.9054 2161.4507,198.4014" id="Fill-33" fill="#597EB1"></path>
                                    <path d="M2166.3306,238.5049 L2186.7186,191.4419 C2186.8456,191.1439 2187.1876,191.0069 2187.4856,191.1379 C2187.7616,191.2579 2187.8976,191.5679 2187.8096,191.8479 L2172.4186,240.7759 C2171.8796,242.4879 2170.0536,243.4399 2168.3406,242.9009 C2166.6256,242.3609 2165.6746,240.5339 2166.2136,238.8219 C2166.2476,238.7149 2166.2896,238.6069 2166.3306,238.5049" id="Fill-35" fill="#597EB1"></path>
                                    <path d="M2162.186,198.4454 L2143.77,167.8984 C2143.653,167.7054 2143.716,167.4554 2143.91,167.3384 C2144.081,167.2334 2144.303,167.2744 2144.43,167.4244 L2167.462,194.6604 C2168.623,196.0334 2168.452,198.0914 2167.079,199.2514 C2165.706,200.4124 2163.651,200.2404 2162.488,198.8674 C2162.379,198.7374 2162.272,198.5854 2162.186,198.4454" id="Fill-37" fill="#597EB1"></path>
                                    <path d="M2163.0522,183.8985 C2163.0522,183.8985 2163.1662,183.2265 2163.3682,182.0465 C2163.3812,181.5435 2163.8382,180.4835 2164.1972,179.5165 C2164.5552,178.4135 2165.2112,177.6655 2165.8232,176.6305 C2167.1772,174.7665 2168.9902,172.8925 2171.0682,171.2375 C2173.1182,169.5155 2175.4052,167.9565 2177.6562,166.3795 C2179.9102,164.8265 2182.1432,163.2925 2184.1272,161.7565 C2185.1232,160.9935 2186.0332,160.2105 2186.8962,159.4615 C2187.6692,158.6535 2188.5412,157.9705 2189.1092,157.1875 C2189.7242,156.4365 2190.3362,155.7675 2190.6912,155.0735 C2191.0782,154.4005 2191.5122,153.8425 2191.6522,153.3035 C2192.0522,152.2605 2192.2802,151.6685 2192.2802,151.6685 L2192.3432,151.5055 C2192.5012,151.0935 2192.9642,150.8845 2193.3802,151.0435 C2193.7772,151.1955 2193.9832,151.6265 2193.8652,152.0225 C2193.8652,152.0225 2193.6562,152.7235 2193.2942,153.9475 C2193.1612,154.5905 2192.7422,155.2385 2192.3562,156.0345 C2191.9972,156.8615 2191.3992,157.6345 2190.7772,158.5195 C2190.1902,159.4425 2189.3472,160.2125 2188.5612,161.1585 C2187.7102,162.0135 2186.8042,162.9205 2185.8302,163.7895 C2183.8832,165.5405 2181.7242,167.2675 2179.6002,168.9835 C2177.4912,170.7025 2175.3732,172.3945 2173.6192,174.1105 C2171.8032,175.7915 2170.4072,177.5155 2169.4632,179.0345 C2169.1022,179.8015 2168.5562,180.5535 2168.4892,181.0835 C2168.3532,181.7015 2168.0582,181.9425 2168.0582,182.6585 C2167.9482,183.8505 2167.8842,184.5325 2167.8842,184.5325 C2167.7572,185.8715 2166.5722,186.8565 2165.2302,186.7335 C2163.8922,186.6095 2162.9062,185.4235 2163.0302,184.0825 C2163.0352,184.0255 2163.0452,183.9565 2163.0522,183.8985" id="Fill-39" fill="#597EB1"></path>
                                    <path d="M1960.4868,63.8243 C1960.6828,63.8243 1960.8718,63.8523 1961.0678,63.8523 C1960.9158,62.1213 1960.8028,60.3743 1960.8028,58.5983 C1960.8028,26.2353 1987.0388,0.0003 2019.4018,0.0003 C2051.7638,0.0003 2077.9998,26.2353 2077.9998,58.5983 C2077.9998,60.4293 2077.8908,62.2293 2077.7268,64.0163 C2078.9978,63.9363 2080.2638,63.8243 2081.5538,63.8243 C2113.9178,63.8243 2140.1528,90.0593 2140.1528,122.4233 C2140.1528,154.7853 2113.9178,181.0203 2081.5538,181.0203 C2078.7098,181.0203 2075.9308,180.7483 2073.1938,180.3553 C2065.2028,203.2083 2043.5078,219.6283 2017.9258,219.6283 C1992.5498,219.6283 1971.0078,203.4693 1962.8588,180.9003 C1962.0658,180.9323 1961.2888,181.0203 1960.4868,181.0203 C1928.1238,181.0203 1901.8878,154.7853 1901.8878,122.4233 C1901.8878,90.0593 1928.1238,63.8243 1960.4868,63.8243" id="Fill-41" fill="#FA7880"></path>
                                    <path d="M2022.4351,195.084 L2031.2561,332.721 C2031.3971,334.612 2030.3111,336.143 2028.8351,336.143 L2005.8831,336.143 C2004.4051,336.143 2003.3181,334.612 2003.4581,332.721 L2012.2761,195.084 C2012.4991,193.192 2017.9261,122.423 2017.9261,122.423 C2020.1951,122.423 2022.2151,193.192 2022.4351,195.084" id="Fill-43" fill="#597EB1"></path>
                                    <path d="M2016.2671,245.7745 L1990.4971,186.2875 C1990.3371,185.9105 1989.9041,185.7385 1989.5281,185.9025 C1989.1781,186.0545 1989.0061,186.4475 1989.1191,186.7995 L2008.5731,248.6445 C2009.2531,250.8085 2011.5621,252.0105 2013.7271,251.3305 C2015.8951,250.6485 2017.0971,248.3395 2016.4151,246.1755 C2016.3711,246.0395 2016.3201,245.9035 2016.2671,245.7745" id="Fill-45" fill="#597EB1"></path>
                                    <path d="M2021.5054,195.1397 L2044.7824,156.5297 C2044.9314,156.2857 2044.8514,155.9677 2044.6074,155.8197 C2044.3904,155.6877 2044.1094,155.7397 2043.9484,155.9277 L2014.8364,190.3547 C2013.3694,192.0907 2013.5864,194.6917 2015.3214,196.1587 C2017.0574,197.6247 2019.6534,197.4097 2021.1244,195.6727 C2021.2614,195.5087 2021.3974,195.3167 2021.5054,195.1397" id="Fill-47" fill="#597EB1"></path>
                                    <path d="M2020.4116,176.753 C2020.4116,176.753 2020.2666,175.902 2020.0106,174.412 C2019.9946,173.774 2019.4176,172.436 2018.9646,171.214 C2018.5126,169.818 2017.6826,168.873 2016.9086,167.566 C2015.1976,165.21 2012.9046,162.841 2010.2796,160.749 C2007.6866,158.573 2004.7976,156.602 2001.9516,154.609 C1999.1016,152.646 1996.2806,150.706 1993.7716,148.766 C1992.5136,147.8 1991.3626,146.811 1990.2726,145.864 C1989.2946,144.843 1988.1926,143.981 1987.4746,142.99 C1986.6976,142.041 1985.9246,141.195 1985.4746,140.317 C1984.9856,139.468 1984.4376,138.763 1984.2616,138.081 C1983.7566,136.763 1983.4676,136.013 1983.4676,136.013 L1983.3876,135.809 C1983.1866,135.288 1982.6016,135.024 1982.0766,135.224 C1981.5756,135.416 1981.3146,135.961 1981.4636,136.462 C1981.4636,136.462 1981.7276,137.348 1982.1846,138.895 C1982.3526,139.708 1982.8826,140.525 1983.3716,141.531 C1983.8236,142.578 1984.5816,143.556 1985.3666,144.674 C1986.1086,145.84 1987.1746,146.815 1988.1686,148.009 C1989.2426,149.091 1990.3896,150.236 1991.6196,151.335 C1994.0806,153.547 1996.8086,155.732 1999.4946,157.899 C2002.1596,160.072 2004.8376,162.212 2007.0536,164.38 C2009.3496,166.505 2011.1136,168.685 2012.3076,170.605 C2012.7646,171.574 2013.4536,172.524 2013.5386,173.193 C2013.7106,173.975 2014.0836,174.279 2014.0836,175.186 C2014.2236,176.692 2014.3036,177.554 2014.3036,177.554 C2014.4646,179.245 2015.9626,180.491 2017.6576,180.335 C2019.3496,180.179 2020.5966,178.681 2020.4396,176.984 C2020.4326,176.913 2020.4196,176.825 2020.4116,176.753" id="Fill-49" fill="#597EB1"></path>
                                    <path d="M583.6567,283.8702 C583.6567,283.8702 592.6397,229.6082 657.9937,231.2902 C711.9547,232.6792 719.6387,256.6742 719.6387,256.6742 C719.6387,256.6742 741.3137,242.1452 770.4057,250.3282 C799.4157,258.4862 803.0417,287.4962 803.0417,287.4962 C803.0417,287.4962 827.5177,257.5802 860.1537,289.3092 C860.1537,289.3092 877.4347,269.2492 907.2947,287.4962 C923.6117,297.4682 917.0207,321.0472 917.0207,321.0472 C917.0207,321.0472 934.1157,312.0102 947.0707,324.2832 C955.8547,332.6042 953.5437,348.3232 946.6087,354.3332 C961.4017,355.2582 986.3667,406.5732 934.1267,406.5732 C934.1267,406.5732 562.2567,407.4212 489.3757,406.5732 C449.6177,406.1112 429.5437,347.3282 494.8147,338.2632 C494.8147,338.2632 489.3757,254.8602 583.6567,283.8702" id="Fill-51" fill="#F28555"></path>
                                    <path d="M223.7827,296.7647 C223.7827,296.7647 233.0747,240.6387 300.6737,242.3787 C356.4887,243.8147 364.4357,268.6337 364.4357,268.6337 C364.4357,268.6337 386.8557,253.6067 416.9467,262.0707 C446.9537,270.5087 450.7047,300.5157 450.7047,300.5157 C450.7047,300.5157 476.0217,269.5717 509.7787,302.3907 C509.7787,302.3907 527.6537,281.6417 558.5387,300.5157 C575.4177,310.8297 568.5987,335.2187 568.5987,335.2187 C568.5987,335.2187 586.2817,325.8707 599.6817,338.5667 C608.7667,347.1737 606.3767,363.4317 599.2037,369.6487 C614.5057,370.6047 640.3277,423.6837 586.2927,423.6837 C586.2927,423.6837 201.6457,424.5607 126.2617,423.6837 C85.1377,423.2047 64.3747,362.4037 131.8877,353.0267 C131.8877,353.0267 126.2617,266.7587 223.7827,296.7647" id="Fill-53" fill="#F28555"></path>
                                    <path d="M2065.1812,283.8702 C2065.1812,283.8702 2074.1642,229.6082 2139.5182,231.2902 C2193.4792,232.6792 2201.1632,256.6742 2201.1632,256.6742 C2201.1632,256.6742 2222.8382,242.1452 2251.9302,250.3282 C2280.9402,258.4862 2284.5662,287.4962 2284.5662,287.4962 C2284.5662,287.4962 2309.0422,257.5802 2341.6782,289.3092 C2341.6782,289.3092 2358.9592,269.2492 2388.8192,287.4962 C2405.1362,297.4682 2398.5452,321.0472 2398.5452,321.0472 C2398.5452,321.0472 2415.6402,312.0102 2428.5952,324.2832 C2437.3792,332.6042 2435.0682,348.3232 2428.1322,354.3332 C2442.9262,355.2582 2467.8912,406.5732 2415.6512,406.5732 C2415.6512,406.5732 2043.7812,407.4212 1970.9002,406.5732 C1931.1422,406.1112 1911.0682,347.3282 1976.3392,338.2632 C1976.3392,338.2632 1970.9002,254.8602 2065.1812,283.8702" id="Fill-55" fill="#F28555"></path>
                                    <path d="M1693.5776,267.6543 C1693.5776,267.6543 1704.0696,204.2823 1780.3966,206.2463 C1843.4186,207.8683 1852.3926,235.8913 1852.3926,235.8913 C1852.3926,235.8913 1877.7076,218.9253 1911.6826,228.4803 C1945.5636,238.0083 1949.7996,271.8893 1949.7996,271.8893 C1949.7996,271.8893 1978.3866,236.9503 2016.5016,274.0073 C2016.5016,274.0073 2036.6846,250.5783 2071.5566,271.8893 C2090.6146,283.5363 2082.9166,311.0733 2082.9166,311.0733 C2082.9166,311.0733 2102.8826,300.5193 2118.0126,314.8533 C2128.2706,324.5723 2125.5716,342.9293 2117.4726,349.9493 C2134.7506,351.0283 2163.9066,410.9613 2102.8936,410.9613 C2102.8936,410.9613 1668.5836,411.9513 1583.4666,410.9613 C1537.0316,410.4223 1513.5876,341.7683 1589.8186,331.1803 C1589.8186,331.1803 1583.4666,233.7743 1693.5776,267.6543" id="Fill-57" fill="#F28555"></path>
                                    <path d="M495.772,376.4219 C495.772,376.4219 479.092,342.6909 450.881,329.7609 C428.57,319.5339 379.389,326.1809 374.48,345.0409 C374.48,345.0409 346.27,316.8309 298.078,328.5849 C255.411,338.9909 247.63,376.4219 247.63,376.4219 C247.63,376.4219 238.84,367.1449 221.751,371.0509 C221.751,371.0509 194.893,359.3319 176.827,375.4449 C158.759,391.5599 158.759,404.7429 158.759,404.7429 C158.759,404.7429 140.703,395.1979 127.02,408.1619 C117.742,416.9509 120.183,433.5539 127.508,439.9009 C111.882,440.8779 85.514,495.0789 140.692,495.0789 C140.692,495.0789 428.56,495.9749 505.539,495.0789 C547.532,494.5909 558.275,444.2959 533.86,426.7169 C533.86,426.7169 545.09,382.2809 495.772,376.4219" id="Fill-59" fill="#F3AB55"></path>
                                    <path d="M2219.4331,376.4219 C2219.4331,376.4219 2202.7521,342.6909 2174.5421,329.7609 C2152.2311,319.5339 2103.0501,326.1809 2098.1401,345.0409 C2098.1401,345.0409 2069.9301,316.8309 2021.7381,328.5849 C1979.0721,338.9909 1971.2901,376.4219 1971.2901,376.4219 C1971.2901,376.4219 1962.5011,367.1449 1945.4111,371.0509 C1945.4111,371.0509 1918.5541,359.3319 1900.4871,375.4449 C1882.4191,391.5599 1882.4191,404.7429 1882.4191,404.7429 C1882.4191,404.7429 1864.3641,395.1979 1850.6801,408.1619 C1841.4031,416.9509 1843.8441,433.5539 1851.1681,439.9009 C1835.5421,440.8779 1809.1741,495.0789 1864.3531,495.0789 C1864.3531,495.0789 2152.2201,495.9749 2229.1991,495.0789 C2271.1931,494.5909 2281.9351,444.2959 2257.5201,426.7169 C2257.5201,426.7169 2268.7511,382.2809 2219.4331,376.4219" id="Fill-61" fill="#F3AB55"></path>
                                    <path d="M837.2739,355.0479 C837.2739,355.0479 823.1889,294.1849 764.2679,295.7009 C715.6179,296.9529 692.5709,322.9539 692.5709,322.9539 C692.5709,322.9539 672.9809,308.7819 649.2239,322.1199 C625.4659,335.4579 625.4659,355.0479 625.4659,355.0479 C625.4659,355.0479 617.9629,347.1279 603.3759,350.4629 C603.3759,350.4629 580.4519,340.4599 565.0299,354.2139 C549.6079,367.9689 549.6079,379.2219 549.6079,379.2219 C549.6079,379.2219 534.1959,371.0749 522.5159,382.1399 C514.5969,389.6429 516.6809,403.8139 522.9329,409.2319 C509.5949,410.0659 487.0869,456.3299 534.1859,456.3299 C534.1859,456.3299 779.9039,457.0949 845.6099,456.3299 C881.4549,455.9139 890.6249,412.9839 869.7849,397.9789 C869.7849,397.9789 879.3709,360.0489 837.2739,355.0479" id="Fill-63" fill="#F3AB55"></path>
                                    <path d="M298.5151,421.1787 C298.5151,421.1787 286.9511,381.0667 325.6181,369.8647 C366.1451,358.1217 380.1851,393.3537 380.1851,393.3537 C380.1851,393.3537 397.1701,381.0667 417.7681,392.6307 C438.3671,404.1947 438.3671,421.1787 438.3671,421.1787 C438.3671,421.1787 444.8711,414.3127 457.5191,417.2037 C457.5191,417.2037 477.3951,408.5317 490.7661,420.4557 C504.1371,432.3817 504.1371,442.1387 504.1371,442.1387 C504.1371,442.1387 517.4991,435.0747 527.6261,444.6677 C534.4931,451.1727 532.6851,463.4597 527.2651,468.1577 C538.8281,468.8807 558.3431,508.9927 517.5071,508.9927 C517.5071,508.9927 348.2561,509.6557 291.2871,508.9927 C260.2091,508.6317 252.2591,471.4097 270.3281,458.4007 C270.3281,458.4007 262.0161,425.5157 298.5151,421.1787" id="Fill-65" fill="#FFD974"></path>
                                    <g id="Group-69" transform="translate(0.000000, 367.217000)">
                                        <mask id="mask-8" fill="white">
                                            <use xlink:href="#path-7"></use>
                                        </mask>
                                        <g id="Clip-68"></g>
                                        <path d="M37.7222,53.9617 C37.7222,53.9617 26.1592,13.8497 64.8262,2.6477 C105.3532,-9.0953 119.3932,26.1367 119.3932,26.1367 C119.3932,26.1367 136.3772,13.8497 156.9762,25.4137 C177.5752,36.9777 177.5752,53.9617 177.5752,53.9617 C177.5752,53.9617 184.0792,47.0957 196.7272,49.9867 C196.7272,49.9867 216.6032,41.3147 229.9742,53.2387 C243.3442,65.1647 243.3442,74.9217 243.3442,74.9217 C243.3442,74.9217 256.7072,67.8577 266.8342,77.4507 C273.7002,83.9557 271.8932,96.2427 266.4722,100.9407 C278.0362,101.6637 297.5512,141.7757 256.7152,141.7757 C256.7152,141.7757 87.4642,142.4387 30.4952,141.7757 C-0.5838,141.4147 -8.5338,104.1927 9.5352,91.1837 C9.5352,91.1837 1.2242,58.2987 37.7222,53.9617" id="Fill-67" fill="#FFD974" mask="url(#mask-8)"></path>
                                    </g>
                                    <g id="Group-72" transform="translate(1932.000000, 380.217000)">
                                        <mask id="mask-10" fill="white">
                                            <use xlink:href="#path-9"></use>
                                        </mask>
                                        <g id="Clip-71"></g>
                                        <path d="M38.4565,53.8914 C38.4565,53.8914 26.8935,13.7794 65.5605,2.5774 C106.0875,-9.1656 120.1275,26.0664 120.1275,26.0664 C120.1275,26.0664 137.1115,13.7794 157.7105,25.3424 C178.3095,36.9074 178.3095,53.8914 178.3095,53.8914 C178.3095,53.8914 184.8125,47.0254 197.4615,49.9164 C197.4615,49.9164 217.3375,41.2444 230.7085,53.1684 C244.0785,65.0944 244.0785,74.8514 244.0785,74.8514 C244.0785,74.8514 257.4415,67.7874 267.5675,77.3804 C274.4345,83.8854 272.6275,96.1724 267.2065,100.8704 C278.7705,101.5924 298.2845,141.7054 257.4495,141.7054 C257.4495,141.7054 88.1975,142.3684 31.2285,141.7054 C0.1505,141.3444 -7.7995,104.1224 10.2695,91.1134 C10.2695,91.1134 1.9585,58.2284 38.4565,53.8914" id="Fill-70" fill="#FFD974" mask="url(#mask-10)"></path>
                                    </g>
                                    <path d="M848.1733,404.9873 C848.1733,404.9873 836.6093,364.8753 875.2763,353.6723 C915.8043,341.9303 929.8443,377.1613 929.8443,377.1613 C929.8443,377.1613 946.8283,364.8753 967.4263,376.4383 C988.0253,388.0033 988.0253,404.9873 988.0253,404.9873 C988.0253,404.9873 994.5293,398.1213 1007.1783,401.0113 C1007.1783,401.0113 1027.0533,392.3393 1040.4243,404.2643 C1053.7953,416.1893 1053.7953,425.9473 1053.7953,425.9473 C1053.7953,425.9473 1067.1573,418.8833 1077.2843,428.4763 C1084.1513,434.9813 1082.3443,447.2673 1076.9233,451.9663 C1088.4863,452.6883 1108.0013,492.8003 1067.1663,492.8003 C1067.1663,492.8003 897.9143,493.4643 840.9453,492.8003 C809.8673,492.4393 801.9173,455.2173 819.9863,442.2093 C819.9863,442.2093 811.6743,409.3233 848.1733,404.9873" id="Fill-73" fill="#FFD974"></path>
                                    <path d="M785.7007,401.1973 C785.7007,401.1973 773.4887,348.4273 722.4037,349.7423 C680.2227,350.8283 660.2407,373.3713 660.2407,373.3713 C660.2407,373.3713 643.2567,361.0843 622.6587,372.6483 C602.0597,384.2123 602.0597,401.1973 602.0597,401.1973 C602.0597,401.1973 595.5547,394.3313 582.9067,397.2213 C582.9067,397.2213 563.0317,388.5493 549.6607,400.4743 C536.2897,412.3993 536.2897,422.1563 536.2897,422.1563 C536.2897,422.1563 522.9277,415.0933 512.8007,424.6863 C505.9337,431.1913 507.7407,443.4773 513.1617,448.1763 C501.5977,448.8983 482.0837,489.0103 522.9187,489.0103 C522.9187,489.0103 735.9597,489.6733 792.9287,489.0103 C824.0067,488.6493 831.9567,451.4273 813.8877,438.4193 C813.8877,438.4193 822.1997,405.5333 785.7007,401.1973" id="Fill-75" fill="#FFD974"></path>
                                </g>
                            </g>
                            <path d="M109,733.176718 C109,733.176718 998.525446,622.463015 2159,733.275893 L2159,795 L110.751774,795 L109,733.176718 Z" id="gress" fill="#6D94C2"></path>
                        </g>
                    </g>
                </g>
            </g>
        </g>
    </g>
</svg>