<svg xmlns="http://www.w3.org/2000/svg" xmlns:xlink="http://www.w3.org/1999/xlink" width="1024" height="455" viewBox="0 0 1024 455">
    <defs>
        <path id="prefix__a" d="M0 0H1024V455H0z"/>
        <path id="prefix__c" d="M0.183 0.174L416.789 0.174 416.789 285.236 0.183 285.236z"/>
        <path id="prefix__e" d="M0 0.304L515.717 0.304 515.717 276.178 0 276.178z"/>
        <path id="prefix__g" d="M0 0.304L515.717 0.304 515.717 276.178 0 276.178z"/>
        <path id="prefix__i" d="M0.183 0.174L416.789 0.174 416.789 285.236 0.183 285.236z"/>
        <path id="prefix__k" d="M0.44 0.109L169.308 0.109 169.308 85.254 0.44 85.254z"/>
    </defs>
    <g fill="none" fill-rule="evenodd">
        <mask id="prefix__b" fill="#fff">
            <use xlink:href="#prefix__a"/>
        </mask>
        <g mask="url(#prefix__b)">
            <g>
                <path fill="#6D94C2" d="M310 302H1779V440H310z" transform="translate(-629 18)"/>
                <g>
                    <g transform="translate(-629 18) translate(757) translate(350.893 .2)">
                        <mask id="prefix__d" fill="#fff">
                            <use xlink:href="#prefix__c"/>
                        </mask>
                        <path fill="#FFF" d="M416.789 7.523s-84.07-32.587-124.612 39.48c0 0-49.205-11.903-66.846 19.604 0 0-56.02-4.677-54.551 47.094 0 0-49.692.424-44.605 55.943 0 0-80.07-15.46-87.506 50.875 0 0-44.856.548-37.716 35.714l9.94 28.46 405.896.543V7.523z" mask="url(#prefix__d)"/>
                    </g>
                    <g transform="translate(-629 18) translate(757) translate(0 25.648)">
                        <mask id="prefix__f" fill="#fff">
                            <use xlink:href="#prefix__e"/>
                        </mask>
                        <path fill="#FFF" d="M464.828 178.047c-25.321-13.41-51.386-14.155-63.288-9.008-10.203-14.436-24.219-16.499-24.219-16.499s5.88-20.188-17.594-32.997c-22.677-12.374-41.224 2.75-41.224 2.75s1.367-21.31-15.125-31.622c-17.296-10.814-40.234 1.375-40.234 1.375s12.524-43.629-23.968-74.174c-31.645-26.488-79.934-19.618-95.621-1.794C122.318-1.19 76.694.268 54.98 35.504c0 0-43.69-6.457-44.187 34.766 0 0-9.433-2.483-10.426 1.987-.993 4.47.338 203.922.338 203.922h117.17l396.848-.537.993-46.109s-19.228-34.718-50.89-51.486" mask="url(#prefix__f)"/>
                    </g>
                </g>
                <g transform="translate(-629 18) matrix(-1 0 0 1 768 25.648)">
                    <mask id="prefix__h" fill="#fff">
                        <use xlink:href="#prefix__g"/>
                    </mask>
                    <path fill="#FFF" d="M464.828 178.047c-25.321-13.41-51.386-14.155-63.288-9.008-10.203-14.436-24.219-16.499-24.219-16.499s5.88-20.188-17.594-32.997c-22.677-12.374-41.224 2.75-41.224 2.75s1.367-21.31-15.125-31.622c-17.296-10.814-40.234 1.375-40.234 1.375s12.524-43.629-23.968-74.174c-31.645-26.488-79.934-19.618-95.621-1.794C122.318-1.19 76.694.268 54.98 35.504c0 0-43.69-6.457-44.187 34.766 0 0-9.433-2.483-10.426 1.987-.993 4.47.338 203.922.338 203.922h117.17l396.848-.537.993-46.109s-19.228-34.718-50.89-51.486" mask="url(#prefix__h)"/>
                </g>
                <g transform="translate(-629 18) matrix(-1 0 0 1 1941.107 .2)">
                    <mask id="prefix__j" fill="#fff">
                        <use xlink:href="#prefix__i"/>
                    </mask>
                    <path fill="#FFF" d="M416.789 7.523s-84.07-32.587-124.612 39.48c0 0-49.205-11.903-66.846 19.604 0 0-56.02-4.677-54.551 47.094 0 0-49.692.424-44.605 55.943 0 0-80.07-15.46-87.506 50.875 0 0-44.856.548-37.716 35.714l9.94 28.46 405.896.543V7.523z" mask="url(#prefix__j)"/>
                </g>
                <path fill="#6D94C2" d="M757 351.177s333.247-110.714 768 .099V437H757.656L757 351.177z" transform="translate(-629 18)"/>
                <g>
                    <path fill="#FA7880" d="M469.597 77.363c.118 0 .231.017.349.017-.092-1.04-.16-2.088-.16-3.155 0-19.43 15.744-35.18 35.165-35.18 19.42 0 35.163 15.75 35.163 35.18 0 1.1-.065 2.18-.163 3.253.762-.048 1.522-.115 2.296-.115 19.421 0 35.164 15.751 35.164 35.182 0 19.43-15.743 35.18-35.164 35.18-1.706 0-3.374-.163-5.016-.399-4.796 13.72-17.815 23.58-33.165 23.58-15.229 0-28.155-9.703-33.045-23.252-.476.019-.943.072-1.424.072-19.42 0-35.164-15.751-35.164-35.181s15.744-35.182 35.164-35.182" transform="translate(-629 18) translate(310 61)"/>
                    <path fill="#597EB1" d="M506.771 156.17l5.294 82.633c.084 1.136-.568 2.056-1.453 2.056h-13.774c-.886 0-1.539-.92-1.455-2.056l5.292-82.634c.134-1.136 3.39-43.624 3.39-43.624 1.362 0 2.574 42.488 2.706 43.624" transform="translate(-629 18) translate(310 61)"/>
                    <path fill="#597EB1" d="M503.07 186.603l-15.464-35.715c-.096-.226-.356-.33-.582-.231-.21.091-.313.327-.245.538l11.674 37.131c.408 1.3 1.793 2.02 3.093 1.613 1.3-.41 2.022-1.796 1.613-3.095-.027-.082-.057-.164-.09-.241M506.214 156.203l13.968-23.182c.089-.146.04-.337-.106-.425-.13-.08-.298-.048-.395.064l-17.47 20.67c-.88 1.041-.75 2.604.291 3.484 1.042.88 2.6.75 3.483-.291.082-.099.164-.214.229-.32M505.557 145.164l-.24-1.406c-.01-.383-.357-1.186-.628-1.92-.272-.838-.77-1.405-1.234-2.19-1.027-1.415-2.403-2.837-3.978-4.093-1.556-1.306-3.29-2.49-4.998-3.686-1.71-1.179-3.403-2.344-4.908-3.508-.755-.58-1.446-1.174-2.1-1.743-.587-.613-1.248-1.13-1.68-1.725-.465-.57-.93-1.078-1.199-1.605-.293-.51-.623-.934-.728-1.342-.303-.792-.477-1.242-.477-1.242l-.048-.122c-.12-.313-.471-.472-.786-.352-.3.116-.457.443-.368.744l.433 1.46c.1.488.418.979.712 1.583.272.629.726 1.216 1.198 1.887.444.7 1.084 1.285 1.68 2.002.645.65 1.333 1.337 2.071 1.997 1.477 1.328 3.115 2.64 4.726 3.941 1.6 1.304 3.206 2.59 4.536 3.891 1.378 1.275 2.436 2.585 3.153 3.737.275.582.688 1.153.738 1.554.104.47.328.652.328 1.197l.132 1.421c.096 1.016.996 1.764 2.013 1.67 1.015-.094 1.763-.993 1.669-2.012l-.017-.138" transform="translate(-629 18) translate(310 61)"/>
                    <path fill="#E5204E" d="M1326.457 56.77c-.093 0-.183.013-.276.013.072-.823.126-1.652.126-2.496 0-15.372-12.455-27.833-27.82-27.833-15.364 0-27.82 12.461-27.82 27.833 0 .87.052 1.725.13 2.574-.603-.038-1.205-.091-1.817-.091-15.365 0-27.82 12.461-27.82 27.833 0 15.372 12.455 27.834 27.82 27.834 1.351 0 2.67-.13 3.97-.316 3.793 10.855 14.092 18.654 26.238 18.654 12.048 0 22.275-7.676 26.143-18.396.376.015.745.058 1.126.058 15.365 0 27.82-12.462 27.82-27.834s-12.455-27.833-27.82-27.833" transform="translate(-629 18) translate(310 61)"/>
                    <path fill="#597EB1" d="M1297.047 119.117l-4.188 65.376c-.067.898.45 1.626 1.15 1.626h10.897c.702 0 1.217-.728 1.15-1.626l-4.186-65.376c-.106-.898-2.682-34.513-2.682-34.513-1.078 0-2.036 33.615-2.141 34.513" transform="translate(-629 18) translate(310 61)"/>
                    <path fill="#597EB1" d="M1299.975 143.194l12.235-28.256c.076-.179.281-.26.46-.182.166.072.247.258.194.426l-9.235 29.376c-.324 1.027-1.42 1.599-2.447 1.275-1.03-.324-1.6-1.42-1.277-2.449.02-.064.046-.129.07-.19M1297.488 119.143l-11.05-18.34c-.071-.116-.033-.266.083-.336.103-.063.236-.038.312.052l13.821 16.352c.697.824.594 2.06-.23 2.756-.823.697-2.057.594-2.755-.23-.065-.079-.13-.17-.18-.254M1298.008 110.41s.068-.404.19-1.112c.007-.302.282-.939.497-1.52.215-.662.609-1.11.976-1.732.812-1.12 1.9-2.244 3.147-3.238 1.23-1.034 2.603-1.97 3.954-2.917 1.352-.932 2.692-1.853 3.883-2.775.597-.458 1.144-.928 1.661-1.378.464-.485.988-.895 1.328-1.365.37-.451.737-.853.95-1.27.232-.404.492-.739.576-1.062l.377-.982.038-.098c.095-.247.373-.373.622-.277.239.091.362.35.291.588l-.342 1.155c-.08.386-.332.775-.563 1.253-.216.497-.574.961-.948 1.492-.352.554-.858 1.017-1.33 1.585-.51.513-1.054 1.058-1.638 1.58-1.169 1.05-2.464 2.087-3.739 3.118-1.265 1.032-2.536 2.048-3.589 3.078-1.09 1.01-1.927 2.044-2.494 2.956-.216.46-.544.912-.584 1.23-.082.371-.259.516-.259.946l-.104 1.125c-.077.804-.788 1.395-1.593 1.322-.803-.075-1.395-.787-1.32-1.592.003-.034.009-.076.013-.11" transform="translate(-629 18) translate(310 61)"/>
                    <path fill="#FA7880" d="M1176.452 38.319c.118 0 .231.017.349.017-.091-1.04-.16-2.088-.16-3.155 0-19.43 15.745-35.18 35.165-35.18s35.164 15.75 35.164 35.18c0 1.1-.066 2.18-.164 3.253.763-.048 1.522-.115 2.296-.115 19.421 0 35.165 15.751 35.165 35.182 0 19.43-15.744 35.18-35.165 35.18-1.706 0-3.374-.163-5.016-.399-4.796 13.72-17.814 23.579-33.166 23.579-15.227 0-28.154-9.702-33.044-23.252-.476.02-.942.072-1.424.072-19.42 0-35.164-15.75-35.164-35.18 0-19.431 15.744-35.182 35.164-35.182" transform="translate(-629 18) translate(310 61)"/>
                    <path fill="#597EB1" d="M1213.626 117.125l5.294 82.635c.084 1.135-.567 2.054-1.453 2.054h-13.773c-.887 0-1.54-.919-1.455-2.054l5.291-82.635c.134-1.136 3.39-43.624 3.39-43.624 1.362 0 2.574 42.488 2.706 43.624" transform="translate(-629 18) translate(310 61)"/>
                    <path fill="#597EB1" d="M1209.925 147.559l-15.464-35.715c-.096-.227-.356-.33-.582-.231-.21.09-.313.327-.245.538l11.674 37.13c.408 1.3 1.794 2.022 3.093 1.613 1.3-.41 2.022-1.795 1.613-3.095-.027-.081-.057-.163-.089-.24M1213.068 117.158l13.968-23.18c.09-.147.042-.338-.105-.427-.13-.079-.298-.048-.395.065l-17.47 20.67c-.88 1.042-.75 2.603.291 3.484 1.042.88 2.6.751 3.483-.292.082-.098.164-.213.228-.32M1212.412 106.12l-.24-1.406c-.01-.383-.356-1.186-.628-1.92-.272-.838-.77-1.406-1.234-2.19-1.027-1.415-2.403-2.837-3.978-4.093-1.556-1.307-3.29-2.49-4.997-3.686-1.71-1.179-3.404-2.344-4.91-3.509-.754-.58-1.445-1.173-2.099-1.742-.587-.613-1.248-1.13-1.679-1.725-.466-.57-.93-1.078-1.2-1.605-.293-.51-.622-.933-.728-1.343l-.476-1.241-.048-.123c-.121-.312-.472-.471-.787-.35-.3.114-.457.442-.368.742l.433 1.461c.1.488.419.979.712 1.583.271.628.726 1.215 1.197 1.887.445.7 1.085 1.285 1.682 2.002.644.65 1.332 1.337 2.07 1.997 1.477 1.328 3.114 2.64 4.726 3.94 1.6 1.305 3.206 2.59 4.536 3.892 1.378 1.276 2.436 2.585 3.153 3.737.274.582.688 1.152.739 1.554.103.47.327.652.327 1.197l.132 1.421c.096 1.016.995 1.764 2.012 1.67 1.016-.094 1.764-.993 1.67-2.012-.004-.043-.012-.095-.017-.139" transform="translate(-629 18) translate(310 61)"/>
                    <path fill="#F28555" d="M350.242 170.43s5.39-32.577 44.608-31.567c32.381.833 36.992 15.24 36.992 15.24s13.007-8.723 30.464-3.81c17.409 4.898 19.585 22.315 19.585 22.315s14.687-17.961 34.271 1.088c0 0 10.37-12.044 28.289-1.088 9.791 5.987 5.836 20.143 5.836 20.143s10.259-5.426 18.033 1.943c5.27 4.996 3.884 14.433-.277 18.041 8.877.556 23.858 31.364-7.49 31.364 0 0-223.153.51-266.888 0-23.858-.277-35.904-35.57 3.264-41.012 0 0-3.264-50.073 53.313-32.656" transform="translate(-629 18) translate(310 61)"/>
                    <path fill="#F28555" d="M134.288 178.172s5.576-33.697 46.14-32.652c33.494.862 38.263 15.763 38.263 15.763s13.454-9.022 31.511-3.94c18.007 5.066 20.258 23.081 20.258 23.081s15.192-18.578 35.449 1.126c0 0 10.726-12.457 29.26-1.126 10.129 6.193 6.037 20.835 6.037 20.835s10.61-5.612 18.652 2.01c5.452 5.168 4.018 14.929-.287 18.662 9.183.574 24.678 32.441-7.747 32.441 0 0-230.82.527-276.057 0-24.677-.287-37.137-36.791 3.376-42.421 0 0-3.376-51.794 55.145-33.779M1239.277 170.43s5.391-32.577 44.609-31.567c32.38.833 36.992 15.24 36.992 15.24s13.007-8.723 30.464-3.81c17.408 4.898 19.584 22.315 19.584 22.315s14.688-17.961 34.272 1.088c0 0 10.37-12.044 28.289-1.088 9.791 5.987 5.836 20.143 5.836 20.143s10.258-5.426 18.033 1.943c5.27 4.996 3.884 14.433-.278 18.041 8.877.556 23.858 31.364-7.49 31.364 0 0-223.152.51-266.887 0-23.858-.277-35.904-35.57 3.264-41.012 0 0-3.264-50.073 53.312-32.656" transform="translate(-629 18) translate(310 61)"/>
                    <path fill="#F28555" d="M1016.285 160.695s6.296-38.048 52.098-36.868c37.819.973 43.204 17.798 43.204 17.798s15.191-10.186 35.579-4.45c20.331 5.721 22.873 26.063 22.873 26.063s17.155-20.977 40.027 1.271c0 0 12.111-14.066 33.037-1.271 11.437 6.992 6.817 23.525 6.817 23.525s11.981-6.336 21.06 2.27c6.156 5.834 4.537 16.856-.323 21.07 10.368.648 27.864 36.63-8.749 36.63 0 0-260.622.595-311.699 0-27.864-.323-41.933-41.541 3.812-47.898 0 0-3.812-58.481 62.264-38.14" transform="translate(-629 18) translate(310 61)"/>
                    <path fill="#F3AB55" d="M297.504 225.997s-10.01-20.251-26.939-28.014c-13.388-6.14-42.9-2.15-45.846 9.173 0 0-16.929-16.936-45.848-9.88-25.604 6.248-30.273 28.721-30.273 28.721s-5.274-5.57-15.53-3.225c0 0-16.116-7.035-26.957 2.639C95.268 235.086 95.268 243 95.268 243s-10.835-5.731-19.046 2.052c-5.567 5.277-4.102 15.245.293 19.056-9.377.586-25.2 33.128 7.912 33.128 0 0 172.744.538 218.938 0 25.199-.293 31.646-30.49 16.995-41.044 0 0 6.739-26.678-22.856-30.196M1331.841 225.997s-10.01-20.251-26.938-28.014c-13.389-6.14-42.901-2.15-45.848 9.173 0 0-16.928-16.936-45.847-9.88-25.603 6.248-30.273 28.721-30.273 28.721s-5.274-5.57-15.53-3.225c0 0-16.116-7.035-26.957 2.639-10.843 9.675-10.843 17.59-10.843 17.59s-10.834-5.731-19.046 2.052c-5.567 5.277-4.102 15.245.293 19.056-9.377.586-25.2 33.128 7.912 33.128 0 0 172.744.538 218.938 0 25.2-.293 31.645-30.49 16.995-41.044 0 0 6.739-26.678-22.856-30.196" transform="translate(-629 18) translate(310 61)"/>
                    <path fill="#F3AB55" d="M502.433 213.165s-8.452-36.542-43.81-35.631c-29.194.751-43.024 16.362-43.024 16.362s-11.755-8.509-26.012-.5c-14.256 8.007-14.256 19.769-14.256 19.769s-4.503-4.756-13.256-2.753c0 0-13.756-6.006-23.01 2.252-9.255 8.258-9.255 15.014-9.255 15.014s-9.249-4.891-16.258 1.752c-4.752 4.505-3.501 13.013.25 16.266-8.003.5-21.51 28.276 6.753 28.276 0 0 147.451.46 186.88 0 21.51-.25 27.013-26.024 14.507-35.032 0 0 5.752-22.773-19.51-25.775" transform="translate(-629 18) translate(310 61)"/>
                    <path fill="#FFD974" d="M179.133 252.868s-6.939-24.082 16.264-30.808c24.32-7.05 32.745 14.103 32.745 14.103s10.193-7.377 22.553-.434c12.361 6.942 12.361 17.14 12.361 17.14s3.903-4.123 11.493-2.387c0 0 11.927-5.207 19.95 1.952 8.024 7.16 8.024 13.018 8.024 13.018s8.019-4.24 14.096 1.519c4.12 3.905 3.036 11.282-.217 14.103 6.939.434 18.65 24.516-5.855 24.516 0 0-101.565.398-135.75 0-18.65-.216-23.42-22.564-12.578-30.374 0 0-4.988-19.744 16.914-22.348" transform="translate(-629 18) translate(310 61)"/>
                    <g transform="translate(-629 18) translate(310 61) translate(1159.358 228.276)">
                        <mask id="prefix__l" fill="#fff">
                            <use xlink:href="#prefix__k"/>
                        </mask>
                        <path fill="#FFD974" d="M23.077 32.355S16.138 8.273 39.342 1.547c24.32-7.05 32.744 14.103 32.744 14.103s10.192-7.377 22.553-.435C107 22.16 107 32.355 107 32.355s3.903-4.122 11.493-2.386c0 0 11.927-5.207 19.95 1.952 8.024 7.16 8.024 13.018 8.024 13.018s8.019-4.24 14.095 1.519c4.121 3.905 3.037 11.282-.216 14.103 6.94.433 18.65 24.516-5.855 24.516 0 0-101.565.398-135.751 0C.09 84.861-4.68 62.513 6.163 54.703c0 0-4.988-19.744 16.914-22.348" mask="url(#prefix__l)"/>
                    </g>
                    <path fill="#FFD974" d="M508.973 243.147s-6.94-24.082 16.264-30.808c24.32-7.05 32.746 14.102 32.746 14.102s10.191-7.376 22.552-.434c12.36 6.943 12.36 17.14 12.36 17.14s3.904-4.122 11.494-2.387c0 0 11.927-5.206 19.95 1.953 8.024 7.16 8.024 13.018 8.024 13.018s8.019-4.24 14.096 1.519c4.12 3.905 3.036 11.281-.217 14.103 6.939.433 18.65 24.516-5.855 24.516 0 0-101.565.398-135.751 0-18.65-.217-23.42-22.565-12.577-30.374 0 0-4.988-19.744 16.914-22.348" transform="translate(-629 18) translate(310 61)"/>
                    <path fill="#FFD974" d="M471.485 240.872s-7.329-31.682-37.984-30.893c-25.312.652-37.303 14.187-37.303 14.187s-10.191-7.377-22.552-.435c-12.361 6.943-12.361 17.14-12.361 17.14s-3.904-4.121-11.493-2.386c0 0-11.927-5.207-19.95 1.953-8.024 7.16-8.024 13.017-8.024 13.017s-8.019-4.24-14.096 1.52c-4.12 3.905-3.036 11.281.217 14.102-6.94.434-18.65 24.516 5.855 24.516 0 0 127.842.398 162.028 0 18.65-.217 23.42-22.564 12.577-30.374 0 0 4.988-19.744-16.914-22.347" transform="translate(-629 18) translate(310 61)"/>
                </g>
            </g>
        </g>
    </g>
</svg>
