<svg xmlns="http://www.w3.org/2000/svg" width="162" height="84" viewBox="0 0 162 84">
    <g fill="none">
        <ellipse cx="51.16" cy="62.38" fill="#6D94C2" opacity=".46" rx="51.16" ry="5.97"/>
        <path fill="#545656" d="M89.55 4.77L99.34 4.34 89.33 10.19 89.55 4.77z"/>
        <path fill="#F3AB55" d="M12.66 62.76L31.76 39.97 3.5 49.62 12.66 62.76"/>
        <path fill="#545656" d="M56.83 59.43L56.53 58.58 50.87 57.51 50.76 42.5 49.64 42.99 49.87 58.42 54.85 63.72 55.2 62.9 52.64 59.85 56.08 61.63 56.17 60.62 52.71 58.83 56.83 59.43zM48.75 61.26L48.45 60.41 42.79 59.4 42.84 42.02 41.55 42.4 41.5 59.56 41.49 60.61 41.67 60.83 45.55 65.54 45.87 64.73 42.31 60.51 48.01 63.45 48.09 62.44 44.13 60.4 48.75 61.26"/>
        <path fill="#F3AB55" d="M83 24.47c.473-2.014.778-4.065.91-6.13.573-.965 1.303-1.827 2.16-2.55 5-4.27 6.39-11.24 1-14.33C75.5-5.15 62.31 12.48 55.91 18c-.87.75-1.58 2.91-2.44 3.67L83 24.47"/>
        <path fill="#545656" d="M83.85 7.26c0 .828-.672 1.5-1.5 1.5s-1.5-.672-1.5-1.5.672-1.5 1.5-1.5 1.5.672 1.5 1.5z"/>
        <path fill="#F3AB55" d="M24.94 38.93c10.007 10.496 25.45 13.733 38.83 8.14 13.276-5.37 21.613-18.649 20.68-32.94l-59.51 24.8"/>
        <path fill="#FFD974" d="M63.15 11.13L1.94 32.87c2.74 1.62 9.35 6.44 11.83 7.35 5.8 2.13.24.88 6.27 2.29 14.44 3.39 39.3-.82 43.53-18.67.27-1.13 1.43-10.84-.42-12.71"/>
        <circle cx="106.05" cy="77.64" r="3.32" fill="#F36B53"/>
        <circle cx="131.93" cy="69.68" r="2.65" fill="#F36B53"/>
        <circle cx="157.81" cy="75.65" r="3.32" fill="#F36B53"/>
        <circle cx="72.54" cy="78.64" r="2.32" fill="#F36B53"/>
    </g>
</svg>
