<svg xmlns="http://www.w3.org/2000/svg" width="162" height="84" viewBox="0 0 162 84">
    <g fill="none" transform="translate(0 3)">
        <ellipse cx="51.16" cy="59.64" fill="#6D94C2" opacity=".46" rx="51.16" ry="5.97"/>
        <path fill="#545656" d="M96.7 44.42L103.73 51.24 92.61 47.97 96.7 44.42z"/>
        <path fill="#F3AB55" d="M1.75 28.32L31.43 26.56 5.02 12.64 1.75 28.32"/>
        <path fill="#545656" d="M56.83 56.69L56.53 55.84 50.87 54.77 50.76 39.77 49.64 40.25 49.87 55.68 54.85 60.98 55.2 60.16 52.64 57.11 56.08 58.89 56.17 57.88 52.71 56.09 56.83 56.69zM48.75 58.52L48.45 57.67 42.79 56.66 42.84 39.28 41.55 39.66 41.5 56.83 41.49 57.87 41.67 58.09 45.55 62.8 45.87 61.99 42.31 57.77 48.01 60.71 48.09 59.7 44.13 57.66 48.75 58.52"/>
        <path fill="#F3AB55" d="M77.87 53.16c1.81-1.032 3.527-2.22 5.13-3.55 1.093-.24 2.218-.301 3.33-.18 6.53.7 12.56-3.07 11.11-9.1C94.27 27.39 72.39 29.91 64 29c-1.15-.12-3.21.85-4.34.74l18.2 23.4"/>
        <path fill="#545656" d="M91 42c-.588.578-1.533.573-2.115-.012-.582-.586-.582-1.53 0-2.116.582-.585 1.527-.59 2.115-.012.29.28.453.667.453 1.07S91.29 41.72 91 42z"/>
        <path fill="#F3AB55" d="M27.5 20.89c-.759 14.484 7.494 27.935 20.75 33.82 13.017 5.965 28.393 2.91 38.14-7.58L27.5 20.89"/>
        <path fill="#FFD974" d="M74 29.59L16.13 0c.7 3.1 1.73 11.23 2.77 13.65 2.43 5.68-.47.78 2.64 6.13C29 32.61 49.12 47.8 65 38.61c1-.58 8.84-6.45 9-9"/>
        <circle cx="106.05" cy="74.9" r="3.32" fill="#F36B53"/>
        <circle cx="131.93" cy="66.94" r="2.65" fill="#F36B53"/>
        <circle cx="157.81" cy="72.91" r="3.32" fill="#F36B53"/>
        <circle cx="72.54" cy="75.9" r="2.32" fill="#F36B53"/>
    </g>
</svg>
