<svg xmlns="http://www.w3.org/2000/svg" xmlns:xlink="http://www.w3.org/1999/xlink" width="2053" height="807" viewBox="0 0 2053 807">
    <defs>
        <path id="prefix__a" d="M0.488 0.465L1114.15 0.465 1114.15 762.204 0.488 762.204z"/>
        <path id="prefix__c" d="M0 0.813L1378.603 0.813 1378.603 738 0 738z"/>
    </defs>
    <g fill="none" fill-rule="evenodd">
        <g transform="translate(938 .535)">
            <mask id="prefix__b" fill="#fff">
                <use xlink:href="#prefix__a"/>
            </mask>
            <path fill="#FFF" d="M1114.15 20.102s-224.733-87.077-333.11 105.5c0 0-131.534-31.808-178.69 52.384 0 0-149.75-12.498-145.825 125.844 0 0-132.835 1.134-119.238 149.49 0 0-214.04-41.31-233.918 135.949 0 0-119.908 1.464-100.822 95.433l26.572 76.053 1085.031 1.449V20.102z" mask="url(#prefix__b)"/>
        </g>
        <g transform="translate(0 68.535)">
            <mask id="prefix__d" fill="#fff">
                <use xlink:href="#prefix__c"/>
            </mask>
            <path fill="#FFF" d="M1242.567 475.776c-67.687-35.834-137.364-37.825-169.179-24.073-27.274-38.576-64.742-44.087-64.742-44.087s15.716-53.947-47.033-88.174c-60.619-33.065-110.199 7.348-110.199 7.348s3.656-56.946-40.431-84.5c-46.236-28.898-107.552 3.674-107.552 3.674s33.478-116.584-64.07-198.206c-84.593-70.781-213.678-52.423-255.614-4.794C326.977-3.182 205.016.717 146.974 94.874c0 0-116.792-17.254-118.119 92.902 0 0-25.217-6.635-27.871 5.309C-1.67 205.03 1.886 738 1.886 738h313.216l1060.847-1.433 2.654-123.212s-51.401-92.773-136.036-137.58" mask="url(#prefix__d)"/>
        </g>
    </g>
</svg>
