<svg xmlns="http://www.w3.org/2000/svg" xmlns:xlink="http://www.w3.org/1999/xlink" width="1461" height="551" viewBox="0 0 1461 551">
    <defs>
        <path id="prefix__a" d="M0 549L1460.69 549 1460.69 0.566 0 0.566z"/>
    </defs>
    <g fill="none" fill-rule="evenodd">
        <path fill="#688DBE" d="M286.908 455.031L1223.642 455.031 1223.642 147.464 286.908 147.464z"/>
        <path fill="#EC7E7E" d="M75.999 452.706L75.999 501.071 0 501.071 0 549.434 1318.504 549.434 1318.504 513.028 1318.504 501.071 1318.504 452.706z"/>
        <path fill="#EC7E7E" d="M142.186 452.706L142.186 501.071 142.186 513.028 142.186 549.434 1460.69 549.434 1460.69 501.071 1384.691 501.071 1384.691 452.706z"/>
        <path fill="#FFA098" d="M80.286 23.945L1318.831 23.945 1318.831 1 80.286 1z"/>
        <path fill="#21417E" d="M1048.18 62.425h35.605V26.824h-35.605v35.601zm-3.092 3.095h41.79V23.729h-41.79V65.52z"/>
        <path fill="#21417E" d="M1045.54 26.369L1084.238 65.066 1086.428 62.879 1047.728 24.182z"/>
        <path fill="#21417E" d="M1045.54 62.879L1047.728 65.066 1086.428 26.369 1084.238 24.182z"/>
        <path fill="#21417E" d="M1009.483 62.425h35.604V26.824h-35.604v35.601zm-3.093 3.095h41.79V23.729h-41.79V65.52z"/>
        <path fill="#21417E" d="M1006.843 26.369L1045.54 65.066 1047.729 62.879 1009.032 24.182z"/>
        <path fill="#21417E" d="M1006.843 62.879L1009.032 65.066 1047.729 26.369 1045.54 24.182z"/>
        <path fill="#21417E" d="M970.89 62.425h35.605V26.824H970.89v35.601zm-3.092 3.095h41.79V23.729h-41.79V65.52z"/>
        <path fill="#21417E" d="M968.25 26.369L1006.948 65.066 1009.138 62.879 970.439 24.182z"/>
        <path fill="#21417E" d="M968.25 62.879L970.439 65.066 1009.138 26.369 1006.948 24.182z"/>
        <path fill="#21417E" d="M932.194 62.425h35.604V26.824h-35.604v35.601zM929.1 65.52h41.79V23.729H929.1V65.52z"/>
        <path fill="#21417E" d="M929.553 26.369L968.25 65.066 970.44 62.879 931.742 24.182z"/>
        <path fill="#21417E" d="M929.553 62.879L931.742 65.066 970.44 26.369 968.25 24.182zM1086.878 62.425h35.605V26.824h-35.605v35.601zm-3.092 3.095h41.79V23.729h-41.79V65.52z"/>
        <path fill="#21417E" d="M1084.238 26.369L1122.935 65.066 1125.125 62.879 1086.427 24.182z"/>
        <path fill="#21417E" d="M1084.238 62.879L1086.427 65.066 1125.125 26.369 1122.935 24.182z"/>
        <path fill="#21417E" d="M1125.576 62.425h35.603V26.824h-35.603v35.601zm-3.093 3.095h41.789V23.729h-41.789V65.52z"/>
        <path fill="#21417E" d="M1122.935 26.369L1161.63 65.066 1163.82 62.879 1125.124 24.182z"/>
        <path fill="#21417E" d="M1122.935 62.879L1125.124 65.066 1163.82 26.369 1161.63 24.182z"/>
        <path fill="#21417E" d="M1164.272 62.425h35.605V26.824h-35.605v35.601zm-3.094 3.095h41.79V23.729h-41.79V65.52z"/>
        <path fill="#21417E" d="M1161.631 26.369L1200.329 65.066 1202.519 62.879 1163.82 24.182z"/>
        <path fill="#21417E" d="M1161.631 62.879L1163.82 65.066 1202.519 26.369 1200.329 24.182z"/>
        <path fill="#21417E" d="M1202.969 62.425h35.605V26.824h-35.605v35.601zm-3.091 3.095h41.79V23.729h-41.79V65.52z"/>
        <path fill="#21417E" d="M1200.329 26.369L1239.026 65.066 1241.216 62.879 1202.518 24.182z"/>
        <path fill="#21417E" d="M1200.329 62.879L1202.518 65.066 1241.216 26.369 1239.026 24.182zM1241.67 294.824h35.602v-35.602h-35.602v35.602zm-3.094 3.094h41.788v-41.79h-41.788v41.79z"/>
        <path fill="#21417E" d="M1239.028 258.769L1277.723 297.465 1279.913 295.279 1241.217 256.581z"/>
        <path fill="#21417E" d="M1239.028 295.279L1241.217 297.466 1279.913 258.769 1277.723 256.582z"/>
        <path fill="#21417E" d="M1241.67 333.521h35.602v-35.603h-35.602v35.603zm-3.094 3.095h41.788v-41.792h-41.788v41.792z"/>
        <path fill="#21417E" d="M1239.028 297.465L1277.723 336.162 1279.913 333.974 1241.217 295.278z"/>
        <path fill="#21417E" d="M1239.028 333.974L1241.217 336.162 1279.913 297.465 1277.723 295.279zM1241.668 140.038h35.604v-35.604h-35.604v35.604zm-3.094 3.094h41.79v-41.793h-41.79v41.793z"/>
        <path fill="#21417E" d="M1239.026 140.491L1241.215 142.678 1279.913 103.98 1277.723 101.793z"/>
        <path fill="#21417E" d="M1239.026 103.98L1277.723 142.677 1279.913 140.491 1241.215 101.792z"/>
        <path fill="#21417E" d="M1241.668 101.339h35.604V65.737h-35.604v35.602zm-3.094 3.095h41.79V62.643h-41.79v41.791z"/>
        <path fill="#21417E" d="M1239.026 101.793L1241.215 103.981 1279.913 65.284 1277.723 63.096z"/>
        <path fill="#21417E" d="M1239.026 65.284L1277.723 103.98 1279.913 101.793 1241.215 63.097z"/>
        <path fill="#21417E" d="M1241.668 62.643h35.604V27.04h-35.604v35.603zm-3.094 3.094h41.79V23.945h-41.79v41.792z"/>
        <path fill="#21417E" d="M1239.026 63.097L1241.215 65.284 1279.913 26.586 1277.723 24.399z"/>
        <path fill="#21417E" d="M1239.026 26.585L1277.723 65.283 1279.913 63.096 1241.215 24.398zM1241.668 178.733h35.604v-35.601h-35.604v35.601zm-3.094 3.096h41.79v-41.791h-41.79v41.791z"/>
        <path fill="#21417E" d="M1239.026 179.188L1241.215 181.375 1279.913 142.677 1277.723 140.491z"/>
        <path fill="#21417E" d="M1239.026 142.677L1277.723 181.374 1279.913 179.188 1241.215 140.49z"/>
        <path fill="#21417E" d="M1241.668 217.431h35.604v-35.602h-35.604v35.602zm-3.094 3.094h41.79v-41.792h-41.79v41.792z"/>
        <path fill="#21417E" d="M1239.026 217.884L1241.215 220.072 1279.913 181.374 1277.723 179.188z"/>
        <path fill="#21417E" d="M1239.026 181.375L1277.723 220.071 1279.913 217.885 1241.215 179.188z"/>
        <path fill="#21417E" d="M1241.668 256.129h35.604v-35.604h-35.604v35.604zm-3.094 3.093h41.79V217.43h-41.79v41.792z"/>
        <path fill="#21417E" d="M1239.026 256.582L1241.215 258.769 1279.913 220.071 1277.723 217.885z"/>
        <path fill="#21417E" d="M1239.026 220.072L1277.723 258.769 1279.913 256.582 1241.215 217.884zM1241.67 410.915h35.602v-35.602h-35.602v35.602zm-3.094 3.094h41.788v-41.791h-41.788v41.791z"/>
        <path fill="#21417E" d="M1239.028 374.859L1277.723 413.556 1279.913 411.369 1241.217 372.671z"/>
        <path fill="#21417E" d="M1239.028 411.369L1241.217 413.557 1279.913 374.859 1277.723 372.672z"/>
        <path fill="#21417E" d="M1241.67 449.61h35.602v-35.601h-35.602v35.601zm-3.094 3.096h41.788v-41.791h-41.788v41.791z"/>
        <path fill="#21417E" d="M1239.028 413.556L1277.723 452.251 1279.913 450.065 1241.217 411.368z"/>
        <path fill="#21417E" d="M1239.028 450.065L1241.217 452.252 1279.913 413.556 1277.723 411.369zM1241.668 372.219h35.604v-35.603h-35.604v35.603zm-3.094 3.094h41.79v-41.792h-41.79v41.792z"/>
        <path fill="#21417E" d="M1239.026 372.671L1241.215 374.859 1279.913 336.16 1277.723 333.974z"/>
        <path fill="#21417E" d="M1239.026 336.161L1277.723 374.859 1279.913 372.672 1241.215 333.974zM348.055 62.425h35.606V26.824h-35.606v35.601zm-3.091 3.095h41.79V23.729h-41.79V65.52z"/>
        <path fill="#21417E" d="M345.416 26.369L384.112 65.066 386.302 62.879 347.604 24.182z"/>
        <path fill="#21417E" d="M345.416 62.879L347.604 65.066 386.302 26.369 384.112 24.182z"/>
        <path fill="#21417E" d="M386.754 62.425h35.604V26.824h-35.604v35.601zm-3.092 3.095h41.79V23.729h-41.79V65.52z"/>
        <path fill="#21417E" d="M384.112 26.369L422.81 65.066 425 62.879 386.301 24.182z"/>
        <path fill="#21417E" d="M384.112 62.879L386.301 65.066 425 26.369 422.81 24.182z"/>
        <path fill="#21417E" d="M425.452 62.425h35.603V26.824h-35.603v35.601zm-3.094 3.095h41.788V23.729h-41.788V65.52z"/>
        <path fill="#21417E" d="M422.81 26.369L461.506 65.066 463.696 62.879 424.999 24.182z"/>
        <path fill="#21417E" d="M422.81 62.879L424.999 65.066 463.696 26.369 461.506 24.182z"/>
        <path fill="#21417E" d="M464.146 62.425h35.605V26.824h-35.605v35.601zm-3.091 3.095h41.79V23.729h-41.79V65.52z"/>
        <path fill="#21417E" d="M461.507 26.369L500.204 65.066 502.394 62.879 463.696 24.182z"/>
        <path fill="#21417E" d="M461.507 62.879L463.696 65.066 502.394 26.369 500.204 24.182z"/>
        <path fill="#21417E" d="M502.845 62.425h35.606V26.824h-35.606v35.601zm-3.093 3.095h41.79V23.729h-41.79V65.52z"/>
        <path fill="#21417E" d="M500.204 26.369L538.902 65.066 541.09 62.879 502.393 24.182z"/>
        <path fill="#21417E" d="M500.204 62.879L502.393 65.066 541.09 26.369 538.902 24.182zM193.719 62.425h35.604V26.824h-35.604v35.601zm-3.093 3.095h41.791V23.729h-41.791V65.52z"/>
        <path fill="#21417E" d="M191.077 26.369L229.775 65.066 231.965 62.879 193.266 24.182z"/>
        <path fill="#21417E" d="M191.077 62.879L193.266 65.066 231.965 26.369 229.775 24.182z"/>
        <path fill="#21417E" d="M232.417 62.425h35.603V26.824h-35.603v35.601zm-3.094 3.095h41.788V23.729h-41.788V65.52z"/>
        <path fill="#21417E" d="M229.775 26.369L268.471 65.066 270.661 62.879 231.964 24.182z"/>
        <path fill="#21417E" d="M229.775 62.879L231.964 65.066 270.661 26.369 268.471 24.182z"/>
        <path fill="#21417E" d="M271.111 62.425h35.605V26.824h-35.605v35.601zm-3.092 3.095h41.79V23.729h-41.79V65.52z"/>
        <path fill="#21417E" d="M268.471 26.369L307.168 65.066 309.358 62.879 270.661 24.182z"/>
        <path fill="#21417E" d="M268.471 62.879L270.661 65.066 309.358 26.369 307.168 24.182z"/>
        <path fill="#21417E" d="M309.809 62.425h35.606V26.824h-35.606v35.601zm-3.092 3.095h41.79V23.729h-41.79V65.52z"/>
        <path fill="#21417E" d="M307.169 26.369L345.867 65.066 348.055 62.879 309.358 24.182z"/>
        <path fill="#21417E" d="M307.169 62.879L309.358 65.066 348.055 26.369 345.867 24.182zM658.234 62.425h35.603V26.824h-35.603v35.601zm-3.095 3.095h41.792V23.729h-41.792V65.52z"/>
        <path fill="#21417E" d="M655.594 26.369L694.29 65.066 696.477 62.879 657.782 24.182z"/>
        <path fill="#21417E" d="M655.594 62.879L657.782 65.066 696.477 26.369 694.29 24.182z"/>
        <path fill="#21417E" d="M619.465 62.425h35.602V26.824h-35.602v35.601zm-3.095 3.095h41.792V23.729H616.37V65.52z"/>
        <path fill="#21417E" d="M616.823 26.369L655.52 65.066 657.706 62.879 619.011 24.182z"/>
        <path fill="#21417E" d="M616.823 62.879L619.011 65.066 657.706 26.369 655.52 24.182z"/>
        <path fill="#21417E" d="M580.694 62.425h35.603V26.824h-35.603v35.601zm-3.095 3.095h41.792V23.729h-41.792V65.52z"/>
        <path fill="#21417E" d="M578.053 26.369L616.75 65.066 618.937 62.879 580.241 24.182z"/>
        <path fill="#21417E" d="M578.053 62.879L580.241 65.066 618.937 26.369 616.75 24.182zM696.929 62.425h35.605V26.824h-35.605v35.601zm-3.092 3.095h41.79V23.729h-41.79V65.52z"/>
        <path fill="#21417E" d="M694.287 26.369L732.985 65.066 735.175 62.879 696.476 24.182z"/>
        <path fill="#21417E" d="M694.287 62.879L696.476 65.066 735.175 26.369 732.985 24.182z"/>
        <path fill="#21417E" d="M735.627 62.425h35.604V26.824h-35.604v35.601zm-3.093 3.095h41.79V23.729h-41.79V65.52z"/>
        <path fill="#21417E" d="M732.985 26.369L771.682 65.066 773.872 62.879 735.174 24.182z"/>
        <path fill="#21417E" d="M732.985 62.879L735.174 65.066 773.872 26.369 771.682 24.182z"/>
        <path fill="#21417E" d="M774.324 62.425h35.604V26.824h-35.604v35.601zm-3.094 3.095h41.789V23.729H771.23V65.52z"/>
        <path fill="#21417E" d="M771.682 26.369L810.377 65.066 812.567 62.879 773.871 24.182z"/>
        <path fill="#21417E" d="M771.682 62.879L773.871 65.066 812.567 26.369 810.377 24.182z"/>
        <path fill="#21417E" d="M813.019 62.425h35.605V26.824h-35.605v35.601zm-3.091 3.095h41.79V23.729h-41.79V65.52z"/>
        <path fill="#21417E" d="M810.378 26.369L849.076 65.066 851.267 62.879 812.567 24.182z"/>
        <path fill="#21417E" d="M810.378 62.879L812.567 65.066 851.267 26.369 849.076 24.182z"/>
        <path fill="#21417E" d="M851.718 62.425h35.604V26.824h-35.604v35.601zm-3.093 3.095h41.79V23.729h-41.79V65.52z"/>
        <path fill="#21417E" d="M849.076 26.369L887.773 65.066 889.963 62.879 851.266 24.182z"/>
        <path fill="#21417E" d="M849.076 62.879L851.266 65.066 889.963 26.369 887.773 24.182zM890.378 294.824h35.604v-35.602h-35.604v35.602zm-3.092 3.094h41.787v-41.79h-41.787v41.79z"/>
        <path fill="#21417E" d="M887.736 258.769L926.433 297.465 928.621 295.279 889.925 256.581z"/>
        <path fill="#21417E" d="M887.736 295.279L889.925 297.466 928.621 258.769 926.433 256.582z"/>
        <path fill="#21417E" d="M890.378 333.521h35.604v-35.603h-35.604v35.603zm-3.092 3.095h41.787v-41.792h-41.787v41.792z"/>
        <path fill="#21417E" d="M887.736 297.465L926.433 336.162 928.621 333.974 889.925 295.278z"/>
        <path fill="#21417E" d="M887.736 333.974L889.925 336.162 928.621 297.465 926.433 295.279zM890.376 140.038h35.605v-35.604h-35.605v35.604zm-3.094 3.094h41.791v-41.793h-41.791v41.793z"/>
        <path fill="#21417E" d="M887.734 140.491L889.923 142.678 928.623 103.98 926.433 101.793z"/>
        <path fill="#21417E" d="M887.734 103.98L926.433 142.677 928.623 140.491 889.923 101.792z"/>
        <path fill="#21417E" d="M890.376 101.339h35.605V65.737h-35.605v35.602zm-3.094 3.095h41.791V62.643h-41.791v41.791z"/>
        <path fill="#21417E" d="M887.734 101.793L889.923 103.981 928.623 65.284 926.433 63.096z"/>
        <path fill="#21417E" d="M887.734 65.284L926.433 103.98 928.623 101.793 889.923 63.097z"/>
        <path fill="#21417E" d="M890.376 62.643h35.605V27.04h-35.605v35.603zm-3.094 3.094h41.791V23.945h-41.791v41.792z"/>
        <path fill="#21417E" d="M887.734 63.097L889.923 65.284 928.623 26.586 926.433 24.399z"/>
        <path fill="#21417E" d="M887.734 26.585L926.433 65.283 928.623 63.096 889.923 24.398zM890.376 178.733h35.605v-35.601h-35.605v35.601zm-3.094 3.096h41.791v-41.791h-41.791v41.791z"/>
        <path fill="#21417E" d="M887.734 179.188L889.923 181.375 928.623 142.677 926.433 140.491z"/>
        <path fill="#21417E" d="M887.734 142.677L926.433 181.374 928.623 179.188 889.923 140.49z"/>
        <path fill="#21417E" d="M890.376 217.431h35.605v-35.602h-35.605v35.602zm-3.094 3.094h41.791v-41.792h-41.791v41.792z"/>
        <path fill="#21417E" d="M887.734 217.884L889.923 220.072 928.623 181.374 926.433 179.188z"/>
        <path fill="#21417E" d="M887.734 181.375L926.433 220.071 928.623 217.885 889.923 179.188z"/>
        <path fill="#21417E" d="M890.376 256.129h35.605v-35.604h-35.605v35.604zm-3.094 3.093h41.791V217.43h-41.791v41.792z"/>
        <path fill="#21417E" d="M887.734 256.582L889.923 258.769 928.623 220.071 926.433 217.885z"/>
        <path fill="#21417E" d="M887.734 220.072L926.433 258.769 928.623 256.582 889.923 217.884zM890.378 410.915h35.604v-35.602h-35.604v35.602zm-3.092 3.094h41.787v-41.791h-41.787v41.791z"/>
        <path fill="#21417E" d="M887.736 374.859L926.433 413.556 928.621 411.369 889.925 372.671z"/>
        <path fill="#21417E" d="M887.736 411.369L889.925 413.557 928.621 374.859 926.433 372.672z"/>
        <path fill="#21417E" d="M890.378 449.61h35.604v-35.601h-35.604v35.601zm-3.092 3.096h41.787v-41.791h-41.787v41.791z"/>
        <path fill="#21417E" d="M887.736 413.556L926.433 452.251 928.621 450.065 889.925 411.368z"/>
        <path fill="#21417E" d="M887.736 450.065L889.925 452.252 928.621 413.556 926.433 411.369zM890.376 372.219h35.605v-35.603h-35.605v35.603zm-3.094 3.094h41.791v-41.792h-41.791v41.792z"/>
        <path fill="#21417E" d="M887.734 372.671L889.923 374.859 928.623 336.16 926.433 333.974z"/>
        <path fill="#21417E" d="M887.734 336.161L926.433 374.859 928.623 372.672 889.923 333.974zM155.019 294.824h35.604v-35.602h-35.604v35.602zm-3.094 3.094h41.792v-41.79h-41.792v41.79z"/>
        <path fill="#21417E" d="M152.38 258.769L191.075 297.465 193.265 295.279 154.567 256.581z"/>
        <path fill="#21417E" d="M152.38 295.279L154.567 297.466 193.265 258.769 191.075 256.582z"/>
        <path fill="#21417E" d="M155.019 333.521h35.604v-35.603h-35.604v35.603zm-3.094 3.095h41.792v-41.792h-41.792v41.792z"/>
        <path fill="#21417E" d="M152.38 297.465L191.075 336.162 193.265 333.974 154.567 295.278z"/>
        <path fill="#21417E" d="M152.38 333.974L154.567 336.162 193.265 297.465 191.075 295.279zM155.019 140.038h35.603v-35.604h-35.603v35.604zm-3.094 3.094h41.792v-41.793h-41.792v41.793z"/>
        <path fill="#21417E" d="M152.38 140.491L154.567 142.678 193.264 103.98 191.075 101.793z"/>
        <path fill="#21417E" d="M152.38 103.98L191.075 142.677 193.264 140.491 154.567 101.792z"/>
        <path fill="#21417E" d="M155.019 101.339h35.603V65.737h-35.603v35.602zm-3.094 3.095h41.792V62.643h-41.792v41.791z"/>
        <path fill="#21417E" d="M152.38 101.793L154.567 103.981 193.264 65.284 191.075 63.096z"/>
        <path fill="#21417E" d="M152.38 65.284L191.075 103.98 193.264 101.793 154.567 63.097z"/>
        <path fill="#21417E" d="M155.019 62.643h35.603V27.04h-35.603v35.603zm-3.094 3.094h41.792V23.945h-41.792v41.792z"/>
        <path fill="#21417E" d="M152.38 63.097L154.567 65.284 193.264 26.586 191.075 24.399z"/>
        <path fill="#21417E" d="M152.38 26.585L191.075 65.283 193.264 63.096 154.567 24.398zM155.019 178.733h35.603v-35.601h-35.603v35.601zm-3.094 3.096h41.792v-41.791h-41.792v41.791z"/>
        <path fill="#21417E" d="M152.38 179.188L154.567 181.375 193.264 142.677 191.075 140.491z"/>
        <path fill="#21417E" d="M152.38 142.677L191.075 181.374 193.264 179.188 154.567 140.49z"/>
        <path fill="#21417E" d="M155.019 217.431h35.603v-35.602h-35.603v35.602zm-3.094 3.094h41.792v-41.792h-41.792v41.792z"/>
        <path fill="#21417E" d="M152.38 217.884L154.567 220.072 193.264 181.374 191.075 179.188z"/>
        <path fill="#21417E" d="M152.38 181.375L191.075 220.071 193.264 217.885 154.567 179.188z"/>
        <path fill="#21417E" d="M155.019 256.129h35.603v-35.604h-35.603v35.604zm-3.094 3.093h41.792V217.43h-41.792v41.792z"/>
        <path fill="#21417E" d="M152.38 256.582L154.567 258.769 193.264 220.071 191.075 217.885z"/>
        <path fill="#21417E" d="M152.38 220.072L191.075 258.769 193.264 256.582 154.567 217.884zM155.018 410.915h35.603v-35.602h-35.603v35.602zm-3.093 3.094h41.789v-41.791h-41.789v41.791z"/>
        <path fill="#21417E" d="M152.377 374.859L191.072 413.556 193.262 411.369 154.566 372.671z"/>
        <path fill="#21417E" d="M152.377 411.369L154.566 413.557 193.262 374.859 191.072 372.672z"/>
        <path fill="#21417E" d="M155.018 449.61h35.603v-35.601h-35.603v35.601zm-3.093 3.096h41.789v-41.791h-41.789v41.791z"/>
        <path fill="#21417E" d="M152.377 413.556L191.072 452.251 193.262 450.065 154.566 411.368z"/>
        <path fill="#21417E" d="M152.377 450.065L154.566 452.252 193.262 413.556 191.072 411.369zM155.018 372.219h35.604v-35.603h-35.604v35.603zm-3.093 3.094h41.791v-41.792h-41.791v41.792z"/>
        <path fill="#21417E" d="M152.377 372.671L154.566 374.859 193.264 336.16 191.075 333.974z"/>
        <path fill="#21417E" d="M152.377 336.161L191.075 374.859 193.264 372.672 154.566 333.974zM541.542 101.339h35.605V65.737h-35.605v35.602zm-3.091 3.095h41.79V62.643h-41.79v41.791z"/>
        <path fill="#21417E" d="M538.902 101.793L541.09 103.981 579.789 65.284 577.599 63.096z"/>
        <path fill="#21417E" d="M538.902 65.284L577.599 103.98 579.789 101.793 541.09 63.097zM541.544 294.824h35.604v-35.602h-35.604v35.602zm-3.092 3.094h41.789v-41.79h-41.789v41.79z"/>
        <path fill="#21417E" d="M538.904 258.769L577.599 297.465 579.789 295.279 541.093 256.581z"/>
        <path fill="#21417E" d="M538.904 295.279L541.093 297.466 579.789 258.769 577.599 256.582z"/>
        <path fill="#21417E" d="M541.544 333.521h35.604v-35.603h-35.604v35.603zm-3.092 3.095h41.789v-41.792h-41.789v41.792z"/>
        <path fill="#21417E" d="M538.904 297.465L577.599 336.162 579.789 333.974 541.093 295.278z"/>
        <path fill="#21417E" d="M538.904 333.974L541.093 336.162 579.789 297.465 577.599 295.279zM541.542 140.038h35.605v-35.604h-35.605v35.604zm-3.091 3.094h41.79v-41.793h-41.79v41.793z"/>
        <path fill="#21417E" d="M538.902 140.491L541.09 142.678 579.789 103.98 577.599 101.793z"/>
        <path fill="#21417E" d="M538.902 103.98L577.599 142.677 579.789 140.491 541.09 101.792zM541.542 62.643h35.605V27.04h-35.605v35.603zm-3.091 3.094h41.79V23.945h-41.79v41.792z"/>
        <path fill="#21417E" d="M538.902 63.097L541.09 65.284 579.789 26.586 577.599 24.399z"/>
        <path fill="#21417E" d="M538.902 26.585L577.599 65.283 579.789 63.096 541.09 24.398zM541.542 178.733h35.605v-35.601h-35.605v35.601zm-3.091 3.096h41.79v-41.791h-41.79v41.791z"/>
        <path fill="#21417E" d="M538.902 179.188L541.09 181.375 579.789 142.677 577.599 140.491z"/>
        <path fill="#21417E" d="M538.902 142.677L577.599 181.374 579.789 179.188 541.09 140.49z"/>
        <path fill="#21417E" d="M541.542 217.431h35.605v-35.602h-35.605v35.602zm-3.091 3.094h41.79v-41.792h-41.79v41.792z"/>
        <path fill="#21417E" d="M538.902 217.884L541.09 220.072 579.789 181.374 577.599 179.188z"/>
        <path fill="#21417E" d="M538.902 181.375L577.599 220.071 579.789 217.885 541.09 179.188z"/>
        <path fill="#21417E" d="M541.542 256.129h35.605v-35.604h-35.605v35.604zm-3.091 3.093h41.79V217.43h-41.79v41.792z"/>
        <path fill="#21417E" d="M538.902 256.582L541.09 258.769 579.789 220.071 577.599 217.885z"/>
        <path fill="#21417E" d="M538.902 220.072L577.599 258.769 579.789 256.582 541.09 217.884zM541.544 410.915h35.604v-35.602h-35.604v35.602zm-3.092 3.094h41.789v-41.791h-41.789v41.791z"/>
        <path fill="#21417E" d="M538.904 374.859L577.599 413.556 579.789 411.369 541.093 372.671z"/>
        <path fill="#21417E" d="M538.904 411.369L541.093 413.557 579.789 374.859 577.599 372.672z"/>
        <path fill="#21417E" d="M541.544 449.61h35.604v-35.601h-35.604v35.601zm-3.092 3.096h41.789v-41.791h-41.789v41.791z"/>
        <path fill="#21417E" d="M538.904 413.556L577.599 452.251 579.789 450.065 541.093 411.368z"/>
        <path fill="#21417E" d="M538.904 450.065L541.093 452.252 579.789 413.556 577.599 411.369zM541.542 372.219h35.605v-35.603h-35.605v35.603zm-3.091 3.094h41.79v-41.792h-41.79v41.792z"/>
        <path fill="#21417E" d="M538.902 372.671L541.09 374.859 579.789 336.16 577.599 333.974z"/>
        <path fill="#21417E" d="M538.902 336.161L577.599 374.859 579.789 372.672 541.09 333.974z"/>
        <g transform="translate(0 .434)">
            <path fill="#2B1F58" d="M741.303 39.713c-4.489.016-8.505.945-11.178 2.394h-.01c-2.118 1.148-3.381 2.625-3.375 4.222l.121 28.233 29.182-.097-.124-28.23c-.011-3.626-6.554-6.548-14.615-6.522"/>
            <path fill="#2B1F58" d="M758.372 68.856l-7.35-1.567-.007-2.41c-.002-.502-1.341-.93-3.225-1.034l-13.478.04c-1.863.12-3.178.556-3.174 1.051l.008 2.551-7.144 1.948c-.882.239-1.643 1.33-1.832 2.626l.018 8.9c.205 1.177.967 1.838 1.84 1.6l7.283-1.985.012 3.56c.004.713 1.342 1.325 3.227 1.476l13.477-.035c1.863-.168 3.177-.787 3.174-1.493l-.013-3.647 7.213 1.54c.898.19 1.673-.526 1.867-1.728l-.018-8.894c-.208-1.273-.985-2.31-1.878-2.499"/>
            <path fill="#2E3A86" d="M738.355 49.115c0 1.583 1.282 2.864 2.863 2.864 1.58 0 2.865-1.281 2.865-2.864v-25.82h-5.728v25.82zM331.98 49.115c0 1.583 1.282 2.864 2.862 2.864 1.582 0 2.865-1.281 2.865-2.864v-25.82h-5.728v25.82z"/>
            <path fill="#2B1F58" d="M319.789 34.129l-.004.008c-2.571 1.621-5.347 4.669-7.557 8.577-3.967 7.017-4.62 14.154-1.464 15.938l32.067 18.13 14.362-25.403-32.07-18.13c-1.39-.787-3.296-.407-5.334.88"/>
            <path fill="#4D8FC8" d="M357.307 46.063c-1.225-.47-2.548-.34-3.188.311l-5.195 5.279-2.22-1.255c-.43-.245-1.454.688-2.47 2.255l-6.627 11.735c-.832 1.694-1.113 3.072-.677 3.319l2.099 1.184-2.23 7.178c-.272.87.252 2.055 1.26 2.86l7.748 4.367c1.143.418 2.147.093 2.421-.784l2.185-7.043 3.174 1.794c.615.349 1.797-.496 2.856-2.037l6.625-11.737c.79-1.716.911-3.184.292-3.534l-3.1-1.753 5.295-5.38c.635-.646.43-1.635-.495-2.388l-7.753-4.37z"/>
            <path fill="#2E3A86" d="M324.086 49.115c0 1.583 1.28 2.864 2.864 2.864 1.58 0 2.864-1.281 2.864-2.864v-25.82h-5.728v25.82z"/>
            <path fill="#FFD974" d="M354.834 55.33c-2.566-1.45-6.847 1.267-9.563 6.068-2.713 4.803-2.834 9.87-.268 11.323 2.565 1.45 6.846-1.267 9.56-6.07 2.715-4.801 2.835-9.871.27-11.32"/>
            <path fill="#A74D3B" d="M401.954 241.045c-8.486 3.942-4.84 17.373 14.809 40.161 24.45 28.36 30.23 5.584 24.089-4.936-6.138-10.524-27.786-40.388-38.898-35.225"/>
            <path fill="#FFF" d="M487.387 288.608c-6.22-3.324-8.618-4.324-10.76-5.058-2.142-.735-6.603 6.76-4.25 10.017 2.352 3.257 11.323 13.44 15.498 7.924 4.175-5.517 5.73-9.561-.488-12.883"/>
            <path fill="#A74D3B" d="M436.504 272.993c-13.803-.214-20.492 23.997 7.019 22.412 0 0 26.74-.278 29.374.787 0 0 8.74-5.06 7.61-12.922 0 0-39.897-10.214-44.003-10.277M391.377 306.11l-42.486 15.575s21.94 36.205 49.844 51.53c27.904 15.326 39.17.506 32.45-14.986-6.718-15.491-39.808-52.12-39.808-52.12"/>
            <path fill="#732622" d="M348.89 321.686s21.941 36.205 49.845 51.53c.064.035.128.065.192.1-1.425-4.242-2.208-8.72-2.253-13.235-.12-12.231 6.27-22.682 15.536-29.475-10.359-12.9-20.834-24.496-20.834-24.496l-42.486 15.576z"/>
            <path fill="#FFF" d="M420.793 440.907h-9.261l3.976-10.455-16.316-3.484 1.462 20.125c.357 1.902 2.678 3.793 4.655 3.793h28.868c1.208 0 1.747-1.51.81-2.272-3.621-2.945-10.107-7.707-14.194-7.707M328.67 434.394l-5.963-4.836 8.443-6.613-7.552-9.994-14.466 13.563c-.921 1.703-.31 4.632 1.226 5.878l22.422 18.184c.938.759 2.308-.075 2.06-1.255-.957-4.568-2.996-12.354-6.17-14.927"/>
            <path fill="#A74D3B" d="M399.88 373.174c-2.958 18.076-2.32 59.947-2.32 59.947 9.909 5.876 20.882.444 20.882.444 2.015-9.686 10.792-48.058 14.332-64.791 3.843-18.177-29.936-13.673-32.894 4.4"/>
            <path fill="#E99A92" d="M337.783 304.676s1.91 42.293 19.058 69.114c17.148 26.823 34.139 19.212 35.665 2.394 1.524-16.816-9.967-64.82-9.967-64.82l-44.756-6.688z"/>
            <path fill="#FFF" d="M436.687 218.156c-8.523 21.81-28.186 20.15-28.186 20.15-.574 15.755 11.286 20.046 11.286 20.046s-.732-.088 1.89-8.54c2.622-8.45 12.362-1.697 16.304 2.367 3.94 4.065 12.498-6.5 12.498-6.5l3.34 1.721c.428-5.348 4.738-8.308 7.003-18.257 2.262-9.947-20.05-21.437-24.135-10.987"/>
            <path fill="#D7504A" d="M414.62 236.826c-28.341.122-47.992 12.383-58.333 22.385-43.562 42.132-13.102 87.203-13.102 87.203 27.488 2.024 68.84-22.55 68.84-22.55-6.073-24.759 10.367-72.379 10.367-72.379-7.937-9.506-7.771-14.659-7.771-14.659"/>
            <path fill="#732622" d="M391.842 287.241c.928-11.816 2.042-18.564 9.424-27.602-5.508 1.577-7.092-12.23-12.795-12.442-3.49 7.841-34.817 34.632-37.323 50.035-1.16 7.113 7.053 19.138 17.037 23.253 8.98 3.703 32.878 13.147 34.777 6.554 1.523-5.289-11.54-34.45-11.12-39.798"/>
            <path fill="#FFAF6E" d="M446.612 328.98c-6.078-2.235-3.168-6.272-10.85-6.272-4.953 0-.342-4.462 1.18-10.995 1.686-7.227-5.03-7.941-3.286-12.902 1.741-4.96 3.87-2.784 7.318-3.044 4.18-.318 1.607-8.504-6.336-5.914-5.157 1.682-13.47 14.75-18.119 16.862-4.648 2.11-15.68-6.935-28.863 2.192-13.18 9.126-9.462 26.334-5.523 33.089 3.291 5.642 13.08 17.707 26.568 13.47 13.488-4.234 13.392-19.357 21.272-20.024 6.746-.567 14.27.176 17.826-3.863.858-.971.065-2.137-1.187-2.6"/>
            <path fill="#FFF" d="M436.792 328.347c-4.282-2.144-6.141-6.052-6.141-6.052s.14-15.36-1.223-18.635c-1.1-2.637-5.957 3.686-8.241 5.39-7.851 5.87-10.644 3.062-18.97 4.065-12.342 1.486-5.56 10.657-5.56 10.657 1.672 2.187 6.918 7.093 7.655 9.774.737 2.685-2.253 12.352 3.007 16.15 5.262 3.797 16.46-14.57 18.856-17.115 2.397-2.547 17.033-1.022 10.617-4.234"/>
            <path fill="#FFF" d="M390.092 336.171c5.886 14.428 21.024 1.179 21.024 1.179l-5.917-16.148s-19.906 3.202-15.107 14.969"/>
            <path fill="#732622" d="M396.098 333.777c2.317 5.686 8.281.466 8.281.466l-2.33-6.362s-7.844 1.262-5.951 5.896M418.688 318.194c-.26-.637-.999-.959-1.649-.723-.655.238-.97.946-.712 1.581l4.658 11.386c.261.637 1 .96 1.651.721.651-.237.971-.945.71-1.579l-4.658-11.386zM412.789 320.468c-.26-.637-1.001-.958-1.651-.721-.653.24-.97.946-.71 1.58l4.658 11.387c.26.636.999.959 1.649.722.653-.238.973-.947.712-1.582l-4.658-11.386zM406.89 322.744c-.26-.636-1.002-.959-1.652-.723-.652.24-.97.946-.71 1.583l4.656 11.386c.261.635 1.001.958 1.651.72.655-.237.971-.945.71-1.58l-4.655-11.386zM497.87 280.693L498.039 284.255 498.888 284.256 498.72 280.697zM500.593 280.573L500.762 284.135 501.611 284.136 501.443 280.576zM503.299 280.124L503.466 283.684 504.317 283.686 504.147 280.126zM506.005 279.673L506.172 283.235 507.023 283.236 506.854 279.675zM508.711 279.222L508.881 282.784 509.731 282.785 509.562 279.226zM511.435 279.173L511.606 282.734 512.454 282.735 512.286 279.175z"/>
            <path fill="#D7504A" d="M514.037 281.139l-18.061 1.58c-1.484.129-2.585 1.353-2.517 2.796l.039.847 1.792 5.015 2.176 1.238c1.717.979 3.874.749 5.28-.56l2.479-2.303c1.988-1.847 4.927-2.386 7.537-1.384 1.266.488 2.69.277 3.72-.547l.382-.308c1.277-1.025 1.67-2.766.954-4.25-.68-1.408-2.2-2.26-3.781-2.124"/>
            <path fill="#D7504A" d="M422.144 317.72c-.658.288-.96 1.02-.706 1.682l2.352 6.056c.298.765 1.216 1.12 1.958.756l70.958-34.733-2.154-5.657-72.408 31.896z"/>
            <path fill="#A74D3B" d="M360.811 263.483c-34.116 26.757-10.346 32.601 1.894 25.827 12.24-6.774 47.581-30.541 43.591-42.409-3.046-9.062-18.07-4.92-45.485 16.582"/>
            <path fill="#FFF" d="M416.504 317.628c-1.33.329-3.833.604-5.887-2.85-2.054-3.452-7.184-3.728-7.184-3.728s-7.738 5.057-7.188 5.737c.55.681 3.28 2.772 3.862 9.797.578 7.028 4.909 7.208 11.629 5.565 6.72-1.64 2.452-11.063 2.452-11.063 3.687.546 3.644-3.786 2.316-3.458"/>
            <path fill="#A74D3B" d="M344.528 289.153c6.658 8.922 11.987 13.612 37.514 24 0 0 13.843 5.238 15.762 7.332 0 0 7.04-5.416 8.114-10.55 0 0-31.444-27.925-35.124-29.745-12.373-6.122-30.716 3-26.266 8.963"/>
            <path fill="#FFD974" d="M433.115 218.274c-1.813 5.749-2.387 9.343-2.387 9.343s10.837 1.143 12.24 1.547c3.464.994-1.246 7.299-1.246 7.299 14.5 4.493 20.237-2.4 20.872-8.073 1.908-17.038-26.003-21.153-29.479-10.116"/>
            <path fill="#E99A92" d="M359.55 369.147c-14.913 10.632-46.968 42.808-46.968 42.808 3.83 13.326 15.239 16.12 15.239 16.12 8.295-5.392 43.652-29.406 58.023-38.68 15.608-10.071-11.38-30.878-26.293-20.248"/>
            <path fill="#FFA098" d="M683.869 321.095l-84.967.665h-.002l1.021 130.503h.002l84.967.009-1.019-131.177h-.002"/>
            <path fill="#732622" d="M656.22 337.055c-9.744.076-17.579 8.036-17.502 17.778.077 9.742 8.035 17.576 17.778 17.5 9.743-.077 17.577-8.035 17.5-17.776-.077-9.742-8.038-17.577-17.776-17.502"/>
            <path fill="#FFA098" d="M656.397 359.777c-2.805.022-5.102-2.24-5.124-5.042-.022-2.805 2.24-5.104 5.044-5.124 2.802-.022 5.101 2.24 5.124 5.044.022 2.804-2.242 5.101-5.044 5.122m-.116-14.698c-5.3.042-9.583 4.387-9.538 9.69.04 5.302 4.388 9.581 9.686 9.54 5.307-.04 9.583-4.388 9.544-9.69-.044-5.303-4.39-9.58-9.692-9.54"/>
            <path fill="#D7504A" d="M621.49 330.127c-6.247.049-11.27 5.15-11.219 11.396.048 6.244 5.15 11.265 11.396 11.215 6.244-.048 11.265-5.149 11.215-11.393-.046-6.244-5.15-11.266-11.393-11.218"/>
            <path fill="#FFA098" d="M621.595 343.463c-1.119.008-2.04-.896-2.047-2.014-.01-1.119.894-2.036 2.014-2.045 1.12-.008 2.034.896 2.047 2.014.006 1.117-.9 2.036-2.014 2.045m-.07-8.589c-3.615.027-6.538 2.994-6.509 6.61.03 3.619 2.997 6.539 6.612 6.509 3.62-.027 6.536-2.994 6.507-6.611-.024-3.618-2.994-6.537-6.61-6.508"/>
            <path fill="#D7504A" d="M641.84 379.278c-17.825.142-32.157 14.7-32.02 32.522.143 17.821 14.705 32.156 32.526 32.018 17.82-.14 32.155-14.702 32.014-32.524-.138-17.82-14.7-32.157-32.52-32.016"/>
            <path fill="#FFA098" d="M642.178 422.73c-6.164.045-11.218-4.93-11.266-11.095-.05-6.164 4.928-11.22 11.09-11.265 6.165-.05 11.219 4.924 11.27 11.09.048 6.165-4.928 11.22-11.094 11.27m-.211-26.893c-8.662.069-15.655 7.172-15.585 15.834.067 8.663 7.17 15.658 15.832 15.589 8.664-.068 15.655-7.172 15.59-15.835-.07-8.663-7.173-15.658-15.837-15.588"/>
            <path fill="#FF8E69" d="M711.385 342.552c-4.823 15.113 6.034 26.964 30.417 9.976 24.384-16.988 36.02-42.842 36.02-42.842l-32.425-22.922s-29.19 40.674-34.012 55.788"/>
            <path fill="#FFD974" d="M801.567 173.678c-7-2.187-24.203-1.565-24.774 16.396-.7 21.94 16.588 19.345-1.537 41.408 0 0 30.29 13.463 36.05-20.21 5.135-30.006-5.26-36.196-9.739-37.594"/>
            <path fill="#C85041" d="M714.486 249.687c-7.613 8.606-10.612 27.729 20.247 9.95 24.798-14.287 30.941-24.425 25.626-30.204-9.763-10.615-38.538 11.964-45.873 20.254"/>
            <path fill="#F3AB55" d="M730.65 304.888c11.913 17.709 35.46 26.562 35.46 26.562 6.948-5.448 26.88-33.243 26.88-33.243l-40.843-28.518-21.497 35.199z"/>
            <path fill="#FF8E69" d="M740.648 338.04c-38.297-4.652-37.138 21.908-14.329 26.586 19.621 4.025 68.114 13.754 77.984 18.352 9.871 4.598 9.557 26.81 17.22 27.79l4.55-35.616-15.877-1.137s-31.253-31.323-69.548-35.975"/>
            <path fill="#F36B53" d="M760.025 347.835c-1.506 19.974-5.012 69.31-8.322 79.683-3.312 10.374-25.384 12.875-25.384 20.6h35.903l-.882-15.892s27.11-34.969 26.872-73.546c-.239-38.577-26.439-34.062-28.187-10.845"/>
            <path fill="#18336D" d="M751.533 427.96c-3.79 10-25.214 12.545-25.214 20.158h35.903l-.881-15.892s1.18-1.528 3.033-4.266h-12.841z"/>
            <path fill="#E99A92" d="M754.336 441.132s-3.973-2.49-3.973-.295c0 2.194 3.973 4.563 3.973 4.563s3.973-2.37 3.973-4.563c0-2.194-3.973.295-3.973.295"/>
            <mask id="prefix__b" fill="#fff">
                <use xlink:href="#prefix__a"/>
            </mask>
            <path fill="#FFF" d="M726.319 451.256L762.134 451.256 762.134 448.118 726.319 448.118z" mask="url(#prefix__b)"/>
            <path fill="#F36B53" d="M764.712 290.231s-7.591 49.483-5.042 65.142c2.548 15.66 17.596 21.303 31.635-4.887 14.04-26.192 12.699-54.513 12.699-54.513l-39.292-5.742z" mask="url(#prefix__b)"/>
            <path fill="#18336D" d="M807.227 371.276l-2.507 11.925c9.44 5.027 9.251 26.6 16.802 27.565l4.55-35.614-15.876-1.138s-.487-.552-2.969-2.738" mask="url(#prefix__b)"/>
            <path fill="#FFD974" d="M757.335 323.826c18.646 10.388 43.646 7.61 43.646 7.61 3.726-8.004 7.925-37.237 7.925-37.237l-48.356-11.493-3.215 41.12z" mask="url(#prefix__b)"/>
            <path fill="#FFF" d="M805.894 240.683c1.267-22.032-14.447-16.267-21.033-17.198-6.02-.852-11.352-1.427-16.502-1.624-16.419-.626-27.249 6.36-27.249 6.36 7.018 23.473-11.882 65.256-3.117 64.646 27.743-1.936 66.598 25.998 66.598 25.998 25.936-11.988.037-56.15 1.303-78.182" mask="url(#prefix__b)"/>
            <path fill="#F36B53" d="M794.802 224.15c-7.486-.556-10.293 4.813-10.293 16.994 0 12.183 4.61 18.87 9.469 20.435 11.183 3.601 10.06-5.123 10.06-17.306 0-12.184-4.15-19.744-9.236-20.123" mask="url(#prefix__b)"/>
            <path fill="#C85041" d="M787.684 237.132c-.489-4.293-.324-7.961 1.365-11.701-3.225 2.24-4.54 7.38-4.54 15.714 0 12.18 4.611 18.869 9.468 20.434 5.42 1.745 7.936.577 9.104-2.456-.757-.403-1.507-.832-2.24-1.323-6.797-4.536-12.227-12.46-13.157-20.668" mask="url(#prefix__b)"/>
            <path fill="#F36B53" d="M807.148 193.804c-7.662 7.989-27.806 38.518-16.428 47.377 6.197 4.825 15.797-2.128 28.002-28.014 15.193-32.213-3.62-27.656-11.574-19.363" mask="url(#prefix__b)"/>
            <path fill="#F36B53" d="M825.02 153.427s-3.723-1.092-7.897-.024c0 0-11.216 37.63-11.229 41.003-.038 11.34 10.8 17.885 14.347 12.907 4.87-6.836 6.376-14.737 4.8-37.32 0 0-.873-14.392-.022-16.566" mask="url(#prefix__b)"/>
            <path fill="#F36B53" d="M817.467 138.3s-4.575-2.46-7.274-.422c-2.7 2.038-.622 3.029-.465 5.08.156 2.05-3.615 5.023.077 7.532 3.69 2.509 4.413 1.957 4.413 1.957s-1.701 3.09 1.29 6.417c2.994 3.329 9.032 1.79 9.512-5.437.4-6.035-2.922-12.171-5.095-23.337-2.605-13.387-2.458 8.21-2.458 8.21M784.108 195.655c.77-5.29-3.094-1.715-3.094-1.715s.882-25.58-14.89-8.037c-2.58 2.87-5.413 8.606-4.13 14.87 1.283 6.265 6.134 3.988 9.091 3.693 2.957-.296 4.924 14.154-5.526 17.226-8.31 2.442-.416 25.975-.416 25.975s7.052-13.895 20.665-24.008c0 0-5.88-8.763-5.88-23.032 0 0 3.6-.988 4.18-4.972" mask="url(#prefix__b)"/>
            <path fill="#FFD974" d="M763.83 180.036c-4.647 6.076-12.574 7.221-12.574 7.221 11.896 5.33 26.226-4.61 26.226-4.61 3.232 5.38 3.828 10.92 3.828 10.92s12.382-8.996 4.103-18.079c-8.283-9.085-16.935-1.529-21.583 4.548" mask="url(#prefix__b)"/>
            <path fill="#E99A92" d="M817.21 376.389c-2.083-.69-.97 3.865-.97 3.865s-3.611 2.989-1.528 3.679 5.582-2.338 5.582-2.338-1-4.516-3.084-5.206" mask="url(#prefix__b)"/>
            <path fill="#FFF" d="M821.533 410.675L824.647 411.071 829.16 375.541 826.048 375.146z" mask="url(#prefix__b)"/>
            <path fill="#F36B53" d="M739.596 215.033c-2.59 1.232-28.647 27.114-30.22 46.602-.495 6.093 12.596 7.116 19.18-2.118 1.96-2.745 15.438-37.627 15.438-37.627-.865-4.219-4.399-6.857-4.399-6.857" mask="url(#prefix__b)"/>
            <path fill="#FFF" d="M681.053 451.004L682.822 451.508 746.226 228.525 744.457 228.023z" mask="url(#prefix__b)"/>
            <path fill="#141A35" d="M766.645 206.316c-3.39-.71-6.716 1.463-7.426 4.852-.71 3.39 1.462 6.714 4.853 7.425 3.39.71 6.715-1.462 7.425-4.851.711-3.391-1.46-6.715-4.852-7.425" mask="url(#prefix__b)"/>
            <path fill="#366963" d="M758.851 212.1l-21.348 17.145c-.55.493-.51 1.535.038 2.375.548.839 1.488 1.295 2.161.987l23.568-13.743c3.26-1.493-1.743-9.15-4.419-6.764" mask="url(#prefix__b)"/>
            <path fill="#F36B53" d="M755.178 209.35c-5.794-2.182-16.32 6.249-16.32 6.249s-.642 6.056 3.466 7.824c4.113 1.77 6.064-1.022 6.064-1.022s-.293.862 3.267 3.554c3.562 2.692 5.167-1.833 7.16-2.341 1.991-.51 7.274-1.122 5.084-3.7-3.183-3.745-2.926-8.38-8.72-10.563" mask="url(#prefix__b)"/>
            <path fill="#FFF" d="M607.278 449.951L607.554 451.769 685.566 439.895 685.289 438.077z" mask="url(#prefix__b)"/>
            <path fill="#FFF" d="M685.255 439.89L747.673 451.824 748.018 450.016 685.601 438.082z" mask="url(#prefix__b)"/>
            <path fill="#D7504A" d="M0 549L1459.592 549 1459.592 500.637 0 500.637z" mask="url(#prefix__b)"/>
            <path fill="#2E3A86" d="M1144.732 49.115c0 1.583 1.283 2.864 2.863 2.864 1.581 0 2.866-1.281 2.866-2.864v-25.82h-5.729v25.82z" mask="url(#prefix__b)"/>
            <path fill="#2B1F58" d="M1162.654 34.137l-.005-.008c-2.038-1.286-3.942-1.666-5.334-.88l-32.069 18.129 14.363 25.405 32.066-18.131c3.156-1.784 2.502-8.921-1.463-15.938-2.21-3.908-4.987-6.955-7.558-8.577" mask="url(#prefix__b)"/>
            <path fill="#2B1F58" d="M1144.833 64.388l-6.628-11.736c-1.018-1.565-2.041-2.499-2.471-2.254l-2.221 1.255-5.195-5.279c-.638-.65-1.964-.78-3.186-.31l-7.752 4.37c-.926.753-1.13 1.743-.496 2.387l5.295 5.38-3.1 1.753c-.62.35-.5 1.818.293 3.535l6.624 11.737c1.06 1.541 2.24 2.385 2.855 2.037l3.173-1.793 2.186 7.043c.274.876 1.279 1.202 2.422.783l7.748-4.367c1.008-.806 1.53-1.99 1.26-2.86l-2.23-7.178 2.097-1.185c.438-.246.157-1.625-.674-3.318" mask="url(#prefix__b)"/>
            <path fill="#2E3A86" d="M1152.626 49.115c0 1.583 1.28 2.864 2.863 2.864 1.582 0 2.865-1.281 2.865-2.864v-25.82h-5.728v25.82z" mask="url(#prefix__b)"/>
            <path fill="#FFA098" d="M1257.781 321.095l-84.967.665h-.001l1.022 130.503h.001l84.968.009-1.021-131.177h-.002" mask="url(#prefix__b)"/>
            <path fill="#732622" d="M1230.132 337.055c-9.743.076-17.578 8.036-17.501 17.778.076 9.742 8.034 17.576 17.777 17.5 9.743-.077 17.578-8.035 17.5-17.776-.075-9.742-8.038-17.577-17.776-17.502" mask="url(#prefix__b)"/>
            <path fill="#FFA098" d="M1230.31 359.777c-2.806.022-5.103-2.24-5.125-5.042-.022-2.805 2.24-5.104 5.044-5.124 2.802-.022 5.101 2.24 5.124 5.044.022 2.804-2.242 5.101-5.044 5.122m-.116-14.698c-5.3.042-9.583 4.387-9.538 9.69.04 5.302 4.388 9.581 9.686 9.54 5.307-.04 9.583-4.388 9.544-9.69-.044-5.303-4.39-9.58-9.692-9.54" mask="url(#prefix__b)"/>
            <path fill="#D7504A" d="M1195.401 330.127c-6.246.049-11.268 5.15-11.218 11.396.048 6.244 5.15 11.265 11.398 11.215 6.242-.048 11.263-5.149 11.215-11.393-.048-6.244-5.15-11.266-11.395-11.218" mask="url(#prefix__b)"/>
            <path fill="#FFA098" d="M1195.507 343.463c-1.118.008-2.04-.896-2.046-2.014-.011-1.119.894-2.036 2.014-2.045 1.118-.008 2.034.896 2.046 2.014.007 1.117-.9 2.036-2.014 2.045m-.067-8.589c-3.618.027-6.538 2.994-6.51 6.61.029 3.619 2.995 6.539 6.609 6.509 3.62-.027 6.538-2.994 6.509-6.611-.025-3.618-2.994-6.537-6.608-6.508" mask="url(#prefix__b)"/>
            <path fill="#D7504A" d="M1215.753 379.278c-17.824.142-32.158 14.7-32.02 32.522.142 17.821 14.704 32.156 32.525 32.018 17.82-.14 32.157-14.702 32.016-32.524-.14-17.82-14.701-32.157-32.521-32.016" mask="url(#prefix__b)"/>
            <path fill="#FFA098" d="M1216.09 422.73c-6.162.045-11.218-4.93-11.266-11.095-.05-6.164 4.928-11.22 11.092-11.265 6.162-.05 11.219 4.924 11.269 11.09.047 6.165-4.93 11.22-11.094 11.27m-.212-26.893c-8.662.069-15.655 7.172-15.585 15.834.068 8.663 7.17 15.658 15.832 15.589 8.664-.068 15.655-7.172 15.59-15.835-.07-8.663-7.173-15.658-15.837-15.588" mask="url(#prefix__b)"/>
            <path fill="#F36B53" d="M1059.891 272.392s-33.474 2.374-36.669.847c-4.88-2.335-6.182-4.44-11.128-5.167-2.05-.302-27.336-5.92-23.889-1.361 3.447 4.56 12.615 5.157 12.615 5.157s-15.677 1.577-14.38 4.466c1.298 2.892 18.344 2.189 18.344 2.189s-9.722 1.217-10.246 4.808c-.523 3.594 4.634 3.082 7.612 1.314 2.975-1.77 7.397-.833 7.397-.833 4.663 4.603 6.248 5.698 13.54 6.722 11.75 1.65 40.573 6.057 40.573 6.057s4.303-8.957 3.153-14.41c-1.436-6.8-6.922-9.79-6.922-9.79" mask="url(#prefix__b)"/>
            <path fill="#DA5442" d="M1059.891 272.392s-1.662.118-4.274.284c.073.695.125 1.4.132 2.124.084 7.405-3.434 14.067-8.562 19.292 8.934 1.346 16.473 2.499 16.473 2.499s4.305-8.957 3.153-14.41c-1.436-6.8-6.922-9.79-6.922-9.79" mask="url(#prefix__b)"/>
            <path fill="#18336D" d="M1102.828 271.495c-9.872-6.43-31.648-2.318-45.46.586l-2.146 25.82s14.89 3.58 35.364 1.143c23.29-2.773 18.526-23.456 12.242-27.549" mask="url(#prefix__b)"/>
            <path fill="#7BAC77" d="M1091.252 338.235s-47.478 10.478-62.166 18.788c-14.686 8.31-15.746 30.128 14.669 28.79 32.842-1.45 66.195-.318 69.479-14.47 4.94-21.274-21.982-33.108-21.982-33.108" mask="url(#prefix__b)"/>
            <path fill="#732622" d="M1058.764 426.514l-15.104 3.604 4.504 10.817h-7.342c-6.119 0-11.384 4.32-12.576 10.32h33.458c2.047 0 3.524-1.954 2.967-3.922l-5.907-20.82z" mask="url(#prefix__b)"/>
            <path fill="#7BAC77" d="M1019.896 377.7c5.82 16.083 20.15 49.291 23.486 58.606 0 0 10.464 5.861 20.295.248 0 0-5.164-41.556-10.595-59.047-5.43-17.49-39.509-17.275-33.186.193" mask="url(#prefix__b)"/>
            <path fill="#732622" d="M1099.342 422.828l-16.467 3.686 8.924 14.42h-12.866c-5.7 0-10.322 4.622-10.322 10.322h36.667c2.786 0 4.217-3.33 2.303-5.352l-8.24-23.076z" mask="url(#prefix__b)"/>
            <path fill="#9DCD9A" d="M1130.611 338.235s-59.655 12.143-74.343 20.45c-14.685 8.31-14.522 24.425 15.8 27.185 24.052 2.19 69.996 5.86 79.49-14.043 9.402-19.714-20.947-33.592-20.947-33.592" mask="url(#prefix__b)"/>
            <path fill="#9DCD9A" d="M1048.484 378.461c8.687 14.733 31.271 50.13 36.27 58.667 0 0 10.471 1.677 19.098-5.651 0 0-14.222-43.134-22.787-59.326-8.562-16.188-42.017-9.692-32.58 6.31" mask="url(#prefix__b)"/>
            <path fill="#18336D" d="M1092.163 268.307c-8.767.627-11.824 20.002-6.665 36.027l-9.493 37.518c36.036 25.792 78.245 23.174 78.245 23.174s3.524-37.836-5.107-85.845c-2.194-12.213-39.32-12.14-56.98-10.874" mask="url(#prefix__b)"/>
            <path fill="#0A1933" d="M1103.847 315.844c-1.8 20.13 48.774 45.848 50.607 46.42.34-5.313.903-18.014.076-35.21-17.416.567-34.43-4.106-50.683-11.21" mask="url(#prefix__b)"/>
            <path fill="#18336D" d="M1137.505 270.961s-18.604 25.985.223 34.391c18.826 8.402 29.764 12.318 29.764 12.318l20.297-17.343c-23.475-24.241-50.284-29.366-50.284-29.366" mask="url(#prefix__b)"/>
            <path fill="#732622" d="M1133.617 287.716c-.17.526.115 1.09.64 1.264.112.034.224.049.335.048.41-.011.792-.277.928-.69 0 0 22.347-65.858 20.79-66.5-1.555-.641-22.693 65.878-22.693 65.878" mask="url(#prefix__b)"/>
            <path fill="#313A89" d="M1101.696 267.393l.045.895c.241-.011 24.2-1.158 39.009 3.93l.291-.846c-14.973-5.146-39.102-3.994-39.345-3.98" mask="url(#prefix__b)"/>
            <path fill="#F36B53" d="M1120.042 257.709l-8.66-.578s-1.446 4.809-1.978 11.108c-.26 3.062 2.579 5.665 6.168 5.665 4.084 0 7.025-3.316 5.965-6.688-.902-2.873-1.186-5.001-1.495-9.507" mask="url(#prefix__b)"/>
            <path fill="#F36B53" d="M1132.12 240.034c0-12.874-13.987-15.889-20.45-12.088-6.462 3.801-6.997 11.283-6.462 15.053.557 3.946 2.469 8.982 2.469 8.982s-.127 11.112 10.074 13.9c8.893 2.432 13.91-4.03 15.509-8.818 1.597-4.79-.455-8.59-.61-10.87-.151-2.282-.53-6.159-.53-6.159" mask="url(#prefix__b)"/>
            <path fill="#313A89" d="M1126.656 253.07c-1.095-.866-2.438-1.347-3.832-1.347h-.521c-1.642 0-3.178.701-4.372 1.832-3.538 3.352-9.652.366-10.24-1.11.11 2.126 1.106 10.986 10.06 13.436 8.893 2.432 13.911-4.03 15.509-8.818.789-2.365.684-4.488.362-6.306-1.624 4.564-4.894 3.953-6.966 2.313M1111.67 227.946c-6.462 3.801-6.997 11.283-6.462 15.053.227 1.602 1.498 3.382 2.42 4.933.167.277.587.132.544-.189-.937-6.969.178-13.197 3.498-10.845 4.805 3.405 9.435 2.395 11.802 2.024 4.264-.667 7.649-4.322 8.425-1.542-1.785-10.618-14.237-12.957-20.227-9.434" mask="url(#prefix__b)"/>
            <path fill="#FFF" d="M1120.256 254.668c0 .017-.006.033-.006.051 0 1.283 1.044 2.324 2.328 2.324 1.286 0 2.327-1.041 2.327-2.324 0-.018-.005-.034-.005-.051h-4.644z" mask="url(#prefix__b)"/>
            <path fill="#313A89" d="M1128.856 227.696c3.04-2.71 2.127-12.262-10.382-9.15-12.582 3.13-13.423 16.36-13.417 21.688 0 0 3.25-10.196 17.696-4.738 4.398 1.661 19.751-2.194 9.892-15.994 0 0 1.787 6.916-3.789 8.194" mask="url(#prefix__b)"/>
            <path fill="#0A1933" d="M1128.965 298.088c.45.377 11.129 9.285 17.898 11.436l.27-.855c-6.601-2.096-17.483-11.176-17.593-11.268l-.575.687z" mask="url(#prefix__b)"/>
            <path fill="#F36B53" d="M1154.834 286.943c-2.595-4.169-2.563-6.413-5.992-9.384-1.422-1.232-18.028-17.869-17.616-12.699.413 5.17 7.135 10.101 7.135 10.101s-12.761-6.443-13.18-3.598c-.418 2.843 12.966 10.624 12.966 10.624s-8.032-3.812-10.184-1.319c-2.155 2.492 2.04 4.62 5.182 4.718 3.139.1 5.924 3.792 5.924 3.792 1.322 5.797 3.123 5.03 8.202 9.37 8.187 6.998 9.464 10.117 12.624 13.39 13.12 13.59 21.267 7.415 23.928 3.116 9.988-16.12-26.392-23.944-28.99-28.11" mask="url(#prefix__b)"/>
            <path fill="#732622" d="M989.246 214.567c-1.67.206 12.579 68.532 12.579 68.532.109.543.636.893 1.178.785.114-.02.22-.064.314-.12.355-.21.554-.629.47-1.056 0 0-12.87-68.347-14.541-68.141" mask="url(#prefix__b)"/>
            <path fill="#A74D3B" d="M1132.327 450.86L1134.806 450.86 1134.806 312.69 1132.327 312.69z" mask="url(#prefix__b)"/>
            <path fill="#FFD974" d="M1113.547 331.114c12.074 1.56 24.784 1.571 36.872.03l35.593-4.539h-107.367l34.902 4.51zM1114.235 319.375l-35.59 4.54h107.366l-34.904-4.512c-12.074-1.559-24.783-1.57-36.872-.028" mask="url(#prefix__b)"/>
            <path fill="#313A89" d="M964.205 308.761L966.336 310.024 973.394 298.128 971.262 296.865zM1044.713 332.224L1026.944 325.812 1026.104 328.146 1044.655 334.84 1058.37 330.563 1057.631 328.195z" mask="url(#prefix__b)"/>
            <path fill="#A74D3B" d="M1106.012 450.86L1108.493 450.86 1108.493 374.903 1106.012 374.903zM981.729 450.86L984.208 450.86 984.208 393.506 981.729 393.506z" mask="url(#prefix__b)"/>
            <path fill="#FFA098" d="M1024.028 302.266c-3.215-1.344-6.31-2.395-9.028-3.124-1.867-.507-3.589-.847-5.037-1.016-2.942-.357-4.882-.048-5.288 1.01l-13.12 34.466 35.414 14.83 13.142-34.455c.91-2.381-6.303-7.613-16.083-11.711" mask="url(#prefix__b)"/>
            <path fill="#732622" d="M1011.368 335.604c-7.202-3.018-16.007-5.398-19.443-3.932-.951.407-1.355 1.035-1.53 1.49-1.62 4.256 9.773 10.346 16.759 13.272 5.698 2.387 12.402 4.378 16.651 4.378 1.123 0 2.076-.14 2.792-.448.951-.406 1.355-1.035 1.53-1.49 1.623-4.257-9.771-10.344-16.759-13.27" mask="url(#prefix__b)"/>
            <path fill="#732622" d="M1013.164 330.778c-.727-.304-1.548.066-1.837.826l-1.048 2.75c-.29.76.065 1.622.787 1.925.726.304 1.547-.067 1.837-.825l1.047-2.75c.29-.76-.062-1.62-.786-1.926" mask="url(#prefix__b)"/>
            <path fill="#FFA098" d="M1084.693 299.671c-1.05-2.314-9.608-.319-19.12 4.426-3.126 1.561-5.962 3.227-8.319 4.827-1.623 1.091-3.03 2.185-4.13 3.185-2.249 2.022-3.353 3.724-2.884 4.755l15.225 33.501 34.434-17.182s-15.093-33.266-15.206-33.512" mask="url(#prefix__b)"/>
            <path fill="#732622" d="M1099.412 331.283c-3.502-1.245-12.16 1.73-19.166 5.228-6.796 3.388-17.788 10.228-15.908 14.368.2.442.644 1.042 1.615 1.385.555.2 1.243.29 2.03.29 4.182 0 11.24-2.574 17.136-5.517 6.797-3.389 17.788-10.229 15.906-14.366-.2-.445-.642-1.042-1.613-1.388" mask="url(#prefix__b)"/>
            <path fill="#732622" d="M1080.045 332.522c-.338-.74-1.18-1.053-1.885-.703-.705.352-1.002 1.235-.667 1.975l1.217 2.674c.332.737 1.175 1.05 1.879.7.704-.351 1.005-1.236.667-1.972l-1.211-2.674z" mask="url(#prefix__b)"/>
            <path fill="#313A89" d="M1043.444 360.605L1045.923 360.605 1045.923 333.532 1043.444 333.532z" mask="url(#prefix__b)"/>
            <path fill="#FFA098" d="M964.144 390.299L1001.778 396.76 1008.208 355.578 970.575 349.12z" mask="url(#prefix__b)"/>
            <path fill="#732622" d="M1008.418 354.358l-37.632-6.459c-.665-.106-1.315.34-1.432 1.012-.116.675.337 1.315 1.01 1.43L1008 356.8c.072.012.143.018.212.018.593 0 1.116-.425 1.219-1.03.116-.673-.336-1.315-1.012-1.43M1001.988 395.54l-37.634-6.46c-.665-.116-1.315.335-1.43 1.011-.117.674.335 1.313 1.011 1.43l37.632 6.46c.072.011.143.018.213.018.593 0 1.115-.426 1.22-1.029.115-.674-.338-1.316-1.012-1.43" mask="url(#prefix__b)"/>
            <path fill="#313A89" d="M1014.028 446.764L1017.678 450.118 1044.661 420.735 1071.688 450.118 1075.339 446.764 1044.657 413.409z" mask="url(#prefix__b)"/>
            <path fill="#732622" d="M1022.538 445.96h-13.371c-1.37 0-2.48 1.11-2.48 2.479 0 1.371 1.11 2.481 2.48 2.481h13.37c1.369 0 2.479-1.11 2.479-2.481 0-1.369-1.11-2.479-2.478-2.479M1080.2 445.96h-13.368c-1.37 0-2.481 1.11-2.481 2.479 0 1.371 1.112 2.481 2.48 2.481h13.37c1.369 0 2.479-1.11 2.479-2.481 0-1.369-1.11-2.479-2.48-2.479" mask="url(#prefix__b)"/>
            <path fill="#FFA098" d="M1088.192 376.468L1126.324 376.468 1126.324 357.584 1088.192 357.584z" mask="url(#prefix__b)"/>
            <path fill="#732622" d="M1126.324 356.344h-38.132c-.684 0-1.24.556-1.24 1.24 0 .685.556 1.239 1.24 1.239h38.132c.686 0 1.239-.554 1.239-1.24 0-.683-.553-1.24-1.239-1.24M1126.324 375.229h-38.132c-.684 0-1.24.555-1.24 1.239 0 .685.556 1.24 1.24 1.24h38.132c.686 0 1.239-.555 1.239-1.24 0-.684-.553-1.24-1.239-1.24" mask="url(#prefix__b)"/>
            <path fill="#FFF" d="M1044.683 353.835c-24.402 0-44.188 20.741-44.188 46.322 0 25.584 19.786 46.323 44.188 46.323 24.403 0 44.187-20.739 44.187-46.323 0-25.581-19.784-46.322-44.187-46.322" mask="url(#prefix__b)"/>
            <path fill="#732622" d="M1044.683 444c-22.997 0-41.709-19.666-41.709-43.843 0-24.175 18.712-43.842 41.71-43.842 22.995 0 41.705 19.667 41.705 43.842 0 24.177-18.71 43.843-41.706 43.843m0-92.645c-25.73 0-46.667 21.893-46.667 48.802 0 26.91 20.936 48.802 46.667 48.802s46.666-21.893 46.666-48.802-20.935-48.802-46.666-48.802M1044.683 330.146c-1.782 0-3.229 1.516-3.229 3.384 0 1.869 1.447 3.386 3.23 3.386 1.782 0 3.227-1.517 3.227-3.386 0-1.868-1.445-3.384-3.228-3.384" mask="url(#prefix__b)"/>
            <path fill="#FFA098" d="M943.461 331.228L943.469 450.92 945.948 450.92 945.941 331.228z" mask="url(#prefix__b)"/>
            <path fill="#FFD974" d="M969.858 303.367c-3.438-2.92-6.877-5.432-10.049-7.437-3.994-2.487-7.6-4.189-10.338-4.822-2.323-.558-4.045-.383-4.842.658-1.866 2.412 1.55 8.733 8.038 15.763 2.301 2.514 5.037 5.13 8.04 7.691 3.316 2.791 6.608 5.23 9.685 7.184 7.552 4.798 13.75 6.751 15.567 4.442 2.517-3.275-4.698-13.784-16.1-23.479" mask="url(#prefix__b)"/>
            <path fill="#313A89" d="M938.185 349.801L940.278 351.131 966.318 310.058 964.222 308.728z" mask="url(#prefix__b)"/>
        </g>
    </g>
</svg>
