<svg xmlns="http://www.w3.org/2000/svg" width="935" height="316" viewBox="0 0 935 316">
    <g fill="none" fill-rule="evenodd">
        <path fill="#FFF" fill-rule="nonzero" d="M926.4 153.84c-.72 1-1.46 1.94-2.18 2.87l-2.41 3.09c-4.6 5.91-7.58 10.14-10.93 15.31-.6.92-1.21 1.88-1.85 2.87-3.49 5.47-7.69 12.3-14.51 22.93l-1.85 2.88c-3.22 5-7 10.78-11.46 17.56-.61.94-1.25 1.9-1.9 2.88-.65.98-1.35 2.06-2 3.11-3.08 4.627-5.987 8.96-8.72 13l-1.95 2.89c-6.13 9-11.41 16.59-16 23-.71 1-1.4 1.95-2.06 2.89-7.84 10.89-13.34 18-17.25 23-.83 1.06-1.59 2-2.29 2.89-4.59 5.75-6.4 8-7.49 11.09-.755 2.454-2.212 4.633-4.19 6.27-8.64 6.77-25.26-1.36-29.94-3.48-15.52-7-40.12-11.69-69-15-13.55-1.56-474-2.84-488.87-3.94-21.72-1.6-44.36-2.82-66.37-4-26.75-1.44-48.29-1.21-52.21-11.83-1.39-3.74-.27-8 1.9-12 .502-.957 1.053-1.889 1.65-2.79 3.063-4.429 6.535-8.56 10.37-12.34 2.94-3.06 6-6.4 9.33-10.1.8-.89 1.6-1.81 2.42-2.75 4.15-4.75 8.57-10 13.27-15.91.72-.9 1.46-1.83 2.19-2.78 4.413-5.573 9.08-11.693 14-18.36l2-2.77c5.2-7.16 10.683-14.993 16.45-23.5l1.87-2.79c4-5.933 8.127-12.217 12.38-18.85.59-.92 1.19-1.84 1.78-2.78 3.2-5 6.483-10.213 9.85-15.64 64.44.39 551.71.91 578.39 1.34 42.83.68 47.23 1.13 65.46.69 16.94-.41 33.92 1.16 50.82 0 15.68-1.07 25.64-2.78 28.56 2.09 2.69 4.36-2.1 12.06-7.26 18.96z"/>
        <path fill="#F7D45C" fill-rule="nonzero" d="M926.4 153.84c-.72 1-1.46 1.94-2.18 2.87-91.09-.11-628.32-2.56-718.64-7.32l-6.78-.39c.59-.92 1.19-1.84 1.78-2.78l5.15.28c91 4.83 628.93 7.27 720.67 7.34zM910.88 175.11c-.6.92-1.21 1.88-1.85 2.87-93 0-632.22-2.45-724.48-7.31l1.87-2.79c92.25 4.85 631.46 7.26 724.46 7.23zM894.52 200.91l-1.85 2.88h-10.62c-90.15 0-626.48-2.29-716-6.86l2-2.77c92.95 4.72 632.86 6.98 726.47 6.75zM881.21 221.35c-.61.94-1.25 1.9-1.9 2.88-8.667.053-17.37.077-26.11.07-85.88 0-617.93-2.07-703.25-6.22.72-.9 1.46-1.83 2.19-2.78 93.86 4.53 634.66 6.55 729.07 6.05zM868.54 240.35l-1.95 2.89c-7.5.04-15 .04-22.5 0-88.1 0-622.36-2.19-709.83-6.55.8-.89 1.6-1.81 2.42-2.75 94.78 4.73 636.49 6.86 731.86 6.41zM850.64 266.2c-.71 1-1.4 1.95-2.06 2.89h-14.36c-92 0-630.09-2.39-721.31-7.14.502-.957 1.053-1.889 1.65-2.79 96.11 5 639.25 7.35 736.08 7.04zM831.33 292c-.83 1.06-1.59 2-2.29 2.89h-.14c-36.8 0-73.613-.383-110.44-1.15-13.55-1.56-474-2.84-488.87-3.94 51.87 1.54 549.81 2.28 601.74 2.2z"/>
        <path fill="#18336D" fill-rule="nonzero" stroke="#18336D" d="M53.18 102.45c-.55-.67-1.07-1.27-1.54-1.78l-.83-.74c-2.926-1.777-6.547-1.976-9.65-.53.895.703 1.56 1.657 1.91 2.74.492 2 .014 4.115-1.29 5.71-2.52 3.15-6.85 2.43-7.09 4.06-.24 1.63 3.64 2.35 4.52 5.62.29 1.297.16 2.652-.37 3.87l-1.2-.46c-.34-.3-1.72-1.48-3-1.11-1.86.52-2.65 3.85-1.65 6s3.55 2.63 5.07 3c1.106.223 2.24.266 3.36.13-.806 1.552-1.997 2.871-3.46 3.83-.576.368-1.194.667-1.84.89-6.56 2.29-14.38-3.51-14.74-3.8-2-1.55-5.17-3.94-5.25-7.73-.017-1.279.29-2.541.89-3.67-.187-.518-.347-1.046-.48-1.58-1.75-7 1.41-12.77 2.49-14.65 1.53-2.69 4.91-8.59 10.64-8.84 1.57-.046 3.126.297 4.53 1 .33-.698.811-1.313 1.41-1.8 4-3.23 11.14 1.3 11.48 1.51 2.969 2.002 5.142 4.981 6.14 8.42l-.05-.09z"/>
        <path fill="#F36B53" fill-rule="nonzero" d="M73 166.18c-1.23 1.28-9.39-5.84-25.06-14.75-3.62-2.06-6.79-3.73-9.28-5-.112-1.78-.326-3.554-.64-5.31-.23-1.35-.55-2.77-1-4.24-.31-1.14-.65-2.22-1-3.25.646-.223 1.264-.522 1.84-.89 1.463-.959 2.654-2.278 3.46-3.83-1.12.136-2.254.093-3.36-.13-1.52-.32-4.08-.83-5.07-3-.99-2.17-.21-5.47 1.65-6 1.33-.37 2.71.81 3 1.11l1.2.46c.53-1.218.66-2.573.37-3.87-.88-3.27-4.76-4.08-4.52-5.62.24-1.54 4.57-.91 7.09-4.06 1.304-1.595 1.782-3.71 1.29-5.71-.35-1.083-1.015-2.037-1.91-2.74 3.103-1.446 6.724-1.247 9.65.53l.83.74c.47.51 1 1.11 1.54 1.78 1.28 1.543 2.478 3.152 3.59 4.82.38.56.76 1.16 1.14 1.78 2.79 4.56 4.58 7.48 4.88 11.71.202 2.042.043 4.103-.47 6.09-.474 1.696-1.321 3.264-2.48 4.59-1.586 1.775-3.642 3.065-5.93 3.72 3.07 5.25 7.41 12.33 13 20.51 4.19 5.95 7.02 9.71 6.19 10.56z"/>
        <path fill="#F7D45C" fill-rule="nonzero" d="M124.61 217c-.494 5.093-.19 10.231.9 15.23-11.33-3-12.73-4.81-23.38-6.76-2.65-.48-4.89-.81-6.84-1l.53-.14c3.69-1 4.18-1.43 5.94-1.39 2.26.07 3.08.83 6.19 1.92 1.53 1.33 3 2.41 3.49 2.05.065-.068.104-.156.11-.25.9.61 2.7 1.7 3.29 1.17.27-.23.24-.74.07-1.35.9 0 1.13-.24 1.22-.36.8-.92-.11-2.89-.68-4.14-2.48-5.36-7.28-8-9.54-9.26-2.26-1.26-3.74-2-5.67-1.93-1.93.07-3.11.91-6.21 2.35-2.141 1.112-4.36 2.068-6.64 2.86l-2 .65c-2.7.29-6.8.76-11.79 1.47-3.12.45-5.87.88-8.3 1.29-7.024-3.151-13.396-7.587-18.79-13.08-3.049-3.163-5.732-6.658-8-10.42-.1 1.2-.21 2.43-.32 3.69-.33 3.74-.82 8.53-1.58 14.14l-1.23.11c-5.499.488-11.02.682-16.54.58-1.42 0-2.82-.07-4.19-.13-1.72-.08-9.47-1.23-11.1-1.37-4.65-22.1-3.78-26.52-2.66-38.47C2 162.74 8.2 158.69 13.06 153.23c2.49-2.8 12.73-8.46 15.48-9.51 4.65-1.77 7.56-1.58 9.49-2.6.314 1.756.528 3.53.64 5.31 2.49 1.27 5.66 2.94 9.28 5 15.67 8.91 23.83 16 25.06 14.75.82-.85-2-4.61-6.07-10.51-5.62-8.18-10-15.26-13-20.51 2.288-.655 4.344-1.945 5.93-3.72 1.159-1.326 2.006-2.894 2.48-4.59 1.585-.818 3.127-1.715 4.62-2.69 5.76-3.75 6.2-6.39 9.39-7.74 5.17-2.19 11.13 1.2 18.52 5.53 7.83 4.59 11.11 8.35 20.18 15.75 4.83 3.94 9.16 8.12 12.37 10.82-1 1-2.19 2.23-3.66 3.56-4.65 4.19-6.94 5-9.68 8.15-1.728 1.97-3.117 4.215-4.11 6.64 1.177.568 2.382 1.075 3.61 1.52 4.48 1.61 4.78.77 14.37 3.31l.41.11c.06 1.78.13 3.58.23 5.42.33 5.79.93 11.27 1.71 16.41-.52 2.06-1.15 4.63-2 7.91-3.11 12.28-3.41 12.59-3.7 15.45zM33.46 230.82c-1.702 1.259-3.322 2.625-4.85 4.09"/>
        <path fill="#0A1933" fill-rule="nonzero" d="M237.75 205.85c-9.6 7.13-19.74 14.51-28.47 19.76-6.41 3.85-11.78 7-19.8 9.49-5.789 1.756-11.769 2.804-17.81 3.12 5.885-4.547 11.185-9.803 15.78-15.65 4.78-6.11 7.21-10.87 13.27-22.12 4-7.42 9.66-17.86 16.8-30.66.736 1.797 1.588 3.544 2.55 5.23 4.13 7.24 6.87 7.25 11.6 14.93 3.92 6.35 4.61 10.51 6.08 15.9z"/>
        <path fill="#18336D" fill-rule="nonzero" stroke="#18336D" d="M289.52 201.75c-2.628.08-5.244.385-7.82.91-4.62.797-9.037 2.496-13 5-.35.22-.8.52-1.32.88-3.21 2.25-9.27 7.24-11.67 15.42-.54 1.84-3.84 7.28-2.65 10.49-4.915-5.725-8.959-12.144-12-19.05-1.34-3.09-2.45-6.276-3.32-9.53-1.47-5.39-2.16-9.55-6.08-15.9-4.73-7.68-7.47-7.69-11.6-14.93-.962-1.686-1.814-3.433-2.55-5.23-7.14 12.8-12.81 23.24-16.8 30.66-6.06 11.25-8.49 16-13.27 22.12-4.595 5.847-9.895 11.103-15.78 15.65-4.753.226-9.515.166-14.26-.18-10.27-.59-17.84-2.37-26.54-4.42-2-.48-3.78-.93-5.36-1.35-1.09-4.999-1.394-10.137-.9-15.23.29-2.9.59-3.21 3.69-15.49.83-3.28 1.46-5.85 2-7.91.41 2.74.86 5.37 1.36 7.91h0c-.92 1.191-1.598 2.55-2 4-.47 1.83-.07 2.24-.41 4.7-.58 4.15-2.15 6.14-1.39 6.78.6.49 2.06-.32 2.77-.83 2.55-1.89 2.38-5.46 2.35-6l.48-1.73c.52 2.1.94 2.85 1.18 4.22.355 1.643.536 3.319.54 5 0 .77-.06.53-.41 3.72-.35 3.19-.39 4.32.28 5.26.327.42.744.762 1.22 1-.08.15-.15.32-.23.48.2.419.456.809.76 1.16.516.607 1.157 1.095 1.88 1.43.988-2.168 1.81-4.408 2.46-6.7.116.246.25.483.4.71.486.698 1.135 1.268 1.89 1.66l.19-.19c.17-.65.38-1.51.59-2.53.21-1.02.49-2.49.7-4.19.37.584.857 1.084 1.43 1.47l.21-2.29c.042-.528.118-1.052.23-1.57.47-2.383.6-4.82.39-7.24-.12-1.885-.494-3.745-1.11-5.53-.585-1.298-1.08-2.634-1.48-4-.174-.795-.268-1.606-.28-2.42h0c1.43-5.33 2.38-10 3.05-13.88.28-1.66.51-3.13.68-4.47 6.84-6.79 12.29-12.32 16-16.08 23.85-24.25 32.55-34.45 48.65-38.69 3.77-1 8.54-3.24 14-1.84 6.43 1.64 9.91 6.71 15.48 14.37 4.13 5.68 8.78 11 13 16.56h0c2.061 2.666 3.984 5.436 5.76 8.3 4.96 8.1 13.38 20.25 28.61 39.54z"/>
        <path fill="#E08D53" fill-rule="nonzero" d="M283.14 223.8c-1.666 2.072-3.535 3.971-5.58 5.67-3.541 2.981-7.691 5.152-12.16 6.36-3.75.93-9.33 1.68-11.41-.07-.419-.354-.736-.813-.92-1.33-1.19-3.21 2.11-8.65 2.65-10.49 2.4-8.18 8.46-13.17 11.67-15.42 5.593 4.728 10.855 9.833 15.75 15.28z"/>
        <path fill="#F36B53" fill-rule="nonzero" d="M337.63 233.8c0 1.63-6.62 3.26-11.61 3.87-12.51 1.54-15.76-3.23-24.32-.18-2.17.77-4.41 1.95-7 1.11-3.47-1.13-5.05-5-5.52-6.09-1.574-3.175-3.594-6.108-6-8.71-4.895-5.447-10.157-10.552-15.75-15.28.52-.36 1-.66 1.32-.88 3.963-2.504 8.38-4.203 13-5 2.576-.525 5.192-.83 7.82-.91 1.52 1.92 3.1 3.92 4.77 6 1.82 2.29 3.75 4.67 5.76 7.14 2.01 2.47 4.14 5.09 6.37 7.78 1.333.72 2.77 1.427 4.31 2.12 3.84 1.599 7.778 2.952 11.79 4.05 10.88 3.29 15.04 3.7 15.06 4.98z"/>
        <path fill="#0A1933" fill-rule="nonzero" d="M342.45 190.42c-1.619 1.14-3.084 2.485-4.36 4-4.57 5.36-4.06 9.89-6.1 14.41-.683 1.51-1.608 2.899-2.74 4.11-3.877 4.053-9.231 6.362-14.84 6.4h-.91c-3.147-.371-6.221-1.21-9.12-2.49-1.6-.62-3.05-1.26-4.32-1.88-2-2.47-3.94-4.85-5.76-7.14-1.67-2.07-3.25-4.07-4.77-6-15.23-19.29-23.65-31.44-28.55-39.45-1.776-2.864-3.699-5.634-5.76-8.3 11.39 3.47 20.48 6.88 26.77 9.41 27.49 10.96 36.61 15.93 60.46 26.93z"/>
        <path fill="#F36B53" fill-rule="nonzero" d="M389.23 195.48c-7.6 9.31-10.73 8.68-15.76 15.75-2.21 3.11-2.85 5-5.25 5.81-3.09 1.05-5.88-.72-10-2.49-3.9-1.69-7.83-2.6-15.52-4.32l-.51-.11c-3.351-.742-6.76-1.19-10.19-1.34 2-4.52 1.53-9.05 6.1-14.41 1.276-1.515 2.741-2.86 4.36-4l4.4 2c5 2.3 8.57 4.58 15.78 4.41 3.692-.393 7.324-1.222 10.82-2.47 5.53-2 8.6-3.06 11.61-6.08 2.55-2.56 3.89-5.33 5.53-5 1.31.29 2 2.41 2.21 3.87.37 3.2-1.5 5.82-3.58 8.38z"/>
        <path fill="#E08D53" fill-rule="nonzero" d="M342.75 210.23c-2.664 4.574-6.857 8.062-11.84 9.85-5.406 1.806-11.292 1.525-16.5-.79 5.609-.038 10.963-2.347 14.84-6.4 1.132-1.211 2.057-2.6 2.74-4.11 3.45.146 6.88.594 10.25 1.34l.51.11z"/>
        <path fill="#F36B53" fill-rule="nonzero" d="M116.13 226.15c-.09.12-.32.35-1.22.36.17.61.2 1.12-.07 1.35-.59.53-2.39-.56-3.29-1.17-.006.094-.045.182-.11.25-.47.36-2-.72-3.49-2.05-3.11-1.09-3.93-1.85-6.19-1.92-1.76 0-2.25.4-5.94 1.39l-.53.14c-2.695.697-5.426 1.248-8.18 1.65l-1.38.47C71.41 233 61 237.76 52.56 241.73c0 0-6.11 2.88-20.27 6.45-6.3 1.59-11.48 2.5-14-.18-1.09-1.17-1.26-2.57-1.48-4.43-1.46-13-2.19-19.57-2.21-21.75-.02-2.18 0-4.58.05-7.5 1.37.06 2.77.11 4.19.13 5.52.102 11.041-.092 16.54-.58-.15 1.72-.33 3.44-.51 5.19-.43 4-.9 7.95-1.41 11.76 1.14-.84 2.42-1.71 3.81-2.54 3.719-2.17 7.675-3.904 11.79-5.17 1.52-.5 6-1.93 16.21-3.68 2.43-.41 5.18-.84 8.3-1.29 5-.71 9.09-1.18 11.79-1.47l2-.65c2.28-.789 4.498-1.741 6.64-2.85 3.1-1.44 4.2-2.29 6.21-2.35 2.01-.06 3.29.65 5.67 1.93 2.38 1.28 7.06 3.9 9.54 9.26.58 1.25 1.51 3.22.71 4.14zM148.05 179.67c-.16 1.34-.4 2.81-.68 4.47-.67 3.85-1.63 8.55-3.05 13.89.012.814.106 1.625.28 2.42.399 1.367.893 2.703 1.48 4 .62 1.784.99 3.645 1.1 5.53.22 2.416.092 4.85-.38 7.23-.107.518-.183 1.043-.23 1.57l-.2 2.29c-.371-.255-.708-.557-1-.9-.159-.178-.303-.368-.43-.57-.11.91-.24 1.74-.37 2.48-.11.63-.22 1.2-.32 1.69-.22 1-.43 1.88-.6 2.54l-.19.18c-.755-.392-1.404-.962-1.89-1.66l-.06-.09c-.13-.196-.24-.404-.33-.62-.18.6-.38 1.25-.61 1.94-.531 1.623-1.152 3.216-1.86 4.77-.72-.343-1.361-.833-1.88-1.44-.25-.287-.464-.603-.64-.94-.05-.08-.08-.15-.12-.22l.23-.48c-.154-.078-.301-.168-.44-.27-.3-.208-.564-.465-.78-.76-.67-.94-.63-2-.28-5.25s.4-3 .42-3.73c-.017-1.681-.205-3.357-.56-5-.23-1.38-.65-2.13-1.17-4.23l-.48 1.73c0 .49.2 4.06-2.35 6-.71.51-2.17 1.32-2.77.83-.76-.64.81-2.63 1.39-6.78.34-2.47-.07-2.87.41-4.7.4-1.45 1.08-2.81 2-4-.5-2.54-.95-5.17-1.36-7.91-.78-5.14-1.38-10.62-1.71-16.41-.1-1.84-.17-3.65-.23-5.42l-.41-.11c-9.59-2.55-9.89-1.7-14.37-3.32-1.23-.437-2.435-.941-3.61-1.51.99-2.424 2.38-4.665 4.11-6.63 2.74-3.11 5-4 9.68-8.16 1.47-1.33 2.7-2.56 3.66-3.56.9.76 1.71 1.41 2.41 1.9l2.08 1.1c5.296 2.635 9.785 6.645 13 11.61 1.024 1.563 1.86 3.24 2.49 5 1.07 3.14 1.29 6.23.62 11.5z"/>
        <path fill="#475E5C" fill-rule="nonzero" d="M753.92 75.23c-2.153.191-4.291.525-6.4 1-3.712.805-7.314 2.05-10.73 3.71-2.825 1.371-5.505 3.023-8 4.93-.19 2.3-.34 4.64-.47 7-.52 9.776-.547 19.572-.08 29.35-2.494-1.421-5.107-2.622-7.81-3.59-16-7.86-20.6-10.43-28.9-13.58l-1-.38c-2.35-1.13-6.71-4.17-7.26-5.12-.9-1.88-1.617-3.842-2.14-5.86-.127-.488-.322-.956-.58-1.39-.61-.954-1.501-1.694-2.55-2.12 0-1.06.07-2 .09-2.56.14-4 .39-8.19.87-11.64.05-.052.08-.119.09-.19.09-.59-1-1.22-2.15-1.86-1.102-.703-2.322-1.205-3.6-1.48-1.54-.29-4.46-.46-4.9.64-.082.223-.082.467 0 .69 0 2.81 0 6.35-.07 9.09 0 1.94-.07 3.87-.11 5.8l-.12.35c-.05.204-.083.411-.1.62-.364-.025-.728.04-1.06.19-.777.427-1.301 1.2-1.41 2.08-.602.109-1.164.374-1.63.77-1.927-1-3.863-2-5.81-3-1.36-.71-2.71-1.44-4.07-2.17l-1.21-.65c2.101-5.927 4.894-11.587 8.32-16.86 1.615-2.636 3.448-5.131 5.48-7.46.024-.041.054-.078.09-.11.49-.54 1-1.08 1.59-1.63 1.067-.905 2.197-1.733 3.38-2.48 1 4.45 3.8 11.8 11 15.18 7.2 3.38 14.08.71 17.88-.69 1.69-.64 12.34-4.8 16.86-16 .758-1.878 1.295-3.838 1.6-5.84 2.219-.74 4.295-1.852 6.14-3.29l.58-.39c1.04-.82 2.285-1.342 3.6-1.51 2.38-.27 4.24.83 5.92 1.86l.43.27c1.589 1.04 3.009 2.319 4.21 3.79 4.15 5.12 6.73 10.5 9.17 15.32 1.16 2.18 2.79 5.36 4.86 9.21z"/>
        <path fill="#18336D" fill-rule="nonzero" stroke="#18336D" d="M381.75 214.57c0 5.81-.36 12-.69 17-2.99 1.963-6.653 2.62-10.14 1.82-1.536-.385-2.983-1.064-4.26-2-.5-4.54-1-9.49-1.31-14.7-.08-1.2-.15-2.28-.19-3.28 1.819 1.353 3.966 2.195 6.22 2.44 3.829.27 7.592-1.1 10.35-3.77.03.78.03 1.61.02 2.49z"/>
        <path fill="#933838" fill-rule="nonzero" d="M381.73 212.05c-2.758 2.67-6.521 4.04-10.35 3.77-2.254-.245-4.401-1.087-6.22-2.44-.239-2.821.14-5.66 1.11-8.32 1.29-3.35 2.69-4.08 3.48-7.66.58-2.61.2-3.83 0-9.05-.06-1.7-.11-4.09-.05-7 .885.402 1.848.6 2.82.58 1.012.017 2.014-.198 2.93-.63.34 3.61.42 6.57.42 8.69 0 4.29-.32 6 .62 8.67 1.05 3 2.33 3.42 3.71 6.34 1.013 2.212 1.535 4.617 1.53 7.05zM381.06 231.55c-.15 2.31-.3 4.34-.44 5.95-.15 1.956-1.458 3.631-3.32 4.25-.888.305-1.82.46-2.76.46-1.459-.002-2.893-.374-4.17-1.08l-.52-.28c-1.375-.755-2.305-2.123-2.5-3.68-.233-1.853-.463-3.79-.69-5.81 1.277.936 2.724 1.615 4.26 2 3.485.803 7.148.15 10.14-1.81z"/>
        <path fill="#F7D45C" fill-rule="nonzero" d="M375.45 181.28c-.06-.6-.13-1.21-.2-1.83"/>
        <path fill="#FFF" fill-rule="nonzero" d="M372.52 175.17c-2.4 0-4.33 1.05-4.33 2.35.015.375.168.731.43 1 .314.343.7.613 1.13.79.875.372 1.82.556 2.77.54 1.422.092 2.822-.386 3.89-1.33.258-.271.41-.626.43-1 0-1.3-1.94-2.35-4.32-2.35zm3.23 2.83c-.39.78-1.69 1.35-3.23 1.35s-2.86-.57-3.25-1.35c-.08-.147-.12-.312-.12-.48 0-1 1.51-1.82 3.37-1.82s3.35.81 3.35 1.82c0 .168-.04.333-.12.48z"/>
        <path fill="#933838" fill-rule="nonzero" d="M376.84 177.52v2c-.1.792-.638 1.461-1.39 1.73-.916.432-1.918.647-2.93.63-.972.02-1.935-.178-2.82-.58-.93-.42-1.51-1.06-1.51-1.78v-2c.015.375.168.731.43 1 .314.343.7.613 1.13.79.875.372 1.82.556 2.77.54 1.422.092 2.822-.386 3.89-1.33.258-.271.41-.626.43-1z"/>
        <path fill="#18336D" fill-rule="nonzero" stroke="#18336D" d="M375.87 177.52c0 .168-.04.333-.12.48-.39.78-1.69 1.35-3.23 1.35s-2.86-.57-3.25-1.35c-.08-.147-.12-.312-.12-.48 0-1 1.51-1.82 3.37-1.82s3.35.81 3.35 1.82z"/>
        <path fill="#732622" fill-rule="nonzero" d="M719.05 49.91c-.305 2.002-.842 3.962-1.6 5.84-4.52 11.22-15.17 15.38-16.86 16-3.8 1.4-10.78 4-17.88.69s-10-10.73-11-15.18c1.79-1.16 4.19-2.57 7.56-4.59l.57-.34c4.1-2.43 7.28-4.34 8.64-5.15.108-2.407-.026-4.82-.4-7.2l-1 .13c-1.92.2-7 .75-10.68-1.24-3.68-1.99-5.4-6.37-6.33-10.52-.23-1-.44-2-.63-2.94-.682-3.39-.84-6.863-.47-10.3.827-1.045 1.949-1.818 3.22-2.22 2-.56 4.146-.224 5.88.92 2.15 1.43 2.6 3.5 3.56 5.57 2.686 5.347 7.434 9.37 13.15 11.14.808.242 1.634.42 2.47.53-.017 2.124.273 4.239.86 6.28.58 2 2.61 9 9 12.08 3.766 1.703 8.045 1.882 11.94.5z"/>
        <path fill="#18336D" fill-rule="nonzero" stroke="#18336D" d="M737.84 45.3c-.64.601-1.353 1.122-2.12 1.55l-.43-.27c-1.68-1-3.54-2.13-5.92-1.86-1.315.168-2.56.69-3.6 1.51l-.58.39c-1.845 1.438-3.921 2.55-6.14 3.29-3.913 1.398-8.217 1.219-12-.5-6.37-3.07-8.4-10.07-9-12.08-.587-2.041-.877-4.156-.86-6.28-.836-.11-1.662-.288-2.47-.53-5.716-1.77-10.464-5.793-13.15-11.14-1-2.07-1.41-4.14-3.56-5.57-1.734-1.144-3.88-1.48-5.88-.92-1.238.417-2.327 1.19-3.13 2.22-.37 3.437-.212 6.91.47 10.3.19.95.4 1.94.63 2.94-4.9.85-9.66-1.32-11.61-5.1-1.95-3.78-.91-9.26 2-11.61 2-1.59 3.8-1 7.87-2.32.773-1.04 1.636-2.011 2.58-2.9C673.13 4.27 677 .61 682.59.5 689 .38 693.45 5 693.85 5.38c2.09 2.23 1.57 3.17 4.88 7.2 2.29 2.79 3.83 4.6 6.26 5.1 2.88.59 3.54-1.36 6.15-.93 4.63.77 5.46 7.34 9.29 7.43 1.81 0 2.08-1.41 4.41-2.32 4.28-1.67 10.84.31 14.39 5 4.36 5.72 3.18 14.14-1.39 18.44z"/>
        <path fill="#732622" fill-rule="nonzero" d="M672.93 112.67c-.23 3.92-.61 7.23-1 9.77-.76 5.38-1.43 9.89-3.56 15.32-.84 2.127-1.823 4.195-2.94 6.19-3.89 7-14.79 23.52-28.77 47.46.495 2.566.535 5.2.12 7.78 0 .19 0 0-1.22 3.56-.89 2.61-1.1 3.26-1.39 3.25-.57 0-1-2.59-1.08-3.87-.24-2.38.11-3.54-.31-3.71-.42-.17-1.95 1.38-2.79 3.24-1.42 3.18-.12 4.78-1.39 7.28-.384.741-.884 1.416-1.48 2-.674.766-1.586 1.284-2.59 1.47-.193.019-.387-.005-.57-.07-2.37-.83-1.65-8.78-1.08-12.22.49-3.06 1.427-6.032 2.78-8.82.692-1.419 1.49-2.783 2.39-4.08 1.07-3.27 2.12-6.25 3.11-8.92 4.44-12 7.89-18.48 16.71-38.07 1.56-3.48 3-6.65 4.21-9.44.81-6 1.42-10.87 1.82-14.23.6-4.93 1.85-15.75 4.15-27.93 1.94 1.033 3.877 2.033 5.81 3-.172.153-.324.327-.45.52-.444.888-.527 1.913-.23 2.86.038.214.091.424.16.63-.246.637-.351 1.319-.31 2 .12.9.408 1.768.85 2.56l.32.69c-.122.614-.122 1.246 0 1.86.211 1.038.739 1.985 1.51 2.71.576.49 1.262.833 2 1 0 .32 0 .65.08 1 .1 1.14.2 2.27.33 3.39.645.592 1.4 1.054 2.22 1.36.824.325 1.705.481 2.59.46z"/>
        <path fill="#F7D45C" fill-rule="nonzero" d="M728.24 121.19c.41.26.82.53 1.25.83 1.665 1.167 3.219 2.486 4.64 3.94"/>
        <path fill="#732622" fill-rule="nonzero" d="M744.92 121.67c-.296 4.015-1.312 7.945-3 11.6-1.13 2.39-2.35 4.95-4.15 6.56-.16.14-.33.28-.49.4-8 6-26.89-6.48-30.64-9-7.86-5.39-10.46-9.41-26-20.65-1.36-1-2.49-1.79-3.23-2.31l-.54-.16c-3.28-.69-5.78-1.06-7.54-1.28-.528-.053-1.052-.136-1.57-.25-.738-.167-1.424-.51-2-1-.771-.725-1.299-1.672-1.51-2.71-.122-.614-.122-1.246 0-1.86l-.32-.69c-.442-.792-.73-1.66-.85-2.56-.041-.681.064-1.363.31-2-.069-.206-.122-.416-.16-.63-.297-.947-.214-1.972.23-2.86.126-.193.278-.367.45-.52.466-.396 1.028-.661 1.63-.77.109-.88.633-1.653 1.41-2.08.332-.15.696-.215 1.06-.19-.066.652.01 1.31.22 1.93.517 1.187 1.414 2.168 2.55 2.79 1.307 1.1 2.935 1.749 4.64 1.85.624 0 1.245-.077 1.85-.23.2-.037.397-.087.59-.15 0-1.54.08-3.79.14-5.64 1.036.419 1.919 1.145 2.53 2.08.258.434.453.902.58 1.39.523 2.018 1.24 3.98 2.14 5.86.55.95 4.91 4 7.26 5.12l1 .38c8.3 3.15 12.89 5.72 28.9 13.58 2.703.968 5.316 2.169 7.81 3.59-.467-9.778-.44-19.574.08-29.35.13-2.38.28-4.72.47-7 2.495-1.907 5.175-3.559 8-4.93 3.416-1.66 7.018-2.905 10.73-3.71.4 3.3.6 6.13.73 8.35.65 11.77-.94 13.47-3.31 37.05z"/>
        <path fill="#E5204E" fill-rule="nonzero" d="M678.94 75c-.48 3.45-.73 7.64-.87 11.64 0 .58-.05 1.5-.09 2.56-.06 1.85-.12 4.1-.14 5.64-.193.063-.39.113-.59.15-.605.153-1.226.23-1.85.23-1.705-.101-3.333-.75-4.64-1.85-1.136-.622-2.033-1.603-2.55-2.79-.21-.62-.286-1.278-.22-1.93.017-.209.05-.416.1-.62l.12-.35c0-1.93.08-3.86.11-5.8 0-2.74 0-6.28.07-9.09.235.547.575 1.043 1 1.46 2.38 2.52 6.43 1.77 7.36 1.59.66-.14 1.87-.36 2.19-.84z"/>
        <path fill="#E5204E" fill-rule="nonzero" d="M679 74.78c-.01.071-.04.138-.09.19-.32.5-1.53.72-2.18.84-.93.18-5 .93-7.36-1.59-.425-.417-.765-.913-1-1.46-.082-.223-.082-.467 0-.69.44-1.1 3.36-.93 4.9-.64 1.278.275 2.498.777 3.6 1.48 1.13.65 2.25 1.28 2.13 1.87zM678 110.9c-.524.35-1.076.658-1.65.92-1.059.506-2.208.795-3.38.85-.879.036-1.756-.104-2.58-.41-.82-.306-1.575-.768-2.22-1.36-.13-1.12-.23-2.25-.33-3.39 0-.34 0-.67-.08-1 .518.114 1.042.197 1.57.25 1.76.22 4.26.59 7.54 1.28l.54.16c.11.61.24 1.25.39 1.9.04.28.11.54.2.8z"/>
        <path stroke="#2D323D" stroke-linecap="round" stroke-linejoin="round" stroke-width=".72" d="M679.12 209.86c-.206-1.012-.337-2.038-.39-3.07-.11-2.474.126-4.951.7-7.36.388-1.814.913-3.596 1.57-5.33"/>
        <path fill="#F4D6A2" fill-rule="nonzero" d="M768 194.56c-.363-3.35-1.875-6.47-4.28-8.83-1.658-1.526-3.668-2.619-5.85-3.18-3 2.51-6 5.22-9 8.13-4.21 4-8 8-11.43 11.83 1.627-5.678 2.962-11.435 4-17.25 1.06-6 2.77-17.73.93-28.32-.15-.85-.31-1.71-.49-2.57-1.39-.015-2.78.122-4.14.41-5.71 1.23-7.94 4.6-11.15 6.5-6.12 3.61-14 .75-26.31-3.71-11.34-4.12-13.35-7.44-21.35-7.43-3.41 0-6.62.61-8.43.56-1.79 2-3.88 4.38-6.11 7.18-2.49 3.12-6.49 8.41-19.81 32.8-3.7 6.78-7.13 13.2-9 22-.877 3.766-.877 7.684 0 11.45.52 2.11 2.15 8.72 6.5 9.91 1.57.42 3.42-.13 7.12-1.24 2.007-.59 3.971-1.315 5.88-2.17 3.9-1.79 19.3-9 40.84-19.11-.766 4.373-1.228 8.793-1.38 13.23-.69 11.56.76 14.84 1.86 16.72 4.29 7.28 12.63 8.76 13 8.82 6 1 10.68-1.55 16.24-4.65 6.11-3.387 11.604-7.782 16.25-13 8.52-9.64 18.33-22.64 26.11-33.4.19-1.554.19-3.126 0-4.68zm-68.85-3.72l-8.15 1.39-8.89 1.5c2.39-2.35 4.67-4.65 7-7.07 2.58-2.65 6-6.26 10.08-10.67.26 4.947.247 9.905-.04 14.85z"/>
        <path fill="#475E5C" fill-rule="nonzero" d="M741.87 154.37c-1.39-.015-2.78.122-4.14.41-5.71 1.23-7.94 4.6-11.15 6.5-6.12 3.61-14 .75-26.31-3.71-11.34-4.12-13.35-7.44-21.35-7.43-3.41 0-6.62.61-8.43.56-.8 0-1.32-.17-1.47-.56-.35-.92 1.82-2.17 7.43-7.74 3.11-3.09 4-4.25 4.64-5.88.84-2.17.77-4 .62-6.81-.263-3.917-1.098-7.775-2.48-11.45-.813-2.216-1.79-4.368-2.92-6.44.574-.262 1.126-.57 1.65-.92-.05-.26-.12-.52-.18-.78-.15-.65-.28-1.29-.39-1.9.74.52 1.87 1.31 3.23 2.31 15.54 11.24 18.14 15.26 26 20.65 3.75 2.57 22.67 15 30.64 9 .16-.12.33-.26.49-.4.6 1.65 1.23 3.5 1.83 5.51 0 .05 1.3 4.37 2.29 9.08z"/>
        <path fill="#732622" fill-rule="nonzero" d="M796.45 177.84c-3.33 3.4-5.19.54-11.37 1.16-1.199.133-2.366.471-3.45 1-2.59 1.26-4.42 3.37-6.06 4.83-3.096 2.763-5.659 6.071-7.56 9.76-.363-3.35-1.875-6.47-4.28-8.83-1.658-1.526-3.668-2.619-5.85-3.18 2.64-2.24 5.23-4.33 7.74-6.26 1.206-.932 2.153-2.157 2.75-3.56.349-.61.768-1.178 1.25-1.69.558-.586 1.242-1.037 2-1.32 2.18-.81 3.67.42 8.13 2.08 4.46 1.66 6.28 1.69 14.16 4.64 1.25.45 2.81 1.08 2.54 1.37z"/>
        <path fill="#18336D" fill-rule="nonzero" stroke="#18336D" d="M423.56 154.83c-6.88-1.38-12.26-3.3-12.26-5.24h0c0-1.84 4.85-3.52 12-4.9-.05 3 0 3.37 0 3.86.08 2.59.19 4.79.26 6.28zM440 142.28c-.873 1.808-1.615 3.676-2.22 5.59.09-1.67.19-3.48.28-5.38l1.94-.21z"/>
        <path fill="#933838" fill-rule="nonzero" d="M490 148.14l-.12.08c-1.993 1.301-4.064 2.48-6.2 3.53-5.732 2.724-11.829 4.6-18.1 5.57-7.349 1.33-14.815 1.9-22.28 1.7-1.24 0-4.85-.21-12.08-.62-5.309-.377-10.552-1.405-15.61-3.06l-.94-.34c-1.06-.41-2.79-1.14-3.41-2.79-.28-.851-.28-1.769 0-2.62 0 1.94 5.38 3.86 12.26 5.24 4.031.801 8.104 1.375 12.2 1.72l1.4.12 1.76.11c2.61.14 5.19.16 7.75.09 1 0 2-.07 3-.12 4.838-.28 9.653-.885 14.41-1.81 14.24-2.75 25.09-7.74 27.37-10.83l.6-.35c.186 1.719-.586 3.4-2.01 4.38z"/>
        <path fill="#E08D53" fill-rule="nonzero" d="M490 157c-.242 6.75-1.205 13.454-2.87 20-.543 2.135-2.144 3.842-4.24 4.52-10.45 3.34-24.72 7.1-40.94 6.12-5.34-.325-10.65-1.027-15.89-2.1-1.124-.229-2.163-.765-3-1.55-.63-.574-1.132-1.277-1.47-2.06-2.996-6.722-4.884-13.885-5.59-21.21-.18-1.86-.27-3.66-.3-5.38 5.058 1.655 10.301 2.683 15.61 3.06 7.23.41 10.84.61 12.08.62 7.465.2 14.931-.37 22.28-1.7 6.271-.97 12.368-2.846 18.1-5.57 2.136-1.05 4.207-2.229 6.2-3.53l.12-.08c.06 2.8.06 5.76-.09 8.86z"/>
        <path fill="#F7D45C" fill-rule="nonzero" d="M438 142.49c-.09 1.9-.19 3.71-.28 5.38-.19.6-.38 1.21-.55 1.83-.623 2.25-1.097 4.538-1.42 6.85-4.096-.345-8.169-.919-12.2-1.72-.07-1.49-.18-3.69-.3-6.29v-.38c1.74.434 3.33 1.325 4.61 2.58 1.23 1.24 1.77 2.51 2 2.4.23-.11-.14-3.08-1.79-5.41-1.216-1.66-2.892-2.93-4.82-3.65 0-1.69.07-4.09.13-7.56.995.06 1.975.266 2.91.61 3.62 1.31 5.07 4.16 5.5 3.86.43-.3-1.4-6.11-6.35-9.67-.61-.44-1.252-.835-1.92-1.18.06-2.82.12-6.08.2-9.87 1.974.253 3.861.966 5.51 2.08 2.92 2 3.84 4.63 4.1 4.49.26-.14-1-6.63-6.26-9.6-1.018-.572-2.117-.983-3.26-1.22.06-2.84.13-5.93.19-9.3 2.437.172 4.769 1.063 6.7 2.56 1.236 1.053 2.255 2.337 3 3.78.19-.11-2.25-7.59-7.35-8.89-.751-.19-1.529-.25-2.3-.18.08-1.61.39-4 2.07-5.12 2-1.32 5.31-.2 7.31 1.27 3.84 2.85 4.4 8.14 4.65 11.14.73 8.93.4 21.36-.08 31.21z"/>
        <path fill="#E5731F" fill-rule="nonzero" d="M429.88 153.14c-.25.11-.79-1.16-2-2.4-1.28-1.255-2.87-2.146-4.61-2.58v-3.48-.6c1.928.72 3.604 1.99 4.82 3.65 1.65 2.33 2.14 5.27 1.79 5.41zM431.81 141c-.43.3-1.88-2.55-5.5-3.86-.935-.344-1.915-.55-2.91-.61 0-1.82.08-3.93.14-6.38.668.345 1.31.74 1.92 1.18 4.95 3.55 6.92 9.26 6.35 9.67zM433.35 126.84c-.26.14-1.18-2.48-4.1-4.49-1.649-1.114-3.536-1.827-5.51-2.08 0-1.35.06-2.77.09-4.25 1.143.237 2.242.648 3.26 1.22 5.25 2.97 6.66 9.38 6.26 9.6z"/>
        <path fill="#F7D45C" fill-rule="nonzero" d="M467 123.59c-.975 2.88-2.155 5.688-3.53 8.4-.86 1-1.84 2.34-3.07 4-1.23 1.66-2.42 3.36-3.52 4.95-2.24 3.25-4.21 6.31-6.12 9.33-1.65 2.61-3 4.86-4.09 6.59-2.56.07-5.14 0-7.75-.09l-1.76-.11-1.4-.12c.323-2.312.797-4.6 1.42-6.85.17-.62.36-1.23.55-1.83.25-.82.53-1.6.83-2.36 2.095-.688 4.233-1.239 6.4-1.65 4.55-.87 7.47-.81 7.51-1.39.04-.58-3.91-1.65-7.28-1.94-1.438-.108-2.882-.108-4.32 0 .89-1.65 1.9-3.32 3.07-5.13 2 0 4.43 0 7.29-.17 4.38-.24 6.89-.39 7-1 .1-.81-4-2.24-7.89-2.63-1.243-.12-2.493-.144-3.74-.07.89-1.3 1.87-2.69 2.93-4.19l1.52-2.13c2.166-.379 4.36-.573 6.56-.58 3.35 0 5.3.44 5.42 0 .12-.44-3.07-2.42-6.66-2.79-.918-.09-1.842-.09-2.76 0 3.23-4 5.27-5.32 7.75-5.78.69-.12 4-.73 5.57 1 1.07 1.28 1.07 3.38.07 6.54z"/>
        <path fill="#E5731F" fill-rule="nonzero" d="M452.47 142.47c0 .58-3 .52-7.51 1.39-2.167.411-4.305.962-6.4 1.65.42-1.11.88-2.17 1.39-3.23.29-.6.59-1.19.92-1.79 1.438-.108 2.882-.108 4.32 0 3.37.33 7.32 1.29 7.28 1.98zM458.19 134.19c-.07.61-2.58.76-7 1-2.86.16-5.33.19-7.29.17.8-1.21 1.67-2.49 2.62-3.87 1.247-.074 2.497-.05 3.74.07 3.91.44 8.03 1.82 7.93 2.63zM463 124.59c-.12.44-2.07 0-5.42 0-2.2.007-4.394.201-6.56.58.94-1.29 1.78-2.4 2.56-3.35.918-.09 1.842-.09 2.76 0 3.58.35 6.81 2.18 6.66 2.77z"/>
        <path fill="#F7D45C" fill-rule="nonzero" d="M478.15 133.8c-.73 1.24-1.48 2.49-2.27 3.74-.59 1-1.21 1.92-1.83 2.88-3.34 5.17-6.91 10.26-10 14.52-4.757.925-9.572 1.53-14.41 1.81-1 .05-2 .09-3 .12 1-1.68 2.36-3.84 3.94-6.35.7.77 1.55 1.71 2.47 2.78 1.66 1.91 2.25 2.7 2.56 2.55.67-.31-.71-4.57-1.08-5.73-.46-1.41-.94-2.63-1.36-3.64 1.16-1.8 2.38-3.63 3.68-5.53.77-1.11 1.57-2.26 2.42-3.43.972 1.727 1.719 3.572 2.22 5.49.63 2.43.57 3.86.85 3.86.51 0 1.65-4.82.62-9.9-.222-1.082-.536-2.142-.94-3.17.51-.68 1-1.27 1.42-1.8 1.167-1.455 2.51-2.758 4-3.88l.87-.62c1.146 1.833 2.075 3.793 2.77 5.84.78 2.3.9 3.67 1.16 3.64.44 0 1.06-4-.38-7.73-.402-1.042-.943-2.024-1.61-2.92 1.605-.864 3.38-1.362 5.2-1.46 1.35-.06 3.67-.17 4.65 1.17 1.44 1.96-.76 5.75-1.95 7.76z"/>
        <path fill="#E5731F" fill-rule="nonzero" d="M455.64 155.85c-.31.15-.9-.64-2.56-2.55-.92-1.07-1.77-2-2.47-2.78l.15-.24c.8-1.26 1.6-2.52 2.44-3.8.42 1 .9 2.23 1.36 3.64.37 1.16 1.75 5.42 1.08 5.73zM462.37 146.87c-.28 0-.22-1.43-.85-3.86-.501-1.918-1.248-3.763-2.22-5.49.35-.5.72-1 1.1-1.52l1.65-2.2c.409 1.037.727 2.108.95 3.2 1 5.05-.12 9.89-.63 9.87zM472.27 137c-.26 0-.38-1.34-1.16-3.64-.695-2.047-1.624-4.007-2.77-5.84.626-.423 1.274-.813 1.94-1.17.667.896 1.208 1.878 1.61 2.92 1.44 3.73.82 7.67.38 7.73z"/>
        <path fill="#F7D45C" fill-rule="nonzero" d="M505.54 136c-2.12 2.51-4.19 2.83-10.56 6.16-1.08.56-2.07 1.1-3 1.6l-.6.35c-2.28 3.09-13.13 8.08-27.37 10.83 2.11-2.91 4.45-6.22 6.78-9.67 2.75 3.1 3.67 3.59 4 3.39.56-.37-.52-3.06-.78-3.72-.352-.889-.78-1.745-1.28-2.56l1.28-2 1.27-2c1.7 1.086 3.25 2.39 4.61 3.88 1.41 1.55 2.28 2.93 2.56 2.79.28-.14-1.29-4.2-1.86-5.5-.71-1.62-1.38-3-1.9-4 .71-.46 1.45-.91 2.21-1.34 1.54-.89 3-1.63 4.39-2.27.49.54 1 1.19 1.64 1.95 2.92 3.69 3.8 6 4.18 5.89.38-.11-.24-4.24-2.32-8.05-.2-.36-.4-.71-.59-1 2.32-.9 4.51-1.58 6.77-2.27 1.237 1.32 2.402 2.705 3.49 4.15 1.59 2.09 2.32 3.39 2.63 3.25.59-.27-1.2-5.47-1.47-6.27-.27-.8-.58-1.62-.84-2.28 4.44-1.28 7.84-1.9 9.16-.27 1.57 1.96-.18 6.34-2.4 8.96z"/>
        <path fill="#E5731F" fill-rule="nonzero" d="M474.83 148.66c-.33.2-1.25-.29-4-3.39.66-1 1.3-1.91 1.94-2.89.5.815.928 1.671 1.28 2.56.26.66 1.34 3.35.78 3.72zM482.49 145.1c-.28.14-1.15-1.24-2.56-2.79-1.36-1.49-2.91-2.794-4.61-3.88.19-.3.37-.6.56-.89.91-.66 1.86-1.31 2.85-1.93.52 1 1.19 2.37 1.9 4 .57 1.29 2.29 5.24 1.86 5.49zM491.15 139.84c-.38.14-1.26-2.2-4.18-5.89-.6-.76-1.15-1.41-1.64-1.95 1-.46 2-.87 2.91-1.24.19.32.39.67.59 1 2.08 3.84 2.8 7.89 2.32 8.08zM501.13 135.89c-.31.14-1-1.16-2.63-3.25-1.088-1.445-2.253-2.83-3.49-4.15h.08c1.31-.4 2.56-.78 3.73-1.12.26.66.55 1.42.84 2.28.29.86 2.06 5.97 1.47 6.24zM433.74 113.06c-.745-1.443-1.764-2.727-3-3.78-1.931-1.497-4.263-2.388-6.7-2.56 0-.63 0-1.28.05-1.94v-.79c.771-.07 1.549-.01 2.3.18 5.1 1.3 7.54 8.83 7.35 8.89z"/>
        <path fill="#933838" fill-rule="nonzero" d="M543.3 170c-.63 3.65-11.9 4.26-13.15 4.33-7.23.4-16.7-.94-18.09-3.49-.07-.2-.12-.37-.18-.52-.26-2.94 6.59-6.06 7.42-6.29 3.41-.95 14.06-2.71 20 1 .82.56 4.38 2.81 4 4.97z"/>
        <path fill="#E5731F" fill-rule="nonzero" d="M543.3 170c-.37 2.38-2.43 12.15-7.58 16.17-1.322 1.016-3.006 1.436-4.65 1.16-4.72.16-6.07 1.72-10.75-1.47-2.16-1.46-3.17-3.3-5.19-7-1.246-2.596-2.273-5.293-3.07-8.06 1.39 2.55 10.86 3.89 18.09 3.49 1.25-.02 12.52-.63 13.15-4.29z"/>
        <path fill="#FFF" fill-rule="nonzero" d="M541.31 169.83c-.55 3.19-10.39 3.72-11.48 3.79-6.32.34-14.59-.83-15.8-3.05-.06-.17-.1-.32-.15-.45-.23-2.57 5.75-5.29 6.48-5.49 3-.83 12.28-2.37 17.45.89.72.48 3.83 2.41 3.5 4.31z"/>
        <path fill="#F4D6A2" fill-rule="nonzero" d="M584.92 162.23c-.3-2.14-4.44-3.15-6.72-3.71-1.22-.3-8.73-2.13-13.7 2.2-1 .9-2 1.76-2 2.9.11 2.89 6.69 5.94 12.54 5.23 4.64-.57 9.51-3.59 9.86-6.07.037-.181.043-.367.02-.55zm-2.06 1.92c-.781.8-1.682 1.475-2.67 2-3.164 1.743-6.855 2.269-10.38 1.48-1.92-.322-3.712-1.178-5.17-2.47-1.23-1.18-1.16-1.88-1.13-2.09.141-.47.451-.873.87-1.13 2.023-1.83 4.549-3.01 7.25-3.39 1.4-.2 3.38.14 7.35.84 1.24.163 2.43.6 3.48 1.28.59.4 1.48 1 1.48 1.85 0 .39-.17.76-1.08 1.63z"/>
        <path fill="#F36B53" fill-rule="nonzero" d="M583.94 162.55c0 .36-.17.73-1.08 1.6-.781.8-1.682 1.475-2.67 2-3.164 1.743-6.855 2.269-10.38 1.48-1.92-.322-3.712-1.178-5.17-2.47-1.23-1.18-1.16-1.88-1.13-2.09.141-.47.451-.873.87-1.13 2.023-1.83 4.549-3.01 7.25-3.39 1.4-.2 3.38.14 7.35.84 1.24.163 2.43.6 3.48 1.28.59.43 1.48 1.05 1.48 1.88z"/>
        <path fill="#18336D" fill-rule="nonzero" stroke="#18336D" d="M576.33 177.94c-.55 1.473-.847 3.028-.88 4.6v.3c3.77.15 6.29 1.3 6.6 2.82.31 1.52-1.59 3-2 3.35-3.69 3-10 .59-10.41.41-1.54-.68-3.29-2.23-3-3.81.14-.88 1.16-1.44 2.27-2.06 1.105-.607 2.318-.994 3.57-1.14-.044-1.528-.342-3.039-.88-4.47-.11-.31-.22-.61-.32-.87-2-.9-6.3-3.3-8-8.11-.364-1.035-.586-2.115-.66-3.21v-2.13c.11 2.89 6.69 5.94 12.54 5.23 4.64-.57 9.51-3.59 9.86-6.07.103 2.018-.092 4.04-.58 6-1.354 3.567-4.075 6.447-7.56 8-.24.34-.39.73-.55 1.16z"/>
        <path fill="#F4D6A2" fill-rule="nonzero" d="M437.3 229.7c-.3-2.15-4.45-3.15-6.73-3.71-1.21-.3-8.72-2.13-13.7 2.2-1 .9-2 1.76-2 2.9.11 2.89 6.68 5.94 12.54 5.22 4.64-.56 9.5-3.58 9.86-6.07.04-.177.05-.36.03-.54z"/>
        <path fill="#FFF" fill-rule="nonzero" d="M435 229.7c0 .31-.14.63-.92 1.38-.672.698-1.448 1.289-2.3 1.75-2.743 1.513-5.946 1.965-9 1.27-1.625-.285-3.14-1.012-4.38-2.1-1.06-1-1-1.63-1-1.8.122-.415.392-.771.76-1 1.74-1.576 3.915-2.593 6.24-2.92 1.21-.18 2.92.12 6.34.72 1.069.14 2.094.516 3 1.1.53.35 1.26.9 1.26 1.6z"/>
        <path fill="#18336D" fill-rule="nonzero" stroke="#18336D" d="M428.71 245.41c-.55 1.473-.85 3.028-.89 4.6v.3c3.77.15 6.29 1.29 6.6 2.82.31 1.53-1.59 3-2 3.35-3.69 3-10 .59-10.41.41-1.53-.68-3.28-2.24-3-3.81.14-.88 1.16-1.44 2.27-2.06 1.107-.605 2.318-.995 3.57-1.15-.045-1.525-.343-3.032-.88-4.46-.11-.32-.22-.61-.33-.88-2-.9-6.3-3.29-8-8.1-.364-1.035-.586-2.115-.66-3.21v-2.13c.11 2.89 6.68 5.94 12.54 5.22 4.64-.56 9.5-3.58 9.86-6.07.102 2.018-.094 4.04-.58 6-1.356 3.566-4.077 6.444-7.56 8-.24.35-.38.76-.53 1.17zM528.43 202.09c-1.694 1.174-3.068 2.752-4 4.59-.636 1.312-1.013 2.735-1.11 4.19l-.17-.13c-3.19-2.2-8.22-.32-10.91 2.44-1.399 1.48-2.343 3.33-2.72 5.33-1.268-.552-2.491-1.2-3.66-1.94-2-1.29-3.36-2.68-3.75-4-.076-.284-.113-.576-.11-.87.2-4.79 13.08-9.19 26.43-9.61zM557.6 211.46s0 0 0 0c-.23 1.41-1.49 2.9-3.49 4.33-.333.227-.683.457-1.05.69-1.512-1.358-3.295-2.38-5.23-3-.63-3.7-2.209-7.172-4.58-10.08 7 1.42 14.16 4 14.39 7.47.01.198-.003.396-.04.59h0z"/>
        <path fill="#933838" fill-rule="nonzero" d="M557.26 216.2c-.224.983-.602 1.925-1.12 2.79-.3 4.8-14.08 10.86-27 10.68-9.57-.13-20.29-3.72-23.81-7.61-.26-.45-.64-1-1-1.67-.808-1.173-1.4-2.48-1.75-3.86-.245-1.32-.382-2.658-.41-4 .39 1.36 1.73 2.75 3.75 4 1.169.74 2.392 1.388 3.66 1.94 2.99 1.29 6.102 2.276 9.29 2.94 3.265.708 6.59 1.1 9.93 1.17 9.2.13 18.81-2.71 24.29-6.13.373-.233.723-.463 1.05-.69 2-1.43 3.26-2.92 3.49-4.33.065 1.599-.06 3.2-.37 4.77z"/>
        <path fill="#F7D45C" fill-rule="nonzero" d="M524.77 212.46c-1.154.751-2.197 1.66-3.1 2.7-1.495 1.802-2.473 3.976-2.83 6.29-3.188-.664-6.3-1.65-9.29-2.94.377-2 1.321-3.85 2.72-5.33 2.69-2.76 7.72-4.64 10.91-2.44l.17.13c.57.436 1.051.975 1.42 1.59z"/>
        <path fill="#F7D45C" fill-rule="nonzero" d="M547.83 213.47c-2.381-.79-4.945-.85-7.36-.17-1.182.34-2.305.859-3.33 1.54-.378-1.398-1.204-2.634-2.35-3.52-2.71-1.92-6.79-1-10 1.14-.369-.615-.85-1.154-1.42-1.59.097-1.455.474-2.878 1.11-4.19.932-1.838 2.306-3.416 4-4.59 2.96-2.18 6.755-2.885 10.3-1.91 1.782.611 3.349 1.726 4.51 3.21 2.357 2.912 3.921 6.385 4.54 10.08z"/>
        <path fill="#FFF" fill-rule="nonzero" d="M553.06 216.49c-5.48 3.42-15.09 6.26-24.29 6.13-3.34-.07-6.665-.462-9.93-1.17.357-2.314 1.335-4.488 2.83-6.29.903-1.04 1.946-1.949 3.1-2.7 3.23-2.1 7.31-3.06 10-1.14 1.146.886 1.972 2.122 2.35 3.52 1.025-.681 2.148-1.2 3.33-1.54 2.415-.68 4.979-.62 7.36.17 1.944.623 3.734 1.653 5.25 3.02z"/>
        <path fill="#E08D53" fill-rule="nonzero" d="M470 244.91c-2 2.47-4.67 3.58-6.08 2.51-1.389 2.028-2.905 3.965-4.54 5.8-3.115 3.548-6.594 6.759-10.38 9.58-.527.36-1.243.254-1.642-.245-.398-.498-.345-1.22.122-1.655 2.59-2.16 6.11-5.17 10.22-8.88 2.62-2.37 4.6-4.24 5.69-5.11-.85-1.34-.28-3.85 1.45-6 2-2.48 4.71-3.6 6.12-2.48 1.41 1.12.97 3.99-.96 6.48zM488.07 242.43c-1.95 2.47-4.66 3.58-6.08 2.52-1.393 2.022-2.906 3.959-4.53 5.8-3.105 3.54-6.566 6.75-10.33 9.58-.53.365-1.25.256-1.65-.248-.398-.504-.337-1.231.14-1.662 2.59-2.16 6.11-5.16 10.21-8.88 2.63-2.36 4.61-4.23 5.7-5.11-.85-1.33-.29-3.84 1.44-6 2-2.49 4.71-3.6 6.12-2.49 1.41 1.11.91 4.06-1.02 6.49z"/>
        <path fill="#0A1933" fill-rule="nonzero" d="M568.21 236.55c.31-2.17 36.52-52 36.52-52l24.45-.61L593.59 239l-25.38-2.45z"/>
        <path fill="#18336D" fill-rule="nonzero" stroke="#18336D" d="M550.33 241.74c-.65 1.27-1.424 2.472-2.31 3.59-7.46 9.4-20.42 9.85-24.6 9.77-.235-.734-.546-1.441-.93-2.11-.14-.25-.35-.56-.58-.9l6.61-2.47c7.333-2.707 14.603-5.333 21.81-7.88z"/>
        <path fill="#933838" fill-rule="nonzero" d="M522.1 257.37c-1.402.253-2.7.906-3.74 1.88-1.63 1.63-1 2.86-2.55 4.36-2.41 2.4-6.85 2.19-7.54 2.15-1.92-.12-3.19-.68-4.3.17-.81.62-.63 1.31-1.56 2-1.03.775-2.378.992-3.6.58-1.95-.74-2.31-3.18-2.61-4.76-.16-.84-.4-2.09.29-2.9s2.3-.79 2.9-.75c4 .19 5.46-2.39 16.54-6.74.79-.31 2.08-.8 3.71-1.38.02.302.056.602.11.9.255 1.486.92 2.872 1.92 4l.43.49z"/>
        <path fill="#933838" fill-rule="nonzero" d="M523.53 258.1c-.35.19-1-.32-1.43-.73l-.43-.44c-1-1.128-1.665-2.514-1.92-4-.054-.298-.09-.598-.11-.9 0-.85.12-1.46.41-1.58.44-.18 1.26.79 1.86 1.66.23.34.44.65.58.9.384.669.695 1.376.93 2.11.47 1.43.58 2.74.11 2.98z"/>
        <path stroke="#2D323D" stroke-linecap="round" stroke-linejoin="round" stroke-width=".72" d="M512.85 259.06c.75 1.162 1.91 1.998 3.25 2.34.301.075.61.118.92.13M509.23 260.13c.668.546 1.377 1.041 2.12 1.48 1.43.837 2.972 1.467 4.58 1.87M506.93 261.63c.627.538 1.296 1.026 2 1.46 1.435.875 2.997 1.523 4.63 1.92M503.68 263c1.482 1.177 3.134 2.121 4.9 2.8"/>
        <path fill="#E5204E" fill-rule="nonzero" d="M463.76 214.42c-2.086-3.22-1.835-7.422.62-10.37 2.167-2.54 5.562-3.672 8.82-2.94.43.1 5.1 1.2 6.5 5.57.949 3.358-.21 6.957-2.94 9.13-3.7 2.99-10.11 2.75-13-1.39z"/>
        <path fill="#18336D" fill-rule="nonzero" stroke="#18336D" d="M476.14 206.06c-.51-.09-1-3.49.54-6.26 1.14-2.11 3.36-3.76 4-3.33.64.43 0 2.52-.62 3.87-.83 1.71-1.64 1.87-3.1 4.41-.52.96-.64 1.34-.82 1.31zM477.84 205.6c0-.83 2.07-1.92 4-1.63 1.397.305 2.587 1.213 3.25 2.48.52.86 1.08 2.32.62 2.71-.46.39-1.12-.23-2.63-1-3.7-1.88-5.22-1.85-5.24-2.56z"/>
        <path fill="#F7D45C" fill-rule="nonzero" d="M457.61 203.32c-1.087-2.813-3.836-4.63-6.85-4.53-3.273.212-6.036 2.51-6.84 5.69-.13.46-1 3.79 1.16 6.26 2.16 2.47 6.32 2.77 9.16 1 2.66-1.56 4.57-5.06 3.37-8.42z"/>
        <path fill="#E5731F" fill-rule="nonzero" d="M469 214.81c-3.3-2.55-8.88-3.12-12.18-.12-.37.33-2.86 2.67-2.44 5.92.42 3.25 3.28 4.78 4.06 5.22 2.644 1.35 5.757 1.435 8.47.23.56-.24 5.16-2.29 5.23-6 .02-2.8-2.45-4.71-3.14-5.25z"/>
        <path fill="#F7D45C" fill-rule="nonzero" d="M494.75 217.71c-2.78 0-5.36 2.76-5 5.1.36 2.34 3.29 3.23 4.41 3.6 1.12.37 3.29 1.09 4.64 0 1.58-1.27 1.29-4.28.12-6.15-.899-1.471-2.45-2.42-4.17-2.55z"/>
        <path fill="#E5204E" fill-rule="nonzero" d="M499 197.86c-2.49-3.7-.21-8.4 0-8.82 1.549-2.819 4.272-4.802 7.43-5.41 3.65-.78 9.31 0 11.76 4.48 1.738 3.214 1.436 7.148-.77 10.06-2.68 3.32-7 3.18-9.6 3.1-2.6-.08-6.63-.22-8.82-3.41z"/>
        <path fill="#933838" fill-rule="nonzero" d="M843.35 195.15c-.29.48-.58 1-.87 1.42-7.887 12.4-18.334 22.969-30.64 31l-2.4-.38c-11.165-.954-21.887-4.812-31.1-11.19-4.354-3.32-8.421-7-12.16-11 1.5-11.282 3.728-22.455 6.67-33.45.09-.33.17-.66.26-1 3.982 4.371 8.463 8.261 13.35 11.59 20.85 14.14 43.88 14.33 56.89 13.01z"/>
        <path fill="#933838" fill-rule="nonzero" d="M854 172.39c-1.836 4.974-3.926 9.85-6.26 14.61-13.4 1.8-37.58 2.37-59.19-12.28-4.824-3.283-9.245-7.122-13.17-11.44 4-11.29 7.37-13.09 7.37-13.09 1.281 1.096 2.423 2.346 3.4 3.72 4.08 7.58 10.84 11.27 22 17.33 17.14 9.3 43.07 6.56 45.85 1.15z"/>
        <path fill="#F7D45C" fill-rule="nonzero" d="M847.74 187c-1.4 2.87-2.9 5.7-4.39 8.19-13 1.32-36 1.13-56.89-13-4.887-3.329-9.368-7.219-13.35-11.59.77-2.78 1.54-5.19 2.27-7.28 3.925 4.318 8.346 8.157 13.17 11.44 21.61 14.57 45.79 14 59.19 12.24z"/>
        <path fill="#E5731F" fill-rule="nonzero" d="M799.74 150.26c-2.129 4.24-3.615 8.773-4.41 13.45-3.814-2.485-6.965-5.862-9.18-9.84-.977-1.374-2.119-2.624-3.4-3.72 4.44-.15 10.33-.29 16.99.11z"/>
        <path fill="#18336D" fill-rule="nonzero" stroke="#18336D" d="M848.57 134.78c-.124 1.01-.311 2.013-.56 3-1.333 5.56-4.737 12.867-10.21 21.92l-2.44-1.09c4.81-8 8.06-14.58 9.65-19.64.328-1.02.595-2.058.8-3.11.64-3.22.35-5.55-.9-6.9-1.25-1.35-3.51-1.93-6.58-1.85-8.66.23-22.6 6.23-31.36 16.88-1.666 2.025-3.13 4.209-4.37 6.52l-2.86-.21c1.437-2.848 3.18-5.53 5.2-8 9.26-11.3 24.06-17.61 33.32-17.86 3.9-.11 6.87.83 8.59 2.69 1.56 1.7 2.133 4.25 1.72 7.65z"/>
        <path fill="#18336D" fill-rule="nonzero" stroke="#18336D" d="M802.6 150.47c-2.468 4.621-4.116 9.635-4.87 14.82-.08.55-.15 1.09-.22 1.64-.035.348-.209.666-.481.885-.273.218-.622.317-.969.275-.719-.084-1.236-.73-1.16-1.45.11-1 .26-2 .43-2.93.795-4.677 2.281-9.21 4.41-13.45l2.86.21zM837.8 159.66c-3.1 5.147-6.86 10.857-11.28 17.13-1 1.38-2 2.8-3 4.23-.24.347-.638.553-1.06.55-.276-.003-.545-.09-.77-.25-.59-.426-.724-1.249-.3-1.84.77-1.06 1.51-2.1 2.23-3.12 4.61-6.49 8.53-12.44 11.76-17.79l2.42 1.09zM845.81 135.82c-.205 1.052-.472 2.09-.8 3.11-5.69 2.347-11.23 5.042-16.59 8.07-3.22 1.83-6.37 3.83-9.41 6-1.16-.27-2.31-.52-3.46-.75 3.71-2.727 7.577-5.235 11.58-7.51 6.025-3.378 12.265-6.358 18.68-8.92h0z"/>
        <path fill="#E5731F" fill-rule="nonzero" d="M835.36 158.57c-3.23 5.35-7.15 11.3-11.76 17.79-5.404-.876-10.631-2.619-15.48-5.16-4-2.18-7.44-4.06-10.39-5.91.754-5.185 2.402-10.199 4.87-14.82 4.347.356 8.67.953 12.95 1.79 1.15.23 2.3.48 3.46.75 5.07 1.178 10.023 2.812 14.8 4.88l1.55.68z"/>
        <path fill="#18336D" fill-rule="nonzero" stroke="#18336D" d="M861.39 156.62c-3.526 3.77-7.778 6.787-12.5 8.87-.88-.57-1.82-1.13-2.8-1.68 5.08-1.951 9.65-5.028 13.37-9 6.1-6.57 11.32-16.58 8.91-19.65-2.15-2.75-10.46-1.19-20.36 2.56.249-.987.436-1.99.56-3 9.45-3.46 18.69-5.28 21.86-1.22 4.28 5.5-4.24 17.95-9.04 23.12z"/>
        <path fill="#E5731F" fill-rule="nonzero" d="M854.24 171.81l-.21.58c-1.9 3.65-14.35 6.09-27.51 4.4 4.42-6.267 8.18-11.977 11.28-17.13 2.59 1.18 5.58 2.62 8.29 4.15 1 .55 1.92 1.11 2.8 1.68 3.36 2.18 5.73 4.43 5.35 6.32z"/>
    </g>
</svg>
