<svg xmlns="http://www.w3.org/2000/svg" xmlns:xlink="http://www.w3.org/1999/xlink" width="151" height="196" viewBox="0 0 151 196">
    <defs>
        <path id="prefix__a" d="M0 0.887L106.123 0.887 106.123 117 0 117z"/>
        <path id="prefix__c" d="M0.741 0.816L4.811 0.816 4.811 5.328 0.741 5.328z"/>
    </defs>
    <g fill="none" fill-rule="evenodd">
        <g transform="translate(0 78.423)">
            <mask id="prefix__b" fill="#fff">
                <use xlink:href="#prefix__a"/>
            </mask>
            <path fill="#FF7629" d="M99.803 51.202c.895-.987 1.729-2.053 2.476-3.209 7.194-11.14 3.997-26.002-7.143-33.196L79.55 4.73C68.41-2.464 53.55.734 46.355 11.873c-.747 1.157-1.375 2.355-1.901 3.58C32.934 43.78 16.47 35.013 4.839 53.02c-11.422 17.684-1.703 40.624 19.487 54.311 21.19 13.686 45.889 13.434 57.52-4.573 11.63-18.009-3.131-29.41 17.957-51.557" mask="url(#prefix__b)"/>
        </g>
        <path fill="#EE520E" d="M99.803 129.625c.895-.987 1.729-2.053 2.476-3.209 7.194-11.14 3.997-26.002-7.143-33.196l-8.83-5.703-9.345 15.46c1.637 6.281.738 13.202-3.062 19.085-.746 1.156-1.58 2.222-2.48 3.205-21.084 22.151-6.321 33.552-17.952 51.56-4.931 7.634-12.21 12.068-20.573 13.61 18.937 8.612 38.86 6.368 48.952-9.255 11.63-18.009-3.131-29.41 17.957-51.557"/>
        <path fill="#FF7629" d="M97.481 121.065c-6.627 10.262-21.144 12.675-32.423 5.39-11.28-7.286-15.05-21.51-8.423-31.771 6.628-10.262 21.145-12.675 32.423-5.39 11.28 7.286 15.05 21.51 8.423 31.77"/>
        <path fill="#313960" d="M83.506 150.874c-3.568 5.525-10.835 7.181-16.23 3.696-5.394-3.484-6.874-10.788-3.306-16.313 3.569-5.526 9.698-25.958 15.093-22.474 5.394 3.485 12.03 23.344 4.443 35.091"/>
        <path fill="#FFA829" d="M76.921 135.871c-5.149 7.973-15.786 10.262-23.759 5.112-7.972-5.149-10.261-15.786-5.112-23.758 5.149-7.973 15.787-10.26 23.759-5.112 7.972 5.15 10.26 15.786 5.112 23.758"/>
        <path fill="#2B2A3F" d="M73.419 133.61c-3.9 6.039-11.957 7.772-17.995 3.872-6.038-3.9-7.773-11.957-3.872-17.995 3.9-6.038 11.957-7.773 17.995-3.872 6.039 3.9 7.772 11.957 3.872 17.995M48.835 172.823s-5.6 1.447-13.708-3.79-9.207-11.01-9.207-11.01l1.661-2.573 22.915 14.801-1.661 2.572z"/>
        <path fill="#FFF" d="M44.728 169.226L30.888 160.287 33.088 156.88 46.928 165.82z"/>
        <path fill="#4E6CC9" d="M74.76 122.728L60.92 113.79 121.713 23.427 132.123 30.15z"/>
        <path fill="#EE520E" d="M116.946 30.543l10.665 6.888 1.564.013c2.592.024 5.077-1.753 6.124-4.372 1.515-3.792 3.264-9.4 5.088-12.165 2.782-4.213 5.247-6.13 7.033-8.895 4.123-6.384-11.359-16.316-15.45-9.98-1.787 2.765-2.52 5.801-5.217 10.07-1.769 2.798-6.162 6.7-8.996 9.641-1.957 2.031-2.554 5.027-1.466 7.38l.655 1.42z"/>
        <path fill="#313960" d="M125.125 5.046c-.758-.489-.976-1.5-.486-2.258l.804-1.245c.49-.758 1.5-.975 2.258-.485s.976 1.5.487 2.258l-.805 1.245c-.489.757-1.5.974-2.258.485M131.497 8.553c-.687-.443-.885-1.361-.44-2.05l.412-.638c.444-.688 1.362-.885 2.05-.441.687.443.884 1.36.441 2.049l-.413.64c-.445.687-1.363.884-2.05.44"/>
        <path fill="#313960" d="M131.592 7.121L126.969 4.136 127.63 3.112 132.253 6.099zM120.267 12.57c-.758-.49-.976-1.502-.486-2.26l.804-1.245c.49-.758 1.5-.974 2.258-.484.758.489.976 1.5.486 2.258l-.804 1.245c-.49.757-1.5.975-2.258.486M126.639 16.076c-.687-.444-.886-1.362-.441-2.05l.413-.639c.444-.688 1.362-.885 2.049-.44.688.443.885 1.36.44 2.048l-.411.64c-.445.687-1.363.884-2.05.441"/>
        <path fill="#313960" d="M126.734 14.645L122.111 11.659 122.772 10.636 127.394 13.622zM115.407 20.092c-.758-.489-.975-1.501-.485-2.259l.803-1.244c.49-.758 1.501-.976 2.26-.486.756.489.974 1.5.485 2.258l-.804 1.245c-.489.757-1.5.975-2.259.486M121.78 23.599c-.688-.444-.886-1.362-.44-2.05l.412-.64c.443-.687 1.361-.884 2.05-.44.687.444.884 1.36.44 2.05l-.413.639c-.444.687-1.362.885-2.049.44"/>
        <path fill="#313960" d="M121.874 22.167L117.252 19.181 117.913 18.158 122.535 21.144z"/>
        <g transform="translate(146 14.423)">
            <mask id="prefix__d" fill="#fff">
                <use xlink:href="#prefix__c"/>
            </mask>
            <path fill="#313960" d="M1.487 5.066c.758.49 1.77.272 2.26-.485l.803-1.245c.49-.758.272-1.769-.486-2.258-.758-.49-1.769-.273-2.259.485l-.803 1.245c-.49.758-.272 1.77.485 2.258" mask="url(#prefix__d)"/>
        </g>
        <path fill="#313960" d="M141.67 15.124c.688.444 1.605.246 2.05-.44l.413-.64c.444-.689.247-1.606-.442-2.05-.687-.444-1.605-.247-2.048.441l-.413.64c-.445.687-.247 1.605.44 2.05"/>
        <path fill="#313960" d="M147.559 17.435L142.937 14.45 143.598 13.426 148.22 16.412zM142.629 27.013c.758.489 1.769.27 2.258-.486l.805-1.245c.489-.758.271-1.77-.487-2.258-.758-.49-1.768-.272-2.258.486l-.803 1.244c-.491.758-.273 1.77.485 2.259M136.812 22.647c.687.444 1.605.247 2.05-.441l.413-.64c.444-.687.246-1.605-.442-2.05-.687-.443-1.605-.246-2.05.443l-.411.638c-.445.688-.247 1.606.44 2.05"/>
        <path fill="#313960" d="M142.7 24.957L138.078 21.972 138.739 20.948 143.361 23.934zM137.77 34.535c.759.49 1.77.271 2.259-.486l.805-1.244c.489-.758.27-1.77-.487-2.259-.758-.49-1.768-.272-2.258.486l-.804 1.244c-.49.758-.272 1.77.486 2.26M131.953 30.17c.687.443 1.605.246 2.05-.442l.412-.639c.444-.688.247-1.606-.44-2.05-.688-.444-1.606-.247-2.05.442l-.413.638c-.444.688-.246 1.606.441 2.05"/>
        <path fill="#313960" d="M137.842 32.48L133.22 29.495 133.88 28.471 138.503 31.457z"/>
        <path fill="#FFF" d="M35.051 162.976L34.539 162.645 134.815 7.39 135.326 7.72zM38.063 164.921L37.551 164.591 137.827 9.335 138.339 9.666zM41.077 166.867L40.565 166.537 140.841 11.281 141.352 11.612z"/>
    </g>
</svg>
