<?xml version="1.0" encoding="UTF-8"?>
<svg width="168px" height="49px" viewBox="0 0 168 49" version="1.1" xmlns="http://www.w3.org/2000/svg" xmlns:xlink="http://www.w3.org/1999/xlink">
    <title>seemore_gulitar_m</title>
    <g id="Symbols" stroke="none" stroke-width="1" fill="none" fill-rule="evenodd">
        <g id="component/ticket/m" transform="translate(-86.000000, 0.000000)">
            <g id="seemore_gulitar_m" transform="translate(86.000000, 0.000000)">
                <g id="-triangle" transform="translate(0.000000, 25.000000)" fill="#18336D">
                    <polygon id="Fill-1" transform="translate(12.111642, 11.537067) scale(-1, 1) translate(-12.111642, -11.537067) " points="17.7995015 0 3.63797881e-12 23.0741349 24.2232845 11.306129"></polygon>
                    <polygon id="Fill-2" transform="translate(154.581195, 11.836835) rotate(-90.000000) translate(-154.581195, -11.836835) " points="154.347317 24.6736698 163.16239 15.6399748 146 -1"></polygon>
                </g>
                <path d="M124.9376,45.32 L42.66,45.32 C31.2976,45.32 22,36.0232 22,24.66 C22,13.2968 31.2976,4 42.66,4 L124.9376,4 C136.3008,4 145.5976,13.2968 145.5976,24.66 C145.5976,36.0232 136.3008,45.32 124.9376,45.32" id="Fill-1" fill="#F28555"></path>
                <path d="M124.9376,41.32 L42.66,41.32 C31.2976,41.32 22,32.0232 22,20.66 C22,9.2968 31.2976,0 42.66,0 L124.9376,0 C136.3008,0 145.5976,9.2968 145.5976,20.66 C145.5976,32.0232 136.3008,41.32 124.9376,41.32" id="Fill-4" fill="#FFD974"></path>
                <polyline id="Stroke-4" stroke="#18336D" stroke-width="1.43181818" stroke-linecap="round" stroke-linejoin="round" points="118 17 124 21.5 118 26"></polyline>
                <polyline id="Stroke-5" stroke="#18336D" stroke-width="1.43181818" stroke-linecap="round" stroke-linejoin="round" points="123 17 129 21.5 123 26"></polyline>
                <path d="M50.032,28.088 C50.816,27.8 51.072,27.288 51.072,26.2 L51.072,20.024 C53.072,18.84 55.104,17.144 56.576,15.576 L55.04,14.456 L54.624,14.568 L43.52,14.568 L43.52,16.44 L52.752,16.44 C51.696,17.384 50.32,18.408 49.072,19.064 L49.072,26.152 C49.072,26.424 48.944,26.52 48.592,26.52 C48.24,26.52 46.928,26.536 45.792,26.488 C46.096,27 46.464,27.848 46.56,28.408 C48.096,28.424 49.232,28.376 50.032,28.088 Z M60.76,28.424 C61.496,27.272 61.864,25.72 62.024,24.216 L65.208,24.216 L65.208,26.52 C65.208,26.728 65.128,26.792 64.936,26.792 C64.744,26.792 64.12,26.792 63.48,26.76 C63.72,27.192 63.976,27.912 64.024,28.376 C65,28.376 65.656,28.328 66.152,28.056 C66.632,27.784 66.76,27.304 66.76,26.552 L66.76,23.176 C67.16,23.352 67.736,23.656 68.008,23.848 C68.248,23.496 68.456,23.08 68.648,22.616 L69.976,22.616 L69.976,24.056 L67.016,24.056 L67.016,25.688 L69.976,25.688 L69.976,28.328 L71.784,28.328 L71.784,25.688 L74.504,25.688 L74.504,24.056 L71.784,24.056 L71.784,22.616 L74.184,22.616 L74.184,21.016 L71.784,21.016 L71.784,19.576 L69.976,19.576 L69.976,21.016 L69.192,21.016 C69.288,20.68 69.352,20.328 69.416,19.992 L67.992,19.704 C69.624,18.808 70.232,17.48 70.504,15.816 L72.36,15.816 C72.296,17.144 72.216,17.688 72.072,17.864 C71.96,18.008 71.832,18.04 71.64,18.04 C71.416,18.04 70.984,18.024 70.488,17.976 C70.728,18.376 70.888,19.016 70.92,19.512 C71.56,19.528 72.184,19.512 72.536,19.464 C72.936,19.4 73.24,19.272 73.512,18.936 C73.864,18.52 73.992,17.416 74.072,14.872 C74.088,14.664 74.104,14.264 74.104,14.264 L67,14.264 L67,15.816 L68.792,15.816 C68.568,16.984 68.088,17.912 66.76,18.52 L66.76,17.544 L64.968,17.544 C65.304,16.888 65.624,16.152 65.848,15.528 L64.76,14.856 L64.52,14.936 L63.064,14.936 C63.192,14.568 63.304,14.184 63.4,13.8 L61.72,13.448 C61.288,15.32 60.44,17.192 59.352,18.36 C59.688,18.584 60.28,19.064 60.6,19.384 L60.6,21.752 C60.6,23.544 60.52,25.928 59.448,27.576 C59.8,27.736 60.488,28.168 60.76,28.424 Z M63.368,17.544 L61.992,17.544 C62.184,17.176 62.36,16.776 62.536,16.376 L63.816,16.376 C63.672,16.776 63.528,17.192 63.368,17.544 Z M66.76,22.904 L66.76,18.856 C67.064,19.176 67.384,19.624 67.528,19.944 L67.864,19.784 L67.864,19.784 C67.672,20.92 67.288,22.088 66.76,22.904 Z M65.208,20.136 L64.296,20.136 L64.296,18.936 L65.208,18.936 L65.208,20.136 Z M63.048,20.136 L62.136,20.136 L62.136,18.936 L63.048,18.936 L63.048,20.136 Z M65.208,22.808 L64.296,22.808 L64.296,21.48 L65.208,21.48 L65.208,22.808 Z M63.048,22.808 L62.12,22.808 C62.136,22.44 62.136,22.088 62.136,21.752 L62.136,21.48 L63.048,21.48 L63.048,22.808 Z M82.576,17.592 L82.576,16.088 L79.792,16.088 L80.848,15.512 C80.608,14.92 80.112,14.04 79.68,13.384 L78.256,14.072 C78.608,14.68 79.008,15.48 79.248,16.088 L76.528,16.088 L76.528,17.592 L82.576,17.592 Z M88,28.392 L88,25.16 L91.424,25.16 L91.424,23.4 L88,23.4 L88,21.672 L90.72,21.672 L90.72,19.928 L88,19.928 L88,18.296 L91.216,18.296 L91.216,16.536 L89.504,16.536 C89.984,15.864 90.544,14.952 91.104,14.088 L89.088,13.432 C88.8,14.264 88.272,15.416 87.824,16.168 L88.784,16.536 L85.536,16.536 L86.352,16.136 C86.112,15.4 85.456,14.296 84.896,13.48 L83.344,14.184 C83.792,14.904 84.288,15.816 84.56,16.536 L82.912,16.536 L82.912,18.296 L86.128,18.296 L86.128,19.928 L83.376,19.928 L83.376,21.672 L86.128,21.672 L86.128,23.4 L82.736,23.4 L82.736,25.16 L86.128,25.16 L86.128,28.392 L88,28.392 Z M82.016,19.752 L82.016,18.312 L77.216,18.312 L77.216,19.752 L82.016,19.752 Z M82.016,21.896 L82.016,20.456 L77.216,20.456 L77.216,21.896 L82.016,21.896 Z M78.736,28.184 L78.736,27.512 L82.144,27.512 L82.144,22.664 L77.184,22.664 L77.184,28.184 L78.736,28.184 Z M80.544,25.976 L78.736,25.976 L78.736,24.184 L80.544,24.184 L80.544,25.976 Z M97.576,28.36 L97.576,17.016 C97.848,17.624 98.088,18.264 98.216,18.728 L98.584,18.52 L98.584,19.864 L108.376,19.864 L108.376,18.504 L104.36,18.504 L104.36,17.816 L107.384,17.816 L107.384,16.536 L104.36,16.536 L104.36,15.896 L107.88,15.896 L107.88,14.536 L104.36,14.536 L104.36,13.448 L102.472,13.448 L102.472,14.536 L98.952,14.536 L98.952,15.896 L102.472,15.896 L102.472,16.536 L99.512,16.536 L99.512,17.816 L102.472,17.816 L102.472,18.504 L98.632,18.504 L99.512,18.04 C99.304,17.416 98.792,16.36 98.408,15.56 L97.576,15.944 L97.576,13.432 L95.832,13.432 L95.832,28.36 L97.576,28.36 Z M94.872,21.304 C95.224,20.072 95.528,18.184 95.624,16.808 L94.184,16.6 C94.056,17.928 93.736,19.704 93.384,20.776 L94.872,21.304 Z M99.8,28.536 C100.392,27.832 100.76,26.936 100.968,26.008 L105.72,26.008 L105.72,26.552 C105.72,26.744 105.64,26.808 105.432,26.808 C105.224,26.808 104.472,26.824 103.816,26.776 C104.024,27.24 104.264,27.928 104.328,28.392 C105.432,28.392 106.232,28.392 106.776,28.12 C107.368,27.864 107.528,27.416 107.528,26.584 L107.528,20.472 L99.432,20.472 L99.432,23.368 C99.432,24.616 99.352,26.152 98.44,27.272 C98.792,27.512 99.544,28.184 99.8,28.536 Z M105.72,22.616 L101.208,22.616 L101.208,21.8 L105.72,21.8 L105.72,22.616 Z M105.72,24.696 L101.16,24.696 C101.176,24.44 101.192,24.2 101.192,23.96 L105.72,23.96 L105.72,24.696 Z" id="了解詳情" fill="#18336D" fill-rule="nonzero"></path>
            </g>
        </g>
    </g>
</svg>