<?xml version="1.0" encoding="UTF-8"?>
<svg width="142px" height="112px" viewBox="0 0 142 112" version="1.1" xmlns="http://www.w3.org/2000/svg" xmlns:xlink="http://www.w3.org/1999/xlink">
    <title>gulitar_seemore</title>
    <g id="Symbols" stroke="none" stroke-width="1" fill="none" fill-rule="evenodd">
        <g id="component/ticket/web/hover" transform="translate(-540.000000, -154.000000)">
            <g id="ticket_gulitar_hover">
                <g id="gulitar_seemore" transform="translate(540.000000, 154.000000)">
                    <polygon id="Fill-1" fill="#18336D" points="41.5692 0.0003 12.6662 37.4683 52.0002 18.3593"></polygon>
                    <polygon id="Fill-2" fill="#18336D" points="22.2795 111.36 36.5935 96.691 0.0005 78.542"></polygon>
                    <polygon id="Fill-3" fill="#F6F1E5" points="14.6349 46.2315 12.4229 69.2365 124.7909 93.5685 141.8229 37.8265"></polygon>
                    <polyline id="Stroke-4" stroke="#18336D" stroke-width="1.55" stroke-linecap="round" stroke-linejoin="round" points="113.6533 56.0033 119.8463 60.6483 113.6533 65.2933"></polyline>
                    <polyline id="Stroke-5" stroke="#18336D" stroke-width="1.55" stroke-linecap="round" stroke-linejoin="round" points="119.3095 56.0033 125.5025 60.6483 119.3095 65.2933"></polyline>
                    <path d="M39.036,68.224 C39.918,67.9 40.206,67.324 40.206,66.1 L40.206,59.152 C42.456,57.82 44.742,55.912 46.398,54.148 L44.67,52.888 L44.202,53.014 L31.71,53.014 L31.71,55.12 L42.096,55.12 C40.908,56.182 39.36,57.334 37.956,58.072 L37.956,66.046 C37.956,66.352 37.812,66.46 37.416,66.46 C37.02,66.46 35.544,66.478 34.266,66.424 C34.608,67 35.022,67.954 35.13,68.584 C36.858,68.602 38.136,68.548 39.036,68.224 Z M50.98,68.602 C51.808,67.306 52.222,65.56 52.402,63.868 L55.984,63.868 L55.984,66.46 C55.984,66.694 55.894,66.766 55.678,66.766 L55.4321875,66.7654375 C55.109875,66.76375 54.58,66.757 54.04,66.73 C54.31,67.216 54.598,68.026 54.652,68.548 C55.75,68.548 56.488,68.494 57.046,68.188 C57.586,67.882 57.73,67.342 57.73,66.496 L57.73,62.698 C58.18,62.896 58.828,63.238 59.134,63.454 C59.404,63.058 59.638,62.59 59.854,62.068 L61.348,62.068 L61.348,63.688 L58.018,63.688 L58.018,65.524 L61.348,65.524 L61.348,68.494 L63.382,68.494 L63.382,65.524 L66.442,65.524 L66.442,63.688 L63.382,63.688 L63.382,62.068 L66.082,62.068 L66.082,60.268 L63.382,60.268 L63.382,58.648 L61.348,58.648 L61.348,60.268 L60.466,60.268 C60.574,59.89 60.646,59.494 60.718,59.116 L59.116,58.792 C60.952,57.784 61.636,56.29 61.942,54.418 L64.03,54.418 C63.958,55.912 63.868,56.524 63.706,56.722 C63.58,56.884 63.436,56.92 63.22,56.92 C62.968,56.92 62.482,56.902 61.924,56.848 C62.194,57.298 62.374,58.018 62.41,58.576 C63.13,58.594 63.832,58.576 64.228,58.522 C64.678,58.45 65.02,58.306 65.326,57.928 C65.722,57.46 65.866,56.218 65.956,53.356 C65.974,53.122 65.992,52.672 65.992,52.672 L58,52.672 L58,54.418 L60.016,54.418 C59.764,55.732 59.224,56.776 57.73,57.46 L57.73,56.362 L55.714,56.362 C56.092,55.624 56.452,54.796 56.704,54.094 L55.48,53.338 L55.21,53.428 L53.572,53.428 C53.716,53.014 53.842,52.582 53.95,52.15 L52.06,51.754 C51.574,53.86 50.62,55.966 49.396,57.28 C49.774,57.532 50.44,58.072 50.8,58.432 L50.8,61.096 C50.8,63.112 50.71,65.794 49.504,67.648 C49.9,67.828 50.674,68.314 50.98,68.602 Z M53.914,56.362 L52.366,56.362 C52.582,55.948 52.78,55.498 52.978,55.048 L54.418,55.048 C54.256,55.498 54.094,55.966 53.914,56.362 Z M57.73,62.392 L57.73,57.838 C58.072,58.198 58.432,58.702 58.594,59.062 L58.972,58.882 L58.972,58.882 C58.756,60.16 58.324,61.474 57.73,62.392 Z M55.984,59.278 L54.958,59.278 L54.958,57.928 L55.984,57.928 L55.984,59.278 Z M53.554,59.278 L52.528,59.278 L52.528,57.928 L53.554,57.928 L53.554,59.278 Z M55.984,62.284 L54.958,62.284 L54.958,60.79 L55.984,60.79 L55.984,62.284 Z M53.554,62.284 L52.51,62.284 C52.528,61.87 52.528,61.474 52.528,61.096 L52.528,60.79 L53.554,60.79 L53.554,62.284 Z M75.398,56.416 L75.398,54.724 L72.266,54.724 L73.454,54.076 C73.184,53.41 72.626,52.42 72.14,51.682 L70.538,52.456 C70.934,53.14 71.384,54.04 71.654,54.724 L68.594,54.724 L68.594,56.416 L75.398,56.416 Z M81.5,68.566 L81.5,64.93 L85.352,64.93 L85.352,62.95 L81.5,62.95 L81.5,61.006 L84.56,61.006 L84.56,59.044 L81.5,59.044 L81.5,57.208 L85.118,57.208 L85.118,55.228 L83.192,55.228 C83.732,54.472 84.362,53.446 84.992,52.474 L82.724,51.736 C82.4,52.672 81.806,53.968 81.302,54.814 L82.382,55.228 L78.728,55.228 L79.646,54.778 C79.376,53.95 78.638,52.708 78.008,51.79 L76.262,52.582 C76.766,53.392 77.324,54.418 77.63,55.228 L75.776,55.228 L75.776,57.208 L79.394,57.208 L79.394,59.044 L76.298,59.044 L76.298,61.006 L79.394,61.006 L79.394,62.95 L75.578,62.95 L75.578,64.93 L79.394,64.93 L79.394,68.566 L81.5,68.566 Z M74.768,58.846 L74.768,57.226 L69.368,57.226 L69.368,58.846 L74.768,58.846 Z M74.768,61.258 L74.768,59.638 L69.368,59.638 L69.368,61.258 L74.768,61.258 Z M71.078,68.332 L71.078,67.576 L74.912,67.576 L74.912,62.122 L69.332,62.122 L69.332,68.332 L71.078,68.332 Z M73.112,65.848 L71.078,65.848 L71.078,63.832 L73.112,63.832 L73.112,65.848 Z M92.148,68.53 L92.148,55.768 C92.454,56.452 92.724,57.172 92.868,57.694 L93.282,57.46 L93.282,58.972 L104.298,58.972 L104.298,57.442 L99.78,57.442 L99.78,56.668 L103.182,56.668 L103.182,55.228 L99.78,55.228 L99.78,54.508 L103.74,54.508 L103.74,52.978 L99.78,52.978 L99.78,51.754 L97.656,51.754 L97.656,52.978 L93.696,52.978 L93.696,54.508 L97.656,54.508 L97.656,55.228 L94.326,55.228 L94.326,56.668 L97.656,56.668 L97.656,57.442 L93.336,57.442 L94.326,56.92 C94.092,56.218 93.516,55.03 93.084,54.13 L92.148,54.562 L92.148,51.736 L90.186,51.736 L90.186,68.53 L92.148,68.53 Z M89.106,60.592 C89.502,59.206 89.844,57.082 89.952,55.534 L88.332,55.3 C88.188,56.794 87.828,58.792 87.432,59.998 L89.106,60.592 Z M94.65,68.728 C95.316,67.936 95.73,66.928 95.964,65.884 L101.31,65.884 L101.31,66.496 C101.31,66.712 101.22,66.784 100.986,66.784 C100.752,66.784 99.906,66.802 99.168,66.748 C99.402,67.27 99.672,68.044 99.744,68.566 C100.986,68.566 101.886,68.566 102.498,68.26 C103.164,67.972 103.344,67.468 103.344,66.532 L103.344,59.656 L94.236,59.656 L94.236,62.914 C94.236,64.318 94.146,66.046 93.12,67.306 C93.516,67.576 94.362,68.332 94.65,68.728 Z M101.31,62.068 L96.234,62.068 L96.234,61.15 L101.31,61.15 L101.31,62.068 Z M101.31,64.408 L96.18,64.408 C96.198,64.12 96.216,63.85 96.216,63.58 L101.31,63.58 L101.31,64.408 Z" id="了解詳情" fill="#18336D" fill-rule="nonzero"></path>
                </g>
            </g>
        </g>
    </g>
</svg>