<svg xmlns="http://www.w3.org/2000/svg" xmlns:xlink="http://www.w3.org/1999/xlink" width="151" height="196" viewBox="0 0 151 196">
    <defs>
        <path id="prefix__a" d="M0 127L126.758 127 126.758 0.058 0 0.058z"/>
    </defs>
    <g fill="none" fill-rule="evenodd">
        <path fill="#732622" d="M0 66.817L104.336 66.817 104.336 61.487 0 61.487zM0 127.942L104.336 127.942 104.336 122.612 0 122.612z" transform="translate(0 62)"/>
        <path fill="#FFD974" d="M5.996 122.688L98.34 122.688 98.34 66.741 5.996 66.741z" transform="translate(0 62)"/>
        <g transform="translate(0 62) translate(0 .942)">
            <path fill="#F3AB55" d="M84.1 121.746h14.24V69.408H68.12c9.456 2.614 15.98 11.023 15.98 20.594v31.744z"/>
            <mask id="prefix__b" fill="#fff">
                <use xlink:href="#prefix__a"/>
            </mask>
            <path fill="#FFD974" d="M2.386 121.67L3.828 121.67 3.828 65.875 2.386 65.875z" mask="url(#prefix__b)"/>
            <path fill="#F86155" d="M5.996 105.194L1.402 105.194 0.217 95.219 1.402 85.245 5.996 85.245z" mask="url(#prefix__b)"/>
            <path fill="#FFD974" d="M100.497 121.67L101.94 121.67 101.94 65.875 100.497 65.875z" mask="url(#prefix__b)"/>
            <path fill="#F86155" d="M98.328 105.194L102.922 105.194 104.107 95.219 102.922 85.245 98.328 85.245z" mask="url(#prefix__b)"/>
            <path fill="#F3AB55" d="M5.996 69.408L98.34 69.408 98.34 65.799 5.996 65.799z" mask="url(#prefix__b)"/>
            <path fill="#FFF" d="M35.71 121.67L36.797 121.67 36.797 65.875 35.71 65.875z" mask="url(#prefix__b)"/>
            <path fill="#F86155" d="M37.957 105.194L34.549 105.194 33.363 95.219 34.549 85.245 37.957 85.245 39.143 95.219z" mask="url(#prefix__b)"/>
            <path fill="#FFF" d="M67.606 121.67L68.693 121.67 68.693 65.875 67.606 65.875z" mask="url(#prefix__b)"/>
            <path fill="#F86155" d="M69.853 105.194L66.445 105.194 65.259 95.219 66.445 85.245 69.853 85.245 71.039 95.219z" mask="url(#prefix__b)"/>
            <path fill="#FFD974" d="M69.946 39.969c-.557.196-.99.699-1.089 1.345-.14.926.47 1.795 1.36 1.94l54.657 8.862c.89.147 1.724-.488 1.863-1.414.141-.925-.468-1.795-1.357-1.94L70.721 39.9c-.269-.044-.534-.017-.775.069" mask="url(#prefix__b)"/>
            <path fill="#603D30" d="M66.333 40.477l-.066.46c-.183 1.263.653 2.439 1.865 2.629l2.495.39c1.213.19 2.344-.68 2.526-1.941l.067-.461c.182-1.263-.654-2.44-1.866-2.63l-2.496-.39c-1.212-.19-2.342.68-2.525 1.943" mask="url(#prefix__b)"/>
            <path fill="#F3AB55" d="M63.741 30.987c.255.007.516-.049.76-.175L118.05 3.278c.807-.414 1.14-1.432.742-2.272-.398-.84-1.376-1.188-2.184-.774L63.06 27.766c-.807.414-1.14 1.432-.743 2.274.278.586.836.931 1.424.947" mask="url(#prefix__b)"/>
            <path fill="#603D30" d="M60.146 31.62l-.194-.419c-.535-1.149-.074-2.53 1.03-3.088l2.27-1.144c1.105-.557 2.433-.077 2.967 1.073l.196.42c.534 1.147.073 2.53-1.032 3.086l-2.27 1.144c-1.104.557-2.432.076-2.967-1.072" mask="url(#prefix__b)"/>
        </g>
    </g>
</svg>
