<svg xmlns="http://www.w3.org/2000/svg" width="54" height="67" viewBox="0 0 54 67">
    <path fill="#FFF" d="M36.55 1h-.09c-9.708 4.845-19.065 10.365-28 16.52-1.078.633-1.552 1.944-1.13 3.12l10.32 28.61c-2.971-.816-6.125-.658-9 .45C2.56 51.9-1.14 57.13.4 61.38c1.54 4.25 7.71 5.92 13.8 3.72 6.09-2.2 9.79-7.42 8.26-11.68l-8.95-24.81c2.27-2 19.62-13.28 27-16.33l7.66 21.24c-2.971-.816-6.125-.658-9 .45-6.09 2.2-9.78 7.43-8.25 11.68 1.53 4.25 7.71 5.92 13.81 3.72 6.1-2.2 9.78-7.42 8.25-11.67l-5.71-15.83-3.24-9-3.81-10.56c-.277-.692-.838-1.232-1.54-1.482-.702-.25-1.477-.188-2.13.172z"/>
</svg>
