<svg xmlns="http://www.w3.org/2000/svg" xmlns:xlink="http://www.w3.org/1999/xlink" width="239" height="336" viewBox="0 0 239 336">
    <defs>
        <path id="prefix__a" d="M0 0.892L237.966 0.892 237.966 219.115 0 219.115z"/>
        <path id="prefix__c" d="M1.029 0.857L28.818 0.857 28.818 213.209 1.029 213.209z"/>
    </defs>
    <g fill="none" fill-rule="evenodd">
        <g transform="translate(0 .224)">
            <mask id="prefix__b" fill="#fff">
                <use xlink:href="#prefix__a"/>
            </mask>
            <path fill="#FA7880" d="M179.441 64.308c-.196 0-.385.027-.58.027.152-1.72.265-3.455.265-5.22C179.126 26.96 152.922.891 120.6.891c-32.323 0-58.526 26.069-58.526 58.224 0 1.82.108 3.608.273 5.384-1.269-.08-2.535-.19-3.824-.19-32.321 0-58.525 26.067-58.525 58.222 0 32.156 26.204 58.223 58.525 58.223 2.843 0 5.616-.271 8.35-.66 7.983 22.705 29.65 39.02 55.2 39.02 25.346 0 46.86-16.056 54.999-38.48.792.032 1.568.12 2.368.12 32.324 0 58.525-26.067 58.525-58.223 0-32.155-26.201-58.223-58.525-58.223" mask="url(#prefix__b)"/>
        </g>
        <g transform="translate(107.718 121.899)">
            <mask id="prefix__d" fill="#fff">
                <use xlink:href="#prefix__c"/>
            </mask>
            <path fill="#597EB1" d="M9.852 73.053l-8.81 136.755c-.141 1.88.944 3.402 2.417 3.402h22.924c1.478 0 2.563-1.523 2.422-3.402L19.998 73.053C19.775 71.173 14.355.857 14.355.857c-2.266 0-4.284 70.316-4.503 72.196" mask="url(#prefix__d)"/>
        </g>
        <path fill="#597EB1" d="M123.73 245.319l25.738-59.107c.16-.376.593-.546.97-.383.347.151.52.541.407.892l-19.429 61.448c-.68 2.15-2.987 3.346-5.148 2.668-2.165-.676-3.366-2.971-2.686-5.121.044-.135.097-.27.148-.397M118.499 195.007l-23.25-38.364c-.147-.242-.067-.557.178-.704.216-.132.496-.08.655.108l29.078 34.205c1.464 1.725 1.248 4.31-.485 5.767-1.733 1.458-4.328 1.243-5.796-.481-.135-.164-.272-.355-.38-.53M119.592 176.737l.399-2.325c.017-.633.594-1.964 1.046-3.178.45-1.385 1.281-2.325 2.053-3.624 1.71-2.34 4-4.695 6.621-6.773 2.59-2.164 5.475-4.123 8.318-6.1 2.846-1.952 5.663-3.88 8.169-5.808 1.257-.96 2.406-1.942 3.494-2.882.977-1.016 2.078-1.872 2.794-2.855.778-.943 1.55-1.784 1.998-2.657.489-.844 1.037-1.544 1.213-2.221.504-1.31.793-2.055.793-2.055l.08-.202c.2-.518.784-.782 1.308-.583.5.192.761.732.613 1.231 0 0-.264.88-.721 2.417-.167.808-.696 1.62-1.184 2.62-.453 1.039-1.208 2.011-1.994 3.122-.74 1.159-1.805 2.128-2.798 3.313-1.073 1.075-2.216 2.214-3.446 3.305-2.459 2.2-5.184 4.368-7.866 6.524-2.661 2.158-5.336 4.284-7.55 6.439-2.293 2.11-4.054 4.276-5.247 6.184-.456.964-1.146 1.906-1.229 2.572-.171.777-.544 1.08-.544 1.979l-.22 2.354c-.16 1.68-1.657 2.918-3.35 2.763-1.69-.155-2.934-1.644-2.778-3.329.007-.071.02-.16.028-.23"/>
    </g>
</svg>
