<svg xmlns="http://www.w3.org/2000/svg" xmlns:xlink="http://www.w3.org/1999/xlink" width="235" height="333" viewBox="0 0 235 333">
    <defs>
        <path id="prefix__a" d="M0 0.59L234.909 0.59 234.909 217.125 0 217.125z"/>
    </defs>
    <g fill="none" fill-rule="evenodd">
        <g transform="translate(0 .41)">
            <mask id="prefix__b" fill="#fff">
                <use xlink:href="#prefix__a"/>
            </mask>
            <path fill="#E5204E" d="M57.773 63.516c.193 0 .38.027.572.027-.149-1.707-.26-3.429-.26-5.18C58.085 26.456 83.951.59 115.858.59c31.907 0 57.773 25.866 57.773 57.773 0 1.806-.107 3.58-.269 5.342 1.253-.079 2.502-.189 3.773-.189 31.91 0 57.774 25.866 57.774 57.772 0 31.908-25.865 57.774-57.774 57.774-2.804 0-5.543-.269-8.242-.656-7.879 22.531-29.267 38.72-54.489 38.72-25.02 0-46.259-15.932-54.292-38.183-.782.032-1.549.12-2.339.12C25.866 179.062 0 153.195 0 121.287c0-31.906 25.866-57.772 57.773-57.772" mask="url(#prefix__b)"/>
        </g>
        <path fill="#597EB1" d="M118.85 193.337l8.696 135.698c.138 1.865-.932 3.374-2.386 3.374h-22.63c-1.458 0-2.53-1.509-2.39-3.374l8.692-135.698c.221-1.865 5.572-71.639 5.572-71.639 2.236 0 4.227 69.774 4.445 71.64"/>
        <path fill="#597EB1" d="M112.768 243.314l-25.407-58.65c-.158-.371-.585-.541-.956-.38-.345.15-.515.539-.404.886l19.18 60.974c.672 2.134 2.947 3.319 5.082 2.648 2.138-.672 3.323-2.95 2.651-5.082-.043-.134-.095-.27-.146-.396M117.932 193.393l22.95-38.068c.146-.241.068-.553-.174-.7-.214-.129-.49-.078-.648.108l-28.703 33.941c-1.446 1.712-1.233 4.277.478 5.722 1.711 1.446 4.272 1.233 5.722-.478.134-.162.27-.351.375-.525M116.854 175.264l-.396-2.308c-.015-.629-.584-1.948-1.03-3.153-.447-1.375-1.265-2.308-2.028-3.596-1.687-2.323-3.947-4.659-6.535-6.72-2.557-2.147-5.406-4.09-8.21-6.054-2.81-1.937-5.593-3.85-8.066-5.762-1.24-.952-2.375-1.928-3.45-2.86-.964-1.008-2.05-1.858-2.758-2.834-.766-.936-1.529-1.77-1.97-2.635-.484-.838-1.025-1.533-1.199-2.205l-.782-2.039-.079-.2c-.197-.515-.774-.776-1.292-.578-.494.19-.75.726-.605 1.22 0 0 .261.873.712 2.4.166.802.687 1.607 1.17 2.6.446 1.031 1.193 1.995 1.967 3.097.731 1.15 1.781 2.11 2.762 3.287 1.06 1.068 2.188 2.197 3.402 3.28 2.426 2.181 5.117 4.334 7.764 6.472 2.628 2.142 5.268 4.252 7.453 6.39 2.264 2.094 4.003 4.244 5.18 6.136.45.957 1.131 1.893 1.213 2.553.171.771.538 1.071.538 1.964.137 1.485.217 2.335.217 2.335.158 1.667 1.635 2.897 3.307 2.742 1.667-.154 2.897-1.632 2.742-3.303-.007-.072-.019-.158-.027-.229"/>
    </g>
</svg>
