<?xml version="1.0" encoding="UTF-8"?>
<svg width="768px" height="879px" viewBox="0 0 768 879" version="1.1" xmlns="http://www.w3.org/2000/svg" xmlns:xlink="http://www.w3.org/1999/xlink">
    <title>sec1_m</title>
    <g id="Page-1" stroke="none" stroke-width="1" fill="none" fill-rule="evenodd">
        <g id="m">
            <g id="sec1_m">
                <rect id="Rectangle" fill="#6D94C2" x="0" y="0" width="768" height="879"></rect>
                <g id="img/natural/grass/lv1/web" transform="translate(214.000000, 722.000000)" fill="#597EB1">
                    <g id="資產-8">
                        <path d="M21.3101695,0.092195122 C20.3949153,-0.230487805 17.7966102,0.261219512 16.779661,1.96170732 C15.5453174,4.01745629 14.6651028,6.26872948 14.1762712,8.6202439 C13.9346433,9.69635294 13.7849439,10.7913289 13.7288136,11.8931707 L13.7288136,11.8931707 C13.520339,11.13 13.3118644,10.3565854 13.1135593,9.59853659 C12.5440678,7.51390244 11.959322,5.35756098 10.6779661,3.58536585 C9.15254237,1.50585366 5.08474576,-1.10634146 2.72033898,1.33170732 C0.508474576,3.61097561 3.15254237,8.64585366 4.46949153,10.7560976 C5.2666732,11.9985064 6.19031329,13.1537797 7.22542373,14.2031707 C7.03220339,14.177561 6.8440678,14.1417073 6.64576271,14.1212195 C5.00847458,13.9214634 0.925423729,14.0187805 0.218644068,15.8780488 C-0.437288136,17.6195122 0.218644068,20.1497561 4.36779661,19.2329268 C11.8627119,17.5990244 14.2372881,20.5287805 14.2372881,20.5287805 C14.2372881,20.5287805 16.0830508,14.8946341 22.6627119,7.72390244 C24.6813559,5.54707317 24.6813559,1.2804878 21.3101695,0.092195122 Z" id="Path" fill-rule="nonzero"></path>
                        <path d="M29.5627119,15.6065854 C28.6474576,14.2287805 26.3847458,15.0482927 25.1694915,15.4478049 C22.2901525,16.3433817 19.6126923,17.7980494 17.2881356,19.7297561 C17.0491525,19.944878 24.5288136,20.4109756 27.3559322,19.0997561 C28.5661017,18.5465854 30.6559322,17.2507317 29.5627119,15.6065854 Z" id="Path" fill-rule="nonzero"></path>
                    </g>
                </g>
                <g id="img/natural/grass/lv1/web" transform="translate(535.000000, 635.000000)" fill="#597EB1">
                    <g id="資產-8">
                        <path d="M21.3101695,0.092195122 C20.3949153,-0.230487805 17.7966102,0.261219512 16.779661,1.96170732 C15.5453174,4.01745629 14.6651028,6.26872948 14.1762712,8.6202439 C13.9346433,9.69635294 13.7849439,10.7913289 13.7288136,11.8931707 L13.7288136,11.8931707 C13.520339,11.13 13.3118644,10.3565854 13.1135593,9.59853659 C12.5440678,7.51390244 11.959322,5.35756098 10.6779661,3.58536585 C9.15254237,1.50585366 5.08474576,-1.10634146 2.72033898,1.33170732 C0.508474576,3.61097561 3.15254237,8.64585366 4.46949153,10.7560976 C5.2666732,11.9985064 6.19031329,13.1537797 7.22542373,14.2031707 C7.03220339,14.177561 6.8440678,14.1417073 6.64576271,14.1212195 C5.00847458,13.9214634 0.925423729,14.0187805 0.218644068,15.8780488 C-0.437288136,17.6195122 0.218644068,20.1497561 4.36779661,19.2329268 C11.8627119,17.5990244 14.2372881,20.5287805 14.2372881,20.5287805 C14.2372881,20.5287805 16.0830508,14.8946341 22.6627119,7.72390244 C24.6813559,5.54707317 24.6813559,1.2804878 21.3101695,0.092195122 Z" id="Path" fill-rule="nonzero"></path>
                        <path d="M29.5627119,15.6065854 C28.6474576,14.2287805 26.3847458,15.0482927 25.1694915,15.4478049 C22.2901525,16.3433817 19.6126923,17.7980494 17.2881356,19.7297561 C17.0491525,19.944878 24.5288136,20.4109756 27.3559322,19.0997561 C28.5661017,18.5465854 30.6559322,17.2507317 29.5627119,15.6065854 Z" id="Path" fill-rule="nonzero"></path>
                    </g>
                </g>
                <g id="img/natural/grass/lv1/web" transform="translate(388.000000, 160.000000)" fill="#597EB1">
                    <g id="資產-8">
                        <path d="M21.3101695,0.092195122 C20.3949153,-0.230487805 17.7966102,0.261219512 16.779661,1.96170732 C15.5453174,4.01745629 14.6651028,6.26872948 14.1762712,8.6202439 C13.9346433,9.69635294 13.7849439,10.7913289 13.7288136,11.8931707 L13.7288136,11.8931707 C13.520339,11.13 13.3118644,10.3565854 13.1135593,9.59853659 C12.5440678,7.51390244 11.959322,5.35756098 10.6779661,3.58536585 C9.15254237,1.50585366 5.08474576,-1.10634146 2.72033898,1.33170732 C0.508474576,3.61097561 3.15254237,8.64585366 4.46949153,10.7560976 C5.2666732,11.9985064 6.19031329,13.1537797 7.22542373,14.2031707 C7.03220339,14.177561 6.8440678,14.1417073 6.64576271,14.1212195 C5.00847458,13.9214634 0.925423729,14.0187805 0.218644068,15.8780488 C-0.437288136,17.6195122 0.218644068,20.1497561 4.36779661,19.2329268 C11.8627119,17.5990244 14.2372881,20.5287805 14.2372881,20.5287805 C14.2372881,20.5287805 16.0830508,14.8946341 22.6627119,7.72390244 C24.6813559,5.54707317 24.6813559,1.2804878 21.3101695,0.092195122 Z" id="Path" fill-rule="nonzero"></path>
                        <path d="M29.5627119,15.6065854 C28.6474576,14.2287805 26.3847458,15.0482927 25.1694915,15.4478049 C22.2901525,16.3433817 19.6126923,17.7980494 17.2881356,19.7297561 C17.0491525,19.944878 24.5288136,20.4109756 27.3559322,19.0997561 C28.5661017,18.5465854 30.6559322,17.2507317 29.5627119,15.6065854 Z" id="Path" fill-rule="nonzero"></path>
                    </g>
                </g>
                <g id="img/natural/1/lv1soil/web" transform="translate(251.000000, 120.000000)" fill="#94B6D7">
                    <g id="資產-9">
                        <path d="M25.095,5.4 C22.145,3.76941176 18.375,0.682941176 14.85,0.529411765 C13.7165535,0.405994324 12.588066,0.807501229 11.755,1.63058824 C11.255,2.16 11.125,3.24529412 10.9,4.11352941 C9.03,2.39823529 6.655,0.243529412 4.425,0.624705882 C1.425,1.15411765 0.965,4.70117647 0.055,7.2 C-0.255,8.05764706 0.79,8.51823529 1.36,8.07352941 C1.99162428,7.57818306 2.52081618,6.95120026 2.915,6.23117647 C3.79,4.81235294 3.865,3.37235294 5.915,4.30941176 C7.415,4.98705882 8.99,6.91941176 10.315,7.97823529 C10.8989894,8.40668469 11.6778045,8.38526579 12.24,7.92529412 C13.935,6.77117647 13.2,3.45176471 15.625,3.82235294 C16.815,4.00235294 18.085,5.14588235 19.125,5.76 C20.55,6.62294118 21.96,7.49647059 23.38,8.36470588 C25.21,9.48705882 26.96,6.43764706 25.095,5.4 Z" id="Path" fill-rule="nonzero"></path>
                    </g>
                </g>
                <g id="img/natural/1/lv1soil/web" transform="translate(264.000000, 631.000000)" fill="#94B6D7">
                    <g id="資產-9">
                        <path d="M25.095,5.4 C22.145,3.76941176 18.375,0.682941176 14.85,0.529411765 C13.7165535,0.405994324 12.588066,0.807501229 11.755,1.63058824 C11.255,2.16 11.125,3.24529412 10.9,4.11352941 C9.03,2.39823529 6.655,0.243529412 4.425,0.624705882 C1.425,1.15411765 0.965,4.70117647 0.055,7.2 C-0.255,8.05764706 0.79,8.51823529 1.36,8.07352941 C1.99162428,7.57818306 2.52081618,6.95120026 2.915,6.23117647 C3.79,4.81235294 3.865,3.37235294 5.915,4.30941176 C7.415,4.98705882 8.99,6.91941176 10.315,7.97823529 C10.8989894,8.40668469 11.6778045,8.38526579 12.24,7.92529412 C13.935,6.77117647 13.2,3.45176471 15.625,3.82235294 C16.815,4.00235294 18.085,5.14588235 19.125,5.76 C20.55,6.62294118 21.96,7.49647059 23.38,8.36470588 C25.21,9.48705882 26.96,6.43764706 25.095,5.4 Z" id="Path" fill-rule="nonzero"></path>
                    </g>
                </g>
            </g>
        </g>
    </g>
</svg>