<svg xmlns="http://www.w3.org/2000/svg" xmlns:xlink="http://www.w3.org/1999/xlink" width="334" height="268" viewBox="0 0 334 268">
    <defs>
        <path id="prefix__a" d="M0.229 0.48L13.123 0.48 13.123 20.845 0.229 20.845z"/>
        <path id="prefix__c" d="M0.679 0.746L45.031 0.746 45.031 12.053 0.679 12.053z"/>
    </defs>
    <g fill="none" fill-rule="evenodd">
        <path fill="#FFF" d="M184.043 161.943c-.047.404-.132.8-.254 1.203.01 0 .01 0 0 .01-2.558 8.678-21.736 16.086-37.795 12.062-8.593-2.153-18.756-8.199-20.383-14.187v-.01c-.197-.724-.272-1.457-.197-2.172.668-6.506 12.956-10.163 22.902-11.827-1.664 4.56-2.04 9.533-1.993 10.943l5.642.443c-.028-2.98.385-5.368.77-6.977.443-1.833.903-3.732 1.683-5.226.78-.085 1.514-.142 2.19-.189 1.505-.103 2.906-.15 4.204-.14.394 1.268.808 2.904 1.109 4.672l3.976-.33c-.14-1.465-.394-2.838-.742-4.098 6.59.723 9.796 2.848 10.925 3.657 1.07.771 8.63 6.187 7.963 12.166"/>
        <path fill="#302B3A" d="M165.897 150.219l-3.977.33c-.3-1.768-.714-3.404-1.109-4.673-.329-1.062-.648-1.871-.884-2.294-.715-1.251-2.735.009-2.989.113-1.129.479-1.918 1.38-2.52 2.51-.78 1.494-1.24 3.394-1.683 5.227-.386 1.608-.799 3.996-.77 6.976l-5.642-.442c-.047-1.41.33-6.384 1.993-10.943.762-2.106 1.806-4.118 3.206-5.651 1.26-1.382 3.62-3.958 6.412-3.76 2.942.207 5.82 3.46 7.221 8.508.347 1.26.601 2.633.742 4.099M182.972 168.139c-.038.113-.095.217-.15.329-.932 1.843-2.324 3.037-4.316 4.316-6.525 4.202-13.21 5.349-15.146 5.64-2.032.31-8.716 1.176-17.036-.667 0 0-7.098-1.57-13.717-5.64-1.072-.65-3.31-2.107-5.2-4.75-.131-.177-.253-.366-.385-.553-.677-.997-1.316-2.125-1.494-3.65-.085-.77-.038-1.493.084-2.132 1.627 5.988 11.79 12.034 20.382 14.187 16.059 4.024 35.238-3.385 37.795-12.062.114 1.485-.018 3.243-.817 4.982"/>
        <path fill="#E24D34" d="M182.972 168.139c-.292 3.996-.894 10.878-1.194 13.773-.555 5.19-1.138 10.033-1.871 14.667-3.855 8.583-8.65 11.724-16.331 14.422-10.426 3.648-24.576 1.542-31.186-7.803-2.341-3.3-3.94-7.653-4.446-10.23-.085-.836-.151-1.635-.207-2.378-.461-5.941-.884-11.535-.828-18.916.019-1.88.066-3.525.113-4.86.132.187.254.376.386.554 1.889 2.642 4.127 4.099 5.199 4.749 6.619 4.07 13.717 5.64 13.717 5.64 8.32 1.843 15.004.978 17.036.667 1.936-.291 8.62-1.438 15.146-5.64 1.992-1.28 3.384-2.473 4.316-4.316.055-.112.112-.216.15-.33"/>
        <path fill="#302B3A" d="M131.046 245.399c0 12.217-16.243 22.12-36.28 22.12-20.035 0-36.28-9.903-36.28-22.12 0-12.219 16.245-22.123 36.28-22.123 20.037 0 36.28 9.904 36.28 22.123M83.263 221.842c-.061 1.029-13.253 1.067-22.023.682-9.318-.401-18.726-1.475-24.436-2.482-1.282-.226-2.555.169-3.618.964-1.647 1.232-4.271 1.9-5.443 2.199-1.781.45-5.511 1.325-9.292-1.247-1.065-.733-3.61-2.456-3.597-4.874.012-1.93 1.647-3.33 2.398-3.973 3.974-3.395 8.723-1.543 10.249-.914 1.599.657 4.316 2.108 5.897 3.834.98 1.074 2.29 1.728 3.699 1.69 4.69-.124 10.662.023 11.53.045 17.107.41 34.709 2.88 34.636 4.076M67.247 227.407c.222 1.006-12.462 4.635-21.007 6.65-9.074 2.152-18.42 3.68-24.188 4.264-1.296.132-2.412.858-3.218 1.913-1.25 1.634-3.593 2.99-4.64 3.598-1.591.918-4.942 2.774-9.28 1.33-1.225-.416-4.142-1.382-4.788-3.712-.514-1.859.679-3.653 1.226-4.477 2.899-4.348 7.973-3.859 9.613-3.668 1.718.196 4.726.853 6.718 2.084 1.236.765 2.674 1.04 4.019.62 4.48-1.397 10.266-2.88 11.108-3.097 16.572-4.26 34.18-6.676 34.437-5.505"/>
        <path fill="#FFF" d="M124.271 245.513c0 9.735-13.084 17.627-29.223 17.627-16.138 0-29.22-7.892-29.22-17.627s13.082-17.628 29.22-17.628c16.14 0 29.223 7.893 29.223 17.628"/>
        <path fill="#E24D34" d="M99.672 241.987c-3.163-1.605-2.782-4.663-4.857-5.64-3.1-1.462-10.474 2.276-11.44 8.46-.737 4.731 2.573 8.986 6.11 10.812 5.633 2.905 13.442.484 15.514-4.232 1.152-2.622.789-6.545-1.254-8.147-1.275-1-2.178-.29-4.073-1.253M112.101 235.458c2.398-2.276 3.598-3.415 3.97-4.805.82-3.067-1.526-6.027-1.88-6.476-2.788-3.52-8.902-5.83-13.162-2.925-3.802 2.594-3.668 7.664-3.657 7.94.18 4.257 3.176 6.743 3.761 7.206.465.37 3.828 3.036 7.208 1.985 1.01-.314 1.927-1.184 3.76-2.925"/>
        <path fill="#302B3A" d="M114.243 237.522c-.956.17-1.392 2.256-1.488 3.29-.308 3.271 1.998 4.284 1.958 7.677-.031 2.614-1.423 4.03-.94 4.387.626.464 3.68-1.4 4.779-4.23 1.895-4.881-2.479-11.452-4.309-11.124M81.81 239.715c-.326-.914-2.667-.98-4.31-.548-1.953.51-4.08 2.026-3.839 2.977.254 1.006 3.191 1.5 5.406.549 1.496-.644 3.05-2.114 2.742-2.978"/>
        <path fill="#732622" d="M250.622 93.734c-.893-4.916-17.655-37.104-25.057-44.52-7.401-7.418-16.693-1.002-15.836 5.927.858 6.93 10.937 42.432 16.087 48.63 8.083 9.728 27.169 2.983 24.806-10.037"/>
        <path fill="#732622" d="M228.476 46.147c-3.733-11.554-9.923-23.271-8.412-33.026 0 0-4.308-4.47-6.718-.455-2.409 4.017-13.965 48.153 8.457 52.822 0 0 10.404-7.788 6.673-19.341"/>
        <path fill="#732622" d="M221.856 16.477c2.978-1.075.922-5.332 1.657-7.265.366-.964-2.069.358-2.43 3.333 0 0-.807-5.497-.512-9.362.231-3.014-3.837.004-6.316-.49-1-.196-1.96-.64-2.427.315-.849 1.738-1.47 4.018-.725 7.63 1.36 6.592.254 6.219-.116 9.519-.377 3.356 6.997 1.829 6.997 1.829s.895-4.434 3.872-5.51M252.47 99.838c1.09-4.877 19.132-36.365 26.826-43.48 7.695-7.115 16.719-.33 15.584 6.56-1.135 6.89-12.633 41.96-18.026 47.944-8.468 9.396-27.267 1.889-24.383-11.024"/>
        <path fill="#732622" d="M278.378 51.509c3.402-11.656 9.257-23.546 7.469-33.255 0 0 4.179-4.59 6.702-.641 2.522 3.946 15.328 47.735-6.952 53.039 0 0-10.62-7.488-7.22-19.143"/>
        <g transform="translate(280 .52)">
            <mask id="prefix__b" fill="#fff">
                <use xlink:href="#prefix__a"/>
            </mask>
            <path fill="#732622" d="M2.133 15.193C-.873 14.203 1.059 9.889.27 7.978c-.393-.953 2.077.297 2.526 3.263 0 0 .648-5.52.24-9.373-.314-3.007 3.839-.106 6.3-.67.995-.225 1.943-.694 2.437.247.898 1.71 1.585 3.973.94 7.605-1.17 6.628-.075 6.224.388 9.513.473 3.345-6.942 2.026-6.942 2.026s-1.02-4.406-4.027-5.396" mask="url(#prefix__b)"/>
        </g>
        <g transform="translate(264 168.52)">
            <mask id="prefix__d" fill="#fff">
                <use xlink:href="#prefix__c"/>
            </mask>
            <path fill="#EEC63B" d="M45.031 6.4c0 3.122-9.928 5.653-22.176 5.653C10.608 12.053.68 9.522.68 6.4.68 3.277 10.61.746 22.855.746c12.248 0 22.176 2.531 22.176 5.654" mask="url(#prefix__d)"/>
        </g>
        <path fill="#F3AB55" d="M265.527 72.587l-8.789 2.65s-2.297 8.163-.19 10.508c3.785 4.211 10.791 1.436 10.791 1.436-4.686-1.233-2.733-7.738-1.812-14.594"/>
        <path fill="#732622" d="M246.219 81.469c2.958-11.681.403-25.428.403-25.428l11.354.156s-2.985 14.033-.207 25.875c.66 2.81 1.477 4.923 4.304 5.327 4.852.694 12.207 3.64 17.11 8.08 0 0-8.337 37.064-27.763 36.802-19.426-.264-28.583-34.746-28.583-34.746 5.553-8.225 13.949-9.848 18.819-10.412 3.02-.35 3.808-2.668 4.563-5.654"/>
        <path fill="#CA1F2B" d="M248.542 111.29L251.659 100.972 254.494 111.371z"/>
        <path fill="#FFF" d="M244.448 86.55c1.488 2.959 2.896 5.958 4.195 9.008 1.294 3.049 2.528 6.126 3.427 9.349l-.56-.045c1.325-2.977 2.557-6 3.756-9.032 1.147-3.043 2.404-6.074 3.04-9.28-.422 3.252-1.538 6.362-2.613 9.443-1.11 3.076-2.354 6.098-3.639 9.106-.064.15-.238.222-.387.157-.087-.038-.149-.116-.172-.2-.837-3.171-2.074-6.252-3.275-9.324-1.223-3.073-2.485-6.13-3.772-9.182"/>
        <path fill="#F7D45C" d="M254.494 105.715c0 1.497-1.214 2.712-2.711 2.712-1.497 0-2.712-1.215-2.712-2.712s1.215-2.711 2.712-2.711 2.711 1.214 2.711 2.71"/>
        <path fill="#EEC73B" d="M253.829 105.715c0 1.13-.916 2.047-2.046 2.047s-2.047-.916-2.047-2.047c0-1.13.917-2.046 2.047-2.046 1.13 0 2.046.916 2.046 2.046"/>
        <path fill="#F7D45C" d="M250.324 107.997c.331.212.71.354 1.116.406 1.01-1.01 2.02-2.022 3.03-3.03-.05-.407-.194-.785-.405-1.117l-3.74 3.741M251.783 103.004c-.085 0-.169.005-.252.014-.045.079-.099.16-.174.232l-2.276 2.276c-.004.064-.01.125-.01.189 0 .216.027.425.075.625l3.26-3.261c-.2-.047-.408-.075-.623-.075"/>
        <path fill="#FD8787" d="M268.488 132.473c3.414-14.117 10.094-18.518 3.104-26.307 0 0-16.229-2.035-19.046 5.62-2.796-7.561-20.97-6.146-20.97-6.146-7.17 7.549-1.148 15.385 1.52 29.82 2.882 15.588-14.29 15.332-20.149 45.613 37.235 16.012 75.185 2.258 75.185 2.258-2.506-38.032-23.03-36.735-19.644-50.858"/>
        <path fill="#FFF" d="M252.435 116.516c4.883-4.758 11.267-7.908 18.241-7.083 1.224.143 2.363.436 3.453.8-.458-1.297-1.24-2.622-2.538-4.067 0 0-16.228-2.035-19.046 5.62-2.796-7.561-20.97-6.146-20.97-6.146-1.288 1.355-2.22 2.727-2.753 4.136 8.49-2.74 18.65-.436 23.613 6.74"/>
        <path fill="#4C1413" d="M279.576 216.05c32.872 0 33.849-78.016 18.714-94.12-5.501-5.857-18.985-4.798-23.132 2.083-11.875 19.7-19.574 53.23-16.907 69.225 1.761 10.553 2.785 22.813 21.325 22.813"/>
        <path fill="#F7D45C" d="M289.582 180.573c-12.457 0-24.575-7.194-31.12-17.659-2.731 12.568-1.428 23.026-.211 30.323 1.76 10.554 2.785 22.814 21.325 22.814 16.58 0 26.87-17.619 29.455-41.133-5.1 4.453-13.223 5.655-19.45 5.655"/>
        <path fill="#EEC73B" d="M298.844 179.6c-3.172.699-6.414.974-9.262.974-12.457 0-24.575-7.195-31.12-17.66-2.73 12.569-1.428 23.027-.211 30.324 1.76 10.553 2.785 22.813 21.325 22.813 3.6 0 6.885-.874 9.877-2.417 1.136-11.995 4.06-23.381 9.39-34.034"/>
        <path fill="#732622" d="M262.06 221.936c8.946-22.144 39.634-62.674 39.634-91.482 0-10.377-14.117-18.014-24.38-8.874-12.689 11.297-9.679 76.512-17.602 88.442-1.182 1.78-3.176 4.533-4.349 6.029 3.53 1.44 3.496 3.506 6.697 5.885"/>
        <path fill="#4C1413" d="M271.65 140.704c-2.648 27.667-4.379 55.648-10.085 64.242-1.687 2.538-4.529 6.462-6.202 8.6 5.034 2.051 4.985 4.998 9.55 8.39 3.575-8.848 8.553-20.498 13.728-33.539 2.102-5.298 14.167-29.3-6.992-47.693"/>
        <path fill="#4C1413" d="M202.105 199.3c-11.717-38.904 36.782-47.533 46.156-51.364 10.323-4.215 32.337-5.28 32.337 16.035 0 22.933-14.995 42.107-27.632 48.687-8.338 4.339-41.946 16.236-50.86-13.358"/>
        <path fill="#F7D45C" d="M259.701 194.908c-23.147 0-33.435-24.386-28.646-41.575-22.043 8.556-38.455 14.407-28.95 45.967 8.915 29.593 42.524 17.697 50.862 13.358 6.912-3.599 14.513-10.984 19.997-20.67-3.747 1.836-8.155 2.92-13.263 2.92"/>
        <path fill="#EEC73B" d="M259.701 194.908c-16.458 0-26.375-12.336-29.034-25.639-4.12 12.743-13.582 22.53-27.322 26.996-.624.204-1.276.323-1.909.494.228.852.403 1.648.669 2.541 8.915 29.593 42.524 17.697 50.862 13.358 6.912-3.599 14.513-10.984 19.997-20.67-3.747 1.836-8.155 2.92-13.263 2.92"/>
        <path fill="#732622" d="M265.593 223.555c-1.183-8.886 10.675-36.253 15.006-55.788 4.64-20.94-31.193-36.605-43.835-1.168-10.83 30.355 15.962 41.889 16.788 62.48l12.04-5.524z"/>
        <path fill="#F3AB55" d="M288.838 233.137c.165 2.076-2.676 4.482-8.827 4.482-6.922 0-8.632-1.502-15.438.986-4.924 1.802-12.485 1.499-12.421-3.866.064-5.37 36.033-9.865 36.686-1.602"/>
        <path fill="#FFF" d="M288.074 229.938s.517.988.764 3.199c0 0-1.397-5.106-11.4-3.071-10.006 2.037-16.97 6.789-22.719 6.789-3.518 0-2.492-4.194-2.492-4.194s32.967-14.815 35.847-2.723"/>
        <path fill="#4843B7" d="M268.677 224.342s4.764-6.312.202-5.7c-5.056.678-6.41 6.799-11.357 7.39-4.95.598-5.271 0-5.271 0s-1.506 8.739 2.045 8.739c2.055 0 10.535-3.526 19.45-5.964 8.916-2.436 11.745-1.84 14.328 1.13-.94-6.234-10.273-8.222-19.397-5.595"/>
        <path fill="#D2E6EB" d="M284.07 225.168c-.476 0-4.346.09-7.47 2.915-.357.062-.684.151-1.042.238-.566.152-1.19.3-1.815.477-5 1.369-9.882 3.096-13.572 4.316-1.042.358-1.995.686-2.798.921.12-.863.685-3.987 2.59-5.89-.119.237-.388.953-.03 1.874 0 0 3.958-4.255 7.291-4.583 0 0-1.22 2.26-.802 3.065 0 0 9.136-5.774 17.647-3.333"/>
        <path fill="#F3AB55" d="M269.302 47.845c-4.091.55-16.318 3.223-11.457 14.696 4.859 11.474 21.284 7.585 21.644-3.385.36-10.972-6.986-11.742-10.187-11.311"/>
        <path fill="#F3AB55" d="M276.41 56.236c1.004 2.751 1.735 5.774 1.852 8.75.051 1.491-.123 2.994-.705 4.351-.568 1.36-1.74 2.448-3.24 2.94 1.537-.256 2.994-1.21 3.841-2.617.861-1.389 1.285-3.01 1.468-4.607.34-3.226.056-6.4-.605-9.615l-2.612.798zM248.168 55.57s-2.945-6.824-8.676-.284c-5.115 5.844-.55 18.992-3.9 23.614-4.237 5.858-9.188 5.946-9.188 5.946s9.07 8.598 17.363 2.577c5.066-3.682 4.4-31.853 4.4-31.853"/>
        <path fill="#732622" d="M255.665 51.63c-3.954 5.507-5.013 6.768-5.013 6.768s-.838-2.206-2.966-1.987c-2.128.22-4.948 6.298-3.921 8.06 1.029 1.767 2.813 1.157 2.813 1.157s-.15 5.132 4.668 9.392c0 0 7.1 5.89 10.253 6.257 3.155.367 5.356-2.811 7.492-7.857 2.13-5.044 8.82-15.19 3.156-19.608-5.664-4.415-12.53-7.69-16.482-2.182"/>
        <path fill="#F3AB55" d="M253.097 40.993c-14.062 3.661-15.308 23.714-8.004 26.218.654.227 1.899-.339 1.485-1.495-.205-.578-2.11-.695-2.448-1.34-1.014-1.946 1.458-7.917 3.905-7.853 2.446.064 2.792 2.61 2.792 2.61 10.56 5.446 17.146 1.011 23.508-3.268 4.597-3.095 1.506-15.609-6.564-13.384-3.172.873-10.485-2.577-14.674-1.488"/>
        <path fill="#FD8787" d="M281.422 226.031s-3.273.028-5.863 2.29c-.567.151-1.191.3-1.816.477-5.001 1.37-9.882 3.095-13.572 4.316.148-.982.595-2.857 1.815-4.107-.06.148-.267.744.03 1.43 0 0 3.066-3.395 5.774-3.753 0 0-.922 1.788-.565 2.381 0 0 7.23-4.732 14.197-3.034"/>
    </g>
</svg>
