<svg xmlns="http://www.w3.org/2000/svg" width="275" height="326" viewBox="0 0 275 326">
    <g fill="none">
        <path fill="#FFF" d="M170.12 230.231c-.07.552-.15 1.084-.24 1.626-.223.908-.62 1.768-1.17 2.534-3.53 4.566-13.88 3.763-18.12-.619-.38-.365-.716-.77-1-1.21-.472-.745-.81-1.563-1-2.418-.297-1.112-.144-2.292.43-3.298.44-.687 1.47-1.693 8.86-2.07 6.2-.33 9.33-.455 10.75 1.035 1.074 1.228 1.61 2.815 1.49 4.42z" transform="translate(0 33.858)"/>
        <path fill="#E24D34" d="M169.88 231.808c-1.67 10.37-6.31 19.347-9.67 21.998-.527.516-1.25.803-2 .793-.45-.058-.85-.406-1.41-1.064-.22-.251-.46-.542-.74-.89-2-2.486-3.61-5.523-5.37-11.821-1.12-3.483-1.792-7.086-2-10.728.185.856.524 1.675 1 2.418 3.37 5.418 15.25 6.772 19.06 1.82.554-.758.939-1.617 1.13-2.526z" transform="translate(0 33.858)"/>
        <path fill="#E24D34" d="M166.15 265.318c0 2.254-3.58 4.082-8 4.082s-8-1.828-8-4.082c0-1.935 2.58-3.541 6.06-3.967.24-1.615.42-3.356.52-5.204.05-.89.07-1.77.07-2.612.56.658 1 .967 1.41 1.064.75.01 1.473-.277 2-.793v2.09c.06 1.934.23 3.869.46 5.542 3.2.542 5.48 2.07 5.48 3.88z" transform="translate(0 33.858)"/>
        <path fill="#FFF" d="M197.15 204.896c-.067.548-.147 1.09-.24 1.625-.119.49-.29.967-.51 1.423-.182.392-.407.765-.67 1.112-3.52 4.566-13.87 3.763-18.12-.62-.358-.364-.674-.766-.94-1.199-.475-.744-.813-1.562-1-2.418-.296-1.111-.146-2.29.42-3.299.45-.696 1.48-1.693 8.87-2.08 6.2-.319 9.33-.454 10.74 1.035 1.058 1.236 1.578 2.822 1.45 4.421z" transform="translate(0 33.858)"/>
        <path fill="#302B3A" d="M169.37 233.23c-.182.39-.403.763-.66 1.113-3.53 4.566-13.88 3.763-18.12-.62.9-.56 2.95-1.14 8.17-1.412 6.02-.319 9.14-.445 10.61.92zM196.4 207.982c-.182.393-.407.766-.67 1.113-3.52 4.566-13.87 3.763-18.12-.62.91-.55 2.95-1.14 8.18-1.412 6.02-.348 9.14-.483 10.61.92z" transform="translate(0 33.858)"/>
        <path fill="#E24D34" d="M196.91 206.521c-1.67 10.38-6.31 19.348-9.67 21.998-.525.52-1.249.807-2 .793-.44-.058-.84-.406-1.4-1.054-.22-.251-.47-.551-.74-.89-2-2.496-3.61-5.533-5.37-11.821-1.13-3.48-1.801-7.085-2-10.728.187.856.525 1.674 1 2.418 3.37 5.408 15.24 6.772 19.06 1.819.545-.764.925-1.626 1.12-2.535z" transform="translate(0 33.858)"/>
        <path fill="#E24D34" d="M193.17 240.03c0 2.264-3.57 4.083-8 4.083s-8-1.819-8-4.082c0-1.935 2.58-3.531 6.06-3.966.24-1.616.42-3.347.52-5.195 0-.9.07-1.78.07-2.612.56.648 1 .967 1.4 1.054.751.014 1.475-.273 2-.793v2.09c.06 1.934.23 3.87.46 5.543 3.21.541 5.49 2.08 5.49 3.879z" transform="translate(0 33.858)"/>
        <path fill="#302B3A" d="M239.87 249.472c-.7 8.145-1.54 19.696-2.73 33.858-.257 3.07-2.503 5.644-5.59 6.404-3 .735-6.58 1.547-8.36 1.75-5.24.63-17.44-.377-21.55-7.506-1.016-1.805-1.449-3.865-1.24-5.91 4.89 3.163 13 7.37 18 4.517 2.36-1.316 2.45-3.25 2.15-34.332 0-4.092-.17-9.847-4.3-13.078-1.429-1.08-3.119-1.79-4.91-2.06 1.004-1.442 2.15-2.786 3.42-4.015l1.22-1.18c2.321-2.242 3.848-5.138 4.36-8.271l4.47-27.464c1.69.77 3.523 1.207 5.39 1.287 1.603.143 3.22.041 4.79-.3.362 5.6.165 11.22-.59 16.784-1 7.526-2.65 11.54-.57 17.248 1.47 4.043 3.26 4.701 4.89 9.45 1.322 4.145 1.714 8.515 1.15 12.818z" transform="translate(0 33.858)"/>
        <path fill="#FFBD29" d="M218.45 282.566c-5.08 2.853-13.16-1.355-18-4.518.17-2.805 1.09-6.104 2.09-10.35 1.37-5.805 2.92-13.312 4.14-22.53.57-4.314 2.183-8.438 4.71-12.034 1.791.271 3.481.98 4.91 2.06 4.13 3.231 4.26 8.987 4.3 13.079.3 31.042.21 32.977-2.15 34.293z" transform="translate(0 33.858)"/>
        <path fill="#F36B53" d="M64.48 67.609c-3.15-3.763-33.35-23.227-43.41-26.013C11.01 38.81 6 48.474 10.05 53.95c4.05 5.475 30 30.868 37.53 33.722 11.77 4.479 25.25-10.128 16.9-20.063z" transform="translate(0 33.858)"/>
        <path fill="#F36B53" d="M25.31 41.093C19.87 30.598 12 20.315 12 10.747c0 0-4.94-3.647-6.71.542-1.77 4.189-6.52 48.087 16.34 49.277 0 0 9.11-8.967 3.68-19.473z" transform="translate(0 33.858)"/>
        <path fill="#18336D" d="M24.92 72.358c8.41 7.904 18.34 14.791 22.56 16.446 6.526 2.672 14.094.673 18.31-4.837 4.53-5.64 4.71-12.576.44-17.645-2.13-2.631-12.73-9.877-23.4-16.232-.07.077-9.22 7.08-17.91 22.268z" transform="translate(0 33.858)"/>
        <path fill="#F36B53" d="M14.29 13.688c2.78-1.46.1-5.233.54-7.187.21-.968-2 .648-1.9 3.54-.916-2.895-1.562-5.864-1.93-8.87-.23-2.903-3.79.56-6.32.454-1-.048-2-.329-2.35.648-.763 2.44-.607 5.062.44 7.4 2.34 6.114 1.23 5.92 1.33 9.123.1 3.202 7.19.725 7.19.725s.22-4.362 3-5.833z" transform="translate(0 33.858)"/>
        <path fill="#18336D" d="M58.55 64.04c12.37-2.632 29-4.838 38.39-1.597 14.73 5.01 19.08 12.518 20.75 21.795 3.12 17.354 9.14 84.44 9.14 84.44-36.54 19.086-93.57 8.484-93.57 8.484-.5-37.33-.73-107.57 25.29-113.123z" transform="translate(0 33.858)"/>
        <path fill="#F36B53" d="M238.62 153.559s19.18 6.645 22.28 5.223c3.1-1.422 3.24 8.049 1.58 8.707l-24.35.183.49-14.113zM263 170.449l9.41-20.025s1.34-1.102 2.21 1.055c.87 2.157-.73 7.4-1.49 8.996s-3.37 2.593-4 3.734c-.354.989-.39 2.058-.1 3.067 0 0-2.77 4.972-4.49 5.204-1.72.232-1.54-2.031-1.54-2.031z" transform="translate(0 33.858)"/>
        <path fill="#18336D" d="M257.36 167.353s3.08-1.228 3.25-3.792c.135-1.343.026-2.698-.32-4.005 0 0-2-1.935-1.59-2.167.41-.232 3.14 1.48 3.35 1.384 2-.968 5.4-2.796 7.09-5.901 2.32-4.247 4.21-2.245 4.21-2.245 1 4.054-3 10.525-4.09 12.673-1.09 2.147-6.26 7.149-6.26 7.149-2.35.15-4.567-1.068-5.64-3.096z" transform="translate(0 33.858)"/>
        <path fill="#F3AB55" d="M175.47 129.346c25 2.012 72.32 25.577 72.32 25.577 1.89 7.738-3.29 14.616-3.29 14.616s-65.05-.503-74.62-4.256c-9.57-3.753-3.2-36.624 5.59-35.937z" transform="translate(0 33.858)"/>
        <path fill="#F3AB55" d="M67.89 171.668c-2.22-9.926 4.83-25.471 20.23-31.856 9.45-3.917 52.42-14.036 88.62-10.805 23.06 2.06 14.27 24.997 7.09 31.052-17.31 14.607-66.58 42.245-87.79 37.021-18.47-4.576-24.77-10.283-28.15-25.412z" transform="translate(0 33.858)"/>
        <path fill="#F36B53" d="M202 171.223s14.64 13.697 18.07 13.64c3.43-.059-.47 8.618-2.26 8.531l-22.3-9.596 6.49-12.575zM217 196.316l17.1-14.51s1.69-.475 1.56 1.837c-.13 2.312-3.81 6.453-5.19 7.604-1.38 1.151-4.17 1.016-5.24 1.809-.743.758-1.23 1.716-1.4 2.747 0 0-4.64 3.425-6.3 2.902-1.66-.522-.53-2.39-.53-2.39z" transform="translate(0 33.858)"/>
        <path fill="#18336D" d="M213.17 191.208s3.32.116 4.57-2.157c.696-1.172 1.176-2.452 1.42-3.782 0 0-1-2.516-.53-2.603.47-.087 2.23 2.603 2.47 2.603 2.22-.049 6.11-.397 9-2.545 3.92-2.902 4.79-.377 4.79-.377-.83 4.092-7.22 8.397-9.12 9.916-1.9 1.518-8.72 4.053-8.72 4.053-2.242-.788-3.773-2.803-3.88-5.108z" transform="translate(0 33.858)"/>
        <path fill="#FFD974" d="M152.94 122.932c22.08 11.434 56.79 53.205 56.79 53.205-1.58 7.845-9.22 12.005-9.22 12.005s-59.06-26.4-66.17-33.635c-7.11-7.236 4.49-38.879 18.6-31.575z" transform="translate(0 33.858)"/>
        <path fill="#FFD974" d="M38.81 167.489c-1.34-10.061 7.07-24.775 22.47-31.16 9.45-3.917 47.11-18.466 83.32-15.245 23.05 2.06 14.26 24.997 7.09 31.053-17.31 14.607-65.79 40.725-84.54 37.823-19.96-3.086-27.35-15.071-28.34-22.471z" transform="translate(0 33.858)"/>
        <path fill="#F36B53" d="M87 57.964c-2.65-6.771 0-16.774 0-16.774l-14.07 2.341s3.9 11.608-.72 16.794c-1.44 1.605-3 .522-6.18 1.692 0 0 4.7 7.488 9.5 10.196l20.63-9.402S89 63.1 87 57.964z" transform="translate(0 33.858)"/>
        <path fill="#F36B53" d="M94.2 39.836c-.534-.593-1.459-.67-2.09-.174.706-2.382 1.023-4.856.94-7.333 0-4.74-16.79-12.74-20.94-10.64-4.15 2.098-8.44 11.917-7.34 22.945.23 2.254 14 11.299 19.33 4.837 3.18-3.87 5.75-4.315 5.75-4.315s.53.968 2.5-.106 3.05-4.218 1.85-5.214z" transform="translate(0 33.858)"/>
        <path fill="#732622" d="M95.27 27.502c.47-.44.815-.99 1-1.596l.3-1.287c.073-.847-.085-1.698-.46-2.466l-.69-1.065c-.572-.673-1.322-1.184-2.17-1.48-.63-.261-1.321-.352-2-.26-.66-.024-1.315.12-1.9.415-.12.049-.22.126-.33.174-.031-.266-.092-.529-.18-.783l-.49-.968c-.41-.58-.972-1.045-1.63-1.344-.469-.236-.992-.353-1.52-.339-.527-.077-1.065-.017-1.56.174-.343.106-.665.27-.95.484-.082-2.591-1.766-4.88-4.27-5.804-8.35-3.405-13.61 9.383-5.17 12.827.617.254 1.266.426 1.93.513 1.217 1.623 2.89 2.875 4.82 3.608l10.95 2.902c-.43 1.49-.575 3.044-.43 4.585l-.66 5.543 1.52.28s.23-1.934 1.21-2.176c.576-.123 1.179.036 1.61.426 0 0 4.34-6.162 1.07-12.363z" transform="translate(0 33.858)"/>
        <path fill="#18336D" d="M72 117.805s-23 19.531-24.74 51.27c-.28 5.301-11.84-3.87-11.84-13.843.01-19.618 17.98-37.214 36.58-37.427z" transform="translate(0 33.858)"/>
        <path fill="#F36B53" d="M99.53 64.3c4.09-2.795 38.6-13.65 49.08-13.755 10.48-.107 12.61 10.64 7.14 14.83-5.47 4.188-37.53 21.871-45.55 22.655C97.62 89.278 88.73 71.68 99.53 64.3z" transform="translate(0 33.858)"/>
        <path fill="#18336D" d="M136.3 79.207c-10.3 5.418-22.76 9.49-27.3 9.935-6.91.677-12.38-2.612-15.29-9.528-2.79-6.617-1-13.33 4.49-17.103 2.77-1.935 15-6.085 27.05-9.422.07.116 6.92 9.228 11.05 26.118z" transform="translate(0 33.858)"/>
        <path fill="#F36B53" d="M144.76 47.555c5.28-10.573 13-20.991 12.84-30.54 0 0 4.88-3.714 6.72.456 1.84 4.169 7.26 47.99-15.59 49.509 0 0-9.24-8.842-3.97-19.425z" transform="translate(0 33.858)"/>
        <path fill="#F36B53" d="M154.36 14.007c-2.8-1.431-.19-5.233-.65-7.187-.23-.967 2 .619 1.95 3.521.868-2.912 1.463-5.894 1.78-8.91.19-2.901 3.81.513 6.33.368 1-.058 2-.358 2.36.62.8 2.429.687 5.053-.32 7.41-2.25 6.132-1.1 5.93-1.19 9.14-.09 3.213-7.18.823-7.18.823s-.28-4.314-3.08-5.785z" transform="translate(0 33.858)"/>
        <path fill="#FFF" d="M69.51 61.08s-22.33 45.842-32.95 119.594l-16.88-5.805s9.25-65.78 17.15-88.716c0 0-14.08-9.674-21.9-20.053C.66 47.168 0 21.65 0 21.65l17.25-.32s10.59 17.2 19.91 24.716C49.11 55.672 56.07 56.64 69.51 61.08zM152.63 20.847s-3 21.833-21.74 29.214C120.23 54.259 100 61.91 89.66 61.079l11.44 62.965 25.05-3.424-6.7-29.02s58.86-17.22 49.74-69.854l-16.56-.9z" transform="translate(0 33.858)"/>
    </g>
</svg>
