<svg xmlns="http://www.w3.org/2000/svg" width="522" height="196" viewBox="0 0 522 196">
    <g fill="none">
        <path fill="#2B1F58" d="M99.2 0H106.17V82.62H99.2zM415.25 0H422.22V82.62H415.25z"/>
        <path fill="#783F18" d="M126.06 119.64l-96.77 4.07-20 .83S23 118.28 27.16 117c2.267-.33 4.55-.531 6.84-.6 22.26-1.26 90-2.93 90-2.93l2.06 6.17z"/>
        <path fill="#DAA65E" d="M34 116.4c-2 1.43-4.39 3.89-4.72 7.31l-20 .83S23 118.28 27.16 117c2.267-.33 4.55-.531 6.84-.6z" opacity=".2" style="mix-blend-mode:screen"/>
        <path fill="#783F18" d="M360.05 75.49c-3.68-5.33-20.28-8.92-20.28-8.92l-36 3.12 56.28 5.8z"/>
        <path fill="#935325" d="M8.85 61.58s20.54-5.49 35.8-6.83c15.26-1.34 429.29-14.84 438.58-14.08 9.29.76 21.28 6.44 21.28 6.44L8.85 61.58z"/>
        <path fill="#783F18" d="M363 152.02L350.02 146.76 331.48 155.53z"/>
        <path fill="#C88A4D" d="M499.5 189.14c-11.25 2.22-98 4.07-192.93 5.25-123.07 1.5-260 1.86-265 .32-.302-.09-.586-.233-.84-.42-9.44-6.21-33.34-66.13-31.45-69.73 1.89-3.6 111.44-8.16 111.44-8.16s-107.83-.3-111.52-4.2l-.08-.08C5.34 107.8-9.21 63.4 8.85 61.58c8-.8 124.84-5.15 243.08-9 57-1.82 114.26-3.54 159.85-4.66 53.63-1.33 91.05-1.88 92.73-.85 6 3.66 7.29 17.18 6.12 21-1.17 3.82-71.63 5.41-71.63 5.41s75.66.72 77.69 5.65c2.03 4.93 4.45 69.11 4.45 69.11l-31.82 6.39 31.87 1s4.16 28.37-21.69 33.51z"/>
        <path fill="#DAA65E" d="M40.73 194.27c-9.44-6.21-33.34-66.13-31.45-69.73 1.89-3.6 111.44-8.16 111.44-8.16S15.25 123.27 14 125.75c-1.23 2.15 12.58 48.34 26.73 68.52zM9.2 112.2l-.08-.08C5.34 107.8-9.21 63.4 8.85 61.58 20.67 60.39 271.56 51.43 411.78 48 274 52.08 15.93 60.42 8.2 65.29c-10.54 6.71 1 46.91 1 46.91z" opacity=".6" style="mix-blend-mode:screen"/>
        <path fill="#C88A4D" d="M15.54 68.12c-6.83 3.69-1.75 36.23.92 39.09 2.67 2.86 219.05 5.51 219.05 5.51S21.9 125.28 20.59 128.17c-1.31 2.89 23.6 55 28.26 57.84 4.66 2.84 430.75 4.91 448-1.38s19.76-21.13 17.09-23.58c-2.67-2.45-53.79-5.81-52.48-7.05 1.31-1.24 46.41-6.9 49.05-9.8 2.64-2.9 4.9-60.12-1.75-62.55-6.65-2.43-104.92-8.34-104.93-10-.01-1.66 93.55-3.51 98.19-5.6 4.64-2.09 1.9-13.6-2.76-15.62-4.66-2.02-479.1 15.19-483.72 17.69z" opacity=".3" style="mix-blend-mode:screen"/>
        <path fill="#C88A4D" d="M72.11 92.43c2 0 169.21-4 169.21-4S98 89.78 72.11 92.43zM237.77 152.22l203-5.08s-155.91 1.47-203 5.08zM330.34 106.56l-68.73 2.11s46.48-4.02 68.73-2.11z" opacity=".6" style="mix-blend-mode:screen"/>
        <path fill="#C88A4D" d="M499.5 189.14c-11.25 2.22-98 4.07-192.93 5.25 167.19-43.63 108-112.5-54.64-141.77 57-1.82 114.26-3.54 159.85-4.66 53.63-1.33 91.05-1.88 92.73-.85 6 3.66 7.29 17.18 6.12 21-1.17 3.82-71.63 5.37-71.63 5.37s75.66.72 77.69 5.65c2.03 4.93 4.45 69.11 4.45 69.11l-31.82 6.39 31.87 1s4.16 28.37-21.69 33.51z" opacity=".1" style="mix-blend-mode:multiply"/>
        <path fill="#C88A4D" d="M29.52 75.43c2-.42 340.39-11 340.39-11s-312.55 5.05-340.39 11zM496.74 173.51l-191.13.49s153.29-2.7 191.13-.49zM73.76 140.57c2.66 0 282.66-9.32 282.66-9.32s-256.8 5.03-282.66 9.32zM305.1 99.08c4-.44 194.41-6.67 194.41-6.67S333.6 94 305.1 99.08zM54.7 167.45s95.55-2.7 117.45-2.85C131 162.82 54.7 167.45 54.7 167.45z" opacity=".6" style="mix-blend-mode:multiply"/>
        <g>
            <path fill="#935325" stroke="#935325" stroke-linecap="round" stroke-linejoin="round" stroke-width="7" d="M107.77 39.4c.037.71.014 1.423-.07 2.13-.056.5-.25.974-.56 1.37-.33.382-.77.65-1.26.77-.719.185-1.458.282-2.2.29l-23.88.89c-.733.044-1.468 0-2.19-.13-.494-.085-.949-.323-1.3-.68-.34-.369-.569-.827-.66-1.32-.138-.699-.215-1.408-.23-2.12l-.91-24.46c-.037-.745-.007-1.49.09-2.23.063-.5.272-.969.6-1.35.344-.353.787-.594 1.27-.69.69-.152 1.393-.236 2.1-.25l23.88-.88c.739-.046 1.48-.005 2.21.12.495.087.954.316 1.32.66.34.369.569.827.66 1.32.136.696.213 1.401.23 2.11l.9 24.45zm-5.45-22.95c0-.77-.38-1.13-1.06-1.11l-21.19.79c-.64 0-.94.41-.91 1.17L80 39.06c-.034.352.054.705.25 1 .213.165.483.237.75.2l21.19-.78c.3.02.59-.107.78-.34.164-.277.234-.6.2-.92l-.85-21.77zM99.85 31.9c.037.71.014 1.423-.07 2.13-.056.5-.25.974-.56 1.37-.328.374-.76.642-1.24.77-.712.185-1.444.283-2.18.29l-8.92.33c-.709.042-1.42.006-2.12-.11-.484-.076-.936-.291-1.3-.62-.345-.363-.578-.818-.67-1.31-.158-.726-.242-1.467-.25-2.21l-.33-8.89c-.048-.734-.018-1.472.09-2.2.06-.498.257-.969.57-1.36.334-.359.77-.607 1.25-.71.69-.152 1.393-.236 2.1-.25l8.93-.33c.726-.042 1.454.002 2.17.13 1.043.136 1.864.957 2 2 .138.699.215 1.408.23 2.12l.3 8.85zM95 24.32c.013-.268-.064-.532-.22-.75-.13-.15-.41-.21-.84-.2l-6.08.23c-.43 0-.7.11-.82.29-.13.22-.189.475-.17.73l.25 6.61c-.038.286.05.574.24.79.248.143.536.2.82.16l6.05-.18c.43 0 .7-.1.82-.27.136-.225.192-.49.16-.75L95 24.32zM125 18.27c-.323.022-.645-.048-.93-.2-.278-.176-.478-.451-.56-.77-.26.38-.53.76-.79 1.11-.26.35-.53.7-.8 1-.303.407-.721.713-1.2.88-.465.1-.95-.038-1.29-.37-.94-.73-.9-1.75.11-3.05.44-.5.85-1 1.24-1.55s.76-1.1 1.12-1.69c.36-.59.71-1.24 1.07-1.92.36-.68.72-1.45 1.09-2.27v.08c.141-.416.398-.784.74-1.06.313-.253.698-.4 1.1-.42.34-.009.678.042 1 .15.373.166.712.4 1 .69 1.13 1.1 2.09 2.09 2.89 3 .8.91 1.48 1.73 2.06 2.49.307.415.481.914.5 1.43-.015.527-.238 1.026-.62 1.39-.291.407-.75.66-1.25.69-.42 0-.85-.32-1.31-.94 0 0-.05.08-.08.31-.04.244-.186.457-.4.58-.259.176-.567.267-.88.26l-3.81.18zm8.1 19.7c.306.48.485 1.031.52 1.6-.083.56-.414 1.051-.9 1.34-1 .7-1.82.38-2.55-.93l-.14-.26-.14-.26c-.92.54-1.82 1-2.69 1.46-.87.46-1.63.85-2.27 1.23-.482.236-.993.407-1.52.51-.348.085-.716.008-1-.21-.298-.292-.497-.67-.57-1.08-.16-.689-.245-1.393-.25-2.1L121 22.79c-.099-.924.128-1.854.64-2.63.695-.704 1.663-1.07 2.65-1l5.35-.2c.878-.128 1.768.14 2.43.73.549.771.823 1.704.78 2.65l.23 6.19c.107.947-.1 1.902-.59 2.72-.585.687-1.46 1.058-2.36 1l-5.24.2.17 4.55c-.016.26.032.522.14.76.08.1.27.06.57-.1l.63-.33.51-.24.5-.25.67-.33-.08-.17-.08-.16c-.43-.527-.676-1.18-.7-1.86.104-.437.368-.819.74-1.07.327-.353.803-.528 1.28-.47.457.145.854.437 1.13.83.54.79 1 1.56 1.51 2.29s.9 1.43 1.28 2.1l-.06-.03zm-8.53-13.6l5-.19v-.3c.026-.457-.07-.913-.28-1.32-.16-.2-.53-.29-1.11-.27l-2.39.09c-.374-.034-.743.106-1 .38-.169.411-.23.858-.18 1.3l-.04.31zm3.83 4.8c.362.015.718-.102 1-.33.233-.409.315-.887.23-1.35v-.23l-5 .18.07 1.86 3.7-.13zM127.14 13c-.58-.59-1-.6-1.22 0-.136.34-.29.675-.46 1-.16.34-.34.67-.53 1l3.84-.14c-.27-.35-.53-.67-.8-1-.27-.33-.54-.59-.83-.86zm13.92-3L141 8.78c0-.74.12-1.22.43-1.45.823-.46 1.818-.494 2.67-.09.37.2.56.67.59 1.4v1.18l4.82-.18c.743-.093 1.495.073 2.13.47.54.539.811 1.29.74 2.05l.1 2.5c.099.72-.116 1.449-.59 2-.607.437-1.343.66-2.09.63l-4.82.18v1.25l8.17-.3c.47-.055.946.04 1.36.27.354.34.535.821.49 1.31.064.447-.063.9-.35 1.25-.38.291-.852.437-1.33.41l-18.76.69c-.486.072-.982-.009-1.42-.23-.3-.363-.441-.832-.39-1.3-.086-.461.018-.938.29-1.32.42-.255.91-.373 1.4-.34l6.91-.25v-1.26l-4.63.18c-.755.098-1.52-.083-2.15-.51-.484-.55-.729-1.27-.68-2l-.09-2.43c-.116-.743.076-1.5.53-2.1.604-.452 1.348-.675 2.1-.63l4.63-.16zm.7 28.31c.328.5.416 1.12.24 1.69-.264.662-.777 1.194-1.43 1.48-.8.43-1.56.8-2.3 1.11-.74.31-1.69.66-2.87 1-.514.251-1.105.294-1.65.12-.377-.281-.65-.678-.78-1.13-.242-.537-.177-1.164.17-1.64.362-.46.876-.775 1.45-.89.47-.14.91-.29 1.31-.45l1.13-.44c.347-.14.68-.29 1-.45l1.11-.54h-.31c-.717.044-1.437.02-2.15-.07-.442-.046-.86-.224-1.2-.51-.29-.286-.483-.657-.55-1.06-.104-.588-.164-1.183-.18-1.78l-.3-8.13c-.024-.514-.004-1.03.06-1.54.04-.364.178-.71.4-1 .214-.269.503-.467.83-.57.443-.125.9-.193 1.36-.2l12.42-.46c.903-.141 1.826.078 2.57.61.547.744.81 1.66.74 2.58l.3 8.05c.132.95-.08 1.914-.6 2.72-.721.628-1.654.96-2.61.93.46.19.87.35 1.21.47l1 .35.9.32 1 .42c.546.216 1.033.559 1.42 1 .27.41.353.915.23 1.39-.04.524-.367.983-.85 1.19-.633.177-1.311.102-1.89-.21-1-.42-1.79-.75-2.42-1-.63-.25-1.33-.5-2.1-.83-.66-.222-1.263-.584-1.77-1.06-.286-.408-.313-.945-.07-1.38.04-.101.073-.205.1-.31.028-.08.065-.157.11-.23l-5.17.19c.025.018.046.042.06.07l.08.19zm-4.7-24.36c-.008.206.04.41.14.59.08.113.27.163.57.15l3.46-.13-.06-1.4-3.45.12c-.46-.03-.72.19-.66.62v.05zm12 12.41c.01-.088-.02-.176-.08-.24-.128-.035-.262-.035-.39 0l-9.79.36c-.21 0-.32 0-.34.11-.013.093-.013.187 0 .28v.84l10.63-.39-.03-.96zm.13 3.5l-10.63.39v1.1l10.63-.39v-1.1zm.14 3.68l-10.64.39v1c0 .133.04.193.12.18h.23l9.95-.37c.095.007.188-.03.253-.1.064-.07.093-.166.077-.26l.01-.84zM144.86 13v1.4l3.68-.13c.207.017.41-.065.547-.22.138-.156.195-.367.153-.57 0-.43-.27-.64-.75-.62l-3.63.14zM178.39 20c.626-.058 1.252.105 1.77.46.404.44.616 1.023.59 1.62.082.585-.089 1.178-.47 1.63-.493.382-1.107.574-1.73.54l-8.05.3.38 10.37c-.014.418-.216.807-.55 1.06-.54.413-1.211.618-1.89.58-.666.096-1.344-.06-1.9-.44-.327-.237-.541-.599-.59-1l-.86-23.2c-.093-.608.107-1.223.54-1.66.532-.363 1.166-.545 1.81-.52l11.73-.44c.59-.067 1.182.083 1.67.42.438.427.674 1.02.65 1.63.111.597-.071 1.21-.49 1.65-.492.362-1.09.552-1.7.54l-9.19.34.24 6.42 8.04-.3zM191.8 10.43c.006-.498.19-.977.52-1.35.496-.496 1.18-.754 1.88-.71.686-.1 1.382.093 1.92.53.372.354.594.837.62 1.35l.52 14.05c.027.97.15 1.935.37 2.88.187.782.527 1.52 1 2.17.449.603 1.059 1.068 1.76 1.34.886.324 1.83.457 2.77.39.924-.001 1.838-.2 2.68-.58.666-.315 1.233-.806 1.64-1.42.415-.675.677-1.433.77-2.22.127-.995.167-1.998.12-3l-.52-14c-.012-.494.159-.975.48-1.35.5-.508 1.199-.77 1.91-.72.69-.09 1.387.104 1.93.54.372.354.594.837.62 1.35l.6 16.4c.086 1.374-.169 2.748-.74 4-.544 1.122-1.317 2.116-2.27 2.92-.97.805-2.082 1.419-3.28 1.81-1.24.418-2.533.654-3.84.7-1.29.044-2.579-.094-3.83-.41-1.23-.306-2.394-.839-3.43-1.57-1.024-.716-1.884-1.644-2.52-2.72-.695-1.22-1.067-2.596-1.08-4l-.6-16.38zM229.88 32.33c.011.513-.175 1.01-.52 1.39-.505.478-1.186.725-1.88.68-.692.09-1.39-.116-1.92-.57-.358-.348-.578-.813-.62-1.31l-.87-23.47c-.016-.441.103-.877.34-1.25.24-.38.81-.58 1.72-.62.457-.03.908.116 1.26.41.304.276.588.574.85.89l12.59 15.69-.57-15.53c-.001-.5.184-.98.52-1.35.49-.499 1.172-.761 1.87-.72.69-.09 1.387.104 1.93.54.372.354.594.837.62 1.35l.87 23.54c.015.423-.104.84-.34 1.19-.24.36-.8.56-1.69.6-.466.024-.924-.121-1.29-.41-.323-.265-.621-.56-.89-.88l-12.54-15.17.56 15zM263.52 12.57v5.1c0 1.58-.12 3.11-.24 4.61-.12 1.5-.31 3-.54 4.48-.23 1.48-.54 3.06-.91 4.7-.12.488-.288.964-.5 1.42-.136.312-.358.579-.64.77-.266.154-.575.217-.88.18-.414-.038-.821-.132-1.21-.28-.601-.139-1.095-.566-1.32-1.14-.134-.803-.093-1.625.12-2.41.3-1.38.56-2.74.78-4.08.22-1.34.4-2.7.53-4.1.13-1.4.23-2.86.26-4.37.03-1.51 0-3.12-.05-4.85-.106-.773.034-1.56.4-2.25.445-.488 1.08-.762 1.74-.75h0c.667-.115 1.35.093 1.84.56.513.692.736 1.557.62 2.41zm22.81 14.06c0 .36.06.7.07 1 .01.3 0 .63 0 .91.08 1.369-.032 2.742-.33 4.08-.24 1.065-.778 2.04-1.55 2.81-.883.821-1.96 1.406-3.13 1.7-1.671.424-3.386.653-5.11.68-1.632.084-3.267.03-4.89-.16-1.094-.106-2.145-.48-3.06-1.09-.773-.558-1.345-1.35-1.63-2.26-.365-1.207-.557-2.46-.57-3.72l-.78-21.15c-.08-.621.07-1.25.42-1.77.46-.417 1.07-.63 1.69-.59.64-.087 1.29.078 1.81.46.415.477.627 1.098.59 1.73l.77 20.81c.01.574.09 1.145.24 1.7.115.43.405.794.8 1 .536.265 1.123.411 1.72.43 1 .057 2 .057 3 0 1.007-.01 2.01-.11 3-.3.612-.097 1.187-.352 1.67-.74.393-.371.647-.865.72-1.4.116-.754.153-1.518.11-2.28v-.67c0-.21 0-.46-.06-.74-.114-.636-.02-1.292.27-1.87.43-.499 1.062-.775 1.72-.75.598-.093 1.208.042 1.71.38.524.449.818 1.11.8 1.8h0zm-6.22-4.52c.247.877.187 1.812-.17 2.65-.457.55-1.158.839-1.87.77-.635.116-1.286-.081-1.75-.53-.384-.604-.624-1.288-.7-2-.27-1.69-.54-3.25-.82-4.69-.28-1.44-.59-2.81-.93-4.14-.34-1.33-.74-2.66-1.18-4-.44-1.34-.95-2.71-1.54-4.19-.336-.61-.462-1.312-.36-2 .265-.52.72-.917 1.27-1.11.562-.284 1.206-.362 1.82-.22.51.16 1 .7 1.35 1.63.62 1.6 1.17 3.1 1.65 4.52.48 1.42.92 2.82 1.32 4.23.4 1.41.74 2.85 1.05 4.33.31 1.48.6 3.1.87 4.84l-.01-.09zm12.52 6.34c.312 1.004.284 2.083-.08 3.07-.427.609-1.117.98-1.86 1-.647.173-1.337-.027-1.79-.52-.445-.79-.718-1.666-.8-2.57-.495-3.16-1.163-6.292-2-9.38-.802-2.893-1.75-5.743-2.84-8.54-.19-.463-.34-.942-.45-1.43-.083-.328-.083-.672 0-1 .063-.25.203-.474.4-.64.244-.18.509-.328.79-.44.61-.394 1.372-.472 2.05-.21.733.49 1.251 1.241 1.45 2.1.593 1.553 1.127 3.033 1.6 4.44.49 1.42.93 2.85 1.34 4.31.41 1.46.8 3 1.16 4.58.36 1.58.68 3.32 1.03 5.23h0zM337.44 8.2c-.082.52-.425.963-.91 1.17-.802.132-1.624.074-2.4-.17-.8-.18-1.56-.37-2.31-.57-.75-.2-1.48-.42-2.23-.67-.07.86-.59 1.31-1.58 1.35l-16.18.6c-.414.05-.834-.03-1.2-.23-.296-.25-.47-.613-.48-1-.8.3-1.59.59-2.38.86-.79.27-1.57.51-2.35.72-.865.326-1.803.405-2.71.23-.508-.2-.868-.659-.94-1.2-.138-.554-.013-1.14.34-1.59.661-.5 1.446-.811 2.27-.9 2.115-.482 4.183-1.151 6.18-2 2.207-.927 4.334-2.034 6.36-3.31.394-.272.812-.506 1.25-.7.365-.156.754-.247 1.15-.27.417-.01.834.034 1.24.13.483.124.945.32 1.37.58 1.99 1.03 4.056 1.907 6.18 2.62 2.28.765 4.6 1.402 6.95 1.91.798.047 1.553.376 2.13.93.314.437.406.995.25 1.51h0zm-30.55 19.12c-.52.061-1.046-.048-1.5-.31-.336-.28-.52-.703-.5-1.14-.07-.451.066-.91.37-1.25.453-.276.98-.409 1.51-.38l11.55-.43c-.14-.17-.29-.34-.46-.51l-.53-.55L313 23c-1.52.07-3.13.14-4.82.2-.626.035-1.252-.085-1.82-.35-.378-.276-.577-.735-.52-1.2-.022-.473.17-.932.52-1.25.622-.384 1.353-.553 2.08-.48 4.96-.08 9.263-.257 12.91-.53 3.63-.28 6.82-.64 9.54-1.1.827-.226 1.69-.284 2.54-.17.534.095.942.53 1 1.07.03.252.03.508 0 .76-.034.241-.155.462-.34.62-.258.215-.558.375-.88.47-.523.158-1.058.271-1.6.34-1.29.2-2.67.39-4.16.56-1.49.17-3.12.32-4.89.46l.54.61c.17.21.33.42.49.65l10.11-.38c.532-.082 1.077.013 1.55.27.294.335.438.776.4 1.22.057.426-.078.855-.37 1.17-.43.3-.947.449-1.47.42l-8.62.32c.06.2.11.39.17.56.06.17.12.35.17.53l10.6-.39c.504-.06 1.014.038 1.46.28.617.676.668 1.696.12 2.43-.419.316-.936.472-1.46.44l-10.45.38c.01 2.406-1.52 4.55-3.8 5.32-1.366.477-2.804.713-4.25.7-1.888.008-3.772-.156-5.63-.49-1-.17-1.69-.53-1.94-1.11-.249-.595-.204-1.272.12-1.83.229-.505.68-.875 1.22-1 .778-.131 1.577-.077 2.33.16 1.529.443 3.143.501 4.7.17.935-.24 1.704-.901 2.08-1.79l-16.22.6c-.515.06-1.035-.042-1.49-.29-.35-.297-.535-.743-.5-1.2-.068-.457.067-.921.37-1.27.447-.292.977-.432 1.51-.4l16.29-.6-.17-.54c-.06-.16-.12-.35-.18-.55l-13.35.53zm27.17-12.72c0 1.19-.2 2-.73 2.36-.806.466-1.73.692-2.66.65l-21.34.79c-.918.111-1.849-.045-2.68-.45-.646-.585-.974-1.443-.88-2.31v-1.36c-.15-.852.113-1.724.71-2.35.796-.476 1.714-.709 2.64-.67l21.34-.79c.926-.105 1.864.058 2.7.47.653.572.989 1.426.9 2.29v1.37zm-4.18-.84c.016-.129-.028-.258-.12-.35-.155-.076-.33-.104-.5-.08l-18.8.7c-.433 0-.643.16-.63.48v.64c-.011.114.033.226.12.3.173.063.358.084.54.06l18.79-.7c.41 0 .61-.15.6-.4v-.65zm-11.33-9.39c-1.44.92-2.88 1.74-4.32 2.48l11-.41c-.8-.3-1.6-.62-2.41-1s-1.66-.73-2.54-1.13l-.56-.26c-.12-.051-.25-.078-.38-.08-.125.004-.248.034-.36.09-.152.09-.296.194-.43.31h0zM1.5 90c.403-.727.738-1.49 1-2.28.324-.98.575-1.983.75-3 .22-1.261.377-2.533.47-3.81.11-1.42.18-3 .2-4.82l-2 .08c-.236.023-.474.023-.71 0-.157-.029-.303-.101-.42-.21-.112-.12-.188-.269-.22-.43-.057-.226-.087-.457-.09-.69-.06-.385.029-.779.25-1.1.322-.212.705-.314 1.09-.29l2.06-.08v-.69-.72c-.038-.371.057-.744.27-1.05.26-.272.624-.421 1-.41.91 0 1.36.42 1.37 1.36v1.42h1.23c.626-.043 1.254-.043 1.88 0 .39.026.758.181 1.05.44.272.307.44.692.48 1.1.08.5.15 1.17.21 2 .06.83.08 1.6.12 2.58.04.98.07 2 .1 3s0 2 .05 2.85c.05.85 0 1.61 0 2.15-.02.805-.138 1.604-.35 2.38-.154.572-.423 1.106-.79 1.57-.315.388-.73.682-1.2.85-.51.184-1.049.269-1.59.25-.333.032-.667.032-1 0-.247-.077-.485-.181-.71-.31-.478-.102-.908-.363-1.22-.74-.162-.352-.162-.758 0-1.11.084-.384.313-.721.64-.94.48-.132.99-.09 1.44.12.278.104.573.158.87.16.24.007.472-.08.65-.24.209-.213.354-.48.42-.77.121-.467.188-.947.2-1.43v-2.07-2.83c0-1-.07-2-.11-3-.04-1-.09-1.78-.13-2.44-.01-.27-.064-.537-.16-.79-.07-.12-.25-.17-.54-.16l-1.5.1c0 1.79-.1 3.42-.21 4.9-.11 1.48-.28 2.83-.5 4.07-.192 1.156-.46 2.299-.8 3.42-.295.989-.67 1.952-1.12 2.88-.185.521-.537.967-1 1.27-.4.131-.838.065-1.18-.18-.376-.168-.653-.5-.75-.9.023-.525.196-1.032.5-1.46h0zm20.18-1.1c.023.44.006.882-.05 1.32-.03.3-.149.586-.34.82-.194.223-.452.38-.74.45-.41.1-.829.154-1.25.16l-3.21.12c-.422.025-.845-.002-1.26-.08-.287-.056-.551-.195-.76-.4-.199-.226-.33-.503-.38-.8-.087-.425-.134-.857-.14-1.29L13 74.6c-.038-.443-.038-.887 0-1.33.028-.301.147-.587.34-.82.198-.212.456-.359.74-.42.404-.092.816-.143 1.23-.15l3.21-.12c.425-.025.852.002 1.27.08.29.054.559.193.77.4.21.211.361.473.44.76.08.419.128.844.14 1.27l.54 14.63zm-5.47-.23c-.014.104.015.208.08.29.099.06.216.082.33.06l2-.07c.112.004.223-.024.32-.08.052-.102.07-.217.05-.33l-.5-13.7c.003-.095-.021-.189-.07-.27-.087-.051-.19-.073-.29-.06l-2.06.08c-.17 0-.27 0-.32.09-.048.089-.069.19-.06.29l.52 13.7zM29.27 73.56c-.27.033-.537-.082-.7-.3-.168-.273-.252-.59-.24-.91-.04-.34.009-.684.14-1 .162-.228.432-.353.71-.33l6.07-.22c.278-.015.55.086.75.28.24.276.363.635.34 1 .04.334-.058.67-.27.93-.184.204-.445.324-.72.33l-2.35.08c-.1.59-.21 1.13-.34 1.61-.13.48-.23 1-.33 1.49l1.67-.06c.483-.078.97.114 1.27.5.291.543.433 1.154.41 1.77l.32 9.33c.068.617-.025 1.24-.27 1.81-.268.4-.73.625-1.21.59l-2.71.09c-.493.095-.998-.085-1.32-.47-.275-.559-.406-1.178-.38-1.8L30 83.46c-.149.207-.383.336-.638.35-.255.013-.502-.09-.672-.28-.292-.226-.468-.57-.48-.94.021-.441.123-.875.3-1.28.26-.607.5-1.207.72-1.8.23-.6.44-1.21.64-1.84.2-.63.38-1.29.55-2 .17-.71.33-1.41.49-2.19l-1.64.08zm4.34 6.06c.008-.154-.019-.308-.08-.45-.05-.07-.15-.1-.31-.09h-1c-.124-.014-.248.026-.34.11-.072.142-.096.303-.07.46l.28 7.71c-.01.164.028.328.11.47.097.081.226.114.35.09h1c.113.007.223-.037.3-.12.036-.158.036-.322 0-.48l-.24-7.7zm5.75 4.62c-.06.87-.16 1.69-.29 2.47-.129.757-.316 1.502-.56 2.23-.099.365-.304.692-.59.94-.26.139-.57.139-.83 0-.41-.12-.64-.32-.7-.6-.055-.339-.01-.686.13-1 .126-.327.233-.66.32-1 .09-.33.17-.65.24-1 .078-.33.135-.663.17-1 0-.36.07-.74.09-1.16-.011-.349.071-.694.24-1 .179-.257.492-.386.8-.33.327-.005.638.143.84.4.153.328.202.694.14 1.05h0zm5.56-12.07v1.13l2.74-.1c.305-.039.613.032.87.2.202.207.304.492.28.78.04.272-.045.547-.23.75-.247.168-.542.249-.84.23l-2.74.11v1.1l2.77-.1c.291-.03.586.008.86.11.17.08.27.37.29.84.032.274-.052.55-.23.76-.244.184-.545.276-.85.26l-2.77.1.05 1.22 2.1-.08c.446-.027.894-.027 1.34 0 .309.018.607.122.86.3.23.185.393.442.46.73.119.44.186.894.2 1.35v3.33c0 .62 0 1.2-.06 1.76S50 88 50 88.31c.018 1.376-1.055 2.52-2.43 2.59l-.76.06h-.62c-.206.015-.414.015-.62 0-.21 0-.43-.07-.68-.13-.4-.02-.77-.222-1-.55-.154-.311-.18-.67-.07-1 .05-.341.274-.632.59-.77.327-.09.673-.09 1 0 .42.09.77.16 1.06.2.231.046.469.046.7 0 .165-.051.302-.167.38-.32.084-.214.135-.44.15-.67.07-.84.11-1.73.12-2.68.01-.95 0-1.84 0-2.67.009-.193-.03-.385-.11-.56-.06-.11-.21-.17-.44-.16l-7.65.29h-1.09c-.235-.008-.462-.089-.65-.23-.18-.17-.296-.395-.33-.64-.063-.404-.1-.811-.11-1.22l-.27-7.36c-.025-.364-.005-.73.06-1.09.042-.243.153-.469.32-.65.18-.166.4-.28.64-.33.33-.068.664-.108 1-.12l9.33-.34c.307-.075.632.01.863.225.232.215.34.533.287.845.052.308-.027.624-.22.87-.244.183-.546.271-.85.25l-3.68.02zm-5.24.2c-.17 0-.27 0-.3.1-.022.13-.022.26 0 .39v.65l3.44-.13v-1.13l-3.14.12zm-.19 4.21l3.44-.12v-1.11l-3.44.12v1.11zm.11 2.87c-.021.097.012.198.088.262.075.065.18.083.272.048l3.09-.12v-1.22l-3.44.12-.01.91zm2.93 8c.047.29.016.587-.09.86-.126.246-.34.435-.6.53-.44.19-.76.17-1-.06-.24-.281-.383-.632-.41-1-.1-.69-.21-1.34-.31-1.94-.111-.596-.261-1.184-.45-1.76h0c-.125-.286-.17-.6-.13-.91.084-.294.297-.533.58-.65.262-.194.611-.221.9-.07.25.182.424.448.49.75.18.65.35 1.33.52 2 .17.67.31 1.43.45 2.14l.05.11zm2.56-.81c.091.3.091.62 0 .92-.124.273-.356.483-.64.58-.292.116-.622.078-.88-.1-.223-.259-.372-.573-.43-.91-.15-.64-.3-1.23-.46-1.75-.16-.52-.33-1.06-.52-1.59h0c-.147-.312-.18-.667-.09-1 .072-.262.265-.474.52-.57.28-.155.62-.155.9 0 .211.157.366.378.44.63.24.66.44 1.28.61 1.88l.55 1.91zm2.52-.51c.09.3.09.62 0 .92-.11.209-.291.372-.51.46-.257.13-.553.16-.83.08-.2-.09-.36-.35-.46-.79-.19-.71-.36-1.33-.53-1.88-.17-.55-.35-1.08-.55-1.6-.118-.213-.16-.46-.12-.7.043-.249.208-.46.44-.56.243-.157.542-.2.82-.12.295.133.508.402.57.72.23.57.45 1.13.64 1.67.203.583.37 1.177.5 1.78l.03.02zM77.05 86.62c.033.43.033.86 0 1.29-.039.305-.156.594-.34.84-.205.227-.473.388-.77.46-.438.114-.888.175-1.34.18l-14.6.54c-.448.026-.898-.001-1.34-.08-.298-.056-.573-.199-.79-.41-.203-.23-.341-.51-.4-.81-.082-.425-.13-.857-.14-1.29l-.55-14.87c-.025-.45-.005-.903.06-1.35.03-.307.156-.598.36-.83.21-.213.478-.359.77-.42.42-.092.85-.142 1.28-.15l14.52-.54c.452-.026.905.001 1.35.08.302.048.581.187.8.4.209.222.348.5.4.8.08.422.127.85.14 1.28l.59 14.88zm-3.32-14c0-.46-.23-.68-.64-.67l-12.89.48c-.39 0-.57.25-.55.72l.49 13.23c-.02.208.032.417.15.59.124.106.288.153.45.13l12.89-.48c.182.01.359-.064.48-.2.09-.172.129-.367.11-.56l-.49-13.24zm-1.5 9.4c.038.432.038.868 0 1.3-.032.303-.15.591-.34.83-.2.23-.465.394-.76.47-.43.114-.874.175-1.32.18l-5.43.2c-.442.048-.888.048-1.33 0-.293-.043-.565-.176-.78-.38-.21-.218-.353-.492-.41-.79-.101-.443-.155-.896-.16-1.35L61.5 77c-.026-.448-.005-.897.06-1.34.034-.305.155-.593.35-.83.202-.22.468-.37.76-.43.417-.091.843-.141 1.27-.15l5.43-.2c.442-.03.885-.003 1.32.08.302.048.581.187.8.4.212.215.352.491.4.79.08.439.116.884.11 1.33l.23 5.37zm-3-4.6c.014-.164-.032-.327-.13-.46-.146-.109-.33-.152-.51-.12l-3.7.13c-.26 0-.43.07-.5.19-.08.132-.115.286-.1.44l.15 4c-.013.173.04.345.15.48.152.086.328.117.5.09l3.69-.13c.183.018.366-.044.5-.17.086-.137.122-.3.1-.46l-.15-3.99zM87.54 73.76c-.193.014-.387-.024-.56-.11-.173-.11-.297-.282-.35-.48-.16.24-.32.46-.48.68l-.48.63c-.187.25-.445.438-.74.54-.282.06-.576-.026-.78-.23-.57-.44-.55-1.06.07-1.85.27-.31.52-.62.75-.94.23-.32.46-.67.68-1 .22-.33.44-.75.65-1.16.21-.41.44-.88.67-1.38h0c.093-.248.248-.469.45-.64.19-.155.425-.243.67-.25.21-.01.421.02.62.09.233.097.443.24.62.42.69.67 1.28 1.27 1.76 1.82s.9 1 1.26 1.51c.179.257.282.558.3.87-.01.32-.147.622-.38.84-.174.252-.454.41-.76.43-.339-.052-.636-.254-.81-.55v.19c-.025.149-.112.28-.24.36-.161.104-.348.16-.54.16l-2.38.05zm4.93 12c.19.3.297.645.31 1-.052.339-.254.636-.55.81-.58.43-1.1.24-1.55-.56l-.08-.16-.09-.16c-.56.33-1.1.63-1.63.89-.53.26-1 .52-1.38.75-.297.14-.609.244-.93.31-.213.05-.436.002-.61-.13-.18-.179-.3-.41-.34-.66-.092-.418-.146-.843-.16-1.27l-.37-10c-.055-.563.087-1.129.4-1.6.417-.43 1.004-.65 1.6-.6l3.26-.12c.531-.08 1.07.081 1.47.44.339.47.508 1.041.48 1.62l.14 3.68c.07.575-.058 1.156-.36 1.65-.357.41-.887.63-1.43.59l-3.19.12.1 2.77c-.011.159.02.317.09.46 0 .06.16 0 .35-.06l.38-.2.31-.15L89 85l.4-.2-.05-.1c.005-.033.005-.067 0-.1-.26-.32-.408-.717-.42-1.13.06-.27.22-.506.45-.66.2-.212.49-.316.78-.28.281.086.525.266.69.51.32.48.63.94.91 1.39.28.45.55.87.78 1.27l-.07.06zm-5.19-8.28l3-.11v-.18c.017-.28-.041-.56-.17-.81-.1-.12-.32-.17-.68-.16l-1.43.05c-.231-.025-.461.06-.62.23-.1.25-.138.522-.11.79l.01.19zm2.33 2.92c.227.02.452-.049.63-.19.14-.253.189-.545.14-.83v-.14l-3 .11v1.13l2.23-.08zm-.78-9.84c-.35-.36-.6-.37-.74 0s-.18.43-.28.63c-.1.2-.21.41-.32.62l2.33-.09c-.16-.21-.33-.41-.49-.6-.16-.19-.33-.39-.5-.57v.01zm8.46-1.84V68c-.064-.316.03-.644.25-.88.247-.15.531-.227.82-.22.28-.025.56.03.81.16.22.13.34.41.36.86v.71l2.94-.1c.45-.055.904.043 1.29.28.326.33.491.787.45 1.25l.06 1.52c.066.443-.066.892-.36 1.23-.368.267-.816.401-1.27.38l-2.93.11v.76l5-.18c.287-.038.578.018.83.16.195.207.294.487.27.77.034.273-.045.548-.22.76-.232.177-.519.265-.81.25l-11.41.42c-.294.045-.595-.004-.86-.14-.179-.223-.265-.506-.24-.79-.045-.283.02-.573.18-.81.257-.149.553-.219.85-.2l4.21-.16v-.76l-2.82.11c-.46.063-.927-.048-1.31-.31-.293-.34-.44-.782-.41-1.23l-.06-1.47c-.067-.454.052-.915.33-1.28.367-.277.822-.411 1.28-.38l2.77-.1zm.43 17.21c.197.294.255.66.16 1-.16.403-.472.727-.87.9-.454.248-.922.472-1.4.67-.45.19-1 .4-1.74.65-.313.146-.67.17-1 .07-.227-.173-.392-.415-.47-.69-.149-.327-.11-.709.1-1 .219-.28.531-.471.88-.54l.8-.27.68-.27.63-.28.67-.32H96c-.432.04-.868.04-1.3 0-.27-.025-.525-.133-.73-.31-.178-.176-.297-.403-.34-.65-.06-.357-.098-.718-.11-1.08l-.18-4.94c-.022-.313-.022-.627 0-.94.025-.226.112-.44.25-.62.128-.162.302-.281.5-.34.27-.082.549-.126.83-.13l7.55-.28c.552-.085 1.115.048 1.57.37.327.455.486 1.01.45 1.57l.18 4.9c.083.577-.049 1.164-.37 1.65-.434.385-1 .589-1.58.57.28.11.52.21.74.28l.59.21.55.2.6.26c.335.13.634.339.87.61.16.253.21.56.14.85-.025.32-.225.602-.52.73-.386.104-.797.057-1.15-.13-.6-.26-1.09-.46-1.47-.59-.38-.13-.81-.31-1.28-.51-.4-.134-.767-.356-1.07-.65-.161-.257-.161-.583 0-.84 0-.08 0-.14.07-.18.011-.053.031-.104.06-.15l-3.14.12h0c-.013.03-.01.064.01.09v.01zm-2.86-14.82c-.006.122.022.243.08.35 0 .07.17.1.35.1l2.11-.08v-.86l-2.11.08c-.116-.025-.237.01-.323.092-.086.082-.126.2-.107.318h0zm7.29 7.55c0-.08 0-.13-.05-.15-.08-.017-.16-.017-.24 0l-6 .22c-.13 0-.2 0-.21.07-.007.056-.007.114 0 .17v.51l6.47-.24.03-.58zm.08 2.12l-6.47.22v.67l6.46-.24.01-.65zm.08 2.24l-6.47.24v.62c0 .08 0 .12.07.12h.14l6-.22c.14 0 .21-.08.2-.22l.06-.54zM99.6 70.54v.85l2.24-.08c.293 0 .433-.16.42-.48 0-.26-.16-.38-.45-.37l-2.21.08zM113 69.77c-.353.048-.711-.042-1-.25-.214-.242-.325-.557-.31-.88-.058-.347.013-.703.2-1 .302-.223.676-.326 1.05-.29l18.36-.68c.347-.043.7.03 1 .21.23.256.346.596.32.94.036.326-.066.652-.28.9-.281.23-.637.347-1 .33l-7.89.29.07 2 4.76-.18c.696-.117 1.408.099 1.92.584.514.486.769 1.184.69 1.886l.24 6.38h1.31c.38-.062.77.031 1.08.26.196.262.295.583.28.91.042.317-.045.637-.24.89-.276.24-.635.362-1 .34h-1.32l.07 1.87c.094.966-.142 1.936-.67 2.75-.535.703-1.377 1.106-2.26 1.08-.455.019-.91-.008-1.36-.08-.597-.109-1.18-.283-1.74-.52-.55-.2-.87-.45-1-.77-.095-.362-.041-.748.15-1.07.16-.46.39-.72.71-.79.422-.068.855-.005 1.24.18.397.161.805.295 1.22.4.23.06.47.06.7 0 .156-.062.272-.196.31-.36.034-.235.034-.475 0-.71l-.07-1.89-12 .44.16 4.36c.045.372-.088.743-.36 1-.254.232-.586.36-.93.36-.356.055-.72-.043-1-.27-.253-.27-.383-.631-.36-1L114 83.1h-1.2c-.379.068-.769-.03-1.07-.27-.333-.547-.363-1.226-.08-1.8.14-.2.49-.31 1.06-.33h1.2l-.24-6.37c-.076-.689.11-1.382.52-1.94.5-.49 1.18-.752 1.88-.72l4.78-.17-.07-2-7.78.27zm3.39 6.44l4.66-.17-.05-2.15-3.9.14c-.36 0-.57.08-.64.19-.086.205-.117.43-.09.65l.02 1.34zm.16 4.39l4.66-.18-.08-2.23-4.66.17.08 2.24zm7.08-6.81l.08 2.15 4.66-.17v-1.48c.013-.192-.047-.382-.17-.53-.17-.106-.372-.148-.57-.12l-4 .15zm.24 6.54l4.67-.18-.09-2.24-4.66.18.08 2.24zM141.63 71.34c-.452.124-.935.051-1.33-.2-.26-.267-.404-.627-.4-1-.046-.368.032-.74.22-1.06.346-.284.782-.436 1.23-.43 1.55-.157 3.086-.44 4.59-.85 1.157-.302 2.267-.76 3.3-1.36.404-.327.91-.5 1.43-.49.383.101.706.359.89.71.26.346.351.79.25 1.21-.234.47-.643.83-1.14 1h0c-1.153.56-2.35 1.021-3.58 1.38l.18 4.73 5.86-.21-.29-8c-.064-.397.07-.8.36-1.08.294-.203.643-.311 1-.31.35-.02.698.063 1 .24.297.244.46.616.44 1l.3 8 4.13-.15c.39-.07.79.05 1.08.32.195.297.296.645.29 1 .033.348-.044.698-.22 1-.253.281-.623.429-1 .4l-4.14.15.32 8.5c.061.39-.056.787-.32 1.08-.29.21-.642.318-1 .31-.389.053-.784-.028-1.12-.23-.237-.278-.358-.635-.34-1l-.31-8.5-6 .22c-.125 1.842-.626 3.638-1.47 5.28-.785 1.514-1.843 2.87-3.12 4-.321.344-.753.563-1.22.62-.358-.008-.694-.172-.92-.45-.258-.238-.413-.569-.43-.92.058-.46.304-.877.68-1.15 1.004-.94 1.843-2.041 2.48-3.26.644-1.283 1.035-2.679 1.15-4.11l-4.11.15c-.39.066-.789-.052-1.08-.32-.214-.288-.323-.641-.31-1-.031-.35.053-.702.24-1 .271-.286.657-.433 1.05-.4l4.22-.15-.15-4.11c-.888.197-1.786.344-2.69.44zM175.05 68.19c.282.164.445.475.42.8.003.438-.126.866-.37 1.23-.29.46-.61.93-.95 1.42-.34.49-.69 1-1.05 1.43-.36.43-.7.89-1 1.3-.31.374-.645.728-1 1.06-.2.23-.3.4-.27.51.03.11.17.15.41.09.24-.06.63-.16.88-.2l.89-.19c-.031-.04-.049-.09-.05-.14-.35-.89-.23-1.48.35-1.77.281-.189.639-.223.95-.09.323.25.553.603.65 1 .07.22.14.4.2.56.06.16.11.33.17.49l.15.53c.06.18.12.4.21.66.143.404.204.832.18 1.26-.054.313-.284.566-.59.65-.286.162-.628.195-.94.09-.296-.223-.499-.547-.57-.91-.74.17-1.53.33-2.37.49-.84.16-1.64.31-2.41.43-.396.074-.805.01-1.16-.18-.288-.164-.51-.421-.63-.73-.124-.318-.151-.666-.08-1 .058-.375.229-.724.49-1l1.11-1.24c.36-.4.693-.8 1-1.2l-1.18.09c-.344.045-.693-.018-1-.18-.248-.14-.447-.353-.57-.61-.121-.276-.166-.58-.13-.88.04-.33.149-.646.32-.93.33-.57.64-1.08.92-1.53.28-.45.56-.9.81-1.34l.75-1.34c.24-.46.5-1 .77-1.54.164-.377.44-.695.79-.91.28-.19.642-.21.94-.05.347.151.61.447.72.81.066.48-.03.97-.27 1.39-.3.663-.634 1.31-1 1.94-.35.58-.7 1.14-1.07 1.68-.16.27-.23.45-.2.55.03.1.17.14.43.11l1.11-.06.62-.87c.2-.29.41-.6.61-.91.234-.407.582-.737 1-.95.346-.102.72-.035 1.01.18h0zm-6.91 11.93c.7-.3 1.22 0 1.58.94.39 1.09.701 2.206.93 3.34.119.422.119.868 0 1.29-.322.547-1.012.752-1.58.47-.27-.33-.434-.735-.47-1.16-.09-.37-.18-.69-.25-1-.07-.31-.14-.55-.21-.79-.07-.24-.14-.48-.21-.7-.07-.22-.15-.45-.24-.7-.32-.81-.18-1.4.45-1.69h0zm2.75-.49c.62-.35 1.12-.08 1.49.8.21.48.394.97.55 1.47.19.55.35 1.1.49 1.63.132.393.163.812.09 1.22-.121.305-.396.522-.72.57-.25.108-.539.085-.77-.06-.26-.277-.43-.625-.49-1-.13-.46-.27-.94-.44-1.43-.17-.49-.34-1-.52-1.4-.17-.33-.252-.699-.24-1.07.04-.327.255-.606.56-.73h0zm11.74 1.62c-.28-.5-.54-1-.79-1.47s-.49-1-.7-1.5c-.21-.5-.43-1.06-.63-1.63-.2-.57-.39-1.18-.57-1.82 0 .68-.12 1.51-.26 2.5s-.33 2-.56 3c-.23 1-.5 2-.79 2.93-.25.8-.585 1.572-1 2.3-.183.376-.5.668-.89.82-.342.091-.707.03-1-.17-.259-.17-.43-.443-.47-.75-.014-.443.082-.883.28-1.28h-.05c-.222.13-.498.13-.72 0-.296-.26-.497-.612-.57-1-.14-.52-.28-1-.4-1.29-.12-.29-.27-.72-.43-1.11-.16-.343-.233-.722-.21-1.1.058-.27.245-.494.5-.6.233-.146.518-.182.78-.1.326.158.572.444.68.79.13.3.29.7.46 1.18.17.48.32 1 .44 1.4.004.067.004.133 0 .2 0 .06 0 .13.05.21.36-.95.66-1.922.9-2.91.257-1.116.457-2.244.6-3.38.15-1.23.26-2.59.31-4.08.05-1.49.06-3.17 0-5h-1.22c-.331.058-.67-.055-.9-.3-.195-.27-.293-.597-.28-.93 0-.86.33-1.3 1.11-1.33l7.68-.29c.626-.07 1.249.16 1.68.62.402.554.527 1.262.34 1.92l-.94 4h1.32c.484-.043.963.129 1.31.47.374.565.5 1.26.35 1.92-.124 1.419-.372 2.824-.74 4.2-.292 1.16-.729 2.279-1.3 3.33.386.354.79.688 1.21 1 .43.33.87.63 1.31.93.375.205.669.534.83.93.095.367.037.756-.16 1.08-.24.5-.5.78-.79.84-.412.007-.81-.147-1.11-.43-.553-.38-1.063-.76-1.53-1.14-.47-.39-.92-.79-1.33-1.2-.548.605-1.154 1.154-1.81 1.64-.724.528-1.479 1.012-2.26 1.45-.144.063-.295.11-.45.14-.155.035-.315.035-.47 0-.165-.041-.316-.124-.44-.24-.167-.15-.294-.339-.37-.55-.257-.717.09-1.51.79-1.81 1.193-.616 2.278-1.423 3.21-2.39h0zm.86-13.67c0-.313-.16-.463-.48-.45l-2.91.11v3.98l2.68-.1c.07-.33.14-.67.22-1 .08-.33.15-.69.21-1l.19-.88c0-.3.05-.51.09-.66h0zm.68 11.53c.377-.721.682-1.478.91-2.26.26-.89.451-1.8.57-2.72 0-.25-.05-.37-.26-.36l-3.39.13c.14.5.29 1 .44 1.41.15.41.32.87.49 1.28.17.41.36.82.57 1.23.21.41.41.84.67 1.29h0zM206.54 76c-.39.43-.72.77-1 1-.217.205-.463.377-.73.51-.174.096-.372.137-.57.12-.179-.033-.347-.108-.49-.22-.259-.166-.414-.453-.41-.76.027-.38.22-.728.53-.95.48-.392.884-.87 1.19-1.41-.226-.043-.444-.117-.65-.22-.197-.094-.374-.227-.52-.39-.137-.164-.252-.345-.34-.54-.09-.209-.14-.433-.15-.66-.008-.265.033-.53.12-.78.091-.27.226-.524.4-.75.184-.209.413-.373.67-.48.264-.123.55-.19.84-.2.292-.006.583.038.86.13.583.21 1.054.651 1.3 1.22.147.345.229.715.24 1.09.01 1.222-.453 2.4-1.29 3.29h0zM223.27 66.22c-.308.03-.616-.059-.86-.25-.224-.248-.34-.576-.32-.91-.042-.32.03-.646.2-.92.23-.24.56-.357.89-.32l6.53-.25c.76 0 1.15.36 1.18 1.16.039.321-.024.646-.18.93-.167.223-.432.35-.71.34h-.05l.62 17c.05.35-.032.707-.23 1-.22.217-.521.332-.83.32-.301.037-.604-.057-.83-.26-.217-.286-.324-.641-.3-1L228.3 81c-.58.19-1.23.37-2 .54l-2.23.56c-1 .24-1.49 0-1.63-.72-.143-.363-.143-.767 0-1.13.218-.312.561-.513.94-.55H223.84l-.5-13.35-.07-.13zm2.45 2.52l2.12-.08-.09-2.61-2.13.08.1 2.61zm.19 5.17l2.12-.08-.1-2.83-2.13.07.11 2.84zm.19 5.09c.27-.08.61-.17 1-.26s.77-.2 1.07-.3l-.08-2.29-2.13.08.14 2.77zm14.42-9c-.12.17-.15.29-.1.35.05.06.15.06.32 0 .37-.037.737-.097 1.1-.18l-.2-.46c-.12-.234-.163-.5-.12-.76.101-.251.294-.455.54-.57.19-.128.43-.15.64-.06.235.11.428.292.55.52.23.46.43.86.6 1.22l.53 1.12c.169.305.242.653.21 1-.06.317-.298.57-.61.65-.235.108-.505.108-.74 0-.247-.19-.429-.452-.52-.75l-.07-.14-1.13.22-1 .16-.81.13-.8.14c-.25.057-.51.057-.76 0 0 .26-.21.47-.56.62-.22.11-.48.11-.7 0-.235-.165-.421-.389-.54-.65l-2.12.39-1.95.33c-.374.096-.77.026-1.09-.19-.256-.201-.398-.515-.38-.84.004-.458.187-.895.51-1.22.48-.65.83-1.11 1.06-1.38l.46-.57c-.13.01-.26.01-.39 0-.123-.014-.247-.014-.37 0-.336.053-.68.018-1-.1-.289-.142-.457-.45-.42-.77-.02-.19-.02-.38 0-.57.052-.225.15-.436.29-.62.47-.71.92-1.41 1.35-2.09.43-.68.89-1.42 1.38-2.24.137-.336.404-.603.74-.74.256-.09.534-.09.79 0 .36.17.53.4.52.67-.055.386-.188.757-.39 1.09-.16.28-.31.53-.45.75-.13.22-.28.44-.42.66-.14.22-.31.46-.47.72l-.58.87c-.087.127-.117.207-.09.24H233.89c.132-.01.263-.034.39-.07.36-.57.71-1.12 1-1.64.165-.294.394-.547.67-.74.258-.159.583-.159.84 0 .25.142.417.395.45.68-.017.425-.18.83-.46 1.15-.24.41-.47.77-.67 1.07l-.62.93c-.2.31-.42.63-.67 1l-.82 1.23c-.14.18-.18.3-.13.39.032.073.113.112.19.09l.8-.11.67-.1c-.036-.11-.079-.217-.13-.32-.042-.104-.092-.204-.15-.3-.159-.184-.218-.434-.16-.67.104-.209.259-.387.45-.52.173-.148.392-.233.62-.24.21 0 .43.18.66.52.23.34.25.49.37.73s.24.52.38.84c.045-.09.095-.177.15-.26.055-.095.122-.182.2-.26.22-.32.48-.66.77-1 .29-.34.55-.68.75-.95-.145.03-.292.05-.44.06l-.73.1c-.335.077-.687.042-1-.1-.273-.18-.429-.493-.41-.82-.001-.194.029-.386.09-.57.064-.224.17-.434.31-.62.48-.65.93-1.28 1.33-1.88.4-.6.82-1.28 1.25-2 .25-.47.47-.75.68-.82.281-.053.572-.003.82.14.35.17.53.38.55.63-.037.378-.171.74-.39 1.05-.33.57-.64 1.06-.92 1.48-.28.42-.56.82-.86 1.2-.057.06-.09.138-.09.22 0 .06.12.06.33 0l.37-.06.51-.08c.2-.32.4-.63.58-.94.18-.31.37-.62.57-.94.153-.313.38-.584.66-.79.284-.154.633-.127.89.07.269.15.453.416.5.72.042.423-.088.844-.36 1.17-.25.39-.49.76-.72 1.1-.23.34-.47.68-.72 1-.25.32-.49.7-.77 1.07l-.95 1.21zm-3.15 7.91c.027.673-.044 1.347-.21 2-.302 1.267-1.047 2.384-2.1 3.15-.571.446-1.218.785-1.91 1-.32.136-.68.136-1 0-.268-.133-.462-.379-.53-.67-.068-.304-.007-.623.17-.88.253-.29.582-.505.95-.62.817-.243 1.535-.74 2.05-1.42h-.5c-.376.039-.754.039-1.13 0-.248-.026-.482-.127-.67-.29-.17-.177-.285-.4-.33-.64-.08-.351-.12-.71-.12-1.07l-.17-3.47c-.067-.35.013-.71.22-1 .21-.175.477-.268.75-.26.277-.038.556.05.76.24.189.272.28.6.26.93l.11 3c-.004.095.02.189.07.27 0 .06.13.09.27.08h1.08c-.004-.037-.004-.073 0-.11v-.14l-.13-3.47c-.009-.278.043-.554.15-.81.121-.274.401-.442.7-.42.31-.033.616.095.81.34.188.233.294.521.3.82l.15 3.44zm3.16 4.74c.038.321-.044.645-.23.91-.2.21-.48.323-.77.31-.294.04-.59-.05-.81-.25-.156-.27-.236-.578-.23-.89l-.31-8.46c-.04-.313.016-.63.16-.91.21-.205.498-.307.79-.28.287-.033.575.05.8.23.205.25.305.568.28.89l.15 4 1.18-.05c.22 0 .32-.15.31-.42l-.13-3.4c0-.75.27-1.14.89-1.16.298-.031.595.073.808.284.214.211.32.507.292.806l.15 4c.075.552-.05 1.112-.35 1.58-.41.345-.936.517-1.47.48l-1.6.06.09 2.27zM259.86 67.75c-.13-.34-.28-.69-.44-1l-.49-1c-2.06.22-4.283.373-6.67.46-.453.058-.91-.077-1.26-.37-.269-.3-.403-.698-.37-1.1 0-.378.155-.74.43-1 .408-.24.877-.358 1.35-.34 1.54-.053 2.99-.133 4.35-.24 1.36-.107 2.65-.237 3.87-.39 1.22-.16 2.38-.36 3.49-.57 1.11-.21 2.17-.48 3.21-.78.422-.105.86-.129 1.29-.07.37.06.64.36.8.89.168.39.126.838-.11 1.19-.307.329-.709.553-1.15.64-1 .25-2 .49-3 .71-1 .22-2.13.42-3.28.59.16.39.33.79.48 1.18l.44 1.16 6.39-.23c.398-.07.803.066 1.08.36.205.293.313.643.31 1 .03.35-.054.702-.24 1-.25.287-.62.442-1 .42l-5.66.21c.09.4.18.8.26 1.22.08.42.17.81.24 1.21l6.52-.24c.389-.065.785.057 1.07.33.21.29.323.641.32 1 .02.35-.063.698-.24 1-.269.29-.656.442-1.05.41l-6.33.23v1.23c0 .42-.06.82-.11 1.22s-.11.76-.18 1.09c-.059.294-.146.582-.26.86-.335.853-.886 1.605-1.6 2.18-.744.542-1.64.836-2.56.84-1.383-.022-2.746-.336-4-.92-.421-.133-.777-.419-1-.8-.118-.348-.096-.728.06-1.06.124-.38.404-.69.77-.85.49-.09.996-.017 1.44.21.817.361 1.697.558 2.59.58.358-.01.706-.124 1-.33.285-.218.506-.508.64-.84.189-.437.3-.904.33-1.38.078-.637.112-1.278.1-1.92l-10.16.37c-.389.065-.785-.057-1.07-.33-.21-.29-.323-.641-.32-1-.021-.35.062-.698.24-1 .252-.284.621-.435 1-.41l10-.37c-.06-.42-.14-.83-.23-1.23s-.19-.81-.3-1.2l-8.24.3c-.394.066-.795-.06-1.08-.34-.207-.292-.316-.642-.31-1-.03-.35.054-.701.24-1 .255-.312.649-.477 1.05-.44l7.35-.34zM283.6 71.27c-.225.332-.599.534-1 .54-.427-.018-.837-.172-1.17-.44l-.8-.58c-.25-.17-.49-.33-.72-.47-.23-.14-.49-.29-.74-.43l-.84-.44c-.348-.153-.637-.417-.82-.75-.143-.38-.09-.806.14-1.14.25-.46.53-.72.85-.77.41-.042.823.057 1.17.28.63.31 1.2.63 1.71.94.51.31 1.07.69 1.67 1.13.401.24.692.628.81 1.08.085.371-.012.761-.26 1.05h0zm-.27-8c.38.226.668.58.81 1 .087.342.025.706-.17 1-.22.383-.62.627-1.06.65-.457-.044-.888-.233-1.23-.54-.51-.38-1-.71-1.42-1-.42-.29-.94-.56-1.49-.85-.391-.176-.712-.48-.91-.86-.144-.396-.055-.84.23-1.15.21-.3.544-.491.91-.52.428-.012.849.115 1.2.36.327.16.617.31.87.45l.74.45c.24.147.48.307.72.48l.8.53zm.74 11.1c-.39 1.312-.854 2.6-1.39 3.86-.49 1.15-1 2.24-1.59 3.28-.173.443-.543.78-1 .91-.355.059-.719-.036-1-.26-.328-.161-.574-.45-.68-.8-.05-.508.089-1.017.39-1.43.506-.883.953-1.799 1.34-2.74.5-1.193.938-2.411 1.31-3.65.113-.393.343-.742.66-1 .322-.184.707-.224 1.06-.11.396.056.755.264 1 .58.178.461.142.978-.1 1.41v-.05zm15.2 4.63c.024.414.004.83-.06 1.24-.038.29-.14.566-.3.81-.152.212-.36.378-.6.48-.293.135-.602.232-.92.29-.524.068-1.056.068-1.58 0-.572-.045-1.138-.146-1.69-.3-.86-.227-1.24-.657-1.14-1.29.045-.41.242-.787.55-1.06.318-.237.739-.283 1.1-.12.35.12.63.19.83.24.207.051.418.084.63.1.22 0 .36 0 .42-.09.069-.15.093-.317.07-.48l-.12-3.35c-.196.114-.4.214-.61.3-1.019.387-2.057.72-3.11 1-1.07.28-2.16.53-3.26.74-.327.08-.667.097-1 .05-.291-.062-.523-.282-.6-.57-.195 1.221-.53 2.416-1 3.56-.184.611-.577 1.138-1.11 1.49-.417.166-.888.125-1.27-.11-.47-.26-.73-.55-.76-.87.02-.538.179-1.061.46-1.52.26-.509.48-1.037.66-1.58.174-.507.3-1.03.38-1.56.096-.589.152-1.184.17-1.78v-2.23l-.18-4.11c-.082-.623.033-1.256.33-1.81.376-.388.9-.596 1.44-.57l-.15-.35c-.175-.347-.376-.682-.6-1-.21-.31-.48-.68-.8-1.12-.272-.31-.421-.708-.42-1.12.032-.43.261-.821.62-1.06.253-.16.56-.21.85-.14.35.126.657.352.88.65l.51.7c.15.21.28.42.41.62l.38.61.41.67c.26.426.381.922.35 1.42h1.14l-.18-4.67c-.046-.395.099-.789.39-1.06.247-.21.556-.332.88-.35.322-.005.636.101.89.3.295.247.46.615.45 1l.18 4.66h.87c.35-.66.65-1.3.92-1.93.27-.63.51-1.28.74-2 .09-.22.17-.41.25-.57.066-.15.161-.287.28-.4.125-.098.273-.16.43-.18.215-.038.435-.038.65 0 .384.064.696.345.8.72.095.438.057.894-.11 1.31-.19.5-.4 1-.6 1.45-.2.45-.43.93-.68 1.42.336-.004.671.03 1 .1.245.06.469.185.65.36.181.198.309.439.37.7.091.384.141.776.15 1.17l.36 11.19zm-3.58-6.71c-.15.5-.4.79-.75.86-.57.047-1.142-.028-1.68-.22-.79-.23-1.47-.42-2-.56-.53-.14-1.14-.27-1.71-.38l-.87-.19c-.21-.049-.41-.133-.59-.25l.05 1.32c.056.886.056 1.774 0 2.66.307-.194.645-.333 1-.41.84-.18 1.76-.41 2.76-.68 1-.27 2-.56 3-.87.303-.093.615-.157.93-.19.216-.018.43.047.6.18l-.18-4.74c0-.27 0-.45-.13-.51-.215-.088-.45-.116-.68-.08l-6.72.25c-.215-.013-.43.021-.63.1-.07.06-.1.21-.09.46v.55c.176-.132.39-.202.61-.2.336.012.67.052 1 .12.86.16 1.66.33 2.4.49.74.16 1.44.33 2.08.52.322.09.64.197.95.32.204.083.388.21.54.37.12.124.187.288.19.46.008.206-.019.413-.08.61v.01zM324.55 76c.015.223.015.447 0 .67-.019.198-.073.391-.16.57-.091.173-.235.313-.41.4-.228.112-.476.177-.73.19l.71.13.83.17.83.18.73.17c.42.063.81.251 1.12.54.169.258.21.579.11.87-.055.332-.273.613-.58.75-.43.088-.875.06-1.29-.08-.9-.23-1.76-.43-2.59-.59-.83-.16-1.61-.31-2.37-.43-.45-.032-.877-.215-1.21-.52-.185-.3-.229-.665-.12-1l-5.29.2c.058.275.008.561-.14.8-.253.335-.602.587-1 .72-.802.357-1.628.661-2.47.91-.87.25-1.74.46-2.61.62-.46.114-.94.114-1.4 0-.267-.113-.427-.413-.48-.9-.126-.341-.057-.724.18-1 .325-.253.719-.402 1.13-.43l.81-.15 1-.18 1-.21.74-.19c-.583.04-1.164-.115-1.65-.44-.313-.346-.476-.804-.45-1.27l-.2-5.31c-.061.032-.125.058-.19.08l-.2.08c-.433.17-.895.254-1.36.25-.393-.007-.74-.259-.87-.63-.32-.7 0-1.24.89-1.63l.76-.29c.3-.1.6-.21.9-.33l.86-.33c.212-.08.42-.174.62-.28-.877.033-1.75-.123-2.56-.46-.57-.234-.913-.819-.84-1.43l.07-.67c-.005-.562.182-1.109.53-1.55.508-.373 1.13-.557 1.76-.52l3.24-.12v-.86l-4.53.17c-.322.035-.648-.02-.94-.16-.235-.161-.365-.436-.34-.72 0-.7.38-1.07 1.21-1.1l4.52-.17v-.26c-.026-.326.043-.653.2-.94.24-.298.621-.447 1-.39.344-.07.7.03.96.267.259.237.389.584.35.933v.3l2.91-.11v-.37c-.005-.32.101-.63.3-.88.275-.24.637-.356 1-.32.85 0 1.29.35 1.32 1.15v.32l3.14-.11c.591-.072 1.188.081 1.67.43.42.447.638 1.048.6 1.66v.74c.088.513-.088 1.036-.47 1.39-.502.296-1.078.441-1.66.42l-3.14.12v1.08l3.9-.14c.68-.086 1.372.015 2 .29.43.327.665.851.62 1.39.109.8-.084 1.613-.54 2.28-.52.497-1.221.76-1.94.73.006.077.006.153 0 .23.005.077.005.153 0 .23l.21 5.04zm-15.33-9.89c0 .14 0 .21.22.2l2.31-.08c.08-.163.131-.34.15-.52 0-.21.07-.41.11-.58l-2.54.09c-.13 0-.19.08-.2.22l-.05.67zm12.52 5.16c.007-.102-.017-.203-.07-.29-.078-.023-.162-.023-.24 0l-9.91.37c-.106-.008-.212.02-.3.08-.07.075-.1.18-.08.28v.42l10.6-.4v-.46zm.07 1.92l-10.6.39v.71l10.6-.39v-.71zm.08 2.21l-10.6.39v.37c-.008.105.033.208.112.278.078.07.184.1.288.082l9.91-.37c.088.01.176-.02.24-.08 0 0 .05-.14.05-.3v-.37zm-4.11-7.5l-4.39.16c-.101.14-.223.265-.36.37l-.49.38-.53.37c-.18.11-.33.22-.46.31l6.55-.24c-.205-.23-.313-.532-.3-.84l-.02-.51zm-3.26-2.9c-.022.192-.056.382-.1.57-.05.21-.08.38-.11.52l3.4-.12v-1.09l-3.19.12zm.14-2.67v.86l3-.11v-.86l-3 .11zm5.68 5.43v.51c.03.311-.06.622-.25.87l2.1-.08c.08-.62.61-.86 1.6-.71.25.06.36-.1.35-.47 0-.13 0-.2-.08-.22-.076-.015-.154-.015-.23 0l-3.49.1zm-.21-5.63v.85l2.54-.09c.13 0 .19-.1.18-.28v-.23c.009-.073.009-.147 0-.22 0-.09-.07-.13-.13-.12l-2.59.09zM339.33 77.28c.067.72-.09 1.443-.45 2.07-.406.552-1.066.858-1.75.81-.311.007-.622-.013-.93-.06-.382-.054-.757-.148-1.12-.28-.408-.114-.747-.398-.93-.78-.13-.358-.13-.752 0-1.11.107-.368.34-.687.66-.9.428-.146.896-.114 1.3.09.124.055.266.055.39 0 .11-.06.15-.19.15-.39l-.16-4.18c-.168.085-.342.159-.52.22l-.55.19h.05c-.418.222-.906.272-1.36.14-.402-.178-.674-.562-.71-1h0c-.17-.81.26-1.41 1.3-1.81.27-.08.55-.19.84-.3l.86-.38-.2-4.61-1.69.07c-.378.048-.759-.064-1.05-.31-.226-.284-.346-.637-.34-1-.034-.354.058-.708.26-1 .265-.261.628-.399 1-.38l1.68-.07-.1-2.81c-.053-.386.064-.776.32-1.07.281-.232.636-.356 1-.35.37-.06.745.058 1.015.318.269.26.4.63.355 1.002l.1 2.82 1.5-.06c.381-.054.768.06 1.06.31.23.28.348.637.33 1 .033.353-.06.707-.26 1-.262.267-.626.409-1 .39l-1.5.06.11 3.16.42-.29.42-.32c.599-.483 1.469-.427 2 .13.198.296.303.644.3 1-.108.422-.382.783-.76 1h0c-.37.28-.76.55-1.15.82-.39.27-.78.52-1.17.75l.28 6.11zm6-11.7l8.54-.31c.404-.07.814.078 1.08.39.208.291.317.642.31 1 .035.35-.05.703-.24 1-.25.287-.62.442-1 .42l-2.37.09.35 10.24c.061.385-.053.777-.31 1.07-.306.218-.674.33-1.05.32-.355.029-.708-.066-1-.27-.271-.26-.414-.625-.39-1l-.38-10.28-3.42.13c0 1.34 0 2.51-.05 3.53-.048.921-.169 1.837-.36 2.74-.16.767-.401 1.514-.72 2.23-.323.698-.704 1.367-1.14 2-.767 1.02-1.537 1.24-2.31.66-.39-.212-.616-.638-.57-1.08.126-.515.358-.999.68-1.42.359-.505.673-1.04.94-1.6.26-.609.444-1.247.55-1.9.14-.867.216-1.742.23-2.62 0-1 0-2.29-.05-3.81l-.18-4.76c-.075-.684.13-1.37.57-1.9.506-.469 1.17-.73 1.86-.73.69-.06 1.32-.12 1.89-.19.57-.07 1.1-.15 1.61-.24s1-.22 1.49-.35c.49-.13 1-.29 1.53-.48.387-.107.793-.13 1.19-.07.414.094.741.41.85.82.199.404.168.884-.08 1.26-.373.367-.84.623-1.35.74-1.06.3-2.09.55-3.12.74-1.03.19-2.18.35-3.45.47-.14 0-.21.06-.2.15l.07 3.01zM377.74 78.45c-1.308.051-2.617.014-3.92-.11-1.187-.125-2.362-.353-3.51-.68-.942.515-1.952.895-3 1.13-1.41.3-2.84.49-4.28.57-.51.105-1.039 0-1.47-.29-.281-.282-.424-.673-.39-1.07-.05-.413.13-.82.47-1.06.487-.211 1.01-.326 1.54-.34l2-.17c.556-.054 1.107-.148 1.65-.28-.41-.25-.83-.54-1.28-.87-.45-.33-.85-.67-1.24-1-.364-.279-.639-.657-.79-1.09-.112-.348-.08-.726.09-1.05-.415-.065-.761-.353-.9-.75-.159-.58-.24-1.179-.24-1.78l-.18-5c-.028-.443.006-.887.1-1.32.073-.327.24-.626.48-.86.263-.236.584-.398.93-.47.479-.115.968-.179 1.46-.19l4.94-.18-.05-1.34-8.08.3c-.379.058-.763-.056-1.05-.31-.215-.234-.333-.542-.33-.86-.031-.32.054-.639.24-.9.269-.29.657-.437 1.05-.4l19.26-.71c.392-.063.79.059 1.08.33.196.256.304.568.31.89.022.314-.075.624-.27.87-.264.263-.628.401-1 .38l-8.34.31.05 1.34 4.95-.19c.524-.025 1.05-.005 1.57.06.347.037.677.172.95.39.241.217.41.503.48.82.105.44.162.889.17 1.34l.18 5c.024.44.004.883-.06 1.32-.051.314-.194.606-.41.84-.252.243-.567.41-.91.48-.522.115-1.055.175-1.59.18l-5.06.19c-.046.654-.146 1.303-.3 1.94-.136.552-.337 1.086-.6 1.59.813.144 1.635.228 2.46.25h2.84l4.16-.15c.411-.044.825.047 1.18.26.309.266.472.664.44 1.07.055.393-.078.79-.36 1.07-.331.256-.742.387-1.16.37l-4.26.13zm-12.3-14.26c-.098-.006-.195.026-.27.09-.06.103-.081.223-.06.34l.05 1.23 5.12-.19-.06-1.66-4.78.19zm-.15 5.14c-.003.1.018.2.06.29.04.08.14.12.3.12l4.78-.18-.07-1.76-5.12.19.05 1.34zm4.21 5.24c.254-.342.457-.719.6-1.12.167-.46.284-.936.35-1.42l-4.34.16c.51.45 1.07.89 1.69 1.34.536.395 1.105.743 1.7 1.04zm3.56-10.66l.07 1.64 5.21-.19v-1.23c.004-.115-.024-.23-.08-.33-.099-.06-.215-.086-.33-.07l-4.87.18zm.14 3.79l.07 1.75 4.83-.18c.106.012.213-.017.3-.08.06 0 .08-.16.07-.35l-.05-1.34-5.22.2zM391.7 63.24c-.389.234-.836.352-1.29.34-.361-.064-.664-.31-.8-.65-.22-.335-.265-.756-.12-1.13.234-.388.584-.692 1-.87.55-.3 1-.58 1.48-.85.445-.27.872-.567 1.28-.89.415-.34.81-.703 1.18-1.09.435-.452.842-.93 1.22-1.43.251-.389.63-.679 1.07-.82.396-.075.805.036 1.11.3.239.156.427.378.54.64.064.3-.013.614-.21.85l7.07-.26c.404-.01.806.065 1.18.22.31.13.575.35.76.63.18.3.25.654.2 1-.07.47-.248.92-.52 1.31-.528.803-1.168 1.527-1.9 2.15-.874.776-1.81 1.478-2.8 2.1.081.047.158.1.23.16.077.077.16.148.25.21.125.149.236.31.33.48.066.177.066.373 0 .55l4.64-.19c.563-.05 1.13.04 1.65.26.373.168.682.452.88.81.175.367.235.779.17 1.18-.076.48-.231.942-.46 1.37-.606 1.166-1.392 2.23-2.33 3.15-1.041.995-2.224 1.83-3.51 2.48-1.56.785-3.2 1.402-4.89 1.84-2.13.557-4.295.97-6.48 1.24-.464.093-.946.04-1.38-.15-.306-.238-.471-.614-.44-1-.014-.192.006-.385.06-.57.046-.148.132-.28.25-.38.143-.12.31-.209.49-.26.25-.083.508-.14.77-.17 1.52-.188 3.028-.455 4.52-.8 1.237-.298 2.459-.659 3.66-1.08-1.03-.909-2.112-1.757-3.24-2.54-.491.286-.999.544-1.52.77-.533.24-1.103.47-1.71.69h0c-.395.18-.827.258-1.26.23-.357-.093-.643-.36-.76-.71-.162-.38-.162-.81 0-1.19.256-.383.65-.652 1.1-.75 1.379-.407 2.694-1.003 3.91-1.77 1.19-.782 2.27-1.72 3.21-2.79-1.556.851-3.182 1.567-4.86 2.14-1.618.56-3.296.93-5 1.1-.458.095-.933.057-1.37-.11-.262-.229-.409-.562-.4-.91-.088-.38 0-.781.24-1.09.362-.253.789-.398 1.23-.42 1.285-.174 2.558-.43 3.81-.77 1.192-.327 2.364-.725 3.51-1.19-.55-.43-1.12-.84-1.7-1.22-.58-.38-1.26-.82-2.07-1.28-.627.432-1.29.81-1.98 1.13zm11.57-2.41c.3-.32.42-.57.39-.75-.03-.18-.29-.25-.75-.23l-6.91.25-.23.24 1 .66c.33.21.67.44 1 .68.33.24.68.48 1.05.76l1.16.87c.637-.354 1.248-.751 1.83-1.19.523-.387 1.012-.818 1.46-1.29h0zm4 8.15c.076-.112.076-.258 0-.37-.078-.12-.218-.186-.36-.17l-6 .22c-.386.396-.797.767-1.23 1.11.6.46 1.18.92 1.74 1.38l1.81 1.54c.858-.46 1.655-1.029 2.37-1.69.635-.587 1.184-1.26 1.63-2l.04-.02z" transform="translate(56 75)"/>
            <path fill="#FFF" d="M107.77 39.4c.037.71.014 1.423-.07 2.13-.056.5-.25.974-.56 1.37-.33.382-.77.65-1.26.77-.719.185-1.458.282-2.2.29l-23.88.89c-.733.044-1.468 0-2.19-.13-.494-.085-.949-.323-1.3-.68-.34-.369-.569-.827-.66-1.32-.138-.699-.215-1.408-.23-2.12l-.91-24.46c-.037-.745-.007-1.49.09-2.23.063-.5.272-.969.6-1.35.344-.353.787-.594 1.27-.69.69-.152 1.393-.236 2.1-.25l23.88-.88c.739-.046 1.48-.005 2.21.12.495.087.954.316 1.32.66.34.369.569.827.66 1.32.136.696.213 1.401.23 2.11l.9 24.45zm-5.45-22.95c0-.77-.38-1.13-1.06-1.11l-21.19.79c-.64 0-.94.41-.91 1.17L80 39.06c-.034.352.054.705.25 1 .213.165.483.237.75.2l21.19-.78c.3.02.59-.107.78-.34.164-.277.234-.6.2-.92l-.85-21.77zM99.85 31.9c.037.71.014 1.423-.07 2.13-.056.5-.25.974-.56 1.37-.328.374-.76.642-1.24.77-.712.185-1.444.283-2.18.29l-8.92.33c-.709.042-1.42.006-2.12-.11-.484-.076-.936-.291-1.3-.62-.345-.363-.578-.818-.67-1.31-.158-.726-.242-1.467-.25-2.21l-.33-8.89c-.048-.734-.018-1.472.09-2.2.06-.498.257-.969.57-1.36.334-.359.77-.607 1.25-.71.69-.152 1.393-.236 2.1-.25l8.93-.33c.726-.042 1.454.002 2.17.13 1.043.136 1.864.957 2 2 .138.699.215 1.408.23 2.12l.3 8.85zM95 24.32c.013-.268-.064-.532-.22-.75-.13-.15-.41-.21-.84-.2l-6.08.23c-.43 0-.7.11-.82.29-.13.22-.189.475-.17.73l.25 6.61c-.038.286.05.574.24.79.248.143.536.2.82.16l6.05-.18c.43 0 .7-.1.82-.27.136-.225.192-.49.16-.75L95 24.32zM125 18.27c-.323.022-.645-.048-.93-.2-.278-.176-.478-.451-.56-.77-.26.38-.53.76-.79 1.11-.26.35-.53.7-.8 1-.303.407-.721.713-1.2.88-.465.1-.95-.038-1.29-.37-.94-.73-.9-1.75.11-3.05.44-.5.85-1 1.24-1.55s.76-1.1 1.12-1.69c.36-.59.71-1.24 1.07-1.92.36-.68.72-1.45 1.09-2.27v.08c.141-.416.398-.784.74-1.06.313-.253.698-.4 1.1-.42.34-.009.678.042 1 .15.373.166.712.4 1 .69 1.13 1.1 2.09 2.09 2.89 3 .8.91 1.48 1.73 2.06 2.49.307.415.481.914.5 1.43-.015.527-.238 1.026-.62 1.39-.291.407-.75.66-1.25.69-.42 0-.85-.32-1.31-.94 0 0-.05.08-.08.31-.04.244-.186.457-.4.58-.259.176-.567.267-.88.26l-3.81.18zm8.1 19.7c.306.48.485 1.031.52 1.6-.083.56-.414 1.051-.9 1.34-1 .7-1.82.38-2.55-.93l-.14-.26-.14-.26c-.92.54-1.82 1-2.69 1.46-.87.46-1.63.85-2.27 1.23-.482.236-.993.407-1.52.51-.348.085-.716.008-1-.21-.298-.292-.497-.67-.57-1.08-.16-.689-.245-1.393-.25-2.1L121 22.79c-.099-.924.128-1.854.64-2.63.695-.704 1.663-1.07 2.65-1l5.35-.2c.878-.128 1.768.14 2.43.73.549.771.823 1.704.78 2.65l.23 6.19c.107.947-.1 1.902-.59 2.72-.585.687-1.46 1.058-2.36 1l-5.24.2.17 4.55c-.016.26.032.522.14.76.08.1.27.06.57-.1l.63-.33.51-.24.5-.25.67-.33-.08-.17-.08-.16c-.43-.527-.676-1.18-.7-1.86.104-.437.368-.819.74-1.07.327-.353.803-.528 1.28-.47.457.145.854.437 1.13.83.54.79 1 1.56 1.51 2.29s.9 1.43 1.28 2.1l-.06-.03zm-8.53-13.6l5-.19v-.3c.026-.457-.07-.913-.28-1.32-.16-.2-.53-.29-1.11-.27l-2.39.09c-.374-.034-.743.106-1 .38-.169.411-.23.858-.18 1.3l-.04.31zm3.83 4.8c.362.015.718-.102 1-.33.233-.409.315-.887.23-1.35v-.23l-5 .18.07 1.86 3.7-.13zM127.14 13c-.58-.59-1-.6-1.22 0-.136.34-.29.675-.46 1-.16.34-.34.67-.53 1l3.84-.14c-.27-.35-.53-.67-.8-1-.27-.33-.54-.59-.83-.86zm13.92-3L141 8.78c0-.74.12-1.22.43-1.45.823-.46 1.818-.494 2.67-.09.37.2.56.67.59 1.4v1.18l4.82-.18c.743-.093 1.495.073 2.13.47.54.539.811 1.29.74 2.05l.1 2.5c.099.72-.116 1.449-.59 2-.607.437-1.343.66-2.09.63l-4.82.18v1.25l8.17-.3c.47-.055.946.04 1.36.27.354.34.535.821.49 1.31.064.447-.063.9-.35 1.25-.38.291-.852.437-1.33.41l-18.76.69c-.486.072-.982-.009-1.42-.23-.3-.363-.441-.832-.39-1.3-.086-.461.018-.938.29-1.32.42-.255.91-.373 1.4-.34l6.91-.25v-1.26l-4.63.18c-.755.098-1.52-.083-2.15-.51-.484-.55-.729-1.27-.68-2l-.09-2.43c-.116-.743.076-1.5.53-2.1.604-.452 1.348-.675 2.1-.63l4.63-.16zm.7 28.31c.328.5.416 1.12.24 1.69-.264.662-.777 1.194-1.43 1.48-.8.43-1.56.8-2.3 1.11-.74.31-1.69.66-2.87 1-.514.251-1.105.294-1.65.12-.377-.281-.65-.678-.78-1.13-.242-.537-.177-1.164.17-1.64.362-.46.876-.775 1.45-.89.47-.14.91-.29 1.31-.45l1.13-.44c.347-.14.68-.29 1-.45l1.11-.54h-.31c-.717.044-1.437.02-2.15-.07-.442-.046-.86-.224-1.2-.51-.29-.286-.483-.657-.55-1.06-.104-.588-.164-1.183-.18-1.78l-.3-8.13c-.024-.514-.004-1.03.06-1.54.04-.364.178-.71.4-1 .214-.269.503-.467.83-.57.443-.125.9-.193 1.36-.2l12.42-.46c.903-.141 1.826.078 2.57.61.547.744.81 1.66.74 2.58l.3 8.05c.132.95-.08 1.914-.6 2.72-.721.628-1.654.96-2.61.93.46.19.87.35 1.21.47l1 .35.9.32 1 .42c.546.216 1.033.559 1.42 1 .27.41.353.915.23 1.39-.04.524-.367.983-.85 1.19-.633.177-1.311.102-1.89-.21-1-.42-1.79-.75-2.42-1-.63-.25-1.33-.5-2.1-.83-.66-.222-1.263-.584-1.77-1.06-.286-.408-.313-.945-.07-1.38.04-.101.073-.205.1-.31.028-.08.065-.157.11-.23l-5.17.19c.025.018.046.042.06.07l.08.19zm-4.7-24.36c-.008.206.04.41.14.59.08.113.27.163.57.15l3.46-.13-.06-1.4-3.45.12c-.46-.03-.72.19-.66.62v.05zm12 12.41c.01-.088-.02-.176-.08-.24-.128-.035-.262-.035-.39 0l-9.79.36c-.21 0-.32 0-.34.11-.013.093-.013.187 0 .28v.84l10.63-.39-.03-.96zm.13 3.5l-10.63.39v1.1l10.63-.39v-1.1zm.14 3.68l-10.64.39v1c0 .133.04.193.12.18h.23l9.95-.37c.095.007.188-.03.253-.1.064-.07.093-.166.077-.26l.01-.84zM144.86 13v1.4l3.68-.13c.207.017.41-.065.547-.22.138-.156.195-.367.153-.57 0-.43-.27-.64-.75-.62l-3.63.14zM178.39 20c.626-.058 1.252.105 1.77.46.404.44.616 1.023.59 1.62.082.585-.089 1.178-.47 1.63-.493.382-1.107.574-1.73.54l-8.05.3.38 10.37c-.014.418-.216.807-.55 1.06-.54.413-1.211.618-1.89.58-.666.096-1.344-.06-1.9-.44-.327-.237-.541-.599-.59-1l-.86-23.2c-.093-.608.107-1.223.54-1.66.532-.363 1.166-.545 1.81-.52l11.73-.44c.59-.067 1.182.083 1.67.42.438.427.674 1.02.65 1.63.111.597-.071 1.21-.49 1.65-.492.362-1.09.552-1.7.54l-9.19.34.24 6.42 8.04-.3zM191.8 10.43c.006-.498.19-.977.52-1.35.496-.496 1.18-.754 1.88-.71.686-.1 1.382.093 1.92.53.372.354.594.837.62 1.35l.52 14.05c.027.97.15 1.935.37 2.88.187.782.527 1.52 1 2.17.449.603 1.059 1.068 1.76 1.34.886.324 1.83.457 2.77.39.924-.001 1.838-.2 2.68-.58.666-.315 1.233-.806 1.64-1.42.415-.675.677-1.433.77-2.22.127-.995.167-1.998.12-3l-.52-14c-.012-.494.159-.975.48-1.35.5-.508 1.199-.77 1.91-.72.69-.09 1.387.104 1.93.54.372.354.594.837.62 1.35l.6 16.4c.086 1.374-.169 2.748-.74 4-.544 1.122-1.317 2.116-2.27 2.92-.97.805-2.082 1.419-3.28 1.81-1.24.418-2.533.654-3.84.7-1.29.044-2.579-.094-3.83-.41-1.23-.306-2.394-.839-3.43-1.57-1.024-.716-1.884-1.644-2.52-2.72-.695-1.22-1.067-2.596-1.08-4l-.6-16.38zM229.88 32.33c.011.513-.175 1.01-.52 1.39-.505.478-1.186.725-1.88.68-.692.09-1.39-.116-1.92-.57-.358-.348-.578-.813-.62-1.31l-.87-23.47c-.016-.441.103-.877.34-1.25.24-.38.81-.58 1.72-.62.457-.03.908.116 1.26.41.304.276.588.574.85.89l12.59 15.69-.57-15.53c-.001-.5.184-.98.52-1.35.49-.499 1.172-.761 1.87-.72.69-.09 1.387.104 1.93.54.372.354.594.837.62 1.35l.87 23.54c.015.423-.104.84-.34 1.19-.24.36-.8.56-1.69.6-.466.024-.924-.121-1.29-.41-.323-.265-.621-.56-.89-.88l-12.54-15.17.56 15zM263.52 12.57v5.1c0 1.58-.12 3.11-.24 4.61-.12 1.5-.31 3-.54 4.48-.23 1.48-.54 3.06-.91 4.7-.12.488-.288.964-.5 1.42-.136.312-.358.579-.64.77-.266.154-.575.217-.88.18-.414-.038-.821-.132-1.21-.28-.601-.139-1.095-.566-1.32-1.14-.134-.803-.093-1.625.12-2.41.3-1.38.56-2.74.78-4.08.22-1.34.4-2.7.53-4.1.13-1.4.23-2.86.26-4.37.03-1.51 0-3.12-.05-4.85-.106-.773.034-1.56.4-2.25.445-.488 1.08-.762 1.74-.75.667-.115 1.35.093 1.84.56.513.692.736 1.557.62 2.41zm22.81 14.06c0 .36.06.7.07 1 .01.3 0 .63 0 .91.08 1.369-.032 2.742-.33 4.08-.24 1.065-.778 2.04-1.55 2.81-.883.821-1.96 1.406-3.13 1.7-1.671.424-3.386.653-5.11.68-1.632.084-3.267.03-4.89-.16-1.094-.106-2.145-.48-3.06-1.09-.773-.558-1.345-1.35-1.63-2.26-.365-1.207-.557-2.46-.57-3.72l-.78-21.15c-.08-.621.07-1.25.42-1.77.46-.417 1.07-.63 1.69-.59.64-.087 1.29.078 1.81.46.415.477.627 1.098.59 1.73l.77 20.81c.01.574.09 1.145.24 1.7.115.43.405.794.8 1 .536.265 1.123.411 1.72.43 1 .057 2 .057 3 0 1.007-.01 2.01-.11 3-.3.612-.097 1.187-.352 1.67-.74.393-.371.647-.865.72-1.4.116-.754.153-1.518.11-2.28v-.67c0-.21 0-.46-.06-.74-.114-.636-.02-1.292.27-1.87.43-.499 1.062-.775 1.72-.75.598-.093 1.208.042 1.71.38.524.449.818 1.11.8 1.8zm-6.22-4.52c.247.877.187 1.812-.17 2.65-.457.55-1.158.839-1.87.77-.635.116-1.286-.081-1.75-.53-.384-.604-.624-1.288-.7-2-.27-1.69-.54-3.25-.82-4.69-.28-1.44-.59-2.81-.93-4.14-.34-1.33-.74-2.66-1.18-4-.44-1.34-.95-2.71-1.54-4.19-.336-.61-.462-1.312-.36-2 .265-.52.72-.917 1.27-1.11.562-.284 1.206-.362 1.82-.22.51.16 1 .7 1.35 1.63.62 1.6 1.17 3.1 1.65 4.52.48 1.42.92 2.82 1.32 4.23.4 1.41.74 2.85 1.05 4.33.31 1.48.6 3.1.87 4.84l-.01-.09zm12.52 6.34c.312 1.004.284 2.083-.08 3.07-.427.609-1.117.98-1.86 1-.647.173-1.337-.027-1.79-.52-.445-.79-.718-1.666-.8-2.57-.495-3.16-1.163-6.292-2-9.38-.802-2.893-1.75-5.743-2.84-8.54-.19-.463-.34-.942-.45-1.43-.083-.328-.083-.672 0-1 .063-.25.203-.474.4-.64.244-.18.509-.328.79-.44.61-.394 1.372-.472 2.05-.21.733.49 1.251 1.241 1.45 2.1.593 1.553 1.127 3.033 1.6 4.44.49 1.42.93 2.85 1.34 4.31.41 1.46.8 3 1.16 4.58.36 1.58.68 3.32 1.03 5.23zM337.44 8.2c-.082.52-.425.963-.91 1.17-.802.132-1.624.074-2.4-.17-.8-.18-1.56-.37-2.31-.57-.75-.2-1.48-.42-2.23-.67-.07.86-.59 1.31-1.58 1.35l-16.18.6c-.414.05-.834-.03-1.2-.23-.296-.25-.47-.613-.48-1-.8.3-1.59.59-2.38.86-.79.27-1.57.51-2.35.72-.865.326-1.803.405-2.71.23-.508-.2-.868-.659-.94-1.2-.138-.554-.013-1.14.34-1.59.661-.5 1.446-.811 2.27-.9 2.115-.482 4.183-1.151 6.18-2 2.207-.927 4.334-2.034 6.36-3.31.394-.272.812-.506 1.25-.7.365-.156.754-.247 1.15-.27.417-.01.834.034 1.24.13.483.124.945.32 1.37.58 1.99 1.03 4.056 1.907 6.18 2.62 2.28.765 4.6 1.402 6.95 1.91.798.047 1.553.376 2.13.93.314.437.406.995.25 1.51zm-30.55 19.12c-.52.061-1.046-.048-1.5-.31-.336-.28-.52-.703-.5-1.14-.07-.451.066-.91.37-1.25.453-.276.98-.409 1.51-.38l11.55-.43c-.14-.17-.29-.34-.46-.51l-.53-.55L313 23c-1.52.07-3.13.14-4.82.2-.626.035-1.252-.085-1.82-.35-.378-.276-.577-.735-.52-1.2-.022-.473.17-.932.52-1.25.622-.384 1.353-.553 2.08-.48 4.96-.08 9.263-.257 12.91-.53 3.63-.28 6.82-.64 9.54-1.1.827-.226 1.69-.284 2.54-.17.534.095.942.53 1 1.07.03.252.03.508 0 .76-.034.241-.155.462-.34.62-.258.215-.558.375-.88.47-.523.158-1.058.271-1.6.34-1.29.2-2.67.39-4.16.56-1.49.17-3.12.32-4.89.46l.54.61c.17.21.33.42.49.65l10.11-.38c.532-.082 1.077.013 1.55.27.294.335.438.776.4 1.22.057.426-.078.855-.37 1.17-.43.3-.947.449-1.47.42l-8.62.32c.06.2.11.39.17.56.06.17.12.35.17.53l10.6-.39c.504-.06 1.014.038 1.46.28.617.676.668 1.696.12 2.43-.419.316-.936.472-1.46.44l-10.45.38c.01 2.406-1.52 4.55-3.8 5.32-1.366.477-2.804.713-4.25.7-1.888.008-3.772-.156-5.63-.49-1-.17-1.69-.53-1.94-1.11-.249-.595-.204-1.272.12-1.83.229-.505.68-.875 1.22-1 .778-.131 1.577-.077 2.33.16 1.529.443 3.143.501 4.7.17.935-.24 1.704-.901 2.08-1.79l-16.22.6c-.515.06-1.035-.042-1.49-.29-.35-.297-.535-.743-.5-1.2-.068-.457.067-.921.37-1.27.447-.292.977-.432 1.51-.4l16.29-.6-.17-.54c-.06-.16-.12-.35-.18-.55l-13.35.53zm27.17-12.72c0 1.19-.2 2-.73 2.36-.806.466-1.73.692-2.66.65l-21.34.79c-.918.111-1.849-.045-2.68-.45-.646-.585-.974-1.443-.88-2.31v-1.36c-.15-.852.113-1.724.71-2.35.796-.476 1.714-.709 2.64-.67l21.34-.79c.926-.105 1.864.058 2.7.47.653.572.989 1.426.9 2.29v1.37zm-4.18-.84c.016-.129-.028-.258-.12-.35-.155-.076-.33-.104-.5-.08l-18.8.7c-.433 0-.643.16-.63.48v.64c-.011.114.033.226.12.3.173.063.358.084.54.06l18.79-.7c.41 0 .61-.15.6-.4v-.65zm-11.33-9.39c-1.44.92-2.88 1.74-4.32 2.48l11-.41c-.8-.3-1.6-.62-2.41-1s-1.66-.73-2.54-1.13l-.56-.26c-.12-.051-.25-.078-.38-.08-.125.004-.248.034-.36.09-.152.09-.296.194-.43.31zM1.5 90c.403-.727.738-1.49 1-2.28.324-.98.575-1.983.75-3 .22-1.261.377-2.533.47-3.81.11-1.42.18-3 .2-4.82l-2 .08c-.236.023-.474.023-.71 0-.157-.029-.303-.101-.42-.21-.112-.12-.188-.269-.22-.43-.057-.226-.087-.457-.09-.69-.06-.385.029-.779.25-1.1.322-.212.705-.314 1.09-.29l2.06-.08v-.69-.72c-.038-.371.057-.744.27-1.05.26-.272.624-.421 1-.41.91 0 1.36.42 1.37 1.36v1.42h1.23c.626-.043 1.254-.043 1.88 0 .39.026.758.181 1.05.44.272.307.44.692.48 1.1.08.5.15 1.17.21 2 .06.83.08 1.6.12 2.58.04.98.07 2 .1 3s0 2 .05 2.85c.05.85 0 1.61 0 2.15-.02.805-.138 1.604-.35 2.38-.154.572-.423 1.106-.79 1.57-.315.388-.73.682-1.2.85-.51.184-1.049.269-1.59.25-.333.032-.667.032-1 0-.247-.077-.485-.181-.71-.31-.478-.102-.908-.363-1.22-.74-.162-.352-.162-.758 0-1.11.084-.384.313-.721.64-.94.48-.132.99-.09 1.44.12.278.104.573.158.87.16.24.007.472-.08.65-.24.209-.213.354-.48.42-.77.121-.467.188-.947.2-1.43v-2.07-2.83c0-1-.07-2-.11-3-.04-1-.09-1.78-.13-2.44-.01-.27-.064-.537-.16-.79-.07-.12-.25-.17-.54-.16l-1.5.1c0 1.79-.1 3.42-.21 4.9-.11 1.48-.28 2.83-.5 4.07-.192 1.156-.46 2.299-.8 3.42-.295.989-.67 1.952-1.12 2.88-.185.521-.537.967-1 1.27-.4.131-.838.065-1.18-.18-.376-.168-.653-.5-.75-.9.023-.525.196-1.032.5-1.46zm20.18-1.1c.023.44.006.882-.05 1.32-.03.3-.149.586-.34.82-.194.223-.452.38-.74.45-.41.1-.829.154-1.25.16l-3.21.12c-.422.025-.845-.002-1.26-.08-.287-.056-.551-.195-.76-.4-.199-.226-.33-.503-.38-.8-.087-.425-.134-.857-.14-1.29L13 74.6c-.038-.443-.038-.887 0-1.33.028-.301.147-.587.34-.82.198-.212.456-.359.74-.42.404-.092.816-.143 1.23-.15l3.21-.12c.425-.025.852.002 1.27.08.29.054.559.193.77.4.21.211.361.473.44.76.08.419.128.844.14 1.27l.54 14.63zm-5.47-.23c-.014.104.015.208.08.29.099.06.216.082.33.06l2-.07c.112.004.223-.024.32-.08.052-.102.07-.217.05-.33l-.5-13.7c.003-.095-.021-.189-.07-.27-.087-.051-.19-.073-.29-.06l-2.06.08c-.17 0-.27 0-.32.09-.048.089-.069.19-.06.29l.52 13.7zM29.27 73.56c-.27.033-.537-.082-.7-.3-.168-.273-.252-.59-.24-.91-.04-.34.009-.684.14-1 .162-.228.432-.353.71-.33l6.07-.22c.278-.015.55.086.75.28.24.276.363.635.34 1 .04.334-.058.67-.27.93-.184.204-.445.324-.72.33l-2.35.08c-.1.59-.21 1.13-.34 1.61-.13.48-.23 1-.33 1.49l1.67-.06c.483-.078.97.114 1.27.5.291.543.433 1.154.41 1.77l.32 9.33c.068.617-.025 1.24-.27 1.81-.268.4-.73.625-1.21.59l-2.71.09c-.493.095-.998-.085-1.32-.47-.275-.559-.406-1.178-.38-1.8L30 83.46c-.149.207-.383.336-.638.35-.255.013-.502-.09-.672-.28-.292-.226-.468-.57-.48-.94.021-.441.123-.875.3-1.28.26-.607.5-1.207.72-1.8.23-.6.44-1.21.64-1.84.2-.63.38-1.29.55-2 .17-.71.33-1.41.49-2.19l-1.64.08zm4.34 6.06c.008-.154-.019-.308-.08-.45-.05-.07-.15-.1-.31-.09h-1c-.124-.014-.248.026-.34.11-.072.142-.096.303-.07.46l.28 7.71c-.01.164.028.328.11.47.097.081.226.114.35.09h1c.113.007.223-.037.3-.12.036-.158.036-.322 0-.48l-.24-7.7zm5.75 4.62c-.06.87-.16 1.69-.29 2.47-.129.757-.316 1.502-.56 2.23-.099.365-.304.692-.59.94-.26.139-.57.139-.83 0-.41-.12-.64-.32-.7-.6-.055-.339-.01-.686.13-1 .126-.327.233-.66.32-1 .09-.33.17-.65.24-1 .078-.33.135-.663.17-1 0-.36.07-.74.09-1.16-.011-.349.071-.694.24-1 .179-.257.492-.386.8-.33.327-.005.638.143.84.4.153.328.202.694.14 1.05zm5.56-12.07v1.13l2.74-.1c.305-.039.613.032.87.2.202.207.304.492.28.78.04.272-.045.547-.23.75-.247.168-.542.249-.84.23l-2.74.11v1.1l2.77-.1c.291-.03.586.008.86.11.17.08.27.37.29.84.032.274-.052.55-.23.76-.244.184-.545.276-.85.26l-2.77.1.05 1.22 2.1-.08c.446-.027.894-.027 1.34 0 .309.018.607.122.86.3.23.185.393.442.46.73.119.44.186.894.2 1.35v3.33c0 .62 0 1.2-.06 1.76S50 88 50 88.31c.018 1.376-1.055 2.52-2.43 2.59l-.76.06h-.62c-.206.015-.414.015-.62 0-.21 0-.43-.07-.68-.13-.4-.02-.77-.222-1-.55-.154-.311-.18-.67-.07-1 .05-.341.274-.632.59-.77.327-.09.673-.09 1 0 .42.09.77.16 1.06.2.231.046.469.046.7 0 .165-.051.302-.167.38-.32.084-.214.135-.44.15-.67.07-.84.11-1.73.12-2.68.01-.95 0-1.84 0-2.67.009-.193-.03-.385-.11-.56-.06-.11-.21-.17-.44-.16l-7.65.29h-1.09c-.235-.008-.462-.089-.65-.23-.18-.17-.296-.395-.33-.64-.063-.404-.1-.811-.11-1.22l-.27-7.36c-.025-.364-.005-.73.06-1.09.042-.243.153-.469.32-.65.18-.166.4-.28.64-.33.33-.068.664-.108 1-.12l9.33-.34c.307-.075.632.01.863.225.232.215.34.533.287.845.052.308-.027.624-.22.87-.244.183-.546.271-.85.25l-3.68.02zm-5.24.2c-.17 0-.27 0-.3.1-.022.13-.022.26 0 .39v.65l3.44-.13v-1.13l-3.14.12zm-.19 4.21l3.44-.12v-1.11l-3.44.12v1.11zm.11 2.87c-.021.097.012.198.088.262.075.065.18.083.272.048l3.09-.12v-1.22l-3.44.12-.01.91zm2.93 8c.047.29.016.587-.09.86-.126.246-.34.435-.6.53-.44.19-.76.17-1-.06-.24-.281-.383-.632-.41-1-.1-.69-.21-1.34-.31-1.94-.111-.596-.261-1.184-.45-1.76-.125-.286-.17-.6-.13-.91.084-.294.297-.533.58-.65.262-.194.611-.221.9-.07.25.182.424.448.49.75.18.65.35 1.33.52 2 .17.67.31 1.43.45 2.14l.05.11zm2.56-.81c.091.3.091.62 0 .92-.124.273-.356.483-.64.58-.292.116-.622.078-.88-.1-.223-.259-.372-.573-.43-.91-.15-.64-.3-1.23-.46-1.75-.16-.52-.33-1.06-.52-1.59-.147-.312-.18-.667-.09-1 .072-.262.265-.474.52-.57.28-.155.62-.155.9 0 .211.157.366.378.44.63.24.66.44 1.28.61 1.88l.55 1.91zm2.52-.51c.09.3.09.62 0 .92-.11.209-.291.372-.51.46-.257.13-.553.16-.83.08-.2-.09-.36-.35-.46-.79-.19-.71-.36-1.33-.53-1.88-.17-.55-.35-1.08-.55-1.6-.118-.213-.16-.46-.12-.7.043-.249.208-.46.44-.56.243-.157.542-.2.82-.12.295.133.508.402.57.72.23.57.45 1.13.64 1.67.203.583.37 1.177.5 1.78l.03.02zM77.05 86.62c.033.43.033.86 0 1.29-.039.305-.156.594-.34.84-.205.227-.473.388-.77.46-.438.114-.888.175-1.34.18l-14.6.54c-.448.026-.898-.001-1.34-.08-.298-.056-.573-.199-.79-.41-.203-.23-.341-.51-.4-.81-.082-.425-.13-.857-.14-1.29l-.55-14.87c-.025-.45-.005-.903.06-1.35.03-.307.156-.598.36-.83.21-.213.478-.359.77-.42.42-.092.85-.142 1.28-.15l14.52-.54c.452-.026.905.001 1.35.08.302.048.581.187.8.4.209.222.348.5.4.8.08.422.127.85.14 1.28l.59 14.88zm-3.32-14c0-.46-.23-.68-.64-.67l-12.89.48c-.39 0-.57.25-.55.72l.49 13.23c-.02.208.032.417.15.59.124.106.288.153.45.13l12.89-.48c.182.01.359-.064.48-.2.09-.172.129-.367.11-.56l-.49-13.24zm-1.5 9.4c.038.432.038.868 0 1.3-.032.303-.15.591-.34.83-.2.23-.465.394-.76.47-.43.114-.874.175-1.32.18l-5.43.2c-.442.048-.888.048-1.33 0-.293-.043-.565-.176-.78-.38-.21-.218-.353-.492-.41-.79-.101-.443-.155-.896-.16-1.35L61.5 77c-.026-.448-.005-.897.06-1.34.034-.305.155-.593.35-.83.202-.22.468-.37.76-.43.417-.091.843-.141 1.27-.15l5.43-.2c.442-.03.885-.003 1.32.08.302.048.581.187.8.4.212.215.352.491.4.79.08.439.116.884.11 1.33l.23 5.37zm-3-4.6c.014-.164-.032-.327-.13-.46-.146-.109-.33-.152-.51-.12l-3.7.13c-.26 0-.43.07-.5.19-.08.132-.115.286-.1.44l.15 4c-.013.173.04.345.15.48.152.086.328.117.5.09l3.69-.13c.183.018.366-.044.5-.17.086-.137.122-.3.1-.46l-.15-3.99zM87.54 73.76c-.193.014-.387-.024-.56-.11-.173-.11-.297-.282-.35-.48-.16.24-.32.46-.48.68l-.48.63c-.187.25-.445.438-.74.54-.282.06-.576-.026-.78-.23-.57-.44-.55-1.06.07-1.85.27-.31.52-.62.75-.94.23-.32.46-.67.68-1 .22-.33.44-.75.65-1.16.21-.41.44-.88.67-1.38.093-.248.248-.469.45-.64.19-.155.425-.243.67-.25.21-.01.421.02.62.09.233.097.443.24.62.42.69.67 1.28 1.27 1.76 1.82s.9 1 1.26 1.51c.179.257.282.558.3.87-.01.32-.147.622-.38.84-.174.252-.454.41-.76.43-.339-.052-.636-.254-.81-.55v.19c-.025.149-.112.28-.24.36-.161.104-.348.16-.54.16l-2.38.05zm4.93 12c.19.3.297.645.31 1-.052.339-.254.636-.55.81-.58.43-1.1.24-1.55-.56l-.08-.16-.09-.16c-.56.33-1.1.63-1.63.89-.53.26-1 .52-1.38.75-.297.14-.609.244-.93.31-.213.05-.436.002-.61-.13-.18-.179-.3-.41-.34-.66-.092-.418-.146-.843-.16-1.27l-.37-10c-.055-.563.087-1.129.4-1.6.417-.43 1.004-.65 1.6-.6l3.26-.12c.531-.08 1.07.081 1.47.44.339.47.508 1.041.48 1.62l.14 3.68c.07.575-.058 1.156-.36 1.65-.357.41-.887.63-1.43.59l-3.19.12.1 2.77c-.011.159.02.317.09.46 0 .06.16 0 .35-.06l.38-.2.31-.15L89 85l.4-.2-.05-.1c.005-.033.005-.067 0-.1-.26-.32-.408-.717-.42-1.13.06-.27.22-.506.45-.66.2-.212.49-.316.78-.28.281.086.525.266.69.51.32.48.63.94.91 1.39.28.45.55.87.78 1.27l-.07.06zm-5.19-8.28l3-.11v-.18c.017-.28-.041-.56-.17-.81-.1-.12-.32-.17-.68-.16l-1.43.05c-.231-.025-.461.06-.62.23-.1.25-.138.522-.11.79l.01.19zm2.33 2.92c.227.02.452-.049.63-.19.14-.253.189-.545.14-.83v-.14l-3 .11v1.13l2.23-.08zm-.78-9.84c-.35-.36-.6-.37-.74 0s-.18.43-.28.63c-.1.2-.21.41-.32.62l2.33-.09c-.16-.21-.33-.41-.49-.6-.16-.19-.33-.39-.5-.57v.01zm8.46-1.84V68c-.064-.316.03-.644.25-.88.247-.15.531-.227.82-.22.28-.025.56.03.81.16.22.13.34.41.36.86v.71l2.94-.1c.45-.055.904.043 1.29.28.326.33.491.787.45 1.25l.06 1.52c.066.443-.066.892-.36 1.23-.368.267-.816.401-1.27.38l-2.93.11v.76l5-.18c.287-.038.578.018.83.16.195.207.294.487.27.77.034.273-.045.548-.22.76-.232.177-.519.265-.81.25l-11.41.42c-.294.045-.595-.004-.86-.14-.179-.223-.265-.506-.24-.79-.045-.283.02-.573.18-.81.257-.149.553-.219.85-.2l4.21-.16v-.76l-2.82.11c-.46.063-.927-.048-1.31-.31-.293-.34-.44-.782-.41-1.23l-.06-1.47c-.067-.454.052-.915.33-1.28.367-.277.822-.411 1.28-.38l2.77-.1zm.43 17.21c.197.294.255.66.16 1-.16.403-.472.727-.87.9-.454.248-.922.472-1.4.67-.45.19-1 .4-1.74.65-.313.146-.67.17-1 .07-.227-.173-.392-.415-.47-.69-.149-.327-.11-.709.1-1 .219-.28.531-.471.88-.54l.8-.27.68-.27.63-.28.67-.32H96c-.432.04-.868.04-1.3 0-.27-.025-.525-.133-.73-.31-.178-.176-.297-.403-.34-.65-.06-.357-.098-.718-.11-1.08l-.18-4.94c-.022-.313-.022-.627 0-.94.025-.226.112-.44.25-.62.128-.162.302-.281.5-.34.27-.082.549-.126.83-.13l7.55-.28c.552-.085 1.115.048 1.57.37.327.455.486 1.01.45 1.57l.18 4.9c.083.577-.049 1.164-.37 1.65-.434.385-1 .589-1.58.57.28.11.52.21.74.28l.59.21.55.2.6.26c.335.13.634.339.87.61.16.253.21.56.14.85-.025.32-.225.602-.52.73-.386.104-.797.057-1.15-.13-.6-.26-1.09-.46-1.47-.59-.38-.13-.81-.31-1.28-.51-.4-.134-.767-.356-1.07-.65-.161-.257-.161-.583 0-.84 0-.08 0-.14.07-.18.011-.053.031-.104.06-.15l-3.14.12c-.013.03-.01.064.01.09v.01zm-2.86-14.82c-.006.122.022.243.08.35 0 .07.17.1.35.1l2.11-.08v-.86l-2.11.08c-.116-.025-.237.01-.323.092-.086.082-.126.2-.107.318zm7.29 7.55c0-.08 0-.13-.05-.15-.08-.017-.16-.017-.24 0l-6 .22c-.13 0-.2 0-.21.07-.007.056-.007.114 0 .17v.51l6.47-.24.03-.58zm.08 2.12l-6.47.22v.67l6.46-.24.01-.65zm.08 2.24l-6.47.24v.62c0 .08 0 .12.07.12h.14l6-.22c.14 0 .21-.08.2-.22l.06-.54zM99.6 70.54v.85l2.24-.08c.293 0 .433-.16.42-.48 0-.26-.16-.38-.45-.37l-2.21.08zM113 69.77c-.353.048-.711-.042-1-.25-.214-.242-.325-.557-.31-.88-.058-.347.013-.703.2-1 .302-.223.676-.326 1.05-.29l18.36-.68c.347-.043.7.03 1 .21.23.256.346.596.32.94.036.326-.066.652-.28.9-.281.23-.637.347-1 .33l-7.89.29.07 2 4.76-.18c.696-.117 1.408.099 1.92.584.514.486.769 1.184.69 1.886l.24 6.38h1.31c.38-.062.77.031 1.08.26.196.262.295.583.28.91.042.317-.045.637-.24.89-.276.24-.635.362-1 .34h-1.32l.07 1.87c.094.966-.142 1.936-.67 2.75-.535.703-1.377 1.106-2.26 1.08-.455.019-.91-.008-1.36-.08-.597-.109-1.18-.283-1.74-.52-.55-.2-.87-.45-1-.77-.095-.362-.041-.748.15-1.07.16-.46.39-.72.71-.79.422-.068.855-.005 1.24.18.397.161.805.295 1.22.4.23.06.47.06.7 0 .156-.062.272-.196.31-.36.034-.235.034-.475 0-.71l-.07-1.89-12 .44.16 4.36c.045.372-.088.743-.36 1-.254.232-.586.36-.93.36-.356.055-.72-.043-1-.27-.253-.27-.383-.631-.36-1L114 83.1h-1.2c-.379.068-.769-.03-1.07-.27-.333-.547-.363-1.226-.08-1.8.14-.2.49-.31 1.06-.33h1.2l-.24-6.37c-.076-.689.11-1.382.52-1.94.5-.49 1.18-.752 1.88-.72l4.78-.17-.07-2-7.78.27zm3.39 6.44l4.66-.17-.05-2.15-3.9.14c-.36 0-.57.08-.64.19-.086.205-.117.43-.09.65l.02 1.34zm.16 4.39l4.66-.18-.08-2.23-4.66.17.08 2.24zm7.08-6.81l.08 2.15 4.66-.17v-1.48c.013-.192-.047-.382-.17-.53-.17-.106-.372-.148-.57-.12l-4 .15zm.24 6.54l4.67-.18-.09-2.24-4.66.18.08 2.24zM141.63 71.34c-.452.124-.935.051-1.33-.2-.26-.267-.404-.627-.4-1-.046-.368.032-.74.22-1.06.346-.284.782-.436 1.23-.43 1.55-.157 3.086-.44 4.59-.85 1.157-.302 2.267-.76 3.3-1.36.404-.327.91-.5 1.43-.49.383.101.706.359.89.71.26.346.351.79.25 1.21-.234.47-.643.83-1.14 1-1.153.56-2.35 1.021-3.58 1.38l.18 4.73 5.86-.21-.29-8c-.064-.397.07-.8.36-1.08.294-.203.643-.311 1-.31.35-.02.698.063 1 .24.297.244.46.616.44 1l.3 8 4.13-.15c.39-.07.79.05 1.08.32.195.297.296.645.29 1 .033.348-.044.698-.22 1-.253.281-.623.429-1 .4l-4.14.15.32 8.5c.061.39-.056.787-.32 1.08-.29.21-.642.318-1 .31-.389.053-.784-.028-1.12-.23-.237-.278-.358-.635-.34-1l-.31-8.5-6 .22c-.125 1.842-.626 3.638-1.47 5.28-.785 1.514-1.843 2.87-3.12 4-.321.344-.753.563-1.22.62-.358-.008-.694-.172-.92-.45-.258-.238-.413-.569-.43-.92.058-.46.304-.877.68-1.15 1.004-.94 1.843-2.041 2.48-3.26.644-1.283 1.035-2.679 1.15-4.11l-4.11.15c-.39.066-.789-.052-1.08-.32-.214-.288-.323-.641-.31-1-.031-.35.053-.702.24-1 .271-.286.657-.433 1.05-.4l4.22-.15-.15-4.11c-.888.197-1.786.344-2.69.44zM175.05 68.19c.282.164.445.475.42.8.003.438-.126.866-.37 1.23-.29.46-.61.93-.95 1.42-.34.49-.69 1-1.05 1.43-.36.43-.7.89-1 1.3-.31.374-.645.728-1 1.06-.2.23-.3.4-.27.51.03.11.17.15.41.09.24-.06.63-.16.88-.2l.89-.19c-.031-.04-.049-.09-.05-.14-.35-.89-.23-1.48.35-1.77.281-.189.639-.223.95-.09.323.25.553.603.65 1 .07.22.14.4.2.56.06.16.11.33.17.49l.15.53c.06.18.12.4.21.66.143.404.204.832.18 1.26-.054.313-.284.566-.59.65-.286.162-.628.195-.94.09-.296-.223-.499-.547-.57-.91-.74.17-1.53.33-2.37.49-.84.16-1.64.31-2.41.43-.396.074-.805.01-1.16-.18-.288-.164-.51-.421-.63-.73-.124-.318-.151-.666-.08-1 .058-.375.229-.724.49-1l1.11-1.24c.36-.4.693-.8 1-1.2l-1.18.09c-.344.045-.693-.018-1-.18-.248-.14-.447-.353-.57-.61-.121-.276-.166-.58-.13-.88.04-.33.149-.646.32-.93.33-.57.64-1.08.92-1.53.28-.45.56-.9.81-1.34l.75-1.34c.24-.46.5-1 .77-1.54.164-.377.44-.695.79-.91.28-.19.642-.21.94-.05.347.151.61.447.72.81.066.48-.03.97-.27 1.39-.3.663-.634 1.31-1 1.94-.35.58-.7 1.14-1.07 1.68-.16.27-.23.45-.2.55.03.1.17.14.43.11l1.11-.06.62-.87c.2-.29.41-.6.61-.91.234-.407.582-.737 1-.95.346-.102.72-.035 1.01.18zm-6.91 11.93c.7-.3 1.22 0 1.58.94.39 1.09.701 2.206.93 3.34.119.422.119.868 0 1.29-.322.547-1.012.752-1.58.47-.27-.33-.434-.735-.47-1.16-.09-.37-.18-.69-.25-1-.07-.31-.14-.55-.21-.79-.07-.24-.14-.48-.21-.7-.07-.22-.15-.45-.24-.7-.32-.81-.18-1.4.45-1.69zm2.75-.49c.62-.35 1.12-.08 1.49.8.21.48.394.97.55 1.47.19.55.35 1.1.49 1.63.132.393.163.812.09 1.22-.121.305-.396.522-.72.57-.25.108-.539.085-.77-.06-.26-.277-.43-.625-.49-1-.13-.46-.27-.94-.44-1.43-.17-.49-.34-1-.52-1.4-.17-.33-.252-.699-.24-1.07.04-.327.255-.606.56-.73zm11.74 1.62c-.28-.5-.54-1-.79-1.47s-.49-1-.7-1.5c-.21-.5-.43-1.06-.63-1.63-.2-.57-.39-1.18-.57-1.82 0 .68-.12 1.51-.26 2.5s-.33 2-.56 3c-.23 1-.5 2-.79 2.93-.25.8-.585 1.572-1 2.3-.183.376-.5.668-.89.82-.342.091-.707.03-1-.17-.259-.17-.43-.443-.47-.75-.014-.443.082-.883.28-1.28h-.05c-.222.13-.498.13-.72 0-.296-.26-.497-.612-.57-1-.14-.52-.28-1-.4-1.29-.12-.29-.27-.72-.43-1.11-.16-.343-.233-.722-.21-1.1.058-.27.245-.494.5-.6.233-.146.518-.182.78-.1.326.158.572.444.68.79.13.3.29.7.46 1.18.17.48.32 1 .44 1.4.004.067.004.133 0 .2 0 .06 0 .13.05.21.36-.95.66-1.922.9-2.91.257-1.116.457-2.244.6-3.38.15-1.23.26-2.59.31-4.08.05-1.49.06-3.17 0-5h-1.22c-.331.058-.67-.055-.9-.3-.195-.27-.293-.597-.28-.93 0-.86.33-1.3 1.11-1.33l7.68-.29c.626-.07 1.249.16 1.68.62.402.554.527 1.262.34 1.92l-.94 4h1.32c.484-.043.963.129 1.31.47.374.565.5 1.26.35 1.92-.124 1.419-.372 2.824-.74 4.2-.292 1.16-.729 2.279-1.3 3.33.386.354.79.688 1.21 1 .43.33.87.63 1.31.93.375.205.669.534.83.93.095.367.037.756-.16 1.08-.24.5-.5.78-.79.84-.412.007-.81-.147-1.11-.43-.553-.38-1.063-.76-1.53-1.14-.47-.39-.92-.79-1.33-1.2-.548.605-1.154 1.154-1.81 1.64-.724.528-1.479 1.012-2.26 1.45-.144.063-.295.11-.45.14-.155.035-.315.035-.47 0-.165-.041-.316-.124-.44-.24-.167-.15-.294-.339-.37-.55-.257-.717.09-1.51.79-1.81 1.193-.616 2.278-1.423 3.21-2.39zm.86-13.67c0-.313-.16-.463-.48-.45l-2.91.11v3.98l2.68-.1c.07-.33.14-.67.22-1 .08-.33.15-.69.21-1l.19-.88c0-.3.05-.51.09-.66zm.68 11.53c.377-.721.682-1.478.91-2.26.26-.89.451-1.8.57-2.72 0-.25-.05-.37-.26-.36l-3.39.13c.14.5.29 1 .44 1.41.15.41.32.87.49 1.28.17.41.36.82.57 1.23.21.41.41.84.67 1.29zM206.54 76c-.39.43-.72.77-1 1-.217.205-.463.377-.73.51-.174.096-.372.137-.57.12-.179-.033-.347-.108-.49-.22-.259-.166-.414-.453-.41-.76.027-.38.22-.728.53-.95.48-.392.884-.87 1.19-1.41-.226-.043-.444-.117-.65-.22-.197-.094-.374-.227-.52-.39-.137-.164-.252-.345-.34-.54-.09-.209-.14-.433-.15-.66-.008-.265.033-.53.12-.78.091-.27.226-.524.4-.75.184-.209.413-.373.67-.48.264-.123.55-.19.84-.2.292-.006.583.038.86.13.583.21 1.054.651 1.3 1.22.147.345.229.715.24 1.09.01 1.222-.453 2.4-1.29 3.29zM223.27 66.22c-.308.03-.616-.059-.86-.25-.224-.248-.34-.576-.32-.91-.042-.32.03-.646.2-.92.23-.24.56-.357.89-.32l6.53-.25c.76 0 1.15.36 1.18 1.16.039.321-.024.646-.18.93-.167.223-.432.35-.71.34h-.05l.62 17c.05.35-.032.707-.23 1-.22.217-.521.332-.83.32-.301.037-.604-.057-.83-.26-.217-.286-.324-.641-.3-1L228.3 81c-.58.19-1.23.37-2 .54l-2.23.56c-1 .24-1.49 0-1.63-.72-.143-.363-.143-.767 0-1.13.218-.312.561-.513.94-.55H223.84l-.5-13.35-.07-.13zm2.45 2.52l2.12-.08-.09-2.61-2.13.08.1 2.61zm.19 5.17l2.12-.08-.1-2.83-2.13.07.11 2.84zm.19 5.09c.27-.08.61-.17 1-.26s.77-.2 1.07-.3l-.08-2.29-2.13.08.14 2.77zm14.42-9c-.12.17-.15.29-.1.35.05.06.15.06.32 0 .37-.037.737-.097 1.1-.18l-.2-.46c-.12-.234-.163-.5-.12-.76.101-.251.294-.455.54-.57.19-.128.43-.15.64-.06.235.11.428.292.55.52.23.46.43.86.6 1.22l.53 1.12c.169.305.242.653.21 1-.06.317-.298.57-.61.65-.235.108-.505.108-.74 0-.247-.19-.429-.452-.52-.75l-.07-.14-1.13.22-1 .16-.81.13-.8.14c-.25.057-.51.057-.76 0 0 .26-.21.47-.56.62-.22.11-.48.11-.7 0-.235-.165-.421-.389-.54-.65l-2.12.39-1.95.33c-.374.096-.77.026-1.09-.19-.256-.201-.398-.515-.38-.84.004-.458.187-.895.51-1.22.48-.65.83-1.11 1.06-1.38l.46-.57c-.13.01-.26.01-.39 0-.123-.014-.247-.014-.37 0-.336.053-.68.018-1-.1-.289-.142-.457-.45-.42-.77-.02-.19-.02-.38 0-.57.052-.225.15-.436.29-.62.47-.71.92-1.41 1.35-2.09.43-.68.89-1.42 1.38-2.24.137-.336.404-.603.74-.74.256-.09.534-.09.79 0 .36.17.53.4.52.67-.055.386-.188.757-.39 1.09-.16.28-.31.53-.45.75-.13.22-.28.44-.42.66-.14.22-.31.46-.47.72l-.58.87c-.087.127-.117.207-.09.24H233.89c.132-.01.263-.034.39-.07.36-.57.71-1.12 1-1.64.165-.294.394-.547.67-.74.258-.159.583-.159.84 0 .25.142.417.395.45.68-.017.425-.18.83-.46 1.15-.24.41-.47.77-.67 1.07l-.62.93c-.2.31-.42.63-.67 1l-.82 1.23c-.14.18-.18.3-.13.39.032.073.113.112.19.09l.8-.11.67-.1c-.036-.11-.079-.217-.13-.32-.042-.104-.092-.204-.15-.3-.159-.184-.218-.434-.16-.67.104-.209.259-.387.45-.52.173-.148.392-.233.62-.24.21 0 .43.18.66.52.23.34.25.49.37.73s.24.52.38.84c.045-.09.095-.177.15-.26.055-.095.122-.182.2-.26.22-.32.48-.66.77-1 .29-.34.55-.68.75-.95-.145.03-.292.05-.44.06l-.73.1c-.335.077-.687.042-1-.1-.273-.18-.429-.493-.41-.82-.001-.194.029-.386.09-.57.064-.224.17-.434.31-.62.48-.65.93-1.28 1.33-1.88.4-.6.82-1.28 1.25-2 .25-.47.47-.75.68-.82.281-.053.572-.003.82.14.35.17.53.38.55.63-.037.378-.171.74-.39 1.05-.33.57-.64 1.06-.92 1.48-.28.42-.56.82-.86 1.2-.057.06-.09.138-.09.22 0 .06.12.06.33 0l.37-.06.51-.08c.2-.32.4-.63.58-.94.18-.31.37-.62.57-.94.153-.313.38-.584.66-.79.284-.154.633-.127.89.07.269.15.453.416.5.72.042.423-.088.844-.36 1.17-.25.39-.49.76-.72 1.1-.23.34-.47.68-.72 1-.25.32-.49.7-.77 1.07l-.95 1.21zm-3.15 7.91c.027.673-.044 1.347-.21 2-.302 1.267-1.047 2.384-2.1 3.15-.571.446-1.218.785-1.91 1-.32.136-.68.136-1 0-.268-.133-.462-.379-.53-.67-.068-.304-.007-.623.17-.88.253-.29.582-.505.95-.62.817-.243 1.535-.74 2.05-1.42h-.5c-.376.039-.754.039-1.13 0-.248-.026-.482-.127-.67-.29-.17-.177-.285-.4-.33-.64-.08-.351-.12-.71-.12-1.07l-.17-3.47c-.067-.35.013-.71.22-1 .21-.175.477-.268.75-.26.277-.038.556.05.76.24.189.272.28.6.26.93l.11 3c-.004.095.02.189.07.27 0 .06.13.09.27.08h1.08c-.004-.037-.004-.073 0-.11v-.14l-.13-3.47c-.009-.278.043-.554.15-.81.121-.274.401-.442.7-.42.31-.033.616.095.81.34.188.233.294.521.3.82l.15 3.44zm3.16 4.74c.038.321-.044.645-.23.91-.2.21-.48.323-.77.31-.294.04-.59-.05-.81-.25-.156-.27-.236-.578-.23-.89l-.31-8.46c-.04-.313.016-.63.16-.91.21-.205.498-.307.79-.28.287-.033.575.05.8.23.205.25.305.568.28.89l.15 4 1.18-.05c.22 0 .32-.15.31-.42l-.13-3.4c0-.75.27-1.14.89-1.16.298-.031.595.073.808.284.214.211.32.507.292.806l.15 4c.075.552-.05 1.112-.35 1.58-.41.345-.936.517-1.47.48l-1.6.06.09 2.27zM259.86 67.75c-.13-.34-.28-.69-.44-1l-.49-1c-2.06.22-4.283.373-6.67.46-.453.058-.91-.077-1.26-.37-.269-.3-.403-.698-.37-1.1 0-.378.155-.74.43-1 .408-.24.877-.358 1.35-.34 1.54-.053 2.99-.133 4.35-.24 1.36-.107 2.65-.237 3.87-.39 1.22-.16 2.38-.36 3.49-.57 1.11-.21 2.17-.48 3.21-.78.422-.105.86-.129 1.29-.07.37.06.64.36.8.89.168.39.126.838-.11 1.19-.307.329-.709.553-1.15.64-1 .25-2 .49-3 .71-1 .22-2.13.42-3.28.59.16.39.33.79.48 1.18l.44 1.16 6.39-.23c.398-.07.803.066 1.08.36.205.293.313.643.31 1 .03.35-.054.702-.24 1-.25.287-.62.442-1 .42l-5.66.21c.09.4.18.8.26 1.22.08.42.17.81.24 1.21l6.52-.24c.389-.065.785.057 1.07.33.21.29.323.641.32 1 .02.35-.063.698-.24 1-.269.29-.656.442-1.05.41l-6.33.23v1.23c0 .42-.06.82-.11 1.22s-.11.76-.18 1.09c-.059.294-.146.582-.26.86-.335.853-.886 1.605-1.6 2.18-.744.542-1.64.836-2.56.84-1.383-.022-2.746-.336-4-.92-.421-.133-.777-.419-1-.8-.118-.348-.096-.728.06-1.06.124-.38.404-.69.77-.85.49-.09.996-.017 1.44.21.817.361 1.697.558 2.59.58.358-.01.706-.124 1-.33.285-.218.506-.508.64-.84.189-.437.3-.904.33-1.38.078-.637.112-1.278.1-1.92l-10.16.37c-.389.065-.785-.057-1.07-.33-.21-.29-.323-.641-.32-1-.021-.35.062-.698.24-1 .252-.284.621-.435 1-.41l10-.37c-.06-.42-.14-.83-.23-1.23s-.19-.81-.3-1.2l-8.24.3c-.394.066-.795-.06-1.08-.34-.207-.292-.316-.642-.31-1-.03-.35.054-.701.24-1 .255-.312.649-.477 1.05-.44l7.35-.34zM283.6 71.27c-.225.332-.599.534-1 .54-.427-.018-.837-.172-1.17-.44l-.8-.58c-.25-.17-.49-.33-.72-.47-.23-.14-.49-.29-.74-.43l-.84-.44c-.348-.153-.637-.417-.82-.75-.143-.38-.09-.806.14-1.14.25-.46.53-.72.85-.77.41-.042.823.057 1.17.28.63.31 1.2.63 1.71.94.51.31 1.07.69 1.67 1.13.401.24.692.628.81 1.08.085.371-.012.761-.26 1.05zm-.27-8c.38.226.668.58.81 1 .087.342.025.706-.17 1-.22.383-.62.627-1.06.65-.457-.044-.888-.233-1.23-.54-.51-.38-1-.71-1.42-1-.42-.29-.94-.56-1.49-.85-.391-.176-.712-.48-.91-.86-.144-.396-.055-.84.23-1.15.21-.3.544-.491.91-.52.428-.012.849.115 1.2.36.327.16.617.31.87.45l.74.45c.24.147.48.307.72.48l.8.53zm.74 11.1c-.39 1.312-.854 2.6-1.39 3.86-.49 1.15-1 2.24-1.59 3.28-.173.443-.543.78-1 .91-.355.059-.719-.036-1-.26-.328-.161-.574-.45-.68-.8-.05-.508.089-1.017.39-1.43.506-.883.953-1.799 1.34-2.74.5-1.193.938-2.411 1.31-3.65.113-.393.343-.742.66-1 .322-.184.707-.224 1.06-.11.396.056.755.264 1 .58.178.461.142.978-.1 1.41v-.05zm15.2 4.63c.024.414.004.83-.06 1.24-.038.29-.14.566-.3.81-.152.212-.36.378-.6.48-.293.135-.602.232-.92.29-.524.068-1.056.068-1.58 0-.572-.045-1.138-.146-1.69-.3-.86-.227-1.24-.657-1.14-1.29.045-.41.242-.787.55-1.06.318-.237.739-.283 1.1-.12.35.12.63.19.83.24.207.051.418.084.63.1.22 0 .36 0 .42-.09.069-.15.093-.317.07-.48l-.12-3.35c-.196.114-.4.214-.61.3-1.019.387-2.057.72-3.11 1-1.07.28-2.16.53-3.26.74-.327.08-.667.097-1 .05-.291-.062-.523-.282-.6-.57-.195 1.221-.53 2.416-1 3.56-.184.611-.577 1.138-1.11 1.49-.417.166-.888.125-1.27-.11-.47-.26-.73-.55-.76-.87.02-.538.179-1.061.46-1.52.26-.509.48-1.037.66-1.58.174-.507.3-1.03.38-1.56.096-.589.152-1.184.17-1.78v-2.23l-.18-4.11c-.082-.623.033-1.256.33-1.81.376-.388.9-.596 1.44-.57l-.15-.35c-.175-.347-.376-.682-.6-1-.21-.31-.48-.68-.8-1.12-.272-.31-.421-.708-.42-1.12.032-.43.261-.821.62-1.06.253-.16.56-.21.85-.14.35.126.657.352.88.65l.51.7c.15.21.28.42.41.62l.38.61.41.67c.26.426.381.922.35 1.42h1.14l-.18-4.67c-.046-.395.099-.789.39-1.06.247-.21.556-.332.88-.35.322-.005.636.101.89.3.295.247.46.615.45 1l.18 4.66h.87c.35-.66.65-1.3.92-1.93.27-.63.51-1.28.74-2 .09-.22.17-.41.25-.57.066-.15.161-.287.28-.4.125-.098.273-.16.43-.18.215-.038.435-.038.65 0 .384.064.696.345.8.72.095.438.057.894-.11 1.31-.19.5-.4 1-.6 1.45-.2.45-.43.93-.68 1.42.336-.004.671.03 1 .1.245.06.469.185.65.36.181.198.309.439.37.7.091.384.141.776.15 1.17l.36 11.19zm-3.58-6.71c-.15.5-.4.79-.75.86-.57.047-1.142-.028-1.68-.22-.79-.23-1.47-.42-2-.56-.53-.14-1.14-.27-1.71-.38l-.87-.19c-.21-.049-.41-.133-.59-.25l.05 1.32c.056.886.056 1.774 0 2.66.307-.194.645-.333 1-.41.84-.18 1.76-.41 2.76-.68 1-.27 2-.56 3-.87.303-.093.615-.157.93-.19.216-.018.43.047.6.18l-.18-4.74c0-.27 0-.45-.13-.51-.215-.088-.45-.116-.68-.08l-6.72.25c-.215-.013-.43.021-.63.1-.07.06-.1.21-.09.46v.55c.176-.132.39-.202.61-.2.336.012.67.052 1 .12.86.16 1.66.33 2.4.49.74.16 1.44.33 2.08.52.322.09.64.197.95.32.204.083.388.21.54.37.12.124.187.288.19.46.008.206-.019.413-.08.61v.01zM324.55 76c.015.223.015.447 0 .67-.019.198-.073.391-.16.57-.091.173-.235.313-.41.4-.228.112-.476.177-.73.19l.71.13.83.17.83.18.73.17c.42.063.81.251 1.12.54.169.258.21.579.11.87-.055.332-.273.613-.58.75-.43.088-.875.06-1.29-.08-.9-.23-1.76-.43-2.59-.59-.83-.16-1.61-.31-2.37-.43-.45-.032-.877-.215-1.21-.52-.185-.3-.229-.665-.12-1l-5.29.2c.058.275.008.561-.14.8-.253.335-.602.587-1 .72-.802.357-1.628.661-2.47.91-.87.25-1.74.46-2.61.62-.46.114-.94.114-1.4 0-.267-.113-.427-.413-.48-.9-.126-.341-.057-.724.18-1 .325-.253.719-.402 1.13-.43l.81-.15 1-.18 1-.21.74-.19c-.583.04-1.164-.115-1.65-.44-.313-.346-.476-.804-.45-1.27l-.2-5.31c-.061.032-.125.058-.19.08l-.2.08c-.433.17-.895.254-1.36.25-.393-.007-.74-.259-.87-.63-.32-.7 0-1.24.89-1.63l.76-.29c.3-.1.6-.21.9-.33l.86-.33c.212-.08.42-.174.62-.28-.877.033-1.75-.123-2.56-.46-.57-.234-.913-.819-.84-1.43l.07-.67c-.005-.562.182-1.109.53-1.55.508-.373 1.13-.557 1.76-.52l3.24-.12v-.86l-4.53.17c-.322.035-.648-.02-.94-.16-.235-.161-.365-.436-.34-.72 0-.7.38-1.07 1.21-1.1l4.52-.17v-.26c-.026-.326.043-.653.2-.94.24-.298.621-.447 1-.39.344-.07.7.03.96.267.259.237.389.584.35.933v.3l2.91-.11v-.37c-.005-.32.101-.63.3-.88.275-.24.637-.356 1-.32.85 0 1.29.35 1.32 1.15v.32l3.14-.11c.591-.072 1.188.081 1.67.43.42.447.638 1.048.6 1.66v.74c.088.513-.088 1.036-.47 1.39-.502.296-1.078.441-1.66.42l-3.14.12v1.08l3.9-.14c.68-.086 1.372.015 2 .29.43.327.665.851.62 1.39.109.8-.084 1.613-.54 2.28-.52.497-1.221.76-1.94.73.006.077.006.153 0 .23.005.077.005.153 0 .23l.21 5.04zm-15.33-9.89c0 .14 0 .21.22.2l2.31-.08c.08-.163.131-.34.15-.52 0-.21.07-.41.11-.58l-2.54.09c-.13 0-.19.08-.2.22l-.05.67zm12.52 5.16c.007-.102-.017-.203-.07-.29-.078-.023-.162-.023-.24 0l-9.91.37c-.106-.008-.212.02-.3.08-.07.075-.1.18-.08.28v.42l10.6-.4v-.46zm.07 1.92l-10.6.39v.71l10.6-.39v-.71zm.08 2.21l-10.6.39v.37c-.008.105.033.208.112.278.078.07.184.1.288.082l9.91-.37c.088.01.176-.02.24-.08 0 0 .05-.14.05-.3v-.37zm-4.11-7.5l-4.39.16c-.101.14-.223.265-.36.37l-.49.38-.53.37c-.18.11-.33.22-.46.31l6.55-.24c-.205-.23-.313-.532-.3-.84l-.02-.51zm-3.26-2.9c-.022.192-.056.382-.1.57-.05.21-.08.38-.11.52l3.4-.12v-1.09l-3.19.12zm.14-2.67v.86l3-.11v-.86l-3 .11zm5.68 5.43v.51c.03.311-.06.622-.25.87l2.1-.08c.08-.62.61-.86 1.6-.71.25.06.36-.1.35-.47 0-.13 0-.2-.08-.22-.076-.015-.154-.015-.23 0l-3.49.1zm-.21-5.63v.85l2.54-.09c.13 0 .19-.1.18-.28v-.23c.009-.073.009-.147 0-.22 0-.09-.07-.13-.13-.12l-2.59.09zM339.33 77.28c.067.72-.09 1.443-.45 2.07-.406.552-1.066.858-1.75.81-.311.007-.622-.013-.93-.06-.382-.054-.757-.148-1.12-.28-.408-.114-.747-.398-.93-.78-.13-.358-.13-.752 0-1.11.107-.368.34-.687.66-.9.428-.146.896-.114 1.3.09.124.055.266.055.39 0 .11-.06.15-.19.15-.39l-.16-4.18c-.168.085-.342.159-.52.22l-.55.19h.05c-.418.222-.906.272-1.36.14-.402-.178-.674-.562-.71-1-.17-.81.26-1.41 1.3-1.81.27-.08.55-.19.84-.3l.86-.38-.2-4.61-1.69.07c-.378.048-.759-.064-1.05-.31-.226-.284-.346-.637-.34-1-.034-.354.058-.708.26-1 .265-.261.628-.399 1-.38l1.68-.07-.1-2.81c-.053-.386.064-.776.32-1.07.281-.232.636-.356 1-.35.37-.06.745.058 1.015.318.269.26.4.63.355 1.002l.1 2.82 1.5-.06c.381-.054.768.06 1.06.31.23.28.348.637.33 1 .033.353-.06.707-.26 1-.262.267-.626.409-1 .39l-1.5.06.11 3.16.42-.29.42-.32c.599-.483 1.469-.427 2 .13.198.296.303.644.3 1-.108.422-.382.783-.76 1-.37.28-.76.55-1.15.82-.39.27-.78.52-1.17.75l.28 6.11zm6-11.7l8.54-.31c.404-.07.814.078 1.08.39.208.291.317.642.31 1 .035.35-.05.703-.24 1-.25.287-.62.442-1 .42l-2.37.09.35 10.24c.061.385-.053.777-.31 1.07-.306.218-.674.33-1.05.32-.355.029-.708-.066-1-.27-.271-.26-.414-.625-.39-1l-.38-10.28-3.42.13c0 1.34 0 2.51-.05 3.53-.048.921-.169 1.837-.36 2.74-.16.767-.401 1.514-.72 2.23-.323.698-.704 1.367-1.14 2-.767 1.02-1.537 1.24-2.31.66-.39-.212-.616-.638-.57-1.08.126-.515.358-.999.68-1.42.359-.505.673-1.04.94-1.6.26-.609.444-1.247.55-1.9.14-.867.216-1.742.23-2.62 0-1 0-2.29-.05-3.81l-.18-4.76c-.075-.684.13-1.37.57-1.9.506-.469 1.17-.73 1.86-.73.69-.06 1.32-.12 1.89-.19.57-.07 1.1-.15 1.61-.24s1-.22 1.49-.35c.49-.13 1-.29 1.53-.48.387-.107.793-.13 1.19-.07.414.094.741.41.85.82.199.404.168.884-.08 1.26-.373.367-.84.623-1.35.74-1.06.3-2.09.55-3.12.74-1.03.19-2.18.35-3.45.47-.14 0-.21.06-.2.15l.07 3.01zM377.74 78.45c-1.308.051-2.617.014-3.92-.11-1.187-.125-2.362-.353-3.51-.68-.942.515-1.952.895-3 1.13-1.41.3-2.84.49-4.28.57-.51.105-1.039 0-1.47-.29-.281-.282-.424-.673-.39-1.07-.05-.413.13-.82.47-1.06.487-.211 1.01-.326 1.54-.34l2-.17c.556-.054 1.107-.148 1.65-.28-.41-.25-.83-.54-1.28-.87-.45-.33-.85-.67-1.24-1-.364-.279-.639-.657-.79-1.09-.112-.348-.08-.726.09-1.05-.415-.065-.761-.353-.9-.75-.159-.58-.24-1.179-.24-1.78l-.18-5c-.028-.443.006-.887.1-1.32.073-.327.24-.626.48-.86.263-.236.584-.398.93-.47.479-.115.968-.179 1.46-.19l4.94-.18-.05-1.34-8.08.3c-.379.058-.763-.056-1.05-.31-.215-.234-.333-.542-.33-.86-.031-.32.054-.639.24-.9.269-.29.657-.437 1.05-.4l19.26-.71c.392-.063.79.059 1.08.33.196.256.304.568.31.89.022.314-.075.624-.27.87-.264.263-.628.401-1 .38l-8.34.31.05 1.34 4.95-.19c.524-.025 1.05-.005 1.57.06.347.037.677.172.95.39.241.217.41.503.48.82.105.44.162.889.17 1.34l.18 5c.024.44.004.883-.06 1.32-.051.314-.194.606-.41.84-.252.243-.567.41-.91.48-.522.115-1.055.175-1.59.18l-5.06.19c-.046.654-.146 1.303-.3 1.94-.136.552-.337 1.086-.6 1.59.813.144 1.635.228 2.46.25h2.84l4.16-.15c.411-.044.825.047 1.18.26.309.266.472.664.44 1.07.055.393-.078.79-.36 1.07-.331.256-.742.387-1.16.37l-4.26.13zm-12.3-14.26c-.098-.006-.195.026-.27.09-.06.103-.081.223-.06.34l.05 1.23 5.12-.19-.06-1.66-4.78.19zm-.15 5.14c-.003.1.018.2.06.29.04.08.14.12.3.12l4.78-.18-.07-1.76-5.12.19.05 1.34zm4.21 5.24c.254-.342.457-.719.6-1.12.167-.46.284-.936.35-1.42l-4.34.16c.51.45 1.07.89 1.69 1.34.536.395 1.105.743 1.7 1.04zm3.56-10.66l.07 1.64 5.21-.19v-1.23c.004-.115-.024-.23-.08-.33-.099-.06-.215-.086-.33-.07l-4.87.18zm.14 3.79l.07 1.75 4.83-.18c.106.012.213-.017.3-.08.06 0 .08-.16.07-.35l-.05-1.34-5.22.2zM391.7 63.24c-.389.234-.836.352-1.29.34-.361-.064-.664-.31-.8-.65-.22-.335-.265-.756-.12-1.13.234-.388.584-.692 1-.87.55-.3 1-.58 1.48-.85.445-.27.872-.567 1.28-.89.415-.34.81-.703 1.18-1.09.435-.452.842-.93 1.22-1.43.251-.389.63-.679 1.07-.82.396-.075.805.036 1.11.3.239.156.427.378.54.64.064.3-.013.614-.21.85l7.07-.26c.404-.01.806.065 1.18.22.31.13.575.35.76.63.18.3.25.654.2 1-.07.47-.248.92-.52 1.31-.528.803-1.168 1.527-1.9 2.15-.874.776-1.81 1.478-2.8 2.1.081.047.158.1.23.16.077.077.16.148.25.21.125.149.236.31.33.48.066.177.066.373 0 .55l4.64-.19c.563-.05 1.13.04 1.65.26.373.168.682.452.88.81.175.367.235.779.17 1.18-.076.48-.231.942-.46 1.37-.606 1.166-1.392 2.23-2.33 3.15-1.041.995-2.224 1.83-3.51 2.48-1.56.785-3.2 1.402-4.89 1.84-2.13.557-4.295.97-6.48 1.24-.464.093-.946.04-1.38-.15-.306-.238-.471-.614-.44-1-.014-.192.006-.385.06-.57.046-.148.132-.28.25-.38.143-.12.31-.209.49-.26.25-.083.508-.14.77-.17 1.52-.188 3.028-.455 4.52-.8 1.237-.298 2.459-.659 3.66-1.08-1.03-.909-2.112-1.757-3.24-2.54-.491.286-.999.544-1.52.77-.533.24-1.103.47-1.71.69-.395.18-.827.258-1.26.23-.357-.093-.643-.36-.76-.71-.162-.38-.162-.81 0-1.19.256-.383.65-.652 1.1-.75 1.379-.407 2.694-1.003 3.91-1.77 1.19-.782 2.27-1.72 3.21-2.79-1.556.851-3.182 1.567-4.86 2.14-1.618.56-3.296.93-5 1.1-.458.095-.933.057-1.37-.11-.262-.229-.409-.562-.4-.91-.088-.38 0-.781.24-1.09.362-.253.789-.398 1.23-.42 1.285-.174 2.558-.43 3.81-.77 1.192-.327 2.364-.725 3.51-1.19-.55-.43-1.12-.84-1.7-1.22-.58-.38-1.26-.82-2.07-1.28-.627.432-1.29.81-1.98 1.13zm11.57-2.41c.3-.32.42-.57.39-.75-.03-.18-.29-.25-.75-.23l-6.91.25-.23.24 1 .66c.33.21.67.44 1 .68.33.24.68.48 1.05.76l1.16.87c.637-.354 1.248-.751 1.83-1.19.523-.387 1.012-.818 1.46-1.29zm4 8.15c.076-.112.076-.258 0-.37-.078-.12-.218-.186-.36-.17l-6 .22c-.386.396-.797.767-1.23 1.11.6.46 1.18.92 1.74 1.38l1.81 1.54c.858-.46 1.655-1.029 2.37-1.69.635-.587 1.184-1.26 1.63-2l.04-.02z" transform="translate(56 75)"/>
        </g>
    </g>
</svg>
