<svg xmlns="http://www.w3.org/2000/svg" xmlns:xlink="http://www.w3.org/1999/xlink" width="1226" height="220" viewBox="0 0 1226 220">
    <defs>
        <path id="prefix__a" d="M0 0.88L1225.683 0.88 1225.683 208 0 208z"/>
        <path id="prefix__c" d="M0.647 0.372L1205.217 0.372 1205.217 217.805 0.647 217.805z"/>
    </defs>
    <g fill="none" fill-rule="evenodd">
        <g transform="translate(0 11.628)">
            <mask id="prefix__b" fill="#fff">
                <use xlink:href="#prefix__a"/>
            </mask>
            <path fill="#688DBE" d="M1219.777 200.964c-4.97 7.707-43.57 8.084-86.63 5.84-1.11-.058-2.22-.116-3.34-.183-19.13-1.046-39-2.586-57.06-4.21-23.68-2.125-32.49-2.501-40.5-3.506-.93-.117-1.86-.242-2.79-.384-2.6-.376-5.28-.854-8.53-1.506-5.05-1.013-39.82-1.707-93.29-2.167-1-.01-2.01-.018-3.03-.026-30.85-.26-67.71-.435-108.52-.544h-2.65c-31.52-.084-65.36-.133-100.58-.142h-2.47c-41.98-.008-85.9.025-130.18.1-.8.009-1.59.009-2.39.009-45.49.075-91.35.193-135.87.343-.79.008-1.57.008-2.35.008-39.11.135-77.17.294-113.04.46-.87.009-1.74.017-2.61.017-38.2.184-73.85.385-105.56.603-.75.008-1.49.008-2.23.008-46.43.318-84.24.66-108.94.996-.32.009-.64.009-.95.009-17.06.234-27.67.468-30.31.685-23.45 1.958-50.42 1.247-70.71-1.188-9.01-1.08-3.87-18.3-3.01-23.998 1.34-8.912 3.62-12.627 9.41-24.41.15-.31.31-.62.47-.945 2.31-4.736 5.16-10.735 8.7-18.768 5.28-11.975 7.25-20.301 10.12-29.045.13-.394.26-.786.4-1.19.8-2.367 1.68-4.785 2.72-7.32 6.53-15.882 11.39-28.342 15.23-38.25.24-.602.47-1.188.69-1.774 12.23-31.545 13.86-36.056 27.56-44.198 6.87-4.084 46.12-4.678 91.79-5.247l1.88-.024 10.11-.126c2.7-.033 36.27.009 89.07.109 1.03 0 2.06 0 3.1.008 28.93.05 63.41.117 101.61.2h3.04c30.52.068 63.35.135 97.58.21h.45c31.45.067 64.06.134 97.14.209h1c37.58.084 75.75.168 113.45.243.5 0 1 .008 1.49 0 36.92.092 73.37.176 108.39.25.73 0 1.46 0 2.19.009 38.37.084 74.97.168 108.51.243h2.18c30.76.075 58.89.142 83.4.2h1.91c32.09.077 57.82.135 74.84.168.44.008.88.008 1.31.008 14.07.034 21.82.05 21.82.05 14.54.185 24.08.904 33.6.904 13.4 0 35.22-1.053 42.27 12.242 1.52 2.862 2.28 6.36 2.43 6.737 3.26 8.367 5.61 14.81 7.71 20.735.31.87.61 1.732.91 2.585 1.66 4.703 3.22 9.205 5.03 14.234 6.66 18.485 8.62 23.764 13.69 38.876.31.905.62 1.84.94 2.82 1.8 5.356 3.97 11.908 6.8 20.476 3.61 10.937 5.77 16 7.76 20.945.43 1.07.85 2.142 1.28 3.263 1.9 4.988 3.92 11.037 7.2 23.329 4.67 17.498 1.46 23.104-3.64 31.02" mask="url(#prefix__b)"/>
        </g>
        <g transform="translate(11 .628)">
            <mask id="prefix__d" fill="#fff">
                <use xlink:href="#prefix__c"/>
            </mask>
            <path fill="#FFF" d="M1006.797 153.122c-.42-1.84-.86-3.682-1.27-5.522-3-13.48-5.67-27.012-7.871-40.6 16.89.476 33.79.961 50.69 1.472 12.91.384 25.82.795 38.74 1.196 3.34 12.643 6.8 25.27 10.36 37.881.57 2.016 1.16 4.033 1.74 6.05-30.8-.184-61.6-.352-92.39-.477m-97.63-.318c-.48-4.159-.94-8.318-1.36-12.477-1.21-11.915-2.19-23.856-2.94-35.797 29.99.745 59.97 1.54 89.952 2.385 1.918 11.883 4.199 23.731 6.75 35.53.769 3.556 1.569 7.113 2.379 10.66-31.59-.126-63.19-.226-94.78-.3m-111.85-.177c-.27-1.858-.54-3.724-.79-5.589-2.01-14.979-3.63-29.99-4.88-45.02 36.719.712 73.45 1.533 110.17 2.436.95 16.133 2.299 32.258 4.1 48.341-36.2-.084-72.4-.143-108.6-.168m-47.281-.017c-18.82-.008-37.63 0-56.45.017-.15-1.02-.3-2.04-.438-3.054-2.321-16.409-4.441-32.835-6.381-49.269 33.92.443 67.84 1.004 101.76 1.656 1.02 13.146 2.339 26.266 4.06 39.362.49 3.775 1.029 7.54 1.59 11.305-14.71-.008-29.43-.017-44.141-.017m-181.34.21c.02-2.168.05-4.327.08-6.494.21-15.689.52-31.395.51-47.094 38.34.193 76.68.536 115.02 1.038 1.99 17.48 4.25 34.927 6.75 52.357-40.79.025-81.58.093-122.36.193m-.78-99.87c-.03-.544-.08-1.079-.12-1.615 37.2-.292 74.39-.468 111.59-.527 1.2 14.292 2.6 28.568 4.17 42.818.15 1.381.31 2.753.47 4.134-38.25-.469-76.5-.795-114.75-.97-.04-14.619-.378-29.238-1.36-43.84m218.29-1.983c.18 14.685.78 29.354 1.79 44.014.1 1.473.23 2.946.34 4.42-33.95-.637-67.9-1.18-101.86-1.608-1.828-15.648-3.49-31.312-4.99-46.985 34.912-.05 69.82 0 104.72.16m114 .894c.23 12.971.29 25.932.88 38.903.17 3.69.36 7.38.57 11.061-28.338-.678-56.68-1.313-85.02-1.883-8.4-.167-16.8-.326-25.21-.484-1.23-15.43-2.07-30.886-2.49-46.358-.02-.703-.03-1.415-.05-2.117 37.11.176 74.21.468 111.32.878m60.9.78c9.2.132 18.39.284 27.59.434 1.31 14.032 2.38 28.073 4.34 42.065.43 3.03.88 6.058 1.362 9.087-29.891-.829-59.791-1.598-89.681-2.326-.15-2.385-.3-4.778-.42-7.163-.75-14.284-1.07-28.559-1.431-42.85 19.41.224 38.82.467 58.24.752m112.3 2.05c3.47 13.573 6.5 27.22 9.98 40.793.98 3.807 1.97 7.606 2.97 11.413l-5.5-.175c-27.88-.837-55.75-1.649-83.63-2.418-.23-1.482-.47-2.97-.69-4.46-2.32-15.539-3.68-31.129-5.24-46.726 27.37.451 54.74.987 82.11 1.573m-506.44 42.09c-38.72-.168-77.44-.168-116.17.033 2.06-11.397 4.09-22.802 6.07-34.208.58-3.363 1.17-6.718 1.76-10.083 9.5-.133 19-.258 28.5-.376 26.29-.327 52.59-.594 78.88-.803.77 14.258.99 28.55.98 42.8-.01.88-.02 1.758-.02 2.637m-.818 56.04c-41.881.108-83.761.258-125.641.45 3.3-18.007 6.609-36.023 9.859-54.039 23.36-.133 46.72-.2 70.09-.167 15.5.017 31 .076 46.5.151-.1 17.873-.58 35.74-.808 53.604m-128.051.46c-35.78.167-71.561.376-107.35.611.83-2.954 1.69-5.908 2.5-8.862 4.119-14.86 8.119-29.739 12.03-44.634 34.23-.544 68.45-.928 102.69-1.146-.42 2.31-.851 4.62-1.27 6.93-2.88 15.697-5.74 31.403-8.6 47.101m-110.35.636c-24.23.16-48.461.335-72.69.527-10.42.092-20.85.167-31.28.242 1.93-5.907 3.839-11.832 5.69-17.764 3.55-11.413 6.96-22.86 10.23-34.34 34.16-.863 68.32-1.574 102.49-2.135-3.38 12.928-6.821 25.848-10.36 38.742-1.35 4.912-2.72 9.816-4.08 14.728m-106.91.795c-36.101.276-72.2.544-108.301.987 5.17-16.183 10.37-32.366 15.65-48.524.14-.427.29-.863.43-1.289 35.91-1.23 71.83-2.3 107.75-3.222-2.7 9.581-5.468 19.146-8.32 28.693-2.33 7.8-4.76 15.581-7.21 23.355m-77.01-94.664c34.96-1.197 69.91-2.41 104.86-3.322-2.1 8.3-4.27 16.584-6.5 24.86-1.66 6.15-3.36 12.292-5.08 18.434-35.91.912-71.82 2.041-107.7 3.464 4.75-14.493 9.56-28.968 14.42-43.436m108.15-3.406c33.98-.863 67.96-1.64 101.94-2.319-3.17 12.862-6.41 25.715-9.73 38.551-.44 1.674-.89 3.347-1.33 5.02-18.03.277-36.07.578-54.1.946-16.1.327-32.2.695-48.29 1.096 1.17-4.142 2.32-8.284 3.45-12.434 2.79-10.268 5.47-20.55 8.06-30.86m105.07-2.377c33.2-.66 66.4-1.239 99.602-1.706l-.811 4.317c-2.52 13.313-4.971 26.635-7.42 39.956-34.16.176-68.31.52-102.47 1.02 3.8-14.517 7.5-29.043 11.1-43.587m746.35 102.64c33.94.217 67.88.46 101.82.71-.431-1.12-.851-2.192-1.28-3.264-33.84-.284-67.67-.526-101.5-.736-.05-.167-.1-.343-.151-.518-4.19-14.426-8.28-28.869-12.23-43.337 33.12 1.021 66.22 2.075 99.32 3.172-.32-.98-.63-1.916-.94-2.82-33.038-1.07-66.08-2.117-99.13-3.122-.54-1.99-1.08-3.974-1.61-5.966-4.13-15.405-7.92-30.885-12.1-46.282 31.38.678 62.75 1.44 94.12 2.26-.3-.855-.6-1.716-.91-2.586-31.3-.846-62.6-1.582-93.9-2.227-.19-.694-.36-1.388-.56-2.083-3.43-12.376-7.49-24.66-13.37-36.358-.43 0-.87 0-1.31-.008 4.732 10.074 8.2 20.576 11.12 31.111.68 2.427 1.32 4.862 1.96 7.297-27.23-.56-54.46-1.054-81.69-1.48-1.27-12.443-2.89-24.92-6.23-37.096-.65-2.385-1.37-4.752-2.17-7.112-.65-1.916-1.33-3.824-2.06-5.724-.24-.61-1.39-.4-1.18.235 1.36 4.167 2.52 8.368 3.5 12.601 2.66 11.314 4.152 22.828 5.29 34.3.09.921.17 1.841.26 2.753-28.56-.443-57.11-.812-85.67-1.105v-.359c-.32-11.933-.85-23.999-3.28-35.789h-2.18c.57 3.34 1.05 6.678 1.43 10.05.83 7.438 1.14 14.911 1.32 22.375.02 1.23.05 2.46.07 3.69-37.11-.377-74.21-.644-111.32-.803-.15-7.113-.2-14.225-.23-21.338-.02-4.728.14-9.472.22-14.217-.73-.008-1.46-.008-2.19-.008-.14 3.724-.17 7.447-.28 11.146-.208 7.815-.26 15.63-.2 23.438 0 .326.01.645.02.962-10.97-.042-21.93-.083-32.9-.108-24-.059-48-.068-72.01-.026-1.118-11.882-2.09-23.772-3.02-35.663-.49.008-.99 0-1.49 0 .63 11.891 1.47 23.781 2.44 35.663-37.19.06-74.378.235-111.56.535-.92-12.183-2.318-24.342-4.33-36.44h-1c1.75 12.098 2.87 24.265 3.57 36.45-35.62.292-71.24.677-106.86 1.188.882-5.046 1.76-10.092 2.64-15.129 1.31-7.557 2.28-15.155 3.51-22.719h-.45c-1.36 6.627-2.93 13.23-4.22 19.865-1.16 6-2.29 12.008-3.42 18.007-33.16.478-66.32 1.046-99.47 1.716 3.27-13.246 6.45-26.518 9.53-39.797h-3.04c-2.69 11.422-5.43 22.827-8.22 34.224-.46 1.882-.93 3.757-1.4 5.64-25.23.51-50.46 1.07-75.69 1.698-8.74.218-17.49.427-26.25.636 1.362-5.438 2.71-10.887 4.01-16.334 2.08-8.677 4.05-17.362 5.94-26.065-1.04-.008-2.07-.008-3.1-.008-1.5 6.585-3.04 13.17-4.59 19.756-1.79 7.581-3.648 15.162-5.55 22.735-34.81.837-69.65 1.665-104.47 2.736l.03-.1c2.77-8.234 5.61-16.46 8.46-24.685 2.35-6.786 4.74-13.59 6.94-20.425-.63.007-1.25.016-1.88.024-4.69 13.046-8.99 26.2-13.31 39.33-.65 1.974-1.3 3.94-1.948 5.915-34.731 1.08-69.441 2.393-104.091 4.2-.22.586-.45 1.172-.69 1.775 34.619-.812 69.23-1.967 103.85-3.156-4.53 13.741-9.06 27.481-13.521 41.246-.24.727-.468 1.463-.71 2.201-35.88 1.43-71.74 3.163-107.57 5.28-.14.401-.268.794-.4 1.187 35.73-1.498 71.47-2.86 107.212-4.09-4.912 15.186-9.771 30.382-14.551 45.594-.441 1.398-.87 2.795-1.3 4.193-36.74.46-73.47 1.088-110.181 2.117-.16.326-.32.636-.47.945 36.6.151 73.19-.024 109.79-.3-4.52 14.467-8.98 28.952-13.41 43.436-.59 1.925-1.18 3.85-1.76 5.774.31 0 .632 0 .95-.008.01-.059.03-.118.05-.176 5.03-16.367 10.17-32.71 15.39-49.035 36.09-.285 72.19-.653 108.28-.929-2.41 7.614-4.86 15.221-7.288 22.836-2.761 8.67-5.431 17.446-7.492 26.308.742 0 1.48 0 2.23-.008 1.81-7.079 3.96-14.083 6.23-21.07 3.06-9.373 6.17-18.727 9.24-28.09.6-.009 1.2-.018 1.8-.018 34.1-.25 68.19-.485 102.29-.694-2.67 9.597-5.36 19.187-8.09 28.768-1.94 6.836-3.95 13.664-5.91 20.501.872 0 1.74-.009 2.61-.016 1.54-5.055 3.04-10.118 4.54-15.179 3.37-11.348 6.63-22.71 9.84-34.09 35.882-.228 71.75-.42 107.632-.578-2.891 15.898-5.782 31.806-8.662 47.704-.1.561-.2 1.121-.31 1.682.78 0 1.56 0 2.35-.008 2.73-14.962 5.47-29.915 8.202-44.876.269-1.507.549-3.005.829-4.51 11.16-.05 22.32-.109 33.48-.15 30.89-.127 61.77-.21 92.659-.286-.12 10.71-.13 21.421.1 32.132.13 5.783.32 11.565.602 17.347.798 0 1.588 0 2.389-.009-.61-16.484-.69-32.977-.54-49.478 40.94-.092 81.88-.143 122.819-.159 1.85 12.752 3.832 25.488 5.96 38.215.63 3.774 1.27 7.548 1.94 11.322h2.47c-.31-1.766-.61-3.532-.91-5.297-2.5-14.727-4.798-29.47-6.93-44.24 33.54-.008 67.09.008 100.632.058 1.679 10.896 3.569 21.757 5.369 32.643.93 5.64 1.78 11.304 2.42 16.978h2.65c-.39-3.94-.88-7.883-1.44-11.806-1.79-12.627-3.991-25.197-5.88-37.806 36.17.05 72.349.134 108.519.251.99 8.476 2.08 16.944 3.34 25.395 1.21 8.185 2.54 16.36 3.98 24.51l3.03.026c-1.13-6.746-2.18-13.49-3.16-20.25-1.44-9.874-2.76-19.765-3.93-29.664 19.5.058 39 .133 58.5.217 12.21.05 24.43.117 36.65.184 2.58 11.03 5.35 22.032 8.27 33.003 1.79 6.736 3.62 13.464 5.49 20.182.93.143 1.86.268 2.79.385-1.36-4.945-2.7-9.882-4.01-14.836-3.42-12.878-6.69-25.78-9.7-38.725 30.862.16 61.73.335 92.59.535 4.12 14.21 8.43 28.367 12.87 42.5 1.91 6.092 3.84 12.175 5.81 18.242 1.12.066 2.23.125 3.342.184-1.371-4.235-2.721-8.468-4.071-12.71-5.08-16.025-9.97-32.09-14.68-48.19" mask="url(#prefix__d)"/>
        </g>
    </g>
</svg>
