<svg xmlns="http://www.w3.org/2000/svg" width="2048" height="1270" viewBox="0 0 2048 1270">
    <g fill="none" fill-rule="evenodd">
        <path fill="#94B6D7" d="M2048 190H0S887.376-83.407 2048 27.208V190z"/>
        <g>
            <path fill="#94B6D7" d="M0 0H2048V1080H0z" transform="translate(0 190)"/>
            <g fill="#6D94C2" fill-rule="nonzero">
                <path d="M41.91.18C40.11-.45 35 .51 33 3.83c-2.428 4.014-4.159 8.409-5.12 13-.475 2.101-.77 4.239-.88 6.39-.41-1.49-.82-3-1.21-4.48C24.67 14.67 23.52 10.46 21 7 18 2.94 10-2.16 5.35 2.6 1 7.05 6.2 16.88 8.79 21c1.568 2.426 3.384 4.681 5.42 6.73-.38-.05-.75-.12-1.14-.16C9.85 27.18 1.82 27.37.43 31c-1.29 3.4 0 8.34 8.16 6.55C23.33 34.36 28 40.08 28 40.08s3.63-11 16.57-25c3.97-4.25 3.97-12.58-2.66-14.9zM58.14 30.47c-1.8-2.69-6.25-1.09-8.64-.31-5.663 1.749-10.928 4.589-15.5 8.36-.47.42 14.24 1.33 19.8-1.23 2.38-1.08 6.49-3.61 4.34-6.82z" transform="translate(0 190) translate(294 620)"/>
            </g>
            <g fill="#6D94C2" fill-rule="nonzero">
                <path d="M41.91.18C40.11-.45 35 .51 33 3.83c-2.428 4.014-4.159 8.409-5.12 13-.475 2.101-.77 4.239-.88 6.39-.41-1.49-.82-3-1.21-4.48C24.67 14.67 23.52 10.46 21 7 18 2.94 10-2.16 5.35 2.6 1 7.05 6.2 16.88 8.79 21c1.568 2.426 3.384 4.681 5.42 6.73-.38-.05-.75-.12-1.14-.16C9.85 27.18 1.82 27.37.43 31c-1.29 3.4 0 8.34 8.16 6.55C23.33 34.36 28 40.08 28 40.08s3.63-11 16.57-25c3.97-4.25 3.97-12.58-2.66-14.9zM58.14 30.47c-1.8-2.69-6.25-1.09-8.64-.31-5.663 1.749-10.928 4.589-15.5 8.36-.47.42 14.24 1.33 19.8-1.23 2.38-1.08 6.49-3.61 4.34-6.82z" transform="translate(0 190) translate(1535 880)"/>
            </g>
            <g fill="#6D94C2" fill-rule="nonzero">
                <path d="M41.91.18C40.11-.45 35 .51 33 3.83c-2.428 4.014-4.159 8.409-5.12 13-.475 2.101-.77 4.239-.88 6.39-.41-1.49-.82-3-1.21-4.48C24.67 14.67 23.52 10.46 21 7 18 2.94 10-2.16 5.35 2.6 1 7.05 6.2 16.88 8.79 21c1.568 2.426 3.384 4.681 5.42 6.73-.38-.05-.75-.12-1.14-.16C9.85 27.18 1.82 27.37.43 31c-1.29 3.4 0 8.34 8.16 6.55C23.33 34.36 28 40.08 28 40.08s3.63-11 16.57-25c3.97-4.25 3.97-12.58-2.66-14.9zM58.14 30.47c-1.8-2.69-6.25-1.09-8.64-.31-5.663 1.749-10.928 4.589-15.5 8.36-.47.42 14.24 1.33 19.8-1.23 2.38-1.08 6.49-3.61 4.34-6.82z" transform="translate(0 190) translate(1534 8)"/>
            </g>
            <g fill="#6D94C2" fill-rule="nonzero">
                <path d="M41.91.18C40.11-.45 35 .51 33 3.83c-2.428 4.014-4.159 8.409-5.12 13-.475 2.101-.77 4.239-.88 6.39-.41-1.49-.82-3-1.21-4.48C24.67 14.67 23.52 10.46 21 7 18 2.94 10-2.16 5.35 2.6 1 7.05 6.2 16.88 8.79 21c1.568 2.426 3.384 4.681 5.42 6.73-.38-.05-.75-.12-1.14-.16C9.85 27.18 1.82 27.37.43 31c-1.29 3.4 0 8.34 8.16 6.55C23.33 34.36 28 40.08 28 40.08s3.63-11 16.57-25c3.97-4.25 3.97-12.58-2.66-14.9zM58.14 30.47c-1.8-2.69-6.25-1.09-8.64-.31-5.663 1.749-10.928 4.589-15.5 8.36-.47.42 14.24 1.33 19.8-1.23 2.38-1.08 6.49-3.61 4.34-6.82z" transform="translate(0 190) translate(1907 367)"/>
            </g>
            <g fill="#6D94C2" fill-rule="nonzero">
                <path d="M41.91.18C40.11-.45 35 .51 33 3.83c-2.428 4.014-4.159 8.409-5.12 13-.475 2.101-.77 4.239-.88 6.39-.41-1.49-.82-3-1.21-4.48C24.67 14.67 23.52 10.46 21 7 18 2.94 10-2.16 5.35 2.6 1 7.05 6.2 16.88 8.79 21c1.568 2.426 3.384 4.681 5.42 6.73-.38-.05-.75-.12-1.14-.16C9.85 27.18 1.82 27.37.43 31c-1.29 3.4 0 8.34 8.16 6.55C23.33 34.36 28 40.08 28 40.08s3.63-11 16.57-25c3.97-4.25 3.97-12.58-2.66-14.9zM58.14 30.47c-1.8-2.69-6.25-1.09-8.64-.31-5.663 1.749-10.928 4.589-15.5 8.36-.47.42 14.24 1.33 19.8-1.23 2.38-1.08 6.49-3.61 4.34-6.82z" transform="translate(0 190) translate(61 346)"/>
            </g>
            <g fill="#6D94C2" fill-rule="nonzero">
                <path d="M41.91.18C40.11-.45 35 .51 33 3.83c-2.428 4.014-4.159 8.409-5.12 13-.475 2.101-.77 4.239-.88 6.39-.41-1.49-.82-3-1.21-4.48C24.67 14.67 23.52 10.46 21 7 18 2.94 10-2.16 5.35 2.6 1 7.05 6.2 16.88 8.79 21c1.568 2.426 3.384 4.681 5.42 6.73-.38-.05-.75-.12-1.14-.16C9.85 27.18 1.82 27.37.43 31c-1.29 3.4 0 8.34 8.16 6.55C23.33 34.36 28 40.08 28 40.08s3.63-11 16.57-25c3.97-4.25 3.97-12.58-2.66-14.9zM58.14 30.47c-1.8-2.69-6.25-1.09-8.64-.31-5.663 1.749-10.928 4.589-15.5 8.36-.47.42 14.24 1.33 19.8-1.23 2.38-1.08 6.49-3.61 4.34-6.82z" transform="translate(0 190) translate(603 249)"/>
            </g>
            <path fill="#C1D9EE" fill-rule="nonzero" d="M1443.44 864.68c-4.17-3.78-10.22-7-16-6.66-2.278.112-4.492.793-6.44 1.98-.898.552-1.716 1.225-2.43 2-.36.4-1.48 2.54-1.75 2.63.51-.17-2.94-3-4.1-3.49-2.118-.957-4.522-1.068-6.72-.31-3.65 1.42-6.22 5.7-4.4 9.36.314.759 1.09 1.22 1.907 1.132.817-.088 1.478-.704 1.623-1.512.13-2.53 1.93-3.81 5.39-3.93.912.528 1.73 1.204 2.42 2 .747.722 1.592 1.335 2.51 1.82 1.718.781 3.741.41 5.07-.93 2.71-2.68 3.36-5.56 8.2-5.13 4.38.36 7.59 3.64 11.28 5.69 2.8 1.61 6-2.33 3.44-4.65zM1670.19 469.2c-5.9-3.08-13.44-8.91-20.49-9.2-2.267-.233-4.524.525-6.19 2.08-1 1-1.26 3.05-1.71 4.69-3.74-3.24-8.49-7.31-12.95-6.59-6 1-6.92 7.7-8.74 12.42-.62 1.62 1.47 2.49 2.61 1.65 1.263-.936 2.322-2.12 3.11-3.48 1.75-2.68 1.9-5.4 6-3.63 3 1.28 6.15 4.93 8.8 6.93 1.168.81 2.726.769 3.85-.1 3.39-2.18 1.92-8.45 6.77-7.75 2.38.34 4.92 2.5 7 3.66 2.85 1.63 5.67 3.28 8.51 4.92 3.66 2.12 7.16-3.64 3.43-5.6zM1356.19 236.2c-5.9-3.08-13.44-8.91-20.49-9.2-2.267-.233-4.524.525-6.19 2.08-1 1-1.26 3.05-1.71 4.69-3.74-3.24-8.49-7.31-12.95-6.59-6 1-6.92 7.7-8.74 12.42-.62 1.62 1.47 2.49 2.61 1.65 1.263-.936 2.322-2.12 3.11-3.48 1.75-2.68 1.9-5.4 6-3.63 3 1.28 6.15 4.93 8.8 6.93 1.168.81 2.726.769 3.85-.1 3.39-2.18 1.92-8.45 6.77-7.75 2.38.34 4.92 2.5 7 3.66 2.85 1.63 5.67 3.28 8.51 4.92 3.66 2.12 7.16-3.64 3.43-5.6zM141.19 695.2c-5.9-3.08-13.44-8.91-20.49-9.2-2.267-.233-4.524.525-6.19 2.08-1 1-1.26 3.05-1.71 4.69-3.74-3.24-8.49-7.31-12.95-6.59-6 1-6.92 7.7-8.74 12.42-.62 1.62 1.47 2.49 2.61 1.65 1.263-.936 2.322-2.12 3.11-3.48 1.75-2.68 1.9-5.4 6-3.63 3 1.28 6.15 4.93 8.8 6.93 1.168.81 2.726.769 3.85-.1 3.39-2.18 1.92-8.45 6.77-7.75 2.38.34 4.92 2.5 7 3.66 2.85 1.63 5.67 3.28 8.51 4.92 3.66 2.12 7.16-3.64 3.43-5.6zM1906 276.32c-3.1-4.46-9-5.41-14.1-4.61-3.026.576-5.953 1.586-8.69 3-4 1.89-4.69-.54-7.55-2.57-3.17-2.14-7.66-3.03-11.07-.94-1.652.904-2.863 2.443-3.352 4.262-.49 1.818-.214 3.758.762 5.368.52.87 1.68.27 1.71-.58.14-3.52 3.08-6.57 6.82-5.73 1.92.44 3.3 2 4.62 3.27 1.56 1.53 2.85 2.65 5.17 2.62 2.85 0 5.57-2.11 8.21-3 5.56-2 9.32-.9 14 2.52 2.12 1.47 4.81-1.62 3.47-3.61zM1965 969.32c-3.1-4.46-9-5.41-14.1-4.61-3.026.576-5.953 1.586-8.69 3-4 1.89-4.69-.54-7.55-2.57-3.17-2.14-7.66-3.03-11.07-.94-1.652.904-2.863 2.443-3.352 4.262-.49 1.818-.214 3.758.762 5.368.52.87 1.68.27 1.71-.58.14-3.52 3.08-6.57 6.82-5.73 1.92.44 3.3 2 4.62 3.27 1.56 1.53 2.85 2.65 5.17 2.62 2.85 0 5.57-2.11 8.21-3 5.56-2 9.32-.9 14 2.52 2.12 1.47 4.81-1.62 3.47-3.61zM213 243.32c-3.1-4.46-9-5.41-14.1-4.61-3.026.576-5.953 1.586-8.69 3-4 1.89-4.69-.54-7.55-2.57-3.17-2.14-7.66-3.03-11.07-.94-1.652.904-2.863 2.443-3.352 4.262-.49 1.818-.214 3.758.762 5.368.52.87 1.68.27 1.71-.58.14-3.52 3.08-6.57 6.82-5.73 1.92.44 3.3 2 4.62 3.27 1.56 1.53 2.85 2.65 5.17 2.62 2.85 0 5.57-2.11 8.21-3 5.56-2 9.32-.9 14 2.52 2.12 1.47 4.81-1.62 3.47-3.61z" transform="translate(0 190)"/>
        </g>
    </g>
</svg>
