<svg xmlns="http://www.w3.org/2000/svg" width="334" height="257" viewBox="0 0 334 257">
    <g fill="none">
        <path fill="#FFF" d="M184 151.07c-.045.407-.129.809-.25 1.2-2.56 8.68-21.74 16.09-37.8 12.06-8.59-2.15-18.75-8.2-20.38-14.19-.2-.705-.268-1.44-.2-2.17.67-6.5 13-10.16 22.91-11.82-1.242 3.518-1.917 7.21-2 10.94l5.64.44c-.028-2.356.234-4.707.78-7 .353-1.803.917-3.559 1.68-5.23.78-.09 1.51-.14 2.19-.19 1.5-.1 2.9-.15 4.2-.14.474 1.53.845 3.09 1.11 4.67l4-.33c-.13-1.386-.381-2.758-.75-4.1 6.6.73 9.8 2.85 10.93 3.66 1.13.81 8.65 6.22 7.94 12.2z"/>
        <path fill="#302B3A" d="M165.9 139.34l-4 .33c-.265-1.58-.636-3.14-1.11-4.67-.229-.79-.523-1.56-.88-2.3-.72-1.25-2.74 0-3 .12-1.108.515-2 1.404-2.52 2.51-.763 1.671-1.327 3.427-1.68 5.23-.546 2.293-.808 4.644-.78 7l-5.64-.44c.083-3.73.758-7.422 2-10.94.69-2.073 1.777-3.992 3.2-5.65 1.26-1.39 3.62-4 6.41-3.77 2.95.21 5.82 3.46 7.22 8.51.377 1.332.638 2.693.78 4.07zM183 157.26c-.042.114-.092.224-.15.33-1 1.818-2.495 3.315-4.31 4.32-4.61 2.898-9.767 4.818-15.15 5.64-5.66.804-11.42.577-17-.67-4.824-1.192-9.444-3.093-13.71-5.64-2.04-1.21-3.81-2.828-5.2-4.75l-.39-.55c-.793-1.073-1.306-2.328-1.49-3.65-.08-.713-.054-1.435.08-2.14 1.63 6 11.79 12 20.38 14.19 16.06 4 35.24-3.38 37.8-12.06.144 1.706-.152 3.421-.86 4.98z"/>
        <path fill="#E24D34" d="M183 157.26c-.29 4-.89 10.88-1.19 13.78-.56 5.19-1.14 10-1.87 14.66-3.86 8.59-8.65 11.73-16.33 14.42-10.43 3.65-24.58 1.55-31.19-7.8-2.113-3.1-3.623-6.57-4.45-10.23-.08-.83-.15-1.63-.2-2.38-.46-5.94-.89-11.53-.83-18.91 0-1.88.06-3.53.11-4.86l.39.55c1.39 1.922 3.16 3.54 5.2 4.75 4.266 2.547 8.886 4.448 13.71 5.64 5.58 1.247 11.34 1.474 17 .67 5.383-.822 10.54-2.742 15.15-5.64 1.815-1.005 3.31-2.502 4.31-4.32.072-.105.135-.215.19-.33z"/>
        <ellipse cx="94.77" cy="234.52" fill="#302B3A" rx="36.28" ry="22.12"/>
        <path fill="#302B3A" d="M83.26 211c-.06 1-13.25 1.06-22 .68-8.19-.34-16.35-1.171-24.44-2.49-1.29-.186-2.6.176-3.61 1-1.673 1.049-3.518 1.794-5.45 2.2-3.127 1.004-6.54.545-9.29-1.25-1.06-.73-3.61-2.46-3.6-4.87 0-1.93 1.65-3.33 2.4-4 4-3.39 8.72-1.54 10.25-.91 2.194.886 4.197 2.186 5.9 3.83.924 1.08 2.278 1.699 3.7 1.69 4.69-.12 10.66 0 11.53 0 17.08.42 34.69 2.89 34.61 4.12zM67.25 216.53c.22 1-12.47 4.63-21 6.65-7.97 1.904-16.049 3.326-24.19 4.26-1.292.168-2.458.863-3.22 1.92-1.32 1.482-2.894 2.715-4.65 3.64-2.733 1.823-6.145 2.312-9.28 1.33-1.22-.41-4.14-1.38-4.78-3.71-.52-1.86.67-3.65 1.22-4.47 2.9-4.35 8-3.86 9.62-3.67 2.35.25 4.63.957 6.71 2.08 1.18.78 2.64 1.006 4 .62 4.48-1.39 10.27-2.88 11.11-3.09 16.59-4.31 34.21-6.73 34.46-5.56z"/>
        <ellipse cx="95.05" cy="234.64" fill="#FFF" rx="29.22" ry="17.63"/>
        <path fill="#E24D34" d="M99.67 231.11c-3.16-1.61-2.78-4.66-4.86-5.64-3.09-1.46-10.47 2.28-11.43 8.46-.74 4.73 2.57 9 6.11 10.81 5.63 2.91 13.44.49 15.51-4.23 1.15-2.62.79-6.54-1.25-8.15-1.28-1-2.18-.29-4.08-1.25zM112.1 224.58c2.4-2.28 3.6-3.41 4-4.8.82-3.07-1.52-6-1.88-6.48-2.79-3.52-8.9-5.83-13.16-2.92-3.8 2.59-3.67 7.66-3.66 7.93.176 2.827 1.542 5.448 3.76 7.21.47.37 3.83 3 7.21 2 .98-.33 1.9-1.2 3.73-2.94z"/>
        <path fill="#302B3A" d="M114.24 226.64c-.95.18-1.39 2.26-1.49 3.29-.3 3.28 2 4.29 2 7.68 0 2.62-1.42 4-.94 4.39.63.46 3.68-1.4 4.78-4.23 1.86-4.88-2.52-11.45-4.35-11.13zM81.81 228.84c-.33-.92-2.67-1-4.31-.55-2 .51-4.08 2-3.84 3 .24 1 3.19 1.5 5.41.55 1.49-.67 3.05-2.14 2.74-3z"/>
        <path fill="#732622" d="M246.56 80.92c-2.23-4.47-27.3-30.7-36.48-35.76-9.18-5.06-16.31 3.69-13.55 10.11 2.76 6.42 22.33 37.69 29 42.21 10.47 7.09 26.93-4.71 21.03-16.56z"/>
        <path fill="#732622" d="M212.87 45.08c-3.82-11.53-10.09-23.2-8.65-33 0 0-4.34-4.44-6.72-.4S183.88 60 206.34 64.47c0 0 10.34-7.87 6.53-19.39z"/>
        <path fill="#732622" d="M206 15.46c3-1.1.88-5.34 1.6-7.28.36-1-2.06.37-2.4 3.35-.473-3.096-.667-6.229-.58-9.36.21-3-3.84 0-6.32-.44-1-.19-2-.63-2.42.33-1.126 2.382-1.363 5.088-.67 7.63 1.4 6.59.29 6.22-.05 9.52-.34 3.3 7 1.78 7 1.78s.91-4.44 3.84-5.53zM258.77 84.49c2.67-4.22 30.29-27.76 39.93-31.86 9.64-4.1 15.85 5.37 12.45 11.44-3.4 6.07-26.06 35.23-33.16 39-11.14 6.02-26.3-7.4-19.22-18.58z"/>
        <path fill="#732622" d="M298.06 49.22c5-11.06 12.48-22 12.07-31.87 0 0 4.79-4 6.73.31 1.94 4.31 8.46 49.41-14.35 51.53 0 0-9.46-8.91-4.45-19.97z"/>
        <path fill="#732622" d="M306.81 14.31c-2.83-1.4-.31-5.4-.82-7.41-.26-1 2 .59 2 3.59.79-3.032 1.312-6.127 1.56-9.25.11-3 3.81.44 6.33.23 1-.09 2-.42 2.37.58.863 2.492.817 5.209-.13 7.67-2.1 6.39-1 6.15-1 9.47 0 3.32-7.16 1-7.16 1s-.31-4.48-3.15-5.88z"/>
        <ellipse cx="286.86" cy="164.04" fill="#EEC63B" rx="22.18" ry="5.65"/>
        <path fill="#F3AB55" d="M265.53 61.71l-8.79 2.65s-2.3 8.16-.19 10.51c3.78 4.21 10.79 1.43 10.79 1.43-4.69-1.23-2.73-7.73-1.81-14.59z"/>
        <path fill="#732622" d="M246.22 70.59c3-11.68.4-25.43.4-25.43l11.36.16s-3 14-.21 25.87c.66 2.82 1.48 4.93 4.3 5.33 6.322 1.12 12.23 3.91 17.11 8.08 0 0-8.33 37.07-27.76 36.8-19.43-.27-28.58-34.74-28.58-34.74 5.55-8.23 13.95-9.85 18.81-10.41 3.03-.35 3.81-2.67 4.57-5.66z"/>
        <path fill="#CA1F2B" d="M248.54 100.41L251.66 90.09 254.49 100.5z"/>
        <path fill="#FFF" d="M244.45 75.67c1.493 2.96 2.89 5.96 4.19 9 1.345 3.032 2.49 6.149 3.43 9.33h-.56c1.33-3 2.56-6 3.76-9 1.249-3.007 2.252-6.11 3-9.28-.547 3.231-1.425 6.398-2.62 9.45-1.11 3.07-2.35 6.09-3.64 9.1-.029.072-.085.13-.157.16-.071.03-.151.03-.223 0-.084-.04-.149-.112-.18-.2-.91-3.17-2.002-6.285-3.27-9.33-1.193-3.1-2.437-6.177-3.73-9.23z"/>
        <circle cx="251.78" cy="94.84" r="2.71" fill="#F7D45C"/>
        <path fill="#EEC73B" d="M253.83 94.84c0 1.098-.886 1.99-1.984 2-1.098.008-1.998-.87-2.016-1.967-.018-1.098.852-2.006 1.95-2.033.539-.013 1.06.191 1.447.568.386.376.603.893.603 1.432z"/>
        <path fill="#F7D45C" d="M250.32 97.12c.34.214.722.354 1.12.41l3-3c-.048-.399-.185-.781-.4-1.12l-3.72 3.71z" opacity=".55"/>
        <path fill="#F7D45C" d="M251.78 92.13h-.25c-.044.085-.102.163-.17.23l-2.28 2.28v.19c.001.21.028.417.08.62l3.26-3.26c-.21-.041-.425-.062-.64-.06z"/>
        <path fill="#FD8787" d="M268.49 121.6c3.41-14.12 10.09-18.52 3.1-26.31 0 0-16.23-2-19 5.62-2.8-7.56-21-6.15-21-6.15-7.17 7.55-1.15 15.39 1.52 29.82 2.89 15.59-14.3 15.34-20.11 45.62 37.23 16 75.18 2.25 75.18 2.25-2.55-38.03-23.08-36.73-19.69-50.85z"/>
        <path fill="#FFF" d="M252.44 105.64c4.88-4.76 11.26-7.91 18.24-7.08 1.175.142 2.332.41 3.45.8-.564-1.514-1.428-2.898-2.54-4.07 0 0-16.23-2-19 5.62-2.8-7.56-21-6.15-21-6.15-1.186 1.183-2.125 2.59-2.76 4.14 8.48-2.74 18.64-.44 23.61 6.74z"/>
        <path fill="#4C1413" d="M279.58 205.17c32.87 0 33.84-78 18.71-94.12-5.5-5.85-19-4.8-23.13 2.09-11.88 19.7-19.58 53.23-16.91 69.22 1.75 10.55 2.75 22.81 21.33 22.81z"/>
        <path fill="#F7D45C" d="M289.58 169.7c-12.46 0-24.57-7.2-31.12-17.66-2.06 9.995-2.131 20.298-.21 30.32 1.76 10.55 2.79 22.81 21.33 22.81 16.58 0 26.87-17.61 29.45-41.13-5.1 4.45-13.22 5.66-19.45 5.66z"/>
        <path fill="#EEC73B" d="M298.84 168.72c-3.042.662-6.147.997-9.26 1-12.46 0-24.57-7.2-31.12-17.66-2.06 9.995-2.131 20.298-.21 30.32 1.76 10.55 2.79 22.81 21.33 22.81 3.436.006 6.823-.821 9.87-2.41.982-11.839 4.166-23.39 9.39-34.06z"/>
        <path fill="#732622" d="M262.06 211.06c8.95-22.14 39.63-62.68 39.63-91.48 0-10.38-14.11-18-24.38-8.88-12.68 11.3-9.67 76.52-17.6 88.45-1.18 1.77-3.17 4.53-4.35 6 3.53 1.46 3.5 3.53 6.7 5.91z"/>
        <path fill="#4C1413" d="M271.65 129.83c-2.65 27.66-4.38 55.65-10.09 64.24-1.68 2.54-4.52 6.46-6.2 8.6 5 2.05 5 5 9.55 8.39 3.58-8.85 8.56-20.5 13.73-33.54 2.1-5.3 14.17-29.3-6.99-47.69z"/>
        <path fill="#4C1413" d="M202.11 188.42c-11.72-38.9 36.78-47.53 46.15-51.36 10.32-4.22 32.34-5.28 32.34 16 0 22.94-15 42.11-27.63 48.69-8.34 4.37-41.97 16.25-50.86-13.33z"/>
        <path fill="#F7D45C" d="M259.7 184c-23.15 0-33.43-24.38-28.65-41.57-22 8.55-38.45 14.4-28.94 46C211 218 244.63 206.12 253 201.78c6.91-3.6 14.51-11 20-20.67-4.15 1.98-8.703 2.97-13.3 2.89z"/>
        <path fill="#EEC73B" d="M259.7 184c-16.46 0-26.37-12.33-29-25.64-4.12 12.74-13.59 22.53-27.33 27-.62.2-1.27.32-1.9.49.22.85.4 1.65.67 2.54C211 218 244.63 206.12 253 201.78c6.91-3.6 14.51-11 20-20.67-4.15 1.98-8.703 2.97-13.3 2.89z"/>
        <path fill="#732622" d="M265.59 212.68c-1.18-8.89 10.68-36.26 15-55.79 4.64-20.94-31.19-36.6-43.84-1.17-10.83 30.36 16 41.89 16.79 62.48l12.05-5.52z"/>
        <path fill="#F3AB55" d="M288.84 222.26c.16 2.08-2.68 4.48-8.83 4.48-6.92 0-8.63-1.5-15.44 1-4.92 1.8-12.48 1.5-12.42-3.87.06-5.37 36.03-9.87 36.69-1.61z"/>
        <path fill="#FFF" d="M288.07 219.06c.433 1.016.693 2.098.77 3.2 0 0-1.4-5.11-11.4-3.07-10 2.04-17 6.79-22.72 6.79-3.52 0-2.49-4.2-2.49-4.2s32.96-14.78 35.84-2.72z"/>
        <path fill="#4843B7" d="M268.68 213.47s4.76-6.32.2-5.7c-5.06.67-6.41 6.79-11.36 7.39-4.95.6-5.27 0-5.27 0s-1.5 8.73 2.05 8.73c2.05 0 10.53-3.52 19.45-6s11.74-1.84 14.32 1.13c-.94-6.19-10.27-8.18-19.39-5.55z"/>
        <path fill="#D2E6EB" d="M284.07 214.29c-2.754.074-5.396 1.107-7.47 2.92-.36.06-.68.15-1 .23-.57.16-1.19.3-1.82.48-5 1.37-9.88 3.1-13.57 4.32-1 .35-2 .68-2.8.92.27-2.174 1.17-4.222 2.59-5.89-.264.595-.264 1.275 0 1.87 0 0 4-4.25 7.29-4.58 0 0-1.22 2.26-.8 3.06-.07 0 9.07-5.77 17.58-3.33z"/>
        <path fill="#F3AB55" d="M269.3 37c-4.09.55-16.32 3.22-11.46 14.69 4.86 11.47 21.29 7.59 21.65-3.38.36-10.97-6.99-11.77-10.19-11.31z"/>
        <path fill="#F3AB55" d="M276.41 45.36c1.062 2.804 1.686 5.756 1.85 8.75.087 1.484-.152 2.968-.7 4.35-.602 1.404-1.784 2.477-3.24 2.94 1.597-.282 2.995-1.236 3.84-2.62.817-1.409 1.319-2.978 1.47-4.6.291-3.219.086-6.464-.61-9.62l-2.61.8zM248.17 44.69s-2.95-6.82-8.68-.28c-5.11 5.84-.55 19-3.9 23.61-4.24 5.86-9.19 6-9.19 6s9.07 8.6 17.37 2.58c5.06-3.74 4.4-31.91 4.4-31.91z"/>
        <path fill="#732622" d="M255.67 40.75c-4 5.51-5 6.77-5 6.77-.462-1.246-1.673-2.053-3-2-2.13.22-4.95 6.3-3.93 8.06.542 1.01 1.724 1.497 2.82 1.16.17 3.647 1.864 7.055 4.67 9.39 0 0 7.1 5.89 10.25 6.26 3.15.37 5.36-2.81 7.49-7.86 2.13-5.05 8.82-15.19 3.16-19.61s-12.51-7.67-16.46-2.17z"/>
        <path fill="#F3AB55" d="M253.1 30.12c-14.07 3.66-15.31 23.71-8 26.21.424.148.895.04 1.213-.277.317-.318.425-.79.277-1.213-.21-.58-2.11-.7-2.45-1.34-1-2 1.46-7.92 3.9-7.85 1.436.083 2.61 1.174 2.8 2.6 10.56 5.45 17.14 1 23.51-3.26 4.59-3.1 1.5-15.61-6.57-13.39-3.18.88-10.49-2.6-14.68-1.48z"/>
        <path fill="#FD8787" d="M281.42 215.15c-2.149.113-4.204.916-5.86 2.29-.57.16-1.19.3-1.82.48-5 1.37-9.88 3.1-13.57 4.32.19-1.52.822-2.949 1.82-4.11-.19.458-.19.972 0 1.43 0 0 3.06-3.39 5.77-3.75 0 0-.92 1.79-.57 2.38.03 0 7.27-4.73 14.23-3.04z"/>
    </g>
</svg>
