<svg xmlns="http://www.w3.org/2000/svg" width="179" height="179" viewBox="0 0 179 179">
    <g fill="none">
        <path fill="#C88A4D" d="M98.41 176c-.135.18-.285.347-.45.5-.058.063-.126.117-.2.16-.338.286-.72.515-1.13.68-.1.06-.2.09-.3.14-.882.352-1.801.6-2.74.74-.788.133-1.582.22-2.38.26H89.39c-.84 0-1.61 0-2.26-.08-5.57-.4-5.57-2.18-5.57-2.18s-.42-19-.83-44.38v-.37-2.05c-.053-3.047-.103-6.177-.15-9.39v-1.72-2.07c-.14-9.84-.29-20.2-.37-30.5 0-2.26 0-4.52-.07-6.75v-1.94-4.88-6.09-6.67-21.86c.07-11 .22-20.24.52-26.62 0-.61.06-1.17.11-1.71V8.3c0-.78.1-1.49.16-2.14.22-2.59.49-4.14.82-4.46.73-.88 2.61-1.22 4.63-1.21.81.003 1.62.066 2.42.19.212.018.423.051.63.1.16.015.316.046.47.09.066-.012.134-.012.2 0l.65.15c.12 0 .25.07.37.1.115.036.232.066.35.09l.2.07c.36.113.715.246 1.06.4l.43.22.4.23c.163.108.316.228.46.36.036.038.07.078.1.12.04.064.068.135.08.21.04.12.063.244.07.37 0 .25.08.55.12 1v.24c.01.166.01.334 0 .5 0 .2 0 .44.07.66.07.22 0 .6 0 .93.23 3.58.48 9.41.72 16.84 0 .79 0 1.63.06 2.48 0 .55 0 1.15.07 1.73.05.93.07 1.89.1 2.85-.02.051-.02.109 0 .16 0 1 0 2.06.08 3.13 0 1.35.07 2.75.12 4.16 0 .8 0 1.61.07 2.42V42c0 1.37.07 2.77.1 4.19v2.89c.14 5.42.27 11.14.39 17 0 .94.05 1.9.05 2.85.08 2.71.13 5.45.18 8.23V81.06c0 1.31.07 2.62.08 3.92v1l.05 2.9v3.16c0 1.34 0 2.69.1 4 .11 6.43.21 12.81.35 19 0 1.67 0 3.33.06 5 0 1.17 0 2.32.09 3.45 0 2.47.06 4.88.11 7.23.04 2.293.073 4.533.1 6.72v1.3c0 1.39 0 2.75.06 4.1v3.2c0 2.89.09 5.62.12 8.17 0 1.13 0 2.22.07 3.27v3.71c0 1.44 0 2.75.06 4v.81c0 2.27.07 4.19.1 5.72v1.82c.64 1.59.66 2.46.66 2.46z"/>
        <path fill="#C88A4D" d="M98.4 176c-.128.185-.28.353-.45.5-.057.06-.12.114-.19.16-.351.28-.738.512-1.15.69-.096.051-.197.095-.3.13-.882.354-1.801.605-2.74.75.4-.69.82-1.48 1.23-2.37.51-1.09.32-20.73-.29-46.65-.11-4.46-.23-9.11-.35-13.87C93 71.25 90.81 16.56 88.82.67l.62.11c.162.018.322.049.48.09.07-.01.14-.01.21 0l.64.14.36.1.35.1c.434.126.859.283 1.27.47l.43.22c.139.066.273.143.4.23.16.108.31.228.45.36.049.042.092.088.13.14.045.063.076.134.09.21 0 .1 0 .22.07.37.065.4.108.805.13 1.21.011.163.011.327 0 .49 0 .2 0 .43.06.66.06.23 0 .6.06.94.24 3.57.48 9.4.72 16.82 0 .81 0 1.64.07 2.48 0 .57 0 1.16.06 1.75 0 .92.06 1.87.09 2.84-.01.053-.01.107 0 .16 0 1.02.03 2.06.09 3.12 0 1.36.08 2.75.12 4.17 0 .8 0 1.61.06 2.42 0 .57 0 1.14.05 1.71 0 1.37.07 2.77.1 4.18V49.06c.15 5.43.28 11.14.4 17 0 1 0 1.91.06 2.86.06 2.71.12 5.46.17 8.22 0 .88 0 1.76.06 2.65v1.26c0 1.31 0 2.61.07 3.92v1c0 1 0 1.94.06 2.9L97 92.1c0 1.34.06 2.69.08 4 .12 6.42.24 12.81.35 19 0 1.68.06 3.33.08 5 0 1.16 0 2.31.06 3.45 0 2.46.08 4.87.13 7.22 0 2.29.07 4.53.11 6.72v1.3c0 1.4 0 2.76.06 4.11 0 1.08 0 2.14.06 3.19 0 2.88.09 5.62.14 8.17v6.99c0 1.42 0 2.75.06 4v.77c0 2.27.06 4.19.09 5.73v1.81c.17 1.58.18 2.44.18 2.44z" opacity=".4" style="mix-blend-mode:multiply"/>
        <path fill="#A26A3C" d="M84.86 175c-2.29-2.44-3-171.55-1.51-172.35 1.49-.8 3.92.16 3.92 1s7.52 169.79 4.81 171.23c-2.71 1.44-6.32 1.12-7.22.12z" opacity=".4" style="mix-blend-mode:screen"/>
        <path fill="#C88A4D" d="M88.47 165.23c-1.2-12.84.3-51.51.3-51.51s.9 48.28-.3 51.51z" opacity=".6" style="mix-blend-mode:screen"/>
        <path fill="#C88A4D" d="M85.16 110.24c-.9 8.1 1.5 31 1.5 30.26 0-.74-1.2-28.83-1.5-30.26zM90 69.73c-.9 17.4 1.51 56.72 1.51 56.72s-.93-51-1.51-56.72z" opacity=".6" style="mix-blend-mode:multiply"/>
        <path fill="#C88A4D" d="M98.41 176c-.135.18-.285.347-.45.5-.058.063-.126.117-.2.16-.338.286-.72.515-1.13.68-.1.06-.2.09-.3.14-.882.352-1.801.6-2.74.74-.788.133-1.582.22-2.38.26 4.87-4.27 3.9-37.87.56-43.77-2.4-4.26-8.07-3.54-11-2.81v-.37-2.05c-.053-3.047-.103-6.177-.15-9.39v-1.72-2.07c-.14-9.84-.29-20.2-.37-30.5 0 0 10.83-2.21 10.41-5.59-.33-2.69-7.61-3-10.51-3.1V72.17v-6.09-6.67-21.86l.83-31.39s8.21.34 11-4.85c.36.113.715.246 1.06.4l.43.22.4.23c.163.108.316.228.46.36.036.038.07.078.1.12.04.064.068.135.08.21.04.12.063.244.07.37 0 .25.08.55.12 1v.24c.01.166.01.334 0 .5 0 .2 0 .44.07.66.07.22 0 .6 0 .93.23 3.58.48 9.41.72 16.84 0 .79 0 1.63.06 2.48 0 .55 0 1.15.07 1.73.05.93.07 1.89.1 2.85-.02.051-.02.109 0 .16 0 1 0 2.06.08 3.13 0 1.35.07 2.75.12 4.16 0 .8 0 1.61.07 2.42v1.71c0 1.37.07 2.77.1 4.19v2.89c.14 5.42.27 11.14.39 17 0 .94.05 1.9.05 2.85.08 2.71.13 5.45.18 8.23V81.09c0 1.31.07 2.62.08 3.92v1l.05 2.9v3.16c0 1.34 0 2.69.1 4 .11 6.43.21 12.81.35 19 0 1.67 0 3.33.06 5 0 1.17 0 2.32.09 3.45 0 2.47.06 4.88.11 7.23.04 2.293.073 4.533.1 6.72v1.3c0 1.39 0 2.75.06 4.1v3.2c0 2.89.09 5.62.12 8.17 0 1.13 0 2.22.07 3.27v3.71c0 1.44 0 2.75.06 4v.78c0 2.27.07 4.19.1 5.72v1.82c.33 1.59.35 2.46.35 2.46z" opacity=".2" style="mix-blend-mode:multiply"/>
        <path fill="#783F18" d="M45.23 66.53L14 73l-6.51 1.3c1.637-1.995 3.376-3.904 5.21-5.72.698-.308 1.43-.533 2.18-.67C22.05 66.2 44 62.48 44 62.48l1.23 4.05z"/>
        <path fill="#DAA65E" d="M14.88 67.91c-.76 1.582-1.064 3.345-.88 5.09l-6.51 1.3c1.637-1.995 3.376-3.904 5.21-5.72.698-.308 1.43-.533 2.18-.67z" opacity=".2" style="mix-blend-mode:screen"/>
        <path fill="#783F18" d="M169.36 24.44c-2.42-3.32-11.62-4.63-11.62-4.63l-19 4.46 30.62.17z"/>
        <path fill="#935325" d="M2 32.21s6.24-4.46 11.11-5.94C17.98 24.79 152-.15 155.14 0c3.14.15 7.5 3.49 7.5 3.49L2 32.21z"/>
        <path fill="#783F18" d="M177.4 75.44L170 72.77 160.81 79.86z"/>
        <path fill="#C88A4D" d="M173.19 98.66c-3.48 1.92-31.65 6.49-62.57 10.93-40.08 5.73-84.79 11.23-86.54 10.41-.117-.06-.219-.146-.3-.25C20.14 115.93 7.19 76.78 7.5 74.3c.31-2.48 35.71-9.74 35.71-9.74S8 68.51 6.41 66.05C4.78 63.26-3.79 34.12 2 32.21c2.49-.84 40.3-8.21 78.6-15.33 18.46-3.4 37-6.76 51.82-9.26 17.4-2.95 29.58-4.75 30.22-4.13 2.27 2.22 3.85 11.21 3.8 13.77-.05 2.56-22.94 6.38-22.94 6.38s24.78-2.42 25.86.8c1.08 3.22 7.39 46 7.39 46L166.9 76l10.5-.54s3.8 18.79-4.21 23.2z"/>
        <path fill="#DAA65E" d="M23.76 119.72C20.14 115.93 7.19 76.78 7.5 74.3c.31-2.48 35.71-9.74 35.71-9.74S9.34 73.22 9.13 74.93c-.2 1.48 8.27 31.84 14.63 44.79zM6.41 66.05C4.78 63.26-3.79 34.12 2 32.21 5.72 31 86.91 15.33 132.42 7.62 87.76 15.67 4.17 31.16 2.06 34.71c-2.87 4.87 4.35 31.34 4.35 31.34z" opacity=".6" style="mix-blend-mode:screen"/>
        <path fill="#C88A4D" d="M4.7 36.32c-1.91 2.73 2.54 24.3 3.66 26.11 1.12 1.81 72-4.73 72-4.73S11.69 74.31 11.51 76.29c-.18 1.98 12.43 35.87 14.19 37.6 1.76 1.73 141.14-13.27 146.23-18.14 5.09-4.87 4.64-14.89 3.56-16.42-1.08-1.53-18.07-1.82-17.75-2.7.32-.88 14.57-6.4 15.18-8.44.61-2.04-3.56-40.4-5.94-41.76-2.38-1.36-35-1.55-35.13-2.65-.13-1.1 30.26-6 31.59-7.52 1.33-1.52-.55-9.16-2.24-10.34C159.51 4.74 6 34.47 4.7 36.32z" opacity=".3" style="mix-blend-mode:screen"/>
        <path fill="#C88A4D" d="M25.27 50.41c.65-.09 54.93-9.19 54.93-9.19s-46.71 6.43-54.93 9.19zM84.52 84l65.9-11.2s-50.82 7-65.9 11.2zM156.06 47.18l-36.64 5.94s24.58-5.75 36.64-5.94z" opacity=".6" style="mix-blend-mode:screen"/>
        <path fill="#C88A4D" d="M173.19 98.66c-3.48 1.92-31.65 6.49-62.57 10.93 50.87-35.6 25.62-79.38-30-92.71 18.46-3.4 37-6.76 51.82-9.26 17.4-2.95 29.58-4.75 30.22-4.13 2.27 2.22 3.85 11.21 3.8 13.77-.05 2.56-22.94 6.38-22.94 6.38s24.78-2.42 25.86.8c1.08 3.22 7.39 46 7.39 46L166.9 76l10.5-.54s3.8 18.79-4.21 23.2z" opacity=".1" style="mix-blend-mode:multiply"/>
        <path fill="#C88A4D" d="M9.9 40.68c.61-.36 110.26-20.4 110.26-20.4S18.48 35.63 9.9 40.68zM171 88.32L108.55 96s49.85-7.71 62.45-7.68zM29.94 82.54c.87-.11 91.54-17.09 91.54-17.09S38 78.68 29.94 82.54zM102 45.91c1.22-.45 62.89-11.91 62.89-11.91S110.83 41.38 102 45.91zM26 101.25s31-5.48 38.13-6.42c-13.58.39-38.13 6.42-38.13 6.42z" opacity=".6" style="mix-blend-mode:multiply"/>
        <path fill="#FFF" d="M72.9 45.48c.3 2.35-.72 3.55-3.06 3.62-.401.075-.812-.061-1.09-.36l.43 3.26c.09.344.024.71-.18 1-.217.222-.51.354-.82.37-.314.065-.64.026-.93-.11-.26-.226-.41-.555-.41-.9l-2.06-15.89c-.147-.633-.07-1.298.22-1.88.366-.429.896-.683 1.46-.7l2.91-.38c.358-.057.724-.03 1.07.08.294.1.556.276.76.51.194.243.322.533.37.84.056.355.025.72-.09 1.06-.2.66-.38 1.29-.56 1.9l-.53 1.9c-.062.162-.09.336-.08.51.011.11.06.213.14.29.703.606 1.272 1.352 1.67 2.19.397.851.66 1.759.78 2.69zm-4.36 1.68c.066-.208.225-.374.43-.45.22-.082.459-.103.69-.06.667.053.957-.28.87-1-.026-.267-.077-.532-.15-.79-.083-.303-.194-.597-.33-.88-.133-.293-.29-.574-.47-.84-.167-.251-.361-.483-.58-.69-.45-.36-.795-.832-1-1.37-.131-.403-.131-.837 0-1.24.12-.37.23-.69.31-1 .08-.31.16-.53.22-.76l.18-.69c.07-.23.14-.5.23-.8.09-.3.08-.39 0-.46s-.12-.11-.24-.09l-1.13.15c-.22 0-.36.09-.41.19-.045.187-.045.383 0 .57l1.38 10.21zm7.66 1.57c0 .15 0 .24.1.26.1.02.17 0 .32-.17.228-.19.469-.363.72-.52.153-.08.295-.18.42-.3.22-.308.571-.497.95-.51.335.02.649.167.88.41.28.236.47.56.54.92 0 .3-.14.62-.55.94l-1.38 1.1c-.5.42-1.032.801-1.59 1.14-.264.18-.571.288-.89.31-.27.01-.536-.056-.77-.19-.24-.14-.44-.34-.58-.58-.156-.263-.254-.556-.29-.86l-2-15c-.132-.591-.054-1.21.22-1.75.398-.45.97-.708 1.57-.71l6.46-.85c.584-.146 1.203-.044 1.71.28.42.44.663 1.021.68 1.63l.79 6c.116.558.053 1.14-.18 1.66.445-.24.996-.15 1.34.22.28.23.45.568.47.93-.054.377-.226.726-.49 1-.79.974-1.679 1.866-2.65 2.66.495.425 1.035.793 1.61 1.1.54.28 1.11.499 1.7.65.444.107.824.393 1.05.79.129.32.129.68 0 1-.07.166-.165.32-.28.46-.115.129-.264.223-.43.27-.22.053-.45.053-.67 0-.341-.057-.676-.147-1-.27-1.505-.605-2.868-1.518-4-2.68-1.39-1.4-2.558-3.005-3.46-4.76l-1 .13.68 5.29zm4.21-13.92c0-.18-.11-.26-.25-.24l-5.47.72c-.17 0-.24.12-.22.3l.2 1.52 5.94-.78-.2-1.52zm.49 3.75l-5.9.78.25 1.91 5.72-.75c.14 0 .2-.12.17-.32l-.24-1.62zM79.05 43c.213.38.423.74.63 1.08.206.347.433.68.68 1 .434-.378.845-.782 1.23-1.21.37-.43.75-.9 1.13-1.43-.32.132-.656.22-1 .26l-2.67.3zM107.58 35.43c0 .34 0 .58-.16.69-.211.144-.456.23-.71.25l-17.66 2.32c-.245.073-.505.073-.75 0-.15-.08-.25-.29-.29-.64-.059-.233-.007-.48.14-.67.197-.174.447-.276.71-.29l17.63-2.32c.253-.05.516-.018.75.09.194.129.319.338.34.57zM97.78 45l-.1-.77-5.14.67c-.495.124-1.017.075-1.48-.14-.372-.338-.583-.818-.58-1.32l-.39-3c-.086-.382.014-.783.27-1.08.403-.3.888-.47 1.39-.49l12.43-1.64c.498-.107 1.017-.061 1.49.13.343.218.553.594.56 1l.38 2.95c.137.489.05 1.013-.24 1.43-.399.32-.889.506-1.4.53l-5.1.67.1.77 5.91-.78c.64-.08 1 .15 1.07.71.058.234.002.483-.15.67-.193.174-.44.276-.7.29l-5.91.78.08.64 7.83-1c.65-.09 1 .16 1.09.74.06.236 0 .487-.16.67-.205.16-.451.257-.71.28L90.33 50c-.253.05-.516.02-.75-.09-.194-.138-.31-.362-.31-.6-.08-.58.2-.92.84-1l8-1.05-.11-.62-6.08.8c-.253.061-.519.03-.75-.09-.194-.144-.312-.368-.32-.61-.07-.56.21-.88.85-1l6.08-.74zm7.32-12.43c.108.464.001.953-.29 1.33-.4.367-.917.58-1.46.6L91.5 36c-.289.039-.581.039-.87 0-.193-.028-.374-.111-.52-.24-.136-.135-.232-.305-.28-.49-.077-.24-.127-.489-.15-.74l-.29-2.15c-.023-.253-.023-.507 0-.76-.002-.19.05-.378.15-.54.103-.168.257-.297.44-.37.27-.108.552-.179.84-.21l11.81-1.5c.525-.112 1.072-.052 1.56.17.393.292.626.75.63 1.24l.28 2.16zm-2.49-1.87c0-.06 0-.08-.13-.07L91.69 32c-.08 0-.12 0-.11.1l.06.46 11-1.45-.03-.41zm.23 1.77l-11 1.45v.42c.007.037.03.07.062.089.033.02.072.023.108.011L102.77 33c.1 0 .14-.06.13-.14l-.06-.39zm-10.42 8.66l4.77-.63-.09-.69-4.64.62c-.09 0-.12 0-.12.1l.08.6zm.27 2c0 .08.06.12.16.1l4.62-.61-.09-.68-4.77.63.08.56zM104.07 39s-.06-.08-.14-.07l-4.64.62.09.68 4.76-.62-.07-.61zm.26 2l-4.76.63.09.69 4.62-.61c.1 0 .14-.06.13-.15l-.08-.56z"/>
        <path fill="#935325" stroke="#935325" stroke-linecap="round" stroke-linejoin="round" stroke-width="7.55" d="M51 89.27c.15 1.14-.11 1.75-.77 1.83l-10.72 1.41c-.32 0-.62-.15-.93-.57-.317-.472-.497-1.022-.52-1.59-.037-.332-.037-.668 0-1 .042-.352.154-.692.33-1 .21-.362.462-.697.75-1l1.41-1.61c.527-.62 1.087-1.31 1.68-2.07.57-.749 1.091-1.534 1.56-2.35.453-.736.834-1.512 1.14-2.32.263-.757.348-1.565.25-2.36-.05-.645-.352-1.245-.84-1.67-.48-.401-1.114-.57-1.73-.46-.67.042-1.275.417-1.61 1-.338.695-.44 1.482-.29 2.24.109.471.03.966-.22 1.38-.355.353-.83.56-1.33.58-.554.133-1.136.084-1.66-.14-.375-.337-.589-.816-.59-1.32-.31-1.679.048-3.413 1-4.83 1.121-1.422 2.793-2.302 4.6-2.42 1.534-.355 3.147-.01 4.401.943s2.02 2.414 2.089 3.987c.085.69.055 1.39-.09 2.07-.147.742-.365 1.469-.65 2.17-.283.733-.617 1.444-1 2.13-.41.7-.83 1.37-1.26 2-.43.63-1.07 1.48-1.66 2.2-.59.72-1.25 1.5-1.92 2.18l7.35-1c.66-.06 1.07.46 1.23 1.59zM61.18 68.58c1.154-.192 2.34-.043 3.41.43.984.457 1.845 1.142 2.51 2 .733.961 1.297 2.04 1.67 3.19.438 1.3.743 2.64.91 4 .189 1.348.22 2.714.09 4.07-.105 1.21-.402 2.394-.88 3.51-.426.984-1.073 1.856-1.89 2.55-1.803 1.374-4.197 1.697-6.3.85-.982-.46-1.842-1.145-2.51-2-.75-.94-1.338-1.997-1.74-3.13-.476-1.273-.812-2.594-1-3.94-.182-1.355-.225-2.726-.13-4.09.066-1.222.333-2.425.79-3.56.415-1.002 1.063-1.89 1.89-2.59.916-.724 2.019-1.171 3.18-1.29zm2.28 17.32c.6-.057 1.153-.348 1.54-.81.41-.494.7-1.076.85-1.7.185-.732.28-1.485.28-2.24.022-.819-.022-1.638-.13-2.45-.113-.857-.283-1.706-.51-2.54-.212-.792-.514-1.557-.9-2.28-.312-.607-.748-1.142-1.28-1.57-.473-.366-1.072-.528-1.665-.45-.593.076-1.13.386-1.495.86-.398.558-.68 1.19-.83 1.86-.194.793-.3 1.604-.32 2.42-.012.883.041 1.765.16 2.64.106.818.273 1.627.5 2.42.193.729.482 1.428.86 2.08.318.544.747 1.014 1.26 1.38.487.344 1.092.481 1.68.38zM78.77 83.68c.51.039.965.332 1.21.78.159.477.159.993 0 1.47l-.89 4.52c-.078.558-.466 1.023-1 1.2-.497.188-1.054.129-1.5-.16-.697-.44-1.005-1.297-.75-2.08l.87-4.49c.038-.432.256-.827.6-1.09.45-.233.972-.287 1.46-.15h0zM89.1 64.91c1.153-.187 2.336-.042 3.41.42.986.454 1.847 1.14 2.51 2 .729.96 1.293 2.035 1.67 3.18.432 1.3.737 2.64.91 4 .179 1.35.209 2.714.09 4.07-.104 1.21-.401 2.394-.88 3.51-.432.994-1.09 1.874-1.92 2.57-1.802 1.388-4.205 1.711-6.31.85-.978-.462-1.834-1.147-2.5-2-.75-.943-1.338-2.004-1.74-3.14-.482-1.271-.818-2.593-1-3.94-.185-1.355-.232-2.725-.14-4.09.069-1.22.34-2.419.8-3.55.44-1.016 1.128-1.907 2-2.59.887-.72 1.964-1.169 3.1-1.29zm2.28 17.32c.593-.062 1.138-.352 1.52-.81.405-.5.692-1.084.84-1.71.18-.733.267-1.485.26-2.24.02-.825-.02-1.65-.12-2.47-.114-.857-.284-1.705-.51-2.54-.207-.789-.506-1.55-.89-2.27-.314-.609-.75-1.147-1.28-1.58-.47-.376-1.075-.54-1.67-.45-.598.066-1.14.382-1.49.87-.4.554-.683 1.183-.83 1.85-.189.796-.286 1.612-.29 2.43-.012.9.038 1.798.15 2.69.112.817.279 1.626.5 2.42.202.724.495 1.419.87 2.07.317.544.742 1.018 1.25 1.39.5.325 1.103.45 1.69.35zM108.59 62.34c1.151-.19 2.333-.04 3.4.43.991.45 1.856 1.137 2.52 2 .735.975 1.3 2.067 1.67 3.23.434 1.3.739 2.64.91 4 .179 1.346.209 2.707.09 4.06-.103 1.21-.4 2.395-.88 3.51-.434.996-1.091 1.878-1.92 2.58-.862.692-1.902 1.129-3 1.26-1.104.174-2.236.029-3.26-.42-.98-.463-1.84-1.148-2.51-2-.747-.94-1.331-1.998-1.73-3.13-.48-1.272-.815-2.593-1-3.94-.185-1.355-.232-2.725-.14-4.09.068-1.223.338-2.426.8-3.56.41-1.016 1.062-1.915 1.9-2.62.901-.732 1.995-1.187 3.15-1.31zm2.28 17.32c.592-.064 1.137-.354 1.52-.81.401-.498.688-1.079.84-1.7.188-.732.286-1.484.29-2.24.01-.82-.04-1.638-.15-2.45-.113-.857-.283-1.706-.51-2.54-.207-.792-.506-1.557-.89-2.28-.318-.603-.753-1.137-1.28-1.57-.466-.383-1.075-.547-1.67-.45-.595.067-1.135.378-1.49.86-.398.555-.68 1.184-.83 1.85-.19.8-.286 1.618-.29 2.44-.01.882.04 1.764.15 2.64.11.817.278 1.626.5 2.42.191.73.484 1.43.87 2.08.317.542.742 1.012 1.25 1.38.495.336 1.1.468 1.69.37h0zM128.08 59.77c1.151-.19 2.333-.04 3.4.43.987.456 1.852 1.142 2.52 2 .728.964 1.292 2.042 1.67 3.19.433 1.3.738 2.64.91 4 .179 1.35.21 2.714.09 4.07-.105 1.21-.402 2.394-.88 3.51-.432.997-1.093 1.877-1.93 2.57-.858.7-1.9 1.141-3 1.27-1.105.166-2.234.02-3.26-.42-.98-.463-1.84-1.148-2.51-2-.749-.939-1.334-1.997-1.73-3.13-.465-1.273-.784-2.595-.95-3.94-.185-1.355-.232-2.725-.14-4.09.069-1.223.34-2.425.8-3.56.41-1.016 1.062-1.915 1.9-2.62.895-.711 1.973-1.155 3.11-1.28h0zm2.28 17.32c.59-.064 1.133-.35 1.52-.8.405-.5.692-1.084.84-1.71.189-.732.286-1.484.29-2.24.01-.82-.04-1.638-.15-2.45-.113-.857-.283-1.706-.51-2.54-.209-.791-.507-1.556-.89-2.28-.32-.601-.755-1.135-1.28-1.57-.47-.374-1.075-.537-1.67-.45-.596.063-1.137.376-1.49.86-.398.558-.68 1.19-.83 1.86-.19.796-.286 1.612-.29 2.43-.01.882.04 1.764.15 2.64.11.817.278 1.626.5 2.42.191.73.484 1.43.87 2.08.311.546.738 1.017 1.25 1.38.493.34 1.1.473 1.69.37z"/>
        <path fill="#FFF" d="M51 89.27c.15 1.14-.11 1.75-.77 1.83l-10.72 1.41c-.32 0-.62-.15-.93-.57-.317-.472-.497-1.022-.52-1.59-.037-.332-.037-.668 0-1 .042-.352.154-.692.33-1 .21-.362.462-.697.75-1l1.41-1.61c.527-.62 1.087-1.31 1.68-2.07.57-.749 1.091-1.534 1.56-2.35.453-.736.834-1.512 1.14-2.32.263-.757.348-1.565.25-2.36-.05-.645-.352-1.245-.84-1.67-.48-.401-1.114-.57-1.73-.46-.67.042-1.275.417-1.61 1-.338.695-.44 1.482-.29 2.24.109.471.03.966-.22 1.38-.355.353-.83.56-1.33.58-.554.133-1.136.084-1.66-.14-.375-.337-.589-.816-.59-1.32-.31-1.679.048-3.413 1-4.83 1.121-1.422 2.793-2.302 4.6-2.42 1.534-.355 3.147-.01 4.401.943s2.02 2.414 2.089 3.987c.085.69.055 1.39-.09 2.07-.147.742-.365 1.469-.65 2.17-.283.733-.617 1.444-1 2.13-.41.7-.83 1.37-1.26 2-.43.63-1.07 1.48-1.66 2.2-.59.72-1.25 1.5-1.92 2.18l7.35-1c.66-.06 1.07.46 1.23 1.59zM61.18 68.58c1.154-.192 2.34-.043 3.41.43.984.457 1.845 1.142 2.51 2 .733.961 1.297 2.04 1.67 3.19.438 1.3.743 2.64.91 4 .189 1.348.22 2.714.09 4.07-.105 1.21-.402 2.394-.88 3.51-.426.984-1.073 1.856-1.89 2.55-1.803 1.374-4.197 1.697-6.3.85-.982-.46-1.842-1.145-2.51-2-.75-.94-1.338-1.997-1.74-3.13-.476-1.273-.812-2.594-1-3.94-.182-1.355-.225-2.726-.13-4.09.066-1.222.333-2.425.79-3.56.415-1.002 1.063-1.89 1.89-2.59.916-.724 2.019-1.171 3.18-1.29zm2.28 17.32c.6-.057 1.153-.348 1.54-.81.41-.494.7-1.076.85-1.7.185-.732.28-1.485.28-2.24.022-.819-.022-1.638-.13-2.45-.113-.857-.283-1.706-.51-2.54-.212-.792-.514-1.557-.9-2.28-.312-.607-.748-1.142-1.28-1.57-.473-.366-1.072-.528-1.665-.45-.593.076-1.13.386-1.495.86-.398.558-.68 1.19-.83 1.86-.194.793-.3 1.604-.32 2.42-.012.883.041 1.765.16 2.64.106.818.273 1.627.5 2.42.193.729.482 1.428.86 2.08.318.544.747 1.014 1.26 1.38.487.344 1.092.481 1.68.38zM78.77 83.68c.51.039.965.332 1.21.78.159.477.159.993 0 1.47l-.89 4.52c-.078.558-.466 1.023-1 1.2-.497.188-1.054.129-1.5-.16-.697-.44-1.005-1.297-.75-2.08l.87-4.49c.038-.432.256-.827.6-1.09.45-.233.972-.287 1.46-.15zM89.1 64.91c1.153-.187 2.336-.042 3.41.42.986.454 1.847 1.14 2.51 2 .729.96 1.293 2.035 1.67 3.18.432 1.3.737 2.64.91 4 .179 1.35.209 2.714.09 4.07-.104 1.21-.401 2.394-.88 3.51-.432.994-1.09 1.874-1.92 2.57-1.802 1.388-4.205 1.711-6.31.85-.978-.462-1.834-1.147-2.5-2-.75-.943-1.338-2.004-1.74-3.14-.482-1.271-.818-2.593-1-3.94-.185-1.355-.232-2.725-.14-4.09.069-1.22.34-2.419.8-3.55.44-1.016 1.128-1.907 2-2.59.887-.72 1.964-1.169 3.1-1.29zm2.28 17.32c.593-.062 1.138-.352 1.52-.81.405-.5.692-1.084.84-1.71.18-.733.267-1.485.26-2.24.02-.825-.02-1.65-.12-2.47-.114-.857-.284-1.705-.51-2.54-.207-.789-.506-1.55-.89-2.27-.314-.609-.75-1.147-1.28-1.58-.47-.376-1.075-.54-1.67-.45-.598.066-1.14.382-1.49.87-.4.554-.683 1.183-.83 1.85-.189.796-.286 1.612-.29 2.43-.012.9.038 1.798.15 2.69.112.817.279 1.626.5 2.42.202.724.495 1.419.87 2.07.317.544.742 1.018 1.25 1.39.5.325 1.103.45 1.69.35zM108.59 62.34c1.151-.19 2.333-.04 3.4.43.991.45 1.856 1.137 2.52 2 .735.975 1.3 2.067 1.67 3.23.434 1.3.739 2.64.91 4 .179 1.346.209 2.707.09 4.06-.103 1.21-.4 2.395-.88 3.51-.434.996-1.091 1.878-1.92 2.58-.862.692-1.902 1.129-3 1.26-1.104.174-2.236.029-3.26-.42-.98-.463-1.84-1.148-2.51-2-.747-.94-1.331-1.998-1.73-3.13-.48-1.272-.815-2.593-1-3.94-.185-1.355-.232-2.725-.14-4.09.068-1.223.338-2.426.8-3.56.41-1.016 1.062-1.915 1.9-2.62.901-.732 1.995-1.187 3.15-1.31zm2.28 17.32c.592-.064 1.137-.354 1.52-.81.401-.498.688-1.079.84-1.7.188-.732.286-1.484.29-2.24.01-.82-.04-1.638-.15-2.45-.113-.857-.283-1.706-.51-2.54-.207-.792-.506-1.557-.89-2.28-.318-.603-.753-1.137-1.28-1.57-.466-.383-1.075-.547-1.67-.45-.595.067-1.135.378-1.49.86-.398.555-.68 1.184-.83 1.85-.19.8-.286 1.618-.29 2.44-.01.882.04 1.764.15 2.64.11.817.278 1.626.5 2.42.191.73.484 1.43.87 2.08.317.542.742 1.012 1.25 1.38.495.336 1.1.468 1.69.37zM128.08 59.77c1.151-.19 2.333-.04 3.4.43.987.456 1.852 1.142 2.52 2 .728.964 1.292 2.042 1.67 3.19.433 1.3.738 2.64.91 4 .179 1.35.21 2.714.09 4.07-.105 1.21-.402 2.394-.88 3.51-.432.997-1.093 1.877-1.93 2.57-.858.7-1.9 1.141-3 1.27-1.105.166-2.234.02-3.26-.42-.98-.463-1.84-1.148-2.51-2-.749-.939-1.334-1.997-1.73-3.13-.465-1.273-.784-2.595-.95-3.94-.185-1.355-.232-2.725-.14-4.09.069-1.223.34-2.425.8-3.56.41-1.016 1.062-1.915 1.9-2.62.895-.711 1.973-1.155 3.11-1.28zm2.28 17.32c.59-.064 1.133-.35 1.52-.8.405-.5.692-1.084.84-1.71.189-.732.286-1.484.29-2.24.01-.82-.04-1.638-.15-2.45-.113-.857-.283-1.706-.51-2.54-.209-.791-.507-1.556-.89-2.28-.32-.601-.755-1.135-1.28-1.57-.47-.374-1.075-.537-1.67-.45-.596.063-1.137.376-1.49.86-.398.558-.68 1.19-.83 1.86-.19.796-.286 1.612-.29 2.43-.01.882.04 1.764.15 2.64.11.817.278 1.626.5 2.42.191.73.484 1.43.87 2.08.311.546.738 1.017 1.25 1.38.493.34 1.1.473 1.69.37zM146.41 66.81c-.276.256-.626.417-1 .46-.334-.037-.632-.225-.81-.51-.51-.67-.32-1.35.56-2 .446-.339.868-.71 1.26-1.11.42-.408.817-.839 1.19-1.29.367-.44.7-.89 1-1.35.308-.427.592-.87.85-1.33.182-.396.46-.74.81-1 .32-.16.701-.138 1 .06.295.118.534.343.67.63.08.34.03.696-.14 1l6.54-.86c.433-.072.877-.048 1.3.07.315.095.592.287.79.55.176.262.26.575.24.89-.019.378-.121.747-.3 1.08-.704 1.41-1.621 2.701-2.72 3.83-1.176 1.19-2.465 2.261-3.85 3.2l5.7-.75c.41-.056.826-.076 1.24-.06.28.016.55.11.78.27.22.166.38.397.46.66.116.365.196.74.24 1.12l.56 4.23c.058.39.075.786.05 1.18-.019.27-.12.529-.29.74-.182.209-.422.359-.69.43-.39.108-.788.188-1.19.24l-9.43 1.24c-.404.061-.812.081-1.22.06-.275-.019-.54-.109-.77-.26-.219-.158-.38-.382-.46-.64-.116-.361-.196-.733-.24-1.11L148 72l-.92.35-.95.34c-.46.21-.965.307-1.47.28-.29-.06-.49-.36-.61-.89-.095-.317-.04-.66.15-.93.273-.283.62-.484 1-.58 1.326-.387 2.628-.852 3.9-1.39 1.092-.455 2.142-1.004 3.14-1.64l-1.48-.54c-.49-.21-1-.43-1.67-.66-.278-.093-.538-.232-.77-.41-.169-.108-.301-.265-.38-.45l-.75.71c-.27.2-.53.42-.78.62zm3.64-2.74c.76.27 1.5.55 2.22.85l2.17.92c.59-.493 1.143-1.031 1.65-1.61.504-.58.975-1.187 1.41-1.82.104-.11.159-.258.15-.41 0-.12-.12-.17-.29-.15l-7 .93-.47.57-.48.57.3.06.34.09zm.95 11.42c0 .21.08.33.14.37.124.037.256.037.38 0l8.31-1.1c.13.003.254-.043.35-.13.037-.117.037-.243 0-.36l-.39-3c0-.21-.08-.33-.14-.37-.13-.041-.27-.041-.4 0L151 72c-.113.01-.222.044-.32.1 0 0-.07.17 0 .35l.32 3.04z"/>
    </g>
</svg>
