<svg xmlns="http://www.w3.org/2000/svg" width="1388" height="447" viewBox="0 0 1388 447">
    <g fill="none">
        <path fill="#FFF" d="M234.28 128.8c15.22-.28 960.92 2.93 960.92 2.93 15.32.28 25.36 1.39 35.38 1.39 14.12 0 24.83-5.44 32.25 15 1.118 3.383 1.974 6.846 2.56 10.36 6.73 25.16 12.3 38.17 16.91 56.82 9.73 39.38 9.29 40.15 25.22 88.8 12.17 37.18 16.37 41.69 24.18 84.39 4.92 26.87 1.54 35.49-3.83 47.65-7.67 17.37-91.69 10.49-154.84 2.22-35.92-4.71-39.34-3.85-54.57-8.29-28.66-8.36-966.26-3-995.13.55-24.79 2.81-49.848 2.194-74.47-1.83-9.48-1.66-4.07-28.11-3.17-36.86 2-19.35 9.24-39.28 25.32-77.34 6.47-15.34 12.39-31.3 19.18-46.27 44.25-97.61 37.19-114.66 56.27-131.2 7.86-6.84 34.54-7.33 87.82-8.32z"/>
        <path fill="#925932" d="M1169.83 164.69l-2.61 1.54c-5.63 3.39-8.49 5.12-10.3 7.37-2.74 3.37-3.25 6.48-4.29 6.28-1.04-.2-1.24-3-1.47-5.35-.1-1-.14-1.93-.15-2.78.3-.12.54-.23.68-.3 2.322-1.13 4.256-2.922 5.56-5.15 1.42-.12 2.87-.27 4.35-.47l8.23-1.14z"/>
        <path fill="#F3AB55" d="M1225.88 122.75c-1.89 13.89-13.37 22.92-19.82 28-3.407 2.675-7.037 5.054-10.85 7.11-.47-.705-.888-1.444-1.25-2.21-.73-1.59-.74-2.1-1.4-2.62-1.38-1.08-2.65 1-4.21 2.48-6.47 6.14-7.44 5.28-10.28 6-2.21.53-7.14-.34-12-1.5 1.45-1.32 6-8.75 7.52-10.06-1.644.482-3.313.873-5 1.17-2.312.41-4.652.648-7 .71l-1.28-.38c0-.76.07-1.55.06-2.38-3.166-2.71-7.68-3.172-11.33-1.16 1.31.43 2.7.88 4.19 1.35.332 1.245.552 2.516.66 3.8.22 2.53.83 9.7-3.84 14.17-1.196 1.128-2.612 1.996-4.16 2.55-2.3-.11-4.48-.31-6.52-.57-4.12-.558-8.205-1.34-12.24-2.34-8.67-2-13.73-4.44-20.06-7.46-9.08-4.33-11.8-7.05-12.36-10.26-.46-2.68.73-4.89 1.87-7 1.94-3.6 5-7.07 14-13.65 1.21-.89 2.51-1.6 3.74-2.33.34-.2.68-.41 1-.6 2.888-.042 5.776.081 8.65.37 7.67 1 10.23 4 21 6.83 5.07 1.31 7.67 2 10.67 1.39 6.24-1.18 10.23-5.87 12.08-8 1.945-2.299 3.509-4.895 4.63-7.69.16-.36.29-.71.42-1.06 1.09-.56 2.28-1.15 3.58-1.8 4.33-2.16 8.48-3.15 16.79-5.13 5.912-1.43 11.933-2.366 18-2.8 8.87-.62 10.67.38 11.66 1.17 4.5 3.46 3.41 11.52 3.08 13.9z"/>
        <path fill="#F36B53" d="M1199 170.15c-1.91.72-3.54-4.42-8.87-6.77-3.54-1.56-6.52-.91-13.52.24 0 0-3.55.58-10.55 1.57-2.08.29-4.47.63-7.17 1-1.28.18-2.55.31-3.79.41 2.06-3.29.93-4.68 1.71-8.1.39-1.74 2.07-3 2.23-5.84h1.32c3.1.91 5.56 1.59 7.55 2.07 4.81 1.16 12.58.51 14.78 0 2.85-.69 1-4 3.84-4.64 2.1-.5 4.13-1.08 5.51 0 .67.52.68 1 1.4 2.62.361.767.78 1.505 1.25 2.21.45.72 1 1.58 1.75 2.69 2.9 4.39 3.13 3.89 3.5 5.13.86 2.78.67 6.81-.94 7.41z"/>
        <path fill="#923838" d="M1160.46 149c0 .83 0 1.62-.06 2.38v.41c-.148 2.307-.483 4.597-1 6.85-.78 3.42-1.73 7.61-3.8 10.91-1.135 1.938-2.815 3.5-4.83 4.49l-.6.26c-1.35.56-4.34 1.49-7.1 0-1.434-.834-2.542-2.132-3.14-3.68-.194-.471-.355-.956-.48-1.45 2 .26 4.22.46 6.52.57 1.548-.554 2.964-1.422 4.16-2.55 4.67-4.47 4.06-11.64 3.84-14.17-.108-1.284-.328-2.555-.66-3.8-1.49-.47-2.88-.92-4.19-1.35 3.65-2.012 8.164-1.55 11.33 1.16l.01-.03z"/>
        <path fill="#21417E" d="M1153.49 58.62c-1.2 1.81 1.59 11.37-.14 14-10.15 15.51-16.07 18.11-16.51 19-.7 1.42-4 .82-5.16 3.13v.08c-1.073-3.513-2.143-7.037-3.21-10.57l-.45-1.53c-.65-2.19-1.3-4.37-1.93-6.54-5.13-2.16-13.2-.33-16.69 2.76-.832.744-1.54 1.615-2.1 2.58-2.36-34.48 26.93-38.13 30.41-38.63.26 1.92.2.16 1.18 2.9 1.51 4.24 3 8.4 6.64 10.84 2.37 1.502 5.163 2.196 7.96 1.98z"/>
        <path fill="#21417E" d="M1135.24 44.74L1137.68 42.91 1156.81 41.64 1159.24 41.75 1165.11 44.96 1162.45 58.23 1153.71 64.42 1138.89 62.21z"/>
        <path fill="#F36B53" d="M1149.51 55.69c-7 1-13.58-10.81-13.8-12.39 1.09-.16 7.32-1.4 8.33-1.49 0 0 1.49-6.63-6.12-6.63 1.016.259 2.094.108 3-.42.802-.823 1.172-1.974 1-3.11-.796-.311-1.506-.808-2.07-1.45-1-1.21-2.07-3.58-.94-5 .55-.631 1.343-.996 2.18-1 .488-.025.976.04 1.44.19 1.45.48 2.09 1.84 2.25 1.74.16-.1-.18-.56-.59-1.4.403-.168.834-.26 1.27-.27 1.025.088 1.992.513 2.75 1.21 1.85 1.38 1.68 2.11 2.85 2.51.991.257 2.037.209 3-.14.854-.09 1.653-.463 2.27-1.06.268-.34.447-.743.52-1.17.324.502.83.86 1.41 1 .195.035.395.035.59 0 .13 1.371-.109 2.752-.69 4-1.223 2.28-3.308 3.977-5.79 4.71-1.15.21-1.87 1.73-1.76 3.72l.17 2.31c.91 0 5 0 6.11.11.24.53 4.24 12.34-7.38 14.03zM1157.67 20.88c-.253.127-.48.3-.67.51-.398.481-.667 1.056-.78 1.67-.324-.447-.732-.827-1.2-1.12-.977-.61-2.14-.852-3.28-.68l-4.74 1.38c-1.192.098-2.372.315-3.52.65-.398-.94-.732-1.905-1-2.89-.65-2.33-.46-3.33-.22-4 .218-.6.559-1.148 1-1.61 2.033.389 4.125.345 6.14-.13 1.331-.274 2.615-.742 3.81-1.39.758.815 1.447 1.691 2.06 2.62 1.022 1.547 1.829 3.226 2.4 4.99z"/>
        <path fill="#21417E" d="M1155.14 11.84c-.567.566-1.21 1.05-1.91 1.44-1.195.648-2.479 1.116-3.81 1.39-2.015.475-4.107.519-6.14.13-.441.462-.782 1.01-1 1.61-.24.66-.43 1.66.22 4 .268.985.602 1.95 1 2.89-.36.1-.74.23-1.12.37-.38.14-.89.34-1.3.53-.837.004-1.63.369-2.18 1-1.13 1.42-.1 3.79.94 5 .564.642 1.274 1.139 2.07 1.45.172 1.136-.198 2.287-1 3.11-.906.528-1.984.679-3 .42-3.71-.61-9-4-10-8.82-.66-3.05.24-7.31 2.53-8.34 1.16-.52 2.3-.05 2.61-.65.58-1.12-3.24-3-3-5.29.24-2.29 4.65-3.5 5.87-3.84 2.31-.622 4.728-.721 7.08-.29.843-1.472 1.924-2.793 3.2-3.91 2.89-2.53 8.39-5.35 10.79-3.33 2.4 2.02 1.3 7.99-1.85 11.13z"/>
        <path fill="#21417E" d="M1161.64 24.53c-.38.735-.946 1.36-1.64 1.81-.365.239-.772.405-1.2.49-.195.035-.395.035-.59 0-.58-.14-1.086-.498-1.41-1-.073.427-.252.83-.52 1.17-.628.577-1.43.93-2.28 1-.963.349-2.009.397-3 .14-1.17-.4-1-1.13-2.85-2.51-.758-.697-1.725-1.122-2.75-1.21-.436.01-.867.102-1.27.27.41.84.69 1.33.59 1.4-.1.07-.8-1.26-2.25-1.74-.464-.15-.952-.215-1.44-.19.41-.19.84-.37 1.3-.53.46-.16.76-.27 1.12-.37 1.148-.335 2.328-.552 3.52-.65l4.71-1.38c1.14-.172 2.303.07 3.28.68.468.293.876.673 1.2 1.12.113-.614.382-1.189.78-1.67.19-.21.417-.383.67-.51.415-.23.855-.415 1.31-.55 1.71-.56 2.57-.84 3-.43 1.01.8.48 3.25-.28 4.66z"/>
        <path fill="#FFF" d="M1130.65 82.46c-2.66.28-14 1.21-18.94 5.36-.979.873-1.786 1.92-2.38 3.09-.889-2.46-1.499-5.013-1.82-7.61 0-.54-.13-1.13-.24-1.76.56-.965 1.268-1.836 2.1-2.58 3.49-3.09 15.55-5.3 20.68-3.14.453 2.183.654 4.411.6 6.64z"/>
        <path fill="#F36B53" d="M1200.23 65.15c0 18.2-3 28.92-3 28.92-2.36 8.33-4.09 14.16-8.28 15.16-2.88.69-5.62-1.23-8.63-3.39-3.352-2.428-6.233-5.447-8.5-8.91-.266-4.025-.764-8.032-1.49-12 .5-1.826 1.522-3.466 2.94-4.72 2.43-2.11 7.62-5.12 10.92-4.34.443 1.933.777 3.89 1 5.86.39 2.031.647 4.086.77 6.15.67-2.46 1.27-3.59 2.24-6.82 1.537-5.412 2.542-10.962 3-16.57.28-2.6.44-4.87.53-6.65-.64-.22-5.85.13-6.19-.21-.37-.346-.705-.728-1-1.14-.355-.492-.742-.96-1.16-1.4-.459-.363-.805-.848-1-1.4-.09-.33-.54-.87-.5-1.16 0-.94 1.49-.75.55-1.49-.47-.38-.28-1-.27-1.33.056-.36.284-.669.61-.83-.181-.18-.339-.381-.47-.6-.07-.33.43-.7.79-1 .382-.276.808-.486 1.26-.62-.106-.045-.207-.102-.3-.17-.52-.36-1-1.08-.78-1.48.32-.66 2.33-.29 3.93 0 .948.168 1.884.402 2.8.7.18.03.352.09.51.18.15.092.283.21.39.35 1.37 1.7 2.893 3.269 4.55 4.69.846.622 1.594 1.367 2.22 2.21.921 1.438 1.48 3.078 1.63 4.78.501 2.381.812 4.8.93 7.23z"/>
        <path fill="#21417E" d="M1167.08 43.63c-.59.66-1.19 1.35-1.78 2.08-.059-.173-.15-.332-.27-.47-.14-.171-.31-.317-.5-.43-.623.78-1.461 1.36-2.41 1.67-.34.11-.67.17-1 .24-.203-.976-.491-1.933-.86-2.86-.286-.728-.62-1.436-1-2.12.49 0 1 .12 1.53.19 2.152.338 4.26.908 6.29 1.7z"/>
        <path fill="#FFF" d="M1184.15 75.82c-3.3-.78-8.49 2.23-10.92 4.34-1.418 1.254-2.44 2.894-2.94 4.72-.32-1.91-.68-4-1.08-6.38-.14-.82-.29-1.63-.43-2.41.566-1.379 1.5-2.576 2.7-3.46 2.45-1.75 8.36-4.5 11.56-3.15.588 2.07.96 4.194 1.11 6.34z"/>
        <path fill="#21417E" d="M1168.78 76.09c.14.78.29 1.59.43 2.41.4 2.37.76 4.47 1.08 6.38 1 3.7 10 28.78 10 29 0 0-3.9 2.76-4.53 3.43-2.1 2.21-5.8 6.14-8 8.73-1.85 2.17-5.84 6.86-12.08 8-3 .57-5.6-.08-10.67-1.39-10.76-2.81-13.32-5.83-21-6.83-1.936-.246-3.89-.326-5.84-.24-.35 0-2.43-.16-2.81-.13-.1-.87 2-11.53 2.55-13.71.463-1.666 1.044-3.297 1.74-4.88 1.72 3.49 6.47.22 7.77 2.28 1.08 1.71 1.83 7.34 6.14 6.1 2.75-.79 4.48-2.7 6.91-5.86 5.08-6.62 2.84-14.92 5.36-20.65 3.13-7.11 10.35-11.13 11.26-16.09.19-1.08-1.75-6.78 0-10.78.69-1.55 3.09-3.34 3.57-4.15l.41-1.83c.45 0 .76-3.13 1.17-3.15.31.28-2.75-6.52-2.33-6.3 1.12.57 6.49-3.12 7.1-2.88 12.81 5 15.85 25.47 16 25.85-3.2-1.35-9.11 1.4-11.56 3.15-1.2.91-2.125 2.135-2.67 3.54zM1306.58 132.32c-.21 2.37-3.34 3.84-7.58 5.83-2.643 1.281-5.41 2.287-8.26 3-3.6.86-7.304 1.197-11 1-.63 0-1.2-.07-1.72-.12-5.69-.56-5.8-2.35-15.3-3.61-5.72-.76-7.77-.39-14.57-1.13-.72-.08-1.5-.16-2.34-.27-11.85-1.5-12.63-3-12.83-3.62-1.09-3.26 5.47-8.47 10-11 3.71-2 7.798-3.203 12-3.53-1.53 1.52-2.74 3.3-2.45 5.16.33 2.14 2.46 3.41 4.66 4.67 1.62.93 10.5 5.75 19.94 1.63 2.6-1.13 5.66-2.47 6.77-5.48.515-1.533.553-3.185.11-4.74 2.406.297 4.781.803 7.1 1.51l.25.08c3.22 1 8.55 3.12 12 5.67 2.03 1.63 3.37 3.27 3.22 4.95z"/>
        <path fill="#21417E" d="M1282.81 117.15c-.022.98-.166 1.955-.43 2.9-.37 1.36-1.056 2.613-2 3.66-2.35 2.6-5.48 2.87-8.66 3.16-1.78.15-11.39 1-15.13-5-.557-.898-.952-1.886-1.17-2.92l-.06-.26c1.08-.977 2.222-1.883 3.42-2.71 4.43-3.19 10.61-7.65 17-5.13 2.982 1.255 5.457 3.473 7.03 6.3z"/>
        <path fill="#FFF" d="M1284 125c-1.11 3-4.17 4.35-6.77 5.48-9.44 4.12-18.32-.7-19.94-1.63-2.2-1.26-4.33-2.53-4.66-4.67-.29-1.86.92-3.64 2.45-5.16l.31-.29.06.26c.218 1.034.613 2.022 1.17 2.92 3.74 6 13.35 5.14 15.13 5 3.18-.29 6.31-.56 8.66-3.16.944-1.047 1.63-2.3 2-3.66.264-.945.408-1.92.43-2.9.56.964.984 2 1.26 3.08.444 1.55.41 3.2-.1 4.73z"/>
        <path fill="#FFD974" d="M1278 142.11c-.45 1-1.062 1.919-1.81 2.72-.74.793-1.644 1.414-2.65 1.82-3.6 1.44-7.12-.54-8.63-1.4-1.276-.724-2.425-1.653-3.4-2.75-.343.483-.727.935-1.15 1.35-1.376 1.515-3.222 2.522-5.24 2.86-.23 0-.46.05-.71.06-1.308.038-2.604-.266-3.76-.88-.942-.502-1.8-1.15-2.54-1.92-.92-.95-2.13-2.23-2-3.73.188-1.217.926-2.279 2-2.88 6.8.74 8.85.37 14.57 1.13 9.56 1.27 9.67 3.06 15.32 3.62z"/>
        <path fill="#F36B53" d="M1281.82 178.09c-1.44.31-3 .6-4.51.86-1.18.2-2.33.37-3.45.51-.968-1.262-2.035-2.446-3.19-3.54-2.156-1.299-4.68-1.85-7.18-1.57-1.033.107-2.043.367-3 .77 2.041-3.62 3.26-7.646 3.57-11.79.126-1.507.126-3.023 0-4.53-.341-.101-.675-.225-1-.37-2.6-1.15-3.89-3.17-5.14-5.13-1.274-2.02-2.178-4.252-2.67-6.59 2.018-.338 3.864-1.345 5.24-2.86.423-.415.807-.867 1.15-1.35.975 1.097 2.124 2.026 3.4 2.75 1.51.86 5 2.84 8.63 1.4 1.006-.406 1.91-1.027 2.65-1.82.963 1.845 1.606 3.84 1.9 5.9.67 4.83-1.1 6.71-1.52 11.08-.7 6.19 2.38 7.45 5.12 16.28z"/>
        <path fill="#FFD974" d="M1264 163.34c-.31 4.144-1.529 8.17-3.57 11.79-.65.27-1.2.56-1.67.8-4 2.06-8.14 3.64-12.22 5.44-.295-1.734-.439-3.49-.43-5.25 0-1.07.08-2 .17-2.87.49-4.33 1.55-4.62 2.92-12.48.31-1.82.79-4.87 1.13-8.71.05-.65.1-1.32.15-2 .1-1.52.16-2.91.2-4.14 1.156.614 2.452.918 3.76.88.25 0 .48 0 .71-.06.492 2.338 1.396 4.57 2.67 6.59 1.25 2 2.54 4 5.14 5.13.325.145.659.269 1 .37.139 1.5.152 3.008.04 4.51z"/>
        <path fill="#F36B53" d="M1278.83 195.58c-.21.19-.65.23-1.65-.24.14 1.1.1 1.75-.33 2-.43.25-.45.13-1-.11-.703-.333-1.286-.874-1.67-1.55-.023.029-.055.05-.09.06-.49.24-1.52-.92-1.65-1.07-.415-.484-.731-1.044-.93-1.65-.08.35-.2.58-.39.63-.4.1-1.34-.52-1.37-.57-.346-.615-.554-1.297-.61-2-.15-1.4-1.12-2.44-2.61-3.77-.81-.71-1.42-1-2.34-1.92-.462-.46-.88-.963-1.25-1.5-.88.51-2 1.19-3.16 2-4.93 3.5-7 6.52-9.52 9.59-.6.73-1.22 1.45-1.91 2.19-7.4 7.87-16.32 9.92-22.86 11.43-4.41 1-6.63.89-8.28-.35-3.33-2.51-2.49-8.6-2.21-10.61.54-4 2-6.85 5.59-12.6 6.08-9.77 6.77-9.56 11.78-17.49 4.57-7.22 5.64-10 9.68-12.71 2.5-1.655 5.304-2.794 8.25-3.35-.34 3.84-.82 6.89-1.13 8.71-1.37 7.86-2.43 8.15-2.92 12.48-.09.85-.16 1.8-.17 2.87-.91 1.16-1.87 2.35-2.86 3.54-1.66 2-3.307 3.87-4.94 5.61 1.26-.59 2.94-1.41 5.23-2.52 1-.48 2-.94 3-1.38 4.08-1.8 8.27-3.38 12.22-5.44.47-.24 1-.53 1.67-.8.957-.403 1.967-.663 3-.77 2.5-.28 5.024.271 7.18 1.57 1.155 1.094 2.222 2.278 3.19 3.54l1 1.18c2.48 2.95 3.27 4 3.68 5.6.264 1.086.322 2.212.17 3.32l-.14 1.08c-.017.558.01 1.116.08 1.67.15 2.01.68 2.96.27 3.33z"/>
        <path fill="#F36B53" d="M1304 207.42c-.28 5.41-.72 9.54-3.73 12.83-1.79 1.95-3.74 2.8-7.7 4.2-8.144 2.901-16.503 5.161-25 6.76-2.32.39-5.18.85-8.5 1.26-.88.12-1.79.22-2.72.33-.68.69-1.38 1.39-2.1 2.09-1.66 1.6-3.31 3.09-4.93 4.47 1.38-.13 2.84.37 2.86.83 0 .26-.46.38-3.38 1.4-2.25.78-2.86 1-3.85.93-.625-.016-1.238-.177-1.79-.47-1.077.474-2.268.627-3.43.44-2.08-.69-3.3-.92-3.64-1.13-.11-.07-.215-.15-.31-.24-1.94-.31-4.39-1-4.71-1.51-.249-.477-.282-1.037-.09-1.54l-1 .49c-6 3.06-7.92 2-8.22 1.4-.16-.35 4.52-2.16 10.32-6.88 2.1-1.71 3.15-2.57 3.5-2.8 1.695-1.08 3.52-1.94 5.43-2.56 1.11-.39 2.41-.79 3.9-1.18 2.385-.53 4.8-.917 7.23-1.16 3.83-.65 5.23-1.72 15.86-7.47 9.89-5.34 12.18-6.3 14-7 1.62-.61 3.15-1.12 4.57-1.55-.11-2.81-.16-5.71-.13-8.71 0-1.94.06-3.83.13-5.69 0-.55 0-1.09.07-1.64 1.984-2.662 3.823-5.43 5.51-8.29 2.33-5.84 4.82-12.09 2.45-18.08-1.16-2.91-3.16-5-2.33-7.81.348-1.046.99-1.97 1.85-2.66 1.39 1.298 2.644 2.735 3.74 4.29 2 2.8 4 6.74 5.54 21.15l.06.54c.782 8.296.963 16.638.54 24.96z"/>
        <path fill="#BADC7A" d="M1286.73 193.32c0 .55 0 1.09-.07 1.64-9.23 4.28-12.44 3-13.43 2.42-.42-.24-2.92-1.79-5.83-3.73-.675-.503-1.376-.97-2.1-1.4-3.67-1.51-7 2.56-12.13 3.26-.953.122-1.917.122-2.87 0 2.53-3.07 4.59-6.09 9.52-9.59 1.19-.85 2.28-1.53 3.16-2 .37.537.788 1.04 1.25 1.5.92.93 1.53 1.21 2.34 1.92 1.49 1.33 2.46 2.37 2.61 3.77.056.703.264 1.385.61 2 0 0 1 .67 1.37.57.19-.05.31-.28.39-.63.199.606.515 1.166.93 1.65.13.15 1.16 1.31 1.65 1.07.035-.01.067-.031.09-.06.384.676.967 1.217 1.67 1.55.51.24.53.41 1 .11s.47-.94.33-2c1 .47 1.44.43 1.65.24.41-.37-.12-1.32-.18-3.26-.07-.554-.097-1.112-.08-1.67l.14-1.08c.152-1.108.094-2.234-.17-3.32-.41-1.64-1.2-2.65-3.68-5.6l-1-1.18c1.12-.14 2.27-.31 3.45-.51 1.56-.26 3.07-.55 4.51-.86.29.93.58 2 .86 3.08 2.07 8.38 3.14 13.41 3.14 13.41l.87-1.3z"/>
        <path fill="#FFD974" d="M1294.69 167c2.37 6-.12 12.24-2.45 18.08-1.687 2.86-3.526 5.628-5.51 8.29l-.91 1.27s-1.07-5-3.14-13.41c-.28-1.13-.57-2.15-.86-3.08-2.74-8.83-5.79-10.1-5.21-16.27.42-4.37 2.19-6.25 1.52-11.08-.294-2.06-.937-4.055-1.9-5.9.748-.801 1.36-1.72 1.81-2.72.52 0 1.09.09 1.72.12 3.696.197 7.4-.14 11-1 .39.6.76 1.17 1.09 1.73 4.49 7.34 4.41 10.82 3.21 12.61-.242.36-.52.696-.83 1-.86.69-1.502 1.614-1.85 2.66-.85 2.7 1.15 4.7 2.31 7.7z"/>
        <path fill="#BADC7A" d="M1319.52 165.05c-1.998 1.238-3.906 2.614-5.71 4.12-4.173 3.6-7.668 7.919-10.32 12.75-1.57-14.41-3.57-18.35-5.54-21.15-1.096-1.555-2.35-2.992-3.74-4.29.31-.304.588-.64.83-1 1.2-1.79 1.28-5.27-3.21-12.61 4.135-.911 8.443-.623 12.42.83 8.05 3.12 13.81 11.3 15.27 21.35z"/>
        <path fill="#FFD974" d="M1329.07 152c-.866 2.909-2.24 5.641-4.06 8.07-1.481 2.014-3.347 3.713-5.49 5-1.46-10.05-7.22-18.23-15.27-21.31-3.977-1.453-8.285-1.741-12.42-.83-.33-.56-.7-1.13-1.09-1.73 2.85-.713 5.617-1.719 8.26-3 4.24-2 7.37-3.46 7.58-5.83.15-1.68-1.19-3.33-3.2-4.83 1.848-.574 3.766-.89 5.7-.94 1.51-.043 3.02.092 4.5.4 7.479 1.568 13.487 7.126 15.63 14.46.93 3.459.881 7.107-.14 10.54z"/>
        <path fill="#F36B53" d="M1339.47 135.58c-2.523 6.017-6.039 11.567-10.4 16.42 1.03-3.448 1.08-7.116.14-10.59-2.16-7.315-8.164-12.851-15.63-14.41-1.48-.308-2.99-.443-4.5-.4 1.39-2.56 3-5.24 4.73-8 2-3 6.39-9.08 9.12-12.67-.623-.694-1.176-1.447-1.65-2.25-.99-1.652-1.602-3.503-1.79-5.42-.16-1.24-.23-2.59-.31-4.14-.21-3.85.31-5.18.46-10 .13-3.84.64-6.24.47-8.16l-1.11-5.22c-.69-1.78-2-5-.94-7.23.76-1.59 1.76-1.74 3.5-3.27 4.58-4 3.39-8.06 7.7-10.72.47-.29 2.93-1.82 4.19-.94 1.46 1 .57 4.65 0 7-.62 2.412-1.477 4.757-2.56 7-2.14 5.3-.43 10.76.93 15.16.55 1.805 1.301 3.543 2.24 5.18 1.61 2.84 3.56 5.26 6.16 11.38.56 1.31 1 2.54 1.44 3.67.59 1.59 1 3 1.36 4l.23 1.63c1.726 10.804.417 21.876-3.78 31.98z"/>
        <path fill="#C85041" d="M1382.15 56.74c-2.401 2.681-5.145 5.035-8.16 7-4.92 3.18-9.19 7.41-17.73 15.86-5.562 5.56-10.477 11.733-14.65 18.4-.41-1.13-.88-2.36-1.44-3.67-2.6-6.12-4.55-8.54-6.16-11.38.71-.75 1.51-1.54 2.43-2.39 5.396-4.769 11.255-8.986 17.49-12.59 6.23-3.71 10.86-5.68 12.6-10.72.72-2.1.75-4.18 2.56-5.37 2.17-1.42 4.11.23 8.16 0 5.84-.33 9-4.15 9.8-3.27.8.88-2.11 5.05-4.9 8.13zM1322.93 105.88c-2.73 3.59-7.16 9.63-9.12 12.67-1.77 2.76-3.34 5.44-4.73 8-1.934.05-3.852.366-5.7.94-3.41-2.55-8.74-4.66-12-5.67l-.25-.08c1.93-2.65 3.78-4.88 5.38-6.68 3.563-4.222 7.637-7.985 12.13-11.2 5.43-3.78 7-3.45 10.81-5.65.188 1.917.8 3.768 1.79 5.42.487.804 1.053 1.558 1.69 2.25z"/>
        <path fill="#DF8C53" d="M1269.09 237.46c-2 2.973-4.1 5.973-6.3 9-5 6.933-10 13.5-15 19.7-7.417-3.354-15.03-6.252-22.8-8.68l-2.89-.89c-.59-.19-1.16-.38-1.76-.61l13.54-15.22c.64.16 1.31.29 1.94.39.095.09.2.17.31.24.34.21 1.56.44 3.64 1.13 1.162.187 2.353.034 3.43-.44.552.293 1.165.454 1.79.47 1 .1 1.6-.15 3.85-.93 2.92-1 3.38-1.14 3.38-1.4 0-.46-1.48-1-2.86-.83 1.62-1.38 3.27-2.87 4.93-4.47.72-.7 1.42-1.4 2.1-2.09.93-.11 1.84-.21 2.72-.33 2.743.927 5.379 2.147 7.86 3.64.753.433 1.46.873 2.12 1.32z"/>
        <path fill="#AE6C3E" d="M1221.86 240c.3.63 2.19 1.66 8.22-1.4l1-.49c-.192.503-.159 1.063.09 1.54.818.594 1.77.978 2.77 1.12L1220.36 256c-.46-.17-.94-.37-1.47-.6l-.61-.27c-6.8-3.1-9.35-6.78-17.59-11.1-1.33-.7-2.65-1.37-4-2 4.24-4.51 8.92-9.19 14.11-13.92 3.66-3.333 7.25-6.433 10.77-9.3 4.06 2 8.28 4 12.67 6 2.3 1 4.58 2 6.83 3-1.91.62-3.735 1.48-5.43 2.56-.35.23-1.4 1.09-3.5 2.8-5.76 4.63-10.44 6.44-10.28 6.83z"/>
        <path fill="#21417E" d="M1218.22 254.64l-.38 1.72-22.18-10.75.94-4.11c1.31.64 2.64 1.31 4 2 8.23 4.34 10.79 8.04 17.62 11.14zM1247.83 265.72l-4.09 3.23-22.51-10.95c.27-.64.59-1.33.84-1.88l2.9.89c7.789 2.44 15.423 5.348 22.86 8.71z"/>
        <path fill="#923838" d="M1222.07 256.13c-.25.55-.57 1.24-.84 1.88l-2.76-1.34-.63-.31.38-1.72.61.27c.53.24 1 .43 1.47.6.61.23 1.18.43 1.77.62zM1177.83 208.59c-5.43-7.85-19.72-5.42-22.38-4.9-1.396.263-2.778.596-4.14 1 2.38 1.35 4.13 3.67 4.08 6-.054 1.158-.49 2.266-1.24 3.15.538.198 1.05.456 1.53.77 1.045-2.36 3.265-3.986 5.83-4.27.875-.064 1.754.056 2.58.35.694-1.767 1.935-3.266 3.54-4.28 1.496-1.06 3.357-1.47 5.16-1.14 3.46.92 5.27 5.6 4.9 9.27-.22 1.989-1.055 3.86-2.39 5.35.413.443.804.907 1.17 1.39 1.881-1.834 3.03-4.29 3.23-6.91v-.35c-.066-1.956-.717-3.848-1.87-5.43zM1147.6 225.9c-.256.571-.45 1.168-.58 1.78-6.59-2.2-11.72-6.28-11.87-10.41v-.05c-.06-2.25 1.36-4.36 3.58-6.23-.72 2.54-.61 5.29 1.09 6.92.835.777 1.92 1.231 3.06 1.28-.337.94-.369 1.962-.09 2.92.41 1.026 1.148 1.888 2.1 2.45.829.584 1.743 1.036 2.71 1.34z"/>
        <path fill="#FB8715" d="M1155.39 210.74c-.054 1.158-.49 2.266-1.24 3.15-2.194-.854-4.642-.77-6.772.231-2.13 1.002-3.757 2.834-4.498 5.069-1.14-.049-2.225-.503-3.06-1.28-1.7-1.63-1.81-4.38-1.09-6.92.374-1.345.98-2.614 1.79-3.75 1.33-1.97 3.42-3.3 5.77-3.67 1.746-.14 3.493.266 5 1.16 2.4 1.35 4.15 3.67 4.1 6.01z"/>
        <path fill="#FFF" d="M1158.13 221.74c-1.467-.75-3.142-.99-4.76-.68-2.59.59-4.738 2.392-5.77 4.84-.967-.304-1.881-.756-2.71-1.34-.952-.562-1.69-1.424-2.1-2.45-.279-.958-.247-1.98.09-2.92.741-2.235 2.367-4.067 4.498-5.069 2.13-1.002 4.578-1.085 6.772-.231.538.198 1.05.456 1.53.77 1.037.65 1.85 1.604 2.33 2.73.544 1.392.586 2.93.12 4.35z"/>
        <path fill="#FB8715" d="M1163.31 228.58c-.9.227-1.81.404-2.73.53-4.57.552-9.206.064-13.56-1.43.13-.612.324-1.209.58-1.78 1.032-2.448 3.18-4.25 5.77-4.84 1.618-.31 3.293-.07 4.76.68.515.248 1.004.546 1.46.89 1.056.78 1.947 1.762 2.62 2.89.552.944.925 1.98 1.1 3.06z"/>
        <path fill="#FFF" d="M1176.47 221.33c-3.19 3.42-8.28 6-13.16 7.25-.175-1.08-.548-2.116-1.1-3.06-.673-1.128-1.564-2.11-2.62-2.89.562-1.96 1.798-3.66 3.49-4.8 1.79-1.11 3.917-1.546 6-1.23h.23c2.314.394 4.428 1.557 6 3.3.41.457.798.934 1.16 1.43z"/>
        <path fill="#FB8715" d="M1169.35 216.64h-.23c-2.083-.316-4.21.12-6 1.23-1.692 1.14-2.928 2.84-3.49 4.8-.456-.344-.945-.642-1.46-.89.466-1.42.424-2.958-.12-4.35-.48-1.126-1.293-2.08-2.33-2.73 1.045-2.36 3.265-3.986 5.83-4.27.875-.064 1.754.056 2.58.35 1.609.643 2.998 1.737 4 3.15.566.823.98 1.74 1.22 2.71z"/>
        <path fill="#FFF" d="M1177.69 214.59c-.22 1.989-1.055 3.86-2.39 5.35-1.572-1.743-3.686-2.906-6-3.3-.255-.987-.688-1.92-1.28-2.75-1.002-1.413-2.391-2.507-4-3.15.694-1.767 1.935-3.266 3.54-4.28 1.496-1.06 3.357-1.47 5.16-1.14 3.53.92 5.34 5.6 4.97 9.27z"/>
        <path fill="#21417E" d="M1178.19 224.19c-.786 2.105-1.963 4.043-3.47 5.71-3.482 3.7-8.1 6.132-13.12 6.91-4.904.954-9.983.342-14.52-1.75-3.405-1.605-6.351-4.04-8.57-7.08-2.09-2.95-3.68-7-3.36-10.71.15 4.13 5.28 8.21 11.87 10.41 4.354 1.494 8.99 1.982 13.56 1.43.92-.126 1.83-.303 2.73-.53 4.88-1.21 10-3.83 13.16-7.25 1.881-1.834 3.03-4.29 3.23-6.91.126 3.323-.386 6.64-1.51 9.77z"/>
        <path fill="#FFD974" d="M1199 190.72c.005.073.005.147 0 .22 0 .14 0 .27-.08.4-.34 1.2-1.63 2.36-3.41 3.3-1.165-.452-2.366-.803-3.59-1.05-3.35-.71-8.53-.61-11.29 2.23-1.118-.327-2.088-1.034-2.74-2-.14-.42-.24-.78-.31-1-.28-2.67 3.28-6.15 5.85-7.56 3.41-1.88 6.38-.79 8.78.14 1.71.6 6.79 2.6 6.79 5.32z"/>
        <path fill="#21417E" d="M1180.65 195.83c-.251.256-.479.534-.68.83-.255.357-.466.743-.63 1.15-.55-1.45-1.08-3-1.43-4 .649.973 1.619 1.688 2.74 2.02z"/>
        <path fill="#FFD974" d="M1196.8 199.76c-1.88 5.7-4.34 10.13-6.58 11.06-.284.124-.59.188-.9.19-.268-.01-.533-.053-.79-.13-3.48-1-7-8.11-7.78-9.67v-.1c1.396.796 2.924 1.334 4.51 1.59 4.082.541 8.215-.512 11.54-2.94z"/>
        <path fill="#21417E" d="M1198.94 191.35c-.29 1.61-.65 3.21-1 4.74-.68-.635-1.484-1.125-2.36-1.44 1.73-.94 3.02-2.1 3.36-3.3z"/>
        <path fill="#FFF" d="M1195.53 194.65c-2.704 1.376-5.687 2.114-8.72 2.16-2.095.014-4.177-.324-6.16-1 2.76-2.84 7.94-2.94 11.29-2.23 1.225.254 2.426.612 3.59 1.07z"/>
        <path fill="#21417E" d="M1197.89 196.09c-.33 1.27-.7 2.5-1.09 3.67-3.338 2.441-7.492 3.495-11.59 2.94-1.586-.256-3.114-.794-4.51-1.59-.39-.8-.88-2-1.36-3.3.164-.407.375-.793.63-1.15.201-.296.429-.574.68-.83 1.983.676 4.065 1.014 6.16 1 3.033-.046 6.016-.784 8.72-2.16.875.309 1.677.792 2.36 1.42z"/>
        <path fill="#FFD974" d="M1188.81 215.21c-.495 2.298-1.677 4.39-3.39 6"/>
        <path fill="#01040C" d="M1185.55 221.33l-.27-.29c1.687-1.568 2.85-3.617 3.33-5.87l.39.07c-.498 2.336-1.702 4.462-3.45 6.09z"/>
        <path fill="#FFD974" d="M1196 220.1c0 2.72-2.86 4.93-6.38 4.93s-6.39-2.21-6.39-4.93c0-2.52 2.45-4.59 5.61-4.89.16-.837.194-1.693.1-2.54-.066-.608-.194-1.208-.38-1.79.257.077.522.12.79.13.31-.002.616-.066.9-.19-.137.374-.244.759-.32 1.15-.182 1.074-.117 2.175.19 3.22 3.26.2 5.88 2.32 5.88 4.91z"/>
        <path fill="#2D323D" d="M1193.81 220.76c-.072-.003-.142-.028-.2-.07-1.834-1.34-3.185-3.238-3.85-5.41-.045-.18.062-.361.24-.41.085-.025.176-.014.253.03.077.042.134.115.157.2.624 2.03 1.887 3.805 3.6 5.06.072.05.12.128.134.215.013.087-.01.176-.064.245-.064.085-.163.137-.27.14z"/>
        <path fill="#FFD974" d="M1150.23 169.73c.005.073.005.147 0 .22 0 .13 0 .27-.07.4-.34 1.2-1.64 2.36-3.42 3.3-1.163-.434-2.36-.769-3.58-1-3.35-.71-8.53-.61-11.3 2.23-1.115-.33-2.08-1.036-2.73-2-.14-.43-.25-.78-.32-1-.27-2.67 3.29-6.16 5.85-7.56 3.41-1.88 6.39-.79 8.79.14 1.67.59 6.77 2.54 6.78 5.27z"/>
        <path fill="#21417E" d="M1131.84 174.84c-.557.58-1.002 1.258-1.31 2-.54-1.45-1.08-3-1.42-4 .65.964 1.615 1.67 2.73 2z"/>
        <path fill="#FFD974" d="M1148 178.77c-1.88 5.7-4.35 10.12-6.59 11.06-.281.121-.584.182-.89.18-.27-.006-.54-.046-.8-.12-3.48-1-7-8.11-7.78-9.67v-.1c1.398.791 2.925 1.33 4.51 1.59 4.085.544 8.222-.51 11.55-2.94z"/>
        <path fill="#21417E" d="M1150.14 170.36c-.3 1.61-.66 3.2-1.06 4.74-.68-.635-1.484-1.125-2.36-1.44 1.78-.94 3.08-2.1 3.42-3.3z"/>
        <path fill="#FFF" d="M1146.72 173.66c-2.702 1.378-5.687 2.114-8.72 2.15-2.095.014-4.177-.324-6.16-1 2.77-2.84 8-2.94 11.3-2.23 1.222.257 2.42.619 3.58 1.08z"/>
        <path fill="#21417E" d="M1149.08 175.1c-.33 1.27-.69 2.5-1.08 3.67-3.34 2.444-7.499 3.497-11.6 2.94-1.585-.26-3.112-.799-4.51-1.59-.38-.8-.88-2-1.36-3.3.308-.742.753-1.42 1.31-2 1.983.676 4.065 1.014 6.16 1 3.033-.036 6.018-.772 8.72-2.15.875.312 1.678.798 2.36 1.43z"/>
        <path fill="#FFD974" d="M1140 194.22c-.49 2.3-1.674 4.393-3.39 6"/>
        <path fill="#01040C" d="M1136.75 200.33l-.27-.29c1.683-1.567 2.845-3.612 3.33-5.86l.39.07c-.501 2.332-1.705 4.454-3.45 6.08z"/>
        <path fill="#FFD974" d="M1147.16 199.11c0 2.72-2.86 4.93-6.38 4.93s-6.38-2.21-6.38-4.93c0-2.52 2.44-4.6 5.6-4.89.159-.84.196-1.7.11-2.55-.066-.606-.196-1.202-.39-1.78.26.074.53.114.8.12.306.002.609-.059.89-.18-.14.373-.244.758-.31 1.15-.185 1.073-.123 2.174.18 3.22 3.29.2 5.88 2.32 5.88 4.91z"/>
        <path fill="#2D323D" d="M1145 199.76c-.071 0-.14-.02-.2-.06-1.833-1.34-3.184-3.239-3.85-5.41-.032-.114 0-.237.082-.322.083-.085.205-.12.32-.09.115.03.206.118.238.232.625 2.032 1.892 3.808 3.61 5.06.07.052.117.13.129.217.011.087-.014.175-.069.243-.058.085-.157.134-.26.13z"/>
        <path fill="#F36B53" d="M1172.21 64c-.002.35-.21.668-.53.81l-1.74.74c.102.185.176.384.22.59.093.53-.014 1.075-.3 1.53-.44.27-.91.53-1.41.79.04.302.015.608-.07.9-.19.66-.71 1.16-2.14 1.93-1.1.628-2.276 1.112-3.5 1.44-1.131.302-2.29.486-3.46.55h-1.26l-1 .65c-.681 1.16-1.296 2.36-1.84 3.59-1.77 4-9.57 25.31-14.65 31.93-2.43 3.16-4.16 5.07-6.91 5.86-4.31 1.24-7.06.46-8.71-.71-2.863-2.178-5.358-4.802-7.39-7.77-5.31-8.24-6.46-10.78-8.18-15.93.641-1.139 1.443-2.18 2.38-3.09 4.52-4.43 18.78-5.59 18.78-5.59.601 4.18.988 8.39 1.16 12.61v-.08c1.2-2.31 17.76-23.6 18.68-24.66.802-.829 1.476-1.772 2-2.8.61-1.28 1-2.9 2.09-5.52.17-.46.439-.877.79-1.22.392-.337.87-.558 1.38-.64.337-.06.67-.136 1-.23.944-.32 1.776-.903 2.4-1.68.356.2.632.519.78.9-.3.36-.59.73-.89 1.12-.78 1-1.5 2.06-2.14 3.05.248.093.502.17.76.23.433.1.876.15 1.32.15 1.223-.583 2.494-1.058 3.8-1.42 2.008-.513 4.078-.742 6.15-.68.297.248.544.55.73.89.151.28.265.58.34.89h.34c.477-.072.923.254 1 .73.011.046.018.093.02.14z"/>
        <path fill="#FFD974" d="M170.92 303.2c-.358 2.899 1.653 5.557 4.54 6 13.407 2.06 27.297 3.92 41.67 5.58 19.127 2.18 37.55 3.803 55.27 4.87 2.376.15 4.574-1.259 5.43-3.48.526-1.444.422-3.042-.287-4.406-.71-1.363-1.959-2.366-3.443-2.764-8.46-2.21-15.74-3.73-21.37-4.79-18.063-3.333-36.366-5.202-54.73-5.59-8.54-.27-15.95-.24-21.79-.12-2.67.052-4.899 2.052-5.24 4.7h-.05z"/>
        <path fill="#F3AB55" d="M157.54 305c-.827 2.822.755 5.787 3.56 6.67 12.933 4.113 26.37 8.093 40.31 11.94 18.567 5.1 36.52 9.543 53.86 13.33 2.323.514 4.712-.538 5.9-2.6.778-1.351.942-2.97.451-4.45-.49-1.48-1.59-2.681-3.021-3.3-8-3.48-15-6.11-20.38-8-17.337-6.066-35.134-10.725-53.22-13.93-8.39-1.58-15.71-2.69-21.51-3.48-2.645-.354-5.153 1.278-5.9 3.84l-.05-.02z"/>
        <path fill="#FB8715" d="M1383.72 251.8c-20 21.94-39.06 20.15-39.06 20.15-8.78-.81-14.79-4.91-25.2-2.51-2.005.426-3.957 1.073-5.82 1.93-6.79 3.14-8.7 7.47-14.34 12.15-2.25 1.88-5.42 3.51-11.66 6.71-21 10.75-22.82 8.08-30.24 14.17-8.59 7.07-10.63 14.35-15.43 13.55-1.268-.261-2.38-1.017-3.09-2.1l-.6-.78c-1.237-1.817-2.756-3.423-4.5-4.76l-.73-.53-.53-.34c-3.34-2.11-5.44-2.13-8-2.52-.33 0-.65-.1-1-.17-1.479-.277-2.914-.748-4.27-1.4-1.554-.695-2.991-1.626-4.26-2.76-.23-.2-.44-.41-.66-.63-1.59-1.57-3.1-3.54-5.34-6.25l-.57-.69c-1-1.23-2.24-2.62-3.66-4.17-.84-.9-1.78-1.91-2.85-3l-.71-.71c-1.17-1.18-2.47-2.45-3.92-3.79 8.392-6.714 17.734-12.147 27.72-16.12 11.5-4.54 15.16-3.57 35.29-10.71 17.08-6.06 17.32-7.77 26.77-9.76 14.8-3.13 16 .7 34-1.9 8.28-1.18 20.19-3 33.08-10.39 2.98-1.713 5.842-3.62 8.57-5.71 1.512 1.433 2.492 3.337 2.78 5.4.076.691.076 1.389 0 2.08 0 .38-.09.75-.12 1.1-.13 1.06-.16 1.9.47 2.48.197.188.443.316.71.37.943.038 1.886-.098 2.78-.4 1.236-.299 2.524-.299 3.76 0 1.43.39 2.74 1.125 3.82 2.14.23.222.443.46.64.71.382.467.683.994.89 1.56.193.522.294 1.073.3 1.63 0 .76-.12 1.38-.07 1.9.013.315.14.614.36.84v.05c.569.435 1.3.6 2 .45.51-.054 1.015-.148 1.51-.28 1.27-.32 2.45-.68 2.79-.17.52.83-1.51 3.07-1.61 3.18z"/>
        <path fill="#F3AB55" d="M296.12 344c.103 5.243-4 9.608-9.24 9.83l-6.26.26c-5.27.222-9.743-3.824-10.05-9.09-.25-4.36-.46-8.45-.6-12.26 2.588 1.6 5.428 2.75 8.4 3.4 5.91 1.216 12.056.49 17.52-2.07.11 3.74.18 7.09.23 9.93z"/>
        <path fill="#21417E" d="M295.89 334.11c-5.464 2.56-11.61 3.286-17.52 2.07-2.972-.65-5.812-1.8-8.4-3.4-.32-8.14-.39-14.94-.3-20.11 2.845 2.986 6.544 5.018 10.59 5.82 5.22.913 10.588-.261 14.95-3.27.3 6.78.52 13.24.68 18.89z"/>
        <path fill="#F3AB55" d="M295.21 315.22c-4.362 3.009-9.73 4.183-14.95 3.27-4.046-.802-7.745-2.834-10.59-5.82.05-2.54.15-4.69.27-6.39.127-4.212 1.441-8.302 3.79-11.8 1.12-1.574 2.468-2.973 4-4.15.253-6 .46-12.057.62-18.17.073-2.8.133-5.583.18-8.35 1.05.313 2.144.461 3.24.44 1.082.018 2.16-.127 3.2-.43.167 3.473.347 6.953.54 10.44.273 5.113.563 10.187.87 15.22 1.31.876 2.5 1.918 3.54 3.1 4.24 4.86 4.65 10.86 4.85 14.32.23 2.8.31 5.59.44 8.32z"/>
        <path fill="#21417E" d="M286.52 259.89c0 .57-.85 1.08-2.16 1.37-1.7.347-3.45.347-5.15 0-1.3-.29-2.16-.8-2.16-1.37 0-.9 2.12-1.64 4.74-1.64s4.73.75 4.73 1.64z"/>
        <path fill="#21417E" d="M286.52 259.89v2.74c0 .47-.59.9-1.53 1.19-1.04.303-2.118.448-3.2.43-1.096.021-2.19-.127-3.24-.44-.93-.3-1.5-.71-1.5-1.18v-2.74c0 .57.86 1.08 2.16 1.37 1.7.347 3.45.347 5.15 0 1.31-.26 2.16-.8 2.16-1.37z"/>
        <path fill="#FFD974" d="M1365.41 236.24c0 .38-.09.75-.12 1.1-8.821 5.032-18.533 8.31-28.6 9.65-22.56 2.66-33.43 2.55-33.53 2.55h-.34c-2.841-.106-5.686.105-8.48.63-7 1.36-11.38 4.41-15.64 7.37-1.33.91-2.69 1.86-4.12 2.74-3.484 2.301-7.462 3.747-11.61 4.22-5.764.911-11.418 2.42-16.87 4.5-4.796 1.726-9.458 3.801-13.95 6.21-3.4 1.76-7.26 3.76-13.79 6.5-5.36 2.29-10.88 4.29-16.36 6.13l-.71-.71c5.66-1.85 11.27-3.94 16.78-6.25 6.49-2.73 10.33-4.71 13.71-6.47 4.528-2.427 9.227-4.519 14.06-6.26 5.498-2.09 11.194-3.618 17-4.56 4.037-.443 7.911-1.842 11.3-4.08 1.4-.88 2.76-1.81 4.08-2.72 4.34-3 8.82-6.12 16-7.51 2.857-.54 5.765-.758 8.67-.65h.33c.1 0 10.92.11 33.42-2.54 10.143-1.367 19.918-4.714 28.77-9.85z"/>
        <path fill="#FFD974" d="M1369.25 239.79c-5.32 2.796-10.866 5.138-16.58 7-11 3.56-20.44 4.66-28.06 5.53-6.088.739-12.217 1.093-18.35 1.06-5.13 0-8 0-13.32 2.1-2.707 1.037-5.287 2.379-7.69 4-4.028 2.642-8.246 4.982-12.62 7-3.38 1.59-5 2.24-12 4.95l-5.82 2.27c-26.78 10.46-29.65 12-31.74 13.12-4.877 2.633-9.556 5.618-14 8.93l-.57-.69c4.5-3.342 9.24-6.35 14.18-9 2.22-1.2 5-2.68 31.83-13.16l5.82-2.26c7-2.71 8.6-3.35 12-4.93 4.343-1.989 8.53-4.298 12.53-6.91 2.447-1.668 5.078-3.05 7.84-4.12 5.52-2.15 8.58-2.15 13.65-2.16 6.1.032 12.195-.319 18.25-1.05 7.57-.87 17-2 27.88-5.49 4.823-1.565 9.529-3.474 14.08-5.71.918.001 1.83-.161 2.69-.48z"/>
        <path fill="#FFD974" d="M1377.47 242.67c-24 9.67-45.13 14.57-62.87 14.59h-.91c-7.367-.138-14.72.713-21.86 2.53-6.69 1.75-9.91 3.53-16.3 7.07-3.74 2.08-8.39 4.66-15.39 8.16s-11.76 5.62-15.64 7.36c-6.28 2.81-10.06 4.51-16.09 8.82-4.787 3.406-9.274 7.217-13.41 11.39-.23-.2-.44-.41-.66-.63 4.17-4.211 8.694-8.059 13.52-11.5 6.1-4.36 9.91-6.06 16.24-8.9 3.87-1.73 8.69-3.89 15.6-7.35 6.91-3.46 11.63-6.07 15.37-8.13 6.45-3.58 9.7-5.38 16.5-7.16 7.215-1.843 14.645-2.704 22.09-2.56h.91c17.55 0 38.45-4.87 62.23-14.4.24.22.463.458.67.71z"/>
        <path fill="#FFD974" d="M1378.661 245.86C1357 255.54 1337 260.44 1319 260.44h-2.08c-6-.06-15.16-.16-26.31 3.49-4.228 1.345-8.225 3.331-11.85 5.89-3.74 2.39-8.88 5.66-18.92 10.92-3.07 1.61-5.72 2.95-8 4.13-7.9 4-12.25 6.16-17.91 11.38-3.475 3.219-6.596 6.799-9.31 10.68-.33 0-.65-.1-1-.17 2.81-4.068 6.06-7.814 9.69-11.17 5.75-5.31 10.15-7.53 18.12-11.53 2.33-1.17 5-2.51 8-4.11 10-5.24 15.12-8.51 18.85-10.89 3.67-2.6 7.717-4.624 12-6 11.3-3.69 20.51-3.59 26.6-3.53h2.12c18 0 38-4.91 59.58-14.61.06.31.087.625.081.94z"/>
        <path fill="#FFD974" d="M1379 248.6c-5.019 3.112-10.267 5.836-15.7 8.15-7.41 3.17-22.77 9.74-42.25 9.74h-.52c-3.51 0-6.21-.26-8.6-.46-4.465-.57-8.993-.419-13.41.45-1.68.32-6.82 1.32-18.31 6.95-12 5.88-22.34 10.95-33.11 21.22-4.959 4.742-9.406 9.99-13.27 15.66l-.73-.53c3.882-5.71 8.35-10.998 13.33-15.78 10.87-10.37 21.28-15.46 33.33-21.37 10.39-5.11 15.56-6.46 18.54-7 4.503-.882 9.118-1.037 13.67-.46 2.35.2 5 .44 8.51.46 19.57.09 35-6.49 42.42-9.67 5.429-2.32 10.674-5.047 15.69-8.16.035.307.181.592.41.8z"/>
        <path fill="#FFD974" d="M1382.51 248.82c-4.645 5.074-10.04 9.404-16 12.84-4.695 2.885-9.85 4.945-15.24 6.09-2.9.57-4.39.56-11.51.5h-2.57c-20.06-.14-23.19.16-26.86 1.41-1 .34-4.81 2.3-11.7 5.85-4.53 2.34-7.2 3.78-9.35 4.95-1.83 1-3.28 1.77-5.12 2.69-5.444 2.704-11.095 4.967-16.9 6.77-1.34.44-2.5.82-3.48 1.19-9.26 3.47-17.6 11.78-24.87 24.76l-.6-.78c7.34-13 15.78-21.31 25.15-24.83 1-.37 2.17-.75 3.53-1.2 5.763-1.782 11.371-4.03 16.77-6.72 1.82-.91 3.26-1.69 5.09-2.68 2.15-1.16 4.83-2.61 9.37-4.95 7.16-3.68 10.75-5.54 11.82-5.91 3.79-1.28 7-1.59 27.16-1.45h2.57c7 0 8.51.07 11.33-.49 5.305-1.13 10.378-3.16 15-6 5.546-3.177 10.599-7.145 15-11.78.476-.053.947-.14 1.41-.26z"/>
        <path fill="#21417E" d="M178.61 304.36c0 .32-2.52.24-5.73 2-1.146.63-2.208 1.403-3.16 2.3l-3.82 1.62c.645-2.058 1.957-3.842 3.73-5.07 3.97-2.65 8.95-1.28 8.98-.85zM193.24 308.09c0 .32-2.53.23-5.74 2-1.145.633-2.206 1.405-3.16 2.3l-3.82 1.61c.649-2.056 1.96-3.839 3.73-5.07 3.97-2.64 8.96-1.27 8.99-.84zM208.15 311.15c0 .31-2.53.23-5.74 2-1.138.643-2.199 1.414-3.16 2.3l-3.82 1.63c.646-2.057 1.958-3.841 3.73-5.07 3.98-2.67 8.96-1.29 8.99-.86zM223.73 315.83c0 .32-2.53.24-5.74 2-1.143.635-2.204 1.408-3.16 2.3l-3.83 1.63c.653-2.054 1.964-3.836 3.73-5.07 3.99-2.69 8.97-1.29 9-.86zM240.65 321.38c0 .31-2.53.23-5.74 2-1.14.639-2.201 1.41-3.16 2.3l-3.82 1.63c.644-2.058 1.957-3.843 3.73-5.07 3.98-2.67 8.96-1.24 8.99-.86zM37.19 200.19c-13.73 10.32-25.54 17.55-27 15.79l-.08-.12c-.83-1.67 4.69-8.58 11.31-15.54.65-.68 1.31-1.37 2-2 2.27-2.31 4.62-4.58 6.83-6.59 2-1.81 4-3.56 6.07-5.22.09 2.65.24 5.22.39 7.64.093 2 .253 4.013.48 6.04zM65.83 176.28c-2 1.78-4.08 3.67-6.23 5.59-6.43 5.74-13.46 11.5-20.16 16.62-.16-1.51-.28-3-.38-4.54-.18-2.94-.37-6.12-.44-9.38 2.63-2.06 5.27-4 7.86-5.79l2.06-1.39c5.317-3.599 10.885-6.814 16.66-9.62.3 2.593.51 5.43.63 8.51z"/>
        <path fill="#FFD974" d="M38 205.87c-1.51 1.25-3.11 2.63-4.83 4.14-4.301 4.037-9.28 7.283-14.71 9.59-2.08.86-4.218 1.568-6.4 2.12-.69-2.12-1.33-4.07-1.91-5.74 1.5 1.76 13.31-5.47 27-15.79.27 1.9.53 3.81.85 5.68zM66 184.26c-8.11 8.41-13.7 10.15-25.79 19.85-.293-1.873-.533-3.747-.72-5.62 6.7-5.12 13.73-10.88 20.16-16.62 2.15-1.92 4.27-3.81 6.23-5.59.05 2.51.12 5.17.12 7.98z"/>
        <path fill="#BADC7A" d="M75.8 226.64c-1.89 3.11-4.24 5.49-9 10.23-4.42 4.45-24.68 24.82-36.63 23-.903-.132-1.778-.412-2.59-.83-2-1-2.87-2.57-5.95-9.75.004-.02.004-.04 0-.06-3-7-5.72-15.39-8-22.66-.54-1.7-1.057-3.317-1.55-4.85 2.182-.552 4.32-1.26 6.4-2.12 5.423-2.312 10.395-5.562 14.69-9.6 1.72-1.51 3.32-2.89 4.83-4.14.55 3.28 1.25 6.55 2.1 9.78.14.53.621.9 1.17.9.1.01.2.01.3 0 .31-.08.575-.28.736-.556.161-.276.206-.605.124-.914-.94-3.607-1.697-7.25-2.27-10.93 12.09-9.7 17.68-11.44 25.79-19.85 0 4.37-.2 9.1-.52 14.16-.058.447.137.888.506 1.146.37.259.85.29 1.25.084.4-.208.652-.62.654-1.07.35-5.5.58-11.31.55-17 .47-.52 1-1.08 1.44-1.66 2.647-3.13 5.117-6.405 7.4-9.81.985 3.577 1.79 7.202 2.41 10.86 2.24 14.73 4.8 31.4-3.84 45.64z"/>
        <path fill="#21417E" d="M68.39 181.61c0 5.66-.2 11.47-.55 17-.002.45-.253.862-.653 1.07-.4.207-.882.175-1.25-.084-.37-.258-.565-.7-.507-1.146.32-5.06.49-9.79.52-14.16 0-2.81 0-5.47-.12-8-.12-3.08-.33-5.917-.63-8.51-1.2-10.49-3.81-16.85-7.65-18-3.46-1-7.44 2.11-9.35 3.62-3.299 2.704-5.761 6.29-7.1 10.34-.33.92-.63 1.88-.88 2.85-1.49 5.64-1.74 12-1.6 18-.79.62-1.58 1.25-2.36 1.89-.27-7.38-.06-15.35 2.13-22.28.28-.88.58-1.74.94-2.59 1.532-3.947 4.074-7.423 7.37-10.08 2.06-1.62 6.88-5.42 11.53-4 5.34 1.58 8.1 9.24 9.33 19.24.28 2.35.49 4.84.63 7.41.14 2.57.19 4.89.2 7.43z"/>
        <path fill="#21417E" d="M41.57 216.51c-.1.01-.2.01-.3 0-.549 0-1.03-.37-1.17-.9-.85-3.23-1.55-6.5-2.1-9.78-.32-1.89-.58-3.78-.81-5.68-.23-1.9-.41-4.06-.54-6.09-.15-2.42-.3-5-.39-7.64.78-.64 1.57-1.27 2.36-1.89.07 3.26.26 6.44.44 9.38.1 1.51.22 3 .38 4.54.193 1.88.433 3.753.72 5.62.58 3.667 1.337 7.31 2.27 10.93.095.314.056.654-.106.94-.163.285-.435.49-.754.57zM39.33 161.59c-.36.85-.66 1.71-.94 2.59-3.411-4.328-8.018-7.559-13.25-9.29-2.83-.88-10.37-3.2-16 .89-3.869 2.979-6.002 7.687-5.69 12.56.42 4.69 3.42 7.43 7.21 10.89 3.79 3.46 8.34 7.55 11.26 14.77.572 1.39 1.053 2.817 1.44 4.27-.67.68-1.33 1.37-2 2-.41-1.848-.976-3.657-1.69-5.41-2.75-6.71-7-10.53-10.64-13.9-4-3.66-7.49-6.82-8-12.46-.419-5.72 2.093-11.263 6.67-14.72 6.6-4.8 15.27-2.13 18.12-1.25 5.252 1.718 9.927 4.853 13.51 9.06zM48.54 177.39l-2.06 1.39c-1.546-4.319-3.65-8.417-6.26-12.19.25-1 .55-1.93.88-2.85 3.13 4.164 5.637 8.763 7.44 13.65z"/>
        <path fill="#BADC7A" d="M30.22 259.87c-3.923.097-7.831-.51-11.54-1.79-1.77-.64-10.88-1.08-10.88-7.79 0-3.83 1.4-10.08 2-23.44.19-3.91.4-8.57.24-11l.08.12c.58 1.67 1.22 3.62 1.91 5.74.493 1.527 1.01 3.143 1.55 4.85.1 4.47.34 8.11.59 10.87.07.88 1.08 12.17-1.28 14.64-.11.11-.51.51-.43.92.16.76 1.86.79 4.27 1.35 3.26.76 3.78 1.56 4.47 1.2.69-.36 1.31-1.41.45-6.26 3.08 7.18 4 8.72 5.95 9.75.82.424 1.706.708 2.62.84z"/>
        <path fill="#21417E" d="M21.23 255.55c-.69.36-1.21-.44-4.47-1.2-2.41-.56-4.11-.59-4.27-1.35-.08-.41.32-.81.43-.92 2.36-2.47 1.35-13.76 1.28-14.64-.25-2.76-.49-6.4-.59-10.87 2.33 7.27 5.07 15.7 8.05 22.66.004.02.004.04 0 .06.88 4.85.16 5.97-.43 6.26zM75.91 165.62c0 1.38-3.22 4.74-7.71 8.93-.14-2.57-.35-5.06-.63-7.41 4.59-2 7.67-2.7 8.24-1.87l.1.35z"/>
        <path fill="#FFD974" d="M77.24 170.58c-2.283 3.408-4.753 6.686-7.4 9.82-.49.58-1 1.13-1.44 1.66 0-2.55-.08-5.07-.2-7.51 4.49-4.19 7.7-7.55 7.71-8.93.31 1.19.8 2.94 1.33 4.96z"/>
    </g>
</svg>
