<svg xmlns="http://www.w3.org/2000/svg" width="375" height="470" viewBox="0 0 375 470">
    <g fill="none">
        <path fill="#FFF" d="M59 95.864c7.536-.346 192.245 1.853 192.245 1.853 7.586.346 54.153-1.417 59.114-1.417 6.991 0 37.967-20.929 41.641 4.326.554 4.18 0 11.345 2.92 40.709 4 28.029 5.08 46.523 7.08 73.745 3.415 46.48 2.2 21.43 4.22 84.93.647 20.346 3.48 36.654 4.48 85.799.497 24.445.497 24.445 3.09 61.246 1.533 21.746-11.874 17.026-38.605 19.287-20.08 1.698-51.031-1.582-65.456 0-21.843 2.395-214.936-3.707-229.23.68-12.275 3.472-24.683 2.71-36.874-2.262-4.694-2.05-2.191-34.636-1.57-45.544C3.94 386.094 3.94 374.645 9.27 314.352c5.328-60.292 6.767-74.306 8.24-92.7 4.011-50.103 3.084-80.022 7.469-101.096C29.839 97.2 32.619 97.087 59 95.864z"/>
        <path fill="#925932" d="M329 101l-1.526.912c-3.29 2.007-4.962 3.032-6.02 4.364-1.601 1.995-1.9 3.837-2.507 3.719-.608-.119-.725-1.777-.86-3.168-.058-.592-.081-1.143-.087-1.647.175-.07.316-.136.397-.177 1.357-.669 2.488-1.73 3.25-3.05.83-.07 1.678-.16 2.543-.278L329 101z"/>
        <path fill="#F3AB55" d="M363.783 75.311c-1.149 8.473-8.126 13.982-12.046 17.08-2.07 1.632-4.277 3.083-6.594 4.338-.286-.43-.54-.881-.76-1.349-.444-.97-.45-1.28-.85-1.598-.84-.659-1.612.61-2.56 1.513-3.932 3.746-4.521 3.221-6.248 3.66-1.343.323-4.339-.207-7.293-.915.881-.805 3.647-5.337 4.57-6.137-.998.294-2.013.533-3.038.714-1.406.25-2.828.395-4.255.433l-.778-.232c0-.463.043-.945.037-1.451-1.924-1.653-4.668-1.935-6.886-.708.796.262 1.64.537 2.546.823.202.76.336 1.535.402 2.319.133 1.543.504 5.917-2.334 8.643-.727.688-1.588 1.218-2.529 1.556-1.398-.067-2.722-.19-3.962-.348-2.504-.34-4.987-.817-7.44-1.427-5.269-1.22-8.344-2.709-12.191-4.55-5.519-2.642-7.172-4.301-7.512-6.26-.28-1.634.443-2.983 1.136-4.27 1.18-2.196 3.039-4.313 8.509-8.326.735-.543 1.525-.976 2.273-1.422.207-.122.413-.25.608-.366 1.755-.026 3.51.05 5.257.226 4.662.61 6.218 2.44 12.763 4.166 3.082.8 4.662 1.22 6.485.848 3.793-.72 6.218-3.58 7.342-4.88 1.182-1.402 2.132-2.986 2.814-4.69.097-.22.176-.434.255-.648.663-.341 1.386-.701 2.176-1.098 2.632-1.317 5.154-1.921 10.205-3.129 3.593-.872 7.252-1.443 10.94-1.708 5.39-.378 6.484.232 7.086.714 2.735 2.11 2.073 7.027 1.872 8.479z"/>
        <path fill="#F36B53" d="M348.108 103.957c-1.18.451-2.186-2.77-5.478-4.243-2.185-.978-4.026-.57-8.348.15 0 0-2.192.364-6.514.984-1.285.182-2.76.395-4.428.627-.79.113-1.574.194-2.34.257 1.272-2.062.574-2.934 1.056-5.077.24-1.091 1.278-1.88 1.377-3.66h.815c1.914.57 3.433.996 4.662 1.297 2.97.727 7.768.32 9.126 0 1.76-.433.618-2.508 2.372-2.909 1.296-.313 2.55-.677 3.402 0 .414.326.42.627.864 1.642.223.481.481.944.772 1.386.278.451.618.99 1.08 1.686 1.792 2.752 1.934 2.438 2.162 3.215.531 1.743.414 4.269-.58 4.645z"/>
        <path fill="#923838" d="M324 91.416c0 .496 0 .967-.037 1.421v.245c-.092 1.377-.299 2.744-.619 4.09-.483 2.04-1.07 4.542-2.351 6.512-.702 1.157-1.742 2.089-2.989 2.68l-.371.155c-.835.335-2.685.89-4.393 0-.888-.497-1.573-1.272-1.943-2.196-.12-.282-.22-.57-.297-.866 1.238.155 2.611.275 4.034.34.958-.33 1.834-.849 2.574-1.522 2.89-2.668 2.512-6.949 2.376-8.459-.066-.766-.203-1.525-.408-2.268-.922-.28-1.782-.55-2.593-.806 2.258-1.201 5.052-.925 7.01.692l.007-.018z"/>
        <path fill="#21417E" d="M319.725 35.687c-.744 1.115.986 7.006-.086 8.627-6.294 9.557-9.965 11.16-10.238 11.708-.434.875-2.48.505-3.2 1.929V58c-.665-2.165-1.329-4.336-1.99-6.513l-.28-.943c-.402-1.35-.805-2.693-1.196-4.03-3.18-1.331-8.185-.204-10.349 1.7-.516.459-.955.996-1.302 1.59C289.62 28.557 307.783 26.308 309.94 26c.162 1.183.124.099.732 1.787.936 2.613 1.86 5.176 4.117 6.68 1.47.925 3.202 1.353 4.936 1.22z"/>
        <path fill="#21417E" d="M309 26.905L310.47 25.781 321.998 25 323.463 25.068 327 27.04 325.397 35.196 320.13 39 311.2 37.642z"/>
        <path fill="#F36B53" d="M317.337 33.964c-4.229.602-8.204-6.509-8.337-7.46.658-.097 4.422-.843 5.032-.898 0 0 .9-3.992-3.697-3.992.614.156 1.265.065 1.812-.252.485-.496.708-1.189.605-1.873-.481-.187-.91-.487-1.251-.873-.604-.729-1.25-2.156-.568-3.01.332-.38.812-.6 1.317-.603.295-.015.59.024.87.115.876.289 1.263 1.107 1.36 1.047.096-.06-.11-.337-.357-.843.243-.101.503-.156.767-.162.62.053 1.204.309 1.661.728 1.118.831 1.015 1.27 1.722 1.512.599.155 1.23.125 1.813-.085.515-.054.998-.278 1.37-.638.163-.205.27-.447.315-.704.196.302.5.517.852.602.118.02.238.02.356 0 .078.825-.065 1.657-.417 2.408-.738 1.374-1.998 2.395-3.497 2.836-.695.127-1.13 1.042-1.064 2.24l.103 1.39c.55 0 3.02 0 3.691.067.145.32 2.562 7.43-4.458 8.448zM323 12.557c-.162.076-.307.18-.429.305-.254.288-.426.633-.498 1-.208-.267-.469-.495-.768-.67-.625-.366-1.37-.51-2.098-.408l-3.032.827c-.763.058-1.517.189-2.251.389-.255-.563-.469-1.14-.64-1.73-.416-1.396-.294-1.995-.14-2.396.139-.359.357-.687.639-.964 1.3.233 2.638.206 3.927-.078.852-.164 1.673-.444 2.437-.832.485.488.926 1.013 1.318 1.569.653.926 1.17 1.932 1.535 2.988z"/>
        <path fill="#21417E" d="M321.044 7.37c-.353.352-.752.654-1.187.897-.742.404-1.54.696-2.366.867-1.251.296-2.55.324-3.814.081-.274.288-.485.63-.62 1.004-.15.412-.268 1.035.136 2.494.166.614.374 1.216.621 1.802-.224.063-.46.144-.696.231-.236.087-.552.212-.807.33-.52.003-1.013.23-1.354.624-.702.885-.062 2.363.584 3.118.35.4.791.71 1.285.904.107.708-.123 1.426-.62 1.939-.564.33-1.233.423-1.864.262-2.304-.38-5.59-2.494-6.21-5.5-.41-1.901.148-4.558 1.57-5.2.72-.324 1.429-.031 1.622-.405.36-.699-2.013-1.87-1.864-3.299.15-1.428 2.888-2.182 3.646-2.394 1.434-.388 2.936-.45 4.397-.181.524-.918 1.195-1.742 1.988-2.438C317.286.928 320.7-.83 322.193.43c1.49 1.26.807 4.982-1.15 6.94z"/>
        <path fill="#21417E" d="M324.493 14.814c-.23.426-.573.787-.994 1.049-.221.138-.468.234-.728.284-.118.02-.239.02-.357 0-.352-.082-.658-.29-.855-.58-.044.248-.153.48-.315.678-.38.335-.867.538-1.382.58-.584.202-1.218.23-1.819.08-.709-.231-.606-.654-1.727-1.454-.46-.404-1.046-.65-1.667-.701-.265.006-.526.059-.77.156.249.487.418.771.358.812-.06.04-.485-.73-1.364-1.009-.282-.087-.577-.124-.873-.11.249-.11.51-.214.788-.307.279-.093.46-.156.679-.214.696-.194 1.41-.32 2.134-.377l2.855-.8c.69-.1 1.395.04 1.988.394.284.17.53.39.727.65.069-.356.232-.69.473-.968.115-.122.253-.222.406-.296.252-.134.518-.24.794-.319 1.037-.324 1.558-.486 1.819-.249.612.464.29 1.884-.17 2.7z"/>
        <path fill="#FFF" d="M305.995 50.703c-1.592.176-8.38.759-11.337 3.36-.586.547-1.07 1.204-1.425 1.937-.532-1.543-.897-3.143-1.09-4.77 0-.339-.077-.709-.143-1.103.335-.605.76-1.151 1.257-1.618 2.09-1.937 9.308-3.322 12.379-1.968.27 1.369.391 2.765.359 4.162z"/>
        <path fill="#F36B53" d="M348 39.673c0 11.247-1.806 17.87-1.806 17.87-1.42 5.148-2.462 8.75-4.985 9.369-1.733.426-3.383-.76-5.195-2.095-2.018-1.5-3.752-3.366-5.117-5.506-.16-2.487-.46-4.963-.897-7.415.301-1.128.916-2.142 1.77-2.917 1.463-1.304 4.587-3.164 6.574-2.682.266 1.195.467 2.404.602 3.622.234 1.255.39 2.524.463 3.8.404-1.52.765-2.219 1.349-4.214.925-3.345 1.53-6.774 1.806-10.24.168-1.606.265-3.009.319-4.109-.385-.136-3.522.08-3.726-.13-.223-.213-.425-.45-.602-.704-.214-.304-.447-.593-.699-.865-.276-.225-.485-.524-.602-.865-.054-.204-.325-.538-.3-.717 0-.581.896-.464.33-.92-.283-.236-.168-.619-.162-.823.034-.222.17-.413.367-.513-.11-.11-.204-.235-.283-.37-.042-.204.259-.433.476-.618.23-.17.486-.3.758-.383-.064-.028-.124-.064-.18-.106-.314-.222-.602-.667-.47-.914.193-.408 1.403-.18 2.366 0 .57.104 1.134.248 1.685.432.108.019.212.056.307.112.091.056.17.13.235.216.825 1.05 1.742 2.02 2.74 2.898.509.385.959.845 1.336 1.366.554.889.891 1.902.981 2.953.302 1.472.49 2.966.56 4.468z"/>
        <path fill="#21417E" d="M328 27.139c-.377.397-.76.813-1.138 1.253-.038-.104-.096-.2-.173-.284-.09-.103-.198-.19-.32-.259-.398.47-.934.82-1.54 1.006-.218.067-.429.103-.64.145-.13-.588-.314-1.165-.55-1.723-.182-.439-.396-.865-.639-1.277.313 0 .64.072.978.114 1.376.204 2.725.547 4.022 1.025z"/>
        <path fill="#FFF" d="M338 46.251c-1.932-.494-4.971 1.415-6.394 2.754-.83.796-1.429 1.837-1.722 2.995-.187-1.212-.398-2.538-.632-4.048-.082-.52-.17-1.034-.252-1.53.331-.874.878-1.634 1.581-2.195 1.435-1.11 4.895-2.855 6.769-1.998.344 1.313.562 2.66.65 4.022z"/>
        <path fill="#21417E" d="M329.376 46.737c.085.473.176.964.26 1.461.243 1.437.461 2.71.655 3.869.606 2.243 6.06 17.45 6.06 17.583 0 0-2.363 1.674-2.745 2.08-1.272 1.34-3.515 3.723-4.848 5.293-1.121 1.316-3.54 4.16-7.32 4.851-1.819.346-3.395-.048-6.467-.843-6.521-1.703-8.072-3.535-12.727-4.14-1.173-.15-2.357-.199-3.539-.146-.212 0-1.473-.097-1.703-.08-.06-.527 1.212-6.99 1.545-8.312.28-1.01.633-2 1.055-2.959 1.042 2.116 3.921.133 4.709 1.382.654 1.037 1.109 4.45 3.72 3.7 1.667-.48 2.716-1.638 4.188-3.554 3.08-4.014 1.722-9.047 3.249-12.52 1.897-4.312 6.272-6.75 6.824-9.757.115-.655-1.06-4.11 0-6.536.418-.94 1.872-2.025 2.163-2.516l.249-1.11c.272 0 .46-1.898.709-1.91.188.17-1.667-3.953-1.412-3.82.678.346 3.933-1.892 4.303-1.746 7.763 3.031 9.605 15.443 9.696 15.674-1.94-.819-5.52.848-7.006 1.91-.727.551-1.288 1.294-1.618 2.146z"/>
        <path fill="#923838" d="M334.88 127.394c-3.251-4.705-11.808-3.248-13.401-2.937-.836.158-1.663.358-2.479.6 1.425.809 2.473 2.2 2.443 3.596-.032.694-.293 1.358-.742 1.888.321.118.629.273.916.461.625-1.414 1.955-2.389 3.49-2.559.525-.038 1.05.033 1.546.21.416-1.06 1.158-1.958 2.12-2.565.896-.635 2.01-.882 3.09-.684 2.071.552 3.155 3.357 2.933 5.556-.131 1.192-.631 2.313-1.43 3.207.247.266.48.544.7.833 1.126-1.1 1.814-2.572 1.934-4.142v-.21c-.04-1.172-.43-2.306-1.12-3.254zM316 137.933c-.164.343-.29.7-.373 1.067-4.234-1.318-7.53-3.763-7.626-6.237v-.03c-.038-1.348.874-2.613 2.3-3.733-.462 1.522-.392 3.17.7 4.146.537.466 1.234.738 1.967.767-.217.563-.237 1.175-.058 1.75.263.615.738 1.13 1.349 1.468.532.35 1.12.62 1.741.802z"/>
        <path fill="#FB8715" d="M321 128.6c-.032.74-.288 1.448-.727 2.013-1.284-.546-2.717-.493-3.965.148-1.247.64-2.199 1.81-2.633 3.239-.667-.031-1.302-.321-1.791-.818-.995-1.042-1.06-2.8-.638-4.423.219-.859.573-1.67 1.048-2.396.779-1.26 2.002-2.11 3.378-2.346 1.022-.089 2.045.17 2.927.741 1.405.863 2.43 2.346 2.4 3.842z"/>
        <path fill="#FFF" d="M322.797 135.358c-.925-.477-1.982-.629-3.003-.432-1.634.375-2.99 1.519-3.64 3.074-.61-.193-1.187-.48-1.71-.851-.6-.357-1.066-.904-1.325-1.556-.176-.609-.156-1.258.057-1.855.467-1.42 1.493-2.583 2.837-3.22 1.344-.636 2.89-.689 4.273-.146.34.126.663.29.966.489.654.413 1.167 1.018 1.47 1.734.343.884.37 1.86.075 2.763z"/>
        <path fill="#FB8715" d="M326 139.553c-.552.135-1.112.24-1.676.316-2.805.329-5.651.038-8.324-.851.08-.364.199-.72.356-1.06.633-1.456 1.952-2.528 3.542-2.88.993-.184 2.022-.041 2.922.405.316.147.616.325.896.53.649.464 1.196 1.048 1.609 1.72.339.56.568 1.178.675 1.82z"/>
        <path fill="#FFF" d="M334 135.799c-1.89 1.982-4.905 3.477-7.796 4.201-.104-.625-.325-1.226-.652-1.773-.399-.653-.926-1.223-1.552-1.675.333-1.136 1.065-2.12 2.068-2.781 1.06-.643 2.32-.896 3.554-.713h.136c1.371.229 2.623.902 3.555 1.912.243.265.473.542.687.829z"/>
        <path fill="#FB8715" d="M329 132.556h-.135c-1.222-.18-2.47.069-3.522.703-.993.65-1.718 1.621-2.048 2.741-.268-.197-.555-.367-.857-.508.273-.811.249-1.69-.07-2.485-.282-.643-.76-1.187-1.368-1.559.613-1.347 1.917-2.276 3.422-2.438.513-.037 1.03.031 1.514.2.944.367 1.76.991 2.348 1.798.332.47.575.995.716 1.548z"/>
        <path fill="#FFF" d="M333.972 130.731c-.128 1.216-.615 2.358-1.393 3.269-.917-1.065-2.15-1.775-3.5-2.016-.148-.603-.401-1.173-.746-1.68-.585-.864-1.395-1.532-2.333-1.925.405-1.08 1.128-1.995 2.065-2.615.872-.647 1.957-.898 3.009-.696 2.059.562 3.114 3.421 2.898 5.663z"/>
        <path fill="#21417E" d="M335.075 136.992c-.476 1.29-1.189 2.479-2.1 3.502-2.108 2.269-4.902 3.76-7.941 4.237-2.968.585-6.043.21-8.789-1.073-2.06-.984-3.844-2.477-5.187-4.342-1.264-1.81-2.227-4.293-2.033-6.568.09 2.533 3.196 5.035 7.184 6.384 2.636.916 5.441 1.216 8.207.877.557-.077 1.108-.186 1.653-.325 2.953-.742 6.052-2.349 7.965-4.446 1.138-1.125 1.833-2.631 1.955-4.238.076 2.038-.234 4.072-.914 5.992z"/>
        <path fill="#FFD974" d="M346.998 116.92c.003.044.003.089 0 .133 0 .084 0 .163-.049.241-.206.725-.988 1.426-2.068 1.993-.706-.272-1.434-.485-2.176-.634-2.032-.429-5.173-.368-6.846 1.347-.678-.197-1.266-.625-1.662-1.208-.084-.254-.145-.47-.188-.604-.17-1.612 1.99-3.714 3.548-4.566 2.067-1.135 3.868-.477 5.323.085 1.037.362 4.118 1.57 4.118 3.213z"/>
        <path fill="#21417E" d="M336 120.01c-.183.128-.35.267-.496.415-.186.178-.34.372-.46.575-.402-.725-.789-1.5-1.044-2 .474.487 1.181.844 2 1.01z"/>
        <path fill="#FFD974" d="M346 122c-1.171 3.547-2.704 6.303-4.1 6.882-.177.077-.367.117-.56.118-.167-.006-.333-.033-.493-.08-2.168-.623-4.361-5.047-4.847-6.018v-.062c.87.495 1.822.83 2.81.99 2.543.336 5.118-.319 7.19-1.83z"/>
        <path fill="#21417E" d="M347 117c-.173 1.019-.387 2.032-.595 3-.405-.402-.883-.712-1.405-.911 1.03-.595 1.798-1.33 2-2.089z"/>
        <path fill="#FFF" d="M345 118.8c-1.635.764-3.44 1.174-5.274 1.2-1.267.008-2.527-.18-3.726-.556 1.67-1.578 4.802-1.633 6.829-1.239.74.141 1.467.34 2.171.595z"/>
        <path fill="#21417E" d="M347 119.869c-.196.776-.415 1.529-.646 2.244-1.98 1.493-4.443 2.138-6.873 1.799-.94-.157-1.847-.486-2.675-.973-.23-.49-.521-1.223-.806-2.018.097-.25.222-.485.374-.704.119-.181.254-.351.403-.507 1.176.413 2.41.62 3.653.611 1.798-.028 3.567-.48 5.17-1.321.52.189.995.484 1.4.869z"/>
        <path fill="#FFD974" d="M341 131c-.292 1.532-.99 2.927-2 4"/>
        <path fill="#01040C" d="M339.145 135l-.145-.188c.907-1.018 1.532-2.35 1.79-3.812l.21.045c-.268 1.517-.915 2.898-1.855 3.955z"/>
        <path fill="#FFD974" d="M346 134.878c0 1.722-1.792 3.122-3.997 3.122S338 136.6 338 134.878c0-1.597 1.535-2.908 3.514-3.098.1-.53.122-1.072.063-1.608-.041-.385-.121-.765-.238-1.134.16.049.327.077.495.082.194 0 .386-.042.564-.12-.086.237-.153.48-.2.728-.114.68-.074 1.378.118 2.04 2.043.126 3.684 1.47 3.684 3.11z"/>
        <path fill="#2D323D" d="M344.77 135c-.05-.002-.097-.019-.137-.047-1.251-.908-2.172-2.195-2.626-3.666-.03-.122.042-.245.164-.278.058-.017.12-.01.172.02.053.029.091.078.107.136.426 1.375 1.287 2.578 2.456 3.428.05.034.082.087.092.146.009.059-.007.12-.044.166-.044.058-.112.093-.184.095z"/>
        <path fill="#FFD974" d="M317.998 103.89c.003.044.003.088 0 .133 0 .078 0 .163-.043.241-.206.725-.994 1.425-2.074 1.993-.705-.262-1.431-.464-2.17-.604-2.032-.429-5.173-.368-6.853 1.347-.676-.199-1.261-.626-1.655-1.208-.085-.26-.152-.47-.194-.604-.164-1.612 1.995-3.72 3.547-4.566 2.068-1.135 3.875-.477 5.33.085 1.013.356 4.105 1.534 4.112 3.183z"/>
        <path fill="#21417E" d="M307 107c-.408.29-.734.629-.96 1-.395-.725-.79-1.5-1.04-2 .476.482 1.183.835 2 1z"/>
        <path fill="#FFD974" d="M316 109c-1.17 3.55-2.709 6.302-4.103 6.888-.175.075-.364.113-.555.112-.168-.004-.336-.029-.498-.075-2.167-.623-4.358-5.05-4.844-6.022v-.062c.87.493 1.821.828 2.808.99 2.544.339 5.12-.317 7.192-1.831z"/>
        <path fill="#21417E" d="M318 104c-.175 1.019-.386 2.025-.62 3-.398-.402-.868-.712-1.38-.911 1.04-.595 1.801-1.33 2-2.089z"/>
        <path fill="#FFF" d="M316 105.805c-1.635.766-3.44 1.175-5.274 1.195-1.267.008-2.527-.18-3.726-.556 1.675-1.578 4.839-1.633 6.835-1.239.739.143 1.463.344 2.165.6z"/>
        <path fill="#21417E" d="M317 106.873c-.196.776-.41 1.528-.64 2.242-1.982 1.493-4.447 2.136-6.88 1.796-.94-.159-1.845-.488-2.674-.971-.225-.489-.521-1.222-.806-2.016.183-.453.446-.868.777-1.222 1.176.413 2.41.62 3.653.611 1.798-.022 3.568-.471 5.17-1.313.52.19.996.488 1.4.873z"/>
        <path fill="#FFD974" d="M311 119c-.29 1.533-.987 2.929-2 4"/>
        <path fill="#01040C" d="M309.145 123l-.145-.189c.905-1.019 1.53-2.349 1.79-3.811l.21.046c-.27 1.516-.917 2.896-1.855 3.954z"/>
        <path fill="#FFD974" d="M316 121.878c0 1.722-1.793 3.122-4 3.122s-4-1.4-4-3.122c0-1.597 1.53-2.914 3.511-3.098.1-.532.123-1.076.069-1.615-.041-.383-.123-.761-.245-1.127.164.047.332.072.502.076.192.001.382-.037.558-.114-.088.236-.153.48-.194.728-.116.68-.078 1.377.112 2.04 2.063.126 3.687 1.47 3.687 3.11z"/>
        <path fill="#2D323D" d="M314.774 122c-.049 0-.096-.014-.137-.04-1.251-.911-2.174-2.2-2.629-3.673-.021-.078 0-.161.057-.219.056-.058.14-.08.218-.061.079.02.14.08.162.158.427 1.38 1.292 2.584 2.465 3.434.049.035.08.089.088.148.008.059-.01.118-.047.165-.04.057-.107.09-.177.088z"/>
        <path fill="#F36B53" d="M331 39.624c0 .212-.126.404-.32.49l-1.052.447c.062.111.106.231.133.356.056.32-.008.65-.181.924-.266.163-.55.32-.853.478.024.182.01.367-.042.543-.115.399-.43.701-1.293 1.166-.665.38-1.376.672-2.116.87-.684.182-1.384.294-2.091.332h-.762l-.604.393c-.412.701-.783 1.425-1.112 2.169-1.07 2.416-5.785 15.289-8.855 19.288-1.469 1.909-2.514 3.062-4.177 3.54-2.605.749-4.267.277-5.264-.43-1.73-1.315-3.239-2.9-4.467-4.693-3.21-4.978-3.904-6.512-4.944-9.623.388-.688.872-1.316 1.439-1.867 2.732-2.676 11.35-3.376 11.35-3.376.364 2.525.598 5.068.702 7.617V58.2c.725-1.396 10.734-14.256 11.29-14.897.485-.5.893-1.07 1.21-1.691.368-.773.604-1.752 1.262-3.335.103-.278.266-.53.478-.737.237-.203.526-.337.834-.386.204-.036.405-.082.604-.14.57-.192 1.074-.545 1.451-1.014.215.121.382.313.471.544-.18.217-.356.44-.537.676-.472.604-.907 1.245-1.294 1.843.15.056.304.102.46.139.261.06.529.09.797.09.74-.352 1.508-.64 2.297-.858 1.214-.31 2.465-.448 3.717-.41.18.15.33.332.441.537.092.17.16.35.206.538h.205c.289-.044.558.153.605.44.007.029.01.057.012.085z"/>
        <path fill="#21417E" d="M36 418.281c-8.593 6.248-15.984 10.624-16.898 9.559l-.05-.073c-.52-1.01 2.935-5.194 7.078-9.407.407-.412.82-.83 1.252-1.21 1.42-1.4 2.891-2.773 4.275-3.99 1.251-1.096 2.503-2.155 3.799-3.16.056 1.604.15 3.16.244 4.625.058 1.21.158 2.43.3 3.656zM53 403.263c-1.25 1.101-2.55 2.27-3.892 3.458-4.018 3.55-8.41 7.112-12.596 10.279-.1-.934-.175-1.855-.237-2.808-.113-1.818-.231-3.785-.275-5.801 1.643-1.274 3.293-2.474 4.91-3.581l1.288-.86c3.322-2.226 6.8-4.214 10.408-5.95.188 1.604.319 3.358.394 5.263z"/>
        <path fill="#FFD974" d="M36 421.43c-.922.754-1.898 1.588-2.948 2.5-2.626 2.437-5.665 4.397-8.98 5.79-1.269.52-2.574.947-3.906 1.28-.421-1.28-.812-2.458-1.166-3.466.916 1.063 8.125-3.303 16.481-9.534.165 1.147.324 2.3.519 3.43zM53 408.875c-4.895 5.137-8.269 6.2-15.565 12.125-.177-1.144-.322-2.289-.435-3.433 4.044-3.128 8.287-6.646 12.167-10.152 1.298-1.173 2.578-2.328 3.76-3.415.03 1.533.073 3.158.073 4.875z"/>
        <path fill="#BADC7A" d="M59.291 434.587c-1.165 1.904-2.614 3.361-5.55 6.263-2.725 2.724-15.218 15.194-22.586 14.08-.557-.08-1.097-.253-1.597-.508-1.234-.613-1.77-1.574-3.67-5.969.003-.012.003-.025 0-.037-1.85-4.285-3.526-9.42-4.932-13.871-.333-1.041-.652-2.03-.956-2.97 1.345-.337 2.664-.77 3.946-1.297 3.344-1.415 6.41-3.405 9.059-5.877 1.06-.924 2.047-1.77 2.978-2.534.34 2.008.77 4.01 1.295 5.987.087.324.383.55.721.55.062.007.124.007.185 0 .191-.048.355-.17.454-.34.1-.169.127-.37.077-.56-.58-2.207-1.047-4.438-1.4-6.69 7.455-5.938 10.902-7.004 15.903-12.152 0 2.675-.124 5.57-.321 8.668-.036.274.085.544.312.702.228.158.525.178.771.051.247-.127.402-.379.403-.655.216-3.367.358-6.923.34-10.406.289-.319.616-.662.887-1.017 1.632-1.916 3.155-3.92 4.563-6.005.607 2.19 1.103 4.409 1.486 6.648 1.381 9.017 2.96 19.222-2.368 27.94z"/>
        <path fill="#21417E" d="M55 406.924c0 3.444-.124 6.978-.341 10.343-.001.274-.158.524-.406.65-.248.127-.547.107-.776-.05-.229-.157-.35-.426-.314-.698.198-3.078.304-5.956.323-8.615 0-1.71 0-3.327-.075-4.867-.074-1.874-.205-3.6-.391-5.177-.745-6.382-2.365-10.252-4.748-10.951-2.148-.609-4.618 1.283-5.804 2.202-2.047 1.645-3.575 3.827-4.406 6.29-.205.56-.391 1.145-.547 1.735-.924 3.431-1.08 7.3-.993 10.951-.49.377-.98.76-1.464 1.15-.168-4.49-.038-9.34 1.322-13.555.173-.536.36-1.059.583-1.576.951-2.401 2.528-4.516 4.574-6.133 1.279-.985 4.27-3.297 7.157-2.433 3.314.96 5.027 5.621 5.79 11.705.175 1.43.305 2.945.392 4.509.087 1.563.118 2.975.124 4.52z"/>
        <path fill="#21417E" d="M38.414 428.995c-.064.007-.128.007-.193 0-.353 0-.661-.23-.752-.562-.546-2.02-.997-4.064-1.35-6.115-.206-1.182-.373-2.364-.521-3.552-.148-1.188-.264-2.538-.347-3.807-.097-1.513-.193-3.127-.251-4.777.502-.4 1.01-.794 1.517-1.182.046 2.038.168 4.027.283 5.865.065.944.142 1.876.245 2.838.124 1.176.278 2.347.463 3.514.373 2.293.86 4.57 1.46 6.834.06.197.035.41-.07.588-.104.178-.279.307-.484.356zM37 394.451c-.216.518-.396 1.041-.564 1.577-2.046-2.635-4.81-4.602-7.947-5.656-1.698-.536-6.22-1.948-9.597.542-2.32 1.814-3.6 4.68-3.413 7.647.252 2.855 2.051 4.523 4.324 6.63 2.274 2.106 5.003 4.596 6.754 8.992.344.846.632 1.715.864 2.6-.402.413-.798.833-1.2 1.217-.246-1.125-.585-2.227-1.013-3.294-1.65-4.085-4.199-6.41-6.382-8.462-2.4-2.228-4.493-4.152-4.799-7.586-.251-3.483 1.255-6.857 4-8.962 3.96-2.922 9.16-1.296 10.87-.76 3.15 1.045 5.954 2.954 8.103 5.515zM43 404.168l-1.238.832c-.93-2.584-2.194-5.037-3.762-7.295.15-.598.33-1.154.529-1.705 1.881 2.492 3.387 5.244 4.471 8.168z"/>
        <path fill="#BADC7A" d="M32 454.994c-2.45.06-4.89-.312-7.206-1.098-1.105-.392-6.794-.662-6.794-4.777 0-2.348.874-6.181 1.249-14.374.119-2.397.25-5.255.15-6.745l.05.074c.362 1.024.762 2.22 1.192 3.52.308.936.631 1.927.968 2.974.063 2.74.213 4.973.369 6.665.043.54.674 7.463-.8 8.978-.068.067-.318.312-.268.564.1.466 1.161.484 2.666.828 2.036.466 2.36.956 2.792.736.43-.221.818-.865.28-3.84 1.924 4.404 2.498 5.348 3.716 5.98.512.26 1.065.434 1.636.515z"/>
        <path fill="#21417E" d="M26.474 451.945c-.432.223-.757-.273-2.796-.743-1.508-.347-2.571-.365-2.671-.836-.05-.254.2-.502.269-.57 1.476-1.53.844-8.52.8-9.065-.156-1.71-.306-3.963-.369-6.731 1.458 4.502 3.172 9.722 5.036 14.031.003.013.003.025 0 .038.55 3.003.1 3.696-.269 3.876zM59 397.432c0 .86-1.93 2.955-4.622 5.568-.084-1.603-.21-3.155-.378-4.62 2.752-1.248 4.598-1.684 4.94-1.166l.06.218z"/>
        <path fill="#FFD974" d="M60 400.017c-1.515 2.073-3.155 4.067-4.912 5.973-.325.353-.663.688-.955 1.01 0-1.551-.053-3.084-.133-4.568 2.98-2.549 5.11-4.593 5.117-5.432.206.724.531 1.788.883 3.017z"/>
        <g>
            <path fill="#FFD974" d="M8.025 26.93c-.22 1.773 1.017 3.399 2.793 3.67 8.248 1.26 16.793 2.398 25.636 3.414 11.766 1.334 23.1 2.327 34.002 2.98 1.461.091 2.814-.77 3.34-2.13.324-.883.26-1.861-.177-2.695-.436-.834-1.204-1.448-2.118-1.691-5.204-1.352-9.683-2.282-13.146-2.93-11.113-2.04-22.373-3.183-33.67-3.42-5.254-.166-9.812-.147-13.405-.074-1.643.032-3.014 1.255-3.224 2.875h-.03z" transform="translate(276 395)"/>
            <path fill="#F3AB55" d="M.134 28.368c-.506 1.727.462 3.543 2.179 4.083 7.915 2.518 16.138 4.955 24.669 7.31 11.362 3.122 22.35 5.842 32.96 8.16 1.423.315 2.884-.33 3.612-1.592.476-.827.576-1.818.276-2.724-.3-.907-.973-1.641-1.85-2.02-4.895-2.13-9.179-3.74-12.471-4.898-10.61-3.713-21.502-6.565-32.57-8.527-5.134-.967-9.614-1.647-13.163-2.13-1.62-.217-3.154.782-3.611 2.35l-.03-.012zM84.999 51.853c.063 3.192-2.448 5.848-5.653 5.983l-3.83.159c-3.224.135-5.961-2.328-6.149-5.533-.153-2.654-.281-5.143-.367-7.462 1.583.974 3.321 1.673 5.14 2.07 3.615.74 7.375.298 10.718-1.26.067 2.276.11 4.315.14 6.043z" transform="translate(276 395)"/>
            <path fill="#21417E" d="M85 46.353c-3.33 1.594-7.075 2.047-10.676 1.29-1.811-.406-3.542-1.122-5.12-2.118-.194-5.07-.237-9.305-.182-12.525 1.734 1.86 3.988 3.125 6.453 3.625 3.18.568 6.453-.163 9.11-2.037.183 4.223.317 8.246.415 11.765z" transform="translate(276 395)"/>
            <path fill="#F3AB55" d="M85 34.791c-2.732 1.86-6.096 2.587-9.366 2.022-2.534-.496-4.851-1.753-6.634-3.599.031-1.57.094-2.9.17-3.951.079-2.605.902-5.134 2.373-7.297.702-.974 1.547-1.838 2.506-2.567.159-3.71.289-7.455.389-11.236.046-1.731.083-3.452.113-5.163.658.193 1.343.285 2.03.272.677.01 1.353-.079 2.004-.266.104 2.148.217 4.3.338 6.456.171 3.162.353 6.3.545 9.412.82.541 1.566 1.186 2.218 1.917 2.656 3.005 2.913 6.715 3.038 8.855.144 1.732.195 3.457.276 5.145z" transform="translate(276 395)"/>
            <path fill="#21417E" d="M79 1.003c0 .349-.539.66-1.369.838-1.076.212-2.186.212-3.262 0-.824-.177-1.369-.49-1.369-.838C73 .453 74.343 0 76.003 0 77.663 0 79 .459 79 1.003z" transform="translate(276 395)"/>
            <path fill="#21417E" d="M79 1v1.884c0 .324-.374.62-.97.819-.658.208-1.341.308-2.027.296-.694.014-1.387-.088-2.053-.303-.589-.206-.95-.488-.95-.812V1c0 .392.545.743 1.369.942 1.076.239 2.186.239 3.262 0C78.461 1.763 79 1.392 79 1zM13 28.443c0 .193-1.586.145-3.607 1.202-.721.379-1.39.843-1.989 1.382L5 32c.406-1.236 1.232-2.308 2.348-3.046 2.499-1.592 5.633-.769 5.652-.51zM22 30.445c0 .192-1.591.138-3.61 1.203-.72.38-1.387.845-1.987 1.384L14 34c.408-1.237 1.233-2.31 2.346-3.05 2.497-1.588 5.635-.764 5.654-.505zM31 32.444c0 .186-1.591.138-3.61 1.2-.716.385-1.383.847-1.987 1.379L23 36c.406-1.234 1.232-2.303 2.346-3.04 2.503-1.601 5.635-.774 5.654-.516zM41 35.448c0 .192-1.59.144-3.607 1.198-.718.38-1.385.843-1.986 1.378L33 39c.41-1.23 1.234-2.297 2.344-3.037 2.508-1.61 5.637-.772 5.656-.515zM51 38.435c0 .186-1.591.138-3.61 1.202-.717.384-1.385.849-1.987 1.383L43 42c.405-1.237 1.23-2.31 2.346-3.048 2.503-1.605 5.635-.746 5.654-.517z" transform="translate(276 395)"/>
        </g>
    </g>
</svg>
