<svg xmlns="http://www.w3.org/2000/svg" width="367" height="278" viewBox="0 0 367 278">
    <g fill="none" fill-rule="evenodd">
        <path fill="#FFF" fill-rule="nonzero" d="M83.94 250.25c-.372.18-.763.34-1.164.51-1.85.76-6.049 2.25-25.886-.2-.666-.08-1.34-.16-2.016-.26.795-.457 1.313-1.29 1.38-2.22 0-1.93-2.711-3.5-6.048-3.5-3.338 0-6.049 1.57-6.049 3.5.003.217.036.433.098.64l-2.515-.42-2.358-.43-2.8-.52-1.85-.35-.89-.17-1.35-.28c-.44-.08-.871-.18-1.302-.27l-1.732-.37c-1.135-.25-2.251-.5-3.337-.76-.566-.134-1.12-.318-1.654-.55l-.46-.19c-1.917-.848-3.578-2.2-4.815-3.92-1.711-2.36-2.535-5.27-2.32-8.2.721.496 1.514.874 2.349 1.12l2.574-.15h3.621c1.326 2.951 3.925 5.1 7.027 5.81 8.725 2.013 17.544 3.572 26.424 4.67 17.019 2.09 20.61.82 22.196.16l.196-.08c1.224 1.983 2.13 4.154 2.681 6.43zM99.11 156.91c-1.89 1.46-3.514 2.93-4.414 3.74-.9.81-1.84 1.72-2.652 2.59-1.312-.07-2.692-.12-4.14-.17-14.387-.46-17.734-2.16-19.456-1.34-5.578 2.65-9.728 9.16-13.046 15.44-.928.36-1.81.837-2.623 1.42-3.832 2.936-5.976 7.633-5.715 12.52-1.605.4-3.102.85-4.521 1.32 2.016-3.45 3.787-6.67 5.343-9.61 4.639-8.82 10.58-23.29 20.22-27.82 1.957-.95 5.871 1 22.685 1.56 3.024.04 5.794.18 8.319.35zM122.588 163.45c-2.067.849-4.086 1.814-6.048 2.89-.907.507-1.759 1.027-2.555 1.56-1.177-.864-2.478-1.539-3.856-2 .832-1.7 1.337-3.546 1.488-5.44.058-.665.08-1.333.068-2 5.53 1.08 8.897 2.71 10.903 4.99zM115.688 186.47c1.224-.85 2.525-1.75 3.856-2.77-.323.72-.665 1.48-1.027 2.26-1.42 3.12-3.093 6.72-5.011 10.93-2.555 5.59-4.786 10.57-6.743 15-.382-.82-.861-1.75-1.458-2.79-.46-.8-1.038-1.81-1.752-2.91 1.174-2.667 2.456-5.503 3.846-8.51 1.35-3 2.574-5.62 3.65-8 1.703-1.14 3.26-2.23 4.64-3.21z"/>
        <path fill="#933838" fill-rule="nonzero" d="M81.23 243.84l-.196.08c-1.586.66-5.178 1.93-22.197-.16-8.88-1.098-17.699-2.657-26.424-4.67-3.08-.726-5.654-2.873-6.968-5.81h8.427c9.336-.13 10.5-.44 16.06-.33 7.917.15 12.429.28 18.154 2.13 4.345 1.4 8.133 2.69 11.401 6.4.647.734 1.23 1.523 1.742 2.36z"/>
        <path fill="#302B3A" fill-rule="nonzero" d="M97.867 199.49c5.05-3.86 9.463-7.09 13.153-9.73-1.077 2.33-2.3 5-3.65 8-1.351 3-2.672 5.87-3.847 8.51-1.565-2.52-3.469-4.802-5.656-6.78zM92.044 163.24c-3.915 4.13-6.773 8.62-13.408 18-.861 1.21-1.693 2.38-2.476 3.46-2.128-2.923-4.993-5.2-8.29-6.59-1.741-.72-7.202-3-12.468-.93 3.318-6.28 7.468-12.79 13.046-15.44 1.722-.82 5.07.88 19.456 1.34 1.448.04 2.828.09 4.14.16zM113.985 167.9c-5.666 3.68-8.72 7.72-14.778 13.61 3.142-4.64 5.775-8.22 7.918-11 1.161-1.429 2.168-2.98 3.004-4.63 1.38.467 2.68 1.149 3.856 2.02z"/>
        <path fill="#E24D34" fill-rule="nonzero" d="M93.55 268.17c-5.069 5.82-7.232 6.81-8.161 6.28-.695-.39-.764-1.71-.979-4.18 0-.28-.069-.59-.108-.91-.19-1.908-.19-3.832 0-5.74.108-1.48.265-3.53.333-5.64.066-1.729.01-3.46-.166-5.18-.112-.855-.272-1.704-.48-2.54-.577-2.277-1.509-4.445-2.76-6.42-.524-.845-1.12-1.641-1.78-2.38-3.27-3.71-7.057-5-11.402-6.4-5.726-1.85-10.237-2-18.155-2.13-5.558-.11-6.723.2-16.06.33H21.787l-2.575.15c-.835-.246-1.628-.624-2.349-1.12-1.645-1.012-2.295-3.117-1.517-4.91 1.038-.09 2.056-.15 3.054-.22 2.146-.14 4.231-.243 6.254-.31 9.112-.35 18.238-.13 27.324.66 14.7 1.28 22.852 3.49 28.274 9.49 1.44 1.636 2.713 3.418 3.797 5.32.609 1.04 1.164 2.111 1.664 3.21.437.976.816 1.978 1.135 3 1.214 3.695 1.806 7.573 1.752 11.47-.04 1.966-.233 3.925-.578 5.86-.685 4-1.644 6.41-.704 6.94.616.36 1.585-.42 5.46-3.94l.774-.69z"/>
        <path fill="#FFF" fill-rule="nonzero" d="M45.997 250.59c-1.153 1.752-2.492 3.368-3.993 4.82-3.288 3.18-6.253 4.5-12.33 6.47-3.397 1.11-7.762 2.41-13.702 4.37-3.347 1.09-5.872 2-7.732 2.6-4.296 1.45-5.412 1.74-6.067 1-.656-.74-.685-2.31.646-5.32 1.957-4.35 6.684-11.73 16.343-24 .498.702 1.072 1.342 1.713 1.91-1.38 1.395-2.687 2.864-3.915 4.4-2.24 2.79-1.879 2.89-5.872 8.69-2.104 3.08-4.462 7.43-5.784 9.6-.616 1-1.517 2.52-1.037 3.13.48.61 2.476-.13 3.611-.58.47-.18.979-.37 1.43-.54 3.239-1.17 6.586-2 9.786-3.23.558-.21 3.748-1.31 10.05-3.47.51-.18 1.038-.37 1.596-.55 2.017-.602 4-1.316 5.94-2.14 3.427-1.782 6.333-4.455 8.427-7.75.275.228.574.426.89.59z"/>
        <path fill="#E08D53" fill-rule="nonzero" d="M45.107 250c-2.086 3.291-4.981 5.964-8.397 7.75-1.94.824-3.924 1.538-5.94 2.14-.559.18-1.087.37-1.596.55-.705-2.14-1.458-4.71-2.368-7.84-.48-1.63-1.292-4.36-2.359-8 .542.223 1.102.397 1.674.52 1.086.26 2.202.51 3.337.76l1.732.37c.43.09.861.19 1.302.27l1.35.28.89.17 1.85.38 2.8.52 2.358.43 2.515.42c.16.5.456.944.852 1.28zM84.586 258c-2.045 8.53-5.099 16.73-9.64 18.69-.455.214-.94.352-1.438.41-1.106.14-1.547-.16-3.847-.88-11.744-3.6-17.058-.84-30.21-4.81-1.57-.367-3.083-.956-4.493-1.75-1.088-.692-2.032-1.596-2.78-2.66 4.757-1.83 7.615-3.11 10.16-5 2.83-2.183 5.416-4.678 7.711-7.44.979-1.13 1.762-2.22 2.476-3.22.836-.183 1.633-.522 2.349-1 .675.1 1.35.18 2.016.26 19.837 2.45 24.036 1 25.886.2.4-.17.792-.33 1.164-.51.208.836.368 1.685.48 2.54.176 1.717.231 3.445.166 5.17z"/>
        <path fill="#F4D6A2" fill-rule="nonzero" d="M108.201 251.8c-.215.54-.724 1.76-3.445 5.15-.034.032-.064.07-.088.11-1.957 2.33-3.914 4.56-11.107 11.1l-.774.7c-3.914 3.52-4.893 4.3-5.46 3.94-.98-.53 0-2.95.704-6.94.345-1.935.538-3.894.577-5.86.05-3.894-.545-7.769-1.761-11.46-.319-1.022-.698-2.024-1.135-3-.5-1.099-1.055-2.17-1.664-3.21-1.084-1.905-2.356-3.691-3.797-5.33-3.67-4.06-8.583-6.41-15.943-7.89-4.08-.763-8.196-1.307-12.331-1.63-.49-.047-.988-.087-1.497-.12-2.571-.22-5.35-.39-8.339-.51-4.286-.18-8.974-.26-14.043-.14-1.136 0-2.28.06-3.445.11-2.03.067-4.114.17-6.254.31-.979.07-2.016.13-3.054.22.228-.58.5-1.142.813-1.68 3.914-6.91 5.872-10.37 7.232-11.82 4.063-4.535 7.761-9.398 11.06-14.54 1.046-1.56 2.133-3.25 3.297-5.08 1.455-.667 3.057-1.277 4.805-1.83 1.42-.47 2.936-.92 4.522-1.32l1.213-.29c1.038-.24 2.105-.45 3.22-.64 2.177-.376 4.373-.627 6.577-.75 2.418-.138 4.844-.071 7.252.2 1.957.23 4.11.59 6.488 1.05 2.202.44 4.63 1 7.428 1.61.98.25 2.114.49 3.25.75l2.368.56c2.015.48 4.005 1.068 5.96 1.76 2.346.817 4.527 2.06 6.44 3.67l.626.54c2.184 1.963 4.088 4.228 5.657 6.73.714 1.1 1.292 2.11 1.752 2.91.597 1 1.076 2 1.458 2.79.634 1.305 1.116 2.68 1.438 4.1.473 2.375.578 4.811.314 7.22-.069 1.23-.333 5.75-.294 11.1 0 2.44.098 5.06.294 7.61.342 4.46.88 6.65-.314 9.8z"/>
        <path fill="#725440" fill-rule="nonzero" d="M84.253 269.36c0 .32.079.63.108.91-3.787 4.25-7.144 6.84-9.415 6.4 4.541-2 7.595-10.16 9.64-18.69-.068 2.11-.225 4.16-.333 5.64-.19 1.908-.19 3.832 0 5.74zM118.517 186c-.392 5.22-.588 9.58-.676 13-.156 5.29-.127 10.11-1.722 16.63-.98 3.752-2.27 7.412-3.856 10.94-.754 1.68-2.173 4.44-4.042 7.82 0-5.35.225-9.87.294-11.1.264-2.409.159-4.845-.314-7.22-.322-1.42-.804-2.795-1.438-4.1 1.957-4.46 4.188-9.44 6.743-15 1.918-4.29 3.591-7.89 5.01-10.97z"/>
        <path stroke="#2D323D" stroke-linecap="round" stroke-linejoin="round" stroke-width=".83" d="M20.875 217.5c13.465-.829 26.969-.718 40.419.33 6.596.53 14.034 1.37 20.395 6.89 4.894 4.19 6.851 9.21 8.515 13.3 3.654 9.616 4.774 20.043 3.249 30.24h0"/>
        <path stroke="#2D323D" stroke-linecap="round" stroke-linejoin="round" stroke-width=".83" d="M27.315 209.27c7.516-.08 13.564-.29 17.616-.48 13.358-.58 19.142-1.35 28.273.34 7.546 1.38 10.893 3.25 12.723 4.43 4.335 2.932 7.87 6.94 10.276 11.65 6.547 11.65 6.205 26.74 5.285 35.47"/>
        <path stroke="#2D323D" stroke-linecap="round" stroke-linejoin="round" stroke-width=".83" d="M34.44 199.34c8.504.765 17.054.852 25.572.26 8.103-.57 13.828-1.63 20.708 1.16 4.894 2 8.27 5.71 13.173 10.67 4.042 4.07 6.41 6.51 8.358 10.66 1.948 4.15 2.457 8.06 3.054 13.14.473 4.192.578 8.419.313 12.63-.149 3.06-.45 6.11-.9 9.14"/>
        <path stroke="#2D323D" stroke-linecap="round" stroke-linejoin="round" stroke-width=".83" d="M28.088 226.74c2.267-4.21 4.77-8.284 7.496-12.2 3.034-4.33 4.228-5.45 6.753-9.68 2.76-4.64 3.102-6.3 5.461-9.85 1.126-1.693 2.361-3.307 3.7-4.83M42.132 226.88c.548-1 1.203-2.2 1.957-3.47 1.174-1.95 2.349-3.7 5.774-8.38 5.05-6.87 4.649-6 5.461-7.38 2.76-4.58 2.505-6.3 4.815-10.67 1.42-2.658 3.155-5.127 5.167-7.35M50.47 227.39c3.17-6.37 6.723-9.76 9.542-11.69 1.957-1.33 4.208-2.48 6.097-5.43 1.889-2.95 1.135-4.41 3.21-7.71 1.439-2.28 2.456-2.64 6.107-6.24 1.527-1.51 2.818-2.89 3.817-4M64.298 229.14c.593-2.264 1.528-4.42 2.77-6.39 2.936-4.61 5.53-4.8 8.808-10 2.045-3.2 1.243-3.42 3.533-6.89 1.927-2.95 4.314-5.558 7.066-7.72 1.363-1.042 2.806-1.968 4.316-2.77M76.082 233.49c1.218-1.615 2.286-3.342 3.19-5.16 3.053-6.11 2.016-8.73 5.138-12.48 1.752-2.09 2.065-1.25 6.43-5.41 1.84-1.75 2.544-2.63 4.981-5.09 1.527-1.55 2.936-2.87 4.032-3.94M84.616 243.38c1.651-1.348 3.102-2.934 4.306-4.71 1.86-2.75 1.595-3.71 3.69-8.2 1.706-3.641 3.751-7.107 6.106-10.35 1.957-2.63 2.427-2.84 3.856-5.09 1.145-1.767 2.128-3.638 2.936-5.59M108.632 221.82h0c-1.14 2.087-2.12 4.26-2.936 6.5-1.83 5-1.41 6.45-3.367 10.34-1.477 2.94-3.523 5.23-7.555 9.68-1.605 1.79-3.748 4.08-6.4 6.65M108.387 240h0c-.166.41-.332.84-.509 1.26-4.274 9.757-11.131 18.1-19.798 24.09"/>
        <path fill="#E24D34" fill-rule="nonzero" d="M128.333 174.22c-2.337 3.69-5.323 6.905-8.808 9.48-1.331 1-2.633 1.92-3.856 2.77-1.38 1-2.936 2.07-4.64 3.29-3.689 2.64-8.103 5.87-13.153 9.73l-.626-.54c-1.921-1.583-4.106-2.799-6.45-3.59-1.955-.692-3.944-1.28-5.96-1.76 4.574-3.33 8.934-6.953 13.056-10.85l1.292-1.24c6.058-5.89 9.111-9.93 14.778-13.61.796-.527 1.647-1.047 2.554-1.56 1.963-1.076 3.982-2.041 6.048-2.89 3.592-1.45 7.693-2.55 9.17-.83 2.232 2.58-2.554 10.24-3.405 11.6z"/>
        <path fill="#FFBD29" fill-rule="nonzero" d="M111.617 160.43c-.151 1.894-.656 3.74-1.488 5.44-.836 1.65-1.843 3.201-3.004 4.63-2.143 2.79-4.776 6.37-7.918 11l-1.291 1.24c-4.122 3.9-8.482 7.528-13.056 10.86l-2.368-.6c-1.135-.26-2.222-.5-3.25-.75-2.798-.63-5.225-1.17-7.427-1.61 1.213-1.64 2.681-3.66 4.345-6 .783-1.08 1.615-2.25 2.476-3.46 6.635-9.37 9.454-13.86 13.408-18 .812-.87 1.693-1.71 2.652-2.59.959-.88 2.525-2.28 4.414-3.74 3.562-2.75 8.083-5.5 10.589-3.92 1.595 1 1.957 3.56 1.957 5.43.025.69.012 1.381-.04 2.07z"/>
        <path fill="#E24D34" fill-rule="nonzero" d="M76.16 184.69c-1.664 2.33-3.132 4.35-4.345 6-2.379-.46-4.493-.82-6.489-1.05-2.408-.271-4.833-.338-7.252-.2-2.204.123-4.4.374-6.577.75-1.115.19-2.182.4-3.22.64l-1.213.29c-.261-4.887 1.883-9.584 5.715-12.52.813-.583 1.695-1.06 2.623-1.42 5.266-2 10.766.21 12.469.93 3.294 1.387 6.16 3.66 8.289 6.58z"/>
        <path fill="#302B3A" fill-rule="nonzero" d="M23.987 244.41c-1.487 2.15-2.936 4.33-4.463 6.57-3.62 5.44-7.026 10.813-10.217 16.12-.48.17-.979.36-1.429.54-1.135.45-3.083 1.25-3.611.58s.42-2.1 1.037-3.13c1.322-2.17 3.68-6.52 5.784-9.6 3.983-5.8 3.621-5.9 5.872-8.69 1.228-1.536 2.535-3.005 3.915-4.4.921.841 1.973 1.52 3.112 2.01z"/>
        <path fill="#302B3A" fill-rule="nonzero" d="M52.525 251.32c-.714 1-1.527 2.09-2.476 3.22-2.294 2.769-4.88 5.27-7.712 7.46-2.544 1.91-5.402 3.19-10.158 5l-3.798 1.43c-16.764 6.34-15.512 3.2-21.628 6.24-.734.37-2.466 1.27-3.856.55-1.899-1-2.153-4.43-1.83-6.56.232-1.5.827-2.916 1.732-4.12-1.331 3-1.321 4.57-.646 5.32.675.75 1.771.44 6.068-1 1.879-.64 4.384-1.51 7.731-2.6 5.94-2 10.306-3.26 13.702-4.37 6.077-2 9.042-3.29 12.33-6.47 1.509-1.454 2.855-3.073 4.013-4.83 1.296.687 2.74 1.03 4.199 1 .784.001 1.565-.09 2.329-.27z"/>
        <path fill="#302B3A" fill-rule="nonzero" d="M56.254 248.08c-.067.93-.585 1.763-1.38 2.22-.716.478-1.513.817-2.349 1-.76.176-1.54.264-2.32.26-1.459.03-2.902-.313-4.198-1-.794-.375-1.42-1.043-1.752-1.87-.062-.207-.095-.423-.098-.64 0-1.93 2.702-3.5 6.049-3.5 3.347 0 6.048 1.6 6.048 3.53z"/>
        <path fill="#FFF" fill-rule="nonzero" d="M264.044 81.14c-2.065-4.53-25.934-31.41-34.782-36.7-8.847-5.29-16.05 3.27-13.515 9.76s20.895 38.26 27.315 43c10.07 7.3 26.453-4.07 20.982-16.06z"/>
        <path fill="#FFF" fill-rule="nonzero" d="M233.392 45c-2.573-11.85-7.526-24.1-5.147-33.67 0 0-3.788-4.86-6.508-1.09-2.721 3.77-18.047 46.65 3.356 53.41 0 0 10.873-6.78 8.3-18.65z"/>
        <path fill="#BADC7A" fill-rule="nonzero" d="M225.318 76.27c6.039 10 13.77 19.29 17.382 21.93 5.547 4.278 13.246 4.096 18.594-.44 5.696-4.55 7.565-11.45 4.766-17.58-1.4-3.06-9.669-12.9-18.232-21.88-.098.06-10.511 4.86-22.51 17.97z"/>
        <path fill="#FFF" fill-rule="nonzero" d="M229.683 14.86c2.995-.79 1.39-5.22 2.28-7.08.45-.92-2.045.16-2.671 3.09-.154-3.128-.033-6.264.362-9.37.499-3-3.739-.35-6.107-1.08-.979-.29-1.85-.82-2.398.09-1.32 2.249-1.819 4.902-1.409 7.49.714 6.69-.323 6.22-.979 9.47-.655 3.25 6.636 2.53 6.636 2.53s1.282-4.35 4.286-5.14z"/>
        <path fill="#BADC7A" fill-rule="nonzero" d="M298.992 77.49c-12.106-2.73-28.38-5-37.56-1.66-14.417 5.18-18.674 13-20.308 22.54-3.054 17.93-8.955 87.29-8.955 87.29 35.77 19.72 91.574 8.76 91.574 8.76.49-38.59.714-111.2-24.75-116.93z"/>
        <path fill="#FFF" fill-rule="nonzero" d="M173.968 187s-2.574 20.21-5.236 22.29c-2.662 2.08 5.803 6.68 7.115 5.5l11.078-21.58-12.957-6.21zM178.284 216.71l-22.226-1.06s-1.595.68 0 2.46c1.595 1.78 6.988 2.84 8.808 2.91 1.82.07 3.837-1.78 5.148-1.8 1.049.148 2.029.619 2.809 1.35 0 0 5.705-.13 6.684-1.54.979-1.41-1.223-2.32-1.223-2.32z"/>
        <path fill="#18336D" fill-rule="nonzero" d="M178.01 210.19s-2.476 2.15-4.894 1.1c-1.268-.514-2.44-1.248-3.464-2.17 0 0-.852-2.64-1.243-2.44-.392.2-.059 3.49-.245 3.64-1.722 1.35-4.893 3.49-8.475 3.53-4.893.06-3.915 2.68-3.915 2.68 3.21 2.8 10.815 2.29 13.232 2.34 2.417.05 9.229-2.16 9.229-2.16 1.217-2.021 1.128-4.591-.225-6.52z"/>
        <path fill="#732622" fill-rule="nonzero" d="M180.33 119.4c-9.318 23.16-9.22 76.41-9.22 76.41 6.156 5.36 14.621 4 14.621 4s28.568-58.14 29.448-68.42c.881-10.28-31.562-20.15-34.85-11.99z"/>
        <path fill="#732622" fill-rule="nonzero" d="M289.685 181.43c4.58-9.39 1.782-26.71-11.235-36.9-7.976-6.26-46.203-27-81.347-32.7-22.382-3.63-19.769 21.51-14.474 29.35 12.723 18.91 52.584 58.76 74.007 58.76 18.663 0 26.071-4.19 33.05-18.51z"/>
        <path fill="#FFF" fill-rule="nonzero" d="M207.262 187s-2.574 20.21-5.236 22.29c-2.662 2.08 5.804 6.68 7.115 5.5l11.059-21.58-12.938-6.21zM211.568 216.71l-22.225-1.06s-1.586.68 0 2.46c1.585 1.78 6.987 2.84 8.808 2.91 1.82.07 3.826-1.78 5.147-1.8 1.047.147 2.023.618 2.8 1.35 0 0 5.715-.13 6.693-1.54.98-1.41-1.223-2.32-1.223-2.32z"/>
        <path fill="#18336D" fill-rule="nonzero" d="M211.304 210.19s-2.476 2.15-4.893 1.1c-1.27-.514-2.441-1.248-3.465-2.17 0 0-.851-2.64-1.243-2.44-.391.2-.059 3.49-.244 3.64-1.723 1.35-4.894 3.49-8.476 3.53-4.893.06-3.914 2.68-3.914 2.68 3.21 2.8 10.765 2.29 13.231 2.34 2.466.05 9.22-2.16 9.22-2.16 1.225-2.018 1.14-4.591-.216-6.52z"/>
        <path fill="#D7504A" fill-rule="nonzero" d="M214.328 117.45c-9.689 23-9.963 78.36-9.963 78.36 6.166 5.36 14.68 4 14.68 4s28.567-58.14 29.448-68.42c.881-10.28-27.94-28.64-34.165-13.94z"/>
        <path fill="#D7504A" fill-rule="nonzero" d="M318.311 184.42c3.788-9.75-.509-26.56-13.525-36.75-7.976-6.26-40.066-30.14-75.21-35.84-22.373-3.63-19.77 21.51-14.475 29.35 12.772 18.91 52.222 57 70.728 58.76 19.691 1.84 29.703-8.35 32.482-15.52z"/>
        <path fill="#FFF" fill-rule="nonzero" d="M213.418 200l-2.036-.85c13.007-32.42 17.616-57.71 17.616-58 .07-.42.371-.763.773-.88.4-.12.83 0 1.116.31.352.38 35.604 38.55 56.88 42.72 7.193 1.41 12.899.6 16.94-2.4 2.978-2.3 4.995-5.665 5.648-9.42l2.192.27c-.705 4.372-3.037 8.295-6.508 10.95-4.56 3.4-10.844 4.34-18.683 2.81-19.71-3.85-49.58-34.39-56.616-41.82-4.156 19.25-9.953 38.092-17.322 56.31zM283.5 71.2c-2.593-7 0-17.33 0-17.33l-11.744 2.18s3.817 12-.704 17.36c-1.4 1.66-4.943.72-8.074 1.94 0 0 4.609 7.73 9.297 10.53l20.2-9.72s-7.018.36-8.975-4.96z"/>
        <path fill="#FFF" fill-rule="nonzero" d="M286.818 46.24c-.714-.367-1.584-.082-1.957.64-.293-2.54-.977-5.018-2.026-7.34-1.89-4.51-13.545-3.65-16.442 0-2.897 3.65-2.936 14.65 2.437 24.71 1.086 2.06 9.415-1 12.723-4.86 3.308-3.86 3.454-6.39 3.454-6.39s.871.76 2.212-1.08c1.34-1.84 1.067-5.2-.401-5.68z"/>
        <path fill="#732622" fill-rule="nonzero" d="M258.182 31.53c.89 2.844 2.57 5.363 4.835 7.25 1.895 1.363 4.171 2.065 6.488 2l10.99-1.54c.181 1.591.642 3.136 1.361 4.56l1.585 5.52 1.478-.32s-.558-2 .235-2.54c.471-.347 1.081-.43 1.625-.22 0 0 1.634-8.17-4.57-12.72-3.954-2.93-18.82 2.15-24.027-1.99z"/>
        <path fill="#732622" fill-rule="nonzero" d="M275.162 43.43c-1.782.016-3.379 1.128-4.045 2.817-.667 1.69-.271 3.622 1.002 4.896 1.272 1.275 3.171 1.64 4.81.926 1.64-.715 2.696-2.368 2.676-4.189-.027-2.481-2.015-4.472-4.443-4.45zm.078 8.24c-2.022-.006-3.658-1.68-3.66-3.747-.002-2.066 1.632-3.744 3.654-3.753 2.022-.01 3.67 1.654 3.686 3.72.008 1.001-.377 1.965-1.068 2.675-.691.71-1.632 1.108-2.612 1.105zM264.641 43.54c-2.425.05-4.354 2.094-4.315 4.572.04 2.479 2.033 4.458 4.458 4.427 2.426-.031 4.37-2.06 4.35-4.539-.014-1.201-.495-2.348-1.338-3.185-.844-.838-1.98-1.296-3.155-1.275zm.088 8.24c-1.485.016-2.833-.884-3.415-2.28-.582-1.396-.283-3.013.757-4.097 1.04-1.083 2.617-1.418 3.994-.85 1.377.569 2.283 1.93 2.295 3.447.016 2.067-1.608 3.758-3.63 3.78z"/>
        <path fill="#732622" fill-rule="nonzero" d="M268.566 47.66l.323.67c.68-.304 1.453-.304 2.133 0l.304-.68c-.881-.392-1.882-.389-2.76.01z"/>
        <path fill="#BADC7A" fill-rule="nonzero" d="M285.83 133.07s22.509 20.18 24.202 53c.274 5.48 11.597-4 11.597-14.31 0-20.28-17.587-38.44-35.8-38.69z"/>
        <path fill="#FFF" fill-rule="nonzero" d="M299.09 77c3.396-3.6 34.518-21.08 44.579-23.15 10.06-2.07 14.132 8.38 9.63 13.67-4.502 5.29-31.934 29.24-39.49 31.54-11.832 3.61-23.703-12.59-14.719-22.06z"/>
        <path fill="#BADC7A" fill-rule="nonzero" d="M337.258 85.21c-8.886 7.42-20.082 13.89-24.33 15.18-6.517 2-12.39-.33-16.51-6.81-3.914-6.19-3.513-13.34 1.087-18.2 2.3-2.44 13.26-9 24.212-14.63.059.08 8.377 8.07 15.541 24.46z"/>
        <path fill="#FFF" fill-rule="nonzero" d="M339.402 51.48c3.073-11.73 8.534-23.75 6.566-33.41 0 0 3.984-4.69 6.538-.8 2.554 3.89 16.07 47.37-5.608 53.19 0 0-10.56-7.24-7.496-18.98z"/>
        <path fill="#FFF" fill-rule="nonzero" d="M342.279 15.61c-2.936-.92-1.175-5.28-1.957-7.17-.411-.94 2.035.25 2.544 3.21.271-3.12.271-6.26 0-9.38-.382-3 3.748-.19 6.146-.81.979-.25 1.889-.74 2.388.19 1.23 2.315 1.619 5 1.096 7.58-.979 6.65.059 6.22.587 9.5.529 3.28-6.743 2.19-6.743 2.19s-1.096-4.39-4.061-5.31z"/>
    </g>
</svg>
