<svg xmlns="http://www.w3.org/2000/svg" xmlns:xlink="http://www.w3.org/1999/xlink" width="275" height="337" viewBox="0 0 275 337">
    <defs>
        <path id="prefix__a" d="M0.696 0.182L40.418 0.182 40.418 103 0.696 103z"/>
        <path id="prefix__c" d="M0.362 0.745L12.23 0.745 12.23 23.851 0.362 23.851z"/>
        <path id="prefix__e" d="M0 0.873L49.833 0.873 49.833 179.31 0 179.31z"/>
    </defs>
    <g fill="none" fill-rule="evenodd">
        <path fill="#FFF" d="M150.446 272.661c-.068.564-.15 1.115-.238 1.673-.123.511-.286 1.007-.51 1.47-.185.415-.409.795-.667 1.15-3.523 4.727-13.877 3.89-18.12-.64-.362-.388-.682-.803-.947-1.245-.422-.687-.783-1.57-.966-2.504-.244-1.176-.19-2.414.422-3.407.45-.715 1.476-1.749 8.863-2.143 6.204-.333 9.333-.469 10.748 1.075 1.04 1.135 1.496 2.85 1.415 4.571" transform="translate(10)"/>
        <path fill="#E24D34" d="M150.208 274.334c-1.674 10.728-6.314 19.98-9.67 22.74-.737.61-1.415.898-1.985.822-.45-.06-.845-.418-1.408-1.095-.22-.259-.464-.564-.738-.92-2.024-2.572-3.614-5.715-5.371-12.22-.433-1.598-1.834-5.85-2.04-11.093.184.93.549 1.811.967 2.503 3.37 5.592 15.247 7.015 19.066 1.88.555-.746.95-1.659 1.179-2.617" transform="translate(10)"/>
        <path fill="#E24D34" d="M146.472 308.974c0 2.335-3.576 4.223-7.988 4.223-4.413 0-7.99-1.888-7.99-4.223 0-1.986 2.582-3.652 6.066-4.101.234-1.667.417-3.461.517-5.372.044-.927.069-1.833.069-2.7.562.677.958 1.034 1.407 1.095.57.076 1.248-.213 1.984-.821 0 .7.008 1.422.031 2.16.061 2.032.228 3.949.457 5.729 3.165.563 5.447 2.146 5.447 4.01" transform="translate(10)"/>
        <path fill="#FFF" d="M177.472 246.522c-.067.564-.149 1.123-.237 1.674-.123.51-.293 1.007-.51 1.469-.184.415-.409.795-.666 1.149-3.523 4.729-13.877 3.898-18.123-.632-.36-.388-.68-.803-.945-1.245-.422-.693-.783-1.578-.966-2.503-.245-1.183-.19-2.422.422-3.408.45-.714 1.476-1.748 8.863-2.15 6.204-.333 9.333-.47 10.749 1.075 1.04 1.143 1.495 2.85 1.413 4.57" transform="translate(10)"/>
        <path fill="#302B3A" d="M149.697 275.804c-.184.415-.408.796-.666 1.149-3.523 4.728-13.877 3.891-18.12-.639.903-.578 2.951-1.177 8.175-1.455 6.02-.327 9.142-.463 10.611.945M176.724 249.664c-.184.415-.408.796-.666 1.15-3.523 4.728-13.877 3.898-18.122-.632.905-.579 2.953-1.184 8.177-1.463 6.02-.326 9.142-.463 10.611.945" transform="translate(10)"/>
        <path fill="#E24D34" d="M177.235 248.197c-1.674 10.728-6.315 19.98-9.67 22.741-.738.61-1.416.899-1.986.822-.449-.06-.845-.418-1.407-1.096-.22-.258-.464-.563-.739-.92-2.023-2.572-3.613-5.714-5.37-12.22-.434-1.596-1.835-5.849-2.04-11.091.183.928.548 1.81.967 2.502 3.37 5.593 15.246 7.016 19.065 1.88.556-.745.951-1.659 1.18-2.618" transform="translate(10)"/>
        <path fill="#E24D34" d="M173.499 282.837c0 2.336-3.575 4.223-7.988 4.223-4.412 0-7.99-1.887-7.99-4.223 0-1.985 2.58-3.65 6.065-4.1.235-1.667.418-3.462.517-5.372.046-.928.069-1.834.069-2.7.562.676.958 1.034 1.407 1.095.57.076 1.248-.213 1.986-.82 0 .698.007 1.42.03 2.16.06 2.03.228 3.947.457 5.727 3.165.564 5.447 2.146 5.447 4.01" transform="translate(10)"/>
        <g transform="translate(10) translate(180 233.171)">
            <mask id="prefix__b" fill="#fff">
                <use xlink:href="#prefix__a"/>
            </mask>
            <path fill="#302B3A" d="M40.19 59.427c-.696 8.418-1.539 20.355-2.725 34.98-.268 3.177-2.504 5.84-5.595 6.623-3.018.756-6.574 1.6-8.358 1.808-5.24.648-17.434-.391-21.552-7.76C.897 93.187.591 91.232.726 88.97c4.887 3.263 12.963 7.612 18.046 4.668 2.357-1.357 2.456-3.36 2.15-35.494-.037-4.227-.17-10.178-4.3-13.513-1.589-1.283-3.372-1.87-4.912-2.14 1.001-1.476 2.138-2.857 3.421-4.14l1.222-1.222c2.321-2.321 3.85-5.314 4.361-8.553L25.186.182c1.332.709 3.214 1.222 5.34 1.38 1.796.147 3.457.025 4.79-.305.438 7.33-.037 13.195-.587 17.35-1.039 7.783-2.65 11.924-.574 17.826 1.466 4.179 3.262 4.862 4.887 9.774 1.808 5.474 1.405 10.116 1.148 13.22" mask="url(#prefix__b)"/>
        </g>
        <path fill="#FFBD29" d="M198.772 326.809c-5.083 2.944-13.159-1.405-18.046-4.668.171-2.908 1.087-6.316 2.09-10.703 1.367-5.95 2.92-13.757 4.142-23.287.574-4.51 2.223-8.785 4.752-12.488 1.54.27 3.323.856 4.912 2.139 4.13 3.335 4.263 9.286 4.3 13.513.306 32.134.207 34.138-2.15 35.494" transform="translate(10)"/>
        <path fill="#F36B53" d="M43.814 105.353c.134-4.996-9.677-39.935-15.4-48.712C22.69 47.865 12.28 52.24 11.7 59.198c-.58 6.959 2.008 43.772 5.778 50.894 5.92 11.178 25.982 8.488 26.337-4.74" transform="translate(10)"/>
        <path fill="#F36B53" d="M27.782 47.205c-3.094-11.74-8.63-23.78-6.586-33.438 0 0-4.056-4.7-6.682-.823-2.627 3.88-16.588 47.313 5.542 53.206 0 0 10.818-7.204 7.726-18.945" transform="translate(10)"/>
        <path fill="#18336D" d="M10.311 85.922c1.474 11.63 4.788 23.386 7.052 27.318 3.465 6.023 9.943 9.287 17.453 7.482 7.18-1.724 11.783-7.205 11.726-13.968-.027-3.384-3.638-15.849-7.872-27.647-.099.025-11.768-.033-28.359 6.815" transform="translate(10)"/>
        <path fill="#F36B53" d="M22.802 17.216c3.032-.909 1.214-5.273 2.054-7.162.419-.942-2.085.243-2.612 3.194 0 0-.502-5.533.005-9.376.397-2.996-3.831-.207-6.28-.835-.986-.253-1.921-.747-2.44.181-.944 1.687-1.69 3.93-1.143 7.578.996 6.656-.088 6.224-.64 9.498-.56 3.331 6.888 2.211 6.888 2.211s1.137-4.378 4.168-5.289" transform="translate(10)"/>
        <path fill="#18336D" d="M38.876 100.912c12.373-2.729 29.014-4.956 38.388-1.657 14.728 5.182 19.079 12.945 20.747 22.534 3.122 17.937 9.144 87.292 9.144 87.292-36.544 19.725-93.567 8.765-93.567 8.765-.501-38.594-.732-111.199 25.288-116.934" transform="translate(10)"/>
        <path fill="#F36B53" d="M218.944 193.447s19.18 6.87 22.278 5.399c3.098-1.47 3.243 8.318 1.578 8.976l-24.347.188.491-14.563z" transform="translate(10)"/>
        <g transform="translate(10) translate(243 189.171)">
            <mask id="prefix__d" fill="#fff">
                <use xlink:href="#prefix__c"/>
            </mask>
            <path fill="#F36B53" d="M.368 21.735L9.777 1.037s1.341-1.14 2.203 1.087c.863 2.227-.722 7.649-1.488 9.305-.766 1.657-3.372 2.672-4.003 3.862-.631 1.189-.104 3.162-.104 3.162s-2.775 5.139-4.49 5.38C.182 24.076.368 21.736.368 21.736" mask="url(#prefix__d)"/>
        </g>
        <path fill="#18336D" d="M237.686 207.686s3.075-1.268 3.244-3.922c.17-2.656-.318-4.141-.318-4.141s-1.947-1.976-1.588-2.236c.444-.325 3.14 1.532 3.351 1.432 2.003-.954 5.402-2.888 7.092-6.097 2.313-4.39 4.203-2.325 4.203-2.325.991 4.19-2.998 10.883-4.085 13.102-1.086 2.218-6.217 7.407-6.217 7.407-4.246.13-5.682-3.22-5.682-3.22" transform="translate(10)"/>
        <path fill="#F3AB55" d="M155.794 168.42c24.958 2.08 72.315 26.435 72.315 26.435 1.9 8.048-3.286 15.111-3.286 15.111s-65.052-.518-74.62-4.402c-9.632-3.913-3.203-37.876 5.59-37.144" transform="translate(10)"/>
        <path fill="#F3AB55" d="M48.212 212.163c-2.22-10.254 4.829-26.33 20.23-32.929 9.448-4.047 52.42-14.503 88.627-11.165 23.05 2.124 14.262 25.833 7.087 32.094-17.312 15.104-66.578 43.676-87.787 38.273-18.473-4.706-24.771-10.629-28.157-26.273" transform="translate(10)"/>
        <path fill="#F36B53" d="M182.286 211.673s14.644 14.164 18.073 14.102c3.429-.064-.474 8.914-2.26 8.827l-22.263-9.863 6.45-13.066zM197.344 237.646l17.104-14.98s1.69-.484 1.558 1.9c-.132 2.385-3.81 6.67-5.191 7.863-1.38 1.196-4.174 1.047-5.24 1.87-1.063.823-1.397 2.838-1.397 2.838s-4.646 3.538-6.308 3.05c-1.661-.484-.526-2.541-.526-2.541" transform="translate(10)"/>
        <path fill="#18336D" d="M193.495 232.37s3.322.113 4.57-2.236c1.25-2.35 1.418-3.904 1.418-3.904s-.96-2.602-.525-2.69c.538-.114 2.227 2.688 2.463 2.684 2.219-.043 6.112-.404 8.974-2.63 3.917-3.048 4.787-.387 4.787-.387-.825 4.227-7.216 8.68-9.121 10.254-1.904 1.573-8.717 4.184-8.717 4.184-3.923-1.629-3.85-5.275-3.85-5.275" transform="translate(10)"/>
        <path fill="#FFD974" d="M133.262 161.788c22.08 11.82 56.796 54.944 56.796 54.944-1.588 8.117-9.225 12.414-9.225 12.414s-59.055-27.285-66.17-34.766c-7.164-7.535 4.493-40.144 18.6-32.592" transform="translate(10)"/>
        <path fill="#FFD974" d="M19.139 207.847c-1.345-10.403 7.062-25.608 22.463-32.207 9.449-4.05 47.117-19.097 83.322-15.76 23.052 2.126 14.261 25.834 7.088 32.095-17.311 15.105-65.787 42.098-84.54 39.1-19.956-3.188-27.347-15.58-28.334-23.228" transform="translate(10)"/>
        <path fill="#F36B53" d="M67.334 94.626c-2.65-7.04 0-17.337 0-17.337l-14.081 2.364s3.9 12.013-.722 17.366c-1.433 1.66-2.978.537-6.181 1.752 0 0 4.709 7.735 9.504 10.536l20.634-9.722s-7.154.353-9.154-4.959" transform="translate(10)"/>
        <path fill="#F36B53" d="M74.527 75.889c-1.194-1.034-2.089-.18-2.089-.18s.95-2.674.934-7.58c-.018-4.904-16.787-13.176-20.942-10.966-4.152 2.208-8.435 12.33-7.336 23.729.225 2.33 13.973 11.678 19.33 5 3.184-3.971 5.752-4.465 5.752-4.465s.525 1.045 2.501-.114c1.98-1.161 3.043-4.391 1.85-5.424" transform="translate(10)"/>
        <path fill="#732622" d="M75.599 63.14c.486-.452.838-1.001 1.05-1.65l.293-1.33c.07-.891-.081-1.743-.454-2.554l-.692-1.1c-.587-.703-1.309-1.214-2.169-1.532-.646-.266-1.308-.353-1.986-.263-.663-.024-1.294.117-1.897.424-.12.05-.216.128-.328.188-.034-.274-.088-.544-.18-.814l-.493-.98c-.418-.61-.96-1.072-1.626-1.39-.483-.248-.989-.365-1.52-.352-.53-.076-1.05-.015-1.561.18-.358.11-.668.29-.956.505-.106-2.417-1.384-4.761-4.268-5.981-8.422-3.565-13.675 9.652-5.233 13.225.663.28 1.304.446 1.923.53 1.155 1.556 3.23 3.279 4.862 3.719l10.949 2.964s-.737 2.37-.469 4.75l-.66 5.727 1.523.29s.232-2.027 1.205-2.25c.975-.223 1.615.443 1.615.443s4.335-6.342 1.072-12.748" transform="translate(10)"/>
        <path fill="#18336D" d="M52.329 156.49s-23.038 20.186-24.73 53.028c-.282 5.476-11.845-3.988-11.845-14.314 0-20.305 17.969-38.46 36.575-38.715" transform="translate(10)"/>
        <path fill="#F36B53" d="M76.031 100.899c-.369-4.982 7.788-40.346 13.093-49.383 5.305-9.037 15.908-5.153 16.816 1.77.908 6.923.052 43.819-3.379 51.109-5.386 11.444-25.552 9.699-26.53-3.496" transform="translate(10)"/>
        <path fill="#18336D" d="M107.84 80.364c-1.075 11.674-4.491 24.363-6.618 28.372-3.26 6.137-9.117 8.79-16.686 7.243-7.233-1.478-12.021-6.801-12.195-13.56-.088-3.383 3.096-15.962 6.925-27.9.1.02 11.76-.432 28.575 5.845" transform="translate(10)"/>
        <path fill="#F36B53" d="M87.474 51c2.39-11.906 7.202-24.254 4.587-33.773 0 0 3.77-4.93 6.623-1.215 2.852 3.716 19.368 46.244-2.375 53.44 0 0-11.225-6.548-8.835-18.453" transform="translate(10)"/>
        <path fill="#F36B53" d="M88.144 15.014c-3.08-.73-1.525-5.192-2.475-7.028-.473-.916 2.095.117 2.796 3.033 0 0 .172-5.554-.562-9.36-.573-2.967 3.814-.433 6.22-1.206.97-.311 1.874-.86 2.446.036 1.042 1.628 1.92 3.822 1.591 7.496-.598 6.705.458 6.208 1.201 9.445.76 3.292-6.742 2.614-6.742 2.614s-1.394-4.301-4.475-5.03" transform="translate(10)"/>
        <g transform="translate(10) translate(0 42.171)">
            <mask id="prefix__f" fill="#fff">
                <use xlink:href="#prefix__e"/>
            </mask>
            <path fill="#FFF" d="M49.833 55.68s-22.33 47.383-32.95 123.63L0 173.319s10.893-74.07 18.79-97.76c0 0-8.825-19.567-10.687-32.658C4.563 18.016 5.448.873 5.448.873l23.005.11s2.876 14.932 5.64 24.333c3.485 11.848 7.632 18.912 15.74 30.364" mask="url(#prefix__f)"/>
        </g>
        <path fill="#FFF" d="M83.089 44.15s.332 5.642-3.65 25.77c-2.203 11.135-2.875 12.167-9.454 27.93l11.437 65.084 25.053-3.54-7.625-33.495s12.11-31.978 10.119-82.19l-25.88.442z" transform="translate(10)"/>
    </g>
</svg>
