<svg xmlns="http://www.w3.org/2000/svg" width="522" height="137" viewBox="0 0 522 137">
    <g fill="none">
        <path fill="#2B1F58" d="M99.29 0H106.26V82.62H99.29zM415.34 0H422.31V82.62H415.34z"/>
        <path fill="#783F18" d="M125.94 89.81l-96.77 2.74-20 .56s13.72-3.86 17.93-4.64c.61-.11 3.09-.25 6.84-.4 22.27-.83 90-2 90-2l2 3.74z"/>
        <path fill="#DAA65E" d="M33.9 88.07c-2 .88-4.39 2.39-4.73 4.48l-20 .56s13.72-3.86 17.93-4.64c.57-.11 3.05-.25 6.8-.4z" opacity=".2" style="mix-blend-mode:screen"/>
        <path fill="#783F18" d="M360.05 62.23c-3.66-3.24-20.26-5.39-20.26-5.39l-36 2 56.26 3.39z"/>
        <path fill="#935325" d="M8.89 54.67s20.55-3.41 35.81-4.27c15.26-.86 429.3-10.19 438.62-9.75 9.32.44 21.26 3.88 21.26 3.88L8.89 54.67z"/>
        <path fill="#783F18" d="M362.79 108.95L349.83 105.77 331.26 111.17z"/>
        <path fill="#C88A4D" d="M499.2 131.25c-11.26 1.39-98 2.74-192.95 3.72-123.07 1.24-260 1.82-264.95.89-.29-.046-.572-.13-.84-.25-9.46-3.78-33.2-40.3-31.31-42.5 1.89-2.2 111.46-5.28 111.46-5.28S12.78 87.94 9.1 85.57c-.026.004-.054.004-.08 0-3.76-2.63-18.2-29.7-.13-30.86 8-.51 124.86-3.47 243.1-6.11 57-1.26 114.27-2.46 159.86-3.27 53.63-.95 91.06-1.39 92.73-.76 6 2.22 7.24 10.47 6.06 12.77-1.18 2.3-71.64 3.46-71.64 3.46s75.65.2 77.66 3.2c2.01 3 4.27 42.19 4.27 42.19l-31.83 4 31.86.54s4.1 17.33-21.76 20.52z"/>
        <path fill="#DAA65E" d="M40.42 135.59C31 131.83 7.26 95.31 9.15 93.11c1.89-2.2 111.46-5.28 111.46-5.28s-105.49 4.48-106.79 6c-1.19 1.32 12.5 29.48 26.6 41.76zM9.1 85.57c-.026.004-.054.004-.08 0-3.76-2.63-18.2-29.7-.13-30.86 11.83-.76 262.73-6.89 403-9.38C274.05 48.17 16 53.94 8.23 56.93-2.33 61 9.1 85.57 9.1 85.57z" opacity=".6" style="mix-blend-mode:screen"/>
        <path fill="#C88A4D" d="M15.56 58.64c-6.84 2.27-1.84 22.13.82 23.87 2.66 1.74 219 2.79 219 2.79s-213.64 8.23-215 10c-1.36 1.77 23.46 33.52 28.11 35.24 4.65 1.72 430.73 1.86 448-2 17.27-3.86 19.82-12.94 17.16-14.43-2.66-1.49-53.78-3.41-52.46-4.17 1.32-.76 46.43-4.34 49.07-6.11 2.64-1.77 5.06-36.72-1.58-38.19-6.64-1.47-104.89-4.81-104.9-5.82-.01-1.01 93.56-2.39 98.2-3.68 4.64-1.29 1.93-8.3-2.72-9.53-4.65-1.23-479.07 10.49-483.7 12.03z" opacity=".3" style="mix-blend-mode:screen"/>
        <path fill="#C88A4D" d="M72.07 73.34c2 0 169.21-2.91 169.21-2.91S97.94 71.65 72.07 73.34zM237.56 109.4l203.06-3.63s-155.95 1.3-203.06 3.63zM330.25 81.28l-68.73 1.47s46.48-2.58 68.73-1.47z" opacity=".6" style="mix-blend-mode:screen"/>
        <path fill="#C88A4D" d="M499.2 131.25c-11.26 1.39-98 2.74-192.95 3.72C473.55 107.89 414.54 66 252 48.56c57-1.26 114.27-2.46 159.86-3.27 53.63-.95 91.06-1.39 92.73-.76 6 2.22 7.24 10.47 6.06 12.77-1.18 2.3-71.65 3.5-71.65 3.5s75.65.2 77.66 3.2c2.01 3 4.27 42.19 4.27 42.19l-31.83 4 31.86.54s4.1 17.33-21.76 20.52z" opacity=".1" style="mix-blend-mode:multiply"/>
        <path fill="#C88A4D" d="M29.52 63.07c2-.26 340.41-7.58 340.41-7.58S57.37 59.36 29.52 63.07zM496.48 121.72l-191.13.79s153.29-2.04 191.13-.79zM73.6 102.72c2.65 0 282.67-6.43 282.67-6.43S99.46 100 73.6 102.72zM305 76.78c4-.28 194.42-4.58 194.42-4.58S333.55 73.57 305 76.78zM54.46 119.19s95.56-1.91 117.45-2.06c-41.15-.97-117.45 2.06-117.45 2.06z" opacity=".6" style="mix-blend-mode:multiply"/>
        <g>
            <path fill="#935325" stroke="#935325" stroke-linecap="round" stroke-linejoin="round" stroke-width="7" d="M10.65 24.3c-.377.54-.983.872-1.64.9-.704-.036-1.378-.291-1.93-.73-.47-.36-.91-.68-1.31-1-.4-.32-.77-.47-1.19-.73-.42-.26-.79-.47-1.21-.7L2 21.31c-.57-.256-1.04-.691-1.34-1.24-.237-.624-.147-1.326.24-1.87.243-.614.756-1.083 1.39-1.27.673-.06 1.348.1 1.92.46 1 .52 2 1 2.82 1.55.82.55 1.75 1.13 2.75 1.86.656.398 1.13 1.037 1.32 1.78.127.612-.04 1.249-.45 1.72zM9.81 11c.635.384 1.105.99 1.32 1.7.165.577.062 1.197-.28 1.69-.36.625-1.01 1.028-1.73 1.07-.746-.078-1.447-.393-2-.9-.83-.62-1.57-1.13-2.2-1.51l-2.2-1.29c-.644-.298-1.171-.801-1.5-1.43-.23-.647-.079-1.368.39-1.87.28-.54.793-.923 1.39-1.04.71-.02 1.41.183 2 .58l1.12.64 1.11.68 1.19.76c.4.27.87.58 1.39.92zm1.92 18.79C10.87 32.08 10 34.13 9.06 36c-.894 1.799-1.895 3.542-3 5.22-.359.694-1.007 1.192-1.77 1.36-.59.093-1.19-.096-1.62-.51-.525-.29-.892-.8-1-1.39-.012-.844.267-1.667.79-2.33.916-1.415 1.75-2.88 2.5-4.39.853-1.68 1.707-3.61 2.56-5.79.197-.664.617-1.24 1.19-1.63.55-.256 1.179-.285 1.75-.08.625.117 1.179.477 1.54 1 .236.787.138 1.637-.27 2.35v-.02zm3.91-16.49c-.456.04-.914.04-1.37 0-.3-.02-.592-.113-.85-.27-.209-.16-.374-.37-.48-.61-.121-.32-.196-.658-.22-1-.09-1 .08-1.6.52-1.9.672-.372 1.433-.552 2.2-.52C17 9 18.52 8.86 20 8.71c1.48-.15 2.83-.36 4.19-.61 1.36-.25 2.7-.55 4-.89 1.3-.34 2.64-.73 4-1.16.298-.109.606-.19.92-.24.297-.055.603-.055.9 0 .285.075.542.231.74.45.237.292.405.634.49 1 .193.586.104 1.228-.24 1.74-.474.495-1.06.87-1.71 1.09-.73.26-1.72.55-3 .87-1.28.32-2.7.65-4.28 1l.16 4.33 8.83-.38c.579-.115 1.178.048 1.619.442.44.393.67.97.621 1.558.087.592-.084 1.193-.47 1.65-.463.357-1.036.541-1.62.52l-8.89.33.15 4 5-.18c1.025-.132 2.063.113 2.92.69.72.799 1.082 1.858 1 2.93l.33 8.81c.03.6-.014 1.2-.13 1.79-.08.427-.262.828-.53 1.17-.312.323-.706.555-1.14.67-.585.156-1.185.243-1.79.26l-14.4.53c-1.016.136-2.045-.11-2.89-.69-.713-.803-1.073-1.859-1-2.93l-.32-8.82c-.165-1.059.101-2.14.74-3 .804-.639 1.815-.959 2.84-.9l4.9-.18-.15-4-8.47.31c-.578.11-1.175-.054-1.614-.446-.44-.393-.67-.967-.626-1.554-.051-.549.118-1.096.47-1.52.432-.42 1.019-.64 1.62-.61l8.47-.32-.14-3.72c-.89.13-1.86.25-2.92.36l-2.94.24zm15.51 16.21c.004-.303-.12-.593-.34-.8-.328-.214-.722-.303-1.11-.25l-10.52.39c-.397-.034-.788.109-1.07.39-.216.382-.3.825-.24 1.26l.18 4.82c-.034.43.099.855.37 1.19.314.23.704.33 1.09.28L30 36.4c.58 0 .95-.14 1.11-.42.182-.436.248-.911.19-1.38l-.15-5.09zM50.6 9.67c-.71.119-1.438.078-2.13-.12-.36-.16-.57-.61-.62-1.34-.05-.73 0-1.26.38-1.5.677-.326 1.418-.497 2.17-.5L53.76 6c1.02-.06 2.02-.14 3-.24 1-.1 1.93-.23 2.9-.39s2-.38 3.15-.65c.53-.1 1-.16 1.28-.2.257-.06.523-.06.78 0 .201.065.367.21.46.4.125.263.222.537.29.82.082.296.126.602.13.91.004.21-.067.416-.2.58-.182.188-.41.326-.66.4-.383.162-.782.286-1.19.37-.83.18-1.63.35-2.4.49s-1.52.29-2.25.45l.08 2 6.45-.24c.518-.085 1.049.053 1.46.38.288.34.44.774.43 1.22.063.457-.055.92-.33 1.29-.412.304-.92.45-1.43.41l-6.46.24v1.45l3.61-.14c.648-.034 1.297-.008 1.94.08.446.059.864.25 1.2.55.313.316.528.715.62 1.15.13.632.204 1.275.22 1.92l.22 5.84c.165 1.029-.107 2.08-.75 2.9-.796.598-1.776.899-2.77.85L59.8 29l.05 1.36 5.39-.2c.497-.059 1.001.028 1.45.25.338.32.511.777.47 1.24.084.47-.053.953-.37 1.31-.435.256-.935.381-1.44.36l-5.39.2.04 1.73 2.81-.5 2.74-.5c.506-.15 1.04-.185 1.56-.1.413.127.709.49.75.92.03.112.053.225.07.34.009.09.009.18 0 .27.611-1.072 1.117-2.2 1.51-3.37.426-1.321.721-2.681.88-4.06.21-1.84.327-3.689.35-5.54 0-2.15 0-4.75-.08-7.82h-.61c-.58.07-1.166-.073-1.65-.4-.384-.402-.583-.945-.55-1.5-.049-.577.103-1.152.43-1.63.402-.465.996-.72 1.61-.69h.61l-.17-4.6c-.083-.634.047-1.278.37-1.83.4-.422.97-.64 1.55-.59.535-.062 1.07.109 1.47.47.4.516.598 1.159.56 1.81l.17 4.59 2.47-.09c.714-.038 1.43.02 2.13.17.552.121 1.054.407 1.44.82.402.472.683 1.035.82 1.64.203.866.314 1.75.33 2.64.06 1.72.12 3.32.18 4.82.06 1.5.09 2.9.11 4.21.02 1.31 0 2.57 0 3.75v3.4c.02 1.386-.124 2.769-.43 4.12-.22.918-.66 1.768-1.28 2.48-.58.582-1.336.958-2.15 1.07-1.046.136-2.108.092-3.14-.13-1.22-.24-2-.62-2.25-1.16-.27-.737-.231-1.553.11-2.26.134-.6.535-1.105 1.09-1.37.593-.164 1.224-.122 1.79.12.322.135.657.236 1 .3.25.05.507-.062.64-.28.195-.38.314-.794.35-1.22.08-.57.14-1.38.18-2.42.04-1.04.06-2.12.07-3.08.01-.96 0-1.92 0-2.87v-2.95c0-1.02-.06-2.12-.11-3.34 0-.61 0-1.22-.09-1.84-.09-.62-.07-1.26-.12-1.92 0-.33-.17-.49-.48-.47l-2.24.08c.09 3 .09 5.77 0 8.21-.052 2.224-.25 4.442-.59 6.64-.263 1.844-.712 3.656-1.34 5.41-.578 1.557-1.354 3.032-2.31 4.39-.362.605-.989 1.002-1.69 1.07-.616.052-1.222-.185-1.64-.64-.277-.273-.468-.62-.55-1-.01-.49.11-.973.35-1.4-.116.05-.237.09-.36.12l-.35.09c-2.567.533-5.233.987-8 1.36-2.74.38-5.59.73-8.58 1-.657.125-1.336.037-1.94-.25-.416-.307-.628-.819-.55-1.33-.07-.71.08-1.17.46-1.4.534-.266 1.124-.4 1.72-.39l3.37-.35c1.2-.11 2.2-.27 3.3-.42l-.1-2.24-6.15.23c-.497.063-1.002-.024-1.45-.25-.29-.19-.44-.62-.47-1.28-.08-.455.057-.92.37-1.26.428-.264.928-.39 1.43-.36l6.16-.23v-1.37l-3.73.14c-1.004.157-2.03-.091-2.85-.69-.613-.792-.915-1.78-.85-2.78l-.22-5.85c-.036-.67.004-1.34.12-2 .077-.446.278-.862.58-1.2.32-.31.723-.519 1.16-.6.62-.12 1.249-.188 1.88-.2l3.41-.13-.05-1.44-7 .26c-.5.067-1.008-.058-1.42-.35-.347-.322-.54-.777-.53-1.25-.068-.463.067-.933.37-1.29.401-.295.893-.44 1.39-.41l7-.26-.06-1.68c-.66.08-1.37.13-2.15.16-.78.03-1.53.09-2.34.15zm1.75 11.38l3.19-.12-.07-2.05L53 19c-.205-.017-.412.017-.6.1-.08.05-.11.21-.1.46l.05 1.49zm.17 4.52c0 .27 0 .44.11.49.205.057.419.074.63.05l2.47-.11-.07-2-3.19.12.05 1.45zm10.3-6.43c0-.23-.06-.37-.15-.43-.2-.08-.417-.107-.63-.08l-2.62.1.07 2.05 3.38-.12-.05-1.52zm-.52 6.63c.207.007.414-.023.61-.09.1-.06.14-.23.13-.5L63 23.7l-3.38.12.07 2.05 2.61-.1zM93.75 22.6c-.494.064-.993-.07-1.39-.37-.342-.426-.51-.965-.47-1.51-.079-.545.034-1.1.32-1.57.383-.335.883-.504 1.39-.47h1.14c-.148-.314-.236-.653-.26-1-.16-.88-.36-1.77-.6-2.67-.24-.91-.47-1.75-.7-2.52-.228-.544-.249-1.152-.06-1.71-.41.002-.8-.173-1.07-.48-.264-.421-.393-.913-.37-1.41-.086-.564.028-1.14.32-1.63.367-.364.875-.55 1.39-.51L96 6.66c-.043-.123-.073-.25-.09-.38-.231-.642-.27-1.337-.11-2 .083-.584.496-1.067 1.06-1.24.48-.265 1.06-.265 1.54 0 .584.379.983.984 1.1 1.67.06.28.14.56.22.85.08.29.18.61.27 1l1.9-.07c.542-.058 1.086.084 1.53.4.413.398.63.958.59 1.53.053.463-.05.93-.29 1.33-.246.322-.602.542-1 .62.222.642.274 1.332.15 2-.09.82-.23 1.7-.41 2.64-.18.94-.43 2.08-.73 3.41h1c.542-.058 1.089.069 1.55.36.436.388.662.959.61 1.54.088.56-.098 1.13-.5 1.53-.426.32-.947.489-1.48.48l-2.47.09.15 4.06 1.6-.06c.51-.07 1.026.079 1.42.41.297.43.435.95.39 1.47 0 1.29-.52 2-1.71 2l-1.71.06c-.046 2.474-.583 4.915-1.58 7.18-.187.442-.459.843-.8 1.18-.247.253-.543.454-.87.59-.263.107-.548.148-.83.12-.23-.01-.452-.086-.64-.22-.557-.273-.918-.83-.94-1.45.004-.802.203-1.592.58-2.3.725-1.577 1.165-3.27 1.3-5l-2.09.07c-1.22.05-1.85-.57-1.9-1.87-.068-.545.048-1.098.33-1.57.378-.366.895-.552 1.42-.51l2.24-.08-.15-4.06-2.9.16zm3.85-5.78c.153.56.153 1.15 0 1.71h.79c.31-1.212.551-2.44.72-3.68.153-1.12.263-2.1.33-2.94 0-.28 0-.54.09-.79.033-.212.076-.422.13-.63l-3.76.14.08.19c.03.072.058.145.08.22.32 1 .58 1.88.79 2.79.21.91.44 1.9.68 3l.07-.01zm29.27.63c.507-.066 1.018.074 1.42.39.343.43.51.972.47 1.52.05 1.29-.52 2-1.71 2l-3.11.12.16 4.52 2.7-.1c.52-.092 1.052.063 1.44.42.296.465.442 1.01.42 1.56.058.507-.05 1.02-.31 1.46-.373.368-.888.555-1.41.51l-2.69.1.24 6.42c0 .93-.13 1.53-.47 1.78-.412.271-.896.414-1.39.41-.482.058-.969-.052-1.38-.31-.31-.23-.49-.81-.52-1.75l-.24-6.41-2.62.09c-1.22.047-1.85-.563-1.89-1.83-.068-.55.044-1.109.32-1.59.371-.378.892-.572 1.42-.53l2.62-.09-.16-4.48-2.89.1c-.347.021-.694-.055-1-.22-.262-.148-.49-.349-.67-.59v3.12c0 1.04 0 2-.06 3s-.07 1.9-.13 2.78c-.06.88-.12 1.66-.19 2.34h0c-.027 1.442-.502 2.84-1.36 4-.76.86-1.853 1.351-3 1.35-1.023.024-2.04-.145-3-.5-1.233-.46-1.9-1.07-2-1.83-.23.42-.47.82-.69 1.21-.22.39-.48.76-.74 1.13-.407.655-1.014 1.163-1.73 1.45-.513.15-1.067.046-1.49-.28-.579-.31-.957-.895-1-1.55.156-.84.54-1.623 1.11-2.26 1.207-1.752 2.178-3.655 2.89-5.66.863-2.385 1.466-4.856 1.8-7.37.16-1.24.27-2.7.33-4.35.06-1.65.1-3.28.09-4.9-.635.083-1.28-.04-1.84-.35-.413-.477-.615-1.101-.56-1.73 0-.84.15-1.39.55-1.66.526-.302 1.124-.454 1.73-.44l-.14-3.8c-.07-.63.037-1.268.31-1.84.353-.415.887-.632 1.43-.58.542-.092 1.093.1 1.46.51.314.54.47 1.156.45 1.78l.14 3.79h1.21c.612-.032 1.225.001 1.83.1.473.081.915.289 1.28.6.379.365.646.83.77 1.34.201.747.306 1.517.31 2.29 0 .83.07 1.74.12 2.71.05.97.07 2.05.07 3.22.185-.203.4-.375.64-.51.289-.148.606-.23.93-.24h.79c0-.12-.11-.27-.17-.45-.06-.196-.103-.397-.13-.6-.16-.88-.36-1.77-.6-2.68-.24-.91-.48-1.74-.74-2.52-.156-.364-.24-.754-.25-1.15-.01-.368.123-.726.37-1-.748-.243-1.232-.966-1.17-1.75-.084-.577.104-1.161.51-1.58.47-.343 1.039-.522 1.62-.51L119 5.5l-.09-.24c-.02-.085-.047-.169-.08-.25-.323-.614-.435-1.316-.32-2 .21-.579.7-1.011 1.3-1.15.503-.247 1.099-.213 1.57.09.41.412.704.927.85 1.49.17.48.36 1.13.57 2l2.65-.1c.557-.05 1.114.092 1.58.4.434.386.666.95.63 1.53.125.809-.34 1.593-1.11 1.87.21.645.262 1.331.15 2-.1.84-.24 1.75-.43 2.73s-.45 2.21-.78 3.66l1.38-.08zm-16.76-4.93v5.44c-.043 1.634-.187 3.264-.43 4.88-.477 3.316-1.34 6.564-2.57 9.68.497-.137 1.027-.087 1.49.14.732.345 1.551.46 2.35.33.44-.17.7-.66.8-1.48.11-1.09.2-2.37.28-3.83.08-1.46.11-3 .13-4.57.02-1.57 0-3.17 0-4.77 0-1.6 0-3.1-.1-4.52 0-.58-.18-1-.49-1.11-.426-.165-.885-.23-1.34-.19h-.12zm9.22-2.35c.37.943.68 1.908.93 2.89.25 1 .46 1.92.62 2.83.173.58.173 1.2 0 1.78l1.44-.05c.35-1.41.63-2.7.83-3.87.2-1.17.33-2.21.39-3.1.016-.268.046-.535.09-.8 0-.23.09-.42.13-.57l-4.78.18c.165.21.284.451.35.71h0zM146.94 19.3c-.323.505-.855.84-1.45.91-.76-.038-1.487-.315-2.08-.79l-1.41-.84-1.17-.71-1.08-.67c-.37-.21-.74-.43-1.13-.64-.583-.244-1.063-.682-1.36-1.24-.127-.603-.02-1.233.3-1.76.713-1.22 1.833-1.453 3.36-.7l1.41.79c.43.23.84.47 1.23.69l1.16.7c.39.24.81.5 1.25.79.599.35 1.082.868 1.39 1.49.226.676.06 1.422-.43 1.94l.01.04zm1.25 6.11c-.82 1.927-1.703 3.76-2.65 5.5-.956 1.755-2.01 3.455-3.16 5.09-.388.609-1.01 1.029-1.72 1.16-.622.097-1.256-.06-1.76-.437-.505-.376-.836-.94-.92-1.563.05-.814.382-1.585.94-2.18 1.013-1.353 1.923-2.78 2.72-4.27.86-1.593 1.677-3.277 2.45-5.05.199-.674.613-1.264 1.18-1.68.566-.285 1.234-.285 1.8 0 .626.149 1.15.576 1.42 1.16.169.768.063 1.572-.3 2.27h0zm-.63-16.06c-.373.473-.93.764-1.53.8-.745-.08-1.445-.396-2-.9-.68-.48-1.34-.93-2-1.33l-2.14-1.33c-.547-.335-.976-.831-1.23-1.42-.146-.622-.003-1.276.39-1.78.74-1.187 1.86-1.357 3.36-.51 1 .6 2 1.16 2.73 1.69s1.35.93 1.71 1.19c.563.404 1.005.954 1.28 1.59.206.715-.002 1.486-.54 2h-.03zM170.14 5c.608-.09 1.225.088 1.69.49.355.483.538 1.07.52 1.67.054.597-.11 1.194-.46 1.68-.407.441-.99.676-1.59.64l-7.25.27.22 6 8.59-.32c.608-.09 1.224.09 1.69.49.357.482.537 1.071.51 1.67.053.606-.134 1.21-.52 1.68-.433.453-1.045.69-1.67.65l-10.29.38c-1 1.56-2 3.17-3 4.85-1 1.68-2 3.28-3 4.84-.41.68-.56 1.12-.45 1.33.11.21.5.29 1.15.24l11.44-1.37c-.42-.85-.81-1.63-1.19-2.33l-.9-1.66h0c-.41-.558-.617-1.238-.59-1.93.171-.553.524-1.032 1-1.36 1.333-.933 2.473-.643 3.42.87.16.27.45.82.87 1.64s.88 1.71 1.36 2.69c.48.98.86 1.89 1.31 2.89.45 1 .72 1.63.9 2.13.53 1.58.2 2.69-1 3.35-.598.291-1.282.348-1.92.16-.631-.392-1.095-1.005-1.3-1.72l-.12-.34-16.6 1.53c-.865.108-1.744.036-2.58-.21-.594-.175-1.06-.637-1.24-1.23-.155-.772-.078-1.572.22-2.3.456-1.226 1.05-2.397 1.77-3.49l2.59-4.09c.84-1.33 1.67-2.72 2.51-4.2l-5.13.19c-.61.104-1.233-.102-1.66-.55-.317-.476-.482-1.038-.47-1.61-.062-.586.038-1.177.29-1.71.23-.37.79-.58 1.67-.61l7.86-.29-.22-6-6.49.24c-.606.1-1.224-.097-1.66-.53-.353-.503-.535-1.106-.52-1.72-.058-.587.045-1.178.3-1.71.23-.37.79-.58 1.67-.61l6.49-.24-.1-2.73c-.103-.622.094-1.255.53-1.71.495-.325 1.078-.493 1.67-.48.579-.05 1.158.09 1.65.4.47.415.717 1.025.67 1.65l.1 2.73 7.26-.3z" transform="translate(174 69)"/>
            <path fill="#FFF" d="M10.65 24.3c-.377.54-.983.872-1.64.9-.704-.036-1.378-.291-1.93-.73-.47-.36-.91-.68-1.31-1-.4-.32-.77-.47-1.19-.73-.42-.26-.79-.47-1.21-.7L2 21.31c-.57-.256-1.04-.691-1.34-1.24-.237-.624-.147-1.326.24-1.87.243-.614.756-1.083 1.39-1.27.673-.06 1.348.1 1.92.46 1 .52 2 1 2.82 1.55.82.55 1.75 1.13 2.75 1.86.656.398 1.13 1.037 1.32 1.78.127.612-.04 1.249-.45 1.72zM9.81 11c.635.384 1.105.99 1.32 1.7.165.577.062 1.197-.28 1.69-.36.625-1.01 1.028-1.73 1.07-.746-.078-1.447-.393-2-.9-.83-.62-1.57-1.13-2.2-1.51l-2.2-1.29c-.644-.298-1.171-.801-1.5-1.43-.23-.647-.079-1.368.39-1.87.28-.54.793-.923 1.39-1.04.71-.02 1.41.183 2 .58l1.12.64 1.11.68 1.19.76c.4.27.87.58 1.39.92zm1.92 18.79C10.87 32.08 10 34.13 9.06 36c-.894 1.799-1.895 3.542-3 5.22-.359.694-1.007 1.192-1.77 1.36-.59.093-1.19-.096-1.62-.51-.525-.29-.892-.8-1-1.39-.012-.844.267-1.667.79-2.33.916-1.415 1.75-2.88 2.5-4.39.853-1.68 1.707-3.61 2.56-5.79.197-.664.617-1.24 1.19-1.63.55-.256 1.179-.285 1.75-.08.625.117 1.179.477 1.54 1 .236.787.138 1.637-.27 2.35v-.02zm3.91-16.49c-.456.04-.914.04-1.37 0-.3-.02-.592-.113-.85-.27-.209-.16-.374-.37-.48-.61-.121-.32-.196-.658-.22-1-.09-1 .08-1.6.52-1.9.672-.372 1.433-.552 2.2-.52C17 9 18.52 8.86 20 8.71c1.48-.15 2.83-.36 4.19-.61 1.36-.25 2.7-.55 4-.89 1.3-.34 2.64-.73 4-1.16.298-.109.606-.19.92-.24.297-.055.603-.055.9 0 .285.075.542.231.74.45.237.292.405.634.49 1 .193.586.104 1.228-.24 1.74-.474.495-1.06.87-1.71 1.09-.73.26-1.72.55-3 .87-1.28.32-2.7.65-4.28 1l.16 4.33 8.83-.38c.579-.115 1.178.048 1.619.442.44.393.67.97.621 1.558.087.592-.084 1.193-.47 1.65-.463.357-1.036.541-1.62.52l-8.89.33.15 4 5-.18c1.025-.132 2.063.113 2.92.69.72.799 1.082 1.858 1 2.93l.33 8.81c.03.6-.014 1.2-.13 1.79-.08.427-.262.828-.53 1.17-.312.323-.706.555-1.14.67-.585.156-1.185.243-1.79.26l-14.4.53c-1.016.136-2.045-.11-2.89-.69-.713-.803-1.073-1.859-1-2.93l-.32-8.82c-.165-1.059.101-2.14.74-3 .804-.639 1.815-.959 2.84-.9l4.9-.18-.15-4-8.47.31c-.578.11-1.175-.054-1.614-.446-.44-.393-.67-.967-.626-1.554-.051-.549.118-1.096.47-1.52.432-.42 1.019-.64 1.62-.61l8.47-.32-.14-3.72c-.89.13-1.86.25-2.92.36l-2.94.24zm15.51 16.21c.004-.303-.12-.593-.34-.8-.328-.214-.722-.303-1.11-.25l-10.52.39c-.397-.034-.788.109-1.07.39-.216.382-.3.825-.24 1.26l.18 4.82c-.034.43.099.855.37 1.19.314.23.704.33 1.09.28L30 36.4c.58 0 .95-.14 1.11-.42.182-.436.248-.911.19-1.38l-.15-5.09zM50.6 9.67c-.71.119-1.438.078-2.13-.12-.36-.16-.57-.61-.62-1.34-.05-.73 0-1.26.38-1.5.677-.326 1.418-.497 2.17-.5L53.76 6c1.02-.06 2.02-.14 3-.24 1-.1 1.93-.23 2.9-.39s2-.38 3.15-.65c.53-.1 1-.16 1.28-.2.257-.06.523-.06.78 0 .201.065.367.21.46.4.125.263.222.537.29.82.082.296.126.602.13.91.004.21-.067.416-.2.58-.182.188-.41.326-.66.4-.383.162-.782.286-1.19.37-.83.18-1.63.35-2.4.49s-1.52.29-2.25.45l.08 2 6.45-.24c.518-.085 1.049.053 1.46.38.288.34.44.774.43 1.22.063.457-.055.92-.33 1.29-.412.304-.92.45-1.43.41l-6.46.24v1.45l3.61-.14c.648-.034 1.297-.008 1.94.08.446.059.864.25 1.2.55.313.316.528.715.62 1.15.13.632.204 1.275.22 1.92l.22 5.84c.165 1.029-.107 2.08-.75 2.9-.796.598-1.776.899-2.77.85L59.8 29l.05 1.36 5.39-.2c.497-.059 1.001.028 1.45.25.338.32.511.777.47 1.24.084.47-.053.953-.37 1.31-.435.256-.935.381-1.44.36l-5.39.2.04 1.73 2.81-.5 2.74-.5c.506-.15 1.04-.185 1.56-.1.413.127.709.49.75.92.03.112.053.225.07.34.009.09.009.18 0 .27.611-1.072 1.117-2.2 1.51-3.37.426-1.321.721-2.681.88-4.06.21-1.84.327-3.689.35-5.54 0-2.15 0-4.75-.08-7.82h-.61c-.58.07-1.166-.073-1.65-.4-.384-.402-.583-.945-.55-1.5-.049-.577.103-1.152.43-1.63.402-.465.996-.72 1.61-.69h.61l-.17-4.6c-.083-.634.047-1.278.37-1.83.4-.422.97-.64 1.55-.59.535-.062 1.07.109 1.47.47.4.516.598 1.159.56 1.81l.17 4.59 2.47-.09c.714-.038 1.43.02 2.13.17.552.121 1.054.407 1.44.82.402.472.683 1.035.82 1.64.203.866.314 1.75.33 2.64.06 1.72.12 3.32.18 4.82.06 1.5.09 2.9.11 4.21.02 1.31 0 2.57 0 3.75v3.4c.02 1.386-.124 2.769-.43 4.12-.22.918-.66 1.768-1.28 2.48-.58.582-1.336.958-2.15 1.07-1.046.136-2.108.092-3.14-.13-1.22-.24-2-.62-2.25-1.16-.27-.737-.231-1.553.11-2.26.134-.6.535-1.105 1.09-1.37.593-.164 1.224-.122 1.79.12.322.135.657.236 1 .3.25.05.507-.062.64-.28.195-.38.314-.794.35-1.22.08-.57.14-1.38.18-2.42.04-1.04.06-2.12.07-3.08.01-.96 0-1.92 0-2.87v-2.95c0-1.02-.06-2.12-.11-3.34 0-.61 0-1.22-.09-1.84-.09-.62-.07-1.26-.12-1.92 0-.33-.17-.49-.48-.47l-2.24.08c.09 3 .09 5.77 0 8.21-.052 2.224-.25 4.442-.59 6.64-.263 1.844-.712 3.656-1.34 5.41-.578 1.557-1.354 3.032-2.31 4.39-.362.605-.989 1.002-1.69 1.07-.616.052-1.222-.185-1.64-.64-.277-.273-.468-.62-.55-1-.01-.49.11-.973.35-1.4-.116.05-.237.09-.36.12l-.35.09c-2.567.533-5.233.987-8 1.36-2.74.38-5.59.73-8.58 1-.657.125-1.336.037-1.94-.25-.416-.307-.628-.819-.55-1.33-.07-.71.08-1.17.46-1.4.534-.266 1.124-.4 1.72-.39l3.37-.35c1.2-.11 2.2-.27 3.3-.42l-.1-2.24-6.15.23c-.497.063-1.002-.024-1.45-.25-.29-.19-.44-.62-.47-1.28-.08-.455.057-.92.37-1.26.428-.264.928-.39 1.43-.36l6.16-.23v-1.37l-3.73.14c-1.004.157-2.03-.091-2.85-.69-.613-.792-.915-1.78-.85-2.78l-.22-5.85c-.036-.67.004-1.34.12-2 .077-.446.278-.862.58-1.2.32-.31.723-.519 1.16-.6.62-.12 1.249-.188 1.88-.2l3.41-.13-.05-1.44-7 .26c-.5.067-1.008-.058-1.42-.35-.347-.322-.54-.777-.53-1.25-.068-.463.067-.933.37-1.29.401-.295.893-.44 1.39-.41l7-.26-.06-1.68c-.66.08-1.37.13-2.15.16-.78.03-1.53.09-2.34.15zm1.75 11.38l3.19-.12-.07-2.05L53 19c-.205-.017-.412.017-.6.1-.08.05-.11.21-.1.46l.05 1.49zm.17 4.52c0 .27 0 .44.11.49.205.057.419.074.63.05l2.47-.11-.07-2-3.19.12.05 1.45zm10.3-6.43c0-.23-.06-.37-.15-.43-.2-.08-.417-.107-.63-.08l-2.62.1.07 2.05 3.38-.12-.05-1.52zm-.52 6.63c.207.007.414-.023.61-.09.1-.06.14-.23.13-.5L63 23.7l-3.38.12.07 2.05 2.61-.1zM93.75 22.6c-.494.064-.993-.07-1.39-.37-.342-.426-.51-.965-.47-1.51-.079-.545.034-1.1.32-1.57.383-.335.883-.504 1.39-.47h1.14c-.148-.314-.236-.653-.26-1-.16-.88-.36-1.77-.6-2.67-.24-.91-.47-1.75-.7-2.52-.228-.544-.249-1.152-.06-1.71-.41.002-.8-.173-1.07-.48-.264-.421-.393-.913-.37-1.41-.086-.564.028-1.14.32-1.63.367-.364.875-.55 1.39-.51L96 6.66c-.043-.123-.073-.25-.09-.38-.231-.642-.27-1.337-.11-2 .083-.584.496-1.067 1.06-1.24.48-.265 1.06-.265 1.54 0 .584.379.983.984 1.1 1.67.06.28.14.56.22.85.08.29.18.61.27 1l1.9-.07c.542-.058 1.086.084 1.53.4.413.398.63.958.59 1.53.053.463-.05.93-.29 1.33-.246.322-.602.542-1 .62.222.642.274 1.332.15 2-.09.82-.23 1.7-.41 2.64-.18.94-.43 2.08-.73 3.41h1c.542-.058 1.089.069 1.55.36.436.388.662.959.61 1.54.088.56-.098 1.13-.5 1.53-.426.32-.947.489-1.48.48l-2.47.09.15 4.06 1.6-.06c.51-.07 1.026.079 1.42.41.297.43.435.95.39 1.47 0 1.29-.52 2-1.71 2l-1.71.06c-.046 2.474-.583 4.915-1.58 7.18-.187.442-.459.843-.8 1.18-.247.253-.543.454-.87.59-.263.107-.548.148-.83.12-.23-.01-.452-.086-.64-.22-.557-.273-.918-.83-.94-1.45.004-.802.203-1.592.58-2.3.725-1.577 1.165-3.27 1.3-5l-2.09.07c-1.22.05-1.85-.57-1.9-1.87-.068-.545.048-1.098.33-1.57.378-.366.895-.552 1.42-.51l2.24-.08-.15-4.06-2.9.16zm3.85-5.78c.153.56.153 1.15 0 1.71h.79c.31-1.212.551-2.44.72-3.68.153-1.12.263-2.1.33-2.94 0-.28 0-.54.09-.79.033-.212.076-.422.13-.63l-3.76.14.08.19c.03.072.058.145.08.22.32 1 .58 1.88.79 2.79.21.91.44 1.9.68 3l.07-.01zm29.27.63c.507-.066 1.018.074 1.42.39.343.43.51.972.47 1.52.05 1.29-.52 2-1.71 2l-3.11.12.16 4.52 2.7-.1c.52-.092 1.052.063 1.44.42.296.465.442 1.01.42 1.56.058.507-.05 1.02-.31 1.46-.373.368-.888.555-1.41.51l-2.69.1.24 6.42c0 .93-.13 1.53-.47 1.78-.412.271-.896.414-1.39.41-.482.058-.969-.052-1.38-.31-.31-.23-.49-.81-.52-1.75l-.24-6.41-2.62.09c-1.22.047-1.85-.563-1.89-1.83-.068-.55.044-1.109.32-1.59.371-.378.892-.572 1.42-.53l2.62-.09-.16-4.48-2.89.1c-.347.021-.694-.055-1-.22-.262-.148-.49-.349-.67-.59v3.12c0 1.04 0 2-.06 3s-.07 1.9-.13 2.78c-.06.88-.12 1.66-.19 2.34-.027 1.442-.502 2.84-1.36 4-.76.86-1.853 1.351-3 1.35-1.023.024-2.04-.145-3-.5-1.233-.46-1.9-1.07-2-1.83-.23.42-.47.82-.69 1.21-.22.39-.48.76-.74 1.13-.407.655-1.014 1.163-1.73 1.45-.513.15-1.067.046-1.49-.28-.579-.31-.957-.895-1-1.55.156-.84.54-1.623 1.11-2.26 1.207-1.752 2.178-3.655 2.89-5.66.863-2.385 1.466-4.856 1.8-7.37.16-1.24.27-2.7.33-4.35.06-1.65.1-3.28.09-4.9-.635.083-1.28-.04-1.84-.35-.413-.477-.615-1.101-.56-1.73 0-.84.15-1.39.55-1.66.526-.302 1.124-.454 1.73-.44l-.14-3.8c-.07-.63.037-1.268.31-1.84.353-.415.887-.632 1.43-.58.542-.092 1.093.1 1.46.51.314.54.47 1.156.45 1.78l.14 3.79h1.21c.612-.032 1.225.001 1.83.1.473.081.915.289 1.28.6.379.365.646.83.77 1.34.201.747.306 1.517.31 2.29 0 .83.07 1.74.12 2.71.05.97.07 2.05.07 3.22.185-.203.4-.375.64-.51.289-.148.606-.23.93-.24h.79c0-.12-.11-.27-.17-.45-.06-.196-.103-.397-.13-.6-.16-.88-.36-1.77-.6-2.68-.24-.91-.48-1.74-.74-2.52-.156-.364-.24-.754-.25-1.15-.01-.368.123-.726.37-1-.748-.243-1.232-.966-1.17-1.75-.084-.577.104-1.161.51-1.58.47-.343 1.039-.522 1.62-.51L119 5.5l-.09-.24c-.02-.085-.047-.169-.08-.25-.323-.614-.435-1.316-.32-2 .21-.579.7-1.011 1.3-1.15.503-.247 1.099-.213 1.57.09.41.412.704.927.85 1.49.17.48.36 1.13.57 2l2.65-.1c.557-.05 1.114.092 1.58.4.434.386.666.95.63 1.53.125.809-.34 1.593-1.11 1.87.21.645.262 1.331.15 2-.1.84-.24 1.75-.43 2.73s-.45 2.21-.78 3.66l1.38-.08zm-16.76-4.93v5.44c-.043 1.634-.187 3.264-.43 4.88-.477 3.316-1.34 6.564-2.57 9.68.497-.137 1.027-.087 1.49.14.732.345 1.551.46 2.35.33.44-.17.7-.66.8-1.48.11-1.09.2-2.37.28-3.83.08-1.46.11-3 .13-4.57.02-1.57 0-3.17 0-4.77 0-1.6 0-3.1-.1-4.52 0-.58-.18-1-.49-1.11-.426-.165-.885-.23-1.34-.19h-.12zm9.22-2.35c.37.943.68 1.908.93 2.89.25 1 .46 1.92.62 2.83.173.58.173 1.2 0 1.78l1.44-.05c.35-1.41.63-2.7.83-3.87.2-1.17.33-2.21.39-3.1.016-.268.046-.535.09-.8 0-.23.09-.42.13-.57l-4.78.18c.165.21.284.451.35.71zM146.94 19.3c-.323.505-.855.84-1.45.91-.76-.038-1.487-.315-2.08-.79l-1.41-.84-1.17-.71-1.08-.67c-.37-.21-.74-.43-1.13-.64-.583-.244-1.063-.682-1.36-1.24-.127-.603-.02-1.233.3-1.76.713-1.22 1.833-1.453 3.36-.7l1.41.79c.43.23.84.47 1.23.69l1.16.7c.39.24.81.5 1.25.79.599.35 1.082.868 1.39 1.49.226.676.06 1.422-.43 1.94l.01.04zm1.25 6.11c-.82 1.927-1.703 3.76-2.65 5.5-.956 1.755-2.01 3.455-3.16 5.09-.388.609-1.01 1.029-1.72 1.16-.622.097-1.256-.06-1.76-.437-.505-.376-.836-.94-.92-1.563.05-.814.382-1.585.94-2.18 1.013-1.353 1.923-2.78 2.72-4.27.86-1.593 1.677-3.277 2.45-5.05.199-.674.613-1.264 1.18-1.68.566-.285 1.234-.285 1.8 0 .626.149 1.15.576 1.42 1.16.169.768.063 1.572-.3 2.27zm-.63-16.06c-.373.473-.93.764-1.53.8-.745-.08-1.445-.396-2-.9-.68-.48-1.34-.93-2-1.33l-2.14-1.33c-.547-.335-.976-.831-1.23-1.42-.146-.622-.003-1.276.39-1.78.74-1.187 1.86-1.357 3.36-.51 1 .6 2 1.16 2.73 1.69s1.35.93 1.71 1.19c.563.404 1.005.954 1.28 1.59.206.715-.002 1.486-.54 2h-.03zM170.14 5c.608-.09 1.225.088 1.69.49.355.483.538 1.07.52 1.67.054.597-.11 1.194-.46 1.68-.407.441-.99.676-1.59.64l-7.25.27.22 6 8.59-.32c.608-.09 1.224.09 1.69.49.357.482.537 1.071.51 1.67.053.606-.134 1.21-.52 1.68-.433.453-1.045.69-1.67.65l-10.29.38c-1 1.56-2 3.17-3 4.85-1 1.68-2 3.28-3 4.84-.41.68-.56 1.12-.45 1.33.11.21.5.29 1.15.24l11.44-1.37c-.42-.85-.81-1.63-1.19-2.33l-.9-1.66c-.41-.558-.617-1.238-.59-1.93.171-.553.524-1.032 1-1.36 1.333-.933 2.473-.643 3.42.87.16.27.45.82.87 1.64s.88 1.71 1.36 2.69c.48.98.86 1.89 1.31 2.89.45 1 .72 1.63.9 2.13.53 1.58.2 2.69-1 3.35-.598.291-1.282.348-1.92.16-.631-.392-1.095-1.005-1.3-1.72l-.12-.34-16.6 1.53c-.865.108-1.744.036-2.58-.21-.594-.175-1.06-.637-1.24-1.23-.155-.772-.078-1.572.22-2.3.456-1.226 1.05-2.397 1.77-3.49l2.59-4.09c.84-1.33 1.67-2.72 2.51-4.2l-5.13.19c-.61.104-1.233-.102-1.66-.55-.317-.476-.482-1.038-.47-1.61-.062-.586.038-1.177.29-1.71.23-.37.79-.58 1.67-.61l7.86-.29-.22-6-6.49.24c-.606.1-1.224-.097-1.66-.53-.353-.503-.535-1.106-.52-1.72-.058-.587.045-1.178.3-1.71.23-.37.79-.58 1.67-.61l6.49-.24-.1-2.73c-.103-.622.094-1.255.53-1.71.495-.325 1.078-.493 1.67-.48.579-.05 1.158.09 1.65.4.47.415.717 1.025.67 1.65l.1 2.73 7.26-.3z" transform="translate(174 69)"/>
        </g>
    </g>
</svg>
