<svg xmlns="http://www.w3.org/2000/svg" width="334" height="257" viewBox="0 0 334 257">
    <g fill="none" transform="translate(0 27.81)">
        <path fill="#FFF" d="M184 127.436c-.045.393-.128.782-.25 1.16-2.56 8.314-21.74 15.42-37.8 11.565-8.55-2.071-18.71-7.825-20.34-13.579-.2-.676-.268-1.381-.2-2.08.67-6.234 13-9.744 22.91-11.345-1.242 3.376-1.917 6.92-2 10.5l5.64.422c-.026-2.26.236-4.514.78-6.712.354-1.726.918-3.406 1.68-5.006.78-.087 1.51-.144 2.19-.182 1.5-.106 2.9-.144 4.2-.135.474 1.468.845 2.964 1.11 4.479l4-.317c-.13-1.329-.38-2.645-.75-3.932 6.6.69 9.8 2.733 10.93 3.51 1.13.777 8.61 5.917 7.9 11.652z"/>
        <path fill="#302B3A" d="M165.9 116.197l-4 .316c-.265-1.515-.636-3.01-1.11-4.478-.227-.758-.522-1.496-.88-2.206-.72-1.199-2.74 0-3 .115-1.108.494-2 1.346-2.52 2.407-.762 1.6-1.326 3.28-1.68 5.006-.544 2.199-.806 4.453-.78 6.713l-5.64-.422c.083-3.58.758-7.124 2-10.5.694-1.987 1.78-3.827 3.2-5.419 1.26-1.323 3.62-3.788 6.41-3.606 2.95.202 5.82 3.318 7.22 8.161.379 1.28.64 2.59.78 3.913zM183 133.381c-.042.109-.092.215-.15.317-1 1.741-2.494 3.174-4.31 4.133-4.61 2.78-9.767 4.624-15.15 5.418-5.66.77-11.42.553-17-.643-4.824-1.143-9.444-2.966-13.71-5.408-2.04-1.162-3.81-2.712-5.2-4.555l-.39-.537c-.797-1.024-1.31-2.225-1.49-3.49-.08-.685-.054-1.377.08-2.053 1.63 5.754 11.79 11.507 20.38 13.607 16.06 3.836 35.24-3.25 37.8-11.565.144 1.637-.152 3.281-.86 4.776z"/>
        <path fill="#E24D34" d="M183 133.381c-.29 3.836-.89 10.434-1.19 13.205-.56 4.977-1.14 9.59-1.87 14.068-3.86 8.228-8.65 11.239-16.33 13.828-10.43 3.5-24.58 1.477-31.19-7.48-2.113-2.973-3.623-6.3-4.45-9.81-.08-.806-.15-1.573-.2-2.282-.46-5.697-.89-11.057-.83-18.144 0-1.803.06-3.375.11-4.66l.39.537c1.39 1.843 3.16 3.393 5.2 4.555 4.266 2.442 8.886 4.265 13.71 5.408 5.58 1.196 11.34 1.414 17 .643 5.383-.794 10.54-2.638 15.15-5.418 1.816-.959 3.31-2.392 4.31-4.133.072-.101.135-.207.19-.317z"/>
        <ellipse cx="94.77" cy="207.47" fill="#302B3A" rx="36.28" ry="21.212"/>
        <path fill="#302B3A" d="M83.26 184.877c-.06.959-13.25 1.026-22 .652-8.195-.32-16.363-1.11-24.46-2.369-1.29-.178-2.6.17-3.61.96-1.673 1.005-3.518 1.72-5.45 2.11-3.127.962-6.54.522-9.29-1.2-1.06-.7-3.61-2.359-3.6-4.68 0-1.84 1.65-3.193 2.4-3.835 4-3.251 8.72-1.477 10.25-.873 2.197.85 4.201 2.1 5.9 3.683.924 1.036 2.278 1.629 3.7 1.62 4.69-.115 10.66 0 11.53.048 17.1.374 34.71 2.743 34.63 3.884zM67.25 190.218c.22.96-12.47 4.44-21 6.377-7.97 1.826-16.049 3.19-24.19 4.086-1.294.156-2.461.824-3.22 1.84-1.32 1.404-2.892 2.57-4.64 3.443-2.733 1.749-6.145 2.217-9.28 1.276-1.23-.393-4.15-1.324-4.79-3.558-.52-1.784.67-3.5 1.22-4.296 2.9-4.162 8-3.692 9.62-3.51 2.35.24 4.63.918 6.71 1.995 1.18.748 2.64.965 4 .594 4.48-1.342 10.27-2.761 11.11-2.972 16.59-4.086 34.21-6.397 34.46-5.275z"/>
        <ellipse cx="95.05" cy="207.575" fill="#FFF" rx="29.22" ry="16.906"/>
        <path fill="#E24D34" d="M99.67 204.2c-3.16-1.544-2.78-4.469-4.86-5.409-3.09-1.4-10.47 2.177-11.43 8.113-.74 4.536 2.57 8.63 6.11 10.366 5.63 2.791 13.44.46 15.51-4.056 1.15-2.512.79-6.281-1.25-7.815-1.28-.96-2.18-.278-4.08-1.2zM112.1 197.938c2.4-2.186 3.6-3.28 4-4.613.82-2.934-1.52-5.753-1.88-6.204-2.79-3.376-8.9-5.59-13.16-2.81-3.8 2.493-3.67 7.355-3.66 7.614.176 2.712 1.542 5.224 3.76 6.914.47.355 3.83 2.877 7.21 1.918.98-.335 1.9-1.15 3.73-2.82z"/>
        <path fill="#302B3A" d="M114.24 199.913c-.95.163-1.39 2.168-1.49 3.155-.3 3.136 2 4.114 2 7.365 0 2.503-1.42 3.836-.94 4.21.63.441 3.68-1.343 4.78-4.056 1.86-4.68-2.52-10.99-4.35-10.674zM81.81 202.023c-.33-.882-2.67-.959-4.31-.527-2 .489-4.08 1.918-3.84 2.877.24.958 3.19 1.448 5.41.527 1.49-.643 3.05-2.052 2.74-2.877z"/>
        <path fill="#732622" d="M240.77 63.914c-3.62-3.298-36.14-18.757-46.49-20.31-10.35-1.554-14.07 8.63-9.29 13.54 4.78 4.91 33.85 26.688 41.66 28.577 12.26 2.963 23.7-13.051 14.12-21.807z"/>
        <path fill="#732622" d="M199.46 42.194c-4.07-10.97-10.6-22.056-9.37-31.415 0 0-4.44-4.172-6.73-.25-2.29 3.922-12.55 46.548 10 50.394 0 .038 10.17-7.72 6.1-18.729z"/>
        <path fill="#732622" d="M192 13.982c2.94-1.113.76-5.14 1.44-7.01.34-.96-2.06.402-2.33 3.26-.54-2.957-.805-5.954-.79-8.957.15-2.876-3.83.106-6.32-.297-1-.153-2-.556-2.42.374-1.067 2.312-1.245 4.911-.5 7.336 1.55 6.281.43 5.955.16 9.13-.27 3.174 7.05 1.553 7.05 1.553s.71-4.277 3.71-5.39zM264.29 60.155c4.21-2.589 39.19-11.862 49.66-11.507 10.47.355 12.11 11.057 6.45 14.988-5.66 3.932-38.5 20.052-46.55 20.493-12.63.671-20.7-17.127-9.56-23.974z"/>
        <path fill="#732622" d="M307.51 48.092c4.9-10.654 12.27-21.222 11.77-30.687 0 0 4.74-3.836 6.73.24 1.99 4.075 8.93 47.305-13.86 49.549 0 .01-9.54-8.448-4.64-19.102z"/>
        <path fill="#732622" d="M315.93 14.538c-2.85-1.324-.37-5.179-.9-7.097-.26-.958 2 .547 2.08 3.424.76-2.913 1.253-5.884 1.47-8.88.08-2.877 3.82.384 6.33.153 1-.086 2-.412 2.38.537.889 2.382.867 4.988-.06 7.356-2 6.147-.89 5.907-.87 9.09.02 3.184-7.14 1.055-7.14 1.055s-.44-4.324-3.29-5.638z"/>
        <ellipse cx="286.86" cy="139.883" fill="#EEC63B" rx="22.18" ry="5.418"/>
        <path fill="#F3AB55" d="M265.53 41.753l-8.79 2.541s-2.3 7.825-.19 10.079c3.78 4.037 10.79 1.371 10.79 1.371-4.69-1.18-2.73-7.422-1.81-13.991z"/>
        <path fill="#732622" d="M246.22 50.268c3-11.2.4-24.386.4-24.386l11.36.154s-3 13.425-.21 24.808c.66 2.694 1.48 4.727 4.3 5.111 6.323 1.07 12.232 3.745 17.11 7.748 0 0-8.33 35.54-27.76 35.29s-28.58-33.314-28.58-33.314c5.55-7.892 13.95-9.446 18.81-9.992 3.03-.336 3.81-2.551 4.57-5.419z"/>
        <path fill="#CA1F2B" d="M248.54 78.864L251.66 68.968 254.49 78.941z"/>
        <path fill="#FFF" d="M244.45 55.14c1.493 2.838 2.89 5.715 4.19 8.63 1.347 2.914 2.493 5.909 3.43 8.967h-.56c1.33-2.877 2.56-5.754 3.76-8.63 1.249-2.885 2.252-5.86 3-8.9-.547 3.096-1.425 6.13-2.62 9.053-1.11 2.953-2.35 5.85-3.64 8.736-.029.069-.085.124-.157.152-.071.03-.151.03-.223.001-.084-.038-.149-.107-.18-.192-.909-3.04-2-6.028-3.27-8.947-1.193-2.985-2.437-5.942-3.73-8.87z"/>
        <ellipse cx="251.78" cy="73.523" fill="#F7D45C" rx="2.71" ry="2.599"/>
        <path fill="#EEC73B" d="M253.83 73.523c0 1.053-.886 1.909-1.984 1.917-1.098.009-1.998-.833-2.016-1.886-.018-1.053.852-1.922 1.95-1.949.539-.013 1.06.184 1.447.545.386.36.603.856.603 1.373z"/>
        <path fill="#F7D45C" d="M250.32 75.757c.339.207.721.338 1.12.384l3-2.877c-.05-.379-.186-.742-.4-1.064l-3.72 3.557z" opacity=".55"/>
        <path fill="#F7D45C" d="M251.78 70.963h-.25c-.044.081-.102.156-.17.22l-2.28 2.187v.182c.001.2.028.4.08.594 1.08-1.045 2.17-2.08 3.26-3.126-.21-.044-.425-.064-.64-.057z"/>
        <path fill="#FD8787" d="M268.49 99.175c3.41-13.53 10.09-17.75 3.1-25.22 0 0-16.23-1.918-19 5.389-2.8-7.25-21-5.898-21-5.898-7.17 7.24-1.15 14.759 1.52 28.596 2.89 14.95-14.3 14.701-20.11 43.72 37.23 15.342 75.18 2.166 75.18 2.166-2.55-36.45-23.08-35.203-19.69-48.753z"/>
        <path fill="#FFF" d="M252.44 83.88c4.88-4.565 11.26-7.586 18.24-6.8 1.174.147 2.33.404 3.45.768-.568-1.447-1.432-2.77-2.54-3.893 0 0-16.23-1.918-19 5.389-2.8-7.25-21-5.898-21-5.898-1.186 1.134-2.125 2.484-2.76 3.97 8.48-2.617 18.64-.421 23.61 6.464z"/>
        <path fill="#4C1413" d="M279.58 179.325c32.87 0 33.84-74.799 18.71-90.257-5.5-5.62-19-4.603-23.13 1.994-11.88 18.901-19.58 51.046-16.91 66.389 1.75 10.117 2.75 21.874 21.33 21.874z"/>
        <path fill="#F7D45C" d="M289.58 145.3c-12.46 0-24.57-6.894-31.12-16.925-2.06 9.585-2.131 19.465-.21 29.076 1.75 10.117 2.75 21.874 21.33 21.874 16.58 0 26.87-16.897 29.45-39.442-5.1 4.267-13.22 5.418-19.45 5.418z"/>
        <path fill="#EEC73B" d="M298.84 144.37c-3.042.636-6.147.957-9.26.96-12.46 0-24.57-6.895-31.12-16.926-2.06 9.585-2.131 19.465-.21 29.076 1.75 10.088 2.75 21.845 21.33 21.845 3.436.005 6.823-.788 9.87-2.311.983-11.347 4.167-22.418 9.39-32.643z"/>
        <path fill="#732622" d="M262.06 184.973c8.95-21.241 39.63-60.107 39.63-87.735 0-9.944-14.11-17.261-24.38-8.506-12.68 10.836-9.67 73.37-17.6 84.81-1.18 1.707-3.17 4.354-4.35 5.754 3.53 1.41 3.5 3.395 6.7 5.677z"/>
        <path fill="#4C1413" d="M271.65 107.077c-2.65 26.525-4.38 53.356-10.09 61.603-1.68 2.436-4.52 6.195-6.2 8.247 5 1.966 5 4.795 9.55 8.046 3.58-8.487 8.56-19.659 13.73-32.163 2.1-5.083 14.17-28.098-6.99-45.733z"/>
        <path fill="#4C1413" d="M202.11 163.262c-11.72-37.303 36.78-45.579 46.15-49.252 10.32-4.047 32.34-5.063 32.34 15.343 0 21.99-15 40.382-27.63 46.692-8.34 4.239-41.97 15.593-50.86-12.783z"/>
        <path fill="#F7D45C" d="M259.7 159.052c-23.15 0-33.43-23.389-28.65-39.873-22 8.209-38.45 13.819-28.94 44.112 8.89 28.347 42.52 16.993 50.89 12.783 6.91-3.452 14.51-10.549 20-19.822-4.149 1.904-8.7 2.863-13.3 2.8z"/>
        <path fill="#EEC73B" d="M259.7 159.052c-16.46 0-26.37-11.833-29-24.587-4.12 12.217-13.59 21.605-27.33 25.891-.62.192-1.27.307-1.9.47.22.815.4 1.583.67 2.436 8.86 28.376 42.49 17.022 50.86 12.812 6.91-3.452 14.51-10.549 20-19.822-4.149 1.904-8.7 2.863-13.3 2.8z"/>
        <path fill="#732622" d="M265.59 186.526c-1.18-8.525 10.68-34.771 15-53.5 4.64-20.08-31.19-35.107-43.84-1.122-10.83 29.105 16 40.17 16.79 59.916l12.05-5.294z"/>
        <path fill="#F3AB55" d="M288.84 195.713c.16 1.985-2.68 4.296-8.83 4.296-6.92 0-8.63-1.438-15.44.96-4.92 1.725-12.48 1.428-12.42-3.712.06-5.14 36.03-9.474 36.69-1.544z"/>
        <path fill="#FFF" d="M288.07 192.645c.433.974.693 2.011.77 3.068 0 0-1.4-4.9-11.4-2.944-10 1.956-17 6.511-22.72 6.511-3.52 0-2.49-4.027-2.49-4.027s32.96-14.202 35.84-2.608z"/>
        <path fill="#4843B7" d="M268.68 187.274s4.76-6.05.2-5.466c-5.06.652-6.41 6.521-11.36 7.087-4.95.566-5.27 0-5.27 0s-1.5 8.381 2.05 8.381c2.05 0 10.53-3.375 19.45-5.753 8.92-2.379 11.74-1.765 14.32 1.083-.94-5.945-10.27-7.844-19.39-5.332z"/>
        <path fill="#D2E6EB" d="M284.07 188.07c-2.749.063-5.39 1.039-7.47 2.762-.36.067-.68.154-1 .23-.57.144-1.19.288-1.82.46-5 1.314-9.88 2.964-13.57 4.134-1 .345-2 .661-2.8.891.273-2.075 1.173-4.028 2.59-5.619-.265.57-.265 1.222 0 1.793 0 0 4-4.085 7.29-4.392 0 0-1.22 2.167-.8 2.935-.07 0 9.07-5.534 17.58-3.194z"/>
        <path fill="#F3AB55" d="M269.3 18.028c-4.09.528-16.32 3.088-11.46 14.087 4.86 11 21.29 7.279 21.65-3.24.36-10.52-6.99-11.259-10.19-10.847z"/>
        <path fill="#F3AB55" d="M276.41 26.074c1.062 2.69 1.686 5.52 1.85 8.39.087 1.424-.152 2.847-.7 4.172-.602 1.347-1.784 2.376-3.24 2.82 1.597-.27 2.995-1.186 3.84-2.513.819-1.354 1.32-2.862 1.47-4.42.291-3.084.085-6.193-.61-9.216l-2.61.767zM248.17 25.431s-2.95-6.54-8.68-.268c-5.11 5.6-.55 18.22-3.9 22.64-4.24 5.62-9.19 5.707-9.19 5.707s9.07 8.247 17.37 2.464c5.06-3.529 4.4-30.543 4.4-30.543z"/>
        <path fill="#732622" d="M255.67 21.653c-4 5.284-5 6.492-5 6.492s-.84-2.119-3-1.918c-2.16.202-4.95 6.042-3.93 7.73.542.969 1.724 1.435 2.82 1.112.163 3.514 1.866 6.798 4.69 9.043 0 0 7.1 5.648 10.25 6.003 3.15.355 5.36-2.695 7.49-7.537 2.13-4.843 8.82-14.567 3.16-18.806-5.66-4.238-12.53-7.403-16.48-2.119z"/>
        <path fill="#F3AB55" d="M253.1 11.45c-14.07 3.52-15.31 22.746-8 25.144.66.22 1.9-.326 1.49-1.43-.21-.555-2.11-.67-2.45-1.284-1-1.87 1.46-7.595 3.9-7.538 1.44.081 2.615 1.132 2.8 2.503 10.56 5.227 17.14.96 23.51-3.126 4.59-2.973 1.5-14.97-6.57-12.84-3.18.844-10.49-2.465-14.68-1.43z"/>
        <path fill="#FD8787" d="M281.42 188.914c-2.149.109-4.204.879-5.86 2.196-.57.144-1.19.288-1.82.46-5 1.314-9.88 2.964-13.57 4.134.198-1.448.834-2.808 1.83-3.913-.19.44-.19.932 0 1.371 0 0 3.06-3.26 5.77-3.596 0 0-.92 1.707-.57 2.283.02-.058 7.26-4.584 14.22-2.935z"/>
    </g>
</svg>
