<?xml version="1.0" encoding="UTF-8"?>
<svg width="1024px" height="785px" viewBox="0 0 1024 785" version="1.1" xmlns="http://www.w3.org/2000/svg" xmlns:xlink="http://www.w3.org/1999/xlink">
    <title>sec1_pad</title>
    <g id="Page-1" stroke="none" stroke-width="1" fill="none" fill-rule="evenodd">
        <g id="pad">
            <g id="sec1_pad">
                <rect id="Rectangle" fill="#6D94C2" x="0" y="0" width="1024" height="785"></rect>
                <g id="img/natural/grass/lv1/web" transform="translate(633.000000, 628.000000)" fill="#597EB1">
                    <g id="資產-8">
                        <path d="M21.3101695,0.092195122 C20.3949153,-0.230487805 17.7966102,0.261219512 16.779661,1.96170732 C15.5453174,4.01745629 14.6651028,6.26872948 14.1762712,8.6202439 C13.9346433,9.69635294 13.7849439,10.7913289 13.7288136,11.8931707 L13.7288136,11.8931707 C13.520339,11.13 13.3118644,10.3565854 13.1135593,9.59853659 C12.5440678,7.51390244 11.959322,5.35756098 10.6779661,3.58536585 C9.15254237,1.50585366 5.08474576,-1.10634146 2.72033898,1.33170732 C0.508474576,3.61097561 3.15254237,8.64585366 4.46949153,10.7560976 C5.2666732,11.9985064 6.19031329,13.1537797 7.22542373,14.2031707 C7.03220339,14.177561 6.8440678,14.1417073 6.64576271,14.1212195 C5.00847458,13.9214634 0.925423729,14.0187805 0.218644068,15.8780488 C-0.437288136,17.6195122 0.218644068,20.1497561 4.36779661,19.2329268 C11.8627119,17.5990244 14.2372881,20.5287805 14.2372881,20.5287805 C14.2372881,20.5287805 16.0830508,14.8946341 22.6627119,7.72390244 C24.6813559,5.54707317 24.6813559,1.2804878 21.3101695,0.092195122 Z" id="Path" fill-rule="nonzero"></path>
                        <path d="M29.5627119,15.6065854 C28.6474576,14.2287805 26.3847458,15.0482927 25.1694915,15.4478049 C22.2901525,16.3433817 19.6126923,17.7980494 17.2881356,19.7297561 C17.0491525,19.944878 24.5288136,20.4109756 27.3559322,19.0997561 C28.5661017,18.5465854 30.6559322,17.2507317 29.5627119,15.6065854 Z" id="Path" fill-rule="nonzero"></path>
                    </g>
                </g>
                <g id="img/natural/grass/lv1/web" transform="translate(588.000000, 167.000000)" fill="#597EB1">
                    <g id="資產-8">
                        <path d="M21.3101695,0.092195122 C20.3949153,-0.230487805 17.7966102,0.261219512 16.779661,1.96170732 C15.5453174,4.01745629 14.6651028,6.26872948 14.1762712,8.6202439 C13.9346433,9.69635294 13.7849439,10.7913289 13.7288136,11.8931707 L13.7288136,11.8931707 C13.520339,11.13 13.3118644,10.3565854 13.1135593,9.59853659 C12.5440678,7.51390244 11.959322,5.35756098 10.6779661,3.58536585 C9.15254237,1.50585366 5.08474576,-1.10634146 2.72033898,1.33170732 C0.508474576,3.61097561 3.15254237,8.64585366 4.46949153,10.7560976 C5.2666732,11.9985064 6.19031329,13.1537797 7.22542373,14.2031707 C7.03220339,14.177561 6.8440678,14.1417073 6.64576271,14.1212195 C5.00847458,13.9214634 0.925423729,14.0187805 0.218644068,15.8780488 C-0.437288136,17.6195122 0.218644068,20.1497561 4.36779661,19.2329268 C11.8627119,17.5990244 14.2372881,20.5287805 14.2372881,20.5287805 C14.2372881,20.5287805 16.0830508,14.8946341 22.6627119,7.72390244 C24.6813559,5.54707317 24.6813559,1.2804878 21.3101695,0.092195122 Z" id="Path" fill-rule="nonzero"></path>
                        <path d="M29.5627119,15.6065854 C28.6474576,14.2287805 26.3847458,15.0482927 25.1694915,15.4478049 C22.2901525,16.3433817 19.6126923,17.7980494 17.2881356,19.7297561 C17.0491525,19.944878 24.5288136,20.4109756 27.3559322,19.0997561 C28.5661017,18.5465854 30.6559322,17.2507317 29.5627119,15.6065854 Z" id="Path" fill-rule="nonzero"></path>
                    </g>
                </g>
                <g id="img/natural/grass/lv1/web" transform="translate(194.000000, 92.000000)" fill="#597EB1">
                    <g id="資產-8">
                        <path d="M21.3101695,0.092195122 C20.3949153,-0.230487805 17.7966102,0.261219512 16.779661,1.96170732 C15.5453174,4.01745629 14.6651028,6.26872948 14.1762712,8.6202439 C13.9346433,9.69635294 13.7849439,10.7913289 13.7288136,11.8931707 L13.7288136,11.8931707 C13.520339,11.13 13.3118644,10.3565854 13.1135593,9.59853659 C12.5440678,7.51390244 11.959322,5.35756098 10.6779661,3.58536585 C9.15254237,1.50585366 5.08474576,-1.10634146 2.72033898,1.33170732 C0.508474576,3.61097561 3.15254237,8.64585366 4.46949153,10.7560976 C5.2666732,11.9985064 6.19031329,13.1537797 7.22542373,14.2031707 C7.03220339,14.177561 6.8440678,14.1417073 6.64576271,14.1212195 C5.00847458,13.9214634 0.925423729,14.0187805 0.218644068,15.8780488 C-0.437288136,17.6195122 0.218644068,20.1497561 4.36779661,19.2329268 C11.8627119,17.5990244 14.2372881,20.5287805 14.2372881,20.5287805 C14.2372881,20.5287805 16.0830508,14.8946341 22.6627119,7.72390244 C24.6813559,5.54707317 24.6813559,1.2804878 21.3101695,0.092195122 Z" id="Path" fill-rule="nonzero"></path>
                        <path d="M29.5627119,15.6065854 C28.6474576,14.2287805 26.3847458,15.0482927 25.1694915,15.4478049 C22.2901525,16.3433817 19.6126923,17.7980494 17.2881356,19.7297561 C17.0491525,19.944878 24.5288136,20.4109756 27.3559322,19.0997561 C28.5661017,18.5465854 30.6559322,17.2507317 29.5627119,15.6065854 Z" id="Path" fill-rule="nonzero"></path>
                    </g>
                </g>
                <g id="img/natural/1/lv1soil/web" transform="translate(226.000000, 601.000000)" fill="#94B6D7">
                    <g id="資產-9">
                        <path d="M25.095,5.4 C22.145,3.76941176 18.375,0.682941176 14.85,0.529411765 C13.7165535,0.405994324 12.588066,0.807501229 11.755,1.63058824 C11.255,2.16 11.125,3.24529412 10.9,4.11352941 C9.03,2.39823529 6.655,0.243529412 4.425,0.624705882 C1.425,1.15411765 0.965,4.70117647 0.055,7.2 C-0.255,8.05764706 0.79,8.51823529 1.36,8.07352941 C1.99162428,7.57818306 2.52081618,6.95120026 2.915,6.23117647 C3.79,4.81235294 3.865,3.37235294 5.915,4.30941176 C7.415,4.98705882 8.99,6.91941176 10.315,7.97823529 C10.8989894,8.40668469 11.6778045,8.38526579 12.24,7.92529412 C13.935,6.77117647 13.2,3.45176471 15.625,3.82235294 C16.815,4.00235294 18.085,5.14588235 19.125,5.76 C20.55,6.62294118 21.96,7.49647059 23.38,8.36470588 C25.21,9.48705882 26.96,6.43764706 25.095,5.4 Z" id="Path" fill-rule="nonzero"></path>
                    </g>
                </g>
                <g id="img/natural/1/lv1soil/web" transform="translate(128.000000, 214.000000)" fill="#94B6D7">
                    <g id="資產-9">
                        <path d="M25.095,5.4 C22.145,3.76941176 18.375,0.682941176 14.85,0.529411765 C13.7165535,0.405994324 12.588066,0.807501229 11.755,1.63058824 C11.255,2.16 11.125,3.24529412 10.9,4.11352941 C9.03,2.39823529 6.655,0.243529412 4.425,0.624705882 C1.425,1.15411765 0.965,4.70117647 0.055,7.2 C-0.255,8.05764706 0.79,8.51823529 1.36,8.07352941 C1.99162428,7.57818306 2.52081618,6.95120026 2.915,6.23117647 C3.79,4.81235294 3.865,3.37235294 5.915,4.30941176 C7.415,4.98705882 8.99,6.91941176 10.315,7.97823529 C10.8989894,8.40668469 11.6778045,8.38526579 12.24,7.92529412 C13.935,6.77117647 13.2,3.45176471 15.625,3.82235294 C16.815,4.00235294 18.085,5.14588235 19.125,5.76 C20.55,6.62294118 21.96,7.49647059 23.38,8.36470588 C25.21,9.48705882 26.96,6.43764706 25.095,5.4 Z" id="Path" fill-rule="nonzero"></path>
                    </g>
                </g>
                <g id="img/natural/2/lv1soil/web" transform="translate(454.000000, 196.000000)" fill="#94B6D7">
                    <g id="資產-11">
                        <path d="M22.5,3.16 C20.95,0.93 18,0.455 15.45,0.855 C13.9369108,1.14285704 12.4734216,1.64808922 11.105,2.355 C9.105,3.3 8.76,2.085 7.33,1.07 C5.745,2.21177243e-16 3.5,-0.445 1.795,0.6 C0.968918052,1.05179637 0.363380077,1.8215929 0.118837021,2.73083986 C-0.125706034,3.64008682 0.0119945718,4.60977826 0.5,5.415 C0.76,5.85 1.34,5.55 1.355,5.125 C1.425,3.365 2.895,1.84 4.765,2.26 C5.725,2.48 6.415,3.26 7.075,3.895 C7.855,4.66 8.5,5.22 9.66,5.205 C11.085,5.205 12.445,4.15 13.765,3.705 C16.545,2.705 18.425,3.255 20.765,4.965 C21.825,5.7 23.17,4.155 22.5,3.16 Z" id="Path" fill-rule="nonzero"></path>
                    </g>
                </g>
                <g id="img/natural/3/lv1soil/web" transform="translate(554.000000, 621.000000)" fill="#94B6D7">
                    <g id="資產-10">
                        <path d="M21.22,3.34 C19.135,1.45 16.11,-0.16 13.22,0.01 C12.08088,0.0661831304 10.9739262,0.406519869 10,1 C9.55101269,1.27597472 9.14217172,1.61246934 8.785,2 C8.605,2.2 8.045,3.27 7.91,3.315 C8.165,3.23 6.44,1.815 5.86,1.57 C4.80079189,1.09155745 3.59875784,1.03610648 2.5,1.415 C0.675,2.125 -0.61,4.265 0.3,6.095 C0.457075957,6.47434734 0.845412213,6.70475458 1.25363534,6.66080988 C1.66185847,6.61686519 1.99225973,6.30908676 2.065,5.905 C2.13,4.64 3.03,4 4.76,3.94 C5.21600199,4.20391993 5.62491792,4.54186698 5.97,4.94 C6.343273,5.3010624 6.76580227,5.6074382 7.225,5.85 C8.08405242,6.24073135 9.09555438,6.05518957 9.76,5.385 C11.115,4.045 11.44,2.605 13.86,2.82 C16.05,3 17.655,4.64 19.5,5.665 C20.9,6.47 22.5,4.5 21.22,3.34 Z" id="Path" fill-rule="nonzero"></path>
                    </g>
                </g>
                <g id="img/natural/grass/lv1/web" transform="translate(769.000000, 548.000000)" fill="#597EB1">
                    <g id="資產-8">
                        <path d="M21.3101695,0.092195122 C20.3949153,-0.230487805 17.7966102,0.261219512 16.779661,1.96170732 C15.5453174,4.01745629 14.6651028,6.26872948 14.1762712,8.6202439 C13.9346433,9.69635294 13.7849439,10.7913289 13.7288136,11.8931707 L13.7288136,11.8931707 C13.520339,11.13 13.3118644,10.3565854 13.1135593,9.59853659 C12.5440678,7.51390244 11.959322,5.35756098 10.6779661,3.58536585 C9.15254237,1.50585366 5.08474576,-1.10634146 2.72033898,1.33170732 C0.508474576,3.61097561 3.15254237,8.64585366 4.46949153,10.7560976 C5.2666732,11.9985064 6.19031329,13.1537797 7.22542373,14.2031707 C7.03220339,14.177561 6.8440678,14.1417073 6.64576271,14.1212195 C5.00847458,13.9214634 0.925423729,14.0187805 0.218644068,15.8780488 C-0.437288136,17.6195122 0.218644068,20.1497561 4.36779661,19.2329268 C11.8627119,17.5990244 14.2372881,20.5287805 14.2372881,20.5287805 C14.2372881,20.5287805 16.0830508,14.8946341 22.6627119,7.72390244 C24.6813559,5.54707317 24.6813559,1.2804878 21.3101695,0.092195122 Z" id="Path" fill-rule="nonzero"></path>
                        <path d="M29.5627119,15.6065854 C28.6474576,14.2287805 26.3847458,15.0482927 25.1694915,15.4478049 C22.2901525,16.3433817 19.6126923,17.7980494 17.2881356,19.7297561 C17.0491525,19.944878 24.5288136,20.4109756 27.3559322,19.0997561 C28.5661017,18.5465854 30.6559322,17.2507317 29.5627119,15.6065854 Z" id="Path" fill-rule="nonzero"></path>
                    </g>
                </g>
                <g id="img/natural/1/lv1soil/web" transform="translate(722.000000, 45.000000)" fill="#94B6D7">
                    <g id="資產-9">
                        <path d="M25.095,5.4 C22.145,3.76941176 18.375,0.682941176 14.85,0.529411765 C13.7165535,0.405994324 12.588066,0.807501229 11.755,1.63058824 C11.255,2.16 11.125,3.24529412 10.9,4.11352941 C9.03,2.39823529 6.655,0.243529412 4.425,0.624705882 C1.425,1.15411765 0.965,4.70117647 0.055,7.2 C-0.255,8.05764706 0.79,8.51823529 1.36,8.07352941 C1.99162428,7.57818306 2.52081618,6.95120026 2.915,6.23117647 C3.79,4.81235294 3.865,3.37235294 5.915,4.30941176 C7.415,4.98705882 8.99,6.91941176 10.315,7.97823529 C10.8989894,8.40668469 11.6778045,8.38526579 12.24,7.92529412 C13.935,6.77117647 13.2,3.45176471 15.625,3.82235294 C16.815,4.00235294 18.085,5.14588235 19.125,5.76 C20.55,6.62294118 21.96,7.49647059 23.38,8.36470588 C25.21,9.48705882 26.96,6.43764706 25.095,5.4 Z" id="Path" fill-rule="nonzero"></path>
                    </g>
                </g>
            </g>
        </g>
    </g>
</svg>