<svg xmlns="http://www.w3.org/2000/svg" width="375" height="278" viewBox="0 0 375 278">
    <g fill="none" fill-rule="evenodd">
        <path fill="#FFF" fill-rule="nonzero" d="M85.77 228.47c-.38.18-.78.35-1.19.51-1.89.77-6.18 2.26-26.45-.19l-2.06-.26c.809-.46 1.337-1.292 1.41-2.22 0-1.94-2.77-3.51-6.18-3.51-3.41 0-6.18 1.57-6.18 3.51.003.217.037.432.1.64l-2.57-.43-2.41-.43-2.86-.52-1.89-.37c-.31-.06-.61-.11-.91-.18l-1.38-.28c-.45-.08-.89-.17-1.33-.27l-1.77-.37-3.41-.75c-.583-.128-1.155-.302-1.71-.52-.16-.07-.32-.12-.47-.2-1.16-.487-2.23-1.163-3.17-2-.654-.564-1.242-1.202-1.75-1.9-1.747-2.365-2.588-5.278-2.37-8.21.737.498 1.546.88 2.4 1.13l2.63-.16h3.7c1.352 2.952 4.01 5.099 7.18 5.8 8.915 2.013 17.927 3.572 27 4.67 17.39 2.09 21.06.82 22.68.17l.2-.09c1.257 1.982 2.189 4.153 2.76 6.43zM101.27 135.14c-1.93 1.46-3.59 2.93-4.51 3.73-.92.8-1.88 1.73-2.71 2.59l-4.23-.17c-14.7-.45-18.12-2.15-19.88-1.34-5.7 2.65-9.94 9.17-13.33 15.44-.95.363-1.85.844-2.68 1.43-3.919 2.934-6.11 7.632-5.84 12.52-1.64.4-3.17.84-4.62 1.32 2.06-3.45 3.87-6.67 5.46-9.62 4.74-8.85 10.81-23.29 20.66-27.87 2-.95 6 1 23.18 1.57 3.09.09 5.92.26 8.5.4zM125.26 141.67c-2.113.85-4.176 1.819-6.18 2.9-.93.51-1.8 1-2.61 1.55-1.203-.864-2.532-1.539-3.94-2 .852-1.698 1.369-3.546 1.52-5.44.06-.665.083-1.333.07-2 5.65 1.09 9.09 2.72 11.14 4.99zM118.21 164.69c1.25-.84 2.58-1.74 3.94-2.77-.33.73-.68 1.48-1.05 2.26-1.45 3.12-3.16 6.73-5.12 10.93-2.61 5.59-4.89 10.58-6.89 15-.39-.82-.88-1.75-1.49-2.79-.47-.8-1.06-1.8-1.79-2.91 1.2-2.667 2.51-5.503 3.93-8.51 1.38-3 2.63-5.62 3.73-7.94 1.74-1.2 3.33-2.29 4.74-3.27z" transform="translate(0 22)"/>
        <path fill="#933838" fill-rule="nonzero" d="M83 222.06l-.2.09c-1.62.65-5.29 1.92-22.68-.17-9.073-1.098-18.085-2.657-27-4.67-3.17-.701-5.828-2.848-7.18-5.8h8.61c9.54-.13 10.73-.44 16.41-.33 8.09.15 12.7.28 18.55 2.13 4.44 1.41 8.31 2.69 11.65 6.4.676.732 1.291 1.518 1.84 2.35z" transform="translate(0 22)"/>
        <path fill="#302B3A" fill-rule="nonzero" d="M100 177.72c5.16-3.86 9.67-7.1 13.44-9.73-1.1 2.32-2.35 4.95-3.73 7.94s-2.73 5.87-3.93 8.51c-1.606-2.497-3.55-4.759-5.78-6.72zM94.05 141.46c-4 4.13-6.92 8.62-13.7 18-.88 1.22-1.73 2.38-2.53 3.47-2.174-2.926-5.101-5.207-8.47-6.6-1.78-.71-7.36-3-12.74-.93 3.39-6.28 7.63-12.8 13.33-15.4 1.76-.81 5.18.89 19.88 1.34l4.23.12zM116.47 146.12c-5.79 3.68-8.91 7.72-15.1 13.62 3.21-4.64 5.9-8.22 8.09-11 1.187-1.429 2.216-2.98 3.07-4.63 1.409.464 2.737 1.142 3.94 2.01z" transform="translate(0 22)"/>
        <path fill="#E24D34" fill-rule="nonzero" d="M95.59 246.4c-5.18 5.81-7.39 6.8-8.34 6.27-.71-.39-.78-1.71-1-4.17 0-.29-.07-.6-.11-.91-.194-1.908-.194-3.832 0-5.74.11-1.49.27-3.54.34-5.65.067-1.729.01-3.46-.17-5.18-.116-.855-.28-1.703-.49-2.54-.59-2.277-1.543-4.445-2.82-6.42-.54-.842-1.15-1.638-1.82-2.38-3.34-3.71-7.21-5-11.65-6.4-5.85-1.85-10.46-2-18.55-2.13-5.68-.11-6.87.2-16.41.33-3.28 0-6.19.05-8.61 0h-3.7l-2.63.16c-.854-.25-1.663-.632-2.4-1.13-1.68-1.012-2.345-3.117-1.55-4.91l3.12-.21c2.19-.14 4.32-.24 6.39-.32 9.311-.35 18.636-.13 27.92.66 15 1.28 23.36 3.52 28.89 9.53 1.472 1.636 2.772 3.418 3.88 5.32.62 1.037 1.188 2.105 1.7 3.2.445.976.832 1.978 1.16 3 1.242 3.691 1.85 7.566 1.8 11.46-.04 1.966-.237 3.926-.59 5.86-.7 4-1.68 6.42-.72 6.95.63.35 1.62-.43 5.58-3.95l.78-.7z" transform="translate(0 22)"/>
        <path fill="#FFF" fill-rule="nonzero" d="M47 228.82c-1.179 1.749-2.547 3.362-4.08 4.81-3.36 3.19-6.39 4.51-12.6 6.48-3.47 1.11-7.93 2.41-14 4.36-3.42 1.1-6 2-7.9 2.6-4.39 1.46-5.53 1.74-6.2 1-.67-.74-.7-2.31.66-5.32 2-4.34 6.83-11.73 16.7-24 .508.698 1.096 1.336 1.75 1.9-1.16 1.15-2.55 2.62-4 4.4-2.29 2.79-1.92 2.89-6 8.7-2.15 3.08-4.56 7.42-5.91 9.6-.63 1-1.55 2.52-1.06 3.12.49.6 2.53-.13 3.69-.57.48-.19 1-.38 1.46-.54 3.31-1.18 6.73-2 10-3.24.57-.21 3.83-1.3 10.27-3.47l1.63-.55c5.19-1.75 5.4-1.8 6.07-2.14 3.493-1.783 6.453-4.456 8.58-7.75.29.237.606.441.94.61z" transform="translate(0 22)"/>
        <path fill="#E08D53" fill-rule="nonzero" d="M46.09 228.18c-2.127 3.294-5.087 5.967-8.58 7.75-.67.34-.88.39-6.07 2.14l-1.63.55c-.72-2.14-1.49-4.71-2.42-7.83-.49-1.64-1.32-4.36-2.41-8 .555.218 1.127.392 1.71.52l3.41.75 1.77.37c.44.1.88.19 1.33.27l1.38.28c.3.07.6.12.91.18l1.89.37 2.86.52 2.41.43 2.57.43c.167.496.468.936.87 1.27zM86.43 236.19c-2.09 8.53-5.21 16.73-9.85 18.7-.468.205-.963.343-1.47.41-1.13.14-1.58-.17-3.93-.89-12-3.6-17.43-.83-30.87-4.81-1.6-.373-3.145-.958-4.59-1.74-1.104-.695-2.064-1.594-2.83-2.65 4.86-1.83 7.78-3.1 10.38-5 2.894-2.18 5.537-4.676 7.88-7.44 1-1.12 1.8-2.21 2.53-3.22.855-.183 1.668-.522 2.4-1l2.06.26c20.27 2.45 24.56 1 26.45.19.41-.16.81-.33 1.19-.51.21.837.374 1.685.49 2.54.176 1.714.23 3.438.16 5.16z" transform="translate(0 22)"/>
        <path fill="#F4D6A2" fill-rule="nonzero" d="M110.56 230c-.22.54-.74 1.75-3.52 5.14-.033.034-.063.07-.09.11-2 2.34-4 4.57-11.35 11.11l-.79.69c-4 3.52-5 4.3-5.58 3.95-1-.53 0-2.95.72-6.95.353-1.934.55-3.894.59-5.86.05-3.894-.558-7.769-1.8-11.46-.328-1.022-.715-2.024-1.16-3-.512-1.095-1.08-2.163-1.7-3.2-1.11-1.884-2.41-3.65-3.88-5.27-3.75-4.07-8.77-6.41-16.29-7.9-4.169-.763-8.374-1.307-12.6-1.63-.5 0-1-.08-1.53-.12-2.63-.21-5.47-.39-8.52-.51-4.38-.18-9.17-.25-14.35-.13-1.16 0-2.33.05-3.52.1-2.07.08-4.2.18-6.39.32l-3.12.21c.23-.579.508-1.137.83-1.67 4-6.91 6-10.37 7.39-11.82 4.149-4.537 7.928-9.4 11.3-14.54 1.07-1.57 2.18-3.26 3.37-5.09 1.49-.63 3.13-1.25 4.91-1.82 1.45-.48 3-.92 4.62-1.32.4-.11.82-.2 1.24-.29 1.06-.24 2.15-.46 3.29-.64 2.223-.385 4.467-.638 6.72-.76 2.472-.135 4.95-.065 7.41.21 2 .22 4.2.58 6.63 1 2.25.44 4.73 1 7.59 1.61l3.32.74c.85.2 1.66.38 2.42.57 2.062.471 4.095 1.059 6.09 1.76 2.394.791 4.627 2.007 6.59 3.59.22.17.43.35.64.54 2.23 1.961 4.174 4.223 5.78 6.72.73 1.11 1.32 2.11 1.79 2.91.61 1 1.1 2 1.49 2.79.645 1.306 1.138 2.682 1.47 4.1.482 2.375.59 4.811.32 7.22-.07 1.23-.34 5.75-.3 11.11 0 2.43.1 5.06.3 7.61.34 4.56.89 6.74-.33 9.87z" transform="translate(0 22)"/>
        <path fill="#725440" fill-rule="nonzero" d="M86.09 247.59c0 .31.08.62.11.91-3.87 4.24-7.3 6.83-9.62 6.4 4.64-2 7.76-10.17 9.85-18.7-.07 2.11-.23 4.16-.34 5.65-.194 1.908-.194 3.832 0 5.74zM121.1 164.18c-.4 5.22-.6 9.58-.69 13-.16 5.28-.13 10.11-1.76 16.63-1.002 3.751-2.32 7.411-3.94 10.94-.77 1.68-2.22 4.43-4.13 7.82 0-5.36.23-9.88.3-11.11.27-2.409.162-4.845-.32-7.22-.332-1.418-.825-2.794-1.47-4.1 2-4.45 4.28-9.44 6.89-15 1.96-4.23 3.67-7.84 5.12-10.96z" transform="translate(0 22)"/>
        <path stroke="#2D323D" stroke-linecap="round" stroke-linejoin="round" stroke-width=".83" d="M21.33 195.72c13.758-.818 27.556-.708 41.3.33 6.74.53 14.34 1.38 20.84 6.89 5 4.2 7 9.21 8.7 13.3 3.734 9.616 4.879 20.043 3.32 30.24h0" transform="translate(0 22)"/>
        <path stroke="#2D323D" stroke-linecap="round" stroke-linejoin="round" stroke-width=".83" d="M27.91 187.49c7.68-.07 13.86-.29 18-.47 13.65-.59 19.56-1.35 28.89.33 7.71 1.39 11.13 3.26 13 4.43 4.428 2.934 8.04 6.942 10.5 11.65 6.69 11.65 6.34 26.74 5.4 35.48" transform="translate(0 22)"/>
        <path stroke="#2D323D" stroke-linecap="round" stroke-linejoin="round" stroke-width=".83" d="M35.19 177.57c8.69.765 17.426.852 26.13.26 8.28-.58 14.13-1.64 21.16 1.15 5 2 8.45 5.71 13.46 10.67 4.13 4.07 6.55 6.51 8.54 10.67 1.99 4.16 2.51 8.05 3.12 13.13.484 4.192.591 8.419.32 12.63-.14 3.043-.434 6.077-.88 9.09" transform="translate(0 22)"/>
        <path stroke="#2D323D" stroke-linecap="round" stroke-linejoin="round" stroke-width=".83" d="M28.7 205c2.312-4.213 4.87-8.287 7.66-12.2 3.1-4.34 4.32-5.45 6.9-9.69 2.82-4.64 3.17-6.29 5.58-9.85 1.147-1.692 2.41-3.302 3.78-4.82M43.05 205.1c.56-1 1.23-2.2 2-3.47 1.2-1.94 2.4-3.69 5.9-8.37 5.16-6.87 4.75-6 5.58-7.39 2.82-4.57 2.56-6.29 4.92-10.66 1.448-2.66 3.221-5.129 5.28-7.35M51.57 205.61c3.24-6.37 6.87-9.76 9.75-11.69 2-1.32 4.3-2.48 6.23-5.42 1.93-2.94 1.16-4.41 3.28-7.71 1.47-2.28 2.51-2.65 6.24-6.25 1.56-1.5 2.88-2.89 3.9-4M65.7 207.36c.611-2.253 1.566-4.398 2.83-6.36 3-4.6 5.65-4.8 9-10 2.09-3.2 1.27-3.41 3.61-6.89 1.97-2.95 4.408-5.558 7.22-7.72 1.39-1.042 2.865-1.965 4.41-2.76M77.74 211.71c1.245-1.615 2.336-3.342 3.26-5.16 3.12-6.1 2.06-8.72 5.25-12.47 1.79-2.1 2.11-1.26 6.57-5.42 1.88-1.74 2.6-2.63 5.09-5.08 1.56-1.56 3-2.88 4.12-4M86.46 221.61c1.688-1.352 3.17-2.942 4.4-4.72 1.9-2.75 1.63-3.71 3.77-8.2 1.741-3.64 3.831-7.103 6.24-10.34 2-2.64 2.48-2.85 3.94-5.09 1.17-1.77 2.175-3.645 3-5.6M111 200.05h0c-1.164 2.084-2.167 4.253-3 6.49-1.87 5-1.44 6.45-3.44 10.34-1.51 2.94-3.6 5.23-7.72 9.69-1.64 1.78-3.83 4.07-6.54 6.65M110.75 218.25h0c-.17.42-.34.85-.52 1.26-4.373 9.749-11.379 18.085-20.23 24.07" transform="translate(0 22)"/>
        <path fill="#E24D34" fill-rule="nonzero" d="M131.13 152.45c-2.39 3.685-5.441 6.896-9 9.47-1.36 1-2.69 1.93-3.94 2.77-1.41 1-3 2.07-4.74 3.3-3.77 2.63-8.28 5.87-13.44 9.73-.21-.19-.42-.37-.64-.54-1.963-1.583-4.196-2.799-6.59-3.59-1.995-.701-4.028-1.289-6.09-1.76 4.68-3.322 9.142-6.94 13.36-10.83l1.32-1.23c6.19-5.9 9.31-9.94 15.1-13.62.81-.53 1.68-1 2.61-1.55 2.004-1.081 4.067-2.05 6.18-2.9 3.67-1.45 7.86-2.54 9.37-.82 2.26 2.54-2.63 10.21-3.5 11.57z" transform="translate(0 22)"/>
        <path fill="#FFBD29" fill-rule="nonzero" d="M114.05 138.65c-.151 1.894-.668 3.742-1.52 5.44-.854 1.65-1.883 3.201-3.07 4.63-2.19 2.8-4.88 6.38-8.09 11l-1.32 1.28c-4.21 3.9-8.667 7.528-13.34 10.86-.76-.19-1.57-.37-2.42-.57l-3.29-.77c-2.86-.64-5.34-1.17-7.59-1.61 1.24-1.65 2.74-3.67 4.44-6 .8-1.09 1.65-2.25 2.53-3.47 6.78-9.37 9.66-13.86 13.7-18 .83-.86 1.73-1.71 2.71-2.59.98-.88 2.58-2.27 4.51-3.73 3.64-2.76 8.26-5.51 10.82-3.93 1.63 1 2 3.56 2 5.43.014.677-.01 1.355-.07 2.03z" transform="translate(0 22)"/>
        <path fill="#E24D34" fill-rule="nonzero" d="M77.82 162.92c-1.7 2.32-3.2 4.34-4.44 6-2.43-.47-4.59-.83-6.63-1-2.46-.275-4.938-.345-7.41-.21-2.253.122-4.497.375-6.72.76-1.14.18-2.23.4-3.29.64-.42.09-.84.18-1.24.29-.27-4.888 1.921-9.586 5.84-12.52.83-.586 1.73-1.067 2.68-1.43 5.38-2 11 .22 12.74.93 3.362 1.376 6.288 3.636 8.47 6.54z" transform="translate(0 22)"/>
        <path fill="#302B3A" fill-rule="nonzero" d="M24.51 222.63c-1.52 2.153-3.04 4.347-4.56 6.58-3.7 5.44-7.18 10.813-10.44 16.12-.49.16-1 .35-1.46.54-1.16.44-3.15 1.24-3.69.57s.43-2.1 1.06-3.12c1.35-2.18 3.76-6.52 5.91-9.6 4.07-5.81 3.7-5.91 6-8.7 1.47-1.78 2.86-3.25 4-4.4.941.841 2.016 1.52 3.18 2.01z" transform="translate(0 22)"/>
        <path fill="#302B3A" fill-rule="nonzero" d="M53.67 229.54c-.73 1-1.56 2.1-2.53 3.22-2.343 2.764-4.986 5.26-7.88 7.44-2.6 1.92-5.52 3.19-10.38 5L29 246.66c-17.13 6.33-15.85 3.2-22.1 6.24-.75.36-2.52 1.26-3.94.55-1.94-1-2.2-4.44-1.87-6.56.237-1.503.846-2.922 1.77-4.13-1.36 3-1.35 4.58-.66 5.32.69.74 1.81.45 6.2-1 1.92-.64 4.48-1.5 7.9-2.6 6.07-1.95 10.53-3.25 14-4.36 6.21-2 9.24-3.29 12.6-6.48 1.54-1.45 2.916-3.067 4.1-4.82 1.325.684 2.8 1.027 4.29 1 .801-.002 1.6-.096 2.38-.28z" transform="translate(0 22)"/>
        <path fill="#302B3A" fill-rule="nonzero" d="M57.48 226.31c-.073.928-.601 1.76-1.41 2.22-.732.478-1.545.817-2.4 1-.778.176-1.573.264-2.37.26-1.49.027-2.965-.316-4.29-1-.793-.361-1.429-.997-1.79-1.79-.063-.208-.097-.423-.1-.64 0-1.94 2.76-3.51 6.18-3.51s6.18 1.52 6.18 3.46z" transform="translate(0 22)"/>
        <path fill="#FFF" fill-rule="nonzero" d="M269.7 60.06c-4.06-2.91-38.49-14.4-49-14.59-10.51-.19-12.7 10.88-7.23 15.27 5.47 4.39 37.36 22.9 45.37 23.78 12.57 1.37 21.61-16.74 10.86-24.46z" transform="translate(0 22)"/>
        <path fill="#FFF" fill-rule="nonzero" d="M227.16 44.32c-3.73-11.55-9.93-23.27-8.42-33 0 0-4.31-4.46-6.72-.45S198.08 59 220.5 63.66c0 0 10.4-7.79 6.66-19.34z" transform="translate(0 22)"/>
        <path fill="#BADC7A" fill-rule="nonzero" d="M232.82 75.2c10.26 5.67 21.71 9.92 26.22 10.42 7.027.94 13.782-3.063 16.33-9.68 2.85-6.82 1.14-13.77-4.36-17.71-2.75-2-14.94-6.41-27-9.95-.01.09-6.93 9.48-11.19 26.92z" transform="translate(0 22)"/>
        <path fill="#FFF" fill-rule="nonzero" d="M220.53 14.65c3-1.08.92-5.33 1.66-7.26.36-1-2.07.35-2.43 3.33-.45-3.098-.625-6.23-.52-9.36.23-3-3.83 0-6.31-.49-1-.2-2-.64-2.43.32-1.14 2.377-1.394 5.082-.72 7.63 1.36 6.59.26 6.21-.11 9.51s7 1.83 7 1.83.89-4.43 3.86-5.51z" transform="translate(0 22)"/>
        <path fill="#BADC7A" fill-rule="nonzero" d="M305.51 55.71c-12.37-2.73-29-5-38.38-1.65-14.73 5.18-19.08 12.94-20.75 22.53-3.12 17.94-9.15 87.29-9.15 87.29 36.55 19.73 93.57 8.77 93.57 8.77.5-38.6.73-111.2-25.29-116.94z" transform="translate(0 22)"/>
        <path fill="#FFF" fill-rule="nonzero" d="M177.76 165.24s-2.63 20.2-5.35 22.29c-2.72 2.09 5.93 6.67 7.27 5.49L191 171.44l-13.24-6.2zM182.17 194.93l-22.71-1.05s-1.63.67 0 2.45c1.63 1.78 7.14 2.85 9 2.92 1.86.07 3.92-1.78 5.26-1.8 1.07.146 2.07.613 2.87 1.34 0 0 5.83-.12 6.83-1.54s-1.25-2.32-1.25-2.32z" transform="translate(0 22)"/>
        <path fill="#18336D" fill-rule="nonzero" d="M181.89 188.41s-2.53 2.16-5 1.1c-1.296-.514-2.494-1.248-3.54-2.17 0 0-.87-2.63-1.27-2.43-.4.2-.06 3.49-.25 3.63-1.76 1.35-5 3.49-8.66 3.54-5 0-4 2.68-4 2.68 3.28 2.79 11.05 2.29 13.52 2.33 2.47.04 9.43-2.16 9.43-2.16 1.244-2.021 1.153-4.591-.23-6.52z" transform="translate(0 22)"/>
        <path fill="#732622" fill-rule="nonzero" d="M184.26 97.62c-9.52 23.16-9.42 76.42-9.42 76.42 6.29 5.36 14.94 4 14.94 4s29.19-58.14 30.09-68.43c.9-10.29-32.25-20.15-35.61-11.99z" transform="translate(0 22)"/>
        <path fill="#732622" fill-rule="nonzero" d="M296 159.65c4.68-9.38 1.82-26.7-11.48-36.9-8.15-6.25-47.21-27-83.12-32.7-22.87-3.63-20.2 21.52-14.79 29.36 13 18.91 53.73 58.75 75.62 58.75 19.07 0 26.64-4.16 33.77-18.51z" transform="translate(0 22)"/>
        <path fill="#FFF" fill-rule="nonzero" d="M211.78 165.24s-2.63 20.2-5.35 22.29c-2.72 2.09 5.93 6.67 7.27 5.49l11.3-21.58-13.22-6.2zM216.18 194.93l-22.71-1.05s-1.62.67 0 2.45c1.62 1.78 7.14 2.85 9 2.92 1.86.07 3.91-1.78 5.26-1.8 1.068.145 2.065.613 2.86 1.34 0 0 5.84-.12 6.84-1.54s-1.25-2.32-1.25-2.32z" transform="translate(0 22)"/>
        <path fill="#18336D" fill-rule="nonzero" d="M215.91 188.41s-2.53 2.16-5 1.1c-1.296-.514-2.494-1.248-3.54-2.17 0 0-.87-2.63-1.27-2.43-.4.2-.06 3.49-.25 3.63-1.76 1.35-5 3.49-8.66 3.54-5 0-4 2.68-4 2.68 3.28 2.79 11 2.29 13.52 2.33 2.52.04 9.42-2.16 9.42-2.16 1.252-2.018 1.165-4.591-.22-6.52z" transform="translate(0 22)"/>
        <path fill="#D7504A" fill-rule="nonzero" d="M219 95.67c-9.9 23-10.18 78.37-10.18 78.37 6.3 5.36 15 4 15 4s29.19-58.14 30.09-68.43c.9-10.29-28.55-28.61-34.91-13.94z" transform="translate(0 22)"/>
        <path fill="#D7504A" fill-rule="nonzero" d="M325.25 162.65c3.87-9.75-.52-26.56-13.82-36.76-8.15-6.25-40.94-30.13-76.85-35.84-22.86-3.63-20.2 21.52-14.79 29.36 13.05 18.91 53.36 57 72.27 58.75 20.12 1.84 30.35-8.34 33.19-15.51z" transform="translate(0 22)"/>
        <path fill="#FFF" fill-rule="nonzero" d="M218.07 178.21l-2.08-.86c13.29-32.42 18-57.71 18-58 .072-.42.38-.763.79-.88.408-.115.846.004 1.14.31.36.38 36.38 38.56 58.12 42.72 7.35 1.41 13.18.6 17.31-2.4 3.039-2.299 5.1-5.659 5.77-9.41l2.24.27c-.723 4.368-3.106 8.287-6.65 10.94-4.66 3.4-11.08 4.35-19.09 2.82-20.14-3.86-50.66-34.39-57.85-41.82-4.249 19.25-10.171 38.091-17.7 56.31zM289.68 49.43c-2.65-7 0-17.34 0-17.34l-12 2.18s3.9 12-.72 17.37c-1.43 1.66-5.05.72-8.25 1.93 0 0 4.71 7.74 9.5 10.54l20.64-9.72s-7.17.35-9.17-4.96z" transform="translate(0 22)"/>
        <path fill="#FFF" fill-rule="nonzero" d="M293.07 24.46c-.732-.365-1.622-.076-2 .65-.3-2.544-.998-5.024-2.07-7.35-1.93-4.51-13.84-3.65-16.8 0-2.96 3.65-3 14.64 2.49 24.71 1.11 2.06 9.62-1.06 13-4.87 3.38-3.81 3.56-6.35 3.56-6.35s.89.75 2.26-1.08c1.37-1.83 1.06-5.17-.44-5.71z" transform="translate(0 22)"/>
        <path fill="#732622" fill-rule="nonzero" d="M263.81 9.75c.91 2.844 2.627 5.362 4.94 7.25 1.937 1.363 4.262 2.065 6.63 2l11.23-1.54c.187 1.585.657 3.123 1.39 4.54l1.62 5.53 1.51-.33s-.57-1.95.24-2.54c.483-.342 1.104-.424 1.66-.22 0 0 1.67-8.17-4.67-12.72-4.04-2.9-19.23 2.17-24.55-1.97z" transform="translate(0 22)"/>
        <path fill="#732622" fill-rule="nonzero" d="M281.16 21.65c-1.82.016-3.452 1.128-4.133 2.817-.681 1.69-.277 3.622 1.023 4.896 1.3 1.275 3.241 1.64 4.916.926 1.675-.715 2.754-2.368 2.734-4.189-.027-2.481-2.059-4.472-4.54-4.45zm.08 8.25c-2.065-.006-3.736-1.679-3.74-3.743-.003-2.065 1.662-3.744 3.727-3.757 2.064-.013 3.751 1.646 3.773 3.71.008 1.002-.385 1.966-1.09 2.678-.707.712-1.668 1.112-2.67 1.112zM270.41 21.77c-2.48.05-4.453 2.098-4.409 4.579.044 2.48 2.088 4.458 4.569 4.42 2.48-.039 4.463-2.078 4.43-4.559-.016-1.199-.51-2.342-1.37-3.175-.863-.834-2.021-1.29-3.22-1.265zm.09 8.23c-2.07.022-3.768-1.639-3.79-3.71-.022-2.07 1.64-3.767 3.71-3.79 2.071-.022 3.768 1.64 3.79 3.71.017 2.069-1.641 3.763-3.71 3.79z" transform="translate(0 22)"/>
        <path fill="#732622" fill-rule="nonzero" d="M274.42 25.88l.33.67c.697-.293 1.483-.293 2.18 0l.31-.68c-.9-.392-1.923-.389-2.82.01z" transform="translate(0 22)"/>
        <path fill="#BADC7A" fill-rule="nonzero" d="M292.06 111.29s23 20.19 24.73 53c.28 5.47 11.85-4 11.85-14.31 0-20.28-17.97-38.44-36.58-38.69z" transform="translate(0 22)"/>
        <path fill="#FFF" fill-rule="nonzero" d="M305.54 57.82c4.45-2.28 40.2-8.52 50.59-7.15 10.39 1.37 10.94 12.65 4.87 16.18-6.07 3.53-40.35 17.09-48.4 16.77-12.6-.51-18.83-19.77-7.06-25.8z" transform="translate(0 22)"/>
        <path fill="#BADC7A" fill-rule="nonzero" d="M340 79.87c-11.18 3.43-24.22 5.13-28.74 4.63-6.91-.69-11.59-5.1-13-12.69-1.37-7.26 1.74-13.71 7.93-16.43 3.09-1.36 15.94-3.19 28.44-4.17-.01.1 4.83 10.72 5.37 28.66z" transform="translate(0 22)"/>
        <path fill="#FFF" fill-rule="nonzero" d="M347.61 50.67c3.3-11.68 9.06-23.62 7.19-33.31 0 0 4.14-4.63 6.69-.7 2.55 3.93 15.74 47.6-6.49 53.09 0 0-10.69-7.39-7.39-19.08z" transform="translate(0 22)"/>
        <path fill="#FFF" fill-rule="nonzero" d="M351.06 14.85c-3-1-1.12-5.3-1.92-7.2-.4-1 2.08.28 2.55 3.24.333-3.116.386-6.255.16-9.38-.34-3 3.84-.13 6.3-.72 1-.23 1.93-.71 2.43.23 1.225 2.33 1.58 5.022 1 7.59-1.11 6.64 0 6.23.47 9.51.47 3.28-6.93 2.09-6.93 2.09s-1.04-4.4-4.06-5.36z" transform="translate(0 22)"/>
    </g>
</svg>
