<svg xmlns="http://www.w3.org/2000/svg" width="365" height="137" viewBox="0 0 365 137">
    <g fill="none">
        <path fill="#2B1F58" d="M69.364 0H74.238V57.75H69.364zM290.357 0H295.23100000000005V57.75H290.357z"/>
        <path fill="#783F18" d="M88.145 83.626L20.481 86.47l-13.985.58s9.586-4.376 12.495-5.27c1.585-.232 3.182-.372 4.783-.42 15.565-.88 62.931-2.048 62.931-2.048l1.44 4.313z"/>
        <path fill="#DAA65E" d="M23.774 81.361c-1.399 1-3.07 2.72-3.3 5.11l-13.985.58s9.593-4.376 12.502-5.27c1.585-.232 3.182-.372 4.783-.42z" opacity=".2" style="mix-blend-mode:screen"/>
        <path fill="#783F18" d="M251.76 52.766c-2.574-3.726-14.181-6.235-14.181-6.235l-25.173 2.18 39.353 4.055z"/>
        <path fill="#935325" d="M6.188 43.043s14.362-3.837 25.033-4.774c10.67-.936 300.174-10.373 306.67-9.841 6.496.53 14.88 4.5 14.88 4.5L6.187 43.044z"/>
        <path fill="#783F18" d="M253.822 106.259L244.746 102.582 231.782 108.712z"/>
        <path fill="#C88A4D" d="M349.267 132.205c-7.866 1.552-68.525 2.845-134.903 3.67-86.055 1.048-181.8 1.3-185.297.223-.211-.063-.41-.162-.587-.293-6.601-4.34-23.313-46.224-21.991-48.74C7.81 84.549 84.41 81.36 84.41 81.36s-75.398-.21-77.978-2.935l-.056-.056C3.734 75.35-6.44 44.315 6.188 43.043c5.594-.559 87.293-3.6 169.97-6.29 39.856-1.273 79.894-2.475 111.772-3.258 37.5-.93 63.666-1.314 64.84-.594 4.196 2.558 5.098 12.008 4.28 14.679-.818 2.67-50.086 3.781-50.086 3.781s52.904.503 54.323 3.95c1.42 3.445 3.112 48.306 3.112 48.306l-22.25 4.466 22.285.7s2.908 19.83-15.167 23.422z"/>
        <path fill="#DAA65E" d="M28.48 135.79c-6.601-4.34-23.313-46.223-21.991-48.74 1.321-2.515 77.922-5.703 77.922-5.703s-73.748 4.816-74.622 6.55c-.86 1.502 8.797 33.788 18.69 47.894zM6.433 78.426l-.056-.056C3.734 75.35-6.44 44.315 6.188 43.043c8.265-.832 183.696-7.094 281.742-9.492C191.59 36.403 11.14 42.232 5.734 45.636c-7.37 4.69.699 32.79.699 32.79z" opacity=".6" style="mix-blend-mode:screen"/>
        <path fill="#C88A4D" d="M10.866 47.614c-4.776 2.58-1.224 25.325.643 27.324 1.867 1.999 153.168 3.851 153.168 3.851s-149.364 8.78-150.28 10.8c-.916 2.02 16.502 38.443 19.76 40.428 3.259 1.985 301.195 3.432 313.257-.964 12.062-4.397 13.817-14.77 11.95-16.482-1.867-1.713-37.612-4.061-36.696-4.928.916-.867 32.452-4.823 34.298-6.85 1.846-2.027 3.426-42.023-1.224-43.721-4.65-1.699-73.363-5.83-73.37-6.99-.007-1.16 65.413-2.454 68.657-3.914 3.245-1.461 1.329-9.507-1.93-10.918-3.258-1.412-335.002 10.617-338.233 12.364z" opacity=".3" style="mix-blend-mode:screen"/>
        <path fill="#C88A4D" d="M50.422 64.607c1.398 0 118.317-2.796 118.317-2.796s-100.214.943-118.317 2.796zM166.257 106.399l141.944-3.551s-109.017 1.027-141.944 3.55zM230.985 74.483l-48.058 1.475s32.5-2.81 48.058-1.475z" opacity=".6" style="mix-blend-mode:screen"/>
        <path fill="#C88A4D" d="M349.267 132.205c-7.866 1.552-68.525 2.845-134.903 3.67 116.905-30.497 75.517-78.636-38.206-99.095 39.856-1.272 79.894-2.474 111.772-3.257 37.5-.93 63.666-1.314 64.84-.594 4.196 2.558 5.098 12.008 4.28 14.678-.818 2.67-50.086 3.754-50.086 3.754s52.904.503 54.323 3.95c1.42 3.445 3.112 48.306 3.112 48.306l-22.25 4.466 22.285.7s2.908 19.83-15.167 23.422z" opacity=".1" style="mix-blend-mode:multiply"/>
        <path fill="#C88A4D" d="M20.641 52.724c1.399-.294 238.013-7.689 238.013-7.689S40.108 48.565 20.64 52.724zM347.337 121.28l-133.644.342s107.185-1.887 133.644-.342zM51.575 98.256c1.86 0 197.646-6.515 197.646-6.515S69.658 95.257 51.575 98.256zM213.336 69.255c2.797-.308 135.938-4.662 135.938-4.662s-116.01 1.111-135.938 4.662zM38.248 117.044s66.812-1.887 82.125-1.992c-28.773-1.244-82.125 1.992-82.125 1.992z" opacity=".6" style="mix-blend-mode:multiply"/>
        <g>
            <path fill="#935325" stroke="#935325" stroke-linecap="round" stroke-linejoin="round" stroke-width="4.9" d="M75.86 15.762c.331-.026.664.034.965.175.265.155.42.448.398.755.04.32-.09.637-.342.838-.275.2-.605.305-.944.301l-12.908.482c-.336.023-.671-.052-.965-.216-.262-.18-.413-.48-.399-.797-.042-.309.09-.616.343-.797.278-.171.597-.263.923-.266l4.993-.181c-.075-.185-.113-.382-.112-.58-.003-.176.03-.35.098-.51l-2.797.104c-.608.07-1.22-.098-1.706-.468-.462-.567-.683-1.293-.616-2.02l-.105-2.845c-.024-.44 0-.88.07-1.314.044-.3.173-.582.37-.811.191-.2.433-.343.7-.413.338-.091.685-.14 1.035-.146l8.23-.3c.648-.098 1.307.074 1.825.474.429.59.635 1.314.58 2.041l.105 2.838c.117.73-.04 1.476-.44 2.097-.488.425-1.124.638-1.77.594l-2.978.112c.08.151.15.308.21.469.073.205.16.406.258.6l4.979-.216zM64.546 26.121c.14-.346.436-.605.797-.7.362-.069.736.006 1.042.21.37.15.583.538.51.93-.088.42-.246.821-.468 1.188-.31.562-.66 1.099-1.049 1.608-.369.458-.76.897-1.174 1.314-.308.263-.694.418-1.098.44-.448.024-.862-.236-1.035-.65-.161-.323-.161-.703 0-1.027.186-.338.422-.647.7-.916l.93-1.055c.334-.412.618-.863.845-1.342h0zm1-.958c-.348.017-.697-.002-1.042-.056-.257-.035-.499-.142-.699-.307-.2-.172-.349-.398-.426-.65-.11-.358-.17-.73-.175-1.105l-.05-1.398c-.022-.379.004-.76.078-1.132.053-.258.17-.499.342-.699.195-.186.437-.314.7-.37.337-.078.681-.12 1.027-.126l8.391-.315c.58-.047 1.161.085 1.664.378.504.455.763 1.12.7 1.796l.049 1.398c.117.642-.063 1.303-.49 1.796-.495.34-1.085.512-1.685.49l-2.28.084.14 3.767c.066.698-.125 1.397-.538 1.964-.58.54-1.368.795-2.154.7-.427.01-.855-.014-1.28-.07-.33-.048-.657-.13-.971-.245-.315-.1-.571-.332-.7-.636-.112-.31-.112-.649 0-.958.025-.328.197-.626.469-.81.3-.1.623-.1.923 0 .35.143.733.181 1.105.111.203-.077.293-.294.28-.643l-.112-3.131-3.266.167zM72.72 9.157c0-.266-.112-.399-.307-.392l-6.685.252c-.079-.007-.157.013-.224.056-.056.097-.076.21-.056.321v.853l7.328-.273-.056-.817zm.091 2.467l-7.307.259v.769c0 .244.168.363.469.349l6.398-.238c.123.007.246-.02.356-.077.077-.048.112-.167.105-.363l-.02-.699zm.37 9.898c.014-.138-.02-.277-.097-.392-.075-.06-.17-.088-.266-.077l-6.615.252c-.244 0-.363.16-.35.461v.853c0 .315.14.468.392.461l6.503-.237c.196 0 .315-.056.37-.14.061-.146.083-.305.064-.461v-.72zm1.805 7.884l-1-1.097c-.259-.28-.497-.525-.7-.7-.321-.254-.554-.604-.664-.999-.075-.347.066-.705.357-.909.205-.264.526-.413.86-.398.315.066.6.233.811.475.462.42.832.79 1.105 1.084.273.293.573.65.895 1.048.206.204.347.464.406.748.108-.158.233-.306.37-.44.169-.167.354-.317.553-.448.517-.391 1.02-.81 1.524-1.265.53-.487 1.035-1.003 1.51-1.544.51-.574 1.028-1.224 1.56-1.93.53-.706 1.076-1.523 1.629-2.425.226-.493.575-.919 1.014-1.237.378-.19.824-.19 1.202 0 .443.152.776.522.881.978.076.609-.081 1.223-.44 1.72-.602 1.016-1.196 1.929-1.783 2.74-.56.769-1.16 1.509-1.797 2.216-.587.656-1.21 1.28-1.867 1.866-.652.58-1.338 1.119-2.056 1.614-.38.314-.857.487-1.35.49-.463-.072-.86-.371-1.055-.797-.129-.211-.2-.452-.21-.7 0 .043 0 .064-.056.07l-.077.07c-.203.226-.493.354-.797.35-.33-.088-.616-.295-.804-.58h-.021zm9.985-23.31c.434.212.748.61.853 1.083-.05.611-.316 1.186-.748 1.621-.73.95-1.524 1.85-2.378 2.691-.898.882-1.864 1.693-2.887 2.426-.435.372-.966.614-1.532.699-.482.015-.926-.26-1.126-.7-.31-.35-.413-.839-.272-1.285.26-.436.625-.8 1.063-1.056.946-.618 1.835-1.32 2.657-2.097.736-.708 1.395-1.493 1.965-2.341.314-.512.748-.94 1.265-1.245.402-.13.842-.045 1.168.224l-.028-.02zm.552 6.891c.433.23.73.654.797 1.14-.069.563-.313 1.092-.699 1.51-.829 1.107-1.766 2.13-2.797 3.054-.989.915-2.066 1.73-3.216 2.432-.446.363-1.027.516-1.594.42-.845-.315-1.287-1.243-1-2.097.246-.388.594-.7 1.006-.902 1.019-.568 1.975-1.24 2.853-2.006.896-.796 1.684-1.705 2.343-2.705.265-.461.659-.835 1.133-1.077.412-.126.86-.04 1.195.231h-.02zM118.807 14.518c.031.37-.062.738-.266 1.048-.292.314-.712.476-1.14.44l-22.375.825c-.424.076-.858-.057-1.168-.356-.21-.299-.32-.656-.315-1.02-.036-.382.047-.766.238-1.098.285-.325.71-.491 1.14-.447l5.041-.182c-.097-.247-.188-.492-.272-.734-.091-.245-.196-.496-.315-.762-.188-.375-.284-.79-.28-1.21.002-.296.126-.58.343-.782l-3.293.119c-1.007.035-1.532-.42-1.567-1.398-.036-.391.068-.783.294-1.104.305-.313.733-.474 1.168-.44l7.992-.294-.09-.154c-.204-.392-.256-.845-.148-1.272.18-.47.55-.842 1.021-1.02.384-.16.812-.18 1.21-.057.454.215.8.607.958 1.084.077.251.16.468.237.657l.266.657 8.174-.3c1.007-.043 1.532.419 1.567 1.397.04.395-.078.79-.33 1.098-.293.303-.703.463-1.125.44l-2.797.105c.119.213.179.454.175.699-.006.339-.06.675-.16 1-.113.344-.218.673-.315.985-.08.278-.175.551-.287.818l4.936-.182c.426-.069.86.063 1.175.356.22.318.328.699.308 1.084h0zm-2.797 12.008c.091.736-.085 1.48-.497 2.097-.543.501-1.27.755-2.006.7l-13.782.502c-.73.122-1.476-.082-2.042-.559-.43-.594-.644-1.316-.608-2.048l-.252-6.822c-.105-.7.06-1.415.461-1.999.56-.457 1.274-.68 1.993-.622l13.782-.503c.72-.105 1.452.062 2.056.468.464.542.695 1.246.643 1.957l.252 6.83zm-3.433-6.088c0-.16-.112-.237-.329-.23l-11.887.44c-.252 0-.37.112-.364.307l.05 1.356 12.586-.468-.056-1.405zm.16 4.243l-12.586.468.05 1.49c0 .188.139.286.384.272l11.845-.434c.09.003.18-.02.259-.063.055-.042.076-.132.07-.272l-.022-1.461zm-9.726-11.184v.077c.002.016.002.033 0 .05l5.972-.218c.246-.443.443-.911.587-1.398.147-.468.28-.943.405-1.397.05-.263.137-.517.26-.755l-8.601.321c.095.094.175.203.237.322.07.132.126.265.19.405.153.454.307.88.46 1.286.154.406.35.818.504 1.293l-.014.014zM135.28 13.54c.438-.041.876.072 1.238.32.286.307.434.715.413 1.133.057.41-.062.824-.329 1.14-.344.267-.774.4-1.21.377l-5.593.21.258 7.241c-.01.293-.148.566-.377.748-.381.287-.852.43-1.329.405-.465.068-.94-.042-1.328-.307-.23-.166-.379-.419-.413-.7l-.601-16.216c-.067-.426.076-.858.384-1.16.37-.252.812-.38 1.26-.363l8.208-.308c.412-.048.827.057 1.168.294.3.301.465.713.454 1.14.076.423-.057.857-.356 1.166-.342.252-.757.385-1.182.378l-6.426.237.16 4.48 5.602-.216zM144.657 6.836c.002-.35.134-.686.371-.944.343-.347.82-.529 1.308-.496.48-.07.966.065 1.342.37.265.245.42.584.434.944l.363 9.82c.019.679.106 1.353.259 2.014.13.545.368 1.058.7 1.51.312.412.733.729 1.216.915.62.226 1.28.319 1.937.273.646-.001 1.285-.14 1.874-.405.467-.221.864-.567 1.146-1 .292-.469.475-.996.539-1.545.088-.695.117-1.397.084-2.097l-.364-9.785c-.008-.346.111-.682.336-.944.35-.355.838-.539 1.335-.503.483-.064.97.073 1.35.377.26.247.415.585.433.944l.42 11.463c.06.96-.118 1.92-.517 2.796-.377.783-.913 1.478-1.574 2.041-.678.562-1.456.992-2.293 1.265-.865.292-1.767.457-2.678.49-.904.03-1.808-.066-2.685-.287-.856-.214-1.667-.581-2.392-1.084-.716-.5-1.317-1.149-1.762-1.9-.486-.853-.746-1.816-.755-2.797l-.427-11.435zM171.312 22.144c.014.36-.117.71-.363.971-.351.333-.825.506-1.308.476-.487.065-.979-.083-1.35-.406-.253-.24-.408-.567-.433-.916l-.601-16.398c-.017-.308.064-.614.23-.873.168-.266.574-.406 1.21-.434.317-.02.63.083.874.287.213.19.411.396.595.615l8.81 10.974-.434-10.848c0-.349.13-.686.364-.944.343-.352.824-.536 1.314-.503.48-.062.966.074 1.343.377.26.248.416.586.434.944l.608 16.454c.01.295-.073.587-.238.832-.168.251-.56.391-1.182.42-.323.017-.642-.085-.895-.287-.227-.184-.436-.39-.622-.616L170.9 11.66l.412 10.485zM191.268 17.474c-.414.05-.834-.035-1.195-.244-.29-.3-.436-.71-.399-1.126-.05-.4.064-.802.315-1.118.324-.282.745-.428 1.175-.405h.475l-.343-9.213c-.077-.745.088-1.494.469-2.139.495-.579 1.24-.883 2-.818l5.363-.202c.425-.058.858.034 1.223.258.265.3.398.692.371 1.09.072.403-.035.817-.294 1.133-.356.226-.774.333-1.195.308l-4.727.174c-.23 0-.343.112-.336.308l.042 1.14 4.356-.161c.384-.04.77.018 1.126.167.252.133.385.455.406.972.02.517-.091.93-.329 1.097-.335.196-.717.295-1.105.287l-4.356.16.049 1.399 4.195-.161c.391-.04.786.02 1.147.175.238.132.364.454.385.964.02.51-.077.979-.308 1.119-.352.172-.741.253-1.133.237l-4.195.161.056 1.398 4.894-.182c.422-.052.849.034 1.217.245.277.265.423.638.399 1.02.059.434-.054.873-.315 1.224-.33.287-.76.433-1.196.405l-4.013.147c-.154.517-.294.964-.413 1.342-.119.377-.238.734-.356 1.062-.12.329-.245.7-.378 1-.133.3-.266.699-.413 1.09-.059.165-.059.346 0 .51.056.154.182.21.378.168l3.433-.6c-.09-.198-.168-.401-.23-.609-.084-.242-.182-.475-.294-.699-.284-.484-.415-1.041-.378-1.6.088-.396.362-.724.734-.881.366-.232.81-.305 1.231-.203.329.112.65.496.958 1.16.196.448.378.846.538 1.188.161.343.315.658.448.951.133.294.266.601.392.902.125.3.258.65.398 1.034.24.542.312 1.143.21 1.727-.151.44-.497.785-.937.936-.253.078-.52.102-.783.07-.195-.034-.376-.121-.525-.251-.163-.145-.287-.327-.363-.532-.098-.223-.196-.489-.3-.782l-6.294 1.244c-.46.114-.944.102-1.398-.035-.33-.102-.607-.33-.77-.636-.137-.344-.178-.718-.119-1.084.063-.53.209-1.046.434-1.53.378-.867.7-1.671 1.028-2.405.329-.734.601-1.517.874-2.349l-1.329-.007zm14.79 2.328l-.078-2.048-3.027.119c-.384.049-.772-.038-1.098-.245-.24-.225-.367-.545-.35-.873-.046-.345.056-.693.28-.958.314-.227.697-.338 1.084-.315l3.027-.111-.056-1.356-2.6.097c-.432.066-.871-.054-1.21-.328-.217-.246-.341-.56-.35-.888-.04-.336.064-.674.287-.93.338-.256.758-.38 1.181-.349l2.602-.098-.056-1.489-3.532.133c-.957.035-1.447-.342-1.475-1.14-.028-.796.427-1.292 1.399-1.327l3.53-.133-.041-1.46-2.734.097c-.37.062-.747-.04-1.035-.28-.198-.266-.299-.591-.287-.922-.025-.32.053-.638.224-.909.257-.279.63-.421 1.007-.384l2.734-.098-.042-1.251c-.063-.37.05-.746.305-1.02s.623-.414.995-.378c.359-.054.722.053.993.293.231.294.35.661.336 1.035l.014 1.209 1.965-.077c.485-.024.972-.005 1.454.056.333.036.65.161.916.363.238.208.41.48.497.783.113.422.172.857.174 1.293l.056 1.398h.476c.412-.06.832.032 1.182.259.242.258.368.604.35.958.039.326-.063.654-.28.901-.332.253-.745.377-1.161.35l-.448.007.056 1.593c.092.678-.126 1.36-.594 1.86-.663.46-1.46.687-2.266.643l-1.964.07.055 1.356 4.084-.154c.417-.056.84.022 1.21.224.247.238.375.573.35.915.04.332-.064.666-.287.916-.343.247-.761.366-1.182.335l-4.09.154.076 2.041 5.203-.196c.434-.07.878.032 1.237.287.22.272.337.614.329.965.038.33-.066.66-.287.908-.343.246-.76.365-1.182.336l-5.209.196.112 2.893c.053.374-.068.75-.328 1.023-.26.273-.632.411-1.007.375-.355.049-.713-.061-.98-.3-.223-.297-.335-.664-.314-1.035l-.112-2.894-3.559.133c-.383.041-.77-.024-1.119-.188-.238-.14-.377-.497-.412-1.063-.05-.79.391-1.21 1.307-1.244l3.664-.133zm2.097-13.819l.056 1.482 2.258-.056v-.664c0-.356-.09-.58-.223-.699-.267-.114-.559-.155-.846-.119l-1.245.056zm1.398 5.396c.144-.006.287-.024.427-.056.12-.03.228-.099.308-.195.096-.133.16-.286.188-.448.042-.273.063-.548.063-.824l-2.21.083.057 1.482 1.167-.042zM230.614 8.814c.224-.328.448-.699.7-1.062l-6.77.251c-.4.05-.807-.013-1.174-.181-.262-.258-.394-.62-.356-.986 0-.566.07-.93.28-1.083.352-.202.755-.296 1.16-.273l8.097-.3c.08-.19.147-.384.203-.58.056-.19.112-.378.182-.574-1.539.093-3.026.175-4.461.245-1.434.07-2.797.112-4.063.119-.364.023-.73.007-1.09-.05-.224-.034-.436-.117-.623-.244-.144-.108-.243-.265-.28-.44-.048-.23-.076-.464-.084-.7-.027-.331.115-.655.378-.86.57-.287 1.208-.418 1.846-.377 1.79-.048 3.559-.104 5.321-.181 1.762-.077 3.447-.168 5.042-.28 1.594-.112 3.097-.237 4.482-.377 1.384-.14 2.608-.294 3.664-.455.527-.133 1.08-.133 1.608 0 .38.189.632.563.664.986.13.388.05.816-.21 1.132-.457.329-1.003.511-1.566.525-1.11.144-2.291.277-3.545.398-1.252.119-2.573.23-3.95.335l-.19.63c-.062.202-.132.405-.216.608l7.726-.287c.401-.054.81.01 1.175.182.217.14.343.496.364 1.062.02.566-.077.846-.287 1.007-.353.199-.756.29-1.16.265l-8.84.329c-.083.182-.167.363-.258.545-.09.182-.182.35-.259.51l11.153-.412h.7c.166-.001.33.042.475.126.128.09.226.216.28.363.074.226.114.462.118.7 0 .572-.09.922-.321 1.062-.357.173-.75.257-1.147.244l-12.929.476c-.105.146-.23.314-.384.51s-.287.35-.406.482l10.048-.321c.737-.113 1.49.065 2.098.496.445.53.67 1.21.63 1.901l.293 7.277c.097.802-.07 1.614-.476 2.313-.525.56-1.277.848-2.041.783l-12.775.468c-.804.127-1.624-.097-2.252-.615-.493-.654-.74-1.46-.7-2.278l-.202-5.383c-.294.182-.587.37-.895.546l-.923.552c-.489.35-1.077.536-1.678.531-.417-.08-.767-.36-.937-.748-.208-.374-.244-.82-.098-1.223.246-.505.666-.904 1.182-1.125.995-.527 1.955-1.118 2.874-1.769.924-.66 1.79-1.399 2.587-2.209l-5.363.196c-.394.043-.792-.01-1.161-.154-.245-.126-.378-.468-.399-1.034-.016-.247.008-.495.07-.734.041-.152.13-.286.252-.385.135-.09.292-.146.454-.16.196 0 .427-.042.7-.05l7.663-.265zm10.775 5.767c.009-.108-.024-.216-.09-.3-.092-.052-.197-.072-.301-.057l-11.412.42c-.1-.007-.197.034-.262.11-.066.074-.093.176-.073.274l.035.853 12.131-.448-.028-.852zm.112 3.026l-12.152.448.049 1.25 12.145-.433-.042-1.265zm-11.978 4.76c-.008.115.024.229.091.322.087.056.192.079.294.063l11.342-.42c.195 0 .307 0 .356-.076.053-.114.07-.24.05-.364v-.846l-12.14.448.007.873zM8.985 54.632c.202-.015.405.024.588.112.159.102.244.288.216.475.027.192-.05.384-.203.504-.166.12-.367.187-.573.188l-7.852.287c-.205.016-.41-.03-.588-.133-.16-.107-.253-.29-.244-.482-.024-.187.057-.372.21-.482.171-.107.37-.163.573-.161l3.083-.126c-.05-.112-.073-.234-.07-.356.004-.107.028-.21.07-.308l-1.692.063c-.37.046-.742-.057-1.035-.287-.295-.344-.439-.792-.398-1.244l-.098-1.726c-.017-.27-.003-.539.042-.804.028-.18.106-.35.224-.49.114-.12.26-.207.42-.251.205-.053.416-.084.628-.091l5.007-.182c.394-.057.794.047 1.112.287.258.361.381.801.35 1.244l.062 1.754c.071.443-.024.896-.265 1.273-.298.258-.684.388-1.077.363l-1.811.063c.048.093.09.189.126.287.046.126.1.25.16.37l3.035-.147zm-6.887 6.305c.085-.207.265-.36.482-.412.22-.046.45 0 .636.125.213.09.339.31.308.539-.05.26-.145.511-.28.74-.182.345-.395.673-.636.98-.219.28-.452.548-.7.803-.196.165-.442.258-.698.266-.272.002-.52-.154-.637-.399-.097-.196-.097-.426 0-.622.109-.204.248-.39.413-.552l.566-.643c.217-.25.4-.528.546-.825h0zm.608-.608c-.211.023-.425.023-.636 0-.156-.036-.3-.11-.42-.217-.118-.107-.205-.245-.252-.398-.066-.227-.102-.462-.104-.7v-.838c-.018-.234-.004-.469.042-.699.031-.16.106-.307.216-.426.108-.112.247-.19.399-.224.207-.046.417-.074.63-.084l5.055-.126c.351-.03.703.05 1.007.231.258.168.391.531.412 1.097l.035.84c.067.39-.043.79-.3 1.09-.303.206-.663.311-1.029.3l-1.398.05.084 2.292c.043.423-.074.847-.329 1.188-.347.336-.827.497-1.307.44-.262.003-.524-.01-.783-.042-.2-.033-.397-.084-.588-.153-.193-.06-.351-.2-.433-.385-.07-.187-.07-.393 0-.58.034-.201.16-.375.342-.468.183-.057.378-.057.56 0 .22.09.463.118.699.077.126-.05.182-.182.175-.399l-.07-1.901-2.007.035zm4.377-9.716c0-.158-.063-.235-.189-.23l-4.097.146c-.048 0-.094.014-.133.042V51.284l4.454-.168-.035-.503zm.056 1.503l-4.46.168v.468c0 .147.097.224.279.217l3.894-.147c.075 0 .15-.017.217-.049.042 0 .07-.105.063-.224l.007-.433zm.224 6.025c.006-.086-.016-.172-.063-.245-.047-.033-.104-.048-.16-.041l-4.014.16c-.154 0-.224.105-.217.287v.517c0 .189.084.287.238.28l3.957-.147c.112 0 .189 0 .217-.077.042-.09.057-.189.042-.287v-.447zm1.105 4.767l-.609-.699c-.16-.168-.3-.321-.433-.44-.196-.156-.337-.368-.406-.608-.047-.211.04-.43.217-.552.123-.164.32-.256.524-.245.191.043.364.143.497.286.273.26.496.483.664.7.168.216.35.39.546.636.124.127.209.287.244.46.064-.098.14-.19.224-.272.104-.098.216-.187.336-.265.318-.236.623-.488.916-.755.325-.295.633-.608.923-.937.307-.35.629-.74.95-1.174.322-.434.651-.923.987-1.475.143-.3.362-.558.636-.748.22-.11.479-.11.7 0 .269.093.472.317.538.594.04.37-.054.743-.266 1.049-.37.615-.7 1.167-1.091 1.663-.329.482-.686.944-1.07 1.384-.356.398-.734.776-1.133 1.133-.397.345-.815.668-1.251.964-.232.192-.524.296-.825.294-.28-.042-.52-.224-.637-.483-.08-.13-.126-.28-.132-.433.002.014.002.028 0 .042l-.05.042c-.122.137-.298.216-.482.217-.215-.055-.4-.19-.517-.378h0zm6.07-14.175c.274.137.466.396.517.699-.03.372-.191.721-.455.985-.445.575-.926 1.122-1.44 1.636-.55.535-1.14 1.028-1.762 1.475-.265.225-.587.37-.93.42-.301.023-.583-.15-.7-.427-.182-.217-.245-.51-.168-.783.16-.265.384-.486.65-.643.583-.382 1.13-.815 1.637-1.293.448-.422.849-.89 1.196-1.398.191-.31.455-.57.769-.755.24-.075.503-.025.7.133l-.015-.05zm.335 4.194c.266.139.447.4.482.699-.04.345-.19.668-.426.922-.5.672-1.064 1.293-1.686 1.853-.602.557-1.257 1.053-1.957 1.481-.27.223-.622.315-.965.252-.249-.082-.452-.265-.56-.503-.128-.242-.146-.527-.049-.783.148-.235.359-.424.609-.545.62-.344 1.202-.754 1.734-1.223.538-.482 1.008-1.035 1.398-1.643.166-.281.409-.51.7-.657.253-.066.522-.003.72.168v-.021zM35.102 53.877c.03.224-.02.452-.14.643-.178.195-.437.296-.7.273l-13.6.503c-.254.04-.512-.04-.699-.216-.133-.183-.202-.404-.196-.63-.032-.242.02-.49.147-.698.173-.202.436-.302.7-.266l3.069-.119c-.063-.147-.119-.293-.175-.447-.056-.154-.112-.3-.182-.462-.112-.216-.172-.455-.174-.699.006-.18.081-.35.21-.475l-2.007.07c-.609 0-.93-.252-.951-.832-.028-.246.034-.494.174-.699.184-.186.438-.285.7-.272l4.894-.175-.049-.098c-.156-.249-.187-.557-.082-.831.104-.275.331-.485.614-.567.233-.097.493-.11.734-.035.268.132.472.367.566.65.04.136.086.269.14.399.05.111.098.244.161.398l4.972-.189c.615 0 .937.259.958.84.028.25-.045.502-.203.698-.183.186-.439.283-.7.266l-1.713.063c.078.133.114.286.105.44 0 .209-.034.416-.098.615-.07.203-.132.405-.188.594-.056.189-.12.357-.175.503l3.006-.111c.255-.043.514.037.7.216.133.19.198.42.182.65h0zm-1.7 7.305c.058.446-.05.898-.3 1.272-.33.309-.773.466-1.224.433l-8.39.315c-.446.073-.9-.053-1.245-.343-.261-.363-.392-.804-.371-1.25l-.154-4.146c-.062-.426.038-.86.28-1.216.342-.278.778-.413 1.217-.378l8.39-.307c.438-.062.883.037 1.252.28.281.332.422.76.392 1.195l.153 4.145zm-2.097-3.705c0-.098-.07-.14-.203-.14l-7.216.273c-.154 0-.224.063-.217.182v.824l7.636-.28v-.859zm.09 2.586l-7.621.28.035.902c0 .118.077.181.23.174l7.203-.265c.056-.001.111-.016.16-.042 0 0 .05-.077.043-.161l-.05-.888zm-5.908-6.815c-.004.016-.004.033 0 .05 0 0 0 0 0 0l3.63-.134c.15-.265.27-.546.356-.838.09-.28.168-.567.244-.867.033-.158.087-.311.161-.454l-5.23.195c.061.054.109.12.14.196.044.08.083.161.119.245.098.272.188.538.28.782.09.245.223.539.321.825h-.02zM42.087 55.22h.566c.216-.014.432 0 .644.041.152.027.287.112.377.238.098.153.15.33.154.51.024.282.024.565 0 .846-.042.426-.098.818-.168 1.181-.084.334-.187.663-.308.986.38.462.858.834 1.399 1.09.599.268 1.255.384 1.909.336l6.992-.259c.248-.034.5.032.7.182.152.2.228.448.216.699 0 .573-.273.867-.874.888l-6.992.258c-.45.022-.902.004-1.35-.056-.372-.047-.738-.136-1.09-.265-.325-.118-.63-.28-.91-.483-.29-.21-.564-.444-.818-.699-.228.34-.475.667-.74.979-.268.307-.568.583-.896.825-.215.181-.488.28-.769.28-.255-.022-.483-.168-.608-.392-.134-.207-.187-.456-.147-.7.047-.285.212-.538.454-.698.558-.413 1.032-.928 1.399-1.517.331-.59.567-1.23.7-1.894.076-.294.09-.475 0-.531-.107-.082-.232-.135-.365-.154h-.503c-.295.019-.59 0-.881-.056-.173-.026-.33-.116-.44-.252-.082-.131-.108-.29-.07-.44.042-.22.117-.432.223-.63l.951-1.712c.061-.092.089-.204.077-.314 0-.07-.119-.105-.3-.098h-.65c-.23.037-.463-.018-.651-.154-.135-.186-.202-.413-.189-.643-.03-.242.02-.487.14-.699.16-.18.396-.274.636-.251l1.825-.07c.343-.031.686.05.98.23.248.179.392.47.384.776.002.161-.021.322-.07.476-.056.167-.105.314-.154.433l-.783 1.712zm.657-4.586c-.14.206-.394.303-.636.245-.309-.097-.598-.249-.853-.448-.259-.195-.497-.363-.7-.51-.202-.147-.496-.335-.818-.566-.234-.137-.412-.352-.503-.608-.042-.254.038-.513.217-.7.335-.453.825-.474 1.454-.055l.818.552c.279.186.547.386.804.601.248.163.425.412.497.7.03.287-.073.572-.28.775v.014zm3.315 8.737c.027.208-.052.415-.21.553-.196.119-.421.18-.65.174-.219.024-.44-.014-.637-.112-.167-.14-.254-.355-.23-.573l-.238-6.423c-.023-.27-.023-.541 0-.811.021-.202.09-.397.202-.566.125-.158.296-.273.49-.329.279-.086.568-.13.86-.133l2.28-.084-.56-.181-.475-.161-.455-.16-.524-.183c-.27-.052-.514-.19-.7-.391-.081-.17-.081-.368 0-.538.018-.049.044-.094.077-.133.034-.034.064-.072.091-.112h-.517c-.23.034-.466-.021-.657-.154-.13-.145-.198-.336-.19-.53-.018-.191.031-.382.14-.54.18-.16.418-.238.658-.216l7.07-.237c.312-.028.625.051.887.223.203.141.327.369.336.615.002.197-.062.39-.182.546-.173.214-.397.382-.65.489l-.574.286-.468.266-.497.259-.699.293c.125.057.238.135.336.23.06.065.091.151.084.239l1.398-.056c.316-.02.632-.003.944.049.213.028.414.116.58.251.142.134.245.303.301.49.085.246.14.502.161.761l.21 5.718c0 .776-.182 1.28-.63 1.517-.718.258-1.498.295-2.237.105-.27-.006-.523-.125-.7-.329-.13-.21-.153-.469-.062-.699.038-.203.157-.381.328-.496.246-.08.51-.08.756 0 .226.068.466.083.699.042.09 0 .133-.182.126-.434v-.657l-2.483.077.07 1.839c.017.224-.026.448-.126.65-.097.167-.328.258-.699.272-.37.014-.566-.063-.699-.223-.109-.195-.166-.414-.168-.636l-.07-1.839-2.195.077.098 1.915zm-.21-5.731l2.195-.077-.042-1.07-1.936.07c-.076-.005-.151.012-.217.05V53.64zm.09 2.453l2.196-.077v-1.034l-2.202.077.007 1.034zm.455-6.899l.532.16.573.19.538.174.42.14c.287-.098.573-.21.853-.335l.63-.287c.209-.07.314-.119.3-.147-.014-.028-.133 0-.37 0l-3.476.105zm3.252 3.23l.042 1.069 2.454-.091v-.81c0-.12 0-.19-.07-.217-.087-.021-.178-.021-.266 0l-2.16.048zm.132 3.494l2.455-.09-.042-1.035-2.455.09.042 1.035zM60.987 53.821c-.298.028-.597.028-.895 0-.205-.027-.397-.114-.552-.251-.145-.14-.245-.32-.287-.517-.064-.292-.1-.59-.105-.888l-.105-2.922c-.027-.297-.027-.597 0-.895.028-.203.113-.394.245-.552.144-.146.33-.246.531-.286.294-.067.594-.102.895-.105l1.602-.063c.294-.017.59-.003.88.042.43.043.778.365.854.79.067.289.102.584.105.88l.175 2.873c.015.254.015.508 0 .762-.018.18-.073.353-.161.51-.08.141-.199.256-.343.329-.179.094-.373.156-.573.182v1h.566c.26-.03.523.026.748.16.022-.14.107-.26.231-.329.166-.09.336-.172.51-.244.497-.194.976-.427 1.434-.7.418-.246.822-.517 1.21-.81-.249-.242-.483-.499-.7-.769-.25-.284-.484-.582-.699-.895-.041.054-.077.113-.105.175-.03.061-.065.12-.105.175-.131.223-.336.394-.58.482-.268.047-.541-.04-.734-.23-.195-.153-.327-.372-.37-.616.031-.295.162-.57.37-.782.641-.827 1.101-1.78 1.35-2.796.054-.208.124-.411.209-.608.062-.133.15-.252.259-.35.076-.079.173-.135.28-.16.136-.017.275-.017.412 0 .447.097.636.468.56 1.11l3.069-.111c.323-.03.649.015.951.133.212.084.388.24.496.44.1.219.133.461.098.699-.037.294-.118.581-.237.853-.22.548-.482 1.078-.784 1.586-.296.492-.63.96-1 1.398.378.196.763.378 1.161.546.399.167.811.307 1.224.447.804.252 1.119.699.937 1.398-.02.28-.217.514-.49.58-.396.037-.795-.006-1.174-.126-.569-.228-1.1-.461-1.595-.699-.483-.234-.95-.5-1.398-.797-.385.313-.786.605-1.203.874-.426.284-.87.54-1.328.769l4.734-.175c.395-.06.797.052 1.104.308.26.353.386.786.357 1.223l.105 2.838c.056.453-.037.912-.266 1.307-.27.307-.669.47-1.077.44l-4.454.168c-.4.06-.806-.075-1.09-.363-.243-.382-.363-.828-.343-1.28l-.105-2.844c-.015-.252-.015-.504 0-.755.013-.175.065-.345.154-.497-.337.192-.755.17-1.07-.056-.013.218-.127.417-.308.539-.213.12-.454.183-.699.181h-.566l.063 1.748c.02-.019.043-.033.07-.042.033-.01.064-.026.09-.049.266-.148.576-.197.874-.14.251.1.446.304.532.56.294.58.063 1.062-.7 1.397l-1.104.525-.91.433-.831.384-.84.392c-.338.205-.717.336-1.111.384-.284.013-.54-.169-.622-.44-.122-.257-.166-.544-.126-.825.042-.245.251-.475.622-.699l-.189-5.081c-.062-.246.002-.507.17-.697.167-.19.418-.285.67-.254.247-.043.5.02.699.175.163.195.245.445.23.699l.112 4.396c.095-.054.193-.103.294-.147l.294-.153-.196-5.292h-.406zm1.448-4.627c0-.084-.056-.126-.147-.119l-1.245.042c-.066-.003-.13.022-.175.07-.039.093-.053.194-.042.294l.091 2.341c0 .154.063.224.168.224l1.343-.056c.07 0 .111-.056.104-.16l-.097-2.636zm5.034.105c-.005.05-.027.097-.063.133.269.418.566.817.888 1.195.283.338.594.652.93.937.222-.261.43-.534.622-.818.208-.297.4-.605.574-.923.14-.251.182-.426.126-.517-.086-.097-.216-.142-.343-.119l-2.734.112zm3.853 8.06c.005-.054.005-.108 0-.162-.013-.041-.055-.068-.098-.062l-3.496.132c-.091 0-.126.077-.126.231l.084 2.146c-.013.062-.013.126 0 .189.023.034.063.053.105.049l3.496-.133s.049 0 .07-.084c.016-.052.016-.108 0-.16l-.035-2.147zM80.58 51.466c.079 1.496.079 2.961 0 4.396-.058 1.35-.278 2.688-.658 3.985-.06.348-.252.659-.538.866-.217.107-.468.127-.7.056-.372-.126-.589-.3-.65-.524-.054-.287-.012-.585.12-.846.2-.529.356-1.074.468-1.628.116-.577.195-1.16.238-1.748.049-.622.063-1.314.049-2.097-.014-.783 0-1.621-.07-2.614l-.154-2.873c-.056-.447.04-.9.272-1.286.32-.312.758-.47 1.203-.433l5.405-.203c.438-.07.884.058 1.217.35.26.366.389.81.363 1.258l.056 1.398c.053.444-.042.894-.272 1.279-.309.32-.746.482-1.189.44l-5.16.224zm4.824-3.006c0-.119-.042-.188-.111-.21-.128-.022-.258-.022-.385 0l-4.133.154c-.086-.01-.173.018-.237.077-.054.108-.074.23-.056.35l.042 1.034 4.615-.168c.21 0 .3-.16.293-.447l-.028-.79zm-.16 11.883c.033.242-.017.488-.14.699-.146.145-.348.22-.553.203-.216.03-.435-.027-.608-.161-.157-.198-.234-.447-.217-.7l-.217-5.857h-.643c-.085-.006-.17.025-.23.084-.048.11-.065.231-.05.35l.175 4.564c.026.244-.028.489-.154.7-.141.157-.347.242-.559.23-.224.02-.449-.036-.636-.161-.17-.192-.255-.444-.238-.699l-.182-5.026c-.055-.429.033-.864.252-1.237.302-.286.712-.428 1.126-.391l1.084-.042v-.58c-.035-.243.017-.49.146-.7.167-.136.38-.203.595-.188.203-.03.41.023.573.147.15.2.222.449.203.699v.58l1.084-.042c.412-.066.832.048 1.153.314.257.352.383.782.357 1.217l.147 4.068c.043.457-.065.917-.308 1.307-.272.35-.705.534-1.147.49-.363.035-.727-.059-1.027-.267l.014.399zm-.217-5.823l.16 4.257c.045-.113.146-.196.266-.216.134-.028.272-.028.406 0 .119.041.196.041.238 0 .042-.042.049-.12.042-.28l-.133-3.55c0-.12 0-.197-.07-.218-.085-.02-.174-.02-.259 0l-.65.007zm5.083 1.797c.043.271-.036.547-.217.755-.393.271-.908.29-1.321.049-.179-.188-.272-.44-.259-.7l-.293-8.191c0-.401.062-.653.188-.755.198-.127.43-.19.665-.182.227-.017.454.03.657.133.168.09.266.342.28.74l.3 8.15zm2.797 2.048c.035.504-.022 1.011-.168 1.496-.126.355-.373.655-.699.845-.363.201-.774.298-1.189.28-.588-.015-1.172-.1-1.74-.252-.518-.13-.833-.319-.945-.566-.104-.316-.087-.66.05-.964.223-.616.699-.79 1.356-.525.251.105.51.19.776.252.143.047.298.047.44 0 .113-.061.189-.173.203-.3.02-.191.02-.383 0-.574l-.426-11.512c-.049-.254.024-.517.197-.71.172-.194.425-.295.684-.276.25-.025.499.045.699.196.17.193.26.443.252.7l.51 11.91zM111.773 50.571c.254-.029.508.053.699.224.165.194.253.444.244.699.026.248-.041.497-.188.699-.187.18-.44.273-.7.258l-7.027.26v.37c1.026.465 2.049.931 3.07 1.397 1.02.466 1.953.932 2.797 1.398.496.26.783.51.867.755.078.286.024.59-.147.832-.138.251-.373.436-.65.51-.358-.017-.704-.138-.993-.35h0c-.7-.356-1.44-.761-2.3-1.201-.86-.44-1.693-.783-2.56-1.203l.16 4.425c0 .377-.062.629-.23.748-.428.249-.952.27-1.398.056-.214-.181-.324-.456-.294-.734l-.259-6.906-4.748.175c-.252.033-.507-.043-.699-.21-.147-.203-.223-.449-.217-.699-.023-.245.036-.491.168-.699.176-.198.435-.302.7-.28l5.006-.188-.182-4.893c0-.392.063-.65.238-.755.212-.124.454-.187.7-.182.24-.019.48.025.698.126.182.098.273.343.287.74l.07.959 5.356-.196c.251-.035.506.039.7.203.151.2.23.447.223.699.017.244-.042.488-.168.698-.18.192-.437.292-.699.273l-5.363.196.07 2.02 6.769-.224zM119.639 51.137c-.262.036-.529-.002-.77-.111-.186-.101-.317-.281-.356-.49l-.154.077-.16.084c-.347.194-.746.272-1.14.224-.296-.095-.517-.345-.574-.65-.105-.243-.105-.52 0-.762.188-.292.477-.504.811-.594.974-.4 1.896-.914 2.748-1.531.985-.727 1.905-1.539 2.748-2.426.284-.287.666-.457 1.07-.475.424-.006.836.14 1.161.412.966.822 1.995 1.568 3.077 2.23.975.598 2.03 1.054 3.132 1.356.128.038.25.092.364.161.12.07.224.162.307.273.09.11.149.243.168.384.025.168.006.339-.056.496-.133.35-.286.56-.468.63-.267.052-.544.018-.79-.098-.168-.056-.35-.12-.56-.175-.184-.05-.364-.112-.538-.189-.018.234-.129.45-.308.601-.228.187-.516.286-.81.28l-3.231.119.049 1.293 5.09-.189c.285-.032.573.024.825.16.196.16.303.405.287.658 0 .622-.329.95-1.049.971l-1.077.042c.16.11.27.279.308.469.019.29-.044.581-.182.838h0c-.174.415-.373.819-.594 1.21-.196.35-.399.699-.616 1.034l2.874-.105c.288-.036.58.023.832.168.184.185.281.439.266.699 0 .615-.322.93-1.028.958l-13.285.496c-.7 0-1.028-.273-1.056-.888-.032-.252.044-.506.21-.699.224-.163.498-.244.776-.23l2.629-.098c-.189-.51-.357-.923-.497-1.237-.145-.33-.313-.65-.503-.958-.163-.215-.269-.467-.308-.734-.01-.21.075-.412.231-.552h-.986c-.287.034-.577-.027-.825-.175-.205-.172-.314-.432-.294-.699-.029-.257.059-.513.238-.699.235-.172.52-.258.811-.245l4.993-.188-.091-1.237-3.7.111zm4.027-4.396c-.466.466-.976.906-1.53 1.32-.546.441-1.106.854-1.672 1.252l7.496-.273c-.644-.342-1.266-.699-1.874-1.111-.609-.412-1.175-.818-1.706-1.244-.087-.103-.216-.16-.35-.154-.144.02-.274.096-.364.21h0zm-1.398 10.38c.037.09.067.184.09.28.03.079.05.16.064.244l1.16-.042-.132-3.495-2.552.09.09.127c.034.045.062.094.084.146.147.287.28.532.385.755.105.224.203.42.287.615.083.196.174.399.258.609.084.21.175.412.266.67h0zm5.594-2.677c.05-.193.138-.373.259-.532l-2.713.098.125 3.495h.665c.07-.281.21-.54.405-.755.282-.38.541-.777.776-1.188.204-.353.366-.728.483-1.118h0zM144.392 52.647c-.273.3-.504.538-.7.7-.151.142-.323.262-.51.356-.121.066-.26.096-.398.083-.125-.023-.243-.075-.343-.153-.181-.116-.29-.317-.287-.532.008-.277.145-.536.37-.698.328-.263.605-.583.819-.944-.158-.03-.31-.082-.455-.154-.138-.066-.261-.158-.363-.273-.096-.114-.176-.241-.238-.377-.063-.146-.098-.302-.105-.461-.005-.186.023-.37.084-.545.064-.19.158-.367.28-.525.128-.146.289-.26.468-.335.185-.086.384-.133.588-.14.204-.004.407.027.601.09.408.147.737.456.909.854.102.239.16.495.168.754.009.852-.31 1.675-.888 2.3zM158.852 57.61c.032.272-.038.545-.196.769-.15.169-.368.263-.594.258-.242.04-.487-.041-.657-.216-.152-.22-.228-.482-.217-.748l-.224-6.102c-.203.363-.406.559-.601.6-.228.035-.459-.034-.63-.188-.265-.113-.45-.357-.49-.643.028-.396.145-.781.343-1.125.477-.884.84-1.823 1.084-2.796.251-1.024.438-2.063.56-3.11.03-.323.115-.637.251-.93.154-.23.428-.347.7-.3.699.041.972.551.832 1.537-.14.985-.329 1.81-.532 2.621l.37 10.373zm10.635-4.488c-.182.14-.321.196-.42.168-.104 0-.23-.14-.363-.363-.133-.224-.35-.524-.49-.7-.14-.174-.272-.37-.398-.516-.273-.322-.294-.602-.077-.84l.084-.07.084-.062-2.391.084.174.147.161.146c.101.09.164.215.175.35-.009.161-.065.317-.16.447-.052.131-.17.224-.308.245-.12 0-.28-.084-.469-.28l-.266-.244-.251-.224c-.098-.075-.18-.168-.245-.273-.032-.085-.032-.18 0-.265l-3.426.126c-.07 0-.105.055-.105.167v.755c.028.202-.069.4-.245.503-.15.089-.317.141-.49.154-.178.006-.355-.03-.517-.105-.179-.098-.283-.293-.266-.496v-.699c-.014-.233-.014-.466 0-.699.016-.155.069-.303.154-.433.076-.103.18-.181.301-.224.154-.048.314-.074.475-.077h.7l-.112-2.97c-.053-.421.051-.847.293-1.196.24-.257.58-.397.93-.384l1.902-.077.084-.37-3.971.146c-.166.013-.329-.045-.448-.16-.122-.123-.19-.289-.189-.462-.022-.175.034-.352.154-.482.117-.112.272-.174.434-.175l9.628-.356c.163-.013.324.04.448.146.128.127.197.303.188.483 0 .42-.174.636-.573.65l-4.363.16-.098.378 2.797-.105c.32-.052.642.07.846.322.185.363.274.767.259 1.174l.112 2.97h.342c.337-.038.674.072.923.301.218.261.337.59.336.93.01.16.01.322 0 .482-.02.165-.053.329-.098.49-.038.21-.182.386-.381.466-.2.08-.425.051-.598-.075-.17-.055-.313-.172-.399-.329-.052-.166-.052-.344 0-.51.08-.252.1-.405.063-.461-.037-.056-.128-.084-.272-.084h-.7l.126.09.105.099c.112.132.21.244.28.342.07.098.147.189.21.28.063.09.118.195.181.293l.238.357c.124.164.197.36.21.566-.022.18-.128.338-.287.426l-.02-.077zm-9.209 5.418c-.208.081-.444.04-.613-.107-.17-.146-.243-.375-.19-.592 0-.392.216-.609.698-.657.644-.089 1.28-.187 1.91-.294.629-.107 1.223-.233 1.782-.377-.251-.168-.538-.364-.846-.602-.307-.237-.615-.475-.916-.699-.251.196-.496.37-.734.532-.222.155-.456.293-.7.412-.607.315-.992.252-1.132-.182-.082-.161-.069-.355.035-.503.185-.169.395-.308.622-.412.368-.167.723-.358 1.063-.574-.091-.164-.106-.36-.042-.538.054-.134.135-.255.238-.356.133-.102.294-.16.462-.168.175-.015.35.038.489.147l.21-.196c.07-.07.136-.144.196-.224-.213-.234-.324-.543-.308-.86v-.642c-.023-.163.023-.327.126-.455.135-.094.297-.14.461-.133.162-.027.328.01.462.105.092.125.137.279.126.434v.342c0 .083.026.165.077.23.041.057.153.092.342.092h.916c.298-.007.595-.035.888-.084.138-.007.269-.061.37-.154.117-.18.171-.394.155-.608-.017-.128.03-.256.125-.343.145-.073.307-.107.469-.097.159-.022.318.035.426.153.11.186.152.403.12.615.02.384-.064.766-.245 1.105-.21.244-.51.392-.832.412-.41.072-.823.116-1.238.133h-1.294l-.105.126-.111.126 4.573-.168c.818 0 1.237.224 1.258.762.01.203-.053.403-.175.566-.167.204-.35.396-.545.573-.462.4-.972.74-1.517 1.014.466.098.932.181 1.398.251.521.08 1.047.126 1.573.14.244-.012.486.044.7.16.147.135.21.339.16.532 0 .329-.125.524-.3.594-.244.078-.502.1-.755.063-.821-.066-1.638-.173-2.448-.321-.71-.13-1.41-.308-2.097-.532-.798.315-1.618.568-2.455.755-.933.222-1.878.386-2.832.49v.014zm1.713-7.403c.19.091.287.196.301.322 0 .202-.048.4-.14.58-.12.28-.233.531-.335.755-.123.249-.273.483-.448.699-.11.166-.276.288-.468.342-.18.034-.363-.04-.469-.188-.096-.082-.15-.203-.147-.329.034-.15.103-.289.203-.405.165-.223.314-.457.448-.7.113-.204.212-.416.293-.635.054-.19.17-.354.329-.469.14-.06.298-.054.433.014v.014zm.294-4.242l5.328-.203v-.322c0-.105-.056-.16-.154-.153l-5.069.188h-.098c-.01.051-.01.103 0 .154l-.007.336zm.056 1.446l5.328-.195v-.518l-5.328.196v.517zm.049 1.398l5.328-.202v-.462l-5.328.196v.468zm1.273 5.159l.972.573c.278.163.565.31.86.44.308-.129.609-.273.902-.433.286-.154.58-.315.86-.49.147-.09.21-.153.182-.181-.028-.028-.126-.049-.287-.042l-3.49.133zM183.2 44.518v.699l3.747-.14c.405-.055.814.059 1.133.315.269.309.409.709.391 1.118l.084 2.244c.07.457-.075.92-.391 1.258 0 0 0 0 0 0h0c.294.25.572.518.832.804.287.307.538.594.762.867.213.202.336.482.343.775-.014.218-.12.42-.294.553-.175.149-.4.226-.63.216-.223 0-.468-.195-.74-.538l-.133-.168c-.048-.057-.1-.11-.154-.16l-12.377.6c-.203-.012-.397-.09-.552-.223-.16-.13-.244-.333-.224-.538-.024-.213.025-.428.14-.608.163-.155.384-.234.608-.217l5.888-.266v-.594l-4 .147c-.408.067-.826-.045-1.146-.308-.24-.337-.359-.746-.336-1.16l-.084-2.244c-.056-.408.044-.822.28-1.16.299-.265.691-.4 1.09-.377l4-.147v-.7l-5.831.218c-.31.014-.601-.15-.75-.422-.149-.272-.13-.605.05-.858.17-.15.396-.224.623-.202l5.831-.217v-.196c-.039-.23.034-.467.196-.636.192-.128.42-.192.65-.181.228-.026.458.02.658.132.172.16.26.39.237.622v.196l5.594-.21c.224-.029.45.026.637.154.137.153.21.354.202.56 0 .496-.244.754-.783.775l-5.552.217zm-5.105 10.163c-.196.448-.392.86-.595 1.23-.227.416-.489.81-.783 1.182-.166.244-.414.42-.699.496-.241.032-.485-.04-.669-.2-.184-.159-.292-.389-.296-.632.023-.267.145-.517.343-.699.258-.292.492-.606.699-.936.193-.294.352-.608.475-.937.245-.7.637-.888 1.175-.657.28.119.44.28.469.475.023.238-.013.478-.105.7l-.014-.022zm-.217-7.297l3.678-.133v-.615l-3.216.119c-.203 0-.33.049-.385.126-.054.1-.076.215-.063.328l-.014.175zm.049 1.398c-.013.129.027.258.112.356.114.06.243.081.37.063l3.217-.119v-.657l-3.678.133-.021.224zm9.468 6.158c.017.36.003.72-.042 1.076-.023.254-.117.497-.273.7-.16.177-.365.308-.594.377-.324.097-.657.162-.993.195l-1.05.063-1.265.056h-2.272c-.35-.016-.699-.06-1.042-.133-.224-.043-.432-.147-.601-.3-.147-.153-.246-.345-.287-.552-.058-.302-.09-.609-.098-.916l-.056-1.566c-.034-.231.05-.465.224-.622.165-.133.368-.209.58-.217.224-.018.447.044.63.175.174.15.27.372.258.601l.056 1.552c-.01.146.053.287.168.378.223.083.461.118.7.104H183.156l1.042-.042.79-.055c.243.006.484-.05.7-.161.118-.091.167-.273.146-.566-.048-.229.013-.466.165-.643s.378-.273.611-.26c.205-.015.407.053.56.19.145.152.225.355.224.566h0zm-2.986-.65c.09.207.135.43.133.657 0 .195-.14.356-.392.496h0c-.19.127-.43.153-.643.07-.205-.108-.366-.283-.455-.496-.075-.175-.163-.343-.265-.504-.077-.118-.196-.286-.357-.496-.343-.461-.3-.832.119-1.118.15-.113.33-.176.517-.182.226.04.425.175.546.37l.454.63c.13.178.237.37.322.573h.02zm-1.126-7.689v.608l3.496-.126v-.174c.009-.122-.035-.241-.119-.329-.115-.081-.258-.114-.398-.09l-2.979.111zm3.538 1.678l-3.496.125v.7l2.972-.113c.148.016.295-.027.412-.118.062-.1.09-.219.077-.336l.035-.258zm0 2.62c-.133-.158-.18-.372-.126-.572l-3.258.125v.58l3.384-.132zm3.37 5.648c-.16.162-.38.255-.608.26-.255-.049-.474-.211-.594-.441-.266-.392-.504-.7-.7-1.02-.236-.307-.488-.6-.755-.882h0c-.211-.182-.36-.427-.426-.698-.005-.262.096-.514.28-.7.152-.148.36-.226.573-.216.24.026.459.147.608.335.315.336.602.657.853.972.252.314.532.699.826 1.118.168.193.253.444.237.7-.025.215-.142.408-.321.53l.028.042zM209.77 56.324c-.329.517-.846.531-1.566.042-.41-.314-.802-.65-1.175-1.007-.39-.384-.75-.798-1.077-1.237-.37.505-.79.973-1.251 1.398-.436.4-.904.765-1.399 1.09-.308.239-.68.38-1.07.406-.264-.054-.483-.238-.58-.49-.074-.133-.12-.28-.133-.433-.463.497-1.118.77-1.797.748-.251.014-.504.014-.755 0l-.7-.09c-.315-.024-.612-.158-.838-.378-.158-.254-.186-.568-.077-.846.084-.364.216-.573.398-.643.264-.07.54-.07.804 0 .182.035.371.07.56.09.181.018.364.018.545 0 .178.007.34-.1.406-.265.094-.266.155-.543.182-.825 0-.223.042-.545.048-.95.007-.406 0-.853 0-1.328v-1.398c0-.448-.041-.902-.062-1.251.003-.079-.016-.157-.056-.224-.074-.044-.161-.059-.245-.042l-1.986.07c.03.988.008 1.977-.063 2.963-.054.722-.17 1.438-.35 2.14-.14.541-.339 1.067-.594 1.565-.238.443-.514.864-.825 1.258-.56.741-1.09.825-1.573.238-.171-.19-.243-.448-.196-.7.073-.303.209-.589.399-.838.227-.336.432-.686.615-1.048.21-.446.366-.915.461-1.398.136-.668.217-1.346.245-2.027.05-.804.05-1.81 0-3.013l-.09-2.586-1.07.042c-.252.03-.504-.042-.7-.203-.167-.193-.253-.444-.238-.699-.027-.244.03-.49.161-.699.187-.18.442-.269.7-.245l2.733-.104c-.027-.066-.06-.13-.097-.19-.042-.062-.077-.125-.112-.188-.18-.232-.241-.534-.168-.818.112-.25.326-.44.587-.524.235-.122.514-.122.748 0 .228.136.409.338.518.58.084.168.16.343.23.525.07.181.147.37.231.573l2.05-.077c.248-.035.5.033.698.189.151.2.228.448.217.699.027.248-.04.498-.189.698-.186.18-.44.273-.699.252l-3.776.14.056 1.65 1.972-.077c.356-.019.713-.019 1.07 0 .22.003.437.068.622.188.026-.051.057-.1.091-.146l.105-.147c.176-.274.33-.562.461-.86.15-.342.28-.692.392-1.048.112-.37.217-.755.294-1.14.082-.382.138-.77.168-1.16-.006-.335.09-.663.272-.944.187-.177.443-.264.7-.237.28-.022.558.077.762.272.174.292.225.642.14.972l-.07.629 3.65-.133c.251-.04.508.034.699.203.154.199.231.447.217.699.033.246-.027.495-.168.699-.183.186-.44.279-.7.251h-.062c-.042.91-.105 1.734-.19 2.475-.09.74-.195 1.398-.32 2.027-.12.56-.269 1.113-.448 1.656-.164.477-.355.944-.574 1.398.338.493.712.96 1.119 1.398.36.376.751.722 1.168 1.035.286.177.515.435.657.74.047.23.008.47-.112.672v-.014zm-7.629-2.195c0 .21-.041.398-.07.573-.03.165-.07.329-.118.49l.112-.07.104-.07c.547-.353 1.062-.753 1.539-1.196.442-.431.834-.912 1.167-1.433-.355-.679-.668-1.379-.936-2.096-.299-.794-.544-1.607-.735-2.433-.125.231-.317.42-.552.538-.196.077-.413.077-.608 0 .007.058.007.117 0 .175v.182c0 .412.042.88.056 1.398.014.517 0 1.048 0 1.558v1.398c0 .42.041.783.027.986h.014zm2.315-9.087c-.008.016-.008.034 0 .05.162 1.026.382 2.044.657 3.047.214.768.47 1.525.77 2.264.49-1.775.763-3.603.81-5.445l-2.237.084zM219.692 52.591c-.356.455-.699.86-1.035 1.202-.335.343-.657.658-.979.937-.321.28-.629.517-.93.7-.3.18-.594.418-.888.6-.33.254-.737.387-1.153.378-.31-.05-.572-.253-.7-.539-.153-.25-.203-.551-.14-.838.07-.259.33-.51.777-.748.76-.427 1.465-.946 2.097-1.545.637-.605 1.21-1.275 1.707-2 .489-.712.899-1.476 1.223-2.278.299-.746.496-1.529.588-2.327l-5.538.202c-.298.043-.6-.046-.825-.244-.176-.191-.275-.44-.28-.7-.028-.264.053-.529.224-.733.218-.2.508-.303.804-.287l5.594-.21-.091-2.376c-.037-.29.032-.583.196-.825.196-.188.462-.287.734-.272.285-.034.572.04.804.21.201.222.305.517.287.817l.09 2.37 5.147-.19c.316-.041.636.039.895.225.346.422.366 1.023.049 1.467-.232.223-.548.335-.867.308l-5.14.196c.59 1.625 1.44 3.143 2.518 4.494.959 1.173 2.099 2.185 3.377 2.999.22.135.424.295.608.475.123.123.218.27.28.433.043.137.043.283 0 .42-.036.154-.097.3-.182.433-.087.138-.193.262-.315.37-.105.09-.233.145-.37.161-.178.011-.356-.022-.518-.097-.258-.108-.505-.244-.734-.406-1.162-.793-2.217-1.733-3.14-2.796-.91-1.067-1.69-2.24-2.32-3.495-.223.635-.491 1.251-.805 1.846-.294.587-.646 1.144-1.049 1.663zM238.32 54.779c.035.25-.036.504-.196.699-.153.14-.352.219-.56.224-.204.01-.405-.055-.566-.182-.185-.183-.28-.44-.258-.699l-.056-1.587c-.399.154-.79.3-1.175.434l-1.189.398c-.281.126-.597.15-.895.07-.196-.09-.328-.322-.405-.699-.061-.22-.036-.455.07-.657.222-.233.51-.394.825-.461l-.37-9.262h-.113c-.21.011-.415-.059-.573-.196-.182-.172-.281-.413-.273-.664-.03-.25.04-.5.196-.699.15-.159.361-.247.58-.244l4.377-.161c.252-.046.511.03.7.203.15.183.226.414.216.65 0 .582-.258.89-.776.922l.44 11.911zm-3.09-10.086h1.132l-.063-1.699-1.133.042.063 1.657zm.132 3.62l1.133-.041-.07-1.888-1.133.042.07 1.887zm.133 3.495l.545-.195.574-.238-.056-1.398-1.126.042.063 1.79zm3.776-.699c-.005-.212.088-.416.252-.552.182-.078.384-.1.58-.063.215.017.399.164.461.37.052.273.052.553 0 .826-.042.307-.077.573-.105.803-.027.231-.062.448-.097.643-.035.196-.077.392-.112.58-.035.19-.084.392-.14.609-.042.223-.152.428-.315.587-.163.109-.369.132-.552.063-.206-.059-.373-.208-.455-.406-.054-.296-.035-.6.056-.887.098-.448.182-.86.245-1.23.063-.371.133-.825.182-1.343h0zm5.51.392c.087.208.137.43.147.657 0 .189-.12.335-.364.454-.16.115-.364.149-.552.091-.162-.088-.283-.236-.336-.412-.07-.14-.126-.266-.182-.37-.056-.106-.105-.21-.154-.308l-.167-.315-.21-.405c-.178-.268-.207-.608-.077-.902l-2.056.077c-.263.024-.527.024-.79 0-.183-.028-.354-.111-.49-.238-.126-.14-.21-.311-.244-.496-.052-.277-.08-.557-.084-.839l-.203-5.41c-.023-.277-.023-.555 0-.832.02-.359.294-.652.65-.699.27-.055.544-.086.818-.09h1.084c.05-.168.091-.315.14-.462.05-.147.07-.265.091-.37.015-.238.15-.452.357-.568.208-.116.46-.118.67-.005.234.047.442.176.588.363.083.24.083.5 0 .74-.02.038-.031.078-.035.12-.011.04-.03.078-.056.112l2.44-.091c.233-.02.467-.02.7 0 .162.01.315.077.433.188.12.136.201.3.238.476.058.28.09.566.098.852l.196 5.41c.023.29.023.579 0 .867-.02.185-.082.362-.182.518-.105.124-.247.212-.406.251-.23.05-.464.076-.699.077l-2.181.084c.084.154.153.3.216.426s.126.245.19.357c.062.112.111.23.174.35l.238.342zm-3.972-8.675c-.071-.006-.142.017-.196.063-.042 0-.056.12-.056.252l.19 5.089c0 .153.034.244.076.28.052.04.117.057.182.048l4.65-.168c.08-.016.15-.067.189-.14.064-.088.094-.198.083-.307l-.181-5.005c.003-.088-.014-.177-.05-.258 0-.042-.09-.063-.188-.056l-4.699.202zm4.44 2.608c-.062.097-.13.19-.203.28l-.244.286.196.189.174.174c.228.176.393.422.469.7.002.179-.074.35-.21.468-.117.178-.327.274-.538.244-.276-.113-.516-.296-.7-.531-.044-.043-.082-.092-.111-.147-.041-.056-.088-.108-.14-.154l-.504.504-.524.489c-.15.156-.346.261-.56.3-.2.013-.39-.09-.49-.265-.23-.3-.104-.643.365-1.014l.447-.398c.154-.14.3-.287.448-.44l-.238-.245c-.077-.077-.161-.16-.252-.238l-.203.196c-.077.07-.15.144-.216.224-.441.391-.798.426-1.063.105-.266-.322-.126-.643.35-1.049.045-.046.094-.088.146-.126.053-.045.102-.094.147-.146-.063-.062-.13-.118-.203-.168l-.182-.154c-.228-.142-.403-.356-.496-.608-.031-.18.032-.362.168-.482.116-.158.294-.26.49-.28.227.04.435.153.594.322l.216.21.252.223c.063-.084.126-.175.196-.259.07-.084.126-.174.189-.272.095-.183.258-.32.454-.385.166-.041.342-.003.476.105.15.1.239.268.237.447-.014.204-.09.4-.216.56-.15.213-.311.419-.483.615.091.07.168.147.245.216l.224.217c.063-.084.119-.168.181-.245l.161-.237c.1-.186.272-.322.476-.378.173-.034.351.015.482.133.15.1.237.269.231.447-.027.207-.11.403-.238.567h0zm1.245 6.892c.03.465.03.932 0 1.398-.02.292-.093.58-.217.845-.096.193-.254.347-.447.44-.223.09-.46.142-.7.154-.398 0-.804.063-1.216.077-.413.014-.881 0-1.399 0-.438.02-.85-.21-1.063-.594-.215-.54-.324-1.117-.321-1.698l-.063-1.699c-.035-.255.047-.511.224-.699.293-.311.781-.33 1.097-.042.177.172.273.41.266.657l.056 1.58c-.014.214.034.428.14.615.102.114.253.17.405.154h.916c.217 0 .413 0 .602-.063.152-.006.287-.102.342-.245.051-.27.065-.544.042-.817 0-.7.19-1.042.658-1.063.193-.016.382.065.503.217.135.227.196.491.175.755v.028zm1.3-1.587c.133.35.252.699.371 1.097.119.399.245.79.378 1.238.09.236.114.492.07.74-.077.212-.24.382-.448.469-.224.126-.392.14-.524 0-.165-.172-.281-.384-.336-.615-.07-.224-.14-.427-.203-.601-.063-.175-.119-.343-.168-.51-.049-.168-.118-.336-.181-.511s-.14-.37-.224-.58c-.12-.255-.172-.537-.154-.818.042-.232.204-.424.427-.503.184-.084.396-.084.58 0 .206.128.354.33.412.566v.028zM258.31 50.39c.057.45-.041.906-.279 1.293-.3.313-.727.475-1.16.44l-2.525.09c-.427.073-.863-.056-1.181-.349-.26-.372-.388-.82-.364-1.272l-.308-8.388c-.057-.455.036-.917.266-1.314.305-.3.726-.453 1.154-.42l2.524-.097c.426-.065.86.057 1.189.336.265.377.396.832.37 1.293l.315 8.387zm-2.097-7.83c.005-.077-.012-.154-.049-.223 0 0-.105-.049-.223-.042l-1.448.056c-.068-.006-.135.014-.189.056-.035 0-.049.105-.049.224l.091 2.474 1.958-.077-.09-2.467zm-1.678 7.515c0 .119 0 .189.056.217.064.019.132.019.196 0l1.496-.056c.091 0 .147 0 .168-.05.036-.06.049-.132.035-.202l-.112-3.068-1.95.07.111 3.089zm9.09 2.188c.289.092.583.167.881.223.164.032.333.032.497 0 .098-.021.177-.093.21-.188.03-.11.042-.223.034-.336l-.09-2.418-3.748.14c-.071.473-.176.94-.315 1.397-.13.418-.3.823-.504 1.21-.2.372-.435.725-.699 1.055-.282.351-.588.683-.916.993-.132.128-.28.238-.44.328-.15.086-.313.145-.483.175-.155.028-.314.014-.461-.042-.159-.064-.295-.174-.392-.315-.168-.216-.245-.489-.217-.761.077-.298.255-.56.504-.741.392-.325.746-.693 1.056-1.098.301-.39.537-.827.699-1.293.177-.53.292-1.079.343-1.635.068-.697.087-1.398.055-2.097l-.195-5.215c-.02-.299-.003-.6.049-.894.03-.209.125-.402.272-.553.146-.143.331-.24.532-.28.276-.057.557-.088.839-.09l3.86-.147c.282-.017.566-.003.846.042.203.03.394.114.552.245.15.146.254.333.3.538.07.296.107.598.113.902l.391 10.575c.084.604-.066 1.216-.42 1.713-.323.35-.762.574-1.237.629l-.58.063c-.189.013-.378.013-.567 0-.213-.022-.426-.055-.636-.098-.253-.054-.503-.122-.748-.203-.28-.058-.522-.234-.665-.482-.104-.239-.104-.51 0-.748.065-.27.243-.497.49-.622.275-.1.578-.09.846.028h-.056zm-2.21-8.52l3.497-.134-.056-1.454c.015-.163-.022-.327-.105-.468-.063-.07-.224-.098-.483-.09l-2.405.09c-.158-.014-.317.02-.454.098-.063.056-.084.21-.077.454l.084 1.503zm.12 3.082v.999l3.558-.133-.083-2.208-3.497.132.021 1.21zM273.995 53.556c-.095.336-.325.617-.637.776-.273.102-.58.068-.825-.091-.26-.09-.465-.297-.552-.56-.044-.34.03-.685.21-.978.189-.426.342-.825.468-1.202.134-.416.234-.841.3-1.272.085-.542.132-1.088.14-1.636v-2.272l-.195-5.123c-.057-.45.044-.904.287-1.286.339-.301.785-.453 1.237-.42l9.887-.35c.462-.051.927.06 1.315.315.334.334.507.795.475 1.266l.399 10.932c.066.552-.09 1.107-.434 1.544-.431.395-1.003.599-1.587.567-.3.01-.6-.014-.895-.07l-1.202-.259c-.292-.048-.548-.222-.7-.475-.126-.21-.166-.46-.112-.7.04-.283.198-.536.434-.698.331-.139.704-.139 1.035 0h0c.342.09.601.16.783.195.173.034.349.048.524.042.126 0 .19-.077.182-.23l-.09-2.377-3.714.14.14 3.684c.053.277-.046.562-.259.748-.209.133-.45.206-.699.21-.26.02-.523-.034-.755-.155-.206-.171-.318-.43-.3-.699l-.133-3.683-3.72.133c0 .405-.07.775-.126 1.125-.056.35-.126.699-.21.993-.084.293-.189.629-.3.936-.113.308-.238.636-.378.965l.007-.035zm.937-10.072l3.552-.133-.077-2.097-3.063.112c-.21 0-.335.056-.391.14-.07.192-.094.397-.07.6l.049 1.378zm.105 2.712v1.454l3.566-.133-.077-2.23-3.517.147.028.762zm5.39-4.998l.078 2.097 3.713-.14-.05-1.356c.014-.207-.025-.413-.111-.601-.063-.077-.203-.112-.434-.105l-3.195.105zm.231 6.228l3.713-.133-.077-2.23-3.72.14.084 2.223z" transform="translate(39.157 52.423)"/>
            <path fill="#FFF" d="M75.86 15.762c.331-.026.664.034.965.175.265.155.42.448.398.755.04.32-.09.637-.342.838-.275.2-.605.305-.944.301l-12.908.482c-.336.023-.671-.052-.965-.216-.262-.18-.413-.48-.399-.797-.042-.309.09-.616.343-.797.278-.171.597-.263.923-.266l4.993-.181c-.075-.185-.113-.382-.112-.58-.003-.176.03-.35.098-.51l-2.797.104c-.608.07-1.22-.098-1.706-.468-.462-.567-.683-1.293-.616-2.02l-.105-2.845c-.024-.44 0-.88.07-1.314.044-.3.173-.582.37-.811.191-.2.433-.343.7-.413.338-.091.685-.14 1.035-.146l8.23-.3c.648-.098 1.307.074 1.825.474.429.59.635 1.314.58 2.041l.105 2.838c.117.73-.04 1.476-.44 2.097-.488.425-1.124.638-1.77.594l-2.978.112c.08.151.15.308.21.469.073.205.16.406.258.6l4.979-.216zM64.546 26.121c.14-.346.436-.605.797-.7.362-.069.736.006 1.042.21.37.15.583.538.51.93-.088.42-.246.821-.468 1.188-.31.562-.66 1.099-1.049 1.608-.369.458-.76.897-1.174 1.314-.308.263-.694.418-1.098.44-.448.024-.862-.236-1.035-.65-.161-.323-.161-.703 0-1.027.186-.338.422-.647.7-.916l.93-1.055c.334-.412.618-.863.845-1.342zm1-.958c-.348.017-.697-.002-1.042-.056-.257-.035-.499-.142-.699-.307-.2-.172-.349-.398-.426-.65-.11-.358-.17-.73-.175-1.105l-.05-1.398c-.022-.379.004-.76.078-1.132.053-.258.17-.499.342-.699.195-.186.437-.314.7-.37.337-.078.681-.12 1.027-.126l8.391-.315c.58-.047 1.161.085 1.664.378.504.455.763 1.12.7 1.796l.049 1.398c.117.642-.063 1.303-.49 1.796-.495.34-1.085.512-1.685.49l-2.28.084.14 3.767c.066.698-.125 1.397-.538 1.964-.58.54-1.368.795-2.154.7-.427.01-.855-.014-1.28-.07-.33-.048-.657-.13-.971-.245-.315-.1-.571-.332-.7-.636-.112-.31-.112-.649 0-.958.025-.328.197-.626.469-.81.3-.1.623-.1.923 0 .35.143.733.181 1.105.111.203-.077.293-.294.28-.643l-.112-3.131-3.266.167zM72.72 9.157c0-.266-.112-.399-.307-.392l-6.685.252c-.079-.007-.157.013-.224.056-.056.097-.076.21-.056.321v.853l7.328-.273-.056-.817zm.091 2.467l-7.307.259v.769c0 .244.168.363.469.349l6.398-.238c.123.007.246-.02.356-.077.077-.048.112-.167.105-.363l-.02-.699zm.37 9.898c.014-.138-.02-.277-.097-.392-.075-.06-.17-.088-.266-.077l-6.615.252c-.244 0-.363.16-.35.461v.853c0 .315.14.468.392.461l6.503-.237c.196 0 .315-.056.37-.14.061-.146.083-.305.064-.461v-.72zm1.805 7.884l-1-1.097c-.259-.28-.497-.525-.7-.7-.321-.254-.554-.604-.664-.999-.075-.347.066-.705.357-.909.205-.264.526-.413.86-.398.315.066.6.233.811.475.462.42.832.79 1.105 1.084.273.293.573.65.895 1.048.206.204.347.464.406.748.108-.158.233-.306.37-.44.169-.167.354-.317.553-.448.517-.391 1.02-.81 1.524-1.265.53-.487 1.035-1.003 1.51-1.544.51-.574 1.028-1.224 1.56-1.93.53-.706 1.076-1.523 1.629-2.425.226-.493.575-.919 1.014-1.237.378-.19.824-.19 1.202 0 .443.152.776.522.881.978.076.609-.081 1.223-.44 1.72-.602 1.016-1.196 1.929-1.783 2.74-.56.769-1.16 1.509-1.797 2.216-.587.656-1.21 1.28-1.867 1.866-.652.58-1.338 1.119-2.056 1.614-.38.314-.857.487-1.35.49-.463-.072-.86-.371-1.055-.797-.129-.211-.2-.452-.21-.7 0 .043 0 .064-.056.07l-.077.07c-.203.226-.493.354-.797.35-.33-.088-.616-.295-.804-.58h-.021zm9.985-23.31c.434.212.748.61.853 1.083-.05.611-.316 1.186-.748 1.621-.73.95-1.524 1.85-2.378 2.691-.898.882-1.864 1.693-2.887 2.426-.435.372-.966.614-1.532.699-.482.015-.926-.26-1.126-.7-.31-.35-.413-.839-.272-1.285.26-.436.625-.8 1.063-1.056.946-.618 1.835-1.32 2.657-2.097.736-.708 1.395-1.493 1.965-2.341.314-.512.748-.94 1.265-1.245.402-.13.842-.045 1.168.224l-.028-.02zm.552 6.891c.433.23.73.654.797 1.14-.069.563-.313 1.092-.699 1.51-.829 1.107-1.766 2.13-2.797 3.054-.989.915-2.066 1.73-3.216 2.432-.446.363-1.027.516-1.594.42-.845-.315-1.287-1.243-1-2.097.246-.388.594-.7 1.006-.902 1.019-.568 1.975-1.24 2.853-2.006.896-.796 1.684-1.705 2.343-2.705.265-.461.659-.835 1.133-1.077.412-.126.86-.04 1.195.231h-.02zM118.807 14.518c.031.37-.062.738-.266 1.048-.292.314-.712.476-1.14.44l-22.375.825c-.424.076-.858-.057-1.168-.356-.21-.299-.32-.656-.315-1.02-.036-.382.047-.766.238-1.098.285-.325.71-.491 1.14-.447l5.041-.182c-.097-.247-.188-.492-.272-.734-.091-.245-.196-.496-.315-.762-.188-.375-.284-.79-.28-1.21.002-.296.126-.58.343-.782l-3.293.119c-1.007.035-1.532-.42-1.567-1.398-.036-.391.068-.783.294-1.104.305-.313.733-.474 1.168-.44l7.992-.294-.09-.154c-.204-.392-.256-.845-.148-1.272.18-.47.55-.842 1.021-1.02.384-.16.812-.18 1.21-.057.454.215.8.607.958 1.084.077.251.16.468.237.657l.266.657 8.174-.3c1.007-.043 1.532.419 1.567 1.397.04.395-.078.79-.33 1.098-.293.303-.703.463-1.125.44l-2.797.105c.119.213.179.454.175.699-.006.339-.06.675-.16 1-.113.344-.218.673-.315.985-.08.278-.175.551-.287.818l4.936-.182c.426-.069.86.063 1.175.356.22.318.328.699.308 1.084zm-2.797 12.008c.091.736-.085 1.48-.497 2.097-.543.501-1.27.755-2.006.7l-13.782.502c-.73.122-1.476-.082-2.042-.559-.43-.594-.644-1.316-.608-2.048l-.252-6.822c-.105-.7.06-1.415.461-1.999.56-.457 1.274-.68 1.993-.622l13.782-.503c.72-.105 1.452.062 2.056.468.464.542.695 1.246.643 1.957l.252 6.83zm-3.433-6.088c0-.16-.112-.237-.329-.23l-11.887.44c-.252 0-.37.112-.364.307l.05 1.356 12.586-.468-.056-1.405zm.16 4.243l-12.586.468.05 1.49c0 .188.139.286.384.272l11.845-.434c.09.003.18-.02.259-.063.055-.042.076-.132.07-.272l-.022-1.461zm-9.726-11.184v.077c.002.016.002.033 0 .05l5.972-.218c.246-.443.443-.911.587-1.398.147-.468.28-.943.405-1.397.05-.263.137-.517.26-.755l-8.601.321c.095.094.175.203.237.322.07.132.126.265.19.405.153.454.307.88.46 1.286.154.406.35.818.504 1.293l-.014.014zM135.28 13.54c.438-.041.876.072 1.238.32.286.307.434.715.413 1.133.057.41-.062.824-.329 1.14-.344.267-.774.4-1.21.377l-5.593.21.258 7.241c-.01.293-.148.566-.377.748-.381.287-.852.43-1.329.405-.465.068-.94-.042-1.328-.307-.23-.166-.379-.419-.413-.7l-.601-16.216c-.067-.426.076-.858.384-1.16.37-.252.812-.38 1.26-.363l8.208-.308c.412-.048.827.057 1.168.294.3.301.465.713.454 1.14.076.423-.057.857-.356 1.166-.342.252-.757.385-1.182.378l-6.426.237.16 4.48 5.602-.216zM144.657 6.836c.002-.35.134-.686.371-.944.343-.347.82-.529 1.308-.496.48-.07.966.065 1.342.37.265.245.42.584.434.944l.363 9.82c.019.679.106 1.353.259 2.014.13.545.368 1.058.7 1.51.312.412.733.729 1.216.915.62.226 1.28.319 1.937.273.646-.001 1.285-.14 1.874-.405.467-.221.864-.567 1.146-1 .292-.469.475-.996.539-1.545.088-.695.117-1.397.084-2.097l-.364-9.785c-.008-.346.111-.682.336-.944.35-.355.838-.539 1.335-.503.483-.064.97.073 1.35.377.26.247.415.585.433.944l.42 11.463c.06.96-.118 1.92-.517 2.796-.377.783-.913 1.478-1.574 2.041-.678.562-1.456.992-2.293 1.265-.865.292-1.767.457-2.678.49-.904.03-1.808-.066-2.685-.287-.856-.214-1.667-.581-2.392-1.084-.716-.5-1.317-1.149-1.762-1.9-.486-.853-.746-1.816-.755-2.797l-.427-11.435zM171.312 22.144c.014.36-.117.71-.363.971-.351.333-.825.506-1.308.476-.487.065-.979-.083-1.35-.406-.253-.24-.408-.567-.433-.916l-.601-16.398c-.017-.308.064-.614.23-.873.168-.266.574-.406 1.21-.434.317-.02.63.083.874.287.213.19.411.396.595.615l8.81 10.974-.434-10.848c0-.349.13-.686.364-.944.343-.352.824-.536 1.314-.503.48-.062.966.074 1.343.377.26.248.416.586.434.944l.608 16.454c.01.295-.073.587-.238.832-.168.251-.56.391-1.182.42-.323.017-.642-.085-.895-.287-.227-.184-.436-.39-.622-.616L170.9 11.66l.412 10.485zM191.268 17.474c-.414.05-.834-.035-1.195-.244-.29-.3-.436-.71-.399-1.126-.05-.4.064-.802.315-1.118.324-.282.745-.428 1.175-.405h.475l-.343-9.213c-.077-.745.088-1.494.469-2.139.495-.579 1.24-.883 2-.818l5.363-.202c.425-.058.858.034 1.223.258.265.3.398.692.371 1.09.072.403-.035.817-.294 1.133-.356.226-.774.333-1.195.308l-4.727.174c-.23 0-.343.112-.336.308l.042 1.14 4.356-.161c.384-.04.77.018 1.126.167.252.133.385.455.406.972.02.517-.091.93-.329 1.097-.335.196-.717.295-1.105.287l-4.356.16.049 1.399 4.195-.161c.391-.04.786.02 1.147.175.238.132.364.454.385.964.02.51-.077.979-.308 1.119-.352.172-.741.253-1.133.237l-4.195.161.056 1.398 4.894-.182c.422-.052.849.034 1.217.245.277.265.423.638.399 1.02.059.434-.054.873-.315 1.224-.33.287-.76.433-1.196.405l-4.013.147c-.154.517-.294.964-.413 1.342-.119.377-.238.734-.356 1.062-.12.329-.245.7-.378 1-.133.3-.266.699-.413 1.09-.059.165-.059.346 0 .51.056.154.182.21.378.168l3.433-.6c-.09-.198-.168-.401-.23-.609-.084-.242-.182-.475-.294-.699-.284-.484-.415-1.041-.378-1.6.088-.396.362-.724.734-.881.366-.232.81-.305 1.231-.203.329.112.65.496.958 1.16.196.448.378.846.538 1.188.161.343.315.658.448.951.133.294.266.601.392.902.125.3.258.65.398 1.034.24.542.312 1.143.21 1.727-.151.44-.497.785-.937.936-.253.078-.52.102-.783.07-.195-.034-.376-.121-.525-.251-.163-.145-.287-.327-.363-.532-.098-.223-.196-.489-.3-.782l-6.294 1.244c-.46.114-.944.102-1.398-.035-.33-.102-.607-.33-.77-.636-.137-.344-.178-.718-.119-1.084.063-.53.209-1.046.434-1.53.378-.867.7-1.671 1.028-2.405.329-.734.601-1.517.874-2.349l-1.329-.007zm14.79 2.328l-.078-2.048-3.027.119c-.384.049-.772-.038-1.098-.245-.24-.225-.367-.545-.35-.873-.046-.345.056-.693.28-.958.314-.227.697-.338 1.084-.315l3.027-.111-.056-1.356-2.6.097c-.432.066-.871-.054-1.21-.328-.217-.246-.341-.56-.35-.888-.04-.336.064-.674.287-.93.338-.256.758-.38 1.181-.349l2.602-.098-.056-1.489-3.532.133c-.957.035-1.447-.342-1.475-1.14-.028-.796.427-1.292 1.399-1.327l3.53-.133-.041-1.46-2.734.097c-.37.062-.747-.04-1.035-.28-.198-.266-.299-.591-.287-.922-.025-.32.053-.638.224-.909.257-.279.63-.421 1.007-.384l2.734-.098-.042-1.251c-.063-.37.05-.746.305-1.02s.623-.414.995-.378c.359-.054.722.053.993.293.231.294.35.661.336 1.035l.014 1.209 1.965-.077c.485-.024.972-.005 1.454.056.333.036.65.161.916.363.238.208.41.48.497.783.113.422.172.857.174 1.293l.056 1.398h.476c.412-.06.832.032 1.182.259.242.258.368.604.35.958.039.326-.063.654-.28.901-.332.253-.745.377-1.161.35l-.448.007.056 1.593c.092.678-.126 1.36-.594 1.86-.663.46-1.46.687-2.266.643l-1.964.07.055 1.356 4.084-.154c.417-.056.84.022 1.21.224.247.238.375.573.35.915.04.332-.064.666-.287.916-.343.247-.761.366-1.182.335l-4.09.154.076 2.041 5.203-.196c.434-.07.878.032 1.237.287.22.272.337.614.329.965.038.33-.066.66-.287.908-.343.246-.76.365-1.182.336l-5.209.196.112 2.893c.053.374-.068.75-.328 1.023-.26.273-.632.411-1.007.375-.355.049-.713-.061-.98-.3-.223-.297-.335-.664-.314-1.035l-.112-2.894-3.559.133c-.383.041-.77-.024-1.119-.188-.238-.14-.377-.497-.412-1.063-.05-.79.391-1.21 1.307-1.244l3.664-.133zm2.097-13.819l.056 1.482 2.258-.056v-.664c0-.356-.09-.58-.223-.699-.267-.114-.559-.155-.846-.119l-1.245.056zm1.398 5.396c.144-.006.287-.024.427-.056.12-.03.228-.099.308-.195.096-.133.16-.286.188-.448.042-.273.063-.548.063-.824l-2.21.083.057 1.482 1.167-.042zM230.614 8.814c.224-.328.448-.699.7-1.062l-6.77.251c-.4.05-.807-.013-1.174-.181-.262-.258-.394-.62-.356-.986 0-.566.07-.93.28-1.083.352-.202.755-.296 1.16-.273l8.097-.3c.08-.19.147-.384.203-.58.056-.19.112-.378.182-.574-1.539.093-3.026.175-4.461.245-1.434.07-2.797.112-4.063.119-.364.023-.73.007-1.09-.05-.224-.034-.436-.117-.623-.244-.144-.108-.243-.265-.28-.44-.048-.23-.076-.464-.084-.7-.027-.331.115-.655.378-.86.57-.287 1.208-.418 1.846-.377 1.79-.048 3.559-.104 5.321-.181 1.762-.077 3.447-.168 5.042-.28 1.594-.112 3.097-.237 4.482-.377 1.384-.14 2.608-.294 3.664-.455.527-.133 1.08-.133 1.608 0 .38.189.632.563.664.986.13.388.05.816-.21 1.132-.457.329-1.003.511-1.566.525-1.11.144-2.291.277-3.545.398-1.252.119-2.573.23-3.95.335l-.19.63c-.062.202-.132.405-.216.608l7.726-.287c.401-.054.81.01 1.175.182.217.14.343.496.364 1.062.02.566-.077.846-.287 1.007-.353.199-.756.29-1.16.265l-8.84.329c-.083.182-.167.363-.258.545-.09.182-.182.35-.259.51l11.153-.412h.7c.166-.001.33.042.475.126.128.09.226.216.28.363.074.226.114.462.118.7 0 .572-.09.922-.321 1.062-.357.173-.75.257-1.147.244l-12.929.476c-.105.146-.23.314-.384.51s-.287.35-.406.482l10.048-.321c.737-.113 1.49.065 2.098.496.445.53.67 1.21.63 1.901l.293 7.277c.097.802-.07 1.614-.476 2.313-.525.56-1.277.848-2.041.783l-12.775.468c-.804.127-1.624-.097-2.252-.615-.493-.654-.74-1.46-.7-2.278l-.202-5.383c-.294.182-.587.37-.895.546l-.923.552c-.489.35-1.077.536-1.678.531-.417-.08-.767-.36-.937-.748-.208-.374-.244-.82-.098-1.223.246-.505.666-.904 1.182-1.125.995-.527 1.955-1.118 2.874-1.769.924-.66 1.79-1.399 2.587-2.209l-5.363.196c-.394.043-.792-.01-1.161-.154-.245-.126-.378-.468-.399-1.034-.016-.247.008-.495.07-.734.041-.152.13-.286.252-.385.135-.09.292-.146.454-.16.196 0 .427-.042.7-.05l7.663-.265zm10.775 5.767c.009-.108-.024-.216-.09-.3-.092-.052-.197-.072-.301-.057l-11.412.42c-.1-.007-.197.034-.262.11-.066.074-.093.176-.073.274l.035.853 12.131-.448-.028-.852zm.112 3.026l-12.152.448.049 1.25 12.145-.433-.042-1.265zm-11.978 4.76c-.008.115.024.229.091.322.087.056.192.079.294.063l11.342-.42c.195 0 .307 0 .356-.076.053-.114.07-.24.05-.364v-.846l-12.14.448.007.873zM8.985 54.632c.202-.015.405.024.588.112.159.102.244.288.216.475.027.192-.05.384-.203.504-.166.12-.367.187-.573.188l-7.852.287c-.205.016-.41-.03-.588-.133-.16-.107-.253-.29-.244-.482-.024-.187.057-.372.21-.482.171-.107.37-.163.573-.161l3.083-.126c-.05-.112-.073-.234-.07-.356.004-.107.028-.21.07-.308l-1.692.063c-.37.046-.742-.057-1.035-.287-.295-.344-.439-.792-.398-1.244l-.098-1.726c-.017-.27-.003-.539.042-.804.028-.18.106-.35.224-.49.114-.12.26-.207.42-.251.205-.053.416-.084.628-.091l5.007-.182c.394-.057.794.047 1.112.287.258.361.381.801.35 1.244l.062 1.754c.071.443-.024.896-.265 1.273-.298.258-.684.388-1.077.363l-1.811.063c.048.093.09.189.126.287.046.126.1.25.16.37l3.035-.147zm-6.887 6.305c.085-.207.265-.36.482-.412.22-.046.45 0 .636.125.213.09.339.31.308.539-.05.26-.145.511-.28.74-.182.345-.395.673-.636.98-.219.28-.452.548-.7.803-.196.165-.442.258-.698.266-.272.002-.52-.154-.637-.399-.097-.196-.097-.426 0-.622.109-.204.248-.39.413-.552l.566-.643c.217-.25.4-.528.546-.825zm.608-.608c-.211.023-.425.023-.636 0-.156-.036-.3-.11-.42-.217-.118-.107-.205-.245-.252-.398-.066-.227-.102-.462-.104-.7v-.838c-.018-.234-.004-.469.042-.699.031-.16.106-.307.216-.426.108-.112.247-.19.399-.224.207-.046.417-.074.63-.084l5.055-.126c.351-.03.703.05 1.007.231.258.168.391.531.412 1.097l.035.84c.067.39-.043.79-.3 1.09-.303.206-.663.311-1.029.3l-1.398.05.084 2.292c.043.423-.074.847-.329 1.188-.347.336-.827.497-1.307.44-.262.003-.524-.01-.783-.042-.2-.033-.397-.084-.588-.153-.193-.06-.351-.2-.433-.385-.07-.187-.07-.393 0-.58.034-.201.16-.375.342-.468.183-.057.378-.057.56 0 .22.09.463.118.699.077.126-.05.182-.182.175-.399l-.07-1.901-2.007.035zm4.377-9.716c0-.158-.063-.235-.189-.23l-4.097.146c-.048 0-.094.014-.133.042V51.284l4.454-.168-.035-.503zm.056 1.503l-4.46.168v.468c0 .147.097.224.279.217l3.894-.147c.075 0 .15-.017.217-.049.042 0 .07-.105.063-.224l.007-.433zm.224 6.025c.006-.086-.016-.172-.063-.245-.047-.033-.104-.048-.16-.041l-4.014.16c-.154 0-.224.105-.217.287v.517c0 .189.084.287.238.28l3.957-.147c.112 0 .189 0 .217-.077.042-.09.057-.189.042-.287v-.447zm1.105 4.767l-.609-.699c-.16-.168-.3-.321-.433-.44-.196-.156-.337-.368-.406-.608-.047-.211.04-.43.217-.552.123-.164.32-.256.524-.245.191.043.364.143.497.286.273.26.496.483.664.7.168.216.35.39.546.636.124.127.209.287.244.46.064-.098.14-.19.224-.272.104-.098.216-.187.336-.265.318-.236.623-.488.916-.755.325-.295.633-.608.923-.937.307-.35.629-.74.95-1.174.322-.434.651-.923.987-1.475.143-.3.362-.558.636-.748.22-.11.479-.11.7 0 .269.093.472.317.538.594.04.37-.054.743-.266 1.049-.37.615-.7 1.167-1.091 1.663-.329.482-.686.944-1.07 1.384-.356.398-.734.776-1.133 1.133-.397.345-.815.668-1.251.964-.232.192-.524.296-.825.294-.28-.042-.52-.224-.637-.483-.08-.13-.126-.28-.132-.433.002.014.002.028 0 .042l-.05.042c-.122.137-.298.216-.482.217-.215-.055-.4-.19-.517-.378zm6.07-14.175c.274.137.466.396.517.699-.03.372-.191.721-.455.985-.445.575-.926 1.122-1.44 1.636-.55.535-1.14 1.028-1.762 1.475-.265.225-.587.37-.93.42-.301.023-.583-.15-.7-.427-.182-.217-.245-.51-.168-.783.16-.265.384-.486.65-.643.583-.382 1.13-.815 1.637-1.293.448-.422.849-.89 1.196-1.398.191-.31.455-.57.769-.755.24-.075.503-.025.7.133l-.015-.05zm.335 4.194c.266.139.447.4.482.699-.04.345-.19.668-.426.922-.5.672-1.064 1.293-1.686 1.853-.602.557-1.257 1.053-1.957 1.481-.27.223-.622.315-.965.252-.249-.082-.452-.265-.56-.503-.128-.242-.146-.527-.049-.783.148-.235.359-.424.609-.545.62-.344 1.202-.754 1.734-1.223.538-.482 1.008-1.035 1.398-1.643.166-.281.409-.51.7-.657.253-.066.522-.003.72.168v-.021zM35.102 53.877c.03.224-.02.452-.14.643-.178.195-.437.296-.7.273l-13.6.503c-.254.04-.512-.04-.699-.216-.133-.183-.202-.404-.196-.63-.032-.242.02-.49.147-.698.173-.202.436-.302.7-.266l3.069-.119c-.063-.147-.119-.293-.175-.447-.056-.154-.112-.3-.182-.462-.112-.216-.172-.455-.174-.699.006-.18.081-.35.21-.475l-2.007.07c-.609 0-.93-.252-.951-.832-.028-.246.034-.494.174-.699.184-.186.438-.285.7-.272l4.894-.175-.049-.098c-.156-.249-.187-.557-.082-.831.104-.275.331-.485.614-.567.233-.097.493-.11.734-.035.268.132.472.367.566.65.04.136.086.269.14.399.05.111.098.244.161.398l4.972-.189c.615 0 .937.259.958.84.028.25-.045.502-.203.698-.183.186-.439.283-.7.266l-1.713.063c.078.133.114.286.105.44 0 .209-.034.416-.098.615-.07.203-.132.405-.188.594-.056.189-.12.357-.175.503l3.006-.111c.255-.043.514.037.7.216.133.19.198.42.182.65zm-1.7 7.305c.058.446-.05.898-.3 1.272-.33.309-.773.466-1.224.433l-8.39.315c-.446.073-.9-.053-1.245-.343-.261-.363-.392-.804-.371-1.25l-.154-4.146c-.062-.426.038-.86.28-1.216.342-.278.778-.413 1.217-.378l8.39-.307c.438-.062.883.037 1.252.28.281.332.422.76.392 1.195l.153 4.145zm-2.097-3.705c0-.098-.07-.14-.203-.14l-7.216.273c-.154 0-.224.063-.217.182v.824l7.636-.28v-.859zm.09 2.586l-7.621.28.035.902c0 .118.077.181.23.174l7.203-.265c.056-.001.111-.016.16-.042 0 0 .05-.077.043-.161l-.05-.888zm-5.908-6.815c-.004.016-.004.033 0 .05l3.63-.134c.15-.265.27-.546.356-.838.09-.28.168-.567.244-.867.033-.158.087-.311.161-.454l-5.23.195c.061.054.109.12.14.196.044.08.083.161.119.245.098.272.188.538.28.782.09.245.223.539.321.825h-.02zM42.087 55.22h.566c.216-.014.432 0 .644.041.152.027.287.112.377.238.098.153.15.33.154.51.024.282.024.565 0 .846-.042.426-.098.818-.168 1.181-.084.334-.187.663-.308.986.38.462.858.834 1.399 1.09.599.268 1.255.384 1.909.336l6.992-.259c.248-.034.5.032.7.182.152.2.228.448.216.699 0 .573-.273.867-.874.888l-6.992.258c-.45.022-.902.004-1.35-.056-.372-.047-.738-.136-1.09-.265-.325-.118-.63-.28-.91-.483-.29-.21-.564-.444-.818-.699-.228.34-.475.667-.74.979-.268.307-.568.583-.896.825-.215.181-.488.28-.769.28-.255-.022-.483-.168-.608-.392-.134-.207-.187-.456-.147-.7.047-.285.212-.538.454-.698.558-.413 1.032-.928 1.399-1.517.331-.59.567-1.23.7-1.894.076-.294.09-.475 0-.531-.107-.082-.232-.135-.365-.154h-.503c-.295.019-.59 0-.881-.056-.173-.026-.33-.116-.44-.252-.082-.131-.108-.29-.07-.44.042-.22.117-.432.223-.63l.951-1.712c.061-.092.089-.204.077-.314 0-.07-.119-.105-.3-.098h-.65c-.23.037-.463-.018-.651-.154-.135-.186-.202-.413-.189-.643-.03-.242.02-.487.14-.699.16-.18.396-.274.636-.251l1.825-.07c.343-.031.686.05.98.23.248.179.392.47.384.776.002.161-.021.322-.07.476-.056.167-.105.314-.154.433l-.783 1.712zm.657-4.586c-.14.206-.394.303-.636.245-.309-.097-.598-.249-.853-.448-.259-.195-.497-.363-.7-.51-.202-.147-.496-.335-.818-.566-.234-.137-.412-.352-.503-.608-.042-.254.038-.513.217-.7.335-.453.825-.474 1.454-.055l.818.552c.279.186.547.386.804.601.248.163.425.412.497.7.03.287-.073.572-.28.775v.014zm3.315 8.737c.027.208-.052.415-.21.553-.196.119-.421.18-.65.174-.219.024-.44-.014-.637-.112-.167-.14-.254-.355-.23-.573l-.238-6.423c-.023-.27-.023-.541 0-.811.021-.202.09-.397.202-.566.125-.158.296-.273.49-.329.279-.086.568-.13.86-.133l2.28-.084-.56-.181-.475-.161-.455-.16-.524-.183c-.27-.052-.514-.19-.7-.391-.081-.17-.081-.368 0-.538.018-.049.044-.094.077-.133.034-.034.064-.072.091-.112h-.517c-.23.034-.466-.021-.657-.154-.13-.145-.198-.336-.19-.53-.018-.191.031-.382.14-.54.18-.16.418-.238.658-.216l7.07-.237c.312-.028.625.051.887.223.203.141.327.369.336.615.002.197-.062.39-.182.546-.173.214-.397.382-.65.489l-.574.286-.468.266-.497.259-.699.293c.125.057.238.135.336.23.06.065.091.151.084.239l1.398-.056c.316-.02.632-.003.944.049.213.028.414.116.58.251.142.134.245.303.301.49.085.246.14.502.161.761l.21 5.718c0 .776-.182 1.28-.63 1.517-.718.258-1.498.295-2.237.105-.27-.006-.523-.125-.7-.329-.13-.21-.153-.469-.062-.699.038-.203.157-.381.328-.496.246-.08.51-.08.756 0 .226.068.466.083.699.042.09 0 .133-.182.126-.434v-.657l-2.483.077.07 1.839c.017.224-.026.448-.126.65-.097.167-.328.258-.699.272-.37.014-.566-.063-.699-.223-.109-.195-.166-.414-.168-.636l-.07-1.839-2.195.077.098 1.915zm-.21-5.731l2.195-.077-.042-1.07-1.936.07c-.076-.005-.151.012-.217.05V53.64zm.09 2.453l2.196-.077v-1.034l-2.202.077.007 1.034zm.455-6.899l.532.16.573.19.538.174.42.14c.287-.098.573-.21.853-.335l.63-.287c.209-.07.314-.119.3-.147-.014-.028-.133 0-.37 0l-3.476.105zm3.252 3.23l.042 1.069 2.454-.091v-.81c0-.12 0-.19-.07-.217-.087-.021-.178-.021-.266 0l-2.16.048zm.132 3.494l2.455-.09-.042-1.035-2.455.09.042 1.035zM60.987 53.821c-.298.028-.597.028-.895 0-.205-.027-.397-.114-.552-.251-.145-.14-.245-.32-.287-.517-.064-.292-.1-.59-.105-.888l-.105-2.922c-.027-.297-.027-.597 0-.895.028-.203.113-.394.245-.552.144-.146.33-.246.531-.286.294-.067.594-.102.895-.105l1.602-.063c.294-.017.59-.003.88.042.43.043.778.365.854.79.067.289.102.584.105.88l.175 2.873c.015.254.015.508 0 .762-.018.18-.073.353-.161.51-.08.141-.199.256-.343.329-.179.094-.373.156-.573.182v1h.566c.26-.03.523.026.748.16.022-.14.107-.26.231-.329.166-.09.336-.172.51-.244.497-.194.976-.427 1.434-.7.418-.246.822-.517 1.21-.81-.249-.242-.483-.499-.7-.769-.25-.284-.484-.582-.699-.895-.041.054-.077.113-.105.175-.03.061-.065.12-.105.175-.131.223-.336.394-.58.482-.268.047-.541-.04-.734-.23-.195-.153-.327-.372-.37-.616.031-.295.162-.57.37-.782.641-.827 1.101-1.78 1.35-2.796.054-.208.124-.411.209-.608.062-.133.15-.252.259-.35.076-.079.173-.135.28-.16.136-.017.275-.017.412 0 .447.097.636.468.56 1.11l3.069-.111c.323-.03.649.015.951.133.212.084.388.24.496.44.1.219.133.461.098.699-.037.294-.118.581-.237.853-.22.548-.482 1.078-.784 1.586-.296.492-.63.96-1 1.398.378.196.763.378 1.161.546.399.167.811.307 1.224.447.804.252 1.119.699.937 1.398-.02.28-.217.514-.49.58-.396.037-.795-.006-1.174-.126-.569-.228-1.1-.461-1.595-.699-.483-.234-.95-.5-1.398-.797-.385.313-.786.605-1.203.874-.426.284-.87.54-1.328.769l4.734-.175c.395-.06.797.052 1.104.308.26.353.386.786.357 1.223l.105 2.838c.056.453-.037.912-.266 1.307-.27.307-.669.47-1.077.44l-4.454.168c-.4.06-.806-.075-1.09-.363-.243-.382-.363-.828-.343-1.28l-.105-2.844c-.015-.252-.015-.504 0-.755.013-.175.065-.345.154-.497-.337.192-.755.17-1.07-.056-.013.218-.127.417-.308.539-.213.12-.454.183-.699.181h-.566l.063 1.748c.02-.019.043-.033.07-.042.033-.01.064-.026.09-.049.266-.148.576-.197.874-.14.251.1.446.304.532.56.294.58.063 1.062-.7 1.397l-1.104.525-.91.433-.831.384-.84.392c-.338.205-.717.336-1.111.384-.284.013-.54-.169-.622-.44-.122-.257-.166-.544-.126-.825.042-.245.251-.475.622-.699l-.189-5.081c-.062-.246.002-.507.17-.697.167-.19.418-.285.67-.254.247-.043.5.02.699.175.163.195.245.445.23.699l.112 4.396c.095-.054.193-.103.294-.147l.294-.153-.196-5.292h-.406zm1.448-4.627c0-.084-.056-.126-.147-.119l-1.245.042c-.066-.003-.13.022-.175.07-.039.093-.053.194-.042.294l.091 2.341c0 .154.063.224.168.224l1.343-.056c.07 0 .111-.056.104-.16l-.097-2.636zm5.034.105c-.005.05-.027.097-.063.133.269.418.566.817.888 1.195.283.338.594.652.93.937.222-.261.43-.534.622-.818.208-.297.4-.605.574-.923.14-.251.182-.426.126-.517-.086-.097-.216-.142-.343-.119l-2.734.112zm3.853 8.06c.005-.054.005-.108 0-.162-.013-.041-.055-.068-.098-.062l-3.496.132c-.091 0-.126.077-.126.231l.084 2.146c-.013.062-.013.126 0 .189.023.034.063.053.105.049l3.496-.133s.049 0 .07-.084c.016-.052.016-.108 0-.16l-.035-2.147zM80.58 51.466c.079 1.496.079 2.961 0 4.396-.058 1.35-.278 2.688-.658 3.985-.06.348-.252.659-.538.866-.217.107-.468.127-.7.056-.372-.126-.589-.3-.65-.524-.054-.287-.012-.585.12-.846.2-.529.356-1.074.468-1.628.116-.577.195-1.16.238-1.748.049-.622.063-1.314.049-2.097-.014-.783 0-1.621-.07-2.614l-.154-2.873c-.056-.447.04-.9.272-1.286.32-.312.758-.47 1.203-.433l5.405-.203c.438-.07.884.058 1.217.35.26.366.389.81.363 1.258l.056 1.398c.053.444-.042.894-.272 1.279-.309.32-.746.482-1.189.44l-5.16.224zm4.824-3.006c0-.119-.042-.188-.111-.21-.128-.022-.258-.022-.385 0l-4.133.154c-.086-.01-.173.018-.237.077-.054.108-.074.23-.056.35l.042 1.034 4.615-.168c.21 0 .3-.16.293-.447l-.028-.79zm-.16 11.883c.033.242-.017.488-.14.699-.146.145-.348.22-.553.203-.216.03-.435-.027-.608-.161-.157-.198-.234-.447-.217-.7l-.217-5.857h-.643c-.085-.006-.17.025-.23.084-.048.11-.065.231-.05.35l.175 4.564c.026.244-.028.489-.154.7-.141.157-.347.242-.559.23-.224.02-.449-.036-.636-.161-.17-.192-.255-.444-.238-.699l-.182-5.026c-.055-.429.033-.864.252-1.237.302-.286.712-.428 1.126-.391l1.084-.042v-.58c-.035-.243.017-.49.146-.7.167-.136.38-.203.595-.188.203-.03.41.023.573.147.15.2.222.449.203.699v.58l1.084-.042c.412-.066.832.048 1.153.314.257.352.383.782.357 1.217l.147 4.068c.043.457-.065.917-.308 1.307-.272.35-.705.534-1.147.49-.363.035-.727-.059-1.027-.267l.014.399zm-.217-5.823l.16 4.257c.045-.113.146-.196.266-.216.134-.028.272-.028.406 0 .119.041.196.041.238 0 .042-.042.049-.12.042-.28l-.133-3.55c0-.12 0-.197-.07-.218-.085-.02-.174-.02-.259 0l-.65.007zm5.083 1.797c.043.271-.036.547-.217.755-.393.271-.908.29-1.321.049-.179-.188-.272-.44-.259-.7l-.293-8.191c0-.401.062-.653.188-.755.198-.127.43-.19.665-.182.227-.017.454.03.657.133.168.09.266.342.28.74l.3 8.15zm2.797 2.048c.035.504-.022 1.011-.168 1.496-.126.355-.373.655-.699.845-.363.201-.774.298-1.189.28-.588-.015-1.172-.1-1.74-.252-.518-.13-.833-.319-.945-.566-.104-.316-.087-.66.05-.964.223-.616.699-.79 1.356-.525.251.105.51.19.776.252.143.047.298.047.44 0 .113-.061.189-.173.203-.3.02-.191.02-.383 0-.574l-.426-11.512c-.049-.254.024-.517.197-.71.172-.194.425-.295.684-.276.25-.025.499.045.699.196.17.193.26.443.252.7l.51 11.91zM111.773 50.571c.254-.029.508.053.699.224.165.194.253.444.244.699.026.248-.041.497-.188.699-.187.18-.44.273-.7.258l-7.027.26v.37c1.026.465 2.049.931 3.07 1.397 1.02.466 1.953.932 2.797 1.398.496.26.783.51.867.755.078.286.024.59-.147.832-.138.251-.373.436-.65.51-.358-.017-.704-.138-.993-.35-.7-.356-1.44-.761-2.3-1.201-.86-.44-1.693-.783-2.56-1.203l.16 4.425c0 .377-.062.629-.23.748-.428.249-.952.27-1.398.056-.214-.181-.324-.456-.294-.734l-.259-6.906-4.748.175c-.252.033-.507-.043-.699-.21-.147-.203-.223-.449-.217-.699-.023-.245.036-.491.168-.699.176-.198.435-.302.7-.28l5.006-.188-.182-4.893c0-.392.063-.65.238-.755.212-.124.454-.187.7-.182.24-.019.48.025.698.126.182.098.273.343.287.74l.07.959 5.356-.196c.251-.035.506.039.7.203.151.2.23.447.223.699.017.244-.042.488-.168.698-.18.192-.437.292-.699.273l-5.363.196.07 2.02 6.769-.224zM119.639 51.137c-.262.036-.529-.002-.77-.111-.186-.101-.317-.281-.356-.49l-.154.077-.16.084c-.347.194-.746.272-1.14.224-.296-.095-.517-.345-.574-.65-.105-.243-.105-.52 0-.762.188-.292.477-.504.811-.594.974-.4 1.896-.914 2.748-1.531.985-.727 1.905-1.539 2.748-2.426.284-.287.666-.457 1.07-.475.424-.006.836.14 1.161.412.966.822 1.995 1.568 3.077 2.23.975.598 2.03 1.054 3.132 1.356.128.038.25.092.364.161.12.07.224.162.307.273.09.11.149.243.168.384.025.168.006.339-.056.496-.133.35-.286.56-.468.63-.267.052-.544.018-.79-.098-.168-.056-.35-.12-.56-.175-.184-.05-.364-.112-.538-.189-.018.234-.129.45-.308.601-.228.187-.516.286-.81.28l-3.231.119.049 1.293 5.09-.189c.285-.032.573.024.825.16.196.16.303.405.287.658 0 .622-.329.95-1.049.971l-1.077.042c.16.11.27.279.308.469.019.29-.044.581-.182.838-.174.415-.373.819-.594 1.21-.196.35-.399.699-.616 1.034l2.874-.105c.288-.036.58.023.832.168.184.185.281.439.266.699 0 .615-.322.93-1.028.958l-13.285.496c-.7 0-1.028-.273-1.056-.888-.032-.252.044-.506.21-.699.224-.163.498-.244.776-.23l2.629-.098c-.189-.51-.357-.923-.497-1.237-.145-.33-.313-.65-.503-.958-.163-.215-.269-.467-.308-.734-.01-.21.075-.412.231-.552h-.986c-.287.034-.577-.027-.825-.175-.205-.172-.314-.432-.294-.699-.029-.257.059-.513.238-.699.235-.172.52-.258.811-.245l4.993-.188-.091-1.237-3.7.111zm4.027-4.396c-.466.466-.976.906-1.53 1.32-.546.441-1.106.854-1.672 1.252l7.496-.273c-.644-.342-1.266-.699-1.874-1.111-.609-.412-1.175-.818-1.706-1.244-.087-.103-.216-.16-.35-.154-.144.02-.274.096-.364.21zm-1.398 10.38c.037.09.067.184.09.28.03.079.05.16.064.244l1.16-.042-.132-3.495-2.552.09.09.127c.034.045.062.094.084.146.147.287.28.532.385.755.105.224.203.42.287.615.083.196.174.399.258.609.084.21.175.412.266.67zm5.594-2.677c.05-.193.138-.373.259-.532l-2.713.098.125 3.495h.665c.07-.281.21-.54.405-.755.282-.38.541-.777.776-1.188.204-.353.366-.728.483-1.118zM144.392 52.647c-.273.3-.504.538-.7.7-.151.142-.323.262-.51.356-.121.066-.26.096-.398.083-.125-.023-.243-.075-.343-.153-.181-.116-.29-.317-.287-.532.008-.277.145-.536.37-.698.328-.263.605-.583.819-.944-.158-.03-.31-.082-.455-.154-.138-.066-.261-.158-.363-.273-.096-.114-.176-.241-.238-.377-.063-.146-.098-.302-.105-.461-.005-.186.023-.37.084-.545.064-.19.158-.367.28-.525.128-.146.289-.26.468-.335.185-.086.384-.133.588-.14.204-.004.407.027.601.09.408.147.737.456.909.854.102.239.16.495.168.754.009.852-.31 1.675-.888 2.3zM158.852 57.61c.032.272-.038.545-.196.769-.15.169-.368.263-.594.258-.242.04-.487-.041-.657-.216-.152-.22-.228-.482-.217-.748l-.224-6.102c-.203.363-.406.559-.601.6-.228.035-.459-.034-.63-.188-.265-.113-.45-.357-.49-.643.028-.396.145-.781.343-1.125.477-.884.84-1.823 1.084-2.796.251-1.024.438-2.063.56-3.11.03-.323.115-.637.251-.93.154-.23.428-.347.7-.3.699.041.972.551.832 1.537-.14.985-.329 1.81-.532 2.621l.37 10.373zm10.635-4.488c-.182.14-.321.196-.42.168-.104 0-.23-.14-.363-.363-.133-.224-.35-.524-.49-.7-.14-.174-.272-.37-.398-.516-.273-.322-.294-.602-.077-.84l.084-.07.084-.062-2.391.084.174.147.161.146c.101.09.164.215.175.35-.009.161-.065.317-.16.447-.052.131-.17.224-.308.245-.12 0-.28-.084-.469-.28l-.266-.244-.251-.224c-.098-.075-.18-.168-.245-.273-.032-.085-.032-.18 0-.265l-3.426.126c-.07 0-.105.055-.105.167v.755c.028.202-.069.4-.245.503-.15.089-.317.141-.49.154-.178.006-.355-.03-.517-.105-.179-.098-.283-.293-.266-.496v-.699c-.014-.233-.014-.466 0-.699.016-.155.069-.303.154-.433.076-.103.18-.181.301-.224.154-.048.314-.074.475-.077h.7l-.112-2.97c-.053-.421.051-.847.293-1.196.24-.257.58-.397.93-.384l1.902-.077.084-.37-3.971.146c-.166.013-.329-.045-.448-.16-.122-.123-.19-.289-.189-.462-.022-.175.034-.352.154-.482.117-.112.272-.174.434-.175l9.628-.356c.163-.013.324.04.448.146.128.127.197.303.188.483 0 .42-.174.636-.573.65l-4.363.16-.098.378 2.797-.105c.32-.052.642.07.846.322.185.363.274.767.259 1.174l.112 2.97h.342c.337-.038.674.072.923.301.218.261.337.59.336.93.01.16.01.322 0 .482-.02.165-.053.329-.098.49-.038.21-.182.386-.381.466-.2.08-.425.051-.598-.075-.17-.055-.313-.172-.399-.329-.052-.166-.052-.344 0-.51.08-.252.1-.405.063-.461-.037-.056-.128-.084-.272-.084h-.7l.126.09.105.099c.112.132.21.244.28.342.07.098.147.189.21.28.063.09.118.195.181.293l.238.357c.124.164.197.36.21.566-.022.18-.128.338-.287.426l-.02-.077zm-9.209 5.418c-.208.081-.444.04-.613-.107-.17-.146-.243-.375-.19-.592 0-.392.216-.609.698-.657.644-.089 1.28-.187 1.91-.294.629-.107 1.223-.233 1.782-.377-.251-.168-.538-.364-.846-.602-.307-.237-.615-.475-.916-.699-.251.196-.496.37-.734.532-.222.155-.456.293-.7.412-.607.315-.992.252-1.132-.182-.082-.161-.069-.355.035-.503.185-.169.395-.308.622-.412.368-.167.723-.358 1.063-.574-.091-.164-.106-.36-.042-.538.054-.134.135-.255.238-.356.133-.102.294-.16.462-.168.175-.015.35.038.489.147l.21-.196c.07-.07.136-.144.196-.224-.213-.234-.324-.543-.308-.86v-.642c-.023-.163.023-.327.126-.455.135-.094.297-.14.461-.133.162-.027.328.01.462.105.092.125.137.279.126.434v.342c0 .083.026.165.077.23.041.057.153.092.342.092h.916c.298-.007.595-.035.888-.084.138-.007.269-.061.37-.154.117-.18.171-.394.155-.608-.017-.128.03-.256.125-.343.145-.073.307-.107.469-.097.159-.022.318.035.426.153.11.186.152.403.12.615.02.384-.064.766-.245 1.105-.21.244-.51.392-.832.412-.41.072-.823.116-1.238.133h-1.294l-.105.126-.111.126 4.573-.168c.818 0 1.237.224 1.258.762.01.203-.053.403-.175.566-.167.204-.35.396-.545.573-.462.4-.972.74-1.517 1.014.466.098.932.181 1.398.251.521.08 1.047.126 1.573.14.244-.012.486.044.7.16.147.135.21.339.16.532 0 .329-.125.524-.3.594-.244.078-.502.1-.755.063-.821-.066-1.638-.173-2.448-.321-.71-.13-1.41-.308-2.097-.532-.798.315-1.618.568-2.455.755-.933.222-1.878.386-2.832.49v.014zm1.713-7.403c.19.091.287.196.301.322 0 .202-.048.4-.14.58-.12.28-.233.531-.335.755-.123.249-.273.483-.448.699-.11.166-.276.288-.468.342-.18.034-.363-.04-.469-.188-.096-.082-.15-.203-.147-.329.034-.15.103-.289.203-.405.165-.223.314-.457.448-.7.113-.204.212-.416.293-.635.054-.19.17-.354.329-.469.14-.06.298-.054.433.014v.014zm.294-4.242l5.328-.203v-.322c0-.105-.056-.16-.154-.153l-5.069.188h-.098c-.01.051-.01.103 0 .154l-.007.336zm.056 1.446l5.328-.195v-.518l-5.328.196v.517zm.049 1.398l5.328-.202v-.462l-5.328.196v.468zm1.273 5.159l.972.573c.278.163.565.31.86.44.308-.129.609-.273.902-.433.286-.154.58-.315.86-.49.147-.09.21-.153.182-.181-.028-.028-.126-.049-.287-.042l-3.49.133zM183.2 44.518v.699l3.747-.14c.405-.055.814.059 1.133.315.269.309.409.709.391 1.118l.084 2.244c.07.457-.075.92-.391 1.258.294.25.572.518.832.804.287.307.538.594.762.867.213.202.336.482.343.775-.014.218-.12.42-.294.553-.175.149-.4.226-.63.216-.223 0-.468-.195-.74-.538l-.133-.168c-.048-.057-.1-.11-.154-.16l-12.377.6c-.203-.012-.397-.09-.552-.223-.16-.13-.244-.333-.224-.538-.024-.213.025-.428.14-.608.163-.155.384-.234.608-.217l5.888-.266v-.594l-4 .147c-.408.067-.826-.045-1.146-.308-.24-.337-.359-.746-.336-1.16l-.084-2.244c-.056-.408.044-.822.28-1.16.299-.265.691-.4 1.09-.377l4-.147v-.7l-5.831.218c-.31.014-.601-.15-.75-.422-.149-.272-.13-.605.05-.858.17-.15.396-.224.623-.202l5.831-.217v-.196c-.039-.23.034-.467.196-.636.192-.128.42-.192.65-.181.228-.026.458.02.658.132.172.16.26.39.237.622v.196l5.594-.21c.224-.029.45.026.637.154.137.153.21.354.202.56 0 .496-.244.754-.783.775l-5.552.217zm-5.105 10.163c-.196.448-.392.86-.595 1.23-.227.416-.489.81-.783 1.182-.166.244-.414.42-.699.496-.241.032-.485-.04-.669-.2-.184-.159-.292-.389-.296-.632.023-.267.145-.517.343-.699.258-.292.492-.606.699-.936.193-.294.352-.608.475-.937.245-.7.637-.888 1.175-.657.28.119.44.28.469.475.023.238-.013.478-.105.7l-.014-.022zm-.217-7.297l3.678-.133v-.615l-3.216.119c-.203 0-.33.049-.385.126-.054.1-.076.215-.063.328l-.014.175zm.049 1.398c-.013.129.027.258.112.356.114.06.243.081.37.063l3.217-.119v-.657l-3.678.133-.021.224zm9.468 6.158c.017.36.003.72-.042 1.076-.023.254-.117.497-.273.7-.16.177-.365.308-.594.377-.324.097-.657.162-.993.195l-1.05.063-1.265.056h-2.272c-.35-.016-.699-.06-1.042-.133-.224-.043-.432-.147-.601-.3-.147-.153-.246-.345-.287-.552-.058-.302-.09-.609-.098-.916l-.056-1.566c-.034-.231.05-.465.224-.622.165-.133.368-.209.58-.217.224-.018.447.044.63.175.174.15.27.372.258.601l.056 1.552c-.01.146.053.287.168.378.223.083.461.118.7.104H183.156l1.042-.042.79-.055c.243.006.484-.05.7-.161.118-.091.167-.273.146-.566-.048-.229.013-.466.165-.643s.378-.273.611-.26c.205-.015.407.053.56.19.145.152.225.355.224.566zm-2.986-.65c.09.207.135.43.133.657 0 .195-.14.356-.392.496-.19.127-.43.153-.643.07-.205-.108-.366-.283-.455-.496-.075-.175-.163-.343-.265-.504-.077-.118-.196-.286-.357-.496-.343-.461-.3-.832.119-1.118.15-.113.33-.176.517-.182.226.04.425.175.546.37l.454.63c.13.178.237.37.322.573h.02zm-1.126-7.689v.608l3.496-.126v-.174c.009-.122-.035-.241-.119-.329-.115-.081-.258-.114-.398-.09l-2.979.111zm3.538 1.678l-3.496.125v.7l2.972-.113c.148.016.295-.027.412-.118.062-.1.09-.219.077-.336l.035-.258zm0 2.62c-.133-.158-.18-.372-.126-.572l-3.258.125v.58l3.384-.132zm3.37 5.648c-.16.162-.38.255-.608.26-.255-.049-.474-.211-.594-.441-.266-.392-.504-.7-.7-1.02-.236-.307-.488-.6-.755-.882-.211-.182-.36-.427-.426-.698-.005-.262.096-.514.28-.7.152-.148.36-.226.573-.216.24.026.459.147.608.335.315.336.602.657.853.972.252.314.532.699.826 1.118.168.193.253.444.237.7-.025.215-.142.408-.321.53l.028.042zM209.77 56.324c-.329.517-.846.531-1.566.042-.41-.314-.802-.65-1.175-1.007-.39-.384-.75-.798-1.077-1.237-.37.505-.79.973-1.251 1.398-.436.4-.904.765-1.399 1.09-.308.239-.68.38-1.07.406-.264-.054-.483-.238-.58-.49-.074-.133-.12-.28-.133-.433-.463.497-1.118.77-1.797.748-.251.014-.504.014-.755 0l-.7-.09c-.315-.024-.612-.158-.838-.378-.158-.254-.186-.568-.077-.846.084-.364.216-.573.398-.643.264-.07.54-.07.804 0 .182.035.371.07.56.09.181.018.364.018.545 0 .178.007.34-.1.406-.265.094-.266.155-.543.182-.825 0-.223.042-.545.048-.95.007-.406 0-.853 0-1.328v-1.398c0-.448-.041-.902-.062-1.251.003-.079-.016-.157-.056-.224-.074-.044-.161-.059-.245-.042l-1.986.07c.03.988.008 1.977-.063 2.963-.054.722-.17 1.438-.35 2.14-.14.541-.339 1.067-.594 1.565-.238.443-.514.864-.825 1.258-.56.741-1.09.825-1.573.238-.171-.19-.243-.448-.196-.7.073-.303.209-.589.399-.838.227-.336.432-.686.615-1.048.21-.446.366-.915.461-1.398.136-.668.217-1.346.245-2.027.05-.804.05-1.81 0-3.013l-.09-2.586-1.07.042c-.252.03-.504-.042-.7-.203-.167-.193-.253-.444-.238-.699-.027-.244.03-.49.161-.699.187-.18.442-.269.7-.245l2.733-.104c-.027-.066-.06-.13-.097-.19-.042-.062-.077-.125-.112-.188-.18-.232-.241-.534-.168-.818.112-.25.326-.44.587-.524.235-.122.514-.122.748 0 .228.136.409.338.518.58.084.168.16.343.23.525.07.181.147.37.231.573l2.05-.077c.248-.035.5.033.698.189.151.2.228.448.217.699.027.248-.04.498-.189.698-.186.18-.44.273-.699.252l-3.776.14.056 1.65 1.972-.077c.356-.019.713-.019 1.07 0 .22.003.437.068.622.188.026-.051.057-.1.091-.146l.105-.147c.176-.274.33-.562.461-.86.15-.342.28-.692.392-1.048.112-.37.217-.755.294-1.14.082-.382.138-.77.168-1.16-.006-.335.09-.663.272-.944.187-.177.443-.264.7-.237.28-.022.558.077.762.272.174.292.225.642.14.972l-.07.629 3.65-.133c.251-.04.508.034.699.203.154.199.231.447.217.699.033.246-.027.495-.168.699-.183.186-.44.279-.7.251h-.062c-.042.91-.105 1.734-.19 2.475-.09.74-.195 1.398-.32 2.027-.12.56-.269 1.113-.448 1.656-.164.477-.355.944-.574 1.398.338.493.712.96 1.119 1.398.36.376.751.722 1.168 1.035.286.177.515.435.657.74.047.23.008.47-.112.672v-.014zm-7.629-2.195c0 .21-.041.398-.07.573-.03.165-.07.329-.118.49l.112-.07.104-.07c.547-.353 1.062-.753 1.539-1.196.442-.431.834-.912 1.167-1.433-.355-.679-.668-1.379-.936-2.096-.299-.794-.544-1.607-.735-2.433-.125.231-.317.42-.552.538-.196.077-.413.077-.608 0 .007.058.007.117 0 .175v.182c0 .412.042.88.056 1.398.014.517 0 1.048 0 1.558v1.398c0 .42.041.783.027.986h.014zm2.315-9.087c-.008.016-.008.034 0 .05.162 1.026.382 2.044.657 3.047.214.768.47 1.525.77 2.264.49-1.775.763-3.603.81-5.445l-2.237.084zM219.692 52.591c-.356.455-.699.86-1.035 1.202-.335.343-.657.658-.979.937-.321.28-.629.517-.93.7-.3.18-.594.418-.888.6-.33.254-.737.387-1.153.378-.31-.05-.572-.253-.7-.539-.153-.25-.203-.551-.14-.838.07-.259.33-.51.777-.748.76-.427 1.465-.946 2.097-1.545.637-.605 1.21-1.275 1.707-2 .489-.712.899-1.476 1.223-2.278.299-.746.496-1.529.588-2.327l-5.538.202c-.298.043-.6-.046-.825-.244-.176-.191-.275-.44-.28-.7-.028-.264.053-.529.224-.733.218-.2.508-.303.804-.287l5.594-.21-.091-2.376c-.037-.29.032-.583.196-.825.196-.188.462-.287.734-.272.285-.034.572.04.804.21.201.222.305.517.287.817l.09 2.37 5.147-.19c.316-.041.636.039.895.225.346.422.366 1.023.049 1.467-.232.223-.548.335-.867.308l-5.14.196c.59 1.625 1.44 3.143 2.518 4.494.959 1.173 2.099 2.185 3.377 2.999.22.135.424.295.608.475.123.123.218.27.28.433.043.137.043.283 0 .42-.036.154-.097.3-.182.433-.087.138-.193.262-.315.37-.105.09-.233.145-.37.161-.178.011-.356-.022-.518-.097-.258-.108-.505-.244-.734-.406-1.162-.793-2.217-1.733-3.14-2.796-.91-1.067-1.69-2.24-2.32-3.495-.223.635-.491 1.251-.805 1.846-.294.587-.646 1.144-1.049 1.663zM238.32 54.779c.035.25-.036.504-.196.699-.153.14-.352.219-.56.224-.204.01-.405-.055-.566-.182-.185-.183-.28-.44-.258-.699l-.056-1.587c-.399.154-.79.3-1.175.434l-1.189.398c-.281.126-.597.15-.895.07-.196-.09-.328-.322-.405-.699-.061-.22-.036-.455.07-.657.222-.233.51-.394.825-.461l-.37-9.262h-.113c-.21.011-.415-.059-.573-.196-.182-.172-.281-.413-.273-.664-.03-.25.04-.5.196-.699.15-.159.361-.247.58-.244l4.377-.161c.252-.046.511.03.7.203.15.183.226.414.216.65 0 .582-.258.89-.776.922l.44 11.911zm-3.09-10.086h1.132l-.063-1.699-1.133.042.063 1.657zm.132 3.62l1.133-.041-.07-1.888-1.133.042.07 1.887zm.133 3.495l.545-.195.574-.238-.056-1.398-1.126.042.063 1.79zm3.776-.699c-.005-.212.088-.416.252-.552.182-.078.384-.1.58-.063.215.017.399.164.461.37.052.273.052.553 0 .826-.042.307-.077.573-.105.803-.027.231-.062.448-.097.643-.035.196-.077.392-.112.58-.035.19-.084.392-.14.609-.042.223-.152.428-.315.587-.163.109-.369.132-.552.063-.206-.059-.373-.208-.455-.406-.054-.296-.035-.6.056-.887.098-.448.182-.86.245-1.23.063-.371.133-.825.182-1.343zm5.51.392c.087.208.137.43.147.657 0 .189-.12.335-.364.454-.16.115-.364.149-.552.091-.162-.088-.283-.236-.336-.412-.07-.14-.126-.266-.182-.37-.056-.106-.105-.21-.154-.308l-.167-.315-.21-.405c-.178-.268-.207-.608-.077-.902l-2.056.077c-.263.024-.527.024-.79 0-.183-.028-.354-.111-.49-.238-.126-.14-.21-.311-.244-.496-.052-.277-.08-.557-.084-.839l-.203-5.41c-.023-.277-.023-.555 0-.832.02-.359.294-.652.65-.699.27-.055.544-.086.818-.09h1.084c.05-.168.091-.315.14-.462.05-.147.07-.265.091-.37.015-.238.15-.452.357-.568.208-.116.46-.118.67-.005.234.047.442.176.588.363.083.24.083.5 0 .74-.02.038-.031.078-.035.12-.011.04-.03.078-.056.112l2.44-.091c.233-.02.467-.02.7 0 .162.01.315.077.433.188.12.136.201.3.238.476.058.28.09.566.098.852l.196 5.41c.023.29.023.579 0 .867-.02.185-.082.362-.182.518-.105.124-.247.212-.406.251-.23.05-.464.076-.699.077l-2.181.084c.084.154.153.3.216.426s.126.245.19.357c.062.112.111.23.174.35l.238.342zm-3.972-8.675c-.071-.006-.142.017-.196.063-.042 0-.056.12-.056.252l.19 5.089c0 .153.034.244.076.28.052.04.117.057.182.048l4.65-.168c.08-.016.15-.067.189-.14.064-.088.094-.198.083-.307l-.181-5.005c.003-.088-.014-.177-.05-.258 0-.042-.09-.063-.188-.056l-4.699.202zm4.44 2.608c-.062.097-.13.19-.203.28l-.244.286.196.189.174.174c.228.176.393.422.469.7.002.179-.074.35-.21.468-.117.178-.327.274-.538.244-.276-.113-.516-.296-.7-.531-.044-.043-.082-.092-.111-.147-.041-.056-.088-.108-.14-.154l-.504.504-.524.489c-.15.156-.346.261-.56.3-.2.013-.39-.09-.49-.265-.23-.3-.104-.643.365-1.014l.447-.398c.154-.14.3-.287.448-.44l-.238-.245c-.077-.077-.161-.16-.252-.238l-.203.196c-.077.07-.15.144-.216.224-.441.391-.798.426-1.063.105-.266-.322-.126-.643.35-1.049.045-.046.094-.088.146-.126.053-.045.102-.094.147-.146-.063-.062-.13-.118-.203-.168l-.182-.154c-.228-.142-.403-.356-.496-.608-.031-.18.032-.362.168-.482.116-.158.294-.26.49-.28.227.04.435.153.594.322l.216.21.252.223c.063-.084.126-.175.196-.259.07-.084.126-.174.189-.272.095-.183.258-.32.454-.385.166-.041.342-.003.476.105.15.1.239.268.237.447-.014.204-.09.4-.216.56-.15.213-.311.419-.483.615.091.07.168.147.245.216l.224.217c.063-.084.119-.168.181-.245l.161-.237c.1-.186.272-.322.476-.378.173-.034.351.015.482.133.15.1.237.269.231.447-.027.207-.11.403-.238.567zm1.245 6.892c.03.465.03.932 0 1.398-.02.292-.093.58-.217.845-.096.193-.254.347-.447.44-.223.09-.46.142-.7.154-.398 0-.804.063-1.216.077-.413.014-.881 0-1.399 0-.438.02-.85-.21-1.063-.594-.215-.54-.324-1.117-.321-1.698l-.063-1.699c-.035-.255.047-.511.224-.699.293-.311.781-.33 1.097-.042.177.172.273.41.266.657l.056 1.58c-.014.214.034.428.14.615.102.114.253.17.405.154h.916c.217 0 .413 0 .602-.063.152-.006.287-.102.342-.245.051-.27.065-.544.042-.817 0-.7.19-1.042.658-1.063.193-.016.382.065.503.217.135.227.196.491.175.755v.028zm1.3-1.587c.133.35.252.699.371 1.097.119.399.245.79.378 1.238.09.236.114.492.07.74-.077.212-.24.382-.448.469-.224.126-.392.14-.524 0-.165-.172-.281-.384-.336-.615-.07-.224-.14-.427-.203-.601-.063-.175-.119-.343-.168-.51-.049-.168-.118-.336-.181-.511s-.14-.37-.224-.58c-.12-.255-.172-.537-.154-.818.042-.232.204-.424.427-.503.184-.084.396-.084.58 0 .206.128.354.33.412.566v.028zM258.31 50.39c.057.45-.041.906-.279 1.293-.3.313-.727.475-1.16.44l-2.525.09c-.427.073-.863-.056-1.181-.349-.26-.372-.388-.82-.364-1.272l-.308-8.388c-.057-.455.036-.917.266-1.314.305-.3.726-.453 1.154-.42l2.524-.097c.426-.065.86.057 1.189.336.265.377.396.832.37 1.293l.315 8.387zm-2.097-7.83c.005-.077-.012-.154-.049-.223 0 0-.105-.049-.223-.042l-1.448.056c-.068-.006-.135.014-.189.056-.035 0-.049.105-.049.224l.091 2.474 1.958-.077-.09-2.467zm-1.678 7.515c0 .119 0 .189.056.217.064.019.132.019.196 0l1.496-.056c.091 0 .147 0 .168-.05.036-.06.049-.132.035-.202l-.112-3.068-1.95.07.111 3.089zm9.09 2.188c.289.092.583.167.881.223.164.032.333.032.497 0 .098-.021.177-.093.21-.188.03-.11.042-.223.034-.336l-.09-2.418-3.748.14c-.071.473-.176.94-.315 1.397-.13.418-.3.823-.504 1.21-.2.372-.435.725-.699 1.055-.282.351-.588.683-.916.993-.132.128-.28.238-.44.328-.15.086-.313.145-.483.175-.155.028-.314.014-.461-.042-.159-.064-.295-.174-.392-.315-.168-.216-.245-.489-.217-.761.077-.298.255-.56.504-.741.392-.325.746-.693 1.056-1.098.301-.39.537-.827.699-1.293.177-.53.292-1.079.343-1.635.068-.697.087-1.398.055-2.097l-.195-5.215c-.02-.299-.003-.6.049-.894.03-.209.125-.402.272-.553.146-.143.331-.24.532-.28.276-.057.557-.088.839-.09l3.86-.147c.282-.017.566-.003.846.042.203.03.394.114.552.245.15.146.254.333.3.538.07.296.107.598.113.902l.391 10.575c.084.604-.066 1.216-.42 1.713-.323.35-.762.574-1.237.629l-.58.063c-.189.013-.378.013-.567 0-.213-.022-.426-.055-.636-.098-.253-.054-.503-.122-.748-.203-.28-.058-.522-.234-.665-.482-.104-.239-.104-.51 0-.748.065-.27.243-.497.49-.622.275-.1.578-.09.846.028h-.056zm-2.21-8.52l3.497-.134-.056-1.454c.015-.163-.022-.327-.105-.468-.063-.07-.224-.098-.483-.09l-2.405.09c-.158-.014-.317.02-.454.098-.063.056-.084.21-.077.454l.084 1.503zm.12 3.082v.999l3.558-.133-.083-2.208-3.497.132.021 1.21zM273.995 53.556c-.095.336-.325.617-.637.776-.273.102-.58.068-.825-.091-.26-.09-.465-.297-.552-.56-.044-.34.03-.685.21-.978.189-.426.342-.825.468-1.202.134-.416.234-.841.3-1.272.085-.542.132-1.088.14-1.636v-2.272l-.195-5.123c-.057-.45.044-.904.287-1.286.339-.301.785-.453 1.237-.42l9.887-.35c.462-.051.927.06 1.315.315.334.334.507.795.475 1.266l.399 10.932c.066.552-.09 1.107-.434 1.544-.431.395-1.003.599-1.587.567-.3.01-.6-.014-.895-.07l-1.202-.259c-.292-.048-.548-.222-.7-.475-.126-.21-.166-.46-.112-.7.04-.283.198-.536.434-.698.331-.139.704-.139 1.035 0 .342.09.601.16.783.195.173.034.349.048.524.042.126 0 .19-.077.182-.23l-.09-2.377-3.714.14.14 3.684c.053.277-.046.562-.259.748-.209.133-.45.206-.699.21-.26.02-.523-.034-.755-.155-.206-.171-.318-.43-.3-.699l-.133-3.683-3.72.133c0 .405-.07.775-.126 1.125-.056.35-.126.699-.21.993-.084.293-.189.629-.3.936-.113.308-.238.636-.378.965l.007-.035zm.937-10.072l3.552-.133-.077-2.097-3.063.112c-.21 0-.335.056-.391.14-.07.192-.094.397-.07.6l.049 1.378zm.105 2.712v1.454l3.566-.133-.077-2.23-3.517.147.028.762zm5.39-4.998l.078 2.097 3.713-.14-.05-1.356c.014-.207-.025-.413-.111-.601-.063-.077-.203-.112-.434-.105l-3.195.105zm.231 6.228l3.713-.133-.077-2.23-3.72.14.084 2.223z" transform="translate(39.157 52.423)"/>
        </g>
    </g>
</svg>
