<svg xmlns="http://www.w3.org/2000/svg" width="275" height="326" viewBox="0 0 275 326">
    <g fill="none">
        <path fill="#FFF" d="M150.45 261.57c-.07.56-.15 1.11-.24 1.67-.117.507-.288 1-.51 1.47-.181.406-.406.792-.67 1.15-3.52 4.73-13.88 3.89-18.12-.64-.341-.377-.646-.785-.91-1.22-.478-.771-.817-1.621-1-2.51-.3-1.145-.15-2.362.42-3.4.45-.72 1.48-1.75 8.86-2.15 6.21-.33 9.34-.47 10.75 1.08 1.045 1.275 1.554 2.907 1.42 4.55z" transform="translate(19)"/>
        <path fill="#E24D34" d="M150.21 263.24c-1.68 10.73-6.32 20-9.67 22.74-.527.535-1.25.831-2 .82-.45-.06-.84-.41-1.4-1.09-.23-.26-.47-.56-.74-.92-2-2.57-3.62-5.72-5.37-12.22-1.13-3.598-1.801-7.324-2-11.09.187.885.525 1.73 1 2.5 3.37 5.59 15.25 7 19.07 1.88.537-.793.914-1.683 1.11-2.62z" transform="translate(19)"/>
        <path fill="#E24D34" d="M146.47 297.88c0 2.34-3.57 4.22-8 4.22s-8-1.88-8-4.22c0-2 2.57-3.65 6.06-4.1.23-1.67.42-3.46.52-5.37 0-.93.07-1.83.07-2.7.56.68.95 1 1.4 1.09.75.011 1.473-.285 2-.82v2.16c.06 2 .23 3.95.46 5.73 3.21.56 5.49 2.13 5.49 4.01z" transform="translate(19)"/>
        <path fill="#FFF" d="M177.47 235.43c-.07.56-.15 1.12-.24 1.67-.117.507-.288 1-.51 1.47-.174.408-.396.794-.66 1.15-3.53 4.73-13.88 3.9-18.12-.63-.359-.383-.677-.802-.95-1.25-.476-.769-.815-1.615-1-2.5-.306-1.148-.155-2.37.42-3.41.45-.71 1.47-1.74 8.86-2.15 6.2-.33 9.33-.47 10.75 1.08 1.06 1.276 1.58 2.916 1.45 4.57z" transform="translate(19)"/>
        <path fill="#302B3A" d="M149.7 264.71c-.181.406-.406.792-.67 1.15-3.52 4.73-13.88 3.89-18.12-.64.9-.58 3-1.17 8.18-1.45 6.02-.33 9.14-.47 10.61.94zM176.72 238.57c-.174.408-.396.794-.66 1.15-3.53 4.73-13.88 3.9-18.12-.63.9-.58 2.95-1.18 8.17-1.46 6.02-.33 9.15-.47 10.61.94z" transform="translate(19)"/>
        <path fill="#E24D34" d="M177.23 237.11c-1.67 10.72-6.31 20-9.67 22.74-.53.53-1.25.825-2 .82-.45-.06-.85-.42-1.41-1.1-.22-.26-.46-.56-.74-.92-2-2.57-3.61-5.71-5.37-12.22-1.12-3.6-1.792-7.325-2-11.09.19.884.528 1.73 1 2.5 3.37 5.6 15.25 7 19.07 1.88.545-.786.926-1.674 1.12-2.61z" transform="translate(19)"/>
        <path fill="#E24D34" d="M173.5 271.75c0 2.33-3.58 4.22-8 4.22s-8-1.89-8-4.22c0-2 2.58-3.66 6.07-4.11.23-1.66.41-3.46.51-5.37.05-.93.07-1.83.07-2.7.56.68 1 1 1.41 1.1.75.005 1.47-.29 2-.82v2.16c.06 2 .22 3.95.45 5.73 3.21.56 5.49 2.14 5.49 4.01z" transform="translate(19)"/>
        <path fill="#302B3A" d="M220.19 281.51c-.7 8.41-1.54 20.35-2.72 35-.264 3.175-2.513 5.833-5.6 6.62-3 .76-6.57 1.6-8.36 1.81-5.24.64-17.43-.39-21.55-7.76-1.012-1.868-1.44-3.996-1.23-6.11 4.88 3.26 13 7.61 18 4.67 2.36-1.36 2.46-3.36 2.15-35.5 0-4.22-.17-10.17-4.3-13.51-1.429-1.118-3.118-1.855-4.91-2.14 1.005-1.486 2.15-2.872 3.42-4.14l1.22-1.22c2.318-2.32 3.847-5.312 4.37-8.55l4.47-28.4c1.67.813 3.486 1.282 5.34 1.38 1.602.155 3.22.054 4.79-.3.362 5.789.165 11.6-.59 17.35-1 7.78-2.65 11.92-.58 17.82 1.47 4.18 3.27 4.86 4.89 9.78 1.334 4.265 1.74 8.765 1.19 13.2z" transform="translate(19)"/>
        <path fill="#FFBD29" d="M198.77 315.72c-5.08 2.94-13.16-1.41-18-4.67.17-2.91 1.08-6.32 2.09-10.7 1.36-6 2.92-13.76 4.14-23.29.57-4.481 2.198-8.762 4.75-12.49 1.792.285 3.481 1.022 4.91 2.14 4.13 3.34 4.27 9.29 4.3 13.51.27 32.14.17 34.14-2.19 35.5z" transform="translate(19)"/>
        <path fill="#F36B53" d="M49.83 95.7C48.79 90.82 31 59.18 23.38 52c-7.62-7.18-16.72-.48-15.64 6.42 1.08 6.9 12.26 42.07 17.62 48.1 8.38 9.48 27.25 2.12 24.47-10.82z" transform="translate(19)"/>
        <path fill="#F36B53" d="M23.54 44.43c-3.94-11.49-10.34-23.09-9-32.87 0 0-4.39-4.39-6.72-.33s-13.1 48.39 9.4 52.66c0 0 10.26-7.98 6.32-19.46z" transform="translate(19)"/>
        <path fill="#18336D" d="M12.19 82.3c3.78 11.09 9.4 21.94 12.41 25.33 4.57 5.422 12.265 6.998 18.6 3.81 6.69-3.13 10.09-9.43 8.67-16-.71-3.31-6.76-14.79-13.28-25.5-.09.06-11.53 2.3-26.4 12.36z" transform="translate(19)"/>
        <path fill="#F36B53" d="M16.38 14.88c3-1.13.83-5.35 1.53-7.29.35-1-2.06.39-2.37 3.38-.507-3.093-.734-6.226-.68-9.36.17-3-3.84.08-6.33-.37-1-.18-2-.6-2.42.36-1.092 2.398-1.298 5.105-.58 7.64 1.48 6.57.36 6.21 0 9.52-.36 3.31 7 1.7 7 1.7s.9-4.46 3.85-5.58z" transform="translate(19)"/>
        <path fill="#18336D" d="M38.88 89.82c12.37-2.73 29-5 38.38-1.66C92 93.35 96.34 101.11 98 110.7c3.12 17.93 9.15 87.29 9.15 87.29-36.55 19.72-93.57 8.76-93.57 8.76-.49-38.59-.72-111.19 25.3-116.93z" transform="translate(19)"/>
        <path fill="#F36B53" d="M218.94 182.35s19.18 6.87 22.28 5.4c3.1-1.47 3.24 8.32 1.58 9l-24.35.19.49-14.59zM243.37 199.81l9.41-20.7s1.34-1.13 2.2 1.09c.86 2.22-.72 7.65-1.49 9.31-.77 1.66-3.37 2.67-4 3.86-.355 1.018-.394 2.12-.11 3.16 0 0-2.77 5.14-4.49 5.38-1.72.24-1.52-2.1-1.52-2.1z" transform="translate(19)"/>
        <path fill="#18336D" d="M237.69 196.59s3.07-1.26 3.24-3.92c.135-1.388.026-2.79-.32-4.14 0 0-1.94-2-1.59-2.24.35-.24 3.14 1.54 3.36 1.44 2-1 5.4-2.89 7.09-6.1 2.31-4.39 4.2-2.33 4.2-2.33 1 4.2-3 10.89-4.08 13.11-1.08 2.22-6.22 7.4-6.22 7.4-2.37.17-4.61-1.1-5.68-3.22z" transform="translate(19)"/>
        <path fill="#F3AB55" d="M155.79 157.33c25 2.08 72.32 26.43 72.32 26.43 1.9 8.05-3.29 15.11-3.29 15.11s-65-.51-74.62-4.4c-9.62-3.89-3.2-37.87 5.59-37.14z" transform="translate(19)"/>
        <path fill="#F3AB55" d="M48.21 201.07C46 190.82 53 174.74 68.44 168.14c9.45-4 52.42-14.5 88.63-11.16 23.05 2.12 14.26 25.83 7.09 32.09-17.32 15.11-66.58 43.68-87.79 38.27-18.47-4.7-24.77-10.63-28.16-26.27z" transform="translate(19)"/>
        <path fill="#F36B53" d="M182.29 200.58s14.64 14.16 18.07 14.1c3.43-.06-.48 8.92-2.26 8.83l-22.26-9.86 6.45-13.07zM197.34 226.55l17.11-15s1.69-.48 1.56 1.9c-.13 2.38-3.81 6.67-5.2 7.87-1.39 1.2-4.17 1-5.23 1.87-.746.777-1.235 1.765-1.4 2.83 0 0-4.65 3.54-6.31 3.06-1.66-.48-.53-2.53-.53-2.53z" transform="translate(19)"/>
        <path fill="#18336D" d="M193.49 221.28s3.33.11 4.58-2.24c.69-1.21 1.166-2.529 1.41-3.9 0 0-1-2.6-.52-2.69.48-.09 2.23 2.69 2.46 2.68 2.22 0 6.11-.4 9-2.63 3.91-3.05 4.78-.38 4.78-.38-.82 4.22-7.21 8.68-9.12 10.25-1.91 1.57-8.72 4.18-8.72 4.18-2.236-.814-3.763-2.893-3.87-5.27z" transform="translate(19)"/>
        <path fill="#FFD974" d="M133.26 150.7c22.08 11.82 56.8 54.94 56.8 54.94-1.59 8.12-9.23 12.41-9.23 12.41s-59.05-27.28-66.17-34.76c-7.12-7.48 4.5-40.15 18.6-32.59z" transform="translate(19)"/>
        <path fill="#FFD974" d="M19.14 196.76c-1.35-10.41 7.06-25.61 22.46-32.21 9.45-4.05 47.12-19.1 83.32-15.76 23.06 2.12 14.27 25.83 7.09 32.09C114.7 196 66.23 223 47.47 220c-19.95-3.2-27.34-15.6-28.33-23.24z" transform="translate(19)"/>
        <path fill="#F36B53" d="M67.33 83.53c-2.65-7 0-17.33 0-17.33l-14.08 2.36s3.9 12-.72 17.37c-1.43 1.66-3 .53-6.18 1.75 0 0 4.71 7.73 9.5 10.53l20.64-9.72s-7.16.36-9.16-4.96z" transform="translate(19)"/>
        <path fill="#F36B53" d="M74.53 64.8c-.53-.623-1.462-.704-2.09-.18.708-2.475 1.022-5.047.93-7.62 0-4.91-16.79-13.18-20.94-11-4.15 2.18-8.43 12.4-7.34 23.8.23 2.33 14 11.68 19.33 5 3.19-4 5.76-4.46 5.76-4.46s.52 1 2.5-.12 3.04-4.39 1.85-5.42z" transform="translate(19)"/>
        <path fill="#732622" d="M75.6 52.05c.49-.448.851-1.017 1.05-1.65.1-.45.19-.89.29-1.33.072-.878-.083-1.76-.45-2.56l-.69-1.1c-.577-.692-1.325-1.22-2.17-1.53-.632-.261-1.322-.35-2-.26-.659-.025-1.313.12-1.9.42-.11.057-.217.12-.32.19-.036-.275-.096-.546-.18-.81l-.5-1c-.408-.598-.967-1.077-1.62-1.39-.468-.246-.991-.37-1.52-.36-.528-.072-1.065-.007-1.56.19-.36.108-.698.277-1 .5-.08-2.68-1.765-5.047-4.27-6-8.42-3.57-13.67 9.65-5.23 13.22.614.262 1.26.444 1.92.54 1.232 1.676 2.919 2.963 4.86 3.71l11 3c-.439 1.543-.598 3.151-.47 4.75l-.66 5.72 1.53.29s.23-2 1.2-2.25c.581-.127 1.188.042 1.62.45 0 0 4.33-6.34 1.07-12.74z" transform="translate(19)"/>
        <path fill="#18336D" d="M52.33 145.4s-23 20.18-24.73 53c-.28 5.47-11.85-4-11.85-14.32 0-20.27 17.97-38.43 36.58-38.68z" transform="translate(19)"/>
        <path fill="#F36B53" d="M76 89.81c1.65-4.72 23.2-33.92 31.66-40.1s16.64 1.6 14.72 8.31C120.46 64.73 105 98.25 99 103.57c-9.51 8.36-27.32-1.27-23-13.76z" transform="translate(19)"/>
        <path fill="#18336D" d="M116.89 83.19c-5.13 10.54-12.81 21.2-16.21 24.2-5.22 4.59-11.64 5-18.17.88-6.24-3.94-8.84-10.61-6.62-17 1.11-3.2 8.54-13.84 16.34-23.66.08.07 11.15 3.76 24.66 15.58z" transform="translate(19)"/>
        <path fill="#F36B53" d="M109 50.56c3.3-11.69 9-23.63 7.18-33.32 0 0 4.14-4.63 6.69-.7 2.55 3.93 15.75 47.6-6.49 53.1-.03 0-10.71-7.4-7.38-19.08z" transform="translate(19)"/>
        <path fill="#F36B53" d="M112.41 14.73c-3-1-1.12-5.29-1.92-7.2-.4-1 2.08.28 2.55 3.24.332-3.112.386-6.248.16-9.37-.34-3 3.84-.14 6.3-.73 1-.23 1.93-.71 2.43.23 1.226 2.334 1.58 5.028 1 7.6-1.11 6.63 0 6.22.47 9.5.47 3.28-6.92 2.09-6.92 2.09s-1.05-4.4-4.07-5.36z" transform="translate(19)"/>
        <path fill="#FFF" d="M49.83 86.76S27.5 134.14 16.88 210.39L0 204.4s10.89-74.07 18.79-97.76c0 0-8.36-20-12.35-32.66C2.113 60.434.462 46.176 1.58 32l19.35.33S22.81 41 28.78 55c2.62 6.06 9.07 17.21 21.05 31.76zM109.74 33.06s-.33 7.25-12.61 26.1c-6.19 9.51-14.37 17.7-27.13 27.6l11.44 65.08 25-3.54-7.62-33.49s33-32 31-82.19l-20.08.44z" transform="translate(19)"/>
    </g>
</svg>
