<svg xmlns="http://www.w3.org/2000/svg" width="823" height="447" viewBox="0 0 823 447">
    <g fill="none">
        <path fill="#FFF" d="M122 54.5c9.304-.26 513.373 1.388 513.373 1.388 9.365.26 22.502-1.061 28.627-1.061 8.631 0 39.464-11.142 44 7.78.683 3.131 8.642 25.089 9 28.342 7 20.561 10.373 40.585 15 57.795 9.262 34.455 1.944 17.485 18.5 62.256 5.5 14.873 9.94 29.568 21.5 60.95 6.583 17.869 6.583 17.869 14.66 45.673 4.67 16.081-14.66 12.756-47.66 14.45-24.79 1.273-63-1.185-80.808 0-26.966 1.794-590.649-2.777-608.296.51-15.153 2.6-30.471 2.03-45.522-1.695-5.795-1.537-4.33-26.07-1.937-34.123 6.447-21.707 13.473-43.475 25-78.638 10.083-30.756 17.9-48.317 22.459-62.159C79 67.608 74.586 88.79 80 73c6-17.5 9.431-17.584 42-18.5z" transform="translate(0 87)"/>
        <path fill="#925932" d="M689 101l-1.526.912c-3.29 2.007-4.962 3.032-6.02 4.364-1.601 1.995-1.9 3.837-2.507 3.719-.608-.119-.725-1.777-.86-3.168-.058-.592-.081-1.143-.087-1.647.175-.07.316-.136.397-.177 1.357-.669 2.488-1.73 3.25-3.05.83-.07 1.678-.16 2.543-.278L689 101z" transform="translate(0 87)"/>
        <path fill="#F3AB55" d="M723.783 75.311c-1.149 8.473-8.126 13.982-12.046 17.08-2.07 1.632-4.277 3.083-6.594 4.338-.286-.43-.54-.881-.76-1.349-.444-.97-.45-1.28-.85-1.598-.84-.659-1.612.61-2.56 1.513-3.932 3.746-4.521 3.221-6.248 3.66-1.343.323-4.339-.207-7.293-.915.881-.805 3.647-5.337 4.57-6.137-.998.294-2.013.533-3.038.714-1.406.25-2.828.395-4.255.433l-.778-.232c0-.463.043-.945.037-1.451-1.924-1.653-4.668-1.935-6.886-.708.796.262 1.64.537 2.546.823.202.76.336 1.535.402 2.319.133 1.543.504 5.917-2.334 8.643-.727.688-1.588 1.218-2.529 1.556-1.398-.067-2.722-.19-3.962-.348-2.504-.34-4.987-.817-7.44-1.427-5.269-1.22-8.344-2.709-12.191-4.55-5.519-2.642-7.172-4.301-7.512-6.26-.28-1.634.443-2.983 1.136-4.27 1.18-2.196 3.039-4.313 8.509-8.326.735-.543 1.525-.976 2.273-1.422.207-.122.413-.25.608-.366 1.755-.026 3.51.05 5.257.226 4.662.61 6.218 2.44 12.763 4.166 3.082.8 4.662 1.22 6.485.848 3.793-.72 6.218-3.58 7.342-4.88 1.182-1.402 2.132-2.986 2.814-4.69.097-.22.176-.434.255-.648.663-.341 1.386-.701 2.176-1.098 2.632-1.317 5.154-1.921 10.205-3.129 3.593-.872 7.252-1.443 10.94-1.708 5.39-.378 6.484.232 7.086.714 2.735 2.11 2.073 7.027 1.872 8.479z" transform="translate(0 87)"/>
        <path fill="#F36B53" d="M708.108 103.957c-1.18.451-2.186-2.77-5.478-4.243-2.185-.978-4.026-.57-8.348.15 0 0-2.192.364-6.514.984-1.285.182-2.76.395-4.428.627-.79.113-1.574.194-2.34.257 1.272-2.062.574-2.934 1.056-5.077.24-1.091 1.278-1.88 1.377-3.66h.815c1.914.57 3.433.996 4.662 1.297 2.97.727 7.768.32 9.126 0 1.76-.433.618-2.508 2.372-2.909 1.296-.313 2.55-.677 3.402 0 .414.326.42.627.864 1.642.223.481.481.944.772 1.386.278.451.618.99 1.08 1.686 1.792 2.752 1.934 2.438 2.162 3.215.531 1.743.414 4.269-.58 4.645z" transform="translate(0 87)"/>
        <path fill="#923838" d="M684 91.416c0 .496 0 .967-.037 1.421v.245c-.092 1.377-.299 2.744-.619 4.09-.483 2.04-1.07 4.542-2.351 6.512-.702 1.157-1.742 2.089-2.989 2.68l-.371.155c-.835.335-2.685.89-4.393 0-.888-.497-1.573-1.272-1.943-2.196-.12-.282-.22-.57-.297-.866 1.238.155 2.611.275 4.034.34.958-.33 1.834-.849 2.574-1.522 2.89-2.668 2.512-6.949 2.376-8.459-.066-.766-.203-1.525-.408-2.268-.922-.28-1.782-.55-2.593-.806 2.258-1.201 5.052-.925 7.01.692l.007-.018z" transform="translate(0 87)"/>
        <path fill="#21417E" d="M679.725 35.687c-.744 1.115.986 7.006-.086 8.627-6.294 9.557-9.965 11.16-10.238 11.708-.434.875-2.48.505-3.2 1.929V58c-.665-2.165-1.329-4.336-1.99-6.513l-.28-.943c-.402-1.35-.805-2.693-1.196-4.03-3.18-1.331-8.185-.204-10.349 1.7-.516.459-.955.996-1.302 1.59C649.62 28.557 667.783 26.308 669.94 26c.162 1.183.124.099.732 1.787.936 2.613 1.86 5.176 4.117 6.68 1.47.925 3.202 1.353 4.936 1.22z" transform="translate(0 87)"/>
        <path fill="#21417E" d="M669 26.905L670.47 25.781 681.998 25 683.463 25.068 687 27.04 685.397 35.196 680.13 39 671.2 37.642z" transform="translate(0 87)"/>
        <path fill="#F36B53" d="M677.337 33.964c-4.229.602-8.204-6.509-8.337-7.46.658-.097 4.422-.843 5.032-.898 0 0 .9-3.992-3.697-3.992.614.156 1.265.065 1.812-.252.485-.496.708-1.189.605-1.873-.481-.187-.91-.487-1.251-.873-.604-.729-1.25-2.156-.568-3.01.332-.38.812-.6 1.317-.603.295-.015.59.024.87.115.876.289 1.263 1.107 1.36 1.047.096-.06-.11-.337-.357-.843.243-.101.503-.156.767-.162.62.053 1.204.309 1.661.728 1.118.831 1.015 1.27 1.722 1.512.599.155 1.23.125 1.813-.085.515-.054.998-.278 1.37-.638.163-.205.27-.447.315-.704.196.302.5.517.852.602.118.02.238.02.356 0 .078.825-.065 1.657-.417 2.408-.738 1.374-1.998 2.395-3.497 2.836-.695.127-1.13 1.042-1.064 2.24l.103 1.39c.55 0 3.02 0 3.691.067.145.32 2.562 7.43-4.458 8.448zM683 12.557c-.162.076-.307.18-.429.305-.254.288-.426.633-.498 1-.208-.267-.469-.495-.768-.67-.625-.366-1.37-.51-2.098-.408l-3.032.827c-.763.058-1.517.189-2.251.389-.255-.563-.469-1.14-.64-1.73-.416-1.396-.294-1.995-.14-2.396.139-.359.357-.687.639-.964 1.3.233 2.638.206 3.927-.078.852-.164 1.673-.444 2.437-.832.485.488.926 1.013 1.318 1.569.653.926 1.17 1.932 1.535 2.988z" transform="translate(0 87)"/>
        <path fill="#21417E" d="M681.044 7.37c-.353.352-.752.654-1.187.897-.742.404-1.54.696-2.366.867-1.251.296-2.55.324-3.814.081-.274.288-.485.63-.62 1.004-.15.412-.268 1.035.136 2.494.166.614.374 1.216.621 1.802-.224.063-.46.144-.696.231-.236.087-.552.212-.807.33-.52.003-1.013.23-1.354.624-.702.885-.062 2.363.584 3.118.35.4.791.71 1.285.904.107.708-.123 1.426-.62 1.939-.564.33-1.233.423-1.864.262-2.304-.38-5.59-2.494-6.21-5.5-.41-1.901.148-4.558 1.57-5.2.72-.324 1.429-.031 1.622-.405.36-.699-2.013-1.87-1.864-3.299.15-1.428 2.888-2.182 3.646-2.394 1.434-.388 2.936-.45 4.397-.181.524-.918 1.195-1.742 1.988-2.438C677.286.928 680.7-.83 682.193.43c1.49 1.26.807 4.982-1.15 6.94z" transform="translate(0 87)"/>
        <path fill="#21417E" d="M684.493 14.814c-.23.426-.573.787-.994 1.049-.221.138-.468.234-.728.284-.118.02-.239.02-.357 0-.352-.082-.658-.29-.855-.58-.044.248-.153.48-.315.678-.38.335-.867.538-1.382.58-.584.202-1.218.23-1.819.08-.709-.231-.606-.654-1.727-1.454-.46-.404-1.046-.65-1.667-.701-.265.006-.526.059-.77.156.249.487.418.771.358.812-.06.04-.485-.73-1.364-1.009-.282-.087-.577-.124-.873-.11.249-.11.51-.214.788-.307.279-.093.46-.156.679-.214.696-.194 1.41-.32 2.134-.377l2.855-.8c.69-.1 1.395.04 1.988.394.284.17.53.39.727.65.069-.356.232-.69.473-.968.115-.122.253-.222.406-.296.252-.134.518-.24.794-.319 1.037-.324 1.558-.486 1.819-.249.612.464.29 1.884-.17 2.7z" transform="translate(0 87)"/>
        <path fill="#FFF" d="M665.995 50.703c-1.592.176-8.38.759-11.337 3.36-.586.547-1.07 1.204-1.425 1.937-.532-1.543-.897-3.143-1.09-4.77 0-.339-.077-.709-.143-1.103.335-.605.76-1.151 1.257-1.618 2.09-1.937 9.308-3.322 12.379-1.968.27 1.369.391 2.765.359 4.162z" transform="translate(0 87)"/>
        <path fill="#F36B53" d="M708 39.673c0 11.247-1.806 17.87-1.806 17.87-1.42 5.148-2.462 8.75-4.985 9.369-1.733.426-3.383-.76-5.195-2.095-2.018-1.5-3.752-3.366-5.117-5.506-.16-2.487-.46-4.963-.897-7.415.301-1.128.916-2.142 1.77-2.917 1.463-1.304 4.587-3.164 6.574-2.682.266 1.195.467 2.404.602 3.622.234 1.255.39 2.524.463 3.8.404-1.52.765-2.219 1.349-4.214.925-3.345 1.53-6.774 1.806-10.24.168-1.606.265-3.009.319-4.109-.385-.136-3.522.08-3.726-.13-.223-.213-.425-.45-.602-.704-.214-.304-.447-.593-.699-.865-.276-.225-.485-.524-.602-.865-.054-.204-.325-.538-.3-.717 0-.581.896-.464.33-.92-.283-.236-.168-.619-.162-.823.034-.222.17-.413.367-.513-.11-.11-.204-.235-.283-.37-.042-.204.259-.433.476-.618.23-.17.486-.3.758-.383-.064-.028-.124-.064-.18-.106-.314-.222-.602-.667-.47-.914.193-.408 1.403-.18 2.366 0 .57.104 1.134.248 1.685.432.108.019.212.056.307.112.091.056.17.13.235.216.825 1.05 1.742 2.02 2.74 2.898.509.385.959.845 1.336 1.366.554.889.891 1.902.981 2.953.302 1.472.49 2.966.56 4.468z" transform="translate(0 87)"/>
        <path fill="#21417E" d="M688 27.139c-.377.397-.76.813-1.138 1.253-.038-.104-.096-.2-.173-.284-.09-.103-.198-.19-.32-.259-.398.47-.934.82-1.54 1.006-.218.067-.429.103-.64.145-.13-.588-.314-1.165-.55-1.723-.182-.439-.396-.865-.639-1.277.313 0 .64.072.978.114 1.376.204 2.725.547 4.022 1.025z" transform="translate(0 87)"/>
        <path fill="#FFF" d="M698 46.251c-1.932-.494-4.971 1.415-6.394 2.754-.83.796-1.429 1.837-1.722 2.995-.187-1.212-.398-2.538-.632-4.048-.082-.52-.17-1.034-.252-1.53.331-.874.878-1.634 1.581-2.195 1.435-1.11 4.895-2.855 6.769-1.998.344 1.313.562 2.66.65 4.022z" transform="translate(0 87)"/>
        <path fill="#21417E" d="M689.376 46.737c.085.473.176.964.26 1.461.243 1.437.461 2.71.655 3.869.606 2.243 6.06 17.45 6.06 17.583 0 0-2.363 1.674-2.745 2.08-1.272 1.34-3.515 3.723-4.848 5.293-1.121 1.316-3.54 4.16-7.32 4.851-1.819.346-3.395-.048-6.467-.843-6.521-1.703-8.072-3.535-12.727-4.14-1.173-.15-2.357-.199-3.539-.146-.212 0-1.473-.097-1.703-.08-.06-.527 1.212-6.99 1.545-8.312.28-1.01.633-2 1.055-2.959 1.042 2.116 3.921.133 4.709 1.382.654 1.037 1.109 4.45 3.72 3.7 1.667-.48 2.716-1.638 4.188-3.554 3.08-4.014 1.722-9.047 3.249-12.52 1.897-4.312 6.272-6.75 6.824-9.757.115-.655-1.06-4.11 0-6.536.418-.94 1.872-2.025 2.163-2.516l.249-1.11c.272 0 .46-1.898.709-1.91.188.17-1.667-3.953-1.412-3.82.678.346 3.933-1.892 4.303-1.746 7.763 3.031 9.605 15.443 9.696 15.674-1.94-.819-5.52.848-7.006 1.91-.727.551-1.288 1.294-1.618 2.146zM772.993 81.07c-.128 1.422-2.038 2.304-4.626 3.497-1.613.77-3.303 1.372-5.041 1.8-2.197.516-4.458.718-6.714.6-.384 0-.732-.042-1.05-.072-3.472-.336-3.54-1.41-9.338-2.166-3.49-.456-4.742-.234-8.892-.678-.44-.048-.916-.096-1.428-.162-7.232-.9-7.709-1.8-7.83-2.171-.666-1.956 3.338-5.082 6.103-6.6 2.264-1.2 4.759-1.922 7.323-2.118-.933.912-1.672 1.98-1.495 3.096.202 1.284 1.502 2.046 2.844 2.802.989.558 6.409 3.45 12.17.978 1.587-.678 3.454-1.482 4.132-3.288.314-.92.338-1.911.067-2.844 1.468.178 2.918.482 4.333.906l.153.048c1.965.6 5.218 1.872 7.324 3.402 1.239.978 2.057 1.962 1.965 2.97z" transform="translate(0 87)"/>
        <path fill="#21417E" d="M759 71.17c-.014.58-.103 1.157-.266 1.717-.23.805-.654 1.547-1.239 2.167-1.455 1.54-3.394 1.7-5.363 1.871-1.102.09-7.054.592-9.37-2.96-.345-.532-.59-1.118-.725-1.73l-.037-.154c.668-.578 1.376-1.115 2.118-1.604 2.744-1.89 6.57-4.53 10.528-3.038 1.847.743 3.38 2.056 4.354 3.73z" transform="translate(0 87)"/>
        <path fill="#FFF" d="M758.756 76.707c-.663 1.809-2.49 2.622-4.043 3.303-5.636 2.484-10.938-.421-11.905-.982-1.313-.76-2.585-1.525-2.782-2.815-.173-1.12.55-2.194 1.463-3.11l.185-.175.035.157c.13.623.367 1.219.7 1.76 2.232 3.616 7.97 3.098 9.033 3.014 1.898-.175 3.767-.338 5.17-1.905.564-.63.973-1.386 1.194-2.206.158-.57.244-1.157.257-1.748.334.581.587 1.206.752 1.856.266.935.245 1.929-.06 2.851z" transform="translate(0 87)"/>
        <path fill="#FFD974" d="M756 86.908c-.268.612-.632 1.175-1.078 1.666-.44.485-.98.865-1.578 1.114-2.145.882-4.241-.33-5.14-.857-.76-.444-1.445-1.012-2.026-1.684-.204.296-.433.572-.685.827-.82.927-1.919 1.544-3.12 1.75-.138 0-.275.031-.424.037-.779.023-1.55-.162-2.24-.538-.56-.308-1.071-.705-1.512-1.176-.548-.582-1.269-1.365-1.191-2.284.112-.745.551-1.395 1.191-1.763 4.05.453 5.271.227 8.678.692 5.694.777 5.76 1.873 9.125 2.216z" transform="translate(0 87)"/>
        <path fill="#F36B53" d="M758 109.147c-.867.193-1.807.374-2.716.536-.71.124-1.403.23-2.077.317-.583-.786-1.226-1.522-1.921-2.203-1.298-.808-2.818-1.152-4.324-.977-.622.067-1.23.228-1.807.48 1.23-2.254 1.964-4.759 2.15-7.338.076-.938.076-1.88 0-2.819-.205-.062-.406-.14-.602-.23-1.566-.715-2.342-1.973-3.095-3.192-.767-1.258-1.312-2.646-1.608-4.101 1.215-.21 2.327-.837 3.155-1.78.255-.258.487-.54.693-.84.587.683 1.279 1.26 2.047 1.711.91.535 3.011 1.768 5.197.872.606-.253 1.15-.64 1.596-1.133.58 1.148.967 2.39 1.144 3.671.404 3.006-.662 4.176-.915 6.896-.422 3.852 1.433 4.636 3.083 10.13z" transform="translate(0 87)"/>
        <path fill="#FFD974" d="M746.954 99.81c-.19 2.573-.936 5.07-2.186 7.318-.398.167-.735.347-1.022.496-2.45 1.278-4.984 2.259-7.482 3.376-.18-1.076-.269-2.166-.264-3.258 0-.664.05-1.241.104-1.781.3-2.687.95-2.867 1.788-7.745.19-1.13.484-3.022.692-5.406l.092-1.24c.061-.944.098-1.807.122-2.57.708.381 1.501.57 2.303.546.153 0 .293 0 .434-.037.301 1.45.855 2.836 1.635 4.09.765 1.24 1.555 2.482 3.147 3.183.2.09.404.167.613.23.084.93.093 1.867.024 2.799z" transform="translate(0 87)"/>
        <path fill="#F36B53" d="M755.907 119.403c-.127.115-.394.139-1-.146.084.667.06 1.06-.2 1.212-.262.151-.274.078-.607-.067-.427-.201-.78-.53-1.014-.939-.014.018-.033.03-.054.037-.297.145-.922-.558-1.001-.648-.252-.294-.444-.633-.564-1-.049.212-.122.351-.237.382-.243.06-.813-.315-.831-.346-.21-.372-.336-.785-.37-1.211-.091-.848-.68-1.478-1.584-2.283-.491-.43-.861-.606-1.42-1.163-.28-.28-.533-.584-.758-.909-.533.309-1.213.72-1.917 1.211-2.99 2.12-4.246 3.95-5.775 5.81-.364.441-.74.877-1.159 1.326-4.49 4.767-9.9 6.008-13.868 6.923-2.676.606-4.023.539-5.024-.212-2.02-1.52-1.51-5.21-1.34-6.427.327-2.423 1.213-4.149 3.39-7.632 3.69-5.917 4.108-5.79 7.147-10.593 2.773-4.374 3.422-6.057 5.873-7.699 1.517-1.002 3.218-1.692 5.005-2.029-.206 2.326-.497 4.173-.685 5.276-.832 4.76-1.475 4.936-1.772 7.559-.055.515-.097 1.09-.103 1.738-.552.703-1.135 1.424-1.735 2.144-1.007 1.212-2.006 2.345-2.997 3.398.764-.357 1.784-.854 3.173-1.526.606-.29 1.213-.57 1.82-.836 2.475-1.09 5.017-2.047 7.413-3.295.285-.145.607-.32 1.013-.484.58-.245 1.194-.402 1.82-.467 1.518-.17 3.049.164 4.356.951.701.663 1.348 1.38 1.936 2.144l.606.715c1.505 1.787 1.984 2.423 2.233 3.392.16.658.195 1.34.103 2.011l-.085.654c-.01.338.006.676.049 1.012.09 1.217.412 1.793.163 2.017z" transform="translate(0 87)"/>
        <path fill="#F36B53" d="M771.865 126.361c-.17 3.331-.436 5.874-2.261 7.9-1.086 1.2-2.268 1.723-4.669 2.585-4.938 1.786-10.006 3.178-15.158 4.162-1.406.24-3.14.523-5.153.776-.534.073-1.085.135-1.65.203-.412.424-.836.855-1.273 1.286-1.006.985-2.006 1.903-2.989 2.752.837-.08 1.722.228 1.734.511 0 .16-.279.234-2.049.862-1.364.48-1.734.616-2.334.573-.38-.01-.75-.11-1.086-.29-.653.292-1.375.386-2.08.271-1.26-.424-2-.566-2.206-.695-.067-.043-.13-.093-.188-.148-1.176-.19-2.662-.616-2.856-.93-.15-.293-.17-.638-.054-.948l-.607.302c-3.638 1.884-4.802 1.231-4.984.862-.097-.216 2.74-1.33 6.258-4.236 1.273-1.053 1.91-1.582 2.122-1.724 1.027-.664 2.133-1.194 3.292-1.576.673-.24 1.461-.486 2.364-.726 1.446-.327 2.91-.565 4.384-.714 2.322-.4 3.171-1.06 9.616-4.6 5.997-3.287 7.385-3.878 8.488-4.309.983-.376 1.91-.69 2.771-.954-.066-1.73-.097-3.516-.079-5.363 0-1.194.037-2.358.08-3.503 0-.338 0-.67.042-1.01 1.203-1.638 2.318-3.342 3.34-5.103 1.413-3.596 2.923-7.443 1.486-11.131-.703-1.792-1.916-3.078-1.413-4.808.211-.644.6-1.213 1.122-1.638.843.799 1.603 1.684 2.268 2.641 1.212 1.724 2.425 4.15 3.358 13.021l.037.333c.474 5.107.584 10.243.327 15.366z" transform="translate(0 87)"/>
        <path fill="#BADC7A" d="M761 118.165c0 .332 0 .658-.042.99-5.574 2.582-7.513 1.81-8.11 1.46-.254-.145-1.764-1.08-3.521-2.251-.408-.304-.831-.586-1.269-.845-2.216-.91-4.227 1.545-7.325 1.967-.575.074-1.158.074-1.733 0 1.528-1.852 2.772-3.674 5.75-5.786.718-.513 1.376-.923 1.907-1.207.224.324.476.627.755.905.556.562.924.73 1.413 1.159.9.802 1.486 1.43 1.577 2.274.033.425.159.836.368 1.207 0 0 .604.404.827.344.115-.03.188-.169.236-.38.12.365.31.704.561.995.079.091.701.79.997.646.021-.006.04-.019.054-.036.232.408.584.734 1.009.935.308.145.32.247.604.066.283-.18.283-.567.199-1.206.604.283.87.26.996.145.248-.224-.072-.797-.108-1.967-.043-.334-.059-.671-.049-1.008l.085-.652c.092-.668.057-1.347-.103-2.003-.247-.99-.724-1.599-2.222-3.378l-.604-.712c.676-.085 1.37-.187 2.083-.308.943-.157 1.854-.332 2.724-.519.175.561.35 1.207.52 1.858 1.25 5.056 1.896 8.091 1.896 8.091l.525-.784z" transform="translate(0 87)"/>
        <path fill="#FFD974" d="M766.342 101.9c1.456 3.712-.073 7.572-1.505 11.185-1.036 1.77-2.166 3.482-3.386 5.13l-.559.785s-.657-3.093-1.929-8.296c-.172-.7-.35-1.33-.528-1.906-1.684-5.463-3.558-6.249-3.202-10.066.259-2.703 1.346-3.866.934-6.855-.18-1.274-.575-2.509-1.167-3.65.46-.496.836-1.064 1.112-1.683.32 0 .67.056 1.057.075 2.27.121 4.547-.087 6.759-.619.24.371.467.724.67 1.07 2.758 4.541 2.709 6.694 1.972 7.802-.149.223-.32.43-.51.618-.529.427-.923.999-1.137 1.646-.522 1.67.707 2.908 1.42 4.764z" transform="translate(0 87)"/>
        <path fill="#BADC7A" d="M781 100.768c-1.226.75-2.398 1.586-3.506 2.5-2.561 2.183-4.707 4.802-6.335 7.732-.964-8.74-2.192-11.13-3.402-12.828-.673-.942-1.442-1.814-2.296-2.601.19-.185.361-.388.51-.607.736-1.086.786-3.196-1.971-7.648 2.538-.553 5.184-.378 7.625.503 4.942 1.893 8.479 6.854 9.375 12.95z" transform="translate(0 87)"/>
        <path fill="#FFD974" d="M787.507 92.848c-.53 1.814-1.374 3.518-2.49 5.033-.908 1.256-2.052 2.316-3.367 3.119-.895-6.269-4.427-11.37-9.364-13.292-2.44-.906-5.082-1.086-7.618-.518-.202-.349-.429-.704-.668-1.079 1.747-.445 3.445-1.072 5.066-1.87 2.6-1.248 4.52-2.159 4.649-3.637.091-1.048-.73-2.077-1.963-3.013 1.133-.358 2.31-.555 3.496-.586.926-.027 1.852.057 2.76.25 4.586.977 8.27 4.444 9.585 9.019.57 2.157.54 4.433-.086 6.574z" transform="translate(0 87)"/>
        <path fill="#F36B53" d="M793.281 83.024c-1.518 3.655-3.633 7.028-6.256 9.976.62-2.095.65-4.323.084-6.434-1.299-4.445-4.91-7.808-9.402-8.756-.89-.187-1.798-.268-2.707-.243.836-1.555 1.805-3.183 2.845-4.86 1.203-1.823 3.844-5.517 5.486-7.698-.374-.422-.707-.88-.992-1.367-.596-1.004-.964-2.129-1.077-3.293-.096-.754-.138-1.574-.186-2.516-.127-2.339.186-3.147.276-6.076.079-2.333.385-3.791.283-4.958l-.668-3.171c-.415-1.082-1.203-3.038-.565-4.393.457-.966 1.059-1.057 2.105-1.987 2.755-2.43 2.04-4.897 4.632-6.513.283-.176 1.763-1.106 2.52-.571.88.607.344 2.825 0 4.253-.372 1.466-.888 2.89-1.54 4.253-1.286 3.22-.258 6.538.56 9.211.33 1.097.783 2.153 1.348 3.147.968 1.726 2.141 3.196 3.705 6.915.337.795.602 1.543.867 2.23.354.965.601 1.822.818 2.43l.138.99c1.038 6.565.251 13.291-2.274 19.43z" transform="translate(0 87)"/>
        <path fill="#C85041" d="M818.97 35.005c-1.445 1.624-3.096 3.05-4.91 4.24-2.961 1.927-5.53 4.49-10.67 9.608-3.348 3.369-6.305 7.108-8.816 11.147-.247-.685-.53-1.43-.867-2.223-1.565-3.708-2.738-5.174-3.707-6.894.427-.455.909-.933 1.462-1.448 3.248-2.889 6.774-5.444 10.526-7.627 3.749-2.248 6.535-3.441 7.582-6.494.434-1.273.452-2.533 1.54-3.254 1.307-.86 2.474.14 4.911 0 3.515-.2 5.417-2.514 5.898-1.98.481.533-1.27 3.059-2.949 4.925zM783 64.715c-1.631 2.207-4.278 5.92-5.45 7.79-1.057 1.696-1.995 3.343-2.825 4.917-1.156.03-2.302.225-3.406.578-2.037-1.568-5.222-2.865-7.17-3.486l-.149-.049c1.153-1.629 2.258-3 3.214-4.106 2.13-2.596 4.564-4.909 7.248-6.886 3.244-2.323 4.182-2.12 6.459-3.473.112 1.178.477 2.317 1.07 3.332.29.495.628.958 1.009 1.383z" transform="translate(0 87)"/>
        <path fill="#DF8C53" d="M750 145.094c-1.23 1.855-2.523 3.727-3.877 5.615-3.077 4.326-6.154 8.423-9.23 12.291-4.565-2.092-9.25-3.9-14.031-5.415l-1.779-.556c-.363-.118-.714-.237-1.083-.38l8.332-9.496c.394.1.806.181 1.194.244.059.056.123.106.19.15.21.13.96.274 2.24.704.716.117 1.449.021 2.112-.274.34.182.717.283 1.101.293.616.062.985-.094 2.37-.58 1.796-.624 2.08-.711 2.08-.874 0-.287-.911-.623-1.76-.517.996-.861 2.012-1.791 3.033-2.79.443-.436.874-.873 1.293-1.303.572-.069 1.132-.131 1.673-.206 1.689.578 3.31 1.34 4.837 2.27.464.271.899.546 1.305.824z" transform="translate(0 87)"/>
        <path fill="#AE6C3E" d="M721.313 147.105c.182.39 1.332 1.026 5-.866l.61-.303c-.117.31-.097.658.054.952.498.368 1.076.606 1.685.693L720.4 157c-.28-.105-.571-.229-.894-.371l-.371-.167c-4.137-1.917-5.688-4.193-10.701-6.865-.81-.433-1.613-.847-2.434-1.237 2.58-2.789 5.427-5.683 8.584-8.608 2.227-2.062 4.411-3.98 6.553-5.752 2.47 1.237 5.037 2.474 7.708 3.71 1.399.62 2.786 1.238 4.155 1.856-1.163.384-2.273.916-3.304 1.583-.212.142-.851.674-2.129 1.732-3.504 2.863-6.351 3.983-6.254 4.224z" transform="translate(0 87)"/>
        <path fill="#21417E" d="M719 155.958l-.236 1.042L705 150.49l.583-2.49c.813.388 1.639.793 2.483 1.211 5.107 2.629 6.696 4.87 10.934 6.747zM737 161.986L734.54 164 721 157.172c.162-.399.355-.83.505-1.172l1.745.555c4.685 1.52 9.277 3.335 13.75 5.431z" transform="translate(0 87)"/>
        <path fill="#923838" d="M722 156.884c-.177.327-.404.736-.596 1.116l-1.957-.795-.447-.184.27-1.021.432.16c.376.143.71.255 1.043.356.432.137.837.256 1.255.368zM694.88 127.394c-3.251-4.705-11.808-3.248-13.401-2.937-.836.158-1.663.358-2.479.6 1.425.809 2.473 2.2 2.443 3.596-.032.694-.293 1.358-.742 1.888.321.118.629.273.916.461.625-1.414 1.955-2.389 3.49-2.559.525-.038 1.05.033 1.546.21.416-1.06 1.158-1.958 2.12-2.565.896-.635 2.01-.882 3.09-.684 2.071.552 3.155 3.357 2.933 5.556-.131 1.192-.631 2.313-1.43 3.207.247.266.48.544.7.833 1.126-1.1 1.814-2.572 1.934-4.142v-.21c-.04-1.172-.43-2.306-1.12-3.254zM676 137.933c-.164.343-.29.7-.373 1.067-4.234-1.318-7.53-3.763-7.626-6.237v-.03c-.038-1.348.874-2.613 2.3-3.733-.462 1.522-.392 3.17.7 4.146.537.466 1.234.738 1.967.767-.217.563-.237 1.175-.058 1.75.263.615.738 1.13 1.349 1.468.532.35 1.12.62 1.741.802z" transform="translate(0 87)"/>
        <path fill="#FB8715" d="M681 128.6c-.032.74-.288 1.448-.727 2.013-1.284-.546-2.717-.493-3.965.148-1.247.64-2.199 1.81-2.633 3.239-.667-.031-1.302-.321-1.791-.818-.995-1.042-1.06-2.8-.638-4.423.219-.859.573-1.67 1.048-2.396.779-1.26 2.002-2.11 3.378-2.346 1.022-.089 2.045.17 2.927.741 1.405.863 2.43 2.346 2.4 3.842z" transform="translate(0 87)"/>
        <path fill="#FFF" d="M682.797 135.358c-.925-.477-1.982-.629-3.003-.432-1.634.375-2.99 1.519-3.64 3.074-.61-.193-1.187-.48-1.71-.851-.6-.357-1.066-.904-1.325-1.556-.176-.609-.156-1.258.057-1.855.467-1.42 1.493-2.583 2.837-3.22 1.344-.636 2.89-.689 4.273-.146.34.126.663.29.966.489.654.413 1.167 1.018 1.47 1.734.343.884.37 1.86.075 2.763z" transform="translate(0 87)"/>
        <path fill="#FB8715" d="M686 139.553c-.552.135-1.112.24-1.676.316-2.805.329-5.651.038-8.324-.851.08-.364.199-.72.356-1.06.633-1.456 1.952-2.528 3.542-2.88.993-.184 2.022-.041 2.922.405.316.147.616.325.896.53.649.464 1.196 1.048 1.609 1.72.339.56.568 1.178.675 1.82z" transform="translate(0 87)"/>
        <path fill="#FFF" d="M694 135.799c-1.89 1.982-4.905 3.477-7.796 4.201-.104-.625-.325-1.226-.652-1.773-.399-.653-.926-1.223-1.552-1.675.333-1.136 1.065-2.12 2.068-2.781 1.06-.643 2.32-.896 3.554-.713h.136c1.371.229 2.623.902 3.555 1.912.243.265.473.542.687.829z" transform="translate(0 87)"/>
        <path fill="#FB8715" d="M689 132.556h-.135c-1.222-.18-2.47.069-3.522.703-.993.65-1.718 1.621-2.048 2.741-.268-.197-.555-.367-.857-.508.273-.811.249-1.69-.07-2.485-.282-.643-.76-1.187-1.368-1.559.613-1.347 1.917-2.276 3.422-2.438.513-.037 1.03.031 1.514.2.944.367 1.76.991 2.348 1.798.332.47.575.995.716 1.548z" transform="translate(0 87)"/>
        <path fill="#FFF" d="M693.972 130.731c-.128 1.216-.615 2.358-1.393 3.269-.917-1.065-2.15-1.775-3.5-2.016-.148-.603-.401-1.173-.746-1.68-.585-.864-1.395-1.532-2.333-1.925.405-1.08 1.128-1.995 2.065-2.615.872-.647 1.957-.898 3.009-.696 2.059.562 3.114 3.421 2.898 5.663z" transform="translate(0 87)"/>
        <path fill="#21417E" d="M695.075 136.992c-.476 1.29-1.189 2.479-2.1 3.502-2.108 2.269-4.902 3.76-7.941 4.237-2.968.585-6.043.21-8.789-1.073-2.06-.984-3.844-2.477-5.187-4.342-1.264-1.81-2.227-4.293-2.033-6.568.09 2.533 3.196 5.035 7.184 6.384 2.636.916 5.441 1.216 8.207.877.557-.077 1.108-.186 1.653-.325 2.953-.742 6.052-2.349 7.965-4.446 1.138-1.125 1.833-2.631 1.955-4.238.076 2.038-.234 4.072-.914 5.992z" transform="translate(0 87)"/>
        <path fill="#FFD974" d="M706.998 116.92c.003.044.003.089 0 .133 0 .084 0 .163-.049.241-.206.725-.988 1.426-2.068 1.993-.706-.272-1.434-.485-2.176-.634-2.032-.429-5.173-.368-6.846 1.347-.678-.197-1.266-.625-1.662-1.208-.084-.254-.145-.47-.188-.604-.17-1.612 1.99-3.714 3.548-4.566 2.067-1.135 3.868-.477 5.323.085 1.037.362 4.118 1.57 4.118 3.213z" transform="translate(0 87)"/>
        <path fill="#21417E" d="M696 120.01c-.183.128-.35.267-.496.415-.186.178-.34.372-.46.575-.402-.725-.789-1.5-1.044-2 .474.487 1.181.844 2 1.01z" transform="translate(0 87)"/>
        <path fill="#FFD974" d="M706 122c-1.171 3.547-2.704 6.303-4.1 6.882-.177.077-.367.117-.56.118-.167-.006-.333-.033-.493-.08-2.168-.623-4.361-5.047-4.847-6.018v-.062c.87.495 1.822.83 2.81.99 2.543.336 5.118-.319 7.19-1.83z" transform="translate(0 87)"/>
        <path fill="#21417E" d="M707 117c-.173 1.019-.387 2.032-.595 3-.405-.402-.883-.712-1.405-.911 1.03-.595 1.798-1.33 2-2.089z" transform="translate(0 87)"/>
        <path fill="#FFF" d="M705 118.8c-1.635.764-3.44 1.174-5.274 1.2-1.267.008-2.527-.18-3.726-.556 1.67-1.578 4.802-1.633 6.829-1.239.74.141 1.467.34 2.171.595z" transform="translate(0 87)"/>
        <path fill="#21417E" d="M707 119.869c-.196.776-.415 1.529-.646 2.244-1.98 1.493-4.443 2.138-6.873 1.799-.94-.157-1.847-.486-2.675-.973-.23-.49-.521-1.223-.806-2.018.097-.25.222-.485.374-.704.119-.181.254-.351.403-.507 1.176.413 2.41.62 3.653.611 1.798-.028 3.567-.48 5.17-1.321.52.189.995.484 1.4.869z" transform="translate(0 87)"/>
        <path fill="#FFD974" d="M701 131c-.292 1.532-.99 2.927-2 4" transform="translate(0 87)"/>
        <path fill="#01040C" d="M699.145 135l-.145-.188c.907-1.018 1.532-2.35 1.79-3.812l.21.045c-.268 1.517-.915 2.898-1.855 3.955z" transform="translate(0 87)"/>
        <path fill="#FFD974" d="M706 134.878c0 1.722-1.792 3.122-3.997 3.122S698 136.6 698 134.878c0-1.597 1.535-2.908 3.514-3.098.1-.53.122-1.072.063-1.608-.041-.385-.121-.765-.238-1.134.16.049.327.077.495.082.194 0 .386-.042.564-.12-.086.237-.153.48-.2.728-.114.68-.074 1.378.118 2.04 2.043.126 3.684 1.47 3.684 3.11z" transform="translate(0 87)"/>
        <path fill="#2D323D" d="M704.77 135c-.05-.002-.097-.019-.137-.047-1.251-.908-2.172-2.195-2.626-3.666-.03-.122.042-.245.164-.278.058-.017.12-.01.172.02.053.029.091.078.107.136.426 1.375 1.287 2.578 2.456 3.428.05.034.082.087.092.146.009.059-.007.12-.044.166-.044.058-.112.093-.184.095z" transform="translate(0 87)"/>
        <path fill="#FFD974" d="M677.998 103.89c.003.044.003.088 0 .133 0 .078 0 .163-.043.241-.206.725-.994 1.425-2.074 1.993-.705-.262-1.431-.464-2.17-.604-2.032-.429-5.173-.368-6.853 1.347-.676-.199-1.261-.626-1.655-1.208-.085-.26-.152-.47-.194-.604-.164-1.612 1.995-3.72 3.547-4.566 2.068-1.135 3.875-.477 5.33.085 1.013.356 4.105 1.534 4.112 3.183z" transform="translate(0 87)"/>
        <path fill="#21417E" d="M667 107c-.408.29-.734.629-.96 1-.395-.725-.79-1.5-1.04-2 .476.482 1.183.835 2 1z" transform="translate(0 87)"/>
        <path fill="#FFD974" d="M676 109c-1.17 3.55-2.709 6.302-4.103 6.888-.175.075-.364.113-.555.112-.168-.004-.336-.029-.498-.075-2.167-.623-4.358-5.05-4.844-6.022v-.062c.87.493 1.821.828 2.808.99 2.544.339 5.12-.317 7.192-1.831z" transform="translate(0 87)"/>
        <path fill="#21417E" d="M678 104c-.175 1.019-.386 2.025-.62 3-.398-.402-.868-.712-1.38-.911 1.04-.595 1.801-1.33 2-2.089z" transform="translate(0 87)"/>
        <path fill="#FFF" d="M676 105.805c-1.635.766-3.44 1.175-5.274 1.195-1.267.008-2.527-.18-3.726-.556 1.675-1.578 4.839-1.633 6.835-1.239.739.143 1.463.344 2.165.6z" transform="translate(0 87)"/>
        <path fill="#21417E" d="M677 106.873c-.196.776-.41 1.528-.64 2.242-1.982 1.493-4.447 2.136-6.88 1.796-.94-.159-1.845-.488-2.674-.971-.225-.489-.521-1.222-.806-2.016.183-.453.446-.868.777-1.222 1.176.413 2.41.62 3.653.611 1.798-.022 3.568-.471 5.17-1.313.52.19.996.488 1.4.873z" transform="translate(0 87)"/>
        <path fill="#FFD974" d="M671 119c-.29 1.533-.987 2.929-2 4" transform="translate(0 87)"/>
        <path fill="#01040C" d="M669.145 123l-.145-.189c.905-1.019 1.53-2.349 1.79-3.811l.21.046c-.27 1.516-.917 2.896-1.855 3.954z" transform="translate(0 87)"/>
        <path fill="#FFD974" d="M676 121.878c0 1.722-1.793 3.122-4 3.122s-4-1.4-4-3.122c0-1.597 1.53-2.914 3.511-3.098.1-.532.123-1.076.069-1.615-.041-.383-.123-.761-.245-1.127.164.047.332.072.502.076.192.001.382-.037.558-.114-.088.236-.153.48-.194.728-.116.68-.078 1.377.112 2.04 2.063.126 3.687 1.47 3.687 3.11z" transform="translate(0 87)"/>
        <path fill="#2D323D" d="M674.774 122c-.049 0-.096-.014-.137-.04-1.251-.911-2.174-2.2-2.629-3.673-.021-.078 0-.161.057-.219.056-.058.14-.08.218-.061.079.02.14.08.162.158.427 1.38 1.292 2.584 2.465 3.434.049.035.08.089.088.148.008.059-.01.118-.047.165-.04.057-.107.09-.177.088z" transform="translate(0 87)"/>
        <path fill="#F36B53" d="M691 39.624c0 .212-.126.404-.32.49l-1.052.447c.062.111.106.231.133.356.056.32-.008.65-.181.924-.266.163-.55.32-.853.478.024.182.01.367-.042.543-.115.399-.43.701-1.293 1.166-.665.38-1.376.672-2.116.87-.684.182-1.384.294-2.091.332h-.762l-.604.393c-.412.701-.783 1.425-1.112 2.169-1.07 2.416-5.785 15.289-8.855 19.288-1.469 1.909-2.514 3.062-4.177 3.54-2.605.749-4.267.277-5.264-.43-1.73-1.315-3.239-2.9-4.467-4.693-3.21-4.978-3.904-6.512-4.944-9.623.388-.688.872-1.316 1.439-1.867 2.732-2.676 11.35-3.376 11.35-3.376.364 2.525.598 5.068.702 7.617V58.2c.725-1.396 10.734-14.256 11.29-14.897.485-.5.893-1.07 1.21-1.691.368-.773.604-1.752 1.262-3.335.103-.278.266-.53.478-.737.237-.203.526-.337.834-.386.204-.036.405-.082.604-.14.57-.192 1.074-.545 1.451-1.014.215.121.382.313.471.544-.18.217-.356.44-.537.676-.472.604-.907 1.245-1.294 1.843.15.056.304.102.46.139.261.06.529.09.797.09.74-.352 1.508-.64 2.297-.858 1.214-.31 2.465-.448 3.717-.41.18.15.33.332.441.537.092.17.16.35.206.538h.205c.289-.044.558.153.605.44.007.029.01.057.012.085z" transform="translate(0 87)"/>
        <path fill="#FFD974" d="M45.025 211.93c-.22 1.773 1.017 3.399 2.793 3.67 8.248 1.26 16.793 2.398 25.636 3.414 11.766 1.334 23.1 2.327 34.002 2.98 1.461.091 2.814-.77 3.34-2.13.324-.883.26-1.861-.177-2.695-.436-.834-1.204-1.448-2.118-1.691-5.204-1.352-9.683-2.282-13.146-2.93-11.113-2.04-22.373-3.183-33.67-3.42-5.254-.166-9.812-.147-13.405-.074-1.643.032-3.014 1.255-3.224 2.875h-.03z" transform="translate(0 87)"/>
        <path fill="#F3AB55" d="M37.134 213.368c-.506 1.727.462 3.543 2.179 4.083 7.915 2.518 16.138 4.955 24.669 7.31 11.362 3.122 22.35 5.842 32.96 8.16 1.423.315 2.884-.33 3.612-1.592.476-.827.576-1.818.276-2.724-.3-.907-.973-1.641-1.85-2.02-4.895-2.13-9.179-3.74-12.471-4.898-10.61-3.713-21.502-6.565-32.57-8.527-5.134-.967-9.614-1.647-13.163-2.13-1.62-.217-3.154.782-3.611 2.35l-.03-.012z" transform="translate(0 87)"/>
        <path fill="#FB8715" d="M819.964 154.198c-12.225 13.52-23.876 12.418-23.876 12.418-5.367-.5-9.04-3.026-15.404-1.547-1.226.262-2.419.661-3.557 1.19-4.15 1.934-5.318 4.602-8.766 7.486-1.375 1.159-3.313 2.164-7.127 4.135-12.837 6.625-13.95 4.98-18.485 8.733-5.25 4.356-6.498 8.843-9.432 8.35-.775-.161-1.455-.627-1.888-1.294l-.367-.481c-.756-1.12-1.685-2.11-2.75-2.933l-.447-.327-.324-.21c-2.042-1.3-3.325-1.312-4.89-1.552-.202 0-.398-.062-.611-.105-.904-.17-1.782-.46-2.61-.863-.95-.428-1.829-1.002-2.605-1.7-.14-.124-.268-.253-.403-.389-.972-.967-1.895-2.181-3.264-3.852l-.349-.425c-.61-.758-1.369-1.614-2.237-2.57-.513-.554-1.088-1.176-1.742-1.848l-.434-.438c-.715-.727-1.51-1.51-2.396-2.335 5.13-4.138 10.84-7.486 16.944-9.934 7.03-2.798 9.267-2.2 21.572-6.6 10.44-3.735 10.587-4.788 16.363-6.015 9.047-1.928 9.78.432 20.783-1.17 5.061-.728 12.342-1.85 20.22-6.403 1.822-1.056 3.572-2.231 5.24-3.519.923.883 1.523 2.056 1.699 3.328.046.426.046.856 0 1.281 0 .235-.055.463-.074.678-.08.654-.098 1.171.287 1.529.12.115.271.195.434.228.577.023 1.153-.06 1.7-.247.755-.184 1.543-.184 2.298 0 .874.24 1.675.693 2.335 1.319.14.137.27.283.391.437.234.288.418.613.544.962.118.322.18.661.184 1.004 0 .469-.074.85-.043 1.171.008.194.086.378.22.518v.03c.348.269.794.37 1.223.278.311-.034.62-.091.923-.173.776-.197 1.497-.419 1.705-.104.318.511-.923 1.891-.984 1.96z" transform="translate(0 87)"/>
        <path fill="#F3AB55" d="M121.999 236.853c.063 3.192-2.448 5.848-5.653 5.983l-3.83.159c-3.224.135-5.961-2.328-6.149-5.533-.153-2.654-.281-5.143-.367-7.462 1.583.974 3.321 1.673 5.14 2.07 3.615.74 7.375.298 10.718-1.26.067 2.276.11 4.315.14 6.043z" transform="translate(0 87)"/>
        <path fill="#21417E" d="M122 231.353c-3.33 1.594-7.075 2.047-10.676 1.29-1.811-.406-3.542-1.122-5.12-2.118-.194-5.07-.237-9.305-.182-12.525 1.734 1.86 3.988 3.125 6.453 3.625 3.18.568 6.453-.163 9.11-2.037.183 4.223.317 8.246.415 11.765z" transform="translate(0 87)"/>
        <path fill="#F3AB55" d="M122 219.791c-2.732 1.86-6.096 2.587-9.366 2.022-2.534-.496-4.851-1.753-6.634-3.599.031-1.57.094-2.9.17-3.951.079-2.605.902-5.134 2.373-7.297.702-.974 1.547-1.838 2.506-2.567.159-3.71.289-7.455.389-11.236.046-1.731.083-3.452.113-5.163.658.193 1.343.285 2.03.272.677.01 1.353-.079 2.004-.266.104 2.148.217 4.3.338 6.456.171 3.162.353 6.3.545 9.412.82.541 1.566 1.186 2.218 1.917 2.656 3.005 2.913 6.715 3.038 8.855.144 1.732.195 3.457.276 5.145z" transform="translate(0 87)"/>
        <path fill="#21417E" d="M116 186.003c0 .349-.539.66-1.369.838-1.076.212-2.186.212-3.262 0-.824-.177-1.369-.49-1.369-.838 0-.55 1.343-1.003 3.003-1.003 1.66 0 2.997.459 2.997 1.003z" transform="translate(0 87)"/>
        <path fill="#21417E" d="M116 186v1.884c0 .324-.374.62-.97.819-.658.208-1.341.308-2.027.296-.694.014-1.387-.088-2.053-.303-.589-.206-.95-.488-.95-.812V186c0 .392.545.743 1.369.942 1.076.239 2.186.239 3.262 0 .83-.179 1.369-.55 1.369-.942z" transform="translate(0 87)"/>
        <path fill="#FFD974" d="M809 144c0 .236-.055.465-.073.682-5.375 3.121-11.293 5.153-17.426 5.985-13.746 1.65-20.37 1.581-20.43 1.581h-.208c-1.731-.066-3.464.065-5.167.39-4.265.844-6.934 2.736-9.53 4.571-.81.565-1.638 1.154-2.51 1.7-2.122 1.427-4.546 2.323-7.074 2.617-3.512.565-6.957 1.5-10.279 2.79-2.922 1.07-5.763 2.358-8.5 3.851-2.071 1.092-4.423 2.332-8.402 4.031-3.266 1.42-6.63 2.66-9.968 3.802l-.433-.44c3.449-1.148 6.867-2.444 10.224-3.876 3.955-1.693 6.294-2.921 8.354-4.013 2.759-1.505 5.622-2.802 8.567-3.882 3.35-1.296 6.82-2.244 10.358-2.828 2.46-.274 4.82-1.142 6.885-2.53.853-.546 1.682-1.122 2.486-1.687 2.645-1.86 5.374-3.795 9.75-4.657 1.74-.335 3.512-.47 5.282-.403h.201c.06 0 6.654.068 20.363-1.575 6.18-.848 12.136-2.924 17.53-6.109z" transform="translate(0 87)"/>
        <path fill="#FFD974" d="M811 147c-3.243 1.699-6.624 3.121-10.108 4.253-6.706 2.163-12.461 2.831-17.106 3.36-3.712.449-7.449.664-11.187.644-3.128 0-4.878 0-8.12 1.276-1.651.63-3.224 1.445-4.689 2.43-2.455 1.606-5.027 3.027-7.694 4.253-2.06.966-3.048 1.361-7.315 3.008l-3.548 1.379c-16.327 6.355-18.076 7.29-19.35 7.971-2.974 1.6-5.826 3.413-8.536 5.426l-.347-.42c2.744-2.03 5.633-3.857 8.645-5.467 1.353-.73 3.048-1.629 19.405-7.996l3.548-1.373c4.267-1.647 5.243-2.036 7.315-2.996 2.648-1.208 5.201-2.611 7.64-4.198 1.491-1.014 3.095-1.854 4.779-2.503 3.365-1.306 5.23-1.306 8.321-1.313 3.719.02 7.435-.193 11.126-.638 4.615-.528 10.364-1.215 16.997-3.335 2.94-.951 5.81-2.11 8.584-3.47.56.002 1.115-.097 1.64-.291z" transform="translate(0 87)"/>
        <path fill="#FFD974" d="M817 148.433c-14.712 5.901-27.665 8.892-38.54 8.904h-.558c-4.516-.084-9.023.435-13.4 1.544-4.101 1.068-6.075 2.154-9.992 4.314-2.293 1.27-5.143 2.844-9.434 4.98-4.291 2.136-7.21 3.43-9.588 4.492-3.85 1.714-6.167 2.752-9.863 5.382-2.935 2.079-5.685 4.404-8.22 6.951-.141-.122-.27-.25-.405-.384 2.557-2.57 5.33-4.918 8.288-7.018 3.74-2.661 6.075-3.699 9.955-5.432 2.372-1.055 5.327-2.374 9.563-4.485 4.236-2.112 7.13-3.704 9.422-4.962 3.954-2.184 5.946-3.283 10.115-4.369 4.422-1.124 8.977-1.65 13.541-1.562h.558c10.758 0 23.57-2.972 38.147-8.788.147.135.284.28.411.433z" transform="translate(0 87)"/>
        <path fill="#FFD974" d="M817 150.576c-13.273 5.932-25.527 8.935-36.557 8.935h-1.274c-3.677-.037-9.29-.098-16.121 2.138-2.591.825-5.04 2.042-7.261 3.61-2.292 1.464-5.442 3.468-11.594 6.692-1.88.986-3.504 1.807-4.901 2.53-4.841 2.452-7.507 3.775-10.975 6.974-2.129 1.973-4.041 4.167-5.704 6.545-.202 0-.399-.061-.613-.104 1.722-2.493 3.713-4.789 5.937-6.845 3.524-3.254 6.22-4.615 11.103-7.066 1.428-.717 3.064-1.538 4.902-2.518 6.128-3.212 9.265-5.215 11.55-6.674 2.25-1.594 4.73-2.834 7.353-3.677 6.924-2.261 12.568-2.2 16.3-2.163h1.298c11.03 0 23.284-3.009 36.507-8.953.037.19.053.383.05.576z" transform="translate(0 87)"/>
        <path fill="#FFD974" d="M817 152.486c-3.061 1.892-6.263 3.548-9.577 4.955-4.52 1.927-13.89 5.92-25.773 5.92h-.317c-2.141 0-3.788-.157-5.246-.279-2.724-.347-5.486-.255-8.18.274-1.025.194-4.16.802-11.17 4.225-7.32 3.574-13.627 6.656-20.197 12.9-3.025 2.882-5.738 6.072-8.095 9.519l-.445-.322c2.368-3.471 5.093-6.686 8.131-9.593 6.631-6.304 12.981-9.398 20.332-12.99 6.338-3.107 9.492-3.928 11.31-4.256 2.746-.536 5.561-.63 8.338-.28 1.434.122 3.05.268 5.191.28 11.938.055 21.35-3.945 25.877-5.879 3.311-1.41 6.511-3.068 9.57-4.96.023.187.111.36.251.486z" transform="translate(0 87)"/>
        <path fill="#FFD974" d="M820 152c-2.834 3.103-6.128 5.75-9.764 7.851-2.866 1.765-6.011 3.024-9.3 3.724-1.77.349-2.68.343-7.025.306h-1.568c-12.242-.085-14.152.098-16.392.862-.61.208-2.935 1.407-7.14 3.578-2.764 1.43-4.394 2.31-5.706 3.026-1.117.612-2.002 1.083-3.124 1.645-3.323 1.653-6.771 3.038-10.314 4.14-.818.269-1.526.501-2.124.728-5.65 2.122-10.74 7.203-15.177 15.14l-.366-.477c4.48-7.95 9.63-13.03 15.348-15.183.61-.226 1.324-.459 2.154-.734 3.517-1.09 6.94-2.464 10.234-4.11 1.111-.556 1.99-1.032 3.107-1.638 1.312-.71 2.947-1.596 5.718-3.027 4.37-2.25 6.56-3.387 7.213-3.614 2.313-.782 4.272-.972 16.575-.886h1.568c4.272 0 5.194.043 6.915-.3 3.237-.691 6.333-1.932 9.154-3.669 3.384-1.942 6.468-4.369 9.154-7.203.29-.032.577-.085.86-.159z" transform="translate(0 87)"/>
        <path fill="#21417E" d="M50 213.443c0 .193-1.586.145-3.607 1.202-.721.379-1.39.843-1.989 1.382L42 217c.406-1.236 1.232-2.308 2.348-3.046 2.499-1.592 5.633-.769 5.652-.51zM59 215.445c0 .192-1.591.138-3.61 1.203-.72.38-1.387.845-1.987 1.384L51 219c.408-1.237 1.233-2.31 2.346-3.05 2.497-1.588 5.635-.764 5.654-.505zM68 217.444c0 .186-1.591.138-3.61 1.2-.716.385-1.383.847-1.987 1.379L60 221c.406-1.234 1.232-2.303 2.346-3.04 2.503-1.601 5.635-.774 5.654-.516zM78 220.448c0 .192-1.59.144-3.607 1.198-.718.38-1.385.843-1.986 1.378L70 224c.41-1.23 1.234-2.297 2.344-3.037 2.508-1.61 5.637-.772 5.656-.515zM88 223.435c0 .186-1.591.138-3.61 1.202-.717.384-1.385.849-1.987 1.383L80 227c.405-1.237 1.23-2.31 2.346-3.048 2.503-1.605 5.635-.746 5.654-.517zM76 122.281c-8.593 6.248-15.984 10.624-16.898 9.559l-.05-.073c-.52-1.01 2.935-5.194 7.078-9.407.407-.412.82-.83 1.252-1.21 1.42-1.4 2.891-2.773 4.275-3.99 1.251-1.096 2.503-2.155 3.799-3.16.056 1.604.15 3.16.244 4.625.058 1.21.158 2.43.3 3.656zM93 107.263c-1.25 1.101-2.55 2.27-3.892 3.458-4.018 3.55-8.41 7.112-12.596 10.279-.1-.934-.175-1.855-.237-2.808-.113-1.818-.231-3.785-.275-5.801 1.643-1.274 3.293-2.474 4.91-3.581l1.288-.86c3.322-2.226 6.8-4.214 10.408-5.95.188 1.604.319 3.358.394 5.263z" transform="translate(0 87)"/>
        <path fill="#FFD974" d="M76 125.43c-.922.754-1.898 1.588-2.948 2.5-2.626 2.437-5.665 4.397-8.98 5.79-1.269.52-2.574.947-3.906 1.28-.421-1.28-.812-2.458-1.166-3.466.916 1.063 8.125-3.303 16.481-9.534.165 1.147.324 2.3.519 3.43zM93 112.875c-4.895 5.137-8.269 6.2-15.565 12.125-.177-1.144-.322-2.289-.435-3.433 4.044-3.128 8.287-6.646 12.167-10.152 1.298-1.173 2.578-2.328 3.76-3.415.03 1.533.073 3.158.073 4.875z" transform="translate(0 87)"/>
        <path fill="#BADC7A" d="M99.291 138.587c-1.165 1.904-2.614 3.361-5.55 6.263-2.725 2.724-15.218 15.194-22.586 14.08-.557-.08-1.097-.253-1.597-.508-1.234-.613-1.77-1.574-3.67-5.969.003-.012.003-.025 0-.037-1.85-4.285-3.526-9.42-4.932-13.871-.333-1.041-.652-2.03-.956-2.97 1.345-.337 2.664-.77 3.946-1.297 3.344-1.415 6.41-3.405 9.059-5.877 1.06-.924 2.047-1.77 2.978-2.534.34 2.008.77 4.01 1.295 5.987.087.324.383.55.721.55.062.007.124.007.185 0 .191-.048.355-.17.454-.34.1-.169.127-.37.077-.56-.58-2.207-1.047-4.438-1.4-6.69 7.455-5.938 10.902-7.004 15.903-12.152 0 2.675-.124 5.57-.321 8.668-.036.274.085.544.312.702.228.158.525.178.771.051.247-.127.402-.379.403-.655.216-3.367.358-6.923.34-10.406.289-.319.616-.662.887-1.017 1.632-1.916 3.155-3.92 4.563-6.005.607 2.19 1.103 4.409 1.486 6.648 1.381 9.017 2.96 19.222-2.368 27.94z" transform="translate(0 87)"/>
        <path fill="#21417E" d="M95 110.924c0 3.444-.124 6.978-.341 10.343-.001.274-.158.524-.406.65-.248.127-.547.107-.776-.05-.229-.157-.35-.426-.314-.698.198-3.078.304-5.956.323-8.615 0-1.71 0-3.327-.075-4.867-.074-1.874-.205-3.6-.391-5.177-.745-6.382-2.365-10.252-4.748-10.951-2.148-.609-4.618 1.283-5.804 2.202-2.047 1.645-3.575 3.827-4.406 6.29-.205.56-.391 1.145-.547 1.735-.924 3.431-1.08 7.3-.993 10.951-.49.377-.98.76-1.464 1.15-.168-4.49-.038-9.34 1.322-13.555.173-.536.36-1.059.583-1.576.951-2.401 2.528-4.516 4.574-6.133 1.279-.985 4.27-3.297 7.157-2.433 3.314.96 5.027 5.621 5.79 11.705.175 1.43.305 2.945.392 4.509.087 1.563.118 2.975.124 4.52z" transform="translate(0 87)"/>
        <path fill="#21417E" d="M78.414 132.995c-.064.007-.128.007-.193 0-.353 0-.661-.23-.752-.562-.546-2.02-.997-4.064-1.35-6.115-.206-1.182-.373-2.364-.521-3.552-.148-1.188-.264-2.538-.347-3.807-.097-1.513-.193-3.127-.251-4.777.502-.4 1.01-.794 1.517-1.182.046 2.038.168 4.027.283 5.865.065.944.142 1.876.245 2.838.124 1.176.278 2.347.463 3.514.373 2.293.86 4.57 1.46 6.834.06.197.035.41-.07.588-.104.178-.279.307-.484.356zM77 98.451c-.216.518-.396 1.041-.564 1.577-2.046-2.635-4.81-4.602-7.947-5.656-1.698-.536-6.22-1.948-9.597.542-2.32 1.814-3.6 4.68-3.413 7.647.252 2.855 2.051 4.523 4.324 6.63 2.274 2.106 5.003 4.596 6.754 8.992.344.846.632 1.715.864 2.6-.402.413-.798.833-1.2 1.217-.246-1.125-.585-2.227-1.013-3.294-1.65-4.085-4.199-6.41-6.382-8.462-2.4-2.228-4.493-4.152-4.799-7.586-.251-3.483 1.255-6.857 4-8.962 3.96-2.922 9.16-1.296 10.87-.76C72.047 93.98 74.85 95.89 77 98.45zM83 108.168l-1.238.832c-.93-2.584-2.194-5.037-3.762-7.295.15-.598.33-1.154.529-1.705 1.881 2.492 3.387 5.244 4.471 8.168z" transform="translate(0 87)"/>
        <path fill="#BADC7A" d="M72 158.994c-2.45.06-4.89-.312-7.206-1.098-1.105-.392-6.794-.662-6.794-4.777 0-2.348.874-6.181 1.249-14.374.119-2.397.25-5.255.15-6.745l.05.074c.362 1.024.762 2.22 1.192 3.52.308.936.631 1.927.968 2.974.063 2.74.213 4.973.369 6.665.043.54.674 7.463-.8 8.978-.068.067-.318.312-.268.564.1.466 1.161.484 2.666.828 2.036.466 2.36.956 2.792.736.43-.221.818-.865.28-3.84 1.924 4.404 2.498 5.348 3.716 5.98.512.26 1.065.434 1.636.515z" transform="translate(0 87)"/>
        <path fill="#21417E" d="M66.474 155.945c-.432.223-.757-.273-2.796-.743-1.508-.347-2.571-.365-2.671-.836-.05-.254.2-.502.269-.57 1.476-1.53.844-8.52.8-9.065-.156-1.71-.306-3.963-.369-6.731 1.458 4.502 3.172 9.722 5.036 14.031.003.013.003.025 0 .038.55 3.003.1 3.696-.269 3.876zM99 101.432c0 .86-1.93 2.955-4.622 5.568-.084-1.603-.21-3.155-.378-4.62 2.752-1.248 4.598-1.684 4.94-1.166l.06.218z" transform="translate(0 87)"/>
        <path fill="#FFD974" d="M100 104.017c-1.515 2.073-3.155 4.067-4.912 5.973-.325.353-.663.688-.955 1.01 0-1.551-.053-3.084-.133-4.568 2.98-2.549 5.11-4.593 5.117-5.432.206.724.531 1.788.883 3.017z" transform="translate(0 87)"/>
    </g>
</svg>
