<svg xmlns="http://www.w3.org/2000/svg" width="75" height="74" viewBox="0 0 75 74">
    <g fill="none">
        <path fill="#FFE8DE" d="M17.05 30.24s3.8-.82 4-5.59c-.15 3.48-1.63 5.88-4 7.1-1.209.645-2.474 1.177-3.78 1.59h1.3s-1.59.41-1.48.41h.67c-2.788 1.803-5.283 4.022-7.4 6.58-1.706 2.11-2.953 4.551-3.66 7.17l1-1.55c-1.015 1.9-1.534 4.026-1.51 6.18-.033 1.613.128 3.225.48 4.8l.37-1.4.78 3.18V57.3c.564 2.354 1.81 4.49 3.58 6.14 1.523 1.714 3.35 3.132 5.39 4.18L11 67.21l2.22 1.37h-.93s1.32 1.4 6.57 2.14c-.802.07-1.608.07-2.41 0 1.495.958 3.225 1.487 5 1.53 3.08.15 5.72 0 5.72 0l-.74.22s3.45.06 4.59-.54c1.14-.6-2.81-41.25-2.81-41.25S36.71 13.9 24 7.59C11.29 1.28 2.49 14.09 4.76 23c2.27 8.91 10.33 8.26 12.29 7.24z"/>
        <path fill="#DD6C3C" d="M29 41.17c1.268-1.155 2.604-2.234 4-3.23 1.775-1.252 3.626-2.394 5.54-3.42l-2.22.34 2.07-1.3-1 .19s3.54-2.8 4.84-6.24c.805-2.147 1.397-4.368 1.77-6.63l-.84 1.36c.506-1.136.791-2.358.84-3.6.085-1.018.085-2.042 0-3.06.014 1.026-.173 2.046-.55 3 .107-2.166-.233-4.331-1-6.36l-.21 1.35-.24-1.64-.12.74s0-1.33-1.93-3.84c-.762-1.143-1.662-2.188-2.68-3.11l.42 1C33.914 2.341 28.38-.123 22.6 0 12.7.1 7.47 4.68 5.51 6.9c-.83.988-1.719 1.927-2.66 2.81l.66-.07-1.29 1.89.66-.26c-1.013 1.63-1.573 3.501-1.62 5.42-.08 3.18.54 4.63 0 6.11-.192.74-.638 1.387-1.26 1.83.753.005 1.456-.371 1.87-1-.106.486-.345.932-.69 1.29.08 0 .92-.17.92-.17.097 1.367.602 2.673 1.45 3.75.763 1.015 1.689 1.897 2.74 2.61l-.42-.86c.638.678 1.469 1.142 2.38 1.33 1.028.283 2.095.397 3.16.34l-.67-.35c.703.226 1.446.301 2.18.22.632-.068 1.247-.244 1.82-.52h-.43c.947-.263 1.865-.621 2.74-1.07-1.09.324-2.25.341-3.35.05l.67-.22c-.645-.079-1.283-.202-1.91-.37-.492-.109-.935-.376-1.26-.76.493.17 1.038.08 1.45-.24-1.267-.088-2.444-.687-3.26-1.66l.48.11c-.712-.762-1.282-1.646-1.68-2.61-.276-.793-.438-1.621-.48-2.46l-.17.63s-1.88-5.1 2.07-8.84c2.286-2.2 5.337-3.43 8.51-3.43l-.82-.6s3.48-.14 5.48 1.74c2 1.88 2.14 2.92 2.14 2.92.044-.834-.231-1.652-.77-2.29C26 14 26 14.89 26 14.89l.37-.18c1.215 1.888 1.937 4.05 2.1 6.29.37 2.904-.853 5.781-3.2 7.53-1.16.77-1.55.77-1.55.77.638.073 1.283-.05 1.85-.35-1.052 1.072-2.212 2.034-3.46 2.87l1.59-.46c-.664.81-1.407 1.55-2.22 2.21-.243.178-.509.323-.79.43H21l-.68.35h.27c-.385 1.12-1.037 2.129-1.9 2.94-1.22.95-1.44.91-1.39.91.05 0 1.24-.22 1.24-.22-2.537 2.532-4.709 5.407-6.45 8.54-2.26 4.44-1.37 10.17-1.37 10.17l.41-1.88c.067 1.76.36 3.504.87 5.19.287 1.365.849 2.658 1.65 3.8l-.15-1.46c.433 1.142.955 2.249 1.56 3.31.447.7 1.012 1.315 1.67 1.82-.76-.932-1.209-2.08-1.28-3.28.51 2.6 5.79 8.29 14.91 7.79C29.51 60.2 29 41.17 29 41.17z"/>
        <path fill="#D16234" d="M22.37 56.27c-.181 3.312.472 6.616 1.9 9.61C26.64 70.65 29 72 29 72h.82l-7.45-15.73z"/>
        <path fill="#DD6C3C" d="M63.78 49c-.33-.484-.773-.882-1.29-1.16-.918-.536-1.685-1.297-2.23-2.21-.17-.51-1.66 3.58-1.66 3.58s-.13 3.27 2.31 4.16c2.44.89 2.87-4.37 2.87-4.37zM56.18 51.55c1.946 2.177 2.994 5.01 2.93 7.93 0 5.1-3 8-5.92 8.86-.22.45.39.43 2.17 0 1.78-.43 5.25-1.64 7.32-.31 2.07 1.33 2.14 3.41 1.63 3.77-.51.36-2.28.82-5.24.67-2.96-.15-4.67-.76-8-.55-3.33.21-5.4 1.08-7.95-.53s-7.25-6.27-7.54-12.94c-.29-6.67 5.88-10.3 11.76-10.05s8.84 3.15 8.84 3.15z"/>
        <path fill="#D16234" d="M61.26 68.44c.856.234 1.58.808 2 1.59.412.581.603 1.29.54 2l-.52.15s.18-2.8-2.02-3.74zM60.07 69.23c.577.376 1 .948 1.19 1.61.15.527.173 1.082.07 1.62h-.41s.3-2.31-.85-3.23z"/>
        <path fill="#EE814A" d="M49.15 28.09c-.836 1.773-2.144 3.281-3.78 4.36C43 33.79 32.72 36.3 27 42.66c-5.72 6.36-4.83 13.81-4.14 17.94 7.13 4 26-2 26-2l11.77-12.69s-.58-3.36 1.23-4.91c1.81-1.55-12.71-12.91-12.71-12.91z"/>
        <path fill="#FFE8DE" d="M58.21 41.85c-1.361-.307-2.789-.093-4 .6-.986.64-1.68 1.642-1.93 2.79l.35-.24c-.35.482-.797.887-1.31 1.19l-1 .62-4.02 5.81-.22.23-.49 1.46-.16.45-1 1.94S38 70.32 38.2 70.39c.2.07 10.68-2 10.68-2 1.304-1.314 2.361-2.852 3.12-4.54.522-1.58.9-3.203 1.13-4.85l.12 1.22.4-1.52.15.33c.293-.735.697-1.42 1.2-2.03 1-1.4 2.59-1.88 3.81-4.79 1.22-2.91 1.13-3.93 1.13-3.93.103.323.134.664.09 1 .29-.706.452-1.457.48-2.22l.22.67c.072-.72.018-1.448-.16-2.15-.25-.71-.35-1-.35-1l.29.36c-.181-.435-.328-.883-.44-1.34-.082-.973-.884-1.728-1.86-1.75z"/>
        <path fill="#D16234" d="M58.49 20.41c-.75-2.127-.704-4.454.13-6.55 1.34-4 1.59-4.5 2.52-4.44.93.06 2.6 2.92 1.86 6.58-.46 2.192-1.426 4.247-2.82 6l-1.69-1.59z"/>
        <path fill="#EE814A" d="M55.71 21s.06-.4.52-2.08c.727-2.179.793-4.524.19-6.74-.83-2.82-2.48-3.39-3.82-2.13-1.34 1.26-2.22 3.41-1.5 6.82.72 3.41 2.11 3.63 2.39 6.35.62-.48 2.22-2.22 2.22-2.22z"/>
        <path fill="#EE814A" d="M73.36 31.88c-.859-4.396-3.69-8.153-7.68-10.19-6.63-3.2-12.33-1.42-15 3.12s-3.83 9.74 1.61 14.07 11.83 3 16.09.42c1.93-2.93 4.98-7.42 4.98-7.42z"/>
        <path fill="#FFE8DE" d="M72.7 31.74c-1.593-.407-3.286-.069-4.6.92-2.16 1.67-2.77 5.38.3 6.64.79 0 1.19-.91 1.19-.91 1.592-.485 2.897-1.633 3.58-3.15.187-1.188.023-2.404-.47-3.5z"/>
        <path fill="#873B31" d="M73.07 35.63c-.62.991-1.45 1.834-2.43 2.47-.56.325-1.235.38-1.84.148-.603-.231-1.07-.723-1.27-1.338-.21-1 .21-1 .48-.9.27.1-.08.67 0 1.06.258.723 1.007 1.149 1.76 1 1.25-.06 2.64-1.88 3.06-2.52.42-.64.24.08.24.08z"/>
        <path fill="#3D201C" d="M62.44 30.93c-.18-.108-.312-.28-.37-.48 0-.27.08-2.27-1.61-2.82-.674-.288-1.446-.23-2.07.157-.622.386-1.018 1.051-1.06 1.783-.28 1.57 1.56 2.31 2.55 2.28.716-.077 1.403-.327 2-.73.31-.12.57.12.56-.19z"/>
        <path fill="#FFF" d="M61 29.36s-.14.59.06.79c.2.2.36 0 .42-.4s-.22-.63-.35-.59c-.074.04-.123.116-.13.2zM60.92 31.11s-.22.22-.33.16c-.11-.06-.11-.17 0-.33s.51-.05.33.17z" opacity=".86"/>
        <path fill="#FF9273" d="M73.07 35.63s-2.73-1.07-2.53-2.63c.2-1.56 2.1-1.39 2.82-1.13 1.05 1.63.78 2.53-.29 3.76z"/>
        <path fill="#DF654D" d="M73 35.33c.044-.253-.034-.512-.21-.7-.535-.356-1.025-.776-1.46-1.25-.24-.43-.59.38.08.86.67.48 1.18.49 1.31.69.13.2.28.57.28.4z"/>
        <path fill="#FFF" d="M66.23 33s2 .41 2.53 1.29l.08-.06s-.41-.84-2.61-1.23zM62.7 34.38c1.166-.535 2.456-.739 3.73-.59.77.06 1.512.311 2.16.73l-.08.08c-1.804-.948-3.94-1.029-5.81-.22zM67.67 34.94c-.937-.081-1.882.003-2.79.25-.967.289-1.858.787-2.61 1.46.674-.698 1.519-1.208 2.45-1.48.965-.323 1.989-.433 3-.32l-.05.09zM67.4 35.37c-.576.03-1.13.232-1.59.58-.542.346-.97.843-1.23 1.43.338-.541.78-1.01 1.3-1.38.46-.268.97-.438 1.5-.5.024-.011.04-.034.044-.06.004-.026-.005-.052-.024-.07z"/>
        <path fill="#D16234" d="M53.76 10.28s-1.43.16-2.21 2.45.08 5.18 1.1 5.92c.703.474 1.213 1.183 1.44 2 .16.5-.21-.89.37-2 .852-1.49 1.28-3.184 1.24-4.9.04-2.65-1.07-3.62-1.94-3.47z"/>
        <path fill="#EE814A" d="M51.4 43.66s-.72 3 0 4.19c.72 1.19 3.42-.1 5.47.64s2.56 2.27 2.19 3.62c-.544 1.363-2.055 2.069-3.45 1.61-1.33-.42-2.46-1.73-4.53-1.31-2.07.42-4.24 1.21-6-.69-1.76-1.9-1.33-6.51.22-8.9 1.55-2.39 6.96-3.18 6.1.84zM43.21 50.73c1.98 2.409 3.025 5.452 2.94 8.57 0 5.51-3 8.61-5.93 9.58-.21.48.39.46 2.18 0s5.24-1.78 7.31-.34c2.07 1.44 2.15 3.68 1.63 4.07-.52.39-2.27.89-5.23.72-2.96-.17-4.68-.81-8-.59-3.32.22-5.4 1.16-8-.57-4.477-3.309-7.245-8.441-7.55-14-.26-7.17 5.91-11.11 11.79-10.83 3.265.027 6.41 1.23 8.86 3.39z"/>
        <path fill="#D16234" d="M46.3 52.62c-1.106-.456-1.905-1.443-2.12-2.62-.6-2.14.3-5.52.3-5.52-.658 1.821-.824 3.784-.48 5.69.69 2.53 2 2.68 2 2.68l.3-.23zM51.08 46.34c.02-.902.128-1.799.32-2.68-.119.838-.146 1.686-.08 2.53l-.24.15zM32.61 47.38c2.445-.29 4.922.113 7.15 1.16 2.713 1.138 4.787 3.414 5.67 6.22l.16-.45c-.805-2.237-2.374-4.117-4.43-5.31-2.599-1.453-5.6-2.021-8.55-1.62zM57.51 50.14c.404.17.75.45 1 .81.285.378.458.829.5 1.3l.09-.32c-.102-.871-.737-1.586-1.59-1.79zM56.57 51.37c.446.226.82.572 1.08 1 .162.313.27.651.32 1l.24-.16c-.185-.859-.808-1.557-1.64-1.84zM48.29 69c.882.261 1.61.887 2 1.72.422.64.613 1.406.54 2.17l-.51.16S50.5 70 48.29 69zM47.11 69.84c.583.422 1 1.034 1.18 1.73.148.575.176 1.174.08 1.76h-.41s.29-2.49-.85-3.49z"/>
        <path fill="#EE814A" d="M63.26 48.45c-.64-.297-1.383-.271-2 .07-1.105.417-1.747 1.571-1.52 2.73-.022.694.259 1.363.77 1.833.51.47 1.2.696 1.89.617 1.6-.07 3.52-2.82.86-5.25z"/>
        <path fill="#D16234" d="M59.75 51.1c.39-.081.768-.205 1.13-.37.423-.19.83-.41 1.22-.66 0 0-.18.46-1.17.91s-1.16.36-1.16.36l-.02-.24zM60.26 52.79c.429.086.873.033 1.27-.15.494-.139.963-.355 1.39-.64-.35.432-.837.732-1.38.85-.36.124-.74.185-1.12.18l-.16-.24z"/>
        <path fill="#F6CCBE" d="M21.08 24.65c.015-1.026-.172-2.046-.55-3-.28-.549-.616-1.068-1-1.55l.39.84s-.42-1.87-2-2c-1.58-.13-1.85.74-1.85.74v-.42c-.406.495-.709 1.066-.89 1.68-.135.63-.107 1.284.08 1.9l-.42-.52s-.89 1.08.62 2.56c-.774-.623-1.243-1.548-1.29-2.54l-.37.2.52-1.45-.52.34c-.178-1.863 1.145-3.536 3-3.79 3.3-.45 4.36 3.05 4.36 3.05v-1.5c.53 1.014.746 2.163.62 3.3.144 2.433-.595 4.837-2.08 6.77.707-1.451 1.174-3.009 1.38-4.61z"/>
    </g>
</svg>
