<svg xmlns="http://www.w3.org/2000/svg" xmlns:xlink="http://www.w3.org/1999/xlink" width="512" height="215" viewBox="0 0 512 215">
    <defs>
        <path id="prefix__a" d="M0 0.932L511.416 0.932 511.416 214 0 214z"/>
        <path id="prefix__c" d="M0 0.932L77.087 0.932 77.087 214 0 214z"/>
    </defs>
    <g fill="none" fill-rule="evenodd" transform="translate(0 .068)">
        <mask id="prefix__b" fill="#fff">
            <use xlink:href="#prefix__a"/>
        </mask>
        <path fill="#345497" d="M7.103 166.652c0-4.407-3.025-8.08-7.103-9.135v-5.405c4.078-1.056 7.103-4.727 7.103-9.135 0-4.407-3.025-8.078-7.103-9.135v-5.404c4.078-1.056 7.103-4.727 7.103-9.135 0-4.407-3.025-8.08-7.103-9.134v-5.406c4.078-1.055 7.103-4.726 7.103-9.134S4.078 87.549 0 86.494V81.09c4.078-1.056 7.103-4.728 7.103-9.135S4.078 63.875 0 62.82v-5.405c4.078-1.056 7.103-4.727 7.103-9.135 0-4.407-3.025-8.078-7.103-9.135v-14.54c13.075 0 23.674-10.598 23.674-23.673h464.069c0 13.075 10.599 23.674 23.673 23.674v14.539c-4.077 1.057-7.101 4.728-7.101 9.135 0 4.408 3.024 8.079 7.1 9.135v5.405c-4.076 1.056-7.1 4.728-7.1 9.135s3.024 8.079 7.1 9.135v5.404c-4.076 1.056-7.1 4.727-7.1 9.135 0 4.408 3.024 8.079 7.1 9.134v5.406c-4.076 1.055-7.1 4.727-7.1 9.134 0 4.408 3.024 8.079 7.1 9.135v5.404c-4.076 1.057-7.1 4.728-7.1 9.135 0 4.408 3.024 8.079 7.1 9.135v5.405c-4.076 1.056-7.1 4.728-7.1 9.135s3.024 8.078 7.1 9.135v14.539c-13.073 0-23.672 10.599-23.672 23.675H23.673c0-13.076-10.598-23.675-23.673-23.675v-14.54c4.078-1.056 7.103-4.727 7.103-9.134" mask="url(#prefix__b)"/>
        <mask id="prefix__d" fill="#fff">
            <use xlink:href="#prefix__c"/>
        </mask>
        <path fill="#F7F4EC" d="M0 39.145v-14.54c13.074 0 23.674-10.598 23.674-23.673h53.413V214H23.674c0-13.075-10.6-23.674-23.674-23.674v-14.54c4.077-1.056 7.103-4.727 7.103-9.134s-3.026-8.08-7.103-9.135v-5.405c4.077-1.056 7.103-4.727 7.103-9.135 0-4.407-3.026-8.078-7.103-9.135v-5.404c4.077-1.056 7.103-4.728 7.103-9.135s-3.026-8.08-7.103-9.135v-5.405c4.077-1.056 7.103-4.726 7.103-9.135 0-4.407-3.026-8.078-7.103-9.134v-5.405c4.077-1.055 7.103-4.727 7.103-9.134 0-4.408-3.026-8.08-7.103-9.135v-5.405c4.077-1.056 7.103-4.727 7.103-9.135 0-4.407-3.026-8.078-7.103-9.135" mask="url(#prefix__d)"/>
        <path fill="#688DBE" d="M74.47 11.103V5.872c0-1.426 1.178-2.604 2.626-2.604 1.428 0 2.604 1.178 2.604 2.604v5.23c0 1.448-1.176 2.605-2.604 2.605-1.448 0-2.625-1.157-2.625-2.604m0 15.672v-5.21c0-1.447 1.177-2.626 2.625-2.626 1.428 0 2.604 1.179 2.604 2.626v5.21c0 1.446-1.176 2.626-2.604 2.626-1.448 0-2.625-1.18-2.625-2.626m0 15.67v-5.208c0-1.448 1.177-2.626 2.625-2.626 1.428 0 2.604 1.178 2.604 2.626v5.209c0 1.447-1.176 2.625-2.604 2.625-1.448 0-2.625-1.178-2.625-2.625m0 15.692v-5.231c0-1.447 1.177-2.626 2.625-2.626 1.428 0 2.604 1.179 2.604 2.626v5.23c0 1.428-1.176 2.606-2.604 2.606-1.448 0-2.625-1.178-2.625-2.605m0 15.672v-5.231c0-1.448 1.177-2.605 2.625-2.605 1.428 0 2.604 1.157 2.604 2.605v5.23c0 1.427-1.176 2.606-2.604 2.606-1.448 0-2.625-1.18-2.625-2.605m0 15.67v-5.231c0-1.447 1.177-2.604 2.625-2.604 1.428 0 2.604 1.157 2.604 2.604v5.23c0 1.429-1.176 2.606-2.604 2.606-1.448 0-2.625-1.177-2.625-2.605m0 15.672V99.92c0-1.426 1.177-2.605 2.625-2.605 1.428 0 2.604 1.179 2.604 2.605v5.23c0 1.448-1.176 2.606-2.604 2.606-1.448 0-2.625-1.158-2.625-2.605m0 15.67v-5.23c0-1.426 1.177-2.604 2.625-2.604 1.428 0 2.604 1.178 2.604 2.605v5.23c0 1.448-1.176 2.606-2.604 2.606-1.448 0-2.625-1.158-2.625-2.606m0 15.672v-5.231c0-1.427 1.177-2.605 2.625-2.605 1.428 0 2.604 1.178 2.604 2.605v5.23c0 1.448-1.176 2.627-2.604 2.627-1.448 0-2.625-1.18-2.625-2.626m0 15.692v-5.23c0-1.45 1.177-2.626 2.625-2.626 1.428 0 2.604 1.177 2.604 2.626v5.23c0 1.426-1.176 2.604-2.604 2.604-1.448 0-2.625-1.178-2.625-2.604m0 15.67v-5.23c0-1.447 1.177-2.625 2.625-2.625 1.428 0 2.604 1.178 2.604 2.625v5.23c0 1.428-1.176 2.606-2.604 2.606-1.448 0-2.625-1.178-2.625-2.605m0 15.672v-5.231c0-1.448 1.177-2.605 2.625-2.605 1.428 0 2.604 1.157 2.604 2.605v5.23c0 1.428-1.176 2.605-2.604 2.605-1.448 0-2.625-1.177-2.625-2.604m0 15.67v-5.23c0-1.447 1.177-2.604 2.625-2.604 1.428 0 2.604 1.157 2.604 2.604v5.23c0 1.448-1.176 2.605-2.604 2.605-1.448 0-2.625-1.157-2.625-2.604"/>
        <path fill="#FFF" d="M122.067 27.565c-12.728 0-23.081 10.354-23.081 23.083v113.637c0 12.727 10.353 23.082 23.08 23.082h339.635c12.728 0 23.084-10.355 23.084-23.082V50.648c0-12.73-10.356-23.083-23.084-23.083H122.067zm-24.264 136.72V50.648c0-13.38 10.884-24.266 24.264-24.266H461.7c13.38 0 24.266 10.886 24.266 24.266v113.637c0 13.38-10.886 24.264-24.266 24.264H122.067c-13.38 0-24.264-10.884-24.264-24.264z"/>
        <text fill="#18336D" font-family="GenJyuuGothic-Bold, Gen Jyuu Gothic" font-size="28" font-weight="bold" letter-spacing="1">
            <tspan x="29" y="62.932">回</tspan> <tspan x="29" y="112.932">饋</tspan> <tspan x="29" y="162.932">一</tspan>
        </text>
        <path fill="#FFF" d="M98.05 81.475L485.13 81.475 485.13 80.238 98.05 80.238z"/>
    </g>
</svg>
